**ABCDEFGHIJKLMNOPQRSTUVWXYZabcdefghijklmnopqrstuvwxyz**************************
**PARASOLID !"#$%&'()*+,-./:;<=>?@[\]^_`{|}~0123456789**************************
**PART1;
MC=unknown;
MC_MODEL=unknown;
MC_ID=unknown;
OS=Windows;
OS_RELEASE=unknown;
FRU=Parasolid Version 26.0, build 224, 4/9/2014;
APPL=ANSYS DesignModeler;
SITE=Canonsburg PA;
USER=unknown;
FORMAT=text;
GUISE=transmit;
KEY=0_SYS 2_Geometry;
FILE=0_SYS 2_Geometry.x_t;
DATE=10/21/16 15:09:39;
**PART2;
SCH=SCH_2600224_25001;
USFLD_SIZE=0;
**PART3;
**END_OF_HEADER*****************************************************************
T51 : TRANSMIT FILE created by modeller version 260022417 SCH_2500000_250010 74
 4 1 4 0 0 2 3 4 5 12 2 634 6 7 0 0 0 0 1e3 1e-8 0 0 3 1 0 1 1 8 9 10 11 12 13 1
4 0 0 0 0 0 0 12 3 487 15 16 0 0 0 0 1e3 1e-8 0 2 4 1 0 1 1 17 18 19 0 20 21 0 0
 0 0 0 0 0 12 4 119 22 23 0 0 0 0 1e3 1e-8 0 3 5 1 0 1 1 24 25 26 27 28 29 30 0
 0 0 0 0 0 12 5 128 31 32 0 0 0 0 1e3 1e-8 0 4 0 1 0 1 1 33 34 35 36 37 38 39 0
 0 0 0 0 0 81 1 31 128 40 5 41 0 0 0 42 70 32 0 4 T5 0 0 3 20 1 43 43 13 33 6 0
 5 0 44 0 0 45 0 50 34 107 0 5 46 0 47 +0 0 0 0 0 -1 -1 0 0 32 35 105 0 5 48 0 4
9 +0 0 -3 0 0 -1 0 1 0 .536067 .530733 29 36 92 0 39 50 0 .3659307147995415 .365
9307147995495 0 19 37 4 0 5 45 0 51 V0 16 38 29 52 ?53 0 54 55 0 0 5 18 39 41 56
 57 0 58 36 ?5 81 2 56 42 59 39 0 0 60 61 62 63 17 57 0 64 65 65 39 66 67 0 68 -
18 58 37 60 66 39 0 50 ?5 81 2 60 38 59 58 0 0 52 56 69 70 17 66 0 71 68 68 58 5
7 67 0 65 +29 50 86 0 58 0 36 -.3659307147995425 .3659307147995485 0 15 71 53 0
 66 44 72 17 68 0 71 66 66 39 65 73 0 0 -16 67 9 74 ?66 73 0 75 0 0 5 17 65 0 64
 57 57 58 68 73 0 0 +15 64 60 0 65 76 0 16 73 15 77 ?65 78 67 79 0 0 5 81 2 77 1
6 59 73 0 0 0 80 81 82 16 78 17 80 ?83 54 73 84 0 0 5 137 79 85 0 73 55 75 0 -85
 86 0 ?38 55 84 0 38 87 79 0 +85 88 89 90 90 38 75 96 0 67 79 48 0 +85 34 91 92
 92 60 85 97 0 76 88 46 93 +UF46 .015875 .509577074626866 134 86 0 0 0 0 0 0 +94
 95 136 94 1 2 2 2 1 FFF1 96 97 98 135 95 1 0 45 4 96 0 3 6.28318530717959 3 127
 2 97 2 2 128 2 98 0 6.28318530717959 14 76 57 61 ?99 44 100 33 85 +0 0 99 44 51
 50 88 81 0 101 102 85 103 +0 0 -.6 0 0 1 1 0 0 67 46 106 0 5 85 34 104 +35 0 0
 1 .525452074626866 141 93 55 105 106 85 141 105 75 106 93 85 141 106 79 93 105
 85 141 104 85 104 104 46 14 101 71 107 ?0 99 108 33 88 -0 0 0 99 51 67 102 80 0
 99 109 88 0 +87 0 0 1 .525452074626866 141 103 55 103 103 88 14 99 61 110 ?101
 76 111 33 102 -0 0 101 76 51 50 109 79 0 44 0 102 0 +0 0 0 0 0 -1 -1 0 0 32 87
 83 0 5 84 55 112 +0 0 -3 0 0 -1 0 1 0 .536067 .530733 32 84 82 0 78 0 87 0 -0 0
 -.6 0 0 -1 0 1 0 .536067 .530733 141 112 102 112 112 87 14 44 51 113 ?76 0 71 3
3 109 -0 0 76 0 51 81 2 113 125 59 44 0 0 41 114 115 116 13 51 5 0 0 0 0 0 0 37
 44 80 2 59 117 118 9000 0 0 0 0 3 6 0 0 0 FFTFTFTTTFFFTF3 1 81 2 41 124 59 5 11
9 31 107 113 120 0 81 2 114 126 59 54 0 0 113 74 121 122 84 11 115 F1332.Cap1b82
 1 116 1334 16 54 19 114 ?123 38 78 48 0 0 5 81 2 74 127 59 67 0 0 114 0 124 125
 84 30 121 F1332.Cap1b..F1332.F1294.E131382 1 122 1344 84 35 124 F1332.Cap1b..F1
332.F1294.E1313.Wall82 1 125 1346 17 123 0 126 123 123 0 127 54 0 0 +32 48 98 0
 54 75 35 0 +0 0 0 0 0 -1 0 1 0 .536067 .530733 15 126 64 0 123 99 0 17 127 0 72
 127 127 0 123 54 0 0 -15 72 67 0 127 44 0 81 1 119 3 128 5 0 41 0 0 129 81 2 10
7 72 59 101 0 0 110 41 130 131 84 11 120 F2106.P40.B81 2 110 62 59 99 0 0 61 107
 132 133 84 5 130 F204082 1 131 2043 81 2 61 58 59 76 0 0 56 110 134 135 84 17 1
32 F1332.F1294.E131382 1 133 1335 84 22 134 F1332.F1294.E1313.Wall82 1 135 1336
 80 1 128 136 137 9000 0 0 0 0 3 6 0 0 0 FFTFFFFFTFFFFF1 82 1 129 42 79 13 137 B
odyAttrDef.479 18 118 AnsysParaAttrDef.315 111 63 0 83 99 126 17 83 0 111 83 83
 0 138 78 0 0 +17 138 0 139 138 138 0 83 78 0 0 -15 139 74 0 138 101 0 15 108 73
 0 53 101 139 17 53 0 108 53 53 0 140 38 0 0 +17 140 0 100 140 140 0 53 38 0 0 -
15 100 59 0 140 76 64 40 20 91 0 1 20 .02984701187286285 .3409425386147885 ??630
323812087906e-31 -.520192 0 -.1691027664308365 -.491333194042004 0 -.31913310048
87755 -.4082062849474925 0 -.4340401407304555 -.2797945081734485 0 -.50114517364
606 -.1192577404950554 0 -.511864955441702 .0560091208421913 0 -.463845349079666
 .2257564315658335 0 -.3623103315473465 .369589924009941 0 -.219682440374691 .47
0461545953984 0 -.0532507855540525 .517402166473671 0 .117940946646396 .50635945
1176078 0 .2754811659577615 .4394645199333425 0 .402808412160958 .32398382889908
85 0 .485976617896289 .1717772872649255 0 .514857092725882 -.000976569869646671
 0 .484957324514835 -.174693196405085 0 .3990805924161785 -.3286595151495325 0 .
2675758045308545 -.444422711218273 0 .106545903009117 -.508931445823054 0 630323
812087906e-31 -.520192 0 41 1 92 H630323812087906e-31 -.520192 0 40 39 89 0 1 39
 .028084678587456 .32926011205584 ??0 .520192 -.6 -.0422756916077094 .5184353896
01185 -.6 -.12581384373715 .504421314516394 -.6 -.205884383524815 .4767896533650
77 -.6 -.2803040541100625 .4363401683687215 -.6 -.3470738930430835 .384226909118
58 -.6 -.404433698117841 .3219102317337395 -.6 -.450901976262202 .25110248321949
75 -.6 -.485302350572336 .1737123383178285 -.6 -.506779040682249 .09179130991762
 -.6 -.514804711506112 .00748410266493921 -.6 -.509183761932417 -.07701727457755
3 -.6 -.490053221734883 -.159517049029176 -.6 -.4120796595333 -.31185436588698 -
.6 -.354796826238188 -.376957450856324 -.6 -.2883105029821535 -.430981825623837
 -.6 -.2141496552620425 -.473058520150643 -.6 -.134355311996227 -.50216764731201
3 -.6 -.0510573883617763 -.517627817053438 -.6 .03356549516145065 -.519085354725
174 -.6 .117262779190091 -.506520210782239 -.6 .1977324495304765 -.4802990390444
22 -.6 .27278120223395 -.441180445757069 -.6 .340392931738873 -.3902805637700225
 -.6 .3987844542789825 -.3290262544592045 -.6 .446446812584016 -.259101430845779
 -.6 .482172909311263 -.1823915701873715 -.6 .505073939636655 -.1009301000874596
 -.6 .514587872441308 -.0168485187874559 -.6 .510483095488243 .067669661400831 -
.6 .492859503057776 .1504324339889985 -.6 .462148033796321 .229282360407183 -.6
 .419108223466669 .3021413874647075 -.6 .3648219680968195 .367059099564189 -.6 .
3006806508443575 .4222649289732095 -.6 .2283623400095675 .46622320455117 -.6 .14
97961608682886 .497688067016865 -.6 .0765774937611816 .514405919745599 -.6 -3493
044158648055e-32 .520192 -.6 41 1 90 H-3493044158648055e-32 .520192 -.6 81 2 80
 18 59 78 0 0 77 52 141 142 81 2 52 30 59 38 0 0 80 60 143 144 84 24 141 F1332.F
1294.E1313..F204082 1 142 2046 84 29 143 F1332.F1294.E1313.Wall..F204082 1 144 2
045 84 35 81 F1332.Cap1b..F1332.F1294.E1313.Wall82 1 82 1350 84 10 69 F1332.Vtx7
82 1 70 1361 84 10 62 F1332.Vtx682 1 63 1362 19 45 1 0 5 0 37 33 S0 141 49 46 49
 49 35 141 47 75 47 47 34 74 20 43 3 0 0 74 119 31 0 0 0 0 0 0 0 0 0 0 0 0 0 0 0
 0 0 80 1 40 145 146 8017 0 0 0 0 0 0 0 0 0 TTTTTTTTTTTTTF3 84 12 42 S_Ellipse_a
Y79 13 146 SDL/TYSA_NAME81 1 22 119 40 4 147 0 0 0 148 70 23 0 4 T4 0 0 3 20 1 1
49 149 13 24 6 0 4 0 150 0 0 151 0 67 25 115 0 4 152 0 153 +26 0 0 1 .5254520746
26866 32 26 114 0 4 154 0 155 +0 0 -3 0 0 -1 0 1 0 .536067 .530733 29 27 107 0 1
56 157 0 -.3757537166008185 .3785824936003905 -3 19 28 4 0 4 151 0 158 V0 16 29
 36 159 ?160 0 161 154 0 0 4 18 30 51 162 163 0 164 165 ?4 81 2 162 52 59 30 0 0
 166 167 168 169 17 163 0 170 171 172 30 173 174 0 175 +18 164 49 166 172 30 156
 176 ?4 29 165 101 0 30 177 178 .3757537166008185 .3785824936003905 -2.9746 29 1
77 100 0 179 0 165 -.3757537166008185 .3785824936003905 -2.9746 29 178 102 0 180
 165 181 .3757537166008185 -.3785824936003905 -2.9746 18 180 39 182 183 184 179
 178 ?4 29 181 103 0 185 178 176 -.3757537166008185 -.3785824936003905 -2.9746 1
8 185 45 186 187 156 188 181 ?4 29 176 104 0 164 181 189 .3757537166008185 .3785
824936003905 -3 29 189 105 0 188 176 157 -.3757537166008185 -.3785824936003905 -
3 18 188 43 190 191 185 184 189 ?4 29 157 106 0 184 189 27 .3757537166008185 -.3
785824936003905 -3 18 184 41 192 193 188 180 157 ?4 81 2 192 42 59 184 0 0 182 1
90 194 195 17 193 0 170 191 171 184 196 197 0 198 +15 170 75 0 171 199 0 17 191
 0 170 187 193 188 198 200 0 201 -17 171 0 170 193 163 180 175 202 0 196 +17 196
 0 203 204 205 180 193 197 0 0 -16 197 24 206 ?193 207 202 208 0 0 4 17 198 0 20
9 210 210 184 191 200 0 205 +15 209 62 0 210 211 0 17 210 0 209 198 198 188 205
 212 0 0 +16 200 12 213 ?198 214 212 215 216 216 4 17 205 0 203 196 201 184 210
 212 0 0 -15 203 78 0 196 217 218 17 201 0 203 205 219 188 187 207 0 210 -16 212
 10 220 ?210 200 221 222 223 223 4 81 2 220 11 59 212 0 0 224 213 225 226 16 221
 8 224 ?227 212 228 229 0 0 4 32 222 110 0 223 215 230 231 +0 0 -3 0 0 -1 0 1 0
 .536067 .530733 16 223 16 232 ?233 216 214 222 212 212 4 81 2 232 17 59 223 0 0
 234 235 236 237 17 233 0 238 239 239 164 240 223 0 0 +16 216 18 235 ?239 241 22
3 215 200 200 4 16 214 14 234 ?242 223 200 243 241 241 4 81 2 234 15 59 214 0 0
 213 232 244 245 17 242 0 246 247 247 179 219 214 0 248 +32 243 93 0 214 229 249
 0 +0 0 -2.9746 0 0 -1 0 1 0 .536067 .530733 16 241 20 250 ?183 202 216 243 214
 214 4 81 2 250 21 59 241 0 0 235 251 252 253 17 183 0 254 175 175 180 204 241 0
 171 +16 202 22 251 ?171 197 241 255 256 256 4 81 2 251 23 59 202 0 0 250 206 25
7 258 31 255 91 0 256 0 229 0 +0 0 -2.9746 0 0 -1 -1 0 0 .5334 16 256 28 259 ?24
8 260 207 255 202 202 4 81 2 259 29 59 256 0 0 261 262 263 264 17 248 0 170 265
 187 179 247 256 0 266 +16 260 30 262 ?265 174 256 267 0 0 4 16 207 26 261 ?187
 256 197 268 0 0 4 81 2 261 27 59 207 0 0 206 259 269 270 17 187 0 170 248 191 1
85 201 207 0 247 +30 268 96 0 207 267 208 0 +-.3757537166008305 -.37858249360040
25 -3 0 0 1 30 267 95 0 260 249 268 0 --.3757537166008305 .378582493600402 -3 0
 0 1 30 208 97 0 197 268 271 0 -.3757537166008305 -.378582493600402 -3 0 0 1 38
 271 98 0 161 208 215 0 +272 273 274 275 275 16 161 34 276 ?277 29 174 271 0 0 4
 31 215 99 0 216 271 222 0 -0 0 -3 0 0 -1 -1 0 0 .5334 60 272 108 0 278 279 280
 281 +UF25 .015875 .509577074626866 50 273 87 0 282 0 283 284 +0 0 -2.9746 0 0 -
1 -1 0 0 40 40 274 0 1 40 .00706252058396539 .1666482847507095 ??0 .520192 -2.97
46 .0845513832154182 .513129479416035 -2.9746 .1667119196152085 .492166550252508
 -2.9746 .2442767344219945 .457914443329738 -2.9746 .3151412644059535 .411359971
4894105 -2.9746 .3774154006721745 .3538225336782395 -2.9746 .429470879540549 .28
69019807693835 -2.9746 .469974301290289 .2124227833359345 -2.9746 .4979077091310
15 .1323788598251028 -2.9746 .512579832478556 .0488816808706152 -2.9746 .5136313
00776769 -.0358876035084936 -2.9746 .50103652664291 -.1197228473911486 -2.9746 .
475103802736406 -.200436280202607 -2.9746 .4364737285529635 -.275902836323586 -2
.9746 .386114636183595 -.34410742550373 -2.9746 .325312470460432 -.4031961800359
175 -2.9746 .2556518685075305 -.451531207474853 -2.9746 .1789852441788965 -.4877
46533120278 -2.9746 .0973876978637972 -.510801122640549 -2.9746 .013225920560277
64 -.520020334268956 -2.9746 -.0712788263830901 -.515182697086889 -2.9746 -.1538
18676789126 -.496433959958703 -2.9746 -.2321305220221075 -.464319622327796 -2.97
46 -.304092039843174 -.419763723462164 -2.9746 -.367784867004238 -.3640282041909
225 -2.9746 -.421543939412122 -.298662324294343 -2.9746 -.463992473979327 -.2254
475892201595 -2.9746 -.494064219838284 -.1463427263629006 -2.9746 -.511015920791
365 -.063431602389953 -2.9746 -.514433283399122 .02112488179712335 -2.9746 -.504
233263937239 .1051335096788724 -2.9746 -.480664421732443 .1864118025610665 -2.97
46 -.4443057063538505 .262831631468276 -2.9746 -.396062604873919 .33236544395716
75 -2.9746 -.337158319497057 .393136339035734 -2.9746 -.269116837059661 .4434718
238089525 -2.9746 -.1937346576364005 .481959303078734 -2.9746 -.113038773700268
 .507499539690617 -2.9746 -.0572293909659648 .516968363179621 -2.9746 0 .520192
 -2.9746 41 1 275 H0 .520192 -2.9746 14 282 80 285 ?278 217 286 24 273 -287 288
 278 217 158 50 283 88 0 289 273 290 0 +0 0 -3.0254 0 0 -1 -1 0 0 141 284 271 28
4 284 273 14 289 57 291 ?211 150 292 24 283 +0 0 211 150 158 51 290 89 0 199 283
 279 0 -0 0 -3.0254 0 0 1 .5334 1 0 0 14 199 72 293 ?217 287 294 24 290 -0 0 217
 287 158 50 279 90 0 211 290 272 0 +0 0 -3 0 0 -1 -1 0 0 14 211 60 295 ?288 289
 209 24 279 +296 296 288 289 158 81 2 295 61 59 211 0 0 291 297 298 299 14 288 6
3 297 ?296 211 246 24 273 -282 287 296 211 158 14 296 66 300 ?287 288 238 24 279
 +211 211 287 288 158 13 158 5 0 0 0 0 0 0 28 150 14 150 53 167 ?289 0 301 24 15
2 +0 0 289 0 158 81 2 167 54 59 150 0 0 162 291 302 303 15 301 55 0 304 150 305
 50 152 111 0 150 280 25 306 +0 0 -.6 0 0 1 1 0 0 67 280 109 0 217 272 152 0 +22
2 0 0 1 .525452074626866 141 306 154 306 306 152 38 154 113 0 29 230 26 0 +272 1
52 307 308 308 32 230 112 0 228 222 154 0 -0 0 -.6 0 0 -1 0 1 0 .536067 .530733
 40 39 307 0 1 39 .028084678587456 .32926011205584 ??0 .520192 -.6 -.04227569160
77094 .518435389601185 -.6 -.12581384373715 .504421314516394 -.6 -.2058843835248
15 .476789653365077 -.6 -.2803040541100625 .4363401683687215 -.6 -.3470738930430
835 .38422690911858 -.6 -.404433698117841 .3219102317337395 -.6 -.45090197626220
2 .2511024832194975 -.6 -.485302350572336 .1737123383178285 -.6 -.50677904068224
9 .09179130991762 -.6 -.514804711506112 .00748410266493921 -.6 -.509183761932417
 -.077017274577553 -.6 -.490053221734883 -.159517049029176 -.6 -.4120796595333 -
.31185436588698 -.6 -.354796826238188 -.376957450856324 -.6 -.2883105029821535 -
.430981825623837 -.6 -.2141496552620425 -.473058520150643 -.6 -.134355311996227
 -.502167647312013 -.6 -.0510573883617763 -.517627817053438 -.6 .033565495161450
65 -.519085354725174 -.6 .117262779190091 -.506520210782239 -.6 .197732449530476
5 -.480299039044422 -.6 .27278120223395 -.441180445757069 -.6 .340392931738873 -
.3902805637700225 -.6 .3987844542789825 -.3290262544592045 -.6 .446446812584016
 -.259101430845779 -.6 .482172909311263 -.1823915701873715 -.6 .505073939636655
 -.1009301000874596 -.6 .514587872441308 -.0168485187874559 -.6 .510483095488243
 .067669661400831 -.6 .492859503057776 .1504324339889985 -.6 .462148033796321 .2
29282360407183 -.6 .419108223466669 .3021413874647075 -.6 .3648219680968195 .367
059099564189 -.6 .3006806508443575 .4222649289732095 -.6 .2283623400095675 .4662
2320455117 -.6 .1497961608682886 .497688067016865 -.6 .0765774937611816 .5144059
19745599 -.6 -3493044158648055e-32 .520192 -.6 41 1 308 H-3493044158648055e-32 .
520192 -.6 16 228 7 309 ?310 221 0 230 0 0 4 81 2 309 117 59 228 0 0 147 159 311
 312 17 310 0 305 310 310 0 313 228 0 0 +15 305 56 0 310 150 0 17 313 0 218 313
 313 0 310 228 0 0 -15 218 79 0 313 217 0 14 217 76 314 ?282 199 203 24 280 -0 0
 282 199 158 81 2 314 77 59 217 0 0 293 285 315 316 81 2 293 73 59 199 0 0 317 3
14 318 319 81 2 285 81 59 282 0 0 314 320 321 322 84 17 315 F1332.F1294.E131382
 1 316 1775 81 2 320 84 59 278 0 0 285 147 323 324 84 11 321 F1437.Cap2t82 1 322
 1921 14 278 83 320 ?0 282 325 24 272 +0 0 0 282 158 81 2 147 116 59 4 326 22 32
0 309 327 0 84 22 323 F1332.F1294.E1313.Wall82 1 324 1774 81 1 326 3 128 4 0 147
 0 0 328 84 11 327 F2040.P40.B82 1 328 41 15 325 85 0 277 278 329 17 277 0 325 2
77 277 0 330 161 0 0 +15 329 86 0 160 278 0 17 160 0 329 160 160 0 304 29 0 0 +1
7 304 0 301 304 304 0 160 29 0 0 -17 330 0 286 330 330 0 277 161 0 0 -15 286 82
 0 330 282 0 81 2 317 70 59 287 0 0 300 293 331 332 84 17 318 F1437.F1431.E14328
2 1 319 1440 14 287 69 317 ?199 296 254 24 273 -288 282 199 296 158 81 2 300 67
 59 296 0 0 297 317 333 334 84 11 331 F1437.Cap2t82 1 332 1923 81 2 297 64 59 28
8 0 0 295 300 335 336 84 11 333 F1332.Cap1t82 1 334 1333 84 11 335 F1437.Cap2t82
 1 336 1922 15 254 71 0 175 287 0 17 175 0 254 183 183 30 171 202 0 204 -17 204
 0 203 173 196 30 183 241 0 0 -17 173 0 203 240 204 164 163 174 0 233 -17 240 0
 203 266 173 156 233 223 0 0 -16 174 32 337 ?163 161 260 249 0 0 4 81 2 337 33 5
9 174 0 0 262 276 338 339 30 249 94 0 174 243 267 0 +.3757537166008305 .37858249
36004025 -3 0 0 1 81 2 262 31 59 260 0 0 259 337 340 341 81 2 276 35 59 161 0 0
 337 342 343 344 84 36 338 F1332.F1294.E1313..F1437.F1431.E143282 1 339 1931 81
 2 342 38 59 179 0 0 276 182 345 346 84 35 343 F1332.F1294.E1313.Wall..F1437.Cap
2t82 1 344 1926 18 179 37 342 242 180 0 177 ?4 81 2 182 40 59 180 0 0 342 192 34
7 348 84 10 345 F1437.Vtx882 1 346 1935 84 10 347 F1437.Vtx782 1 348 1937 84 36
 340 F1332.F1294.E1313..F1437.F1431.E143282 1 341 1932 17 266 0 203 219 240 179
 265 260 0 0 -18 156 47 349 265 164 185 27 ?4 81 2 349 48 59 156 0 0 186 166 350
 351 17 265 0 170 172 248 156 266 260 0 239 +17 172 0 170 163 265 164 239 216 0
 173 -17 239 0 238 233 233 156 172 216 0 240 +15 238 68 0 233 296 0 81 2 186 46
 59 185 0 0 190 349 352 353 81 2 166 50 59 164 0 0 349 162 354 355 84 10 350 F14
37.Vtx282 1 351 1454 84 10 354 F1437.Vtx382 1 355 1455 81 2 190 44 59 188 0 0 19
2 186 356 357 84 10 352 F1437.Vtx582 1 353 1938 84 10 356 F1437.Vtx482 1 357 145
3 17 219 0 203 201 266 185 242 214 0 0 -81 2 159 118 59 29 0 0 309 0 358 359 84
 24 311 F1332.F1294.E1313..F204082 1 312 2047 84 29 358 F1332.F1294.E1313.Wall..
F204082 1 359 2048 81 2 291 58 59 289 0 0 167 295 360 361 84 5 302 F204082 1 303
 2044 84 11 360 F1437.Cap1t82 1 361 1438 15 246 65 0 247 288 0 17 247 0 246 242
 242 185 248 256 0 219 -84 11 298 F1332.Cap1t82 1 299 1443 15 294 74 0 362 199 1
70 17 362 0 294 362 362 0 227 221 0 0 -17 227 0 292 227 227 0 362 221 0 0 +15 29
2 59 0 227 289 0 141 281 271 363 363 272 141 363 154 281 281 272 81 2 206 25 59
 197 0 0 251 261 364 365 84 36 269 F1332.F1294.E1313..F1437.F1431.E143282 1 270
 1933 84 36 364 F1332.F1294.E1313..F1437.F1431.E143282 1 365 1934 84 30 263 F143
7.Cap2t..F1437.F1431.E143282 1 264 1925 31 229 92 0 221 255 243 0 +0 0 -3.0254 0
 0 -1 -1 0 0 .5334 84 30 257 F1437.Cap2t..F1437.F1431.E143282 1 258 1924 81 2 23
5 19 59 216 0 0 232 250 366 367 84 30 252 F1332.F1294.E1313..F1437.Cap2t82 1 253
 1928 84 30 366 F1332.Cap1t..F1437.F1431.E143282 1 367 1929 81 2 213 13 59 200 0
 0 220 234 368 369 84 30 244 F1332.F1294.E1313..F1437.Cap2t82 1 245 1927 84 30 3
68 F1437.F1431.E1432..F1332.Cap1t82 1 369 1930 84 30 236 F1332.Cap1t..F1332.F129
4.E131382 1 237 1449 141 231 280 231 231 222 81 2 224 9 59 221 0 0 0 220 370 371
 84 30 370 F1437.Cap1t..F1437.F1431.E143282 1 371 1444 84 30 225 F1332.Cap1t..F1
332.F1294.E131382 1 226 1343 84 10 194 F1437.Vtx182 1 195 1452 84 10 168 F1437.V
tx682 1 169 1936 19 151 1 0 4 0 28 24 S0 141 155 25 155 155 26 141 153 272 153 1
53 25 74 20 149 3 0 0 159 326 22 0 0 0 0 0 0 0 0 0 0 0 0 0 0 0 0 0 84 10 148 Ell
ipse_aY81 1 15 487 40 3 372 0 0 0 373 70 16 0 4 T3 0 0 3 20 1 374 374 13 17 442
 0 3 0 375 0 0 376 0 67 18 216 0 3 377 0 378 +379 0 0 -1 .525452074626866 32 19
 217 0 3 379 0 380 +0 0 3 0 0 1 1 0 0 .536067 .530733 19 20 444 0 3 376 0 381 V0
 16 21 27 382 ?383 0 384 385 0 0 3 81 2 382 485 59 21 0 0 386 387 388 389 17 383
 0 390 383 383 0 391 21 0 0 +16 384 26 392 ?393 21 394 395 0 0 3 32 385 180 0 21
 0 396 0 +0 0 0 0 0 1 1 0 0 .536067 .530733 38 396 181 0 394 385 395 0 +397 398
 399 400 400 16 394 8 387 ?401 384 402 396 0 0 3 32 395 213 0 384 396 403 0 +0 0
 .6 0 0 1 1 0 0 .536067 .530733 60 397 210 0 404 398 405 406 +UF18 .015875 .5095
77074626866 50 398 168 0 3 407 397 408 +0 0 0 0 0 1 1 0 0 40 20 399 0 1 20 .0298
4701187286305 .3409425386147885 ??-.520192 630323812087906e-31 0 -.4913331940420
04 -.1691027664308365 0 -.408206284947492 -.319133100488776 0 -.2797945081734485
 -.434040140730456 0 -.1192577404950556 -.50114517364606 0 .0560091208421918 -.5
11864955441702 0 .2257564315658335 -.463845349079666 0 .3695899240099415 -.36231
0331547346 0 .470461545953984 -.2196824403746905 0 .517402166473672 -.0532507855
540525 0 .506359451176078 .117940946646396 0 .439464519933342 .275481165957762 0
 .3239838288990885 .402808412160958 0 .1717772872649255 .48597661789629 0 -.0009
76569869646902 .514857092725882 0 -.1746931964050855 .484957324514836 0 -.328659
5151495325 .3990805924161785 0 -.444422711218273 .2675758045308545 0 -.508931445
823054 .1065459030091166 0 -.520192 630323812087906e-31 0 41 1 400 H-.520192 630
323812087906e-31 0 50 407 167 0 375 0 398 0 +0 0 0 0 0 1 1 0 0 141 408 396 408 4
08 398 14 375 105 386 ?404 0 409 17 407 -0 0 404 0 381 81 2 386 484 59 375 0 0 3
92 382 410 411 14 404 101 412 ?413 375 414 17 397 +0 0 413 375 381 15 409 107 0
 401 375 415 13 381 443 0 0 0 0 0 0 20 375 17 401 0 409 401 401 0 416 394 0 0 +1
5 415 144 0 391 375 0 17 391 0 415 391 391 0 383 21 0 0 -17 416 0 414 416 416 0
 401 394 0 0 -15 414 103 0 416 404 417 15 417 104 0 418 404 0 17 418 0 417 418 4
18 0 419 402 0 0 +17 419 0 420 419 419 0 418 402 0 0 -16 402 7 421 ?418 394 0 40
3 0 0 3 81 2 421 219 59 402 0 0 372 392 422 423 38 403 214 0 402 395 379 0 +397
 405 424 425 425 32 379 215 0 3 403 19 426 +0 0 3 0 0 1 1 0 0 .536067 .530733 50
 405 211 0 413 397 377 427 +0 0 .6 0 0 1 1 0 0 40 40 424 0 1 40 .007062520583965
39 .1666482847507095 ??.520192 0 .6 .513129479416035 .0845513832154183 .6 .49216
6550252508 .1667119196152085 .6 .457914443329738 .2442767344219945 .6 .411359971
489411 .3151412644059535 .6 .3538225336782395 .377415400672174 .6 .2869019807693
84 .429470879540549 .6 .212422783335935 .469974301290288 .6 .1323788598251034 .4
97907709131015 .6 .0488816808706159 .512579832478556 .6 -.0358876035084929 .5136
31300776769 .6 -.1197228473911478 .50103652664291 .6 -.200436280202606 .47510380
2736406 .6 -.275902836323585 .436473728552964 .6 -.3441074255037295 .38611463618
35955 .6 -.403196180035917 .325312470460433 .6 -.451531207474853 .25565186850753
15 .6 -.487746533120278 .1789852441788975 .6 -.510801122640549 .0973876978637983
 .6 -.520020334268956 .0132259205602788 .6 -.515182697086889 -.071278826383089 .
6 -.496433959958703 -.153818676789125 .6 -.464319622327797 -.2321305220221065 .6
 -.4197637234621645 -.304092039843173 .6 -.364028204190924 -.367784867004237 .6
 -.298662324294344 -.4215439394121215 .6 -.225447589220161 -.463992473979326 .6
 -.146342726362903 -.494064219838283 .6 -.0634316023899553 -.511015920791365 .6
 .02112488179712105 -.514433283399122 .6 .1051335096788702 -.504233263937239 .6
 .1864118025610645 -.480664421732444 .6 .2628316314682745 -.4443057063538515 .6
 .332365443957166 -.3960626048739205 .6 .3931363390357325 -.337158319497059 .6 .
4434718238089515 -.269116837059663 .6 .481959303078733 -.193734657636403 .6 .507
499539690617 -.1130387737002702 .6 .51696836317962 -.0572293909659662 .6 .520192
 0 .6 41 1 425 H.520192 0 .6 14 413 124 428 ?429 404 420 17 405 +0 0 429 404 381
 67 377 212 0 429 405 18 0 +19 0 0 -1 .525452074626866 141 427 403 427 427 405 1
4 429 128 430 ?0 413 390 17 377 -0 0 0 413 381 81 2 430 129 59 429 0 0 428 372 4
31 432 15 390 130 0 383 429 433 15 433 131 0 434 429 0 17 434 0 433 434 434 0 39
3 384 0 0 -17 393 0 435 393 393 0 434 384 0 0 +15 435 127 0 393 413 0 81 2 428 1
25 59 413 0 0 412 430 436 437 81 2 372 218 59 3 438 15 430 421 439 0 84 15 431 F
1320.F49.E127282 1 432 1749 81 1 438 3 128 3 0 372 0 0 440 84 11 439 F2030.P27.B
82 1 440 40 81 2 412 102 59 404 0 0 0 428 441 442 84 5 436 F203082 1 437 2034 84
 20 441 F1320.F49.E1272.Wall82 1 442 1750 15 420 126 0 419 413 435 141 426 18 42
6 426 379 81 2 392 220 59 384 0 0 421 386 443 444 84 27 422 F1320.F49.E1272.Wall
..F203082 1 423 2037 84 22 443 F1320.F49.E1272..F203082 1 444 2038 84 11 410 F13
20.Cap1b82 1 411 1324 141 406 403 445 445 397 141 445 396 406 406 397 81 2 387 4
86 59 394 0 0 382 0 446 447 84 33 446 F1320.Cap1b..F1320.F49.E1272.Wall82 1 447
 1330 84 28 388 F1320.Cap1b..F1320.F49.E127282 1 389 1328 19 376 1 0 3 0 20 17 S
0 141 380 377 380 380 19 141 378 397 378 378 18 74 20 374 3 0 0 387 438 15 0 0 0
 0 0 0 0 0 0 0 0 0 0 0 0 0 0 84 12 373 S_Ellipse_aX81 1 6 634 40 2 448 0 0 0 449
 70 7 0 4 T2 0 0 3 20 1 450 450 13 8 622 0 2 0 451 0 0 452 0 67 9 29 0 453 454 0
 0 +455 0 0 -1 .525452074626866 38 10 563 0 456 457 0 0 +458 459 460 461 461 29
 11 240 0 14 462 0 .3785824935593435 -.375753716641765 3 19 12 624 0 2 452 0 463
 V0 16 13 572 464 ?465 0 456 466 0 0 2 18 14 237 467 468 0 469 11 ?2 81 2 467 40
3 59 14 0 0 470 471 472 473 17 468 0 474 475 476 14 477 478 0 479 +18 469 229 47
1 480 14 481 462 ?2 81 2 471 404 59 469 0 0 467 482 483 484 17 480 0 474 476 475
 469 485 486 0 487 +18 481 305 488 489 469 490 491 ?2 29 462 232 0 469 491 11 -.
3785824935593435 .375753716641765 3 29 491 360 0 481 492 462 .3785824935593435 -
.375753716641765 2.9746 29 492 361 0 490 493 491 -.3785824935593435 -.3757537166
41765 2.9746 18 490 303 494 495 481 496 492 ?2 29 493 362 0 496 497 492 -.378582
4935593435 .375753716641765 2.9746 18 496 307 470 498 490 499 493 ?2 29 497 363
 0 499 500 493 .3785824935593435 .375753716641765 2.9746 18 499 300 482 501 496
 502 497 ?2 29 500 365 0 502 503 497 -.3785824935595365 -.375753716641956 3 18 5
02 306 504 477 499 505 500 ?2 29 503 367 0 505 0 500 .3785824935595365 .37575371
66419565 3 18 505 304 506 485 502 0 503 ?2 81 2 506 399 59 505 0 0 507 488 508 5
09 17 485 0 510 501 487 505 480 486 0 511 -15 510 310 0 501 512 0 17 501 0 510 5
13 485 499 511 514 0 515 -17 487 0 510 485 513 469 516 517 0 518 -16 486 285 519
 ?480 520 478 521 478 478 2 17 511 0 522 523 524 505 501 514 0 475 +15 522 251 0
 524 453 0 17 523 0 522 525 511 14 475 526 0 0 -17 524 0 522 511 516 499 498 527
 0 0 -16 514 280 507 ?511 526 528 529 0 0 2 17 475 0 474 480 468 505 523 526 0 0
 +15 474 242 0 475 530 0 16 526 238 531 ?475 532 514 455 532 532 2 81 2 531 239
 59 526 0 0 533 534 535 536 16 532 2 533 ?476 456 526 455 526 526 2 32 455 4 0 5
26 537 457 538 +0 0 3 0 0 1 1 0 0 .536067 .530733 32 537 69 0 2 529 455 539 +0 0
 3 0 0 1 1 0 0 .536067 .530733 38 457 224 0 540 455 10 0 +458 541 542 543 543 14
1 538 9 538 538 455 16 540 284 544 ?545 546 547 457 0 0 2 60 458 63 0 548 549 45
4 550 +UF549 .015875 .509577074626866 50 541 350 0 451 459 551 552 +0 0 2.9746 0
 0 1 1 0 0 40 40 542 0 1 40 .00706252058396539 .1666482847507095 ??.520192 0 2.9
746 .513129479416035 .0845513832154183 2.9746 .492166550252508 .1667119196152085
 2.9746 .457914443329738 .2442767344219945 2.9746 .411359971489411 .315141264405
9535 2.9746 .3538225336782395 .377415400672174 2.9746 .286901980769384 .42947087
9540549 2.9746 .212422783335935 .469974301290288 2.9746 .1323788598251034 .49790
7709131015 2.9746 .0488816808706159 .512579832478556 2.9746 -.0358876035084929 .
513631300776769 2.9746 -.1197228473911478 .50103652664291 2.9746 -.2004362802026
06 .475103802736406 2.9746 -.275902836323585 .436473728552964 2.9746 -.344107425
5037295 .3861146361835955 2.9746 -.403196180035917 .325312470460433 2.9746 -.451
531207474853 .2556518685075315 2.9746 -.487746533120278 .1789852441788975 2.9746
 -.510801122640549 .0973876978637983 2.9746 -.520020334268956 .0132259205602788
 2.9746 -.515182697086889 -.071278826383089 2.9746 -.496433959958703 -.153818676
789125 2.9746 -.464319622327797 -.2321305220221065 2.9746 -.4197637234621645 -.3
04092039843173 2.9746 -.364028204190924 -.367784867004237 2.9746 -.2986623242943
44 -.4215439394121215 2.9746 -.225447589220161 -.463992473979326 2.9746 -.146342
726362903 -.494064219838283 2.9746 -.0634316023899553 -.511015920791365 2.9746 .
02112488179712105 -.514433283399122 2.9746 .1051335096788702 -.504233263937239 2
.9746 .1864118025610645 -.480664421732444 2.9746 .2628316314682745 -.44430570635
38515 2.9746 .332365443957166 -.3960626048739205 2.9746 .3931363390357325 -.3371
58319497059 2.9746 .4434718238089515 -.269116837059663 2.9746 .481959303078733 -
.193734657636403 2.9746 .507499539690617 -.1130387737002702 2.9746 .516968363179
62 -.0572293909659662 2.9746 .520192 0 2.9746 41 1 543 H.520192 0 2.9746 14 451
 340 553 ?548 0 554 8 541 -555 556 548 0 463 50 459 601 0 557 0 541 558 +0 0 .6
 0 0 1 1 0 0 51 551 348 0 512 541 549 0 +0 0 2.9746 0 0 1 .5334 1 0 0 141 552 45
7 552 552 541 14 512 308 559 ?555 530 510 8 551 +560 560 555 530 463 67 549 64 0
 2 551 458 561 +537 0 0 -1 .525452074626866 141 561 458 561 561 549 81 2 559 309
 59 512 0 0 562 563 564 565 14 555 317 566 ?453 512 567 8 541 -556 451 453 512 4
63 14 530 7 568 ?512 560 474 8 454 +0 0 512 560 463 14 560 337 563 ?530 556 569
 8 551 +512 512 530 556 463 13 463 623 0 0 0 0 0 0 12 451 81 2 563 312 59 560 0
 0 559 566 570 571 14 556 320 572 ?560 557 573 8 541 -451 555 560 557 463 15 569
 313 0 479 560 0 17 479 0 569 477 574 14 525 528 0 523 -17 477 0 569 495 479 502
 468 478 0 575 -17 574 0 569 479 495 481 576 520 0 525 +17 525 0 522 577 523 481
 479 528 0 0 +16 528 281 578 ?525 514 579 580 0 0 2 81 2 578 397 59 528 0 0 581
 507 582 583 16 579 297 581 ?575 528 517 584 0 0 2 30 580 352 0 528 584 529 0 +.
3785824935591505 -.3757537166415695 3 0 0 -1 30 584 353 0 579 585 580 0 --.37858
2493559151 -.3757537166415695 3 0 0 -1 30 529 351 0 514 580 537 0 -.378582493559
151 .3757537166415695 3 0 0 -1 30 585 354 0 517 586 584 0 +-.378582493559151 .37
57537166415695 3 0 0 -1 16 517 298 587 ?516 579 527 585 0 0 2 32 586 355 0 546 5
21 585 0 +0 0 2.9746 0 0 1 1 0 0 .536067 .530733 16 546 283 588 ?489 527 540 586
 527 527 2 31 521 358 0 486 589 586 0 +0 0 3 0 0 1 1 0 0 .5334 31 589 359 0 547
 466 521 0 +0 0 2.9746 0 0 1 1 0 0 .5334 16 547 274 534 ?513 540 520 589 520 520
 2 32 466 602 0 13 0 589 0 +0 0 .6 0 0 1 1 0 0 .536067 .530733 81 2 534 275 59 5
47 0 0 531 590 591 592 17 513 0 510 487 501 496 515 547 0 516 +16 520 276 590 ?5
74 547 486 589 547 547 2 81 2 590 277 59 520 0 0 534 519 593 594 81 2 519 286 59
 486 0 0 590 562 595 596 84 30 593 F1396.Cap1t..F1396.F1383.E139182 1 594 1905 8
1 2 562 288 59 478 0 0 519 559 597 598 84 30 595 F1396.Cap1b..F1396.F1383.E13918
2 1 596 1404 16 478 287 562 ?468 486 0 521 486 486 2 84 30 597 F1396.Cap1b..F139
6.F1383.E139182 1 598 1405 17 515 0 567 498 498 499 513 547 0 524 -17 516 0 522
 524 518 496 487 517 0 0 +17 518 0 522 516 575 469 476 532 0 0 -17 575 0 522 518
 577 502 495 579 0 476 +17 476 0 474 468 480 502 518 532 0 0 +17 577 0 522 575 5
25 490 489 546 0 0 -17 495 0 569 574 477 490 575 579 0 576 -17 576 0 573 489 489
 490 574 520 0 577 -15 573 322 0 576 556 0 17 489 0 573 576 576 481 577 546 0 57
4 +15 567 319 0 515 555 0 17 498 0 567 515 515 496 524 527 0 513 +16 527 282 599
 ?498 517 546 586 546 546 2 81 2 599 394 59 527 0 0 588 587 600 601 81 2 588 393
 59 546 0 0 544 599 602 603 81 2 587 395 59 517 0 0 599 581 604 605 84 28 600 F1
320.F49.E1272..F1396.Cap1t82 1 601 1908 81 2 581 396 59 579 0 0 587 578 606 607
 84 34 604 F1320.F49.E1272..F1396.F1383.E139182 1 605 1909 84 34 606 F1320.F49.E
1272..F1396.F1383.E139182 1 607 1910 81 2 544 392 59 540 0 0 568 588 608 609 84
 28 602 F1320.F49.E1272..F1396.Cap1t82 1 603 1907 81 2 568 391 59 530 0 0 553 54
4 610 611 84 33 608 F1320.F49.E1272.Wall..F1396.Cap1t82 1 609 1906 81 2 553 341
 59 451 0 0 572 568 612 613 84 11 610 F1320.Cap1t82 1 611 1323 81 2 572 321 59 5
56 0 0 566 553 614 615 84 11 612 F1396.Cap1t82 1 613 1397 81 2 566 318 59 555 0
 0 563 572 616 617 84 11 614 F1396.Cap1t82 1 615 1902 84 11 616 F1396.Cap1t82 1
 617 1903 84 30 591 F1396.Cap1t..F1396.F1383.E139182 1 592 1403 81 2 507 398 59
 514 0 0 578 506 618 619 84 34 582 F1320.F49.E1272..F1396.F1383.E139182 1 583 19
11 84 34 618 F1320.F49.E1272..F1396.F1383.E139182 1 619 1912 14 557 586 620 ?556
 548 621 8 459 -0 0 556 548 463 81 2 620 629 59 557 0 0 448 464 622 623 14 548 5
1 624 ?557 451 625 8 458 +0 0 557 451 463 15 621 588 0 626 557 627 17 626 0 621
 626 626 0 628 456 0 0 +15 627 589 0 629 557 0 17 629 0 627 629 629 0 465 13 0 0
 -17 465 0 630 465 465 0 629 13 0 0 +15 630 567 0 465 453 522 14 453 26 631 ?0 5
55 630 8 9 -0 0 0 555 463 81 2 631 35 59 453 0 0 0 624 632 633 81 2 624 226 59 5
48 0 0 631 533 634 635 84 15 632 F1320.F49.E127282 1 633 1325 81 2 533 231 59 53
2 0 0 624 531 636 637 84 20 634 F1320.F49.E1272.Wall82 1 635 1326 84 28 636 F132
0.Cap1t..F1320.F49.E127282 1 637 1327 17 628 0 625 628 628 0 626 456 0 0 -16 456
 573 638 ?626 13 532 10 0 0 2 81 2 638 633 59 456 0 0 464 0 639 640 81 2 464 632
 59 13 0 0 620 638 641 642 84 27 639 F1320.F49.E1272.Wall..F203082 1 640 2036 84
 22 641 F1320.F49.E1272..F203082 1 642 2035 15 625 562 0 628 548 643 15 643 222
 0 545 548 0 17 545 0 643 545 545 0 644 540 0 0 +17 644 0 554 644 644 0 545 540
 0 0 -15 554 342 0 644 451 0 81 2 448 542 59 2 645 6 494 620 646 0 84 5 622 F203
082 1 623 2033 81 1 645 73 128 2 0 448 0 0 647 81 2 494 406 59 490 0 0 482 448 6
48 649 84 7 646 F1320.B81 2 482 405 59 499 0 0 471 494 650 651 84 10 648 F1396.V
tx882 1 649 1915 84 10 650 F1396.Vtx782 1 651 1913 82 1 647 27 84 17 570 F1396.F
1383.E139182 1 571 1399 50 454 8 0 530 458 9 0 +0 0 3 0 0 1 1 0 0 84 17 564 F139
6.F1383.E139182 1 565 1904 141 558 10 558 558 459 141 550 457 652 652 458 141 65
2 10 550 550 458 141 539 549 539 539 537 84 28 535 F1320.Cap1t..F1320.F49.E12728
2 1 536 1408 81 2 488 400 59 481 0 0 506 504 653 654 84 10 508 F1396.Vtx382 1 50
9 1414 81 2 504 401 59 502 0 0 488 470 655 656 84 10 653 F1396.Vtx582 1 654 1916
 81 2 470 402 59 496 0 0 504 467 657 658 84 10 655 F1396.Vtx482 1 656 1412 84 10
 657 F1396.Vtx682 1 658 1914 84 10 483 F1396.Vtx182 1 484 1411 84 10 472 F1396.V
tx282 1 473 1413 19 452 31 0 2 0 12 8 S0 40 40 460 0 1 40 .00706252058396539 .16
66482847507095 ??.520192 0 .6 .513129479416035 .0845513832154183 .6 .49216655025
2508 .1667119196152085 .6 .457914443329738 .2442767344219945 .6 .411359971489411
 .3151412644059535 .6 .3538225336782395 .377415400672174 .6 .286901980769384 .42
9470879540549 .6 .212422783335935 .469974301290288 .6 .1323788598251034 .4979077
09131015 .6 .0488816808706159 .512579832478556 .6 -.0358876035084929 .5136313007
76769 .6 -.1197228473911478 .50103652664291 .6 -.200436280202606 .47510380273640
6 .6 -.275902836323585 .436473728552964 .6 -.3441074255037295 .3861146361835955
 .6 -.403196180035917 .325312470460433 .6 -.451531207474853 .2556518685075315 .6
 -.487746533120278 .1789852441788975 .6 -.510801122640549 .0973876978637983 .6 -
.520020334268956 .0132259205602788 .6 -.515182697086889 -.071278826383089 .6 -.4
96433959958703 -.153818676789125 .6 -.464319622327797 -.2321305220221065 .6 -.41
97637234621645 -.304092039843173 .6 -.364028204190924 -.367784867004237 .6 -.298
662324294344 -.4215439394121215 .6 -.225447589220161 -.463992473979326 .6 -.1463
42726362903 -.494064219838283 .6 -.0634316023899553 -.511015920791365 .6 .021124
88179712105 -.514433283399122 .6 .1051335096788702 -.504233263937239 .6 .1864118
025610645 -.480664421732444 .6 .2628316314682745 -.4443057063538515 .6 .33236544
3957166 -.3960626048739205 .6 .3931363390357325 -.337158319497059 .6 .4434718238
089515 -.269116837059663 .6 .481959303078733 -.193734657636403 .6 .5074995396906
17 -.1130387737002702 .6 .51696836317962 -.0572293909659662 .6 .520192 0 .6 41 1
 461 H.520192 0 .6 74 20 450 3 0 0 638 645 6 0 0 0 0 0 0 0 0 0 0 0 0 0 0 0 0 0 8
4 10 449 Ellipse_aX1 0 
