**ABCDEFGHIJKLMNOPQRSTUVWXYZabcdefghijklmnopqrstuvwxyz**************************
**PARASOLID !"#$%&'()*+,-./:;<=>?@[\]^_`{|}~0123456789**************************
**PART1;
MC=unknown;
MC_MODEL=unknown;
MC_ID=unknown;
OS=Windows;
OS_RELEASE=unknown;
FRU=Parasolid Version 26.0, build 224, 4/9/2014;
APPL=ANSYS DesignModeler;
SITE=Canonsburg PA;
USER=unknown;
FORMAT=text;
GUISE=transmit;
KEY=1_SYS 2_Geometry;
FILE=1_SYS 2_Geometry.x_t;
DATE=10/22/16 02:30:43;
**PART2;
SCH=SCH_2600224_25001;
USFLD_SIZE=0;
**PART3;
**END_OF_HEADER*****************************************************************
T51 : TRANSMIT FILE created by modeller version 260022417 SCH_2500000_250010 74
 4 1 4 0 0 2 3 4 5 12 2 634 6 7 0 0 0 0 1e3 1e-8 0 0 3 1 0 1 1 8 9 10 11 12 13 1
4 0 0 0 0 0 0 12 3 487 15 16 0 0 0 0 1e3 1e-8 0 2 4 1 0 1 1 17 18 19 0 20 21 0 0
 0 0 0 0 0 12 4 119 22 23 0 0 0 0 1e3 1e-8 0 3 5 1 0 1 1 24 25 26 27 28 29 30 0
 0 0 0 0 0 12 5 128 31 32 0 0 0 0 1e3 1e-8 0 4 0 1 0 1 1 33 34 35 36 37 38 39 0
 0 0 0 0 0 81 1 31 128 40 5 41 0 0 0 42 70 32 0 4 T5 0 0 3 20 1 43 43 13 33 6 0
 5 0 44 0 0 45 0 50 34 107 0 5 46 0 47 +0 0 0 0 0 -1 -1 0 0 32 35 105 0 5 48 0 4
9 +0 0 -3 0 0 -1 0 1 0 .536067 .530733 29 36 92 0 39 50 0 .363440858687919 .3634
40858687928 0 19 37 4 0 5 45 0 51 V0 16 38 29 52 ?53 0 54 55 0 0 5 18 39 41 56 5
7 0 58 36 ?5 81 2 56 42 59 39 0 0 60 61 62 63 17 57 0 64 65 65 39 66 67 0 68 -18
 58 37 60 66 39 0 50 ?5 81 2 60 38 59 58 0 0 52 56 69 70 17 66 0 71 68 68 58 57
 67 0 65 +29 50 86 0 58 0 36 -.3634408586879195 .363440858687928 0 15 71 53 0 66
 44 72 17 68 0 71 66 66 39 65 73 0 0 -16 67 9 74 ?66 73 0 75 0 0 5 17 65 0 64 57
 57 58 68 73 0 0 +15 64 60 0 65 76 0 16 73 15 77 ?65 78 67 79 0 0 5 81 2 77 16 5
9 73 0 0 0 80 81 82 16 78 17 80 ?83 54 73 84 0 0 5 137 79 85 0 73 55 75 0 -85 86
 0 ?38 55 84 0 38 87 79 0 +85 88 89 90 90 38 75 96 0 67 79 48 0 +85 34 91 92 92
 60 85 97 0 76 88 46 93 +UF46 .019396 ?134 86 0 0 0 0 0 0 +94 95 136 94 1 2 2 2
 1 FFF1 96 97 98 135 95 1 0 45 4 96 0 3 6.28318530717959 3 127 2 97 2 2 128 2 98
 0 6.28318530717959 14 76 57 61 ?99 44 100 33 85 +0 0 99 44 51 50 88 81 0 101 10
2 85 103 +0 0 -.6 0 0 1 1 0 0 67 46 106 0 5 85 34 104 +35 0 0 1 .525452074626866
 141 93 55 105 106 85 141 105 75 106 93 85 141 106 79 93 105 85 141 104 85 104 1
04 46 14 101 71 107 ?0 99 108 33 88 -0 0 0 99 51 67 102 80 0 99 109 88 0 +87 0 0
 1 .525452074626866 141 103 55 103 103 88 14 99 61 110 ?101 76 111 33 102 -0 0 1
01 76 51 50 109 79 0 44 0 102 0 +0 0 0 0 0 -1 -1 0 0 32 87 83 0 5 84 55 112 +0 0
 -3 0 0 -1 0 1 0 .536067 .530733 32 84 82 0 78 0 87 0 -0 0 -.6 0 0 -1 0 1 0 .536
067 .530733 141 112 102 112 112 87 14 44 51 113 ?76 0 71 33 109 -0 0 76 0 51 81
 2 113 125 59 44 0 0 41 114 115 116 13 51 5 0 0 0 0 0 0 37 44 80 2 59 117 118 90
00 0 0 0 0 3 6 0 0 0 FFTFTFTTTFFFTF3 1 81 2 41 124 59 5 119 31 107 113 120 0 81
 2 114 126 59 54 0 0 113 74 121 122 84 11 115 F1332.Cap1b82 1 116 1334 16 54 19
 114 ?123 38 78 48 0 0 5 81 2 74 127 59 67 0 0 114 0 124 125 84 30 121 F1332.Cap
1b..F1332.F1294.E131382 1 122 1344 84 35 124 F1332.Cap1b..F1332.F1294.E1313.Wall
82 1 125 1346 17 123 0 126 123 123 0 127 54 0 0 +32 48 98 0 54 75 35 0 +0 0 0 0
 0 -1 0 1 0 .536067 .530733 15 126 64 0 123 99 0 17 127 0 72 127 127 0 123 54 0
 0 -15 72 67 0 127 44 0 81 1 119 3 128 5 0 41 0 0 129 81 2 107 72 59 101 0 0 110
 41 130 131 84 11 120 F2106.P40.B81 2 110 62 59 99 0 0 61 107 132 133 84 5 130 F
204082 1 131 2043 81 2 61 58 59 76 0 0 56 110 134 135 84 17 132 F1332.F1294.E131
382 1 133 1335 84 22 134 F1332.F1294.E1313.Wall82 1 135 1336 80 1 128 136 137 90
00 0 0 0 0 3 6 0 0 0 FFTFFFFFTFFFFF1 82 1 129 42 79 13 137 BodyAttrDef.479 18 11
8 AnsysParaAttrDef.315 111 63 0 83 99 126 17 83 0 111 83 83 0 138 78 0 0 +17 138
 0 139 138 138 0 83 78 0 0 -15 139 74 0 138 101 0 15 108 73 0 53 101 139 17 53 0
 108 53 53 0 140 38 0 0 +17 140 0 100 140 140 0 53 38 0 0 -15 100 59 0 140 76 64
 40 20 91 0 1 20 .02964856395842785 .34096737270523 ??625968494211829e-31 -.5166
71 0 -.167937280558335 -.488010681929431 0 -.3169335314578095 -.4054568569264275
 0 -.4310544571756195 -.2779281227146535 0 -.49770992451673 -.1184849193662974 0
 -.50836751716469 .0556011292194783 0 -.460680153102585 .2242137386185895 0 -.35
9834131468867 .3670866674890875 0 -.218174209545516 .467279920842075 0 -.0528805
645235143 .513900683522517 0 .117131307004139 .502932798343885 0 .27358293284175
05 .43649902633647 0 .4000355882913435 .321813800604911 0 .482641736698498 .1706
47435644965 0 .511336156038973 -.000938719079716769 0 .481647428177083 -.1734919
393031135 0 .3963548839587015 -.3264305005387385 0 .265741385323066 -.4414173050
918585 0 .10580951836087 -.505488310778899 0 625968494211829e-31 -.516671 0 41 1
 92 H625968494211829e-31 -.516671 0 40 38 89 0 1 38 .0282430806696724 .333525877
944846 ??0 .516671 -.6 -.04198432013958345 .51492646609237 -.6 -.124945755898914
6 .501009003710984 -.6 -.204463522221006 .473568070734934 -.6 -.2783696071773305
 .433398166549157 -.6 -.3446792072021145 .3816456237585305 -.6 -.401644797813521
 .31976084290541 -.6 -.4477957316933425 .2494442585229445 -.6 -.481964352128111
 .1725910127778775 -.6 -.503301244796041 .0912378431943507 -.6 -.51128292487348
 .00751383957612017 -.6 -.505715028981869 -.076405025636545 -.6 -.48673317745634
9 -.1583390125182755 -.6 -.454802363992742 -.2361475177882375 -.6 -.410714276588
8515 -.307773972115179 -.6 -.3555806013013445 -.371294327609813 -.6 -.2908193639
715055 -.424969509826629 -.6 -.218130996037452 -.467300518035509 -.6 -.139461308
6587354 -.497082994888029 -.6 -.0569500241479331 -.513456508642998 -.6 .02706525
30668817 -.515946730752996 -.6 .1103341406636482 -.50449970328009 -.6 .190565386
591264 -.479449722986759 -.6 .265570350364356 -.4415223845369985 -.6 .3333318836
06607 -.3918014109904755 -.6 .3920606985540335 -.3316827910219735 -.6 .440237393
3890735 -.262821694130193 -.6 .476640734211279 -.187077293155931 -.6 .5003645758
60287 -.1064592894569154 -.6 .510826649415074 -.02307812637780525 -.6 .507772367
922897 .0609009104042498 -.6 .491276006851194 .1433009163052394 -.6 .46174036972
1992 .221975962209671 -.6 .419894613746582 .2948552910390775 -.6 .36678852946826
45 .3599908658427575 -.6 .2303958529444415 .461251856182406 -.6 .151724193579147
 .493402302435003 -.6 706810688782604e-32 .516671 -.6 41 1 90 H706810688782604e-
32 .516671 -.6 81 2 80 18 59 78 0 0 77 52 141 142 81 2 52 30 59 38 0 0 80 60 143
 144 84 24 141 F1332.F1294.E1313..F204082 1 142 2046 84 29 143 F1332.F1294.E1313
.Wall..F204082 1 144 2045 84 35 81 F1332.Cap1b..F1332.F1294.E1313.Wall82 1 82 13
50 84 10 69 F1332.Vtx782 1 70 1361 84 10 62 F1332.Vtx682 1 63 1362 19 45 1 0 5 0
 37 33 S0 141 49 46 49 49 35 141 47 75 47 47 34 74 20 43 3 0 0 74 119 31 0 0 0 0
 0 0 0 0 0 0 0 0 0 0 0 0 0 80 1 40 145 146 8017 0 0 0 0 0 0 0 0 0 TTTTTTTTTTTTTF
3 84 12 42 S_Ellipse_aY79 13 146 SDL/TYSA_NAME81 1 22 119 40 4 147 0 0 0 148 70
 23 0 4 T4 0 0 3 20 1 149 149 13 24 6 0 4 0 150 0 0 151 0 67 25 115 0 4 152 0 15
3 +26 0 0 1 .525452074626866 32 26 114 0 4 154 0 155 +0 0 -3 0 0 -1 0 1 0 .53606
7 .530733 29 27 107 0 156 157 0 -.3757537166008185 .3785824936003905 -3 19 28 4
 0 4 151 0 158 V0 16 29 36 159 ?160 0 161 154 0 0 4 18 30 51 162 163 0 164 165 ?
4 81 2 162 52 59 30 0 0 166 167 168 169 17 163 0 170 171 172 30 173 174 0 175 +1
8 164 49 166 172 30 156 176 ?4 29 165 101 0 30 177 178 .3757537166008185 .378582
4936003905 -2.9746 29 177 100 0 179 0 165 -.3757537166008185 .3785824936003905 -
2.9746 29 178 102 0 180 165 181 .3757537166008185 -.3785824936003905 -2.9746 18
 180 39 182 183 184 179 178 ?4 29 181 103 0 185 178 176 -.3757537166008185 -.378
5824936003905 -2.9746 18 185 45 186 187 156 188 181 ?4 29 176 104 0 164 181 189
 .3757537166008185 .3785824936003905 -3 29 189 105 0 188 176 157 -.3757537166008
185 -.3785824936003905 -3 18 188 43 190 191 185 184 189 ?4 29 157 106 0 184 189
 27 .3757537166008185 -.3785824936003905 -3 18 184 41 192 193 188 180 157 ?4 81
 2 192 42 59 184 0 0 182 190 194 195 17 193 0 170 191 171 184 196 197 0 198 +15
 170 75 0 171 199 0 17 191 0 170 187 193 188 198 200 0 201 -17 171 0 170 193 163
 180 175 202 0 196 +17 196 0 203 204 205 180 193 197 0 0 -16 197 24 206 ?193 207
 202 208 0 0 4 17 198 0 209 210 210 184 191 200 0 205 +15 209 62 0 210 211 0 17
 210 0 209 198 198 188 205 212 0 0 +16 200 12 213 ?198 214 212 215 216 216 4 17
 205 0 203 196 201 184 210 212 0 0 -15 203 78 0 196 217 218 17 201 0 203 205 219
 188 187 207 0 210 -16 212 10 220 ?210 200 221 222 223 223 4 81 2 220 11 59 212
 0 0 224 213 225 226 16 221 8 224 ?227 212 228 229 0 0 4 32 222 110 0 223 215 23
0 231 +0 0 -3 0 0 -1 0 1 0 .536067 .530733 16 223 16 232 ?233 216 214 222 212 21
2 4 81 2 232 17 59 223 0 0 234 235 236 237 17 233 0 238 239 239 164 240 223 0 0
 +16 216 18 235 ?239 241 223 215 200 200 4 16 214 14 234 ?242 223 200 243 241 24
1 4 81 2 234 15 59 214 0 0 213 232 244 245 17 242 0 246 247 247 179 219 214 0 24
8 +32 243 93 0 214 229 249 0 +0 0 -2.9746 0 0 -1 0 1 0 .536067 .530733 16 241 20
 250 ?183 202 216 243 214 214 4 81 2 250 21 59 241 0 0 235 251 252 253 17 183 0
 254 175 175 180 204 241 0 171 +16 202 22 251 ?171 197 241 255 256 256 4 81 2 25
1 23 59 202 0 0 250 206 257 258 31 255 91 0 256 0 229 0 +0 0 -2.9746 0 0 -1 -1 0
 0 .5334 16 256 28 259 ?248 260 207 255 202 202 4 81 2 259 29 59 256 0 0 261 262
 263 264 17 248 0 170 265 187 179 247 256 0 266 +16 260 30 262 ?265 174 256 267
 0 0 4 16 207 26 261 ?187 256 197 268 0 0 4 81 2 261 27 59 207 0 0 206 259 269 2
70 17 187 0 170 248 191 185 201 207 0 247 +30 268 96 0 207 267 208 0 +-.37575371
66008305 -.3785824936004025 -3 0 0 1 30 267 95 0 260 249 268 0 --.37575371660083
05 .378582493600402 -3 0 0 1 30 208 97 0 197 268 271 0 -.3757537166008305 -.3785
82493600402 -3 0 0 1 38 271 98 0 161 208 215 0 +272 273 274 275 275 16 161 34 27
6 ?277 29 174 271 0 0 4 31 215 99 0 216 271 222 0 -0 0 -3 0 0 -1 -1 0 0 .5334 60
 272 108 0 278 279 280 281 +UF25 .019396 ?50 273 87 0 282 0 283 284 +0 0 -2.9746
 0 0 -1 -1 0 0 40 40 274 0 1 40 .00701396258589115 .1666509145856255 ??0 .516671
 -2.9746 .0839686402791676 .509657037414109 -2.9746 .165562517775844 .4888384399
46422 -2.9746 .2425923755005985 .454822457515799 -2.9746 .3129684029490775 .4085
893871685345 -2.9746 .3748139557932295 .3514497567251285 -2.9746 .42651257160169
25 .2849924399034085 -2.9746 .466740664477202 .21102913493294 -2.9746 .494487841
783096 .131539551959049 -2.9746 .509067951989008 .0486199099120278 -2.9746 .5101
2416957412 -.03556452376408685 -2.9746 .497630812977275 -.1188236935696904 -2.97
46 .471893438036386 -.1989856995343395 -2.9746 .433547324163905 -.27394069911872
15 -2.9746 .3835530263183185 -.341687756443867 -2.9746 .323186452860762 -.400385
6858476175 -2.9746 .2540202159000285 -.4484074344508085 -2.9746 .177893054690464
 -.484395706364281 -2.9746 .0968651399238239 -.50731573549794 -2.9746 .013287241
76117606 -.516496532568898 -2.9746 -.0706350640484943 -.511717652220287 -2.9746
 -.152610224622593 -.493123236507644 -2.9746 -.230390675336533 -.461254496610292
 -2.9746 -.3018687009112555 -.417028686637772 -2.9746 -.3651392148566425 -.36169
8657952203 -2.9746 -.4185487445497375 -.2968025294061295 -2.9746 -.4607301062051
32 -.2241089202260405 -2.9746 -.490624405421867 -.1455622755908866 -2.9746 -.507
493309233103 -.0632311647669966 -2.9746 -.510924884372872 .02073942196701475 -2.
9746 -.500835813722249 .1041723761265386 -2.9746 -.477471738447419 .184901099328
1375 -2.9746 -.441406096540012 .2608126847113225 -2.9746 -.3935363903578155 .329
893714651519 -2.9746 -.33507556055378 .3902799200812075 -2.9746 -.26753533157480
05 .4403095532336335 -2.9746 -.1926982920755325 .478578546973638 -2.9746 -.11257
6288148197 .503993719292989 -2.9746 -.056999343498939 .513450921196508 -2.9746 0
 .516671 -2.9746 41 1 275 H0 .516671 -2.9746 14 282 80 285 ?278 217 286 24 273 -
287 288 278 217 158 50 283 88 0 289 273 290 0 +0 0 -3.0254 0 0 -1 -1 0 0 141 284
 271 284 284 273 14 289 57 291 ?211 150 292 24 283 +0 0 211 150 158 51 290 89 0
 199 283 279 0 -0 0 -3.0254 0 0 1 .5334 1 0 0 14 199 72 293 ?217 287 294 24 290
 -0 0 217 287 158 50 279 90 0 211 290 272 0 +0 0 -3 0 0 -1 -1 0 0 14 211 60 295
 ?288 289 209 24 279 +296 296 288 289 158 81 2 295 61 59 211 0 0 291 297 298 299
 14 288 63 297 ?296 211 246 24 273 -282 287 296 211 158 14 296 66 300 ?287 288 2
38 24 279 +211 211 287 288 158 13 158 5 0 0 0 0 0 0 28 150 14 150 53 167 ?289 0
 301 24 152 +0 0 289 0 158 81 2 167 54 59 150 0 0 162 291 302 303 15 301 55 0 30
4 150 305 50 152 111 0 150 280 25 306 +0 0 -.6 0 0 1 1 0 0 67 280 109 0 217 272
 152 0 +222 0 0 1 .525452074626866 141 306 154 306 306 152 38 154 113 0 29 230 2
6 0 +272 152 307 308 308 32 230 112 0 228 222 154 0 -0 0 -.6 0 0 -1 0 1 0 .53606
7 .530733 40 38 307 0 1 38 .0282430806696724 .333525877944846 ??0 .516671 -.6 -.
04198432013958345 .51492646609237 -.6 -.1249457558989146 .501009003710984 -.6 -.
204463522221006 .473568070734934 -.6 -.2783696071773305 .433398166549157 -.6 -.3
446792072021145 .3816456237585305 -.6 -.401644797813521 .31976084290541 -.6 -.44
77957316933425 .2494442585229445 -.6 -.481964352128111 .1725910127778775 -.6 -.5
03301244796041 .0912378431943507 -.6 -.51128292487348 .00751383957612017 -.6 -.5
05715028981869 -.076405025636545 -.6 -.486733177456349 -.1583390125182755 -.6 -.
454802363992742 -.2361475177882375 -.6 -.4107142765888515 -.307773972115179 -.6
 -.3555806013013445 -.371294327609813 -.6 -.2908193639715055 -.424969509826629 -
.6 -.218130996037452 -.467300518035509 -.6 -.1394613086587354 -.497082994888029
 -.6 -.0569500241479331 -.513456508642998 -.6 .0270652530668817 -.51594673075299
6 -.6 .1103341406636482 -.50449970328009 -.6 .190565386591264 -.479449722986759
 -.6 .265570350364356 -.4415223845369985 -.6 .333331883606607 -.3918014109904755
 -.6 .3920606985540335 -.3316827910219735 -.6 .4402373933890735 -.26282169413019
3 -.6 .476640734211279 -.187077293155931 -.6 .500364575860287 -.1064592894569154
 -.6 .510826649415074 -.02307812637780525 -.6 .507772367922897 .0609009104042498
 -.6 .491276006851194 .1433009163052394 -.6 .461740369721992 .221975962209671 -.
6 .419894613746582 .2948552910390775 -.6 .3667885294682645 .3599908658427575 -.6
 .2303958529444415 .461251856182406 -.6 .151724193579147 .493402302435003 -.6 70
6810688782604e-32 .516671 -.6 41 1 308 H706810688782604e-32 .516671 -.6 16 228 7
 309 ?310 221 0 230 0 0 4 81 2 309 117 59 228 0 0 147 159 311 312 17 310 0 305 3
10 310 0 313 228 0 0 +15 305 56 0 310 150 0 17 313 0 218 313 313 0 310 228 0 0 -
15 218 79 0 313 217 0 14 217 76 314 ?282 199 203 24 280 -0 0 282 199 158 81 2 31
4 77 59 217 0 0 293 285 315 316 81 2 293 73 59 199 0 0 317 314 318 319 81 2 285
 81 59 282 0 0 314 320 321 322 84 17 315 F1332.F1294.E131382 1 316 1775 81 2 320
 84 59 278 0 0 285 147 323 324 84 11 321 F1437.Cap2t82 1 322 1921 14 278 83 320
 ?0 282 325 24 272 +0 0 0 282 158 81 2 147 116 59 4 326 22 320 309 327 0 84 22 3
23 F1332.F1294.E1313.Wall82 1 324 1774 81 1 326 3 128 4 0 147 0 0 328 84 11 327
 F2040.P40.B82 1 328 41 15 325 85 0 277 278 329 17 277 0 325 277 277 0 330 161 0
 0 +15 329 86 0 160 278 0 17 160 0 329 160 160 0 304 29 0 0 +17 304 0 301 304 30
4 0 160 29 0 0 -17 330 0 286 330 330 0 277 161 0 0 -15 286 82 0 330 282 0 81 2 3
17 70 59 287 0 0 300 293 331 332 84 17 318 F1437.F1431.E143282 1 319 1440 14 287
 69 317 ?199 296 254 24 273 -288 282 199 296 158 81 2 300 67 59 296 0 0 297 317
 333 334 84 11 331 F1437.Cap2t82 1 332 1923 81 2 297 64 59 288 0 0 295 300 335 3
36 84 11 333 F1332.Cap1t82 1 334 1333 84 11 335 F1437.Cap2t82 1 336 1922 15 254
 71 0 175 287 0 17 175 0 254 183 183 30 171 202 0 204 -17 204 0 203 173 196 30 1
83 241 0 0 -17 173 0 203 240 204 164 163 174 0 233 -17 240 0 203 266 173 156 233
 223 0 0 -16 174 32 337 ?163 161 260 249 0 0 4 81 2 337 33 59 174 0 0 262 276 33
8 339 30 249 94 0 174 243 267 0 +.3757537166008305 .3785824936004025 -3 0 0 1 81
 2 262 31 59 260 0 0 259 337 340 341 81 2 276 35 59 161 0 0 337 342 343 344 84 3
6 338 F1332.F1294.E1313..F1437.F1431.E143282 1 339 1931 81 2 342 38 59 179 0 0 2
76 182 345 346 84 35 343 F1332.F1294.E1313.Wall..F1437.Cap2t82 1 344 1926 18 179
 37 342 242 180 0 177 ?4 81 2 182 40 59 180 0 0 342 192 347 348 84 10 345 F1437.
Vtx882 1 346 1935 84 10 347 F1437.Vtx782 1 348 1937 84 36 340 F1332.F1294.E1313.
.F1437.F1431.E143282 1 341 1932 17 266 0 203 219 240 179 265 260 0 0 -18 156 47
 349 265 164 185 27 ?4 81 2 349 48 59 156 0 0 186 166 350 351 17 265 0 170 172 2
48 156 266 260 0 239 +17 172 0 170 163 265 164 239 216 0 173 -17 239 0 238 233 2
33 156 172 216 0 240 +15 238 68 0 233 296 0 81 2 186 46 59 185 0 0 190 349 352 3
53 81 2 166 50 59 164 0 0 349 162 354 355 84 10 350 F1437.Vtx282 1 351 1454 84 1
0 354 F1437.Vtx382 1 355 1455 81 2 190 44 59 188 0 0 192 186 356 357 84 10 352 F
1437.Vtx582 1 353 1938 84 10 356 F1437.Vtx482 1 357 1453 17 219 0 203 201 266 18
5 242 214 0 0 -81 2 159 118 59 29 0 0 309 0 358 359 84 24 311 F1332.F1294.E1313.
.F204082 1 312 2047 84 29 358 F1332.F1294.E1313.Wall..F204082 1 359 2048 81 2 29
1 58 59 289 0 0 167 295 360 361 84 5 302 F204082 1 303 2044 84 11 360 F1437.Cap1
t82 1 361 1438 15 246 65 0 247 288 0 17 247 0 246 242 242 185 248 256 0 219 -84
 11 298 F1332.Cap1t82 1 299 1443 15 294 74 0 362 199 170 17 362 0 294 362 362 0
 227 221 0 0 -17 227 0 292 227 227 0 362 221 0 0 +15 292 59 0 227 289 0 141 281
 271 363 363 272 141 363 154 281 281 272 81 2 206 25 59 197 0 0 251 261 364 365
 84 36 269 F1332.F1294.E1313..F1437.F1431.E143282 1 270 1933 84 36 364 F1332.F12
94.E1313..F1437.F1431.E143282 1 365 1934 84 30 263 F1437.Cap2t..F1437.F1431.E143
282 1 264 1925 31 229 92 0 221 255 243 0 +0 0 -3.0254 0 0 -1 -1 0 0 .5334 84 30
 257 F1437.Cap2t..F1437.F1431.E143282 1 258 1924 81 2 235 19 59 216 0 0 232 250
 366 367 84 30 252 F1332.F1294.E1313..F1437.Cap2t82 1 253 1928 84 30 366 F1332.C
ap1t..F1437.F1431.E143282 1 367 1929 81 2 213 13 59 200 0 0 220 234 368 369 84 3
0 244 F1332.F1294.E1313..F1437.Cap2t82 1 245 1927 84 30 368 F1437.F1431.E1432..F
1332.Cap1t82 1 369 1930 84 30 236 F1332.Cap1t..F1332.F1294.E131382 1 237 1449 14
1 231 280 231 231 222 81 2 224 9 59 221 0 0 0 220 370 371 84 30 370 F1437.Cap1t.
.F1437.F1431.E143282 1 371 1444 84 30 225 F1332.Cap1t..F1332.F1294.E131382 1 226
 1343 84 10 194 F1437.Vtx182 1 195 1452 84 10 168 F1437.Vtx682 1 169 1936 19 151
 1 0 4 0 28 24 S0 141 155 25 155 155 26 141 153 272 153 153 25 74 20 149 3 0 0 1
59 326 22 0 0 0 0 0 0 0 0 0 0 0 0 0 0 0 0 0 84 10 148 Ellipse_aY81 1 15 487 40 3
 372 0 0 0 373 70 16 0 4 T3 0 0 3 20 1 374 374 13 17 442 0 3 0 375 0 0 376 0 67
 18 216 0 3 377 0 378 +379 0 0 -1 .525452074626866 32 19 217 0 3 379 0 380 +0 0
 3 0 0 1 1 0 0 .536067 .530733 19 20 444 0 3 376 0 381 V0 16 21 27 382 ?383 0 38
4 385 0 0 3 81 2 382 485 59 21 0 0 386 387 388 389 17 383 0 390 383 383 0 391 21
 0 0 +16 384 26 392 ?393 21 394 395 0 0 3 32 385 180 0 21 0 396 0 +0 0 0 0 0 1 1
 0 0 .536067 .530733 38 396 181 0 394 385 395 0 +397 398 399 400 400 16 394 8 38
7 ?401 384 402 396 0 0 3 32 395 213 0 384 396 403 0 +0 0 .6 0 0 1 1 0 0 .536067
 .530733 60 397 210 0 404 398 405 406 +UF18 .019396 ?50 398 168 0 3 407 397 408
 +0 0 0 0 0 1 1 0 0 40 20 399 0 1 20 .0296485639584278 .34096737270523 ??-.51667
1 625968494211829e-31 0 -.488010681929431 -.167937280558335 0 -.405456856926428
 -.31693353145781 0 -.277928122714654 -.4310544571756195 0 -.1184849193662976 -.
497709924516731 0 .0556011292194783 -.50836751716469 0 .2242137386185895 -.46068
0153102585 0 .367086667489088 -.359834131468867 0 .467279920842075 -.21817420954
5516 0 .513900683522517 -.0528805645235148 0 .502932798343885 .1171313070041384
 0 .4364990263364705 .2735829328417505 0 .321813800604911 .4000355882913435 0 .1
706474356449655 .482641736698498 0 -.000938719079716655 .511336156038973 0 -.173
491939303113 .481647428177083 0 -.3264305005387385 .3963548839587015 0 -.4414173
050918585 .265741385323066 0 -.505488310778899 .1058095183608702 0 -.516671 6259
68494211829e-31 0 41 1 400 H-.516671 625968494211829e-31 0 50 407 167 0 375 0 39
8 0 +0 0 0 0 0 1 1 0 0 141 408 396 408 408 398 14 375 105 386 ?404 0 409 17 407
 -0 0 404 0 381 81 2 386 484 59 375 0 0 392 382 410 411 14 404 101 412 ?413 375
 414 17 397 +0 0 413 375 381 15 409 107 0 401 375 415 13 381 443 0 0 0 0 0 0 20
 375 17 401 0 409 401 401 0 416 394 0 0 +15 415 144 0 391 375 0 17 391 0 415 391
 391 0 383 21 0 0 -17 416 0 414 416 416 0 401 394 0 0 -15 414 103 0 416 404 417
 15 417 104 0 418 404 0 17 418 0 417 418 418 0 419 402 0 0 +17 419 0 420 419 419
 0 418 402 0 0 -16 402 7 421 ?418 394 0 403 0 0 3 81 2 421 219 59 402 0 0 372 39
2 422 423 38 403 214 0 402 395 379 0 +397 405 424 425 425 32 379 215 0 3 403 19
 426 +0 0 3 0 0 1 1 0 0 .536067 .530733 50 405 211 0 413 397 377 427 +0 0 .6 0 0
 1 1 0 0 40 40 424 0 1 40 .00701396258589115 .166650914585625 ??.516671 0 .6 .50
9657037414109 .0839686402791676 .6 .488838439946422 .165562517775844 .6 .4548224
57515799 .2425923755005985 .6 .4085893871685345 .3129684029490775 .6 .3514497567
25129 .3748139557932295 .6 .284992439903409 .426512571601692 .6 .211029134932940
5 .466740664477202 .6 .1315395519590496 .494487841783096 .6 .0486199099120284 .5
09067951989008 .6 -.0355645237640863 .51012416957412 .6 -.1188236935696896 .4976
30812977275 .6 -.198985699534339 .471893438036386 .6 -.2739406991187215 .4335473
241639055 .6 -.3416877564438665 .383553026318319 .6 -.400385685847617 .323186452
860763 .6 -.448407434450808 .2540202159000295 .6 -.48439570636428 .1778930546904
65 .6 -.50731573549794 .0968651399238248 .6 -.516496532568898 .01328724176117696
 .6 -.511717652220287 -.0706350640484934 .6 -.493123236507645 -.1526102246225925
 .6 -.461254496610293 -.230390675336532 .6 -.4170286866377725 -.301868700911255
 .6 -.361698657952204 -.365139214856642 .6 -.29680252940613 -.418548744549737 .6
 -.2241089202260415 -.460730106205132 .6 -.1455622755908872 -.490624405421867 .6
 -.0632311647669971 -.507493309233103 .6 .0207394219670143 -.510924884372872 .6
 .1041723761265382 -.500835813722249 .6 .184901099328137 -.477471738447419 .6 .2
60812684711322 -.4414060965400125 .6 .3298937146515195 -.3935363903578155 .6 .39
02799200812075 -.33507556055378 .6 .4403095532336335 -.2675353315748005 .6 .4785
78546973638 -.1926982920755325 .6 .50399371929299 -.1125762881481966 .6 .5134509
21196508 -.0569993434989386 .6 .516671 0 .6 41 1 425 H.516671 0 .6 14 413 124 42
8 ?429 404 420 17 405 +0 0 429 404 381 67 377 212 0 429 405 18 0 +19 0 0 -1 .525
452074626866 141 427 403 427 427 405 14 429 128 430 ?0 413 390 17 377 -0 0 0 413
 381 81 2 430 129 59 429 0 0 428 372 431 432 15 390 130 0 383 429 433 15 433 131
 0 434 429 0 17 434 0 433 434 434 0 393 384 0 0 -17 393 0 435 393 393 0 434 384
 0 0 +15 435 127 0 393 413 0 81 2 428 125 59 413 0 0 412 430 436 437 81 2 372 21
8 59 3 438 15 430 421 439 0 84 15 431 F1320.F49.E127282 1 432 1749 81 1 438 3 12
8 3 0 372 0 0 440 84 11 439 F2030.P27.B82 1 440 40 81 2 412 102 59 404 0 0 0 428
 441 442 84 5 436 F203082 1 437 2034 84 20 441 F1320.F49.E1272.Wall82 1 442 1750
 15 420 126 0 419 413 435 141 426 18 426 426 379 81 2 392 220 59 384 0 0 421 386
 443 444 84 27 422 F1320.F49.E1272.Wall..F203082 1 423 2037 84 22 443 F1320.F49.
E1272..F203082 1 444 2038 84 11 410 F1320.Cap1b82 1 411 1324 141 406 403 445 445
 397 141 445 396 406 406 397 81 2 387 486 59 394 0 0 382 0 446 447 84 33 446 F13
20.Cap1b..F1320.F49.E1272.Wall82 1 447 1330 84 28 388 F1320.Cap1b..F1320.F49.E12
7282 1 389 1328 19 376 1 0 3 0 20 17 S0 141 380 377 380 380 19 141 378 397 378 3
78 18 74 20 374 3 0 0 387 438 15 0 0 0 0 0 0 0 0 0 0 0 0 0 0 0 0 0 84 12 373 S_E
llipse_aX81 1 6 634 40 2 448 0 0 0 449 70 7 0 4 T2 0 0 3 20 1 450 450 13 8 622 0
 2 0 451 0 0 452 0 67 9 29 0 453 454 0 0 +455 0 0 -1 .525452074626866 38 10 563
 0 456 457 0 0 +458 459 460 461 461 29 11 240 0 14 462 0 .3785824935593435 -.375
753716641765 3 19 12 624 0 2 452 0 463 V0 16 13 572 464 ?465 0 456 466 0 0 2 18
 14 237 467 468 0 469 11 ?2 81 2 467 403 59 14 0 0 470 471 472 473 17 468 0 474
 475 476 14 477 478 0 479 +18 469 229 471 480 14 481 462 ?2 81 2 471 404 59 469
 0 0 467 482 483 484 17 480 0 474 476 475 469 485 486 0 487 +18 481 305 488 489
 469 490 491 ?2 29 462 232 0 469 491 11 -.3785824935593435 .375753716641765 3 29
 491 360 0 481 492 462 .3785824935593435 -.375753716641765 2.9746 29 492 361 0 4
90 493 491 -.3785824935593435 -.375753716641765 2.9746 18 490 303 494 495 481 49
6 492 ?2 29 493 362 0 496 497 492 -.3785824935593435 .375753716641765 2.9746 18
 496 307 470 498 490 499 493 ?2 29 497 363 0 499 500 493 .3785824935593435 .3757
53716641765 2.9746 18 499 300 482 501 496 502 497 ?2 29 500 365 0 502 503 497 -.
3785824935595365 -.375753716641956 3 18 502 306 504 477 499 505 500 ?2 29 503 36
7 0 505 0 500 .3785824935595365 .3757537166419565 3 18 505 304 506 485 502 0 503
 ?2 81 2 506 399 59 505 0 0 507 488 508 509 17 485 0 510 501 487 505 480 486 0 5
11 -15 510 310 0 501 512 0 17 501 0 510 513 485 499 511 514 0 515 -17 487 0 510
 485 513 469 516 517 0 518 -16 486 285 519 ?480 520 478 521 478 478 2 17 511 0 5
22 523 524 505 501 514 0 475 +15 522 251 0 524 453 0 17 523 0 522 525 511 14 475
 526 0 0 -17 524 0 522 511 516 499 498 527 0 0 -16 514 280 507 ?511 526 528 529
 0 0 2 17 475 0 474 480 468 505 523 526 0 0 +15 474 242 0 475 530 0 16 526 238 5
31 ?475 532 514 455 532 532 2 81 2 531 239 59 526 0 0 533 534 535 536 16 532 2 5
33 ?476 456 526 455 526 526 2 32 455 4 0 526 537 457 538 +0 0 3 0 0 1 1 0 0 .536
067 .530733 32 537 69 0 2 529 455 539 +0 0 3 0 0 1 1 0 0 .536067 .530733 38 457
 224 0 540 455 10 0 +458 541 542 543 543 141 538 9 538 538 455 16 540 284 544 ?5
45 546 547 457 0 0 2 60 458 63 0 548 549 454 550 +UF549 .019396 ?50 541 350 0 45
1 459 551 552 +0 0 2.9746 0 0 1 1 0 0 40 40 542 0 1 40 .00701396258589115 .16665
0914585625 ??.516671 0 2.9746 .509657037414109 .0839686402791676 2.9746 .4888384
39946422 .165562517775844 2.9746 .454822457515799 .2425923755005985 2.9746 .4085
893871685345 .3129684029490775 2.9746 .351449756725129 .3748139557932295 2.9746
 .284992439903409 .426512571601692 2.9746 .2110291349329405 .466740664477202 2.9
746 .1315395519590496 .494487841783096 2.9746 .0486199099120284 .509067951989008
 2.9746 -.0355645237640863 .51012416957412 2.9746 -.1188236935696896 .4976308129
77275 2.9746 -.198985699534339 .471893438036386 2.9746 -.2739406991187215 .43354
73241639055 2.9746 -.3416877564438665 .383553026318319 2.9746 -.400385685847617
 .323186452860763 2.9746 -.448407434450808 .2540202159000295 2.9746 -.4843957063
6428 .177893054690465 2.9746 -.50731573549794 .0968651399238248 2.9746 -.5164965
32568898 .01328724176117696 2.9746 -.511717652220287 -.0706350640484934 2.9746 -
.493123236507645 -.1526102246225925 2.9746 -.461254496610293 -.230390675336532 2
.9746 -.4170286866377725 -.301868700911255 2.9746 -.361698657952204 -.3651392148
56642 2.9746 -.29680252940613 -.418548744549737 2.9746 -.2241089202260415 -.4607
30106205132 2.9746 -.1455622755908872 -.490624405421867 2.9746 -.063231164766997
1 -.507493309233103 2.9746 .0207394219670143 -.510924884372872 2.9746 .104172376
1265382 -.500835813722249 2.9746 .184901099328137 -.477471738447419 2.9746 .2608
12684711322 -.4414060965400125 2.9746 .3298937146515195 -.3935363903578155 2.974
6 .3902799200812075 -.33507556055378 2.9746 .4403095532336335 -.2675353315748005
 2.9746 .478578546973638 -.1926982920755325 2.9746 .50399371929299 -.11257628814
81966 2.9746 .513450921196508 -.0569993434989386 2.9746 .516671 0 2.9746 41 1 54
3 H.516671 0 2.9746 14 451 340 553 ?548 0 554 8 541 -555 556 548 0 463 50 459 60
1 0 557 0 541 558 +0 0 .6 0 0 1 1 0 0 51 551 348 0 512 541 549 0 +0 0 2.9746 0 0
 1 .5334 1 0 0 141 552 457 552 552 541 14 512 308 559 ?555 530 510 8 551 +560 56
0 555 530 463 67 549 64 0 2 551 458 561 +537 0 0 -1 .525452074626866 141 561 458
 561 561 549 81 2 559 309 59 512 0 0 562 563 564 565 14 555 317 566 ?453 512 567
 8 541 -556 451 453 512 463 14 530 7 568 ?512 560 474 8 454 +0 0 512 560 463 14
 560 337 563 ?530 556 569 8 551 +512 512 530 556 463 13 463 623 0 0 0 0 0 0 12 4
51 81 2 563 312 59 560 0 0 559 566 570 571 14 556 320 572 ?560 557 573 8 541 -45
1 555 560 557 463 15 569 313 0 479 560 0 17 479 0 569 477 574 14 525 528 0 523 -
17 477 0 569 495 479 502 468 478 0 575 -17 574 0 569 479 495 481 576 520 0 525 +
17 525 0 522 577 523 481 479 528 0 0 +16 528 281 578 ?525 514 579 580 0 0 2 81 2
 578 397 59 528 0 0 581 507 582 583 16 579 297 581 ?575 528 517 584 0 0 2 30 580
 352 0 528 584 529 0 +.3785824935591505 -.3757537166415695 3 0 0 -1 30 584 353 0
 579 585 580 0 --.378582493559151 -.3757537166415695 3 0 0 -1 30 529 351 0 514 5
80 537 0 -.378582493559151 .3757537166415695 3 0 0 -1 30 585 354 0 517 586 584 0
 +-.378582493559151 .3757537166415695 3 0 0 -1 16 517 298 587 ?516 579 527 585 0
 0 2 32 586 355 0 546 521 585 0 +0 0 2.9746 0 0 1 1 0 0 .536067 .530733 16 546 2
83 588 ?489 527 540 586 527 527 2 31 521 358 0 486 589 586 0 +0 0 3 0 0 1 1 0 0
 .5334 31 589 359 0 547 466 521 0 +0 0 2.9746 0 0 1 1 0 0 .5334 16 547 274 534 ?
513 540 520 589 520 520 2 32 466 602 0 13 0 589 0 +0 0 .6 0 0 1 1 0 0 .536067 .5
30733 81 2 534 275 59 547 0 0 531 590 591 592 17 513 0 510 487 501 496 515 547 0
 516 +16 520 276 590 ?574 547 486 589 547 547 2 81 2 590 277 59 520 0 0 534 519
 593 594 81 2 519 286 59 486 0 0 590 562 595 596 84 30 593 F1396.Cap1t..F1396.F1
383.E139182 1 594 1905 81 2 562 288 59 478 0 0 519 559 597 598 84 30 595 F1396.C
ap1b..F1396.F1383.E139182 1 596 1404 16 478 287 562 ?468 486 0 521 486 486 2 84
 30 597 F1396.Cap1b..F1396.F1383.E139182 1 598 1405 17 515 0 567 498 498 499 513
 547 0 524 -17 516 0 522 524 518 496 487 517 0 0 +17 518 0 522 516 575 469 476 5
32 0 0 -17 575 0 522 518 577 502 495 579 0 476 +17 476 0 474 468 480 502 518 532
 0 0 +17 577 0 522 575 525 490 489 546 0 0 -17 495 0 569 574 477 490 575 579 0 5
76 -17 576 0 573 489 489 490 574 520 0 577 -15 573 322 0 576 556 0 17 489 0 573
 576 576 481 577 546 0 574 +15 567 319 0 515 555 0 17 498 0 567 515 515 496 524
 527 0 513 +16 527 282 599 ?498 517 546 586 546 546 2 81 2 599 394 59 527 0 0 58
8 587 600 601 81 2 588 393 59 546 0 0 544 599 602 603 81 2 587 395 59 517 0 0 59
9 581 604 605 84 28 600 F1320.F49.E1272..F1396.Cap1t82 1 601 1908 81 2 581 396 5
9 579 0 0 587 578 606 607 84 34 604 F1320.F49.E1272..F1396.F1383.E139182 1 605 1
909 84 34 606 F1320.F49.E1272..F1396.F1383.E139182 1 607 1910 81 2 544 392 59 54
0 0 0 568 588 608 609 84 28 602 F1320.F49.E1272..F1396.Cap1t82 1 603 1907 81 2 5
68 391 59 530 0 0 553 544 610 611 84 33 608 F1320.F49.E1272.Wall..F1396.Cap1t82
 1 609 1906 81 2 553 341 59 451 0 0 572 568 612 613 84 11 610 F1320.Cap1t82 1 61
1 1323 81 2 572 321 59 556 0 0 566 553 614 615 84 11 612 F1396.Cap1t82 1 613 139
7 81 2 566 318 59 555 0 0 563 572 616 617 84 11 614 F1396.Cap1t82 1 615 1902 84
 11 616 F1396.Cap1t82 1 617 1903 84 30 591 F1396.Cap1t..F1396.F1383.E139182 1 59
2 1403 81 2 507 398 59 514 0 0 578 506 618 619 84 34 582 F1320.F49.E1272..F1396.
F1383.E139182 1 583 1911 84 34 618 F1320.F49.E1272..F1396.F1383.E139182 1 619 19
12 14 557 586 620 ?556 548 621 8 459 -0 0 556 548 463 81 2 620 629 59 557 0 0 44
8 464 622 623 14 548 51 624 ?557 451 625 8 458 +0 0 557 451 463 15 621 588 0 626
 557 627 17 626 0 621 626 626 0 628 456 0 0 +15 627 589 0 629 557 0 17 629 0 627
 629 629 0 465 13 0 0 -17 465 0 630 465 465 0 629 13 0 0 +15 630 567 0 465 453 5
22 14 453 26 631 ?0 555 630 8 9 -0 0 0 555 463 81 2 631 35 59 453 0 0 0 624 632
 633 81 2 624 226 59 548 0 0 631 533 634 635 84 15 632 F1320.F49.E127282 1 633 1
325 81 2 533 231 59 532 0 0 624 531 636 637 84 20 634 F1320.F49.E1272.Wall82 1 6
35 1326 84 28 636 F1320.Cap1t..F1320.F49.E127282 1 637 1327 17 628 0 625 628 628
 0 626 456 0 0 -16 456 573 638 ?626 13 532 10 0 0 2 81 2 638 633 59 456 0 0 464
 0 639 640 81 2 464 632 59 13 0 0 620 638 641 642 84 27 639 F1320.F49.E1272.Wall
..F203082 1 640 2036 84 22 641 F1320.F49.E1272..F203082 1 642 2035 15 625 562 0
 628 548 643 15 643 222 0 545 548 0 17 545 0 643 545 545 0 644 540 0 0 +17 644 0
 554 644 644 0 545 540 0 0 -15 554 342 0 644 451 0 81 2 448 542 59 2 645 6 494 6
20 646 0 84 5 622 F203082 1 623 2033 81 1 645 73 128 2 0 448 0 0 647 81 2 494 40
6 59 490 0 0 482 448 648 649 84 7 646 F1320.B81 2 482 405 59 499 0 0 471 494 650
 651 84 10 648 F1396.Vtx882 1 649 1915 84 10 650 F1396.Vtx782 1 651 1913 82 1 64
7 27 84 17 570 F1396.F1383.E139182 1 571 1399 50 454 8 0 530 458 9 0 +0 0 3 0 0
 1 1 0 0 84 17 564 F1396.F1383.E139182 1 565 1904 141 558 10 558 558 459 141 550
 457 652 652 458 141 652 10 550 550 458 141 539 549 539 539 537 84 28 535 F1320.
Cap1t..F1320.F49.E127282 1 536 1408 81 2 488 400 59 481 0 0 506 504 653 654 84 1
0 508 F1396.Vtx382 1 509 1414 81 2 504 401 59 502 0 0 488 470 655 656 84 10 653
 F1396.Vtx582 1 654 1916 81 2 470 402 59 496 0 0 504 467 657 658 84 10 655 F1396
.Vtx482 1 656 1412 84 10 657 F1396.Vtx682 1 658 1914 84 10 483 F1396.Vtx182 1 48
4 1411 84 10 472 F1396.Vtx282 1 473 1413 19 452 31 0 2 0 12 8 S0 40 40 460 0 1 4
0 .00701396258589115 .166650914585625 ??.516671 0 .6 .509657037414109 .083968640
2791676 .6 .488838439946422 .165562517775844 .6 .454822457515799 .24259237550059
85 .6 .4085893871685345 .3129684029490775 .6 .351449756725129 .3748139557932295
 .6 .284992439903409 .426512571601692 .6 .2110291349329405 .466740664477202 .6 .
1315395519590496 .494487841783096 .6 .0486199099120284 .509067951989008 .6 -.035
5645237640863 .51012416957412 .6 -.1188236935696896 .497630812977275 .6 -.198985
699534339 .471893438036386 .6 -.2739406991187215 .4335473241639055 .6 -.34168775
64438665 .383553026318319 .6 -.400385685847617 .323186452860763 .6 -.44840743445
0808 .2540202159000295 .6 -.48439570636428 .177893054690465 .6 -.50731573549794
 .0968651399238248 .6 -.516496532568898 .01328724176117696 .6 -.511717652220287
 -.0706350640484934 .6 -.493123236507645 -.1526102246225925 .6 -.461254496610293
 -.230390675336532 .6 -.4170286866377725 -.301868700911255 .6 -.361698657952204
 -.365139214856642 .6 -.29680252940613 -.418548744549737 .6 -.2241089202260415 -
.460730106205132 .6 -.1455622755908872 -.490624405421867 .6 -.0632311647669971 -
.507493309233103 .6 .0207394219670143 -.510924884372872 .6 .1041723761265382 -.5
00835813722249 .6 .184901099328137 -.477471738447419 .6 .260812684711322 -.44140
60965400125 .6 .3298937146515195 -.3935363903578155 .6 .3902799200812075 -.33507
556055378 .6 .4403095532336335 -.2675353315748005 .6 .478578546973638 -.19269829
20755325 .6 .50399371929299 -.1125762881481966 .6 .513450921196508 -.05699934349
89386 .6 .516671 0 .6 41 1 461 H.516671 0 .6 74 20 450 3 0 0 638 645 6 0 0 0 0 0
 0 0 0 0 0 0 0 0 0 0 0 0 84 10 449 Ellipse_aX1 0 
