**ABCDEFGHIJKLMNOPQRSTUVWXYZabcdefghijklmnopqrstuvwxyz**************************
**PARASOLID !"#$%&'()*+,-./:;<=>?@[\]^_`{|}~0123456789**************************
**PART1;
MC=unknown;
MC_MODEL=unknown;
MC_ID=unknown;
OS=Windows;
OS_RELEASE=unknown;
FRU=Parasolid Version 26.0, build 224, 4/9/2014;
APPL=ANSYS DesignModeler;
SITE=Canonsburg PA;
USER=unknown;
FORMAT=text;
GUISE=transmit;
KEY=2_SYS 2_Geometry;
FILE=2_SYS 2_Geometry.x_t;
DATE=10/24/16 11:41:17;
**PART2;
SCH=SCH_2600224_25001;
USFLD_SIZE=0;
**PART3;
**END_OF_HEADER*****************************************************************
T51 : TRANSMIT FILE created by modeller version 260022417 SCH_2500000_250010 74
 4 1 4 0 0 2 3 4 5 12 2 634 6 7 0 0 0 0 1e3 1e-8 0 0 3 1 0 1 1 8 9 10 11 12 13 1
4 0 0 0 0 0 0 12 3 487 15 16 0 0 0 0 1e3 1e-8 0 2 4 1 0 1 1 17 18 19 0 20 21 0 0
 0 0 0 0 0 12 4 119 22 23 0 0 0 0 1e3 1e-8 0 3 5 1 0 1 1 24 25 26 27 28 29 30 0
 0 0 0 0 0 12 5 128 31 32 0 0 0 0 1e3 1e-8 0 4 0 1 0 1 1 33 34 35 36 37 38 39 0
 0 0 0 0 0 81 1 31 128 40 5 41 0 0 0 42 70 32 0 4 T5 0 0 3 20 1 43 43 13 33 6 0
 5 0 44 0 0 45 0 50 34 107 0 5 46 0 47 +0 0 0 0 0 -1 -1 0 0 32 35 105 0 5 48 0 4
9 +0 0 -3 0 0 -1 0 1 0 .5349 .5319 29 36 92 0 39 50 0 .365940779868152 .36594077
9868149 0 19 37 4 0 5 45 0 51 V0 16 38 29 52 ?53 0 54 55 0 0 5 18 39 41 56 57 0
 58 36 ?5 81 2 56 42 59 39 0 0 60 61 62 63 17 57 0 64 65 65 39 66 67 0 68 -18 58
 37 60 66 39 0 50 ?5 81 2 60 38 59 58 0 0 52 56 69 70 17 66 0 71 68 68 58 57 67
 0 65 +29 50 86 0 58 0 36 -.365940779868152 .365940779868149 0 15 71 53 0 66 44
 72 17 68 0 71 66 66 39 65 73 0 0 -16 67 9 74 ?66 73 0 75 0 0 5 17 65 0 64 57 57
 58 68 73 0 0 +15 64 60 0 65 76 0 16 73 15 77 ?65 78 67 79 0 0 5 81 2 77 16 59 7
3 0 0 0 80 81 82 16 78 17 80 ?83 54 73 84 0 0 5 137 79 85 0 73 55 75 0 -85 86 0
 ?38 55 84 0 38 87 79 0 +85 88 89 90 90 38 75 96 0 67 79 48 0 +85 34 91 92 92 60
 85 97 0 76 88 46 93 +UF46 .015875 ?134 86 0 0 0 0 0 0 +94 95 136 94 1 2 2 2 1 F
FF1 96 97 98 135 95 1 0 45 4 96 0 3 6.28318530717959 3 127 2 97 2 2 128 2 98 0 6
.28318530717959 14 76 57 61 ?99 44 100 33 85 +0 0 99 44 51 50 88 81 0 101 102 85
 103 +0 0 -.6 0 0 1 1 0 0 67 46 106 0 5 85 34 104 +35 0 0 1 .528916825574874 141
 93 55 105 106 85 141 105 75 106 93 85 141 106 79 93 105 85 141 104 85 104 104 4
6 14 101 71 107 ?0 99 108 33 88 -0 0 0 99 51 67 102 80 0 99 109 88 0 +87 0 0 1 .
528916825574874 141 103 55 103 103 88 14 99 61 110 ?101 76 111 33 102 -0 0 101 7
6 51 50 109 79 0 44 0 102 0 +0 0 0 0 0 -1 -1 0 0 32 87 83 0 5 84 55 112 +0 0 -3
 0 0 -1 0 1 0 .5349 .5319 32 84 82 0 78 0 87 0 -0 0 -.6 0 0 -1 0 1 0 .5349 .5319
 141 112 102 112 112 87 14 44 51 113 ?76 0 71 33 109 -0 0 76 0 51 81 2 113 125 5
9 44 0 0 41 114 115 116 13 51 5 0 0 0 0 0 0 37 44 80 2 59 117 118 9000 0 0 0 0 3
 6 0 0 0 FFTFTFTTTFFFTF3 1 81 2 41 124 59 5 119 31 107 113 120 0 81 2 114 126 59
 54 0 0 113 74 121 122 84 11 115 F1332.Cap1b82 1 116 1334 16 54 19 114 ?123 38 7
8 48 0 0 5 81 2 74 127 59 67 0 0 114 0 124 125 84 30 121 F1332.Cap1b..F1332.F129
4.E131382 1 122 1344 84 35 124 F1332.Cap1b..F1332.F1294.E1313.Wall82 1 125 1346
 17 123 0 126 123 123 0 127 54 0 0 +32 48 98 0 54 75 35 0 +0 0 0 0 0 -1 0 1 0 .5
349 .5319 15 126 64 0 123 99 0 17 127 0 72 127 127 0 123 54 0 0 -15 72 67 0 127
 44 0 81 1 119 3 128 5 0 41 0 0 129 81 2 107 72 59 101 0 0 110 41 130 131 84 11
 120 F2106.P40.B81 2 110 62 59 99 0 0 61 107 132 133 84 5 130 F204082 1 131 2043
 81 2 61 58 59 76 0 0 56 110 134 135 84 17 132 F1332.F1294.E131382 1 133 1335 84
 22 134 F1332.F1294.E1313.Wall82 1 135 1336 80 1 128 136 137 9000 0 0 0 0 3 6 0
 0 0 FFTFFFFFTFFFFF1 82 1 129 42 79 13 137 BodyAttrDef.479 18 118 AnsysParaAttrD
ef.315 111 63 0 83 99 126 17 83 0 111 83 83 0 138 78 0 0 +17 138 0 139 138 138 0
 83 78 0 0 -15 139 74 0 138 101 0 15 108 73 0 53 101 139 17 53 0 108 53 53 0 140
 38 0 0 +17 140 0 100 140 140 0 53 38 0 0 -15 100 59 0 140 76 64 40 20 91 0 1 20
 .0295497539056463 .3393662580183085 ??6318387127086e-29 -.519025 0 -.1700643096
052195 -.490028359424788 0 -.3209508547232775 -.406418783584557 0 -.436138099452
2 -.277402799026855 0 -.502793806121666 -.1167791532873146 0 -.512822527289529 .
0577345185581043 0 -.464451103082271 .2261782500160525 0 -.363034786600074 .3688
57364576736 0 -.220555540122661 .469227994401191 0 -.0537512878463673 .516201564
697575 0 .1184133328962696 .505174930591536 0 .277026924656469 .4378904618240145
 0 .404887571025024 .3217783160287425 0 .487810833177035 .169270899906669 0 .516
016443742172 -.00298887545307513 0 .485626685716094 -.175509430185799 0 .3997566
435619345 -.3282042027668285 0 .2684656783315805 -.4432523139717415 0 .107268367
5760314 -.507687165296525 0 6318387127086e-29 -.519025 0 41 1 92 H6318387127086e
-29 -.519025 0 40 40 89 0 1 40 .00707991745276747 .166267900617482 ??0 .519025 -
.6 -.042516077401305 .517260333959794 -.6 -.1265903647742572 .503164926919069 -.
6 -.207174544483465 .475357876705004 -.6 -.2820603373415095 .4346275677495015 -.
6 -.349212894952173 .3821193079918005 -.6 -.406826630061045 .3192944864815355 -.
6 -.453370127985911 .2478821230846905 -.6 -.487620009704181 .16982621427863 -.6
 -.508684730191608 .0872315854749956 -.6 -.516019889406527 .0023099484064537 -.6
 -.509436671608962 -.0826731830297748 -.6 -.489104598127657 -.1654509024333315 -
.6 -.455549041383504 -.243807295856895 -.6 -.4096431013567065 -.3156304652366475
 -.6 -.352592696821685 -.3789664123691235 -.6 -.285913270836031 -.43207318640161
4 -.6 -.2113965178823015 -.47347365959581 -.6 -.1310661007350516 -.5020042755727
92 -.6 -.0471224105912413 -.516856394941787 -.6 .03808188406566205 -.51760970617
837 -.6 .1222359701278314 -.50425297958623 -.6 .203022862197744 -.47716661709108
9 -.6 .2782299965051695 -.437118121902574 -.6 .3458146748691535 -.38523312987261
3 -.6 .4039603134328535 -.3229551684230455 -.6 .451121849063713 -.25199763809952
05 -.6 .486060103122376 -.1742914323830165 -.6 .507866035119111 -.09193094552917
35 -.6 .515976440761009 -.00712021988944777 -.6 .51018271610754 .077880062106315
9 -.6 .490633902715907 .1608048868637335 -.6 .45783450617556 .2394371526435555 -
.6 .412636737623424 .311660519420876 -.6 .356226070752597 .375513123312623 -.6 .
290098533858481 .429241615360087 -.6 .2160281343910865 .471353956978148 -.6 .136
023339356897 .500668379055513 -.6 .0692441645664987 .514330904387319 -.6 -238342
6180480505e-32 .519025 -.6 41 1 90 H-2383426180480505e-32 .519025 -.6 81 2 80 18
 59 78 0 0 77 52 141 142 81 2 52 30 59 38 0 0 80 60 143 144 84 24 141 F1332.F129
4.E1313..F204082 1 142 2046 84 29 143 F1332.F1294.E1313.Wall..F204082 1 144 2045
 84 35 81 F1332.Cap1b..F1332.F1294.E1313.Wall82 1 82 1350 84 10 69 F1332.Vtx782
 1 70 1361 84 10 62 F1332.Vtx682 1 63 1362 19 45 1 0 5 0 37 33 S0 141 49 46 49 4
9 35 141 47 75 47 47 34 74 20 43 3 0 0 74 119 31 0 0 0 0 0 0 0 0 0 0 0 0 0 0 0 0
 0 80 1 40 145 146 8017 0 0 0 0 0 0 0 0 0 TTTTTTTTTTTTTF3 84 12 42 S_Ellipse_aY7
9 13 146 SDL/TYSA_NAME81 1 22 119 40 4 147 0 0 0 148 70 23 0 4 T4 0 0 3 20 1 149
 149 13 24 6 0 4 0 150 0 0 151 0 67 25 115 0 4 152 0 153 +26 0 0 1 .528916825574
874 32 26 114 0 4 154 0 155 +0 0 -3 0 0 -1 0 1 0 .5349 .5319 29 27 107 0 156 157
 0 -.3763744233106225 .3779654130709995 -3 19 28 4 0 4 151 0 158 V0 16 29 36 159
 ?160 0 161 154 0 0 4 18 30 51 162 163 0 164 157 ?4 81 2 162 52 59 30 0 0 165 16
6 167 168 17 163 0 169 170 171 30 172 173 0 174 +18 164 49 165 175 30 176 177 ?4
 29 157 106 0 30 178 27 .376374423310623 -.3779654130709995 -3 29 178 105 0 179
 180 157 -.376374423310623 -.3779654130709995 -3 18 179 41 181 170 182 183 178 ?
4 29 180 104 0 176 184 178 .376374423310623 .3779654130709995 -3 18 176 47 185 1
86 164 156 180 ?4 29 184 103 0 182 187 180 -.376374423310623 -.3779654130709995
 -2.9746 18 182 43 188 189 156 179 184 ?4 29 187 102 0 190 177 184 .376374423310
623 -.3779654130709995 -2.9746 18 190 37 191 192 183 0 187 ?4 29 177 101 0 164 1
93 187 .376374423310623 .3779654130709995 -2.9746 29 193 100 0 183 0 177 -.37637
44233106225 .3779654130709995 -2.9746 18 183 39 194 195 179 190 193 ?4 81 2 194
 40 59 183 0 0 191 181 196 197 17 195 0 198 199 199 183 200 201 0 202 +15 198 68
 0 199 203 0 17 199 0 198 195 195 182 202 204 0 200 -17 200 0 205 206 207 182 19
5 201 0 0 -16 201 16 208 ?195 209 210 211 212 212 4 17 202 0 169 213 189 183 199
 204 0 207 +15 169 75 0 170 214 0 17 213 0 169 186 202 156 207 215 0 216 +17 189
 0 169 202 170 182 206 217 0 199 +16 204 24 218 ?202 215 217 219 220 220 4 17 20
7 0 205 200 221 183 213 215 0 0 -15 205 78 0 222 223 224 17 221 0 205 207 222 15
6 225 209 0 0 -16 215 26 226 ?213 227 204 228 0 0 4 81 2 226 27 59 215 0 0 218 2
29 230 231 16 227 28 229 ?175 220 215 232 0 0 4 30 228 94 0 215 211 232 0 --.376
374423310846 .377965413071221 -3 0 0 1 32 211 93 0 201 233 228 0 +0 0 -2.9746 0
 0 -1 0 1 0 .5349 .5319 30 232 95 0 227 228 234 0 +.3763744233108455 .3779654130
71221 -3 0 0 1 30 234 96 0 173 232 235 0 -.3763744233108455 -.377965413071221 -3
 0 0 1 16 173 32 236 ?163 161 220 234 0 0 4 30 235 97 0 217 234 237 0 +-.3763744
233108455 -.377965413071221 -3 0 0 1 16 217 22 238 ?189 204 239 235 0 0 4 38 237
 98 0 161 235 240 0 +241 242 243 244 244 16 161 34 245 ?246 29 173 237 0 0 4 31
 240 99 0 239 237 247 0 -0 0 -3 0 0 -1 -1 0 0 .5334 60 241 108 0 248 249 250 251
 +UF25 .015875 ?50 242 87 0 252 0 253 254 +0 0 -2.9746 0 0 -1 -1 0 0 40 40 243 0
 1 40 .0075557688506065 .171710049030054 ??0 .519025 -2.9746 .0850321548026097 .
511929839556245 -2.9746 .1676853012308285 .490857079675631 -2.9746 .245714837835
6765 .456406694947286 -2.9746 .3169883888922365 .409552826734715 -2.9746 .379576
889517979 .351607945639816 -2.9746 .4318051656414635 .284177596900319 -2.9746 .4
722913249184 .209109288631124 -2.9746 .499975449098669 .1284386474414646 -2.9746
 .514138947216991 .04433507162123375 -2.9746 .514416239401046 -.0409519555978533
5 -2.9746 .500800224622295 -.1251457003852424 -2.9746 .473642373790733 -.2059946
354704475 -2.9746 .433647467360682 -.281325238021194 -2.9746 .3818621700283505 -
.3490956232577705 -2.9746 .319656010360068 -.4074498580030435 -2.9746 .248693096
5360425 -.454771838307274 -2.9746 .170893185098101 -.489736547476751 -2.9746 .08
83815644266112 -.511355603576342 -2.9746 .003506950605305235 -.519013013799317 -
2.9746 -.0814611260585011 -.512516972060861 -2.9746 -.1641831685297705 -.4920533
24503599 -2.9746 -.242386362133693 -.458203721243819 -2.9746 -.3139368818122835
 -.411923830566105 -2.9746 -.376900954691766 -.354508163757034 -2.9746 -.4295956
888375315 -.2875453790994405 -2.9746 -.4706287830974 -.21286760713057 -2.9746 -.
498927553863743 -.132496932723149 -2.9746 -.51375860100259 -.0485912968895234 -2
.9746 -.514739769642845 .03660897672609015 -2.9746 -.501845872425242 .1208337985
11997 -2.9746 -.475409044740156 .201835521289373 -2.9746 -.4361137951108245 .277
441452593185 -2.9746 -.3849859877232015 .345607185102523 -2.9746 -.3233743588202
94 .404470633478169 -2.9746 -.25292290942519 .452405724990588 -2.9746 -.17553277
04188355 .488073630980143 -2.9746 -.0904719993440629 .510985627321808 -2.9746 -.
0455924260435663 .516995202647681 -2.9746 0 .519025 -2.9746 41 1 244 H0 .519025
 -2.9746 14 252 80 255 ?248 223 256 24 242 -257 203 248 223 158 50 253 88 0 258
 242 259 0 +0 0 -3.0254 0 0 -1 -1 0 0 141 254 237 254 254 242 14 258 57 260 ?257
 150 261 24 253 +0 0 257 150 158 51 259 89 0 214 253 249 0 -0 0 -3.0254 0 0 1 .5
334 1 0 0 14 214 72 262 ?223 263 264 24 259 -0 0 223 263 158 50 249 90 0 265 259
 241 0 +0 0 -3 0 0 -1 -1 0 0 14 265 63 266 ?203 257 267 24 249 +263 263 203 257
 158 81 2 266 64 59 265 0 0 268 269 270 271 14 203 66 269 ?263 265 198 24 242 -2
52 257 263 265 158 14 257 60 268 ?265 258 272 24 242 -203 252 265 258 158 15 267
 65 0 273 265 0 14 263 69 274 ?214 203 275 24 249 +265 265 214 203 158 13 158 5
 0 0 0 0 0 0 28 150 14 150 53 166 ?258 0 276 24 152 +0 0 258 0 158 81 2 166 54 5
9 150 0 0 162 260 277 278 15 276 55 0 279 150 280 50 152 111 0 150 250 25 281 +0
 0 -.6 0 0 1 1 0 0 67 250 109 0 223 241 152 0 +247 0 0 1 .528916825574874 141 28
1 154 281 281 152 38 154 113 0 29 282 26 0 +241 152 283 284 284 32 282 112 0 285
 247 154 0 -0 0 -.6 0 0 -1 0 1 0 .5349 .5319 40 40 283 0 1 40 .00707991745276747
 .166267900617482 ??0 .519025 -.6 -.042516077401305 .517260333959794 -.6 -.12659
03647742572 .503164926919069 -.6 -.207174544483465 .475357876705004 -.6 -.282060
3373415095 .4346275677495015 -.6 -.349212894952173 .3821193079918005 -.6 -.40682
6630061045 .3192944864815355 -.6 -.453370127985911 .2478821230846905 -.6 -.48762
0009704181 .16982621427863 -.6 -.508684730191608 .0872315854749956 -.6 -.5160198
89406527 .0023099484064537 -.6 -.509436671608962 -.0826731830297748 -.6 -.489104
598127657 -.1654509024333315 -.6 -.455549041383504 -.243807295856895 -.6 -.40964
31013567065 -.3156304652366475 -.6 -.352592696821685 -.3789664123691235 -.6 -.28
5913270836031 -.432073186401614 -.6 -.2113965178823015 -.47347365959581 -.6 -.13
10661007350516 -.502004275572792 -.6 -.0471224105912413 -.516856394941787 -.6 .0
3808188406566205 -.51760970617837 -.6 .1222359701278314 -.50425297958623 -.6 .20
3022862197744 -.477166617091089 -.6 .2782299965051695 -.437118121902574 -.6 .345
8146748691535 -.385233129872613 -.6 .4039603134328535 -.3229551684230455 -.6 .45
1121849063713 -.2519976380995205 -.6 .486060103122376 -.1742914323830165 -.6 .50
7866035119111 -.0919309455291735 -.6 .515976440761009 -.00712021988944777 -.6 .5
1018271610754 .0778800621063159 -.6 .490633902715907 .1608048868637335 -.6 .4578
3450617556 .2394371526435555 -.6 .412636737623424 .311660519420876 -.6 .35622607
0752597 .375513123312623 -.6 .290098533858481 .429241615360087 -.6 .216028134391
0865 .471353956978148 -.6 .136023339356897 .500668379055513 -.6 .069244164566498
7 .514330904387319 -.6 -2383426180480505e-32 .519025 -.6 41 1 284 H-238342618048
0505e-32 .519025 -.6 16 285 7 286 ?287 288 0 282 0 0 4 32 247 110 0 209 240 282
 289 +0 0 -3 0 0 -1 0 1 0 .5349 .5319 16 209 18 290 ?225 239 201 247 291 291 4 1
41 289 250 289 289 247 81 2 290 19 59 209 0 0 208 292 293 294 17 225 0 275 216 2
16 176 221 209 0 0 +16 239 20 292 ?216 217 209 240 210 210 4 16 291 12 295 ?273
 210 212 247 209 209 4 81 2 295 13 59 291 0 0 296 297 298 299 17 273 0 267 174 1
74 179 300 291 0 0 +16 210 14 297 ?174 201 291 240 239 239 4 16 212 10 296 ?192
 291 288 211 201 201 4 81 2 296 11 59 212 0 0 301 295 302 303 17 192 0 272 304 3
04 190 305 212 0 171 +16 288 8 301 ?306 212 285 233 0 0 4 81 2 301 9 59 288 0 0
 0 296 307 308 17 306 0 261 306 306 0 309 288 0 0 +31 233 92 0 288 219 211 0 +0
 0 -3.0254 0 0 -1 -1 0 0 .5334 31 219 91 0 204 0 233 0 +0 0 -2.9746 0 0 -1 -1 0
 0 .5334 15 261 59 0 306 258 0 17 309 0 264 309 309 0 306 288 0 0 -15 264 74 0 3
09 214 169 84 30 307 F1437.Cap1t..F1437.F1431.E143282 1 308 1444 15 272 62 0 304
 257 0 17 304 0 272 192 192 164 171 220 0 305 -17 305 0 205 222 172 164 192 212
 0 0 -17 171 0 169 163 175 190 304 220 0 172 +17 175 0 169 171 186 164 222 227 0
 304 +16 220 30 310 ?171 173 227 219 204 204 4 17 172 0 205 305 300 190 163 173
 0 0 -17 300 0 205 172 206 30 273 291 0 0 -17 206 0 205 300 200 179 189 217 0 27
3 -81 2 310 31 59 220 0 0 229 236 311 312 81 2 229 29 59 227 0 0 226 310 313 314
 81 2 236 33 59 173 0 0 310 245 315 316 84 30 311 F1437.Cap2t..F1437.F1431.E1432
82 1 312 1924 81 2 245 35 59 161 0 0 236 191 317 318 84 36 315 F1332.F1294.E1313
..F1437.F1431.E143282 1 316 1933 81 2 191 38 59 190 0 0 245 194 319 320 84 35 31
7 F1332.F1294.E1313.Wall..F1437.Cap2t82 1 318 1926 84 10 319 F1437.Vtx782 1 320
 1937 84 36 313 F1332.F1294.E1313..F1437.F1431.E143282 1 314 1932 17 186 0 169 1
75 213 176 216 239 0 222 -17 222 0 205 221 305 176 175 227 0 225 -17 216 0 275 2
25 225 156 186 239 0 221 +15 275 71 0 225 263 0 18 156 45 321 213 176 182 27 ?4
 81 2 321 46 59 156 0 0 188 185 322 323 81 2 188 44 59 182 0 0 181 321 324 325 8
1 2 185 48 59 176 0 0 321 165 326 327 84 10 322 F1437.Vtx282 1 323 1454 81 2 165
 50 59 164 0 0 185 162 328 329 84 10 326 F1437.Vtx382 1 327 1455 84 10 328 F1437
.Vtx682 1 329 1936 81 2 181 42 59 179 0 0 194 188 330 331 84 10 324 F1437.Vtx582
 1 325 1938 84 10 330 F1437.Vtx482 1 331 1453 84 30 302 F1332.F1294.E1313..F1437
.Cap2t82 1 303 1928 81 2 297 15 59 210 0 0 295 208 332 333 17 174 0 267 273 273
 30 170 210 0 300 +17 170 0 169 189 163 179 174 210 0 206 -81 2 208 17 59 201 0
 0 297 290 334 335 84 30 332 F1437.F1431.E1432..F1332.Cap1t82 1 333 1930 84 30 3
34 F1332.F1294.E1313..F1437.Cap2t82 1 335 1927 84 30 298 F1332.Cap1t..F1332.F129
4.E131382 1 299 1343 81 2 292 21 59 239 0 0 290 238 336 337 81 2 238 23 59 217 0
 0 292 218 338 339 84 30 336 F1332.Cap1t..F1437.F1431.E143282 1 337 1929 81 2 21
8 25 59 204 0 0 238 226 340 341 84 36 338 F1332.F1294.E1313..F1437.F1431.E143282
 1 339 1934 84 30 340 F1437.Cap2t..F1437.F1431.E143282 1 341 1925 84 30 293 F133
2.Cap1t..F1332.F1294.E131382 1 294 1449 81 2 286 117 59 285 0 0 147 159 342 343
 17 287 0 280 287 287 0 344 285 0 0 +15 280 56 0 287 150 0 17 344 0 224 344 344
 0 287 285 0 0 -15 224 79 0 344 223 0 14 223 76 345 ?252 214 205 24 250 -0 0 252
 214 158 81 2 345 77 59 223 0 0 262 255 346 347 81 2 262 73 59 214 0 0 274 345 3
48 349 81 2 255 81 59 252 0 0 345 350 351 352 84 17 346 F1332.F1294.E131382 1 34
7 1775 81 2 350 84 59 248 0 0 255 147 353 354 84 11 351 F1437.Cap2t82 1 352 1921
 14 248 83 350 ?0 252 355 24 241 +0 0 0 252 158 81 2 147 116 59 4 356 22 350 286
 357 0 84 22 353 F1332.F1294.E1313.Wall82 1 354 1774 81 1 356 3 128 4 0 147 0 0
 358 84 11 357 F2040.P40.B82 1 358 41 15 355 85 0 246 248 359 17 246 0 355 246 2
46 0 360 161 0 0 +15 359 86 0 160 248 0 17 160 0 359 160 160 0 279 29 0 0 +17 27
9 0 276 279 279 0 160 29 0 0 -17 360 0 256 360 360 0 246 161 0 0 -15 256 82 0 36
0 252 0 81 2 274 70 59 263 0 0 269 262 361 362 84 17 348 F1437.F1431.E143282 1 3
49 1440 81 2 269 67 59 203 0 0 266 274 363 364 84 11 361 F1332.Cap1t82 1 362 133
3 84 11 363 F1437.Cap2t82 1 364 1922 81 2 159 118 59 29 0 0 286 0 365 366 84 24
 342 F1332.F1294.E1313..F204082 1 343 2047 84 29 365 F1332.F1294.E1313.Wall..F20
4082 1 366 2048 81 2 260 58 59 258 0 0 166 268 367 368 84 5 277 F204082 1 278 20
44 81 2 268 61 59 257 0 0 260 266 369 370 84 11 367 F1437.Cap1t82 1 368 1438 84
 11 369 F1437.Cap2t82 1 370 1923 84 11 270 F1332.Cap1t82 1 271 1443 141 251 237
 371 371 241 141 371 154 251 251 241 84 36 230 F1332.F1294.E1313..F1437.F1431.E1
43282 1 231 1931 84 10 196 F1437.Vtx882 1 197 1935 84 10 167 F1437.Vtx182 1 168
 1452 19 151 1 0 4 0 28 24 S0 141 155 25 155 155 26 141 153 241 153 153 25 74 20
 149 3 0 0 159 356 22 0 0 0 0 0 0 0 0 0 0 0 0 0 0 0 0 0 84 10 148 Ellipse_aY81 1
 15 487 40 3 372 0 0 0 373 70 16 0 4 T3 0 0 3 20 1 374 374 13 17 442 0 3 0 375 0
 0 376 0 67 18 216 0 3 377 0 378 +379 0 0 -1 .528916825574874 32 19 217 0 3 379
 0 380 +0 0 3 0 0 1 1 0 0 .5349 .5319 19 20 444 0 3 376 0 381 V0 16 21 27 382 ?3
83 0 384 385 0 0 3 81 2 382 485 59 21 0 0 386 387 388 389 17 383 0 390 383 383 0
 391 21 0 0 +16 384 26 392 ?393 21 394 395 0 0 3 32 385 180 0 21 0 396 0 +0 0 0
 0 0 1 1 0 0 .5349 .5319 38 396 181 0 394 385 395 0 +397 398 399 400 400 16 394
 8 387 ?401 384 402 396 0 0 3 32 395 213 0 384 396 403 0 +0 0 .6 0 0 1 1 0 0 .53
49 .5319 60 397 210 0 404 398 405 406 +UF18 .015875 ?50 398 168 0 3 407 397 408
 +0 0 0 0 0 1 1 0 0 40 20 399 0 1 20 .0295497539056463 .3393662580183085 ??-.519
025 6318387127086e-29 0 -.490028359424788 -.1700643096052195 0 -.406418783584557
 -.3209508547232775 0 -.277402799026855 -.4361380994522 0 -.1167791532873146 -.5
02793806121666 0 .0577345185581043 -.512822527289529 0 .2261782500160525 -.46445
1103082271 0 .368857364576736 -.363034786600074 0 .469227994401191 -.22055554012
2661 0 .516201564697575 -.0537512878463673 0 .505174930591536 .1184133328962696
 0 .4378904618240145 .277026924656469 0 .3217783160287425 .404887571025024 0 .16
9270899906669 .487810833177035 0 -.00298887545307513 .516016443742172 0 -.175509
430185799 .485626685716094 0 -.3282042027668285 .3997566435619345 0 -.4432523139
717415 .2684656783315805 0 -.507687165296525 .1072683675760314 0 -.519025 631838
7127086e-29 0 41 1 400 H-.519025 6318387127086e-29 0 50 407 167 0 375 0 398 0 +0
 0 0 0 0 1 1 0 0 141 408 396 408 408 398 14 375 105 386 ?404 0 409 17 407 -0 0 4
04 0 381 81 2 386 484 59 375 0 0 392 382 410 411 14 404 101 412 ?413 375 414 17
 397 +0 0 413 375 381 15 409 107 0 401 375 415 13 381 443 0 0 0 0 0 0 20 375 17
 401 0 409 401 401 0 416 394 0 0 +15 415 144 0 391 375 0 17 391 0 415 391 391 0
 383 21 0 0 -17 416 0 414 416 416 0 401 394 0 0 -15 414 103 0 416 404 417 15 417
 104 0 418 404 0 17 418 0 417 418 418 0 419 402 0 0 +17 419 0 420 419 419 0 418
 402 0 0 -16 402 7 421 ?418 394 0 403 0 0 3 81 2 421 219 59 402 0 0 372 392 422
 423 38 403 214 0 402 395 379 0 +397 405 424 425 425 32 379 215 0 3 403 19 426 +
0 0 3 0 0 1 1 0 0 .5349 .5319 50 405 211 0 413 397 377 427 +0 0 .6 0 0 1 1 0 0 4
0 40 424 0 1 40 .0075557688506065 .171710049030054 ??.519025 0 .6 .5119298395562
45 .0850321548026097 .6 .490857079675631 .1676853012308285 .6 .456406694947286 .
2457148378356765 .6 .409552826734715 .3169883888922365 .6 .351607945639816 .3795
76889517979 .6 .284177596900319 .4318051656414635 .6 .209109288631124 .472291324
9184 .6 .1284386474414646 .499975449098669 .6 .04433507162123375 .51413894721699
1 .6 -.04095195559785335 .514416239401046 .6 -.1251457003852424 .500800224622295
 .6 -.2059946354704475 .473642373790733 .6 -.281325238021194 .433647467360682 .6
 -.3490956232577705 .3818621700283505 .6 -.4074498580030435 .319656010360068 .6
 -.454771838307274 .2486930965360425 .6 -.489736547476751 .170893185098101 .6 -.
511355603576342 .0883815644266112 .6 -.519013013799317 .003506950605305235 .6 -.
512516972060861 -.0814611260585011 .6 -.492053324503599 -.1641831685297705 .6 -.
458203721243819 -.242386362133693 .6 -.411923830566105 -.3139368818122835 .6 -.3
54508163757034 -.376900954691766 .6 -.2875453790994405 -.4295956888375315 .6 -.2
1286760713057 -.4706287830974 .6 -.132496932723149 -.498927553863743 .6 -.048591
2968895234 -.51375860100259 .6 .03660897672609015 -.514739769642845 .6 .12083379
8511997 -.501845872425242 .6 .201835521289373 -.475409044740156 .6 .277441452593
185 -.4361137951108245 .6 .345607185102523 -.3849859877232015 .6 .40447063347816
9 -.323374358820294 .6 .452405724990588 -.25292290942519 .6 .488073630980143 -.1
755327704188355 .6 .510985627321808 -.0904719993440629 .6 .516995202647681 -.045
5924260435663 .6 .519025 0 .6 41 1 425 H.519025 0 .6 14 413 124 428 ?429 404 420
 17 405 +0 0 429 404 381 67 377 212 0 429 405 18 0 +19 0 0 -1 .528916825574874 1
41 427 403 427 427 405 14 429 128 430 ?0 413 390 17 377 -0 0 0 413 381 81 2 430
 129 59 429 0 0 428 372 431 432 15 390 130 0 383 429 433 15 433 131 0 434 429 0
 17 434 0 433 434 434 0 393 384 0 0 -17 393 0 435 393 393 0 434 384 0 0 +15 435
 127 0 393 413 0 81 2 428 125 59 413 0 0 412 430 436 437 81 2 372 218 59 3 438 1
5 430 421 439 0 84 15 431 F1320.F49.E127282 1 432 1749 81 1 438 3 128 3 0 372 0
 0 440 84 11 439 F2030.P27.B82 1 440 40 81 2 412 102 59 404 0 0 0 428 441 442 84
 5 436 F203082 1 437 2034 84 20 441 F1320.F49.E1272.Wall82 1 442 1750 15 420 126
 0 419 413 435 141 426 18 426 426 379 81 2 392 220 59 384 0 0 421 386 443 444 84
 27 422 F1320.F49.E1272.Wall..F203082 1 423 2037 84 22 443 F1320.F49.E1272..F203
082 1 444 2038 84 11 410 F1320.Cap1b82 1 411 1324 141 406 403 445 445 397 141 44
5 396 406 406 397 81 2 387 486 59 394 0 0 382 0 446 447 84 33 446 F1320.Cap1b..F
1320.F49.E1272.Wall82 1 447 1330 84 28 388 F1320.Cap1b..F1320.F49.E127282 1 389
 1328 19 376 1 0 3 0 20 17 S0 141 380 377 380 380 19 141 378 397 378 378 18 74 2
0 374 3 0 0 387 438 15 0 0 0 0 0 0 0 0 0 0 0 0 0 0 0 0 0 84 12 373 S_Ellipse_aX8
1 1 6 634 40 2 448 0 0 0 449 70 7 0 4 T2 0 0 3 20 1 450 450 13 8 622 0 2 0 451 0
 0 452 0 67 9 29 0 453 454 0 0 +455 0 0 -1 .528916825574874 38 10 563 0 456 457
 0 0 +458 459 460 461 461 29 11 240 0 14 462 0 .377965412883763 -.37637442349759
6 3 19 12 624 0 2 452 0 463 V0 16 13 572 464 ?465 0 456 466 0 0 2 18 14 237 467
 468 0 469 11 ?2 81 2 467 403 59 14 0 0 470 471 472 473 17 468 0 474 475 476 14
 477 478 0 479 +18 469 229 471 480 14 481 462 ?2 81 2 471 404 59 469 0 0 467 482
 483 484 17 480 0 474 476 475 469 485 486 0 487 +18 481 306 488 489 469 490 491
 ?2 29 462 232 0 469 491 11 -.377965412883763 .376374423497596 3 29 491 360 0 48
1 492 462 .377965412883763 -.376374423497596 2.9746 29 492 361 0 490 493 491 -.3
77965412883763 -.3763744234975965 2.9746 18 490 301 494 495 481 496 492 ?2 29 49
3 362 0 496 497 492 -.377965412883763 .376374423497596 2.9746 18 496 304 498 499
 490 500 493 ?2 29 497 363 0 500 501 493 .377965412883763 .3763744234975965 2.97
46 18 500 303 482 502 496 503 497 ?2 29 501 365 0 503 504 497 -.3779654128840675
 -.3763744234978995 3 18 503 305 470 477 500 505 501 ?2 29 504 367 0 505 0 501 .
3779654128840675 .3763744234978995 3 18 505 307 506 485 503 0 504 ?2 81 2 506 40
1 59 505 0 0 498 470 507 508 17 485 0 509 502 487 505 480 486 0 510 -15 509 313
 0 487 511 0 17 502 0 509 512 485 500 510 513 0 514 -17 487 0 509 485 512 469 51
5 516 0 517 -16 486 285 518 ?480 519 478 520 478 478 2 17 510 0 521 522 523 505
 502 513 0 475 +15 521 262 0 517 453 0 17 522 0 521 524 510 14 475 525 0 0 -17 5
23 0 521 510 515 500 499 526 0 0 -16 513 298 527 ?510 516 528 529 0 0 2 17 475 0
 474 480 468 505 522 525 0 0 +15 474 242 0 475 530 0 16 525 238 531 ?475 532 533
 455 532 532 2 81 2 531 239 59 525 0 0 534 535 536 537 16 532 2 534 ?476 456 525
 455 525 525 2 16 533 295 538 ?524 525 516 539 0 0 2 32 455 4 0 525 540 457 541
 +0 0 3 0 0 1 1 0 0 .5349 .5319 32 540 69 0 2 539 455 542 +0 0 3 0 0 1 1 0 0 .53
49 .5319 38 457 224 0 543 455 10 0 +458 544 545 546 546 141 541 9 541 541 455 16
 543 284 547 ?548 549 550 457 0 0 2 60 458 63 0 551 552 454 553 +UF552 .015875 ?
50 544 350 0 451 459 554 555 +0 0 2.9746 0 0 1 1 0 0 40 40 545 0 1 40 .007555768
8506065 .171710049030054 ??.519025 0 2.9746 .511929839556245 .0850321548026097 2
.9746 .490857079675631 .1676853012308285 2.9746 .456406694947286 .24571483783567
65 2.9746 .409552826734715 .3169883888922365 2.9746 .351607945639816 .3795768895
17979 2.9746 .284177596900319 .4318051656414635 2.9746 .209109288631124 .4722913
249184 2.9746 .1284386474414646 .499975449098669 2.9746 .04433507162123375 .5141
38947216991 2.9746 -.04095195559785335 .514416239401046 2.9746 -.125145700385242
4 .500800224622295 2.9746 -.2059946354704475 .473642373790733 2.9746 -.281325238
021194 .433647467360682 2.9746 -.3490956232577705 .3818621700283505 2.9746 -.407
4498580030435 .319656010360068 2.9746 -.454771838307274 .2486930965360425 2.9746
 -.489736547476751 .170893185098101 2.9746 -.511355603576342 .0883815644266112 2
.9746 -.519013013799317 .003506950605305235 2.9746 -.512516972060861 -.081461126
0585011 2.9746 -.492053324503599 -.1641831685297705 2.9746 -.458203721243819 -.2
42386362133693 2.9746 -.411923830566105 -.3139368818122835 2.9746 -.354508163757
034 -.376900954691766 2.9746 -.2875453790994405 -.4295956888375315 2.9746 -.2128
6760713057 -.4706287830974 2.9746 -.132496932723149 -.498927553863743 2.9746 -.0
485912968895234 -.51375860100259 2.9746 .03660897672609015 -.514739769642845 2.9
746 .120833798511997 -.501845872425242 2.9746 .201835521289373 -.475409044740156
 2.9746 .277441452593185 -.4361137951108245 2.9746 .345607185102523 -.3849859877
232015 2.9746 .404470633478169 -.323374358820294 2.9746 .452405724990588 -.25292
290942519 2.9746 .488073630980143 -.1755327704188355 2.9746 .510985627321808 -.0
904719993440629 2.9746 .516995202647681 -.0455924260435663 2.9746 .519025 0 2.97
46 41 1 546 H.519025 0 2.9746 14 451 340 556 ?551 0 557 8 544 -558 559 551 0 463
 50 459 601 0 560 0 544 561 +0 0 .6 0 0 1 1 0 0 51 554 348 0 562 544 552 0 +0 0
 2.9746 0 0 1 .5334 1 0 0 141 555 457 555 555 544 14 562 308 563 ?558 559 564 8
 554 +511 511 558 559 463 67 552 64 0 2 554 458 565 +540 0 0 -1 .528916825574874
 141 565 458 565 565 552 81 2 563 309 59 562 0 0 566 567 568 569 14 558 317 570
 ?511 562 571 8 544 -559 451 511 562 463 14 559 320 572 ?562 560 573 8 544 -451
 558 562 560 463 15 564 310 0 479 562 0 14 511 337 567 ?530 558 509 8 554 +562 5
62 530 558 463 13 463 623 0 0 0 0 0 0 12 451 81 2 567 312 59 511 0 0 563 570 574
 575 14 530 7 576 ?453 511 474 8 454 +0 0 453 511 463 81 2 576 391 59 530 0 0 55
6 547 577 578 14 453 26 579 ?0 530 580 8 9 -0 0 0 530 463 50 454 8 0 530 458 9 0
 +0 0 3 0 0 1 1 0 0 81 2 579 35 59 453 0 0 0 581 582 583 15 580 567 0 465 453 52
1 17 465 0 580 465 465 0 584 13 0 0 +17 584 0 585 584 584 0 465 13 0 0 -15 585 5
89 0 584 560 0 14 560 586 586 ?559 551 587 8 459 -0 0 559 551 463 81 2 586 629 5
9 560 0 0 448 464 588 589 14 551 51 581 ?560 451 590 8 458 +0 0 560 451 463 15 5
87 588 0 591 560 585 17 591 0 587 591 591 0 592 456 0 0 +17 592 0 590 592 592 0
 591 456 0 0 -16 456 573 593 ?591 13 532 10 0 0 2 81 2 593 633 59 456 0 0 464 0
 594 595 81 2 464 632 59 13 0 0 586 593 596 597 84 27 594 F1320.F49.E1272.Wall..
F203082 1 595 2036 84 22 596 F1320.F49.E1272..F203082 1 597 2035 15 590 562 0 59
2 551 598 15 598 222 0 548 551 0 17 548 0 598 548 548 0 599 543 0 0 +17 599 0 55
7 599 599 0 548 543 0 0 -15 557 342 0 599 451 0 81 2 581 226 59 551 0 0 579 534
 600 601 81 2 534 231 59 532 0 0 581 531 602 603 84 20 600 F1320.F49.E1272.Wall8
2 1 601 1326 84 28 602 F1320.Cap1t..F1320.F49.E127282 1 603 1327 81 2 448 542 59
 2 604 6 494 586 605 0 84 5 588 F203082 1 589 2033 81 1 604 73 128 2 0 448 0 0 6
06 81 2 494 406 59 490 0 0 482 448 607 608 84 7 605 F1320.B81 2 482 405 59 500 0
 0 471 494 609 610 84 10 607 F1396.Vtx882 1 608 1915 84 10 609 F1396.Vtx782 1 61
0 1913 82 1 606 27 84 15 582 F1320.F49.E127282 1 583 1325 81 2 556 341 59 451 0
 0 572 576 611 612 81 2 547 392 59 543 0 0 576 613 614 615 84 11 577 F1320.Cap1t
82 1 578 1323 81 2 613 393 59 549 0 0 547 616 617 618 84 33 614 F1320.F49.E1272.
Wall..F1396.Cap1t82 1 615 1906 16 549 283 613 ?489 526 543 619 526 526 2 81 2 61
6 394 59 526 0 0 613 620 621 622 84 28 617 F1320.F49.E1272..F1396.Cap1t82 1 618
 1907 16 526 282 616 ?499 528 549 619 549 549 2 81 2 620 395 59 528 0 0 616 527
 623 624 84 28 621 F1320.F49.E1272..F1396.Cap1t82 1 622 1908 16 528 281 620 ?625
 513 526 626 0 0 2 81 2 527 396 59 513 0 0 620 627 628 629 84 34 623 F1320.F49.E
1272..F1396.F1383.E139182 1 624 1909 81 2 627 397 59 516 0 0 527 538 630 631 84
 34 628 F1320.F49.E1272..F1396.F1383.E139182 1 629 1910 16 516 278 627 ?515 533
 513 632 0 0 2 81 2 538 398 59 533 0 0 627 488 633 634 84 34 630 F1320.F49.E1272
..F1396.F1383.E139182 1 631 1911 81 2 488 399 59 481 0 0 538 498 635 636 84 34 6
33 F1320.F49.E1272..F1396.F1383.E139182 1 634 1912 81 2 498 400 59 496 0 0 488 5
06 637 638 84 10 635 F1396.Vtx582 1 636 1916 84 10 637 F1396.Vtx682 1 638 1914 1
7 515 0 521 523 517 496 487 516 0 0 +30 632 352 0 516 529 539 0 +-.3779654128834
6 .3763744234972915 3 0 0 -1 30 529 353 0 513 626 632 0 -.37796541288346 .376374
423497291 3 0 0 -1 30 539 351 0 533 632 540 0 +.37796541288346 -.376374423497291
 3 0 0 -1 30 626 354 0 528 619 529 0 --.37796541288346 -.376374423497291 3 0 0 -
1 32 619 355 0 549 520 626 0 +0 0 2.9746 0 0 1 1 0 0 .5349 .5319 31 520 358 0 48
6 639 619 0 +0 0 3 0 0 1 1 0 0 .5334 31 639 359 0 550 466 520 0 +0 0 2.9746 0 0
 1 1 0 0 .5334 16 550 276 640 ?512 543 519 639 519 519 2 32 466 602 0 13 0 639 0
 +0 0 .6 0 0 1 1 0 0 .5349 .5319 81 2 640 277 59 550 0 0 535 518 641 642 17 512
 0 509 487 502 496 514 550 0 515 +16 519 274 535 ?643 550 486 639 550 550 2 81 2
 535 275 59 519 0 0 531 640 644 645 17 643 0 564 479 495 481 646 519 0 524 +17 4
79 0 564 477 643 14 524 533 0 522 -17 495 0 564 643 477 490 625 528 0 646 -17 64
6 0 573 489 489 490 643 519 0 647 -17 524 0 521 647 522 481 479 533 0 0 +17 647
 0 521 625 524 490 489 549 0 0 -17 625 0 521 517 647 503 495 528 0 476 +17 489 0
 573 646 646 481 647 549 0 643 +15 573 322 0 646 559 0 17 517 0 521 515 625 469
 476 532 0 0 -17 476 0 474 468 480 503 517 532 0 0 +17 477 0 564 495 479 503 468
 478 0 625 -16 478 287 566 ?468 486 0 520 486 486 2 81 2 566 288 59 478 0 0 518
 563 648 649 81 2 518 286 59 486 0 0 640 566 650 651 84 30 648 F1396.Cap1b..F139
6.F1383.E139182 1 649 1405 84 30 650 F1396.Cap1b..F1396.F1383.E139182 1 651 1404
 84 30 644 F1396.Cap1t..F1396.F1383.E139182 1 645 1905 17 514 0 571 499 499 500
 512 550 0 523 -15 571 319 0 514 558 0 17 499 0 571 514 514 496 523 526 0 512 +8
4 30 641 F1396.Cap1t..F1396.F1383.E139182 1 642 1403 81 2 572 321 59 559 0 0 570
 556 652 653 84 11 611 F1396.Cap1t82 1 612 1397 81 2 570 318 59 558 0 0 567 572
 654 655 84 11 652 F1396.Cap1t82 1 653 1902 84 11 654 F1396.Cap1t82 1 655 1903 8
4 17 574 F1396.F1383.E139182 1 575 1399 84 17 568 F1396.F1383.E139182 1 569 1904
 141 561 10 561 561 459 141 553 457 656 656 458 141 656 10 553 553 458 141 542 5
52 542 542 540 84 28 536 F1320.Cap1t..F1320.F49.E127282 1 537 1408 81 2 470 402
 59 503 0 0 506 467 657 658 84 10 507 F1396.Vtx382 1 508 1414 84 10 657 F1396.Vt
x482 1 658 1412 84 10 483 F1396.Vtx182 1 484 1411 84 10 472 F1396.Vtx282 1 473 1
413 19 452 31 0 2 0 12 8 S0 40 40 460 0 1 40 .0075557688506065 .171710049030054
 ??.519025 0 .6 .511929839556245 .0850321548026097 .6 .490857079675631 .16768530
12308285 .6 .456406694947286 .2457148378356765 .6 .409552826734715 .316988388892
2365 .6 .351607945639816 .379576889517979 .6 .284177596900319 .4318051656414635
 .6 .209109288631124 .4722913249184 .6 .1284386474414646 .499975449098669 .6 .04
433507162123375 .514138947216991 .6 -.04095195559785335 .514416239401046 .6 -.12
51457003852424 .500800224622295 .6 -.2059946354704475 .473642373790733 .6 -.2813
25238021194 .433647467360682 .6 -.3490956232577705 .3818621700283505 .6 -.407449
8580030435 .319656010360068 .6 -.454771838307274 .2486930965360425 .6 -.48973654
7476751 .170893185098101 .6 -.511355603576342 .0883815644266112 .6 -.51901301379
9317 .003506950605305235 .6 -.512516972060861 -.0814611260585011 .6 -.4920533245
03599 -.1641831685297705 .6 -.458203721243819 -.242386362133693 .6 -.41192383056
6105 -.3139368818122835 .6 -.354508163757034 -.376900954691766 .6 -.287545379099
4405 -.4295956888375315 .6 -.21286760713057 -.4706287830974 .6 -.132496932723149
 -.498927553863743 .6 -.0485912968895234 -.51375860100259 .6 .03660897672609015
 -.514739769642845 .6 .120833798511997 -.501845872425242 .6 .201835521289373 -.4
75409044740156 .6 .277441452593185 -.4361137951108245 .6 .345607185102523 -.3849
859877232015 .6 .404470633478169 -.323374358820294 .6 .452405724990588 -.2529229
0942519 .6 .488073630980143 -.1755327704188355 .6 .510985627321808 -.09047199934
40629 .6 .516995202647681 -.0455924260435663 .6 .519025 0 .6 41 1 461 H.519025 0
 .6 74 20 450 3 0 0 593 604 6 0 0 0 0 0 0 0 0 0 0 0 0 0 0 0 0 0 84 10 449 Ellips
e_aX1 0 
