  0
SECTION
  2
HEADER
  9
$ACADVER
  1
AC1009
  9
$INSBASE
 10
0.0
 20
0.0
 30
0.0
  9
$EXTMIN
 10
0.0
 20
0.0
 30
0.0
  9
$EXTMAX
 10
100.0
 20
100.0
 30
0.0
  9
$UNITMODE
 70
0
  9
$AUNITS
 70
0
  9
$ANGBASE
 50
0.0
  9
$ANGDIR
 70
0
  0
ENDSEC
  0
SECTION
  2
TABLES
  0
TABLE
  2
LTYPE
 70
19
  0
LTYPE
  2
CONTINUOUS
 70
0
  3
Solid
 72
65
 73
0
 40
0.0
  0
LTYPE
  2
CENTER
 70
0
  3
Center ____ _ ____ _ ____ _ ____ _ ____ _ ____
 72
65
 73
4
 40
2.0
 49
1.25
 49
-0.25
 49
0.25
 49
-0.25
  0
LTYPE
  2
CENTERX2
 70
0
  3
Center (2x) ________  __  ________  __  ________
 72
65
 73
4
 40
3.5
 49
2.5
 49
-0.25
 49
0.5
 49
-0.25
  0
LTYPE
  2
CENTER2
 70
0
  3
Center (.5x) ____ _ ____ _ ____ _ ____ _ ____
 72
65
 73
4
 40
1.0
 49
0.625
 49
-0.125
 49
0.125
 49
-0.125
  0
LTYPE
  2
DASHED
 70
0
  3
Dashed __ __ __ __ __ __ __ __ __ __ __ __ __ _
 72
65
 73
2
 40
0.6
 49
0.5
 49
-0.1
  0
LTYPE
  2
DASHEDX2
 70
0
  3
Dashed (2x) ____  ____  ____  ____  ____  ____
 72
65
 73
2
 40
1.2
 49
1.0
 49
-0.2
  0
LTYPE
  2
DASHED2
 70
0
  3
Dashed (.5x) _ _ _ _ _ _ _ _ _ _ _ _ _ _
 72
65
 73
2
 40
0.3
 49
0.25
 49
-0.05
  0
LTYPE
  2
PHANTOM
 70
0
  3
Phantom ______  __  __  ______  __  __  ______
 72
65
 73
6
 40
2.5
 49
1.25
 49
-0.25
 49
0.25
 49
-0.25
 49
0.25
 49
-0.25
  0
LTYPE
  2
PHANTOMX2
 70
0
  3
Phantom (2x)____________    ____    ____    ____________
 72
65
 73
6
 40
4.25
 49
2.5
 49
-0.25
 49
0.5
 49
-0.25
 49
0.5
 49
-0.25
  0
LTYPE
  2
PHANTOM2
 70
0
  3
Phantom (.5x) ___ _ _ ___ _ _ ___ _ _ ___ _ _ ___
 72
65
 73
6
 40
1.25
 49
0.625
 49
-0.125
 49
0.125
 49
-0.125
 49
0.125
 49
-0.125
  0
LTYPE
  2
DASHDOT
 70
0
  3
Dash dot __ . __ . __ . __ . __ . __ . __ . __
 72
65
 73
4
 40
1.4
 49
1.0
 49
-0.2
 49
0.0
 49
-0.2
  0
LTYPE
  2
DASHDOTX2
 70
0
  3
Dash dot (2x) ____  .  ____  .  ____  .  ____
 72
65
 73
4
 40
2.4
 49
2.0
 49
-0.2
 49
0.0
 49
-0.2
  0
LTYPE
  2
DASHDOT2
 70
0
  3
Dash dot (.5x) _ . _ . _ . _ . _ . _ . _ . _
 72
65
 73
4
 40
0.7
 49
0.5
 49
-0.1
 49
0.0
 49
-0.1
  0
LTYPE
  2
DOT
 70
0
  3
Dot .  .  .  .  .  .  .  .  .  .  .  .  .  .  .  .
 72
65
 73
2
 40
0.2
 49
0.0
 49
-0.2
  0
LTYPE
  2
DOTX2
 70
0
  3
Dot (2x) .    .    .    .    .    .    .    . 
 72
65
 73
2
 40
0.4
 49
0.0
 49
-0.4
  0
LTYPE
  2
DOT2
 70
0
  3
Dot (.5) . . . . . . . . . . . . . . . . . . . 
 72
65
 73
2
 40
0.1
 49
0.0
 49
-0.1
  0
LTYPE
  2
DIVIDE
 70
0
  3
Divide __ . . __ . . __ . . __ . . __ . . __
 72
65
 73
6
 40
1.6
 49
1.0
 49
-0.2
 49
0.0
 49
-0.2
 49
0.0
 49
-0.2
  0
LTYPE
  2
DIVIDEX2
 70
0
  3
Divide (2x) ____  . .  ____  . .  ____  . .  ____
 72
65
 73
6
 40
2.6
 49
2.0
 49
-0.2
 49
0.0
 49
-0.2
 49
0.0
 49
-0.2
  0
LTYPE
  2
DIVIDE2
 70
0
  3
Divide(.5x) _ . _ . _ . _ . _ . _ . _ . _
 72
65
 73
6
 40
0.8
 49
0.5
 49
-0.1
 49
0.0
 49
-0.1
 49
0.0
 49
-0.1
  0
ENDTAB
  0
TABLE
  2
LAYER
 70
6
  0
LAYER
  2
DIMENSIONS
 70
0
 62
1
  6
CONTINUOUS
  0
LAYER
  2
TABLEBACKGROUND
 70
0
 62
1
  6
CONTINUOUS
  0
LAYER
  2
TABLECONTENT
 70
0
 62
1
  6
CONTINUOUS
  0
LAYER
  2
TABLEGRID
 70
0
 62
1
  6
CONTINUOUS
  0
LAYER
  2
VIEWPORTS
 70
0
 62
7
  6
CONTINUOUS
  0
LAYER
  2
DEM_20px_m
 70
0
 62
1
  6
CONTINUOUS
  0
ENDTAB
  0
TABLE
  2
STYLE
 70
12
  0
STYLE
  2
STANDARD
 70
0
 40
0.0
 41
1.0
 42
1.0
 50
0.0
 71
0
  3
arial.ttf
  4

  0
STYLE
  2
ARIAL
 70
0
 40
0.0
 41
1.0
 42
1.0
 50
0.0
 71
0
  3
arial.ttf
  4

  0
STYLE
  2
ARIAL_BOLD
 70
0
 40
0.0
 41
1.0
 42
1.0
 50
0.0
 71
0
  3
arialbd.ttf
  4

  0
STYLE
  2
ARIAL_ITALIC
 70
0
 40
0.0
 41
1.0
 42
1.0
 50
0.0
 71
0
  3
ariali.ttf
  4

  0
STYLE
  2
ARIAL_BOLD_ITALIC
 70
0
 40
0.0
 41
1.0
 42
1.0
 50
0.0
 71
0
  3
arialbi.ttf
  4

  0
STYLE
  2
ARIAL_BLACK
 70
0
 40
0.0
 41
1.0
 42
1.0
 50
0.0
 71
0
  3
ariblk.ttf
  4

  0
STYLE
  2
ISOCPEUR
 70
0
 40
0.0
 41
1.0
 42
1.0
 50
0.0
 71
0
  3
isocpeur.ttf
  4

  0
STYLE
  2
ISOCPEUR_ITALIC
 70
0
 40
0.0
 41
1.0
 42
1.0
 50
0.0
 71
0
  3
isocpeui.ttf
  4

  0
STYLE
  2
TIMES
 70
0
 40
0.0
 41
1.0
 42
1.0
 50
0.0
 71
0
  3
times.ttf
  4

  0
STYLE
  2
TIMES_BOLD
 70
0
 40
0.0
 41
1.0
 42
1.0
 50
0.0
 71
0
  3
timesbd.ttf
  4

  0
STYLE
  2
TIMES_ITALIC
 70
0
 40
0.0
 41
1.0
 42
1.0
 50
0.0
 71
0
  3
timesi.ttf
  4

  0
STYLE
  2
TIMES_BOLD_ITALIC
 70
0
 40
0.0
 41
1.0
 42
1.0
 50
0.0
 71
0
  3
timesbi.ttf
  4

  0
ENDTAB
  0
TABLE
  2
VIEW
 70
0
  0
ENDTAB
  0
TABLE
  2
APPID
 70
1
  0
APPID
  2
DXFWRITE
 70
0
  0
ENDTAB
  0
TABLE
  2
VPORT
 70
0
  0
ENDTAB
  0
TABLE
  2
UCS
 70
0
  0
ENDTAB
  0
ENDSEC
  0
SECTION
  2
BLOCKS
  0
ENDSEC
  0
SECTION
  2
ENTITIES
  0
VIEWPORT
  8
VIEWPORTS
 67
1
 10
0.0
 20
0.0
 30
0.0
 40
1.0
 41
1.0
 68
1
 69
1
1001
ACAD
1000
MVIEW
1002
{
1070
16
1010
0.0
1020
0.0
1030
0.0
1010
0.0
1020
0.0
1030
0.0
1040
0.0
1040
1.0
1040
0.0
1040
0.0
1040
50.0
1040
0.0
1040
0.0
1070
0
1070
100
1070
1
1070
3
1070
0
1070
0
1070
0
1070
0
1040
0.0
1040
0.0
1040
0.0
1040
0.1
1040
0.1
1040
0.1
1040
0.1
1070
0
1002
{
1002
}
1002
}
  0
POLYLINE
 62
7
  8
DEM_20px_m
 66
1
 10
0.0
 20
0.0
 30
0.0
 70
8
  0
VERTEX
  8
DEM_20px_m
 10
0.0
 20
50.59103
 30
0.0
  0
VERTEX
  8
DEM_20px_m
 10
21.364260561756872
 20
50.0
 30
0.0
  0
VERTEX
  8
DEM_20px_m
 10
42.728521123513744
 20
50.0
 30
0.0
  0
VERTEX
  8
DEM_20px_m
 10
64.09278168527061
 20
47.609398
 30
0.0
  0
VERTEX
  8
DEM_20px_m
 10
85.45704224702749
 20
45.0
 30
0.0
  0
VERTEX
  8
DEM_20px_m
 10
106.82130280878437
 20
45.345916
 30
0.0
  0
VERTEX
  8
DEM_20px_m
 10
128.18556337054122
 20
48.087087
 30
0.0
  0
VERTEX
  8
DEM_20px_m
 10
149.5498239322981
 20
52.44363
 30
0.0
  0
VERTEX
  8
DEM_20px_m
 10
170.91408449405498
 20
55.0
 30
0.0
  0
VERTEX
  8
DEM_20px_m
 10
192.27834505581185
 20
54.31034
 30
0.0
  0
VERTEX
  8
DEM_20px_m
 10
213.64260561756873
 20
50.412375
 30
0.0
  0
VERTEX
  8
DEM_20px_m
 10
235.00686617932558
 20
50.0
 30
0.0
  0
VERTEX
  8
DEM_20px_m
 10
256.37112674108243
 20
48.119562
 30
0.0
  0
VERTEX
  8
DEM_20px_m
 10
277.73538730283934
 20
43.055393
 30
0.0
  0
VERTEX
  8
DEM_20px_m
 10
299.0996478645962
 20
40.0
 30
0.0
  0
VERTEX
  8
DEM_20px_m
 10
320.4639084263531
 20
42.195113
 30
0.0
  0
VERTEX
  8
DEM_20px_m
 10
341.82816898810995
 20
38.67316
 30
0.0
  0
VERTEX
  8
DEM_20px_m
 10
363.1924295498668
 20
35.0
 30
0.0
  0
VERTEX
  8
DEM_20px_m
 10
384.5566901116237
 20
35.0
 30
0.0
  0
VERTEX
  8
DEM_20px_m
 10
405.92095067338056
 20
34.017012
 30
0.0
  0
VERTEX
  8
DEM_20px_m
 10
427.28521123513747
 20
35.207261
 30
0.0
  0
VERTEX
  8
DEM_20px_m
 10
448.6494717968943
 20
30.765335
 30
0.0
  0
VERTEX
  8
DEM_20px_m
 10
470.01373235865117
 20
32.545045
 30
0.0
  0
VERTEX
  8
DEM_20px_m
 10
491.3779929204081
 20
34.665629
 30
0.0
  0
VERTEX
  8
DEM_20px_m
 10
512.7422534821649
 20
35.0
 30
0.0
  0
VERTEX
  8
DEM_20px_m
 10
534.1065140439218
 20
32.947488
 30
0.0
  0
VERTEX
  8
DEM_20px_m
 10
555.4707746056787
 20
34.271358
 30
0.0
  0
VERTEX
  8
DEM_20px_m
 10
576.8350351674355
 20
31.77081
 30
0.0
  0
VERTEX
  8
DEM_20px_m
 10
598.1992957291924
 20
28.858578
 30
0.0
  0
VERTEX
  8
DEM_20px_m
 10
619.5635562909492
 20
32.501698
 30
0.0
  0
VERTEX
  8
DEM_20px_m
 10
640.9278168527062
 20
30.598493
 30
0.0
  0
VERTEX
  8
DEM_20px_m
 10
662.292077414463
 20
29.56671
 30
0.0
  0
VERTEX
  8
DEM_20px_m
 10
683.6563379762199
 20
35.0
 30
0.0
  0
VERTEX
  8
DEM_20px_m
 10
705.0205985379768
 20
36.749153
 30
0.0
  0
VERTEX
  8
DEM_20px_m
 10
726.3848590997336
 20
41.550716
 30
0.0
  0
VERTEX
  8
DEM_20px_m
 10
747.7491196614906
 20
39.960174
 30
0.0
  0
VERTEX
  8
DEM_20px_m
 10
769.1133802232474
 20
42.645691
 30
0.0
  0
VERTEX
  8
DEM_20px_m
 10
790.4776407850043
 20
45.0
 30
0.0
  0
VERTEX
  8
DEM_20px_m
 10
811.8419013467611
 20
42.731995
 30
0.0
  0
VERTEX
  8
DEM_20px_m
 10
833.206161908518
 20
44.303695
 30
0.0
  0
VERTEX
  8
DEM_20px_m
 10
854.5704224702749
 20
41.966552
 30
0.0
  0
VERTEX
  8
DEM_20px_m
 10
875.9346830320318
 20
45.0
 30
0.0
  0
VERTEX
  8
DEM_20px_m
 10
897.2989435937886
 20
45.0
 30
0.0
  0
VERTEX
  8
DEM_20px_m
 10
918.6632041555455
 20
41.915021
 30
0.0
  0
VERTEX
  8
DEM_20px_m
 10
940.0274647173023
 20
40.335283
 30
0.0
  0
VERTEX
  8
DEM_20px_m
 10
961.3917252790592
 20
41.21821
 30
0.0
  0
VERTEX
  8
DEM_20px_m
 10
982.7559858408162
 20
39.534345
 30
0.0
  0
VERTEX
  8
DEM_20px_m
 10
1004.120246402573
 20
40.0
 30
0.0
  0
VERTEX
  8
DEM_20px_m
 10
1025.4845069643297
 20
40.0
 30
0.0
  0
VERTEX
  8
DEM_20px_m
 10
1046.8487675260867
 20
40.0
 30
0.0
  0
VERTEX
  8
DEM_20px_m
 10
1068.2130280878437
 20
40.0
 30
0.0
  0
VERTEX
  8
DEM_20px_m
 10
1089.5772886496004
 20
38.126475
 30
0.0
  0
VERTEX
  8
DEM_20px_m
 10
1110.9415492113574
 20
35.0
 30
0.0
  0
VERTEX
  8
DEM_20px_m
 10
1132.305809773114
 20
35.0
 30
0.0
  0
VERTEX
  8
DEM_20px_m
 10
1153.670070334871
 20
32.900922
 30
0.0
  0
VERTEX
  8
DEM_20px_m
 10
1175.034330896628
 20
32.339284
 30
0.0
  0
VERTEX
  8
DEM_20px_m
 10
1196.3985914583848
 20
35.0
 30
0.0
  0
VERTEX
  8
DEM_20px_m
 10
1217.7628520201417
 20
36.383143
 30
0.0
  0
VERTEX
  8
DEM_20px_m
 10
1239.1271125818985
 20
35.0
 30
0.0
  0
VERTEX
  8
DEM_20px_m
 10
1260.4913731436554
 20
35.0
 30
0.0
  0
VERTEX
  8
DEM_20px_m
 10
1281.8556337054124
 20
35.0
 30
0.0
  0
VERTEX
  8
DEM_20px_m
 10
1303.2198942671691
 20
35.0
 30
0.0
  0
VERTEX
  8
DEM_20px_m
 10
1324.584154828926
 20
35.0
 30
0.0
  0
VERTEX
  8
DEM_20px_m
 10
1345.9484153906828
 20
35.0
 30
0.0
  0
VERTEX
  8
DEM_20px_m
 10
1367.3126759524398
 20
35.0
 30
0.0
  0
VERTEX
  8
DEM_20px_m
 10
1387.676310592264
 20
35.0
 30
0.0
  0
VERTEX
  8
DEM_20px_m
 10
1408.039945232088
 20
34.359686
 30
0.0
  0
VERTEX
  8
DEM_20px_m
 10
1428.403579871912
 20
31.803848
 30
0.0
  0
VERTEX
  8
DEM_20px_m
 10
1448.767214511736
 20
30.0
 30
0.0
  0
VERTEX
  8
DEM_20px_m
 10
1469.1308491515601
 20
30.0
 30
0.0
  0
VERTEX
  8
DEM_20px_m
 10
1489.4944837913843
 20
30.0
 30
0.0
  0
VERTEX
  8
DEM_20px_m
 10
1509.8581184312084
 20
30.0
 30
0.0
  0
VERTEX
  8
DEM_20px_m
 10
1530.2217530710323
 20
30.0
 30
0.0
  0
VERTEX
  8
DEM_20px_m
 10
1550.5853877108564
 20
31.631878
 30
0.0
  0
VERTEX
  8
DEM_20px_m
 10
1570.9490223506805
 20
31.825701
 30
0.0
  0
VERTEX
  8
DEM_20px_m
 10
1591.3126569905046
 20
30.0
 30
0.0
  0
VERTEX
  8
DEM_20px_m
 10
1611.6762916303285
 20
31.203515
 30
0.0
  0
VERTEX
  8
DEM_20px_m
 10
1632.0399262701526
 20
34.550615
 30
0.0
  0
VERTEX
  8
DEM_20px_m
 10
1652.4035609099767
 20
35.0
 30
0.0
  0
VERTEX
  8
DEM_20px_m
 10
1672.7671955498008
 20
35.0
 30
0.0
  0
VERTEX
  8
DEM_20px_m
 10
1693.1308301896247
 20
35.0
 30
0.0
  0
VERTEX
  8
DEM_20px_m
 10
1713.4944648294488
 20
35.0
 30
0.0
  0
VERTEX
  8
DEM_20px_m
 10
1733.858099469273
 20
35.0
 30
0.0
  0
VERTEX
  8
DEM_20px_m
 10
1754.221734109097
 20
33.342336
 30
0.0
  0
VERTEX
  8
DEM_20px_m
 10
1774.5853687489212
 20
35.287258
 30
0.0
  0
VERTEX
  8
DEM_20px_m
 10
1794.949003388745
 20
36.404415
 30
0.0
  0
VERTEX
  8
DEM_20px_m
 10
1815.3126380285692
 20
35.0
 30
0.0
  0
VERTEX
  8
DEM_20px_m
 10
1835.6762726683933
 20
35.0
 30
0.0
  0
VERTEX
  8
DEM_20px_m
 10
1856.0399073082174
 20
35.0
 30
0.0
  0
VERTEX
  8
DEM_20px_m
 10
1876.4035419480415
 20
34.972479
 30
0.0
  0
VERTEX
  8
DEM_20px_m
 10
1896.7671765878654
 20
33.946713
 30
0.0
  0
VERTEX
  8
DEM_20px_m
 10
1917.1308112276895
 20
32.952417
 30
0.0
  0
VERTEX
  8
DEM_20px_m
 10
1937.4944458675136
 20
31.958121
 30
0.0
  0
VERTEX
  8
DEM_20px_m
 10
1957.8580805073375
 20
30.963587
 30
0.0
  0
VERTEX
  8
DEM_20px_m
 10
1978.2217151471618
 20
30.0
 30
0.0
  0
VERTEX
  8
DEM_20px_m
 10
1998.5853497869857
 20
30.0
 30
0.0
  0
VERTEX
  8
DEM_20px_m
 10
2018.9489844268098
 20
25.760637
 30
0.0
  0
VERTEX
  8
DEM_20px_m
 10
2039.312619066634
 20
22.552689
 30
0.0
  0
VERTEX
  8
DEM_20px_m
 10
2059.676253706458
 20
18.119442
 30
0.0
  0
VERTEX
  8
DEM_20px_m
 10
2080.039888346282
 20
15.0
 30
0.0
  0
VERTEX
  8
DEM_20px_m
 10
2100.403522986106
 20
14.545138
 30
0.0
  0
VERTEX
  8
DEM_20px_m
 10
2120.76715762593
 20
12.629033
 30
0.0
  0
VERTEX
  8
DEM_20px_m
 10
2141.1307922657543
 20
11.116949
 30
0.0
  0
VERTEX
  8
DEM_20px_m
 10
2161.494426905578
 20
10.0
 30
0.0
  0
VERTEX
  8
DEM_20px_m
 10
2181.858061545402
 20
9.5595514
 30
0.0
  0
VERTEX
  8
DEM_20px_m
 10
2202.2216961852264
 20
8.9418765
 30
0.0
  0
VERTEX
  8
DEM_20px_m
 10
2222.5853308250507
 20
7.5661532
 30
0.0
  0
VERTEX
  8
DEM_20px_m
 10
2242.9489654648746
 20
6.0357459
 30
0.0
  0
VERTEX
  8
DEM_20px_m
 10
2263.3126001046985
 20
5.0
 30
0.0
  0
VERTEX
  8
DEM_20px_m
 10
2283.676234744523
 20
5.0
 30
0.0
  0
VERTEX
  8
DEM_20px_m
 10
2304.0398693843467
 20
5.0
 30
0.0
  0
VERTEX
  8
DEM_20px_m
 10
2324.4035040241706
 20
5.0
 30
0.0
  0
VERTEX
  8
DEM_20px_m
 10
2344.767138663995
 20
5.0
 30
0.0
  0
VERTEX
  8
DEM_20px_m
 10
2365.130773303819
 20
5.0
 30
0.0
  0
VERTEX
  8
DEM_20px_m
 10
2385.4944079436427
 20
5.0
 30
0.0
  0
VERTEX
  8
DEM_20px_m
 10
2405.858042583467
 20
5.0
 30
0.0
  0
VERTEX
  8
DEM_20px_m
 10
2426.2216772232914
 20
5.0
 30
0.0
  0
VERTEX
  8
DEM_20px_m
 10
2446.585311863115
 20
5.0
 30
0.0
  0
VERTEX
  8
DEM_20px_m
 10
2466.948946502939
 20
5.0
 30
0.0
  0
VERTEX
  8
DEM_20px_m
 10
2487.3125811427635
 20
5.0
 30
0.0
  0
VERTEX
  8
DEM_20px_m
 10
2507.6762157825874
 20
5.0
 30
0.0
  0
VERTEX
  8
DEM_20px_m
 10
2528.0398504224113
 20
4.9327198
 30
0.0
  0
VERTEX
  8
DEM_20px_m
 10
2548.4034850622356
 20
4.6321901
 30
0.0
  0
VERTEX
  8
DEM_20px_m
 10
2568.7671197020595
 20
4.1428583
 30
0.0
  0
VERTEX
  8
DEM_20px_m
 10
2589.1307543418834
 20
3.6481795
 30
0.0
  0
VERTEX
  8
DEM_20px_m
 10
2609.4943889817077
 20
3.1292767
 30
0.0
  0
VERTEX
  8
DEM_20px_m
 10
2629.8580236215316
 20
2.6182038
 30
0.0
  0
VERTEX
  8
DEM_20px_m
 10
2650.2216582613555
 20
2.1071309
 30
0.0
  0
VERTEX
  8
DEM_20px_m
 10
2670.58529290118
 20
1.6682143
 30
0.0
  0
VERTEX
  8
DEM_20px_m
 10
2690.948927541004
 20
1.1571414
 30
0.0
  0
VERTEX
  8
DEM_20px_m
 10
2711.312562180828
 20
0.65800287
 30
0.0
  0
VERTEX
  8
DEM_20px_m
 10
2731.676196820652
 20
0.16080356
 30
0.0
  0
VERTEX
  8
DEM_20px_m
 10
2752.0398314604763
 20
-0.33470807
 30
0.0
  0
VERTEX
  8
DEM_20px_m
 10
2772.4034661003
 20
-0.65382555
 30
0.0
  0
VERTEX
  8
DEM_20px_m
 10
2792.767100740124
 20
-1.1429082
 30
0.0
  0
VERTEX
  8
DEM_20px_m
 10
2813.1307353799484
 20
-1.6319909
 30
0.0
  0
VERTEX
  8
DEM_20px_m
 10
2833.4943700197723
 20
-2.1210736
 30
0.0
  0
VERTEX
  8
DEM_20px_m
 10
2853.858004659596
 20
-2.6101563
 30
0.0
  0
VERTEX
  8
DEM_20px_m
 10
2874.2216392994205
 20
-3.099239
 30
0.0
  0
VERTEX
  8
DEM_20px_m
 10
2894.585273939245
 20
-3.4183565
 30
0.0
  0
VERTEX
  8
DEM_20px_m
 10
2914.9489085790683
 20
-3.9074392
 30
0.0
  0
VERTEX
  8
DEM_20px_m
 10
2935.3125432188926
 20
-4.3965219
 30
0.0
  0
VERTEX
  8
DEM_20px_m
 10
2955.676177858717
 20
-4.8856045
 30
0.0
  0
VERTEX
  8
DEM_20px_m
 10
2976.039812498541
 20
-5.0
 30
0.0
  0
VERTEX
  8
DEM_20px_m
 10
2996.4034471383648
 20
-5.0
 30
0.0
  0
VERTEX
  8
DEM_20px_m
 10
3016.767081778189
 20
-5.0
 30
0.0
  0
VERTEX
  8
DEM_20px_m
 10
3037.130716418013
 20
-5.0
 30
0.0
  0
VERTEX
  8
DEM_20px_m
 10
3057.494351057837
 20
-5.0
 30
0.0
  0
VERTEX
  8
DEM_20px_m
 10
3077.857985697661
 20
-5.0
 30
0.0
  0
VERTEX
  8
DEM_20px_m
 10
3098.221620337485
 20
-5.0
 30
0.0
  0
VERTEX
  8
DEM_20px_m
 10
3118.585254977309
 20
-5.0
 30
0.0
  0
VERTEX
  8
DEM_20px_m
 10
3138.9488896171333
 20
-5.0
 30
0.0
  0
VERTEX
  8
DEM_20px_m
 10
3159.3125242569577
 20
-5.0
 30
0.0
  0
VERTEX
  8
DEM_20px_m
 10
3179.6761588967815
 20
-5.0
 30
0.0
  0
VERTEX
  8
DEM_20px_m
 10
3200.0397935366054
 20
-5.1701784
 30
0.0
  0
VERTEX
  8
DEM_20px_m
 10
3220.4034281764298
 20
-5.3574108
 30
0.0
  0
VERTEX
  8
DEM_20px_m
 10
3240.7670628162537
 20
-5.5198045
 30
0.0
  0
VERTEX
  8
DEM_20px_m
 10
3261.1306974560775
 20
-5.7070368
 30
0.0
  0
VERTEX
  8
DEM_20px_m
 10
3281.494332095902
 20
-5.8942823
 30
0.0
  0
VERTEX
  8
DEM_20px_m
 10
3301.8579667357258
 20
-6.0842961
 30
0.0
  0
VERTEX
  8
DEM_20px_m
 10
3322.2216013755497
 20
-6.273957
 30
0.0
  0
VERTEX
  8
DEM_20px_m
 10
3342.585236015374
 20
-6.8209251
 30
0.0
  0
VERTEX
  8
DEM_20px_m
 10
3362.9488706551983
 20
-7.1104647
 30
0.0
  0
VERTEX
  8
DEM_20px_m
 10
3383.3125052950218
 20
-7.4000042
 30
0.0
  0
VERTEX
  8
DEM_20px_m
 10
3403.676139934846
 20
-7.6895438
 30
0.0
  0
VERTEX
  8
DEM_20px_m
 10
3424.03977457467
 20
-7.9790833
 30
0.0
  0
VERTEX
  8
DEM_20px_m
 10
3444.4034092144943
 20
-8.2686228
 30
0.0
  0
VERTEX
  8
DEM_20px_m
 10
3464.767043854318
 20
-8.8466522
 30
0.0
  0
VERTEX
  8
DEM_20px_m
 10
3485.1306784941426
 20
-9.1361917
 30
0.0
  0
VERTEX
  8
DEM_20px_m
 10
3505.4943131339664
 20
-9.4257313
 30
0.0
  0
VERTEX
  8
DEM_20px_m
 10
3525.8579477737903
 20
-9.7152708
 30
0.0
  0
VERTEX
  8
DEM_20px_m
 10
3546.2215824136147
 20
-10.0
 30
0.0
  0
VERTEX
  8
DEM_20px_m
 10
3566.5852170534386
 20
-10.0
 30
0.0
  0
VERTEX
  8
DEM_20px_m
 10
3586.948851693263
 20
-10.0
 30
0.0
  0
VERTEX
  8
DEM_20px_m
 10
3607.312486333087
 20
-10.0
 30
0.0
  0
VERTEX
  8
DEM_20px_m
 10
3627.6761209729107
 20
-10.0
 30
0.0
  0
VERTEX
  8
DEM_20px_m
 10
3648.039755612735
 20
-10.0
 30
0.0
  0
VERTEX
  8
DEM_20px_m
 10
3668.403390252559
 20
-10.0
 30
0.0
  0
VERTEX
  8
DEM_20px_m
 10
3688.7670248923832
 20
-10.0
 30
0.0
  0
VERTEX
  8
DEM_20px_m
 10
3709.130659532207
 20
-10.0
 30
0.0
  0
VERTEX
  8
DEM_20px_m
 10
3729.494294172031
 20
-10.0
 30
0.0
  0
VERTEX
  8
DEM_20px_m
 10
3749.8579288118553
 20
-10.0
 30
0.0
  0
VERTEX
  8
DEM_20px_m
 10
3770.2215634516792
 20
-10.0
 30
0.0
  0
VERTEX
  8
DEM_20px_m
 10
3790.585198091503
 20
-10.0
 30
0.0
  0
VERTEX
  8
DEM_20px_m
 10
3810.9488327313275
 20
-10.0
 30
0.0
  0
VERTEX
  8
DEM_20px_m
 10
3831.3124673711513
 20
-10.0
 30
0.0
  0
VERTEX
  8
DEM_20px_m
 10
3851.6761020109757
 20
-10.0
 30
0.0
  0
VERTEX
  8
DEM_20px_m
 10
3872.0397366507996
 20
-10.0
 30
0.0
  0
VERTEX
  8
DEM_20px_m
 10
3892.4033712906235
 20
-10.0
 30
0.0
  0
VERTEX
  8
DEM_20px_m
 10
3912.767005930448
 20
-10.0
 30
0.0
  0
VERTEX
  8
DEM_20px_m
 10
3933.1306405702717
 20
-10.0
 30
0.0
  0
VERTEX
  8
DEM_20px_m
 10
3953.494275210096
 20
-10.0
 30
0.0
  0
VERTEX
  8
DEM_20px_m
 10
3973.85790984992
 20
-10.0
 30
0.0
  0
VERTEX
  8
DEM_20px_m
 10
3994.221544489744
 20
-10.137329
 30
0.0
  0
VERTEX
  8
DEM_20px_m
 10
4014.585179129568
 20
-10.283898
 30
0.0
  0
VERTEX
  8
DEM_20px_m
 10
4034.948813769392
 20
-10.330991
 30
0.0
  0
VERTEX
  8
DEM_20px_m
 10
4055.3124484092164
 20
-10.479099
 30
0.0
  0
VERTEX
  8
DEM_20px_m
 10
4075.6760830490402
 20
-10.644229
 30
0.0
  0
VERTEX
  8
DEM_20px_m
 10
4096.039717688864
 20
-10.804001
 30
0.0
  0
VERTEX
  8
DEM_20px_m
 10
4116.403352328689
 20
-10.967877
 30
0.0
  0
VERTEX
  8
DEM_20px_m
 10
4136.766986968512
 20
-11.128573
 30
0.0
  0
VERTEX
  8
DEM_20px_m
 10
4157.130621608337
 20
-11.234125
 30
0.0
  0
VERTEX
  8
DEM_20px_m
 10
4177.494256248161
 20
-11.396157
 30
0.0
  0
VERTEX
  8
DEM_20px_m
 10
4197.8578908879845
 20
-11.558188
 30
0.0
  0
VERTEX
  8
DEM_20px_m
 10
4218.221525527809
 20
-11.721038
 30
0.0
  0
VERTEX
  8
DEM_20px_m
 10
4238.585160167633
 20
-11.885164
 30
0.0
  0
VERTEX
  8
DEM_20px_m
 10
4258.948794807457
 20
-12.001389
 30
0.0
  0
VERTEX
  8
DEM_20px_m
 10
4279.312429447281
 20
-12.122954
 30
0.0
  0
VERTEX
  8
DEM_20px_m
 10
4299.676064087105
 20
-12.244518
 30
0.0
  0
VERTEX
  8
DEM_20px_m
 10
4320.039698726929
 20
-12.366083
 30
0.0
  0
VERTEX
  8
DEM_20px_m
 10
4340.403333366753
 20
-12.487648
 30
0.0
  0
VERTEX
  8
DEM_20px_m
 10
4360.766968006577
 20
-12.613514
 30
0.0
  0
VERTEX
  8
DEM_20px_m
 10
4381.130602646401
 20
-12.712505
 30
0.0
  0
VERTEX
  8
DEM_20px_m
 10
4401.494237286225
 20
-12.841588
 30
0.0
  0
VERTEX
  8
DEM_20px_m
 10
4421.8578719260495
 20
-12.97067
 30
0.0
  0
VERTEX
  8
DEM_20px_m
 10
4442.221506565873
 20
-13.097562
 30
0.0
  0
VERTEX
  8
DEM_20px_m
 10
4462.585141205697
 20
-13.223071
 30
0.0
  0
VERTEX
  8
DEM_20px_m
 10
4482.948775845522
 20
-13.318265
 30
0.0
  0
VERTEX
  8
DEM_20px_m
 10
4503.312410485345
 20
-13.449881
 30
0.0
  0
VERTEX
  8
DEM_20px_m
 10
4523.67604512517
 20
-13.577323
 30
0.0
  0
VERTEX
  8
DEM_20px_m
 10
4544.039679764994
 20
-13.708242
 30
0.0
  0
VERTEX
  8
DEM_20px_m
 10
4564.403314404817
 20
-13.840733
 30
0.0
  0
VERTEX
  8
DEM_20px_m
 10
4584.766949044642
 20
-13.973223
 30
0.0
  0
VERTEX
  8
DEM_20px_m
 10
4605.130583684466
 20
-14.088227
 30
0.0
  0
VERTEX
  8
DEM_20px_m
 10
4625.494218324289
 20
-14.232395
 30
0.0
  0
VERTEX
  8
DEM_20px_m
 10
4645.8578529641145
 20
-14.377545
 30
0.0
  0
VERTEX
  8
DEM_20px_m
 10
4666.221487603938
 20
-14.523841
 30
0.0
  0
VERTEX
  8
DEM_20px_m
 10
4686.585122243762
 20
-14.669163
 30
0.0
  0
VERTEX
  8
DEM_20px_m
 10
4706.948756883587
 20
-14.813776
 30
0.0
  0
VERTEX
  8
DEM_20px_m
 10
4727.31239152341
 20
-14.938193
 30
0.0
  0
VERTEX
  8
DEM_20px_m
 10
4747.676026163234
 20
-15.084604
 30
0.0
  0
VERTEX
  8
DEM_20px_m
 10
4768.039660803059
 20
-15.231015
 30
0.0
  0
VERTEX
  8
DEM_20px_m
 10
4788.403295442882
 20
-15.377846
 30
0.0
  0
VERTEX
  8
DEM_20px_m
 10
4808.7669300827065
 20
-15.529803
 30
0.0
  0
VERTEX
  8
DEM_20px_m
 10
4829.130564722531
 20
-15.662994
 30
0.0
  0
VERTEX
  8
DEM_20px_m
 10
4849.494199362354
 20
-15.818459
 30
0.0
  0
VERTEX
  8
DEM_20px_m
 10
4869.857834002179
 20
-15.977779
 30
0.0
  0
VERTEX
  8
DEM_20px_m
 10
4890.221468642003
 20
-16.135895
 30
0.0
  0
VERTEX
  8
DEM_20px_m
 10
4910.585103281826
 20
-16.293815
 30
0.0
  0
VERTEX
  8
DEM_20px_m
 10
4930.948737921651
 20
-16.451736
 30
0.0
  0
VERTEX
  8
DEM_20px_m
 10
4951.312372561475
 20
-16.595499
 30
0.0
  0
VERTEX
  8
DEM_20px_m
 10
4971.6760072012985
 20
-16.747038
 30
0.0
  0
VERTEX
  8
DEM_20px_m
 10
4992.039641841124
 20
-16.892878
 30
0.0
  0
VERTEX
  8
DEM_20px_m
 10
5012.403276480947
 20
-17.038717
 30
0.0
  0
VERTEX
  8
DEM_20px_m
 10
5032.766911120771
 20
-17.191032
 30
0.0
  0
VERTEX
  8
DEM_20px_m
 10
5053.130545760596
 20
-17.299795
 30
0.0
  0
VERTEX
  8
DEM_20px_m
 10
5073.494180400419
 20
-17.447573
 30
0.0
  0
VERTEX
  8
DEM_20px_m
 10
5093.857815040243
 20
-17.589942
 30
0.0
  0
VERTEX
  8
DEM_20px_m
 10
5114.221449680068
 20
-17.73231
 30
0.0
  0
VERTEX
  8
DEM_20px_m
 10
5134.585084319891
 20
-17.874679
 30
0.0
  0
VERTEX
  8
DEM_20px_m
 10
5154.948718959716
 20
-18.0
 30
0.0
  0
VERTEX
  8
DEM_20px_m
 10
5175.31235359954
 20
-18.056429
 30
0.0
  0
VERTEX
  8
DEM_20px_m
 10
5195.6759882393635
 20
-18.168426
 30
0.0
  0
VERTEX
  8
DEM_20px_m
 10
5216.039622879188
 20
-18.278723
 30
0.0
  0
VERTEX
  8
DEM_20px_m
 10
5236.403257519012
 20
-18.387754
 30
0.0
  0
VERTEX
  8
DEM_20px_m
 10
5256.766892158836
 20
-18.496785
 30
0.0
  0
VERTEX
  8
DEM_20px_m
 10
5277.13052679866
 20
-18.605816
 30
0.0
  0
VERTEX
  8
DEM_20px_m
 10
5297.494161438484
 20
-18.716424
 30
0.0
  0
VERTEX
  8
DEM_20px_m
 10
5317.857796078308
 20
-18.824709
 30
0.0
  0
VERTEX
  8
DEM_20px_m
 10
5338.221430718132
 20
-18.932601
 30
0.0
  0
VERTEX
  8
DEM_20px_m
 10
5358.585065357956
 20
-19.040493
 30
0.0
  0
VERTEX
  8
DEM_20px_m
 10
5378.94869999778
 20
-19.150237
 30
0.0
  0
VERTEX
  8
DEM_20px_m
 10
5399.312334637604
 20
-19.249526
 30
0.0
  0
VERTEX
  8
DEM_20px_m
 10
5419.6759692774285
 20
-19.344753
 30
0.0
  0
VERTEX
  8
DEM_20px_m
 10
5440.039603917252
 20
-19.43998
 30
0.0
  0
VERTEX
  8
DEM_20px_m
 10
5460.403238557077
 20
-19.535207
 30
0.0
  0
VERTEX
  8
DEM_20px_m
 10
5480.766873196901
 20
-19.630434
 30
0.0
  0
VERTEX
  8
DEM_20px_m
 10
5501.130507836724
 20
-19.725661
 30
0.0
  0
VERTEX
  8
DEM_20px_m
 10
5521.494142476549
 20
-19.746487
 30
0.0
  0
VERTEX
  8
DEM_20px_m
 10
5541.857777116373
 20
-19.797654
 30
0.0
  0
VERTEX
  8
DEM_20px_m
 10
5562.221411756196
 20
-19.873179
 30
0.0
  0
VERTEX
  8
DEM_20px_m
 10
5582.585046396021
 20
-19.96135
 30
0.0
  0
VERTEX
  8
DEM_20px_m
 10
5602.948681035845
 20
-20.035922
 30
0.0
  0
VERTEX
  8
DEM_20px_m
 10
5602.948681035845
 20
-20.035922
 30
0.0
  0
VERTEX
  8
DEM_20px_m
 10
5623.299863669434
 20
-20.106771
 30
0.0
  0
VERTEX
  8
DEM_20px_m
 10
5643.651046303022
 20
-20.101288
 30
0.0
  0
VERTEX
  8
DEM_20px_m
 10
5664.002228936611
 20
-20.169327
 30
0.0
  0
VERTEX
  8
DEM_20px_m
 10
5684.353411570199
 20
-20.286629
 30
0.0
  0
VERTEX
  8
DEM_20px_m
 10
5704.704594203788
 20
-20.331352
 30
0.0
  0
VERTEX
  8
DEM_20px_m
 10
5725.0557768373765
 20
-20.376075
 30
0.0
  0
VERTEX
  8
DEM_20px_m
 10
5745.4069594709645
 20
-20.420799
 30
0.0
  0
VERTEX
  8
DEM_20px_m
 10
5765.758142104553
 20
-20.465522
 30
0.0
  0
VERTEX
  8
DEM_20px_m
 10
5786.109324738141
 20
-20.378624
 30
0.0
  0
VERTEX
  8
DEM_20px_m
 10
5806.46050737173
 20
-20.508533
 30
0.0
  0
VERTEX
  8
DEM_20px_m
 10
5826.811690005319
 20
-20.619318
 30
0.0
  0
VERTEX
  8
DEM_20px_m
 10
5847.162872638907
 20
-20.747809
 30
0.0
  0
VERTEX
  8
DEM_20px_m
 10
5867.514055272496
 20
-20.856633
 30
0.0
  0
VERTEX
  8
DEM_20px_m
 10
5887.865237906084
 20
-20.969099
 30
0.0
  0
VERTEX
  8
DEM_20px_m
 10
5908.216420539673
 20
-21.100506
 30
0.0
  0
VERTEX
  8
DEM_20px_m
 10
5928.567603173262
 20
-21.130215
 30
0.0
  0
VERTEX
  8
DEM_20px_m
 10
5948.91878580685
 20
-21.259463
 30
0.0
  0
VERTEX
  8
DEM_20px_m
 10
5969.269968440444
 20
-21.389667
 30
0.0
  0
VERTEX
  8
DEM_20px_m
 10
5989.621151074038
 20
-21.5207
 30
0.0
  0
VERTEX
  8
DEM_20px_m
 10
6009.972333707632
 20
-21.651733
 30
0.0
  0
VERTEX
  8
DEM_20px_m
 10
6030.3235163412255
 20
-21.782765
 30
0.0
  0
VERTEX
  8
DEM_20px_m
 10
6050.67469897482
 20
-21.913627
 30
0.0
  0
VERTEX
  8
DEM_20px_m
 10
6071.025881608413
 20
-22.02139
 30
0.0
  0
VERTEX
  8
DEM_20px_m
 10
6091.377064242008
 20
-22.084311
 30
0.0
  0
VERTEX
  8
DEM_20px_m
 10
6111.728246875601
 20
-22.147232
 30
0.0
  0
VERTEX
  8
DEM_20px_m
 10
6132.0794295091955
 20
-22.210154
 30
0.0
  0
VERTEX
  8
DEM_20px_m
 10
6152.430612142789
 20
-22.241502
 30
0.0
  0
VERTEX
  8
DEM_20px_m
 10
6172.781794776383
 20
-22.305338
 30
0.0
  0
VERTEX
  8
DEM_20px_m
 10
6193.132977409978
 20
-22.369175
 30
0.0
  0
VERTEX
  8
DEM_20px_m
 10
6213.484160043571
 20
-22.433012
 30
0.0
  0
VERTEX
  8
DEM_20px_m
 10
6233.8353426771655
 20
-22.496995
 30
0.0
  0
VERTEX
  8
DEM_20px_m
 10
6254.186525310759
 20
-22.561042
 30
0.0
  0
VERTEX
  8
DEM_20px_m
 10
6274.537707944353
 20
-22.62509
 30
0.0
  0
VERTEX
  8
DEM_20px_m
 10
6294.888890577947
 20
-22.690409
 30
0.0
  0
VERTEX
  8
DEM_20px_m
 10
6315.240073211537
 20
-22.755784
 30
0.0
  0
VERTEX
  8
DEM_20px_m
 10
6335.591255845126
 20
-22.815038
 30
0.0
  0
VERTEX
  8
DEM_20px_m
 10
6355.942438478716
 20
-22.873428
 30
0.0
  0
VERTEX
  8
DEM_20px_m
 10
6376.293621112306
 20
-22.931819
 30
0.0
  0
VERTEX
  8
DEM_20px_m
 10
6396.644803745896
 20
-22.990209
 30
0.0
  0
VERTEX
  8
DEM_20px_m
 10
6416.995986379487
 20
-23.048599
 30
0.0
  0
VERTEX
  8
DEM_20px_m
 10
6437.347169013076
 20
-23.10699
 30
0.0
  0
VERTEX
  8
DEM_20px_m
 10
6457.698351646666
 20
-23.16538
 30
0.0
  0
VERTEX
  8
DEM_20px_m
 10
6478.049534280256
 20
-23.223771
 30
0.0
  0
VERTEX
  8
DEM_20px_m
 10
6498.400716913846
 20
-23.282161
 30
0.0
  0
VERTEX
  8
DEM_20px_m
 10
6518.751899547436
 20
-23.340552
 30
0.0
  0
VERTEX
  8
DEM_20px_m
 10
6539.1030821810255
 20
-23.396389
 30
0.0
  0
VERTEX
  8
DEM_20px_m
 10
6559.454264814615
 20
-23.460151
 30
0.0
  0
VERTEX
  8
DEM_20px_m
 10
6579.805447448205
 20
-23.53127
 30
0.0
  0
VERTEX
  8
DEM_20px_m
 10
6600.156630081796
 20
-23.602388
 30
0.0
  0
VERTEX
  8
DEM_20px_m
 10
6620.507812715386
 20
-23.673507
 30
0.0
  0
VERTEX
  8
DEM_20px_m
 10
6640.858995348975
 20
-23.744625
 30
0.0
  0
VERTEX
  8
DEM_20px_m
 10
6661.210177982568
 20
-23.815744
 30
0.0
  0
VERTEX
  8
DEM_20px_m
 10
6681.56136061616
 20
-23.886862
 30
0.0
  0
VERTEX
  8
DEM_20px_m
 10
6701.912543249752
 20
-23.957981
 30
0.0
  0
VERTEX
  8
DEM_20px_m
 10
6722.263725883345
 20
-24.0
 30
0.0
  0
VERTEX
  8
DEM_20px_m
 10
6742.614908516937
 20
-24.0
 30
0.0
  0
VERTEX
  8
DEM_20px_m
 10
6762.966091150529
 20
-24.0
 30
0.0
  0
VERTEX
  8
DEM_20px_m
 10
6783.317273784121
 20
-24.0
 30
0.0
  0
VERTEX
  8
DEM_20px_m
 10
6803.668456417714
 20
-24.0
 30
0.0
  0
VERTEX
  8
DEM_20px_m
 10
6824.019639051306
 20
-24.0
 30
0.0
  0
VERTEX
  8
DEM_20px_m
 10
6844.370821684898
 20
-24.0
 30
0.0
  0
VERTEX
  8
DEM_20px_m
 10
6864.722004318491
 20
-24.0
 30
0.0
  0
VERTEX
  8
DEM_20px_m
 10
6885.073186952082
 20
-24.0
 30
0.0
  0
VERTEX
  8
DEM_20px_m
 10
6905.424369585675
 20
-24.0
 30
0.0
  0
VERTEX
  8
DEM_20px_m
 10
6925.775552219267
 20
-24.044976
 30
0.0
  0
VERTEX
  8
DEM_20px_m
 10
6946.12673485286
 20
-24.111711
 30
0.0
  0
VERTEX
  8
DEM_20px_m
 10
6966.477917486452
 20
-24.178446
 30
0.0
  0
VERTEX
  8
DEM_20px_m
 10
6986.829100120044
 20
-24.245181
 30
0.0
  0
VERTEX
  8
DEM_20px_m
 10
7007.180282753639
 20
-24.311667
 30
0.0
  0
VERTEX
  8
DEM_20px_m
 10
7027.531465387234
 20
-24.377457
 30
0.0
  0
VERTEX
  8
DEM_20px_m
 10
7047.882648020829
 20
-24.442544
 30
0.0
  0
VERTEX
  8
DEM_20px_m
 10
7068.233830654424
 20
-24.513094
 30
0.0
  0
VERTEX
  8
DEM_20px_m
 10
7088.58501328802
 20
-24.579829
 30
0.0
  0
VERTEX
  8
DEM_20px_m
 10
7108.936195921614
 20
-24.646328
 30
0.0
  0
VERTEX
  8
DEM_20px_m
 10
7129.287378555209
 20
-24.712501
 30
0.0
  0
VERTEX
  8
DEM_20px_m
 10
7149.6385611888045
 20
-24.778641
 30
0.0
  0
VERTEX
  8
DEM_20px_m
 10
7169.9897438224
 20
-24.843728
 30
0.0
  0
VERTEX
  8
DEM_20px_m
 10
7190.340926455994
 20
-24.908816
 30
0.0
  0
VERTEX
  8
DEM_20px_m
 10
7210.692109089589
 20
-25.047162
 30
0.0
  0
VERTEX
  8
DEM_20px_m
 10
7231.043291723185
 20
-25.113334
 30
0.0
  0
VERTEX
  8
DEM_20px_m
 10
7251.39447435678
 20
-25.179507
 30
0.0
  0
VERTEX
  8
DEM_20px_m
 10
7271.745656990374
 20
-25.244912
 30
0.0
  0
VERTEX
  8
DEM_20px_m
 10
7292.09683962397
 20
-25.31
 30
0.0
  0
VERTEX
  8
DEM_20px_m
 10
7312.448022257565
 20
-25.375088
 30
0.0
  0
VERTEX
  8
DEM_20px_m
 10
7332.79920489116
 20
-25.440175
 30
0.0
  0
VERTEX
  8
DEM_20px_m
 10
7354.422336439357
 20
-25.514168
 30
0.0
  0
VERTEX
  8
DEM_20px_m
 10
7376.045467987555
 20
-25.580341
 30
0.0
  0
VERTEX
  8
DEM_20px_m
 10
7397.668599535751
 20
-25.646096
 30
0.0
  0
VERTEX
  8
DEM_20px_m
 10
7419.291731083948
 20
-25.711184
 30
0.0
  0
VERTEX
  8
DEM_20px_m
 10
7440.914862632146
 20
-25.782656
 30
0.0
  0
VERTEX
  8
DEM_20px_m
 10
7462.537994180343
 20
-25.848829
 30
0.0
  0
VERTEX
  8
DEM_20px_m
 10
7484.16112572854
 20
-25.915002
 30
0.0
  0
VERTEX
  8
DEM_20px_m
 10
7505.784257276737
 20
-25.981174
 30
0.0
  0
VERTEX
  8
DEM_20px_m
 10
7527.407388824934
 20
-26.160895
 30
0.0
  0
VERTEX
  8
DEM_20px_m
 10
7549.030520373131
 20
-26.418656
 30
0.0
  0
VERTEX
  8
DEM_20px_m
 10
7570.653651921329
 20
-26.640148
 30
0.0
  0
VERTEX
  8
DEM_20px_m
 10
7592.276783469526
 20
-26.779823
 30
0.0
  0
VERTEX
  8
DEM_20px_m
 10
7613.899915017722
 20
-26.965094
 30
0.0
  0
VERTEX
  8
DEM_20px_m
 10
7635.52304656592
 20
-27.130397
 30
0.0
  0
VERTEX
  8
DEM_20px_m
 10
7657.146178114117
 20
-27.370305
 30
0.0
  0
VERTEX
  8
DEM_20px_m
 10
7678.769309662314
 20
-27.448079
 30
0.0
  0
VERTEX
  8
DEM_20px_m
 10
7700.3924412105025
 20
-27.585136
 30
0.0
  0
VERTEX
  8
DEM_20px_m
 10
7722.015572758692
 20
-27.769706
 30
0.0
  0
VERTEX
  8
DEM_20px_m
 10
7743.63870430688
 20
-27.806905
 30
0.0
  0
VERTEX
  8
DEM_20px_m
 10
7765.261835855068
 20
-27.859557
 30
0.0
  0
VERTEX
  8
DEM_20px_m
 10
7786.884967403257
 20
-27.90582
 30
0.0
  0
VERTEX
  8
DEM_20px_m
 10
7808.508098951445
 20
-29.457847
 30
0.0
  0
VERTEX
  8
DEM_20px_m
 10
7830.131230499634
 20
-30.0
 30
0.0
  0
VERTEX
  8
DEM_20px_m
 10
7851.754362047823
 20
-30.0
 30
0.0
  0
VERTEX
  8
DEM_20px_m
 10
7873.377493596011
 20
-29.987667
 30
0.0
  0
VERTEX
  8
DEM_20px_m
 10
7895.000625144199
 20
-29.564195
 30
0.0
  0
VERTEX
  8
DEM_20px_m
 10
7916.623756692387
 20
-29.396549
 30
0.0
  0
VERTEX
  8
DEM_20px_m
 10
7938.2468882405765
 20
-29.228903
 30
0.0
  0
VERTEX
  8
DEM_20px_m
 10
7959.870019788765
 20
-29.304465
 30
0.0
  0
VERTEX
  8
DEM_20px_m
 10
7981.493151336953
 20
-29.136819
 30
0.0
  0
VERTEX
  8
DEM_20px_m
 10
8003.116282885142
 20
-28.969172
 30
0.0
  0
VERTEX
  8
DEM_20px_m
 10
8024.73941443333
 20
-29.044735
 30
0.0
  0
VERTEX
  8
DEM_20px_m
 10
8046.362545981529
 20
-28.877089
 30
0.0
  0
VERTEX
  8
DEM_20px_m
 10
8067.9856775297285
 20
-28.709442
 30
0.0
  0
VERTEX
  8
DEM_20px_m
 10
8089.6088090779285
 20
-28.785005
 30
0.0
  0
VERTEX
  8
DEM_20px_m
 10
8111.231940626128
 20
-28.626393
 30
0.0
  0
VERTEX
  8
DEM_20px_m
 10
8132.855072174327
 20
-28.669847
 30
0.0
  0
VERTEX
  8
DEM_20px_m
 10
8154.478203722526
 20
-28.757973
 30
0.0
  0
VERTEX
  8
DEM_20px_m
 10
8176.101335270726
 20
-28.807433
 30
0.0
  0
VERTEX
  8
DEM_20px_m
 10
8197.724466818925
 20
-28.89598
 30
0.0
  0
VERTEX
  8
DEM_20px_m
 10
8219.347598367125
 20
-28.947892
 30
0.0
  0
VERTEX
  8
DEM_20px_m
 10
8240.970729915323
 20
-28.999804
 30
0.0
  0
VERTEX
  8
DEM_20px_m
 10
8262.593861463523
 20
-29.088351
 30
0.0
  0
VERTEX
  8
DEM_20px_m
 10
8284.216993011722
 20
-29.140264
 30
0.0
  0
VERTEX
  8
DEM_20px_m
 10
8305.840124559922
 20
-29.192176
 30
0.0
  0
VERTEX
  8
DEM_20px_m
 10
8327.463256108122
 20
-29.280723
 30
0.0
  0
VERTEX
  8
DEM_20px_m
 10
8349.08638765632
 20
-29.332635
 30
0.0
  0
VERTEX
  8
DEM_20px_m
 10
8370.70951920452
 20
-29.384547
 30
0.0
  0
VERTEX
  8
DEM_20px_m
 10
8393.774192855924
 20
-29.473094
 30
0.0
  0
VERTEX
  8
DEM_20px_m
 10
8416.838866507327
 20
-29.583436
 30
0.0
  0
VERTEX
  8
DEM_20px_m
 10
8439.903540158732
 20
-29.668671
 30
0.0
  0
VERTEX
  8
DEM_20px_m
 10
8462.968213810136
 20
-29.72656
 30
0.0
  0
VERTEX
  8
DEM_20px_m
 10
8486.032887461539
 20
-29.811942
 30
0.0
  0
VERTEX
  8
DEM_20px_m
 10
8509.097561112943
 20
-29.866881
 30
0.0
  0
VERTEX
  8
DEM_20px_m
 10
8532.162234764348
 20
-29.955213
 30
0.0
  0
VERTEX
  8
DEM_20px_m
 10
8555.22690841575
 20
-30.0
 30
0.0
  0
VERTEX
  8
DEM_20px_m
 10
8578.291582067155
 20
-30.05328
 30
0.0
  0
VERTEX
  8
DEM_20px_m
 10
8601.356255718558
 20
-30.118055
 30
0.0
  0
VERTEX
  8
DEM_20px_m
 10
8624.420929369962
 20
-30.226031
 30
0.0
  0
VERTEX
  8
DEM_20px_m
 10
8647.485603021367
 20
-30.290806
 30
0.0
  0
VERTEX
  8
DEM_20px_m
 10
8670.55027667277
 20
-30.355582
 30
0.0
  0
VERTEX
  8
DEM_20px_m
 10
8693.614950324174
 20
-30.463557
 30
0.0
  0
VERTEX
  8
DEM_20px_m
 10
8716.679623975579
 20
-30.528333
 30
0.0
  0
VERTEX
  8
DEM_20px_m
 10
8739.744297626981
 20
-30.636308
 30
0.0
  0
VERTEX
  8
DEM_20px_m
 10
8762.808971278384
 20
-30.701083
 30
0.0
  0
VERTEX
  8
DEM_20px_m
 10
8785.873644929787
 20
-30.809059
 30
0.0
  0
VERTEX
  8
DEM_20px_m
 10
8808.938318581191
 20
-30.873834
 30
0.0
  0
VERTEX
  8
DEM_20px_m
 10
8832.002992232594
 20
-30.98181
 30
0.0
  0
VERTEX
  8
DEM_20px_m
 10
8855.067665883997
 20
-31.089785
 30
0.0
  0
VERTEX
  8
DEM_20px_m
 10
8878.1323395354
 20
-31.154561
 30
0.0
  0
VERTEX
  8
DEM_20px_m
 10
8901.197013186802
 20
-31.262536
 30
0.0
  0
VERTEX
  8
DEM_20px_m
 10
8924.261686838205
 20
-31.327311
 30
0.0
  0
VERTEX
  8
DEM_20px_m
 10
8947.326360489607
 20
-31.500062
 30
0.0
  0
VERTEX
  8
DEM_20px_m
 10
8970.391034141012
 20
-31.564838
 30
0.0
  0
VERTEX
  8
DEM_20px_m
 10
8993.455707792415
 20
-31.672813
 30
0.0
  0
VERTEX
  8
DEM_20px_m
 10
9016.520381443817
 20
-31.737589
 30
0.0
  0
VERTEX
  8
DEM_20px_m
 10
9039.58505509522
 20
-31.845564
 30
0.0
  0
VERTEX
  8
DEM_20px_m
 10
9062.649728746623
 20
-31.912365
 30
0.0
  0
VERTEX
  8
DEM_20px_m
 10
9087.361879087408
 20
-32.002117
 30
0.0
  0
VERTEX
  8
DEM_20px_m
 10
9112.074029428195
 20
-32.043955
 30
0.0
  0
VERTEX
  8
DEM_20px_m
 10
9136.78617976898
 20
-32.093973
 30
0.0
  0
VERTEX
  8
DEM_20px_m
 10
9161.498330109765
 20
-32.135811
 30
0.0
  0
VERTEX
  8
DEM_20px_m
 10
9186.21048045055
 20
-32.177648
 30
0.0
  0
VERTEX
  8
DEM_20px_m
 10
9210.922630791338
 20
-32.227666
 30
0.0
  0
VERTEX
  8
DEM_20px_m
 10
9235.634781132123
 20
-32.269504
 30
0.0
  0
VERTEX
  8
DEM_20px_m
 10
9260.346931472908
 20
-32.311342
 30
0.0
  0
VERTEX
  8
DEM_20px_m
 10
9285.059081813693
 20
-32.36136
 30
0.0
  0
VERTEX
  8
DEM_20px_m
 10
9309.77123215448
 20
-32.403197
 30
0.0
  0
VERTEX
  8
DEM_20px_m
 10
9334.483382495266
 20
-32.453215
 30
0.0
  0
VERTEX
  8
DEM_20px_m
 10
9359.195532836051
 20
-32.495053
 30
0.0
  0
VERTEX
  8
DEM_20px_m
 10
9383.907683176836
 20
-32.536891
 30
0.0
  0
VERTEX
  8
DEM_20px_m
 10
9408.619833517623
 20
-32.586909
 30
0.0
  0
VERTEX
  8
DEM_20px_m
 10
9433.331983858414
 20
-32.628746
 30
0.0
  0
VERTEX
  8
DEM_20px_m
 10
9458.044134199205
 20
-32.670584
 30
0.0
  0
VERTEX
  8
DEM_20px_m
 10
9482.756284539995
 20
-32.690202
 30
0.0
  0
VERTEX
  8
DEM_20px_m
 10
9507.468434880786
 20
-32.725884
 30
0.0
  0
VERTEX
  8
DEM_20px_m
 10
9532.180585221575
 20
-32.781623
 30
0.0
  0
VERTEX
  8
DEM_20px_m
 10
9556.892735562365
 20
-32.854269
 30
0.0
  0
VERTEX
  8
DEM_20px_m
 10
9581.604885903156
 20
-32.913719
 30
0.0
  0
VERTEX
  8
DEM_20px_m
 10
9606.317036243947
 20
-32.986365
 30
0.0
  0
VERTEX
  8
DEM_20px_m
 10
9631.029186584738
 20
-33.059012
 30
0.0
  0
VERTEX
  8
DEM_20px_m
 10
9655.741336925528
 20
-33.131658
 30
0.0
  0
VERTEX
  8
DEM_20px_m
 10
9680.453487266319
 20
-33.191108
 30
0.0
  0
VERTEX
  8
DEM_20px_m
 10
9705.16563760711
 20
-33.263754
 30
0.0
  0
VERTEX
  8
DEM_20px_m
 10
9729.8777879479
 20
-33.336401
 30
0.0
  0
VERTEX
  8
DEM_20px_m
 10
9754.58993828869
 20
-33.39585
 30
0.0
  0
VERTEX
  8
DEM_20px_m
 10
9781.203023271084
 20
-33.468496
 30
0.0
  0
VERTEX
  8
DEM_20px_m
 10
9807.816108253477
 20
-33.541143
 30
0.0
  0
VERTEX
  8
DEM_20px_m
 10
9834.429193235872
 20
-33.673239
 30
0.0
  0
VERTEX
  8
DEM_20px_m
 10
9861.042278218265
 20
-33.745885
 30
0.0
  0
VERTEX
  8
DEM_20px_m
 10
9887.65536320066
 20
-33.818532
 30
0.0
  0
VERTEX
  8
DEM_20px_m
 10
9914.268448183053
 20
-33.891179
 30
0.0
  0
VERTEX
  8
DEM_20px_m
 10
9940.881533165448
 20
-33.950628
 30
0.0
  0
VERTEX
  8
DEM_20px_m
 10
9967.49461814784
 20
-34.0
 30
0.0
  0
VERTEX
  8
DEM_20px_m
 10
9994.107703130236
 20
-34.0
 30
0.0
  0
VERTEX
  8
DEM_20px_m
 10
10020.720788112629
 20
-34.0
 30
0.0
  0
VERTEX
  8
DEM_20px_m
 10
10047.333873095024
 20
-34.0
 30
0.0
  0
VERTEX
  8
DEM_20px_m
 10
10073.946958077417
 20
-34.0
 30
0.0
  0
VERTEX
  8
DEM_20px_m
 10
10100.560043059812
 20
-34.0
 30
0.0
  0
VERTEX
  8
DEM_20px_m
 10
10129.390885124067
 20
-34.0
 30
0.0
  0
VERTEX
  8
DEM_20px_m
 10
10158.221727188322
 20
-34.0
 30
0.0
  0
VERTEX
  8
DEM_20px_m
 10
10187.052569252577
 20
-34.0
 30
0.0
  0
VERTEX
  8
DEM_20px_m
 10
10215.88341131683
 20
-34.0
 30
0.0
  0
VERTEX
  8
DEM_20px_m
 10
10244.714253381086
 20
-34.0
 30
0.0
  0
VERTEX
  8
DEM_20px_m
 10
10273.54509544534
 20
-34.0
 30
0.0
  0
VERTEX
  8
DEM_20px_m
 10
10302.375937509596
 20
-34.0
 30
0.0
  0
VERTEX
  8
DEM_20px_m
 10
10331.206779573851
 20
-34.0
 30
0.0
  0
VERTEX
  8
DEM_20px_m
 10
10360.037621638106
 20
-34.073552
 30
0.0
  0
VERTEX
  8
DEM_20px_m
 10
10388.868463702362
 20
-34.237102
 30
0.0
  0
VERTEX
  8
DEM_20px_m
 10
10417.699305766615
 20
-34.388043
 30
0.0
  0
VERTEX
  8
DEM_20px_m
 10
10446.53014783087
 20
-34.538984
 30
0.0
  0
VERTEX
  8
DEM_20px_m
 10
10475.360989895125
 20
-34.689925
 30
0.0
  0
VERTEX
  8
DEM_20px_m
 10
10504.19183195938
 20
-34.840865
 30
0.0
  0
VERTEX
  8
DEM_20px_m
 10
10533.022674023636
 20
-34.990122
 30
0.0
  0
VERTEX
  8
DEM_20px_m
 10
10561.853516087891
 20
-35.119666
 30
0.0
  0
VERTEX
  8
DEM_20px_m
 10
10590.684358152144
 20
-35.297306
 30
0.0
  0
VERTEX
  8
DEM_20px_m
 10
10619.5152002164
 20
-35.491623
 30
0.0
  0
VERTEX
  8
DEM_20px_m
 10
10648.346042280655
 20
-35.674886
 30
0.0
  0
VERTEX
  8
DEM_20px_m
 10
10677.17688434491
 20
-35.843597
 30
0.0
  0
VERTEX
  8
DEM_20px_m
 10
10706.007726409165
 20
-36.004122
 30
0.0
  0
VERTEX
  8
DEM_20px_m
 10
10734.83856847342
 20
-36.105221
 30
0.0
  0
VERTEX
  8
DEM_20px_m
 10
10763.669410537676
 20
-36.208347
 30
0.0
  0
VERTEX
  8
DEM_20px_m
 10
10792.50025260193
 20
-36.317231
 30
0.0
  0
VERTEX
  8
DEM_20px_m
 10
10819.113337584318
 20
-36.434772
 30
0.0
  0
VERTEX
  8
DEM_20px_m
 10
10845.726422566706
 20
-36.553333
 30
0.0
  0
VERTEX
  8
DEM_20px_m
 10
10872.339507549093
 20
-36.671134
 30
0.0
  0
VERTEX
  8
DEM_20px_m
 10
10898.952592531481
 20
-36.690429
 30
0.0
  0
VERTEX
  8
DEM_20px_m
 10
10925.565677513869
 20
-36.814293
 30
0.0
  0
VERTEX
  8
DEM_20px_m
 10
10952.178762496254
 20
-36.935235
 30
0.0
  0
VERTEX
  8
DEM_20px_m
 10
10978.791847478642
 20
-37.060879
 30
0.0
  0
VERTEX
  8
DEM_20px_m
 10
11005.40493246103
 20
-37.182666
 30
0.0
  0
VERTEX
  8
DEM_20px_m
 10
11032.018017443417
 20
-37.31459
 30
0.0
  0
VERTEX
  8
DEM_20px_m
 10
11058.631102425805
 20
-37.347488
 30
0.0
  0
VERTEX
  8
DEM_20px_m
 10
11085.244187408192
 20
-37.512596
 30
0.0
  0
VERTEX
  8
DEM_20px_m
 10
11111.85727239058
 20
-37.64698
 30
0.0
  0
VERTEX
  8
DEM_20px_m
 10
11138.470357372968
 20
-37.792762
 30
0.0
  0
VERTEX
  8
DEM_20px_m
 10
11163.182507713764
 20
-37.931273
 30
0.0
  0
VERTEX
  8
DEM_20px_m
 10
11187.89465805456
 20
-37.967827
 30
0.0
  0
VERTEX
  8
DEM_20px_m
 10
11212.606808395356
 20
-38.078409
 30
0.0
  0
VERTEX
  8
DEM_20px_m
 10
11237.318958736152
 20
-38.228212
 30
0.0
  0
VERTEX
  8
DEM_20px_m
 10
11262.031109076948
 20
-38.24964
 30
0.0
  0
VERTEX
  8
DEM_20px_m
 10
11286.743259417746
 20
-38.380678
 30
0.0
  0
VERTEX
  8
DEM_20px_m
 10
11311.455409758542
 20
-38.507365
 30
0.0
  0
VERTEX
  8
DEM_20px_m
 10
11336.167560099339
 20
-38.522559
 30
0.0
  0
VERTEX
  8
DEM_20px_m
 10
11360.879710440135
 20
-38.663625
 30
0.0
  0
VERTEX
  8
DEM_20px_m
 10
11385.59186078093
 20
-38.805492
 30
0.0
  0
VERTEX
  8
DEM_20px_m
 10
11410.304011121727
 20
-38.953364
 30
0.0
  0
VERTEX
  8
DEM_20px_m
 10
11435.016161462523
 20
-38.973789
 30
0.0
  0
VERTEX
  8
DEM_20px_m
 10
11459.72831180332
 20
-39.105623
 30
0.0
  0
VERTEX
  8
DEM_20px_m
 10
11484.440462144115
 20
-39.2394
 30
0.0
  0
VERTEX
  8
DEM_20px_m
 10
11509.152612484904
 20
-39.256628
 30
0.0
  0
VERTEX
  8
DEM_20px_m
 10
11533.864762825691
 20
-39.390501
 30
0.0
  0
VERTEX
  8
DEM_20px_m
 10
11558.57691316648
 20
-39.529178
 30
0.0
  0
VERTEX
  8
DEM_20px_m
 10
11583.289063507267
 20
-39.565417
 30
0.0
  0
VERTEX
  8
DEM_20px_m
 10
11608.001213848056
 20
-39.720554
 30
0.0
  0
VERTEX
  8
DEM_20px_m
 10
11632.713364188843
 20
-39.758015
 30
0.0
  0
VERTEX
  8
DEM_20px_m
 10
11657.425514529632
 20
-39.914618
 30
0.0
  0
VERTEX
  8
DEM_20px_m
 10
11682.137664870419
 20
-40.030452
 30
0.0
  0
VERTEX
  8
DEM_20px_m
 10
11706.849815211208
 20
-40.050615
 30
0.0
  0
VERTEX
  8
DEM_20px_m
 10
11731.561965551995
 20
-40.198985
 30
0.0
  0
VERTEX
  8
DEM_20px_m
 10
11756.274115892784
 20
-40.329551
 30
0.0
  0
VERTEX
  8
DEM_20px_m
 10
11780.98626623357
 20
-40.350065
 30
0.0
  0
VERTEX
  8
DEM_20px_m
 10
11805.69841657436
 20
-40.52261
 30
0.0
  0
VERTEX
  8
DEM_20px_m
 10
11830.410566915147
 20
-40.69303
 30
0.0
  0
VERTEX
  8
DEM_20px_m
 10
11853.218391813862
 20
-40.734604
 30
0.0
  0
VERTEX
  8
DEM_20px_m
 10
11876.026216712577
 20
-40.900365
 30
0.0
  0
VERTEX
  8
DEM_20px_m
 10
11898.834041611291
 20
-40.943618
 30
0.0
  0
VERTEX
  8
DEM_20px_m
 10
11921.641866510006
 20
-41.100448
 30
0.0
  0
VERTEX
  8
DEM_20px_m
 10
11944.449691408721
 20
-41.130411
 30
0.0
  0
VERTEX
  8
DEM_20px_m
 10
11967.257516307436
 20
-41.286288
 30
0.0
  0
VERTEX
  8
DEM_20px_m
 10
11990.065341206151
 20
-41.316525
 30
0.0
  0
VERTEX
  8
DEM_20px_m
 10
12012.873166104868
 20
-41.47705
 30
0.0
  0
VERTEX
  8
DEM_20px_m
 10
12035.680991003583
 20
-41.507214
 30
0.0
  0
VERTEX
  8
DEM_20px_m
 10
12058.488815902298
 20
-41.674769
 30
0.0
  0
VERTEX
  8
DEM_20px_m
 10
12081.296640801012
 20
-41.847904
 30
0.0
  0
VERTEX
  8
DEM_20px_m
 10
12104.104465699727
 20
-41.88981
 30
0.0
  0
VERTEX
  8
DEM_20px_m
 10
12126.912290598442
 20
-42.059828
 30
0.0
  0
VERTEX
  8
DEM_20px_m
 10
12149.720115497157
 20
-42.096066
 30
0.0
  0
VERTEX
  8
DEM_20px_m
 10
12172.527940395872
 20
-42.254113
 30
0.0
  0
VERTEX
  8
DEM_20px_m
 10
12195.335765294587
 20
-42.281575
 30
0.0
  0
VERTEX
  8
DEM_20px_m
 10
12218.143590193302
 20
-42.426803
 30
0.0
  0
VERTEX
  8
DEM_20px_m
 10
12240.951415092017
 20
-42.453415
 30
0.0
  0
VERTEX
  8
DEM_20px_m
 10
12263.759239990732
 20
-42.609589
 30
0.0
  0
VERTEX
  8
DEM_20px_m
 10
12286.567064889447
 20
-42.641536
 30
0.0
  0
VERTEX
  8
DEM_20px_m
 10
12309.374889788163
 20
-42.802914
 30
0.0
  0
VERTEX
  8
DEM_20px_m
 10
12332.182714686878
 20
-42.979881
 30
0.0
  0
VERTEX
  8
DEM_20px_m
 10
12354.990539585593
 20
-43.018318
 30
0.0
  0
VERTEX
  8
DEM_20px_m
 10
12377.798364484308
 20
-43.205669
 30
0.0
  0
VERTEX
  8
DEM_20px_m
 10
12400.606189383023
 20
-43.250274
 30
0.0
  0
VERTEX
  8
DEM_20px_m
 10
12423.414014281738
 20
-43.431968
 30
0.0
  0
VERTEX
  8
DEM_20px_m
 10
12446.221839180453
 20
-43.486205
 30
0.0
  0
VERTEX
  8
DEM_20px_m
 10
12469.029664079168
 20
-43.678424
 30
0.0
  0
VERTEX
  8
DEM_20px_m
 10
12491.837488977882
 20
-43.731525
 30
0.0
  0
VERTEX
  8
DEM_20px_m
 10
12514.645313876597
 20
-43.928269
 30
0.0
  0
VERTEX
  8
DEM_20px_m
 10
12537.453138775312
 20
-44.084276
 30
0.0
  0
VERTEX
  8
DEM_20px_m
 10
12560.260963674027
 20
-44.120447
 30
0.0
  0
VERTEX
  8
DEM_20px_m
 10
12583.068788572742
 20
-44.25017
 30
0.0
  0
VERTEX
  8
DEM_20px_m
 10
12605.876613471457
 20
-44.278063
 30
0.0
  0
VERTEX
  8
DEM_20px_m
 10
12628.684438370172
 20
-44.404855
 30
0.0
  0
VERTEX
  8
DEM_20px_m
 10
12651.492263268889
 20
-44.420783
 30
0.0
  0
VERTEX
  8
DEM_20px_m
 10
12674.300088167603
 20
-44.535156
 30
0.0
  0
VERTEX
  8
DEM_20px_m
 10
12697.107913066318
 20
-44.53948
 30
0.0
  0
VERTEX
  8
DEM_20px_m
 10
12719.915737965033
 20
-44.654567
 30
0.0
  0
VERTEX
  8
DEM_20px_m
 10
12742.723562863748
 20
-44.659531
 30
0.0
  0
VERTEX
  8
DEM_20px_m
 10
12765.531387762463
 20
-44.778339
 30
0.0
  0
VERTEX
  8
DEM_20px_m
 10
12788.339212661178
 20
-44.926451
 30
0.0
  0
VERTEX
  8
DEM_20px_m
 10
12811.147037559893
 20
-44.968773
 30
0.0
  0
VERTEX
  8
DEM_20px_m
 10
12833.954862458608
 20
-45.116886
 30
0.0
  0
VERTEX
  8
DEM_20px_m
 10
12856.762687357323
 20
-45.171153
 30
0.0
  0
VERTEX
  8
DEM_20px_m
 10
12879.570512256038
 20
-45.32793
 30
0.0
  0
VERTEX
  8
DEM_20px_m
 10
12902.378337154752
 20
-45.37951
 30
0.0
  0
VERTEX
  8
DEM_20px_m
 10
12925.18616205347
 20
-45.537722
 30
0.0
  0
VERTEX
  8
DEM_20px_m
 10
12947.993986952184
 20
-45.586074
 30
0.0
  0
VERTEX
  8
DEM_20px_m
 10
12970.801811850899
 20
-45.739151
 30
0.0
  0
VERTEX
  8
DEM_20px_m
 10
12993.609636749614
 20
-45.78573
 30
0.0
  0
VERTEX
  8
DEM_20px_m
 10
13016.417461648329
 20
-45.930442
 30
0.0
  0
VERTEX
  8
DEM_20px_m
 10
13039.225286547044
 20
-46.021236
 30
0.0
  0
VERTEX
  8
DEM_20px_m
 10
13062.033111445759
 20
-46.034137
 30
0.0
  0
VERTEX
  8
DEM_20px_m
 10
13084.840936344473
 20
-46.141326
 30
0.0
  0
VERTEX
  8
DEM_20px_m
 10
13107.648761243188
 20
-46.154228
 30
0.0
  0
VERTEX
  8
DEM_20px_m
 10
13130.456586141903
 20
-46.261417
 30
0.0
  0
VERTEX
  8
DEM_20px_m
 10
13153.264411040618
 20
-46.269773
 30
0.0
  0
VERTEX
  8
DEM_20px_m
 10
13176.072235939333
 20
-46.359685
 30
0.0
  0
VERTEX
  8
DEM_20px_m
 10
13198.880060838048
 20
-46.357905
 30
0.0
  0
VERTEX
  8
DEM_20px_m
 10
13221.687885736763
 20
-46.461569
 30
0.0
  0
VERTEX
  8
DEM_20px_m
 10
13244.495710635478
 20
-46.474585
 30
0.0
  0
VERTEX
  8
DEM_20px_m
 10
13267.303535534193
 20
-46.598623
 30
0.0
  0
VERTEX
  8
DEM_20px_m
 10
13290.11136043291
 20
-46.727129
 30
0.0
  0
VERTEX
  8
DEM_20px_m
 10
13312.919185331624
 20
-46.75826
 30
0.0
  0
VERTEX
  8
DEM_20px_m
 10
13335.72701023034
 20
-46.874435
 30
0.0
  0
VERTEX
  8
DEM_20px_m
 10
13358.534835129054
 20
-46.90079
 30
0.0
  0
VERTEX
  8
DEM_20px_m
 10
13381.342660027769
 20
-47.023251
 30
0.0
  0
VERTEX
  8
DEM_20px_m
 10
13404.150484926484
 20
-47.049607
 30
0.0
  0
VERTEX
  8
DEM_20px_m
 10
13426.958309825199
 20
-47.172068
 30
0.0
  0
VERTEX
  8
DEM_20px_m
 10
13449.766134723914
 20
-47.20892
 30
0.0
  0
VERTEX
  8
DEM_20px_m
 10
13472.573959622629
 20
-47.336208
 30
0.0
  0
VERTEX
  8
DEM_20px_m
 10
13495.381784521343
 20
-47.460432
 30
0.0
  0
VERTEX
  8
DEM_20px_m
 10
13518.189609420058
 20
-47.500303
 30
0.0
  0
VERTEX
  8
DEM_20px_m
 10
13540.997434318773
 20
-47.618382
 30
0.0
  0
VERTEX
  8
DEM_20px_m
 10
13563.80525921749
 20
-47.650825
 30
0.0
  0
VERTEX
  8
DEM_20px_m
 10
13586.613084116205
 20
-47.767995
 30
0.0
  0
VERTEX
  8
DEM_20px_m
 10
13609.42090901492
 20
-47.78867
 30
0.0
  0
VERTEX
  8
DEM_20px_m
 10
13632.228733913635
 20
-47.897669
 30
0.0
  0
VERTEX
  8
DEM_20px_m
 10
13655.03655881235
 20
-47.902626
 30
0.0
  0
VERTEX
  8
DEM_20px_m
 10
13677.844383711064
 20
-47.993269
 30
0.0
  0
VERTEX
  8
DEM_20px_m
 10
13700.65220860978
 20
-47.984626
 30
0.0
  0
VERTEX
  8
DEM_20px_m
 10
13723.460033508494
 20
-48.071478
 30
0.0
  0
VERTEX
  8
DEM_20px_m
 10
13746.26785840721
 20
-48.157829
 30
0.0
  0
VERTEX
  8
DEM_20px_m
 10
13769.075683305924
 20
-48.144726
 30
0.0
  0
VERTEX
  8
DEM_20px_m
 10
13791.883508204639
 20
-48.232824
 30
0.0
  0
VERTEX
  8
DEM_20px_m
 10
13814.691333103354
 20
-48.218691
 30
0.0
  0
VERTEX
  8
DEM_20px_m
 10
13837.499158002069
 20
-48.327711
 30
0.0
  0
VERTEX
  8
DEM_20px_m
 10
13860.306982900784
 20
-48.349219
 30
0.0
  0
VERTEX
  8
DEM_20px_m
 10
13883.114807799499
 20
-48.477465
 30
0.0
  0
VERTEX
  8
DEM_20px_m
 10
13905.922632698213
 20
-48.521123
 30
0.0
  0
VERTEX
  8
DEM_20px_m
 10
13928.73045759693
 20
-48.660427
 30
0.0
  0
VERTEX
  8
DEM_20px_m
 10
13951.538282495645
 20
-48.70479
 30
0.0
  0
VERTEX
  8
DEM_20px_m
 10
13974.34610739436
 20
-48.843579
 30
0.0
  0
VERTEX
  8
DEM_20px_m
 10
13997.153932293075
 20
-48.982368
 30
0.0
  0
VERTEX
  8
DEM_20px_m
 10
14019.96175719179
 20
-49.02816
 30
0.0
  0
VERTEX
  8
DEM_20px_m
 10
14042.769582090505
 20
-49.166949
 30
0.0
  0
VERTEX
  8
DEM_20px_m
 10
14065.57740698922
 20
-49.212742
 30
0.0
  0
VERTEX
  8
DEM_20px_m
 10
14088.385231887934
 20
-49.347831
 30
0.0
  0
VERTEX
  8
DEM_20px_m
 10
14111.19305678665
 20
-49.370966
 30
0.0
  0
VERTEX
  8
DEM_20px_m
 10
14134.000881685364
 20
-49.473691
 30
0.0
  0
VERTEX
  8
DEM_20px_m
 10
14156.80870658408
 20
-49.492433
 30
0.0
  0
VERTEX
  8
DEM_20px_m
 10
14179.616531482796
 20
-49.603426
 30
0.0
  0
VERTEX
  8
DEM_20px_m
 10
14202.42435638151
 20
-49.606288
 30
0.0
  0
VERTEX
  8
DEM_20px_m
 10
14225.232181280226
 20
-49.712909
 30
0.0
  0
VERTEX
  8
DEM_20px_m
 10
14248.04000617894
 20
-49.84592
 30
0.0
  0
VERTEX
  8
DEM_20px_m
 10
14270.847831077655
 20
-49.884163
 30
0.0
  0
VERTEX
  8
DEM_20px_m
 10
14293.65565597637
 20
-50.0
 30
0.0
  0
VERTEX
  8
DEM_20px_m
 10
14316.463480875085
 20
-50.0
 30
0.0
  0
VERTEX
  8
DEM_20px_m
 10
14339.2713057738
 20
-50.0
 30
0.0
  0
VERTEX
  8
DEM_20px_m
 10
14362.079130672515
 20
-50.0
 30
0.0
  0
VERTEX
  8
DEM_20px_m
 10
14384.88695557123
 20
-50.022584
 30
0.0
  0
VERTEX
  8
DEM_20px_m
 10
14407.694780469945
 20
-50.085689
 30
0.0
  0
VERTEX
  8
DEM_20px_m
 10
14430.50260536866
 20
-50.218517
 30
0.0
  0
VERTEX
  8
DEM_20px_m
 10
14453.310430267375
 20
-50.351346
 30
0.0
  0
VERTEX
  8
DEM_20px_m
 10
14476.11825516609
 20
-50.409178
 30
0.0
  0
VERTEX
  8
DEM_20px_m
 10
14498.926080064804
 20
-50.538536
 30
0.0
  0
VERTEX
  8
DEM_20px_m
 10
14521.73390496352
 20
-50.590533
 30
0.0
  0
VERTEX
  8
DEM_20px_m
 10
14544.541729862234
 20
-50.719891
 30
0.0
  0
VERTEX
  8
DEM_20px_m
 10
14567.349554760951
 20
-50.771887
 30
0.0
  0
VERTEX
  8
DEM_20px_m
 10
14590.157379659666
 20
-50.901246
 30
0.0
  0
VERTEX
  8
DEM_20px_m
 10
14612.96520455838
 20
-50.953242
 30
0.0
  0
VERTEX
  8
DEM_20px_m
 10
14635.773029457096
 20
-51.0826
 30
0.0
  0
VERTEX
  8
DEM_20px_m
 10
14658.58085435581
 20
-51.134596
 30
0.0
  0
VERTEX
  8
DEM_20px_m
 10
14681.388679254525
 20
-51.240644
 30
0.0
  0
VERTEX
  8
DEM_20px_m
 10
14704.19650415324
 20
-51.351708
 30
0.0
  0
VERTEX
  8
DEM_20px_m
 10
14727.004329051955
 20
-51.365418
 30
0.0
  0
VERTEX
  8
DEM_20px_m
 10
14749.81215395067
 20
-51.483436
 30
0.0
  0
VERTEX
  8
DEM_20px_m
 10
14772.619978849385
 20
-51.527858
 30
0.0
  0
VERTEX
  8
DEM_20px_m
 10
14795.427803748102
 20
-51.65391
 30
0.0
  0
VERTEX
  8
DEM_20px_m
 10
14818.235628646817
 20
-51.698333
 30
0.0
  0
VERTEX
  8
DEM_20px_m
 10
14841.043453545532
 20
-51.824385
 30
0.0
  0
VERTEX
  8
DEM_20px_m
 10
14863.851278444246
 20
-51.868808
 30
0.0
  0
VERTEX
  8
DEM_20px_m
 10
14886.659103342961
 20
-51.99486
 30
0.0
  0
VERTEX
  8
DEM_20px_m
 10
14909.466928241676
 20
-52.0
 30
0.0
  0
VERTEX
  8
DEM_20px_m
 10
14932.274753140391
 20
-52.0
 30
0.0
  0
VERTEX
  8
DEM_20px_m
 10
14955.082578039106
 20
-52.081125
 30
0.0
  0
VERTEX
  8
DEM_20px_m
 10
14977.89040293782
 20
-52.137429
 30
0.0
  0
VERTEX
  8
DEM_20px_m
 10
15000.698227836536
 20
-52.275362
 30
0.0
  0
VERTEX
  8
DEM_20px_m
 10
15023.50605273525
 20
-52.331666
 30
0.0
  0
VERTEX
  8
DEM_20px_m
 10
15046.313877633966
 20
-52.469599
 30
0.0
  0
VERTEX
  8
DEM_20px_m
 10
15069.12170253268
 20
-52.525903
 30
0.0
  0
VERTEX
  8
DEM_20px_m
 10
15091.929527431395
 20
-52.663836
 30
0.0
  0
VERTEX
  8
DEM_20px_m
 10
15114.73735233011
 20
-52.72014
 30
0.0
  0
VERTEX
  8
DEM_20px_m
 10
15137.545177228825
 20
-52.853124
 30
0.0
  0
VERTEX
  8
DEM_20px_m
 10
15160.35300212754
 20
-52.968012
 30
0.0
  0
VERTEX
  8
DEM_20px_m
 10
15183.160827026255
 20
-52.991587
 30
0.0
  0
VERTEX
  8
DEM_20px_m
 10
15205.968651924972
 20
-53.101967
 30
0.0
  0
VERTEX
  8
DEM_20px_m
 10
15228.776476823687
 20
-53.137422
 30
0.0
  0
VERTEX
  8
DEM_20px_m
 10
15251.584301722402
 20
-53.262048
 30
0.0
  0
VERTEX
  8
DEM_20px_m
 10
15274.392126621116
 20
-53.303506
 30
0.0
  0
VERTEX
  8
DEM_20px_m
 10
15297.199951519831
 20
-53.428132
 30
0.0
  0
VERTEX
  8
DEM_20px_m
 10
15320.007776418546
 20
-53.46959
 30
0.0
  0
VERTEX
  8
DEM_20px_m
 10
15342.815601317261
 20
-53.594216
 30
0.0
  0
VERTEX
  8
DEM_20px_m
 10
15365.623426215976
 20
-53.635675
 30
0.0
  0
VERTEX
  8
DEM_20px_m
 10
15388.43125111469
 20
-53.7603
 30
0.0
  0
VERTEX
  8
DEM_20px_m
 10
15411.239076013406
 20
-53.884926
 30
0.0
  0
VERTEX
  8
DEM_20px_m
 10
15434.046900912123
 20
-53.926385
 30
0.0
  0
VERTEX
  8
DEM_20px_m
 10
15456.854725810837
 20
-54.0
 30
0.0
  0
VERTEX
  8
DEM_20px_m
 10
15479.662550709552
 20
-54.0
 30
0.0
  0
VERTEX
  8
DEM_20px_m
 10
15502.470375608267
 20
-54.130833
 30
0.0
  0
VERTEX
  8
DEM_20px_m
 10
15525.278200506982
 20
-54.186205
 30
0.0
  0
VERTEX
  8
DEM_20px_m
 10
15548.086025405697
 20
-54.323776
 30
0.0
  0
VERTEX
  8
DEM_20px_m
 10
15570.893850304412
 20
-54.379148
 30
0.0
  0
VERTEX
  8
DEM_20px_m
 10
15593.701675203127
 20
-54.516719
 30
0.0
  0
VERTEX
  8
DEM_20px_m
 10
15616.509500101842
 20
-54.555497
 30
0.0
  0
VERTEX
  8
DEM_20px_m
 10
15639.317325000557
 20
-54.672639
 30
0.0
  0
VERTEX
  8
DEM_20px_m
 10
15662.125149899271
 20
-54.791788
 30
0.0
  0
VERTEX
  8
DEM_20px_m
 10
15684.932974797986
 20
-54.825777
 30
0.0
  0
VERTEX
  8
DEM_20px_m
 10
15707.740799696701
 20
-54.968172
 30
0.0
  0
VERTEX
  8
DEM_20px_m
 10
15730.548624595416
 20
-55.02515
 30
0.0
  0
VERTEX
  8
DEM_20px_m
 10
15753.356449494131
 20
-55.167545
 30
0.0
  0
VERTEX
  8
DEM_20px_m
 10
15776.164274392846
 20
-55.224523
 30
0.0
  0
VERTEX
  8
DEM_20px_m
 10
15798.97209929156
 20
-55.366918
 30
0.0
  0
VERTEX
  8
DEM_20px_m
 10
15821.779924190278
 20
-55.423895
 30
0.0
  0
VERTEX
  8
DEM_20px_m
 10
15844.587749088992
 20
-55.56629
 30
0.0
  0
VERTEX
  8
DEM_20px_m
 10
15867.395573987707
 20
-55.620953
 30
0.0
  0
VERTEX
  8
DEM_20px_m
 10
15890.203398886422
 20
-55.762421
 30
0.0
  0
VERTEX
  8
DEM_20px_m
 10
15913.011223785137
 20
-55.909127
 30
0.0
  0
VERTEX
  8
DEM_20px_m
 10
15935.819048683852
 20
-55.962529
 30
0.0
  0
VERTEX
  8
DEM_20px_m
 10
15958.626873582567
 20
-56.0
 30
0.0
  0
VERTEX
  8
DEM_20px_m
 10
15981.434698481282
 20
-56.0
 30
0.0
  0
VERTEX
  8
DEM_20px_m
 10
16004.242523379997
 20
-56.037385
 30
0.0
  0
VERTEX
  8
DEM_20px_m
 10
16027.050348278713
 20
-56.061165
 30
0.0
  0
VERTEX
  8
DEM_20px_m
 10
16049.858173177428
 20
-56.122121
 30
0.0
  0
VERTEX
  8
DEM_20px_m
 10
16072.665998076143
 20
-56.145901
 30
0.0
  0
VERTEX
  8
DEM_20px_m
 10
16095.473822974858
 20
-56.206857
 30
0.0
  0
VERTEX
  8
DEM_20px_m
 10
16118.281647873573
 20
-56.267814
 30
0.0
  0
VERTEX
  8
DEM_20px_m
 10
16141.089472772288
 20
-56.291593
 30
0.0
  0
VERTEX
  8
DEM_20px_m
 10
16163.897297671003
 20
-56.35255
 30
0.0
  0
VERTEX
  8
DEM_20px_m
 10
16186.705122569718
 20
-56.376329
 30
0.0
  0
VERTEX
  8
DEM_20px_m
 10
16209.512947468433
 20
-56.437286
 30
0.0
  0
VERTEX
  8
DEM_20px_m
 10
16232.320772367148
 20
-56.456425
 30
0.0
  0
VERTEX
  8
DEM_20px_m
 10
16255.128597265862
 20
-56.506111
 30
0.0
  0
VERTEX
  8
DEM_20px_m
 10
16277.936422164577
 20
-56.510755
 30
0.0
  0
VERTEX
  8
DEM_20px_m
 10
16300.744247063292
 20
-56.56044
 30
0.0
  0
VERTEX
  8
DEM_20px_m
 10
16323.552071962007
 20
-56.565084
 30
0.0
  0
VERTEX
  8
DEM_20px_m
 10
16346.359896860722
 20
-56.614769
 30
0.0
  0
VERTEX
  8
DEM_20px_m
 10
16369.167721759437
 20
-56.664454
 30
0.0
  0
VERTEX
  8
DEM_20px_m
 10
16391.975546658152
 20
-56.669098
 30
0.0
  0
VERTEX
  8
DEM_20px_m
 10
16414.783371556867
 20
-56.718784
 30
0.0
  0
VERTEX
  8
DEM_20px_m
 10
16437.59119645558
 20
-56.742346
 30
0.0
  0
VERTEX
  8
DEM_20px_m
 10
16460.399021354297
 20
-56.808364
 30
0.0
  0
VERTEX
  8
DEM_20px_m
 10
16483.20684625301
 20
-56.834465
 30
0.0
  0
VERTEX
  8
DEM_20px_m
 10
16506.01467115173
 20
-56.894049
 30
0.0
  0
VERTEX
  8
DEM_20px_m
 10
16528.822496050445
 20
-56.907999
 30
0.0
  0
VERTEX
  8
DEM_20px_m
 10
16551.63032094916
 20
-56.969591
 30
0.0
  0
VERTEX
  8
DEM_20px_m
 10
16574.438145847875
 20
-56.985928
 30
0.0
  0
VERTEX
  8
DEM_20px_m
 10
16597.24597074659
 20
-57.049892
 30
0.0
  0
VERTEX
  8
DEM_20px_m
 10
16620.053795645304
 20
-57.111584
 30
0.0
  0
VERTEX
  8
DEM_20px_m
 10
16642.86162054402
 20
-57.125735
 30
0.0
  0
VERTEX
  8
DEM_20px_m
 10
16665.669445442734
 20
-57.184502
 30
0.0
  0
VERTEX
  8
DEM_20px_m
 10
16688.47727034145
 20
-57.198653
 30
0.0
  0
VERTEX
  8
DEM_20px_m
 10
16711.285095240164
 20
-57.25742
 30
0.0
  0
VERTEX
  8
DEM_20px_m
 10
16734.09292013888
 20
-57.271571
 30
0.0
  0
VERTEX
  8
DEM_20px_m
 10
16756.900745037594
 20
-57.330338
 30
0.0
  0
VERTEX
  8
DEM_20px_m
 10
16779.70856993631
 20
-57.344489
 30
0.0
  0
VERTEX
  8
DEM_20px_m
 10
16802.516394835024
 20
-57.403256
 30
0.0
  0
VERTEX
  8
DEM_20px_m
 10
16825.32421973374
 20
-57.417407
 30
0.0
  0
VERTEX
  8
DEM_20px_m
 10
16848.132044632453
 20
-57.476323
 30
0.0
  0
VERTEX
  8
DEM_20px_m
 10
16870.93986953117
 20
-57.539563
 30
0.0
  0
VERTEX
  8
DEM_20px_m
 10
16893.747694429883
 20
-57.565732
 30
0.0
  0
VERTEX
  8
DEM_20px_m
 10
16916.555519328598
 20
-57.628972
 30
0.0
  0
VERTEX
  8
DEM_20px_m
 10
16939.363344227313
 20
-57.655141
 30
0.0
  0
VERTEX
  8
DEM_20px_m
 10
16962.171169126028
 20
-57.718381
 30
0.0
  0
VERTEX
  8
DEM_20px_m
 10
16984.978994024743
 20
-57.738993
 30
0.0
  0
VERTEX
  8
DEM_20px_m
 10
17007.786818923458
 20
-57.802431
 30
0.0
  0
VERTEX
  8
DEM_20px_m
 10
17030.594643822173
 20
-57.825964
 30
0.0
  0
VERTEX
  8
DEM_20px_m
 10
17053.402468720888
 20
-57.888939
 30
0.0
  0
VERTEX
  8
DEM_20px_m
 10
17076.210293619602
 20
-57.946337
 30
0.0
  0
VERTEX
  8
DEM_20px_m
 10
17099.018118518317
 20
-57.960245
 30
0.0
  0
VERTEX
  8
DEM_20px_m
 10
17121.825943417032
 20
-58.0
 30
0.0
  0
VERTEX
  8
DEM_20px_m
 10
17144.633768315747
 20
-58.0
 30
0.0
  0
VERTEX
  8
DEM_20px_m
 10
17167.441593214462
 20
-58.0
 30
0.0
  0
VERTEX
  8
DEM_20px_m
 10
17190.249418113177
 20
-58.0
 30
0.0
  0
VERTEX
  8
DEM_20px_m
 10
17213.057243011892
 20
-58.037727
 30
0.0
  0
VERTEX
  8
DEM_20px_m
 10
17235.865067910607
 20
-58.068176
 30
0.0
  0
VERTEX
  8
DEM_20px_m
 10
17258.67289280932
 20
-58.137862
 30
0.0
  0
VERTEX
  8
DEM_20px_m
 10
17281.48071770804
 20
-58.152783
 30
0.0
  0
VERTEX
  8
DEM_20px_m
 10
17304.288542606755
 20
-58.222468
 30
0.0
  0
VERTEX
  8
DEM_20px_m
 10
17327.09636750547
 20
-58.292153
 30
0.0
  0
VERTEX
  8
DEM_20px_m
 10
17349.904192404185
 20
-58.307074
 30
0.0
  0
VERTEX
  8
DEM_20px_m
 10
17372.7120173029
 20
-58.37676
 30
0.0
  0
VERTEX
  8
DEM_20px_m
 10
17395.519842201615
 20
-58.402273
 30
0.0
  0
VERTEX
  8
DEM_20px_m
 10
17418.32766710033
 20
-58.482311
 30
0.0
  0
VERTEX
  8
DEM_20px_m
 10
17441.135491999044
 20
-58.51512
 30
0.0
  0
VERTEX
  8
DEM_20px_m
 10
17463.94331689776
 20
-58.595158
 30
0.0
  0
VERTEX
  8
DEM_20px_m
 10
17486.751141796474
 20
-58.627681
 30
0.0
  0
VERTEX
  8
DEM_20px_m
 10
17509.55896669519
 20
-58.697883
 30
0.0
  0
VERTEX
  8
DEM_20px_m
 10
17532.366791593904
 20
-58.714905
 30
0.0
  0
VERTEX
  8
DEM_20px_m
 10
17555.17461649262
 20
-58.779649
 30
0.0
  0
VERTEX
  8
DEM_20px_m
 10
17577.982441391334
 20
-58.844394
 30
0.0
  0
VERTEX
  8
DEM_20px_m
 10
17600.79026629005
 20
-58.857826
 30
0.0
  0
VERTEX
  8
DEM_20px_m
 10
17623.598091188764
 20
-58.922571
 30
0.0
  0
VERTEX
  8
DEM_20px_m
 10
17646.40591608748
 20
-58.936004
 30
0.0
  0
VERTEX
  8
DEM_20px_m
 10
17669.213740986193
 20
-59.000748
 30
0.0
  0
VERTEX
  8
DEM_20px_m
 10
17692.02156588491
 20
-59.014181
 30
0.0
  0
VERTEX
  8
DEM_20px_m
 10
17714.829390783623
 20
-59.078926
 30
0.0
  0
VERTEX
  8
DEM_20px_m
 10
17737.637215682338
 20
-59.101813
 30
0.0
  0
VERTEX
  8
DEM_20px_m
 10
17760.445040581057
 20
-59.169077
 30
0.0
  0
VERTEX
  8
DEM_20px_m
 10
17783.25286547977
 20
-59.236341
 30
0.0
  0
VERTEX
  8
DEM_20px_m
 10
17806.060690378486
 20
-59.257637
 30
0.0
  0
VERTEX
  8
DEM_20px_m
 10
17828.8685152772
 20
-59.321892
 30
0.0
  0
VERTEX
  8
DEM_20px_m
 10
17851.676340175916
 20
-59.33068
 30
0.0
  0
VERTEX
  8
DEM_20px_m
 10
17874.48416507463
 20
-59.390767
 30
0.0
  0
VERTEX
  8
DEM_20px_m
 10
17897.291989973346
 20
-59.402637
 30
0.0
  0
VERTEX
  8
DEM_20px_m
 10
17920.09981487206
 20
-59.468935
 30
0.0
  0
VERTEX
  8
DEM_20px_m
 10
17942.907639770776
 20
-59.488811
 30
0.0
  0
VERTEX
  8
DEM_20px_m
 10
17965.71546466949
 20
-59.556951
 30
0.0
  0
VERTEX
  8
DEM_20px_m
 10
17988.523289568206
 20
-59.576827
 30
0.0
  0
VERTEX
  8
DEM_20px_m
 10
18011.33111446692
 20
-59.644967
 30
0.0
  0
VERTEX
  8
DEM_20px_m
 10
18034.138939365635
 20
-59.713108
 30
0.0
  0
VERTEX
  8
DEM_20px_m
 10
18056.94676426435
 20
-59.732983
 30
0.0
  0
VERTEX
  8
DEM_20px_m
 10
18079.754589163065
 20
-59.801124
 30
0.0
  0
VERTEX
  8
DEM_20px_m
 10
18102.56241406178
 20
-59.821
 30
0.0
  0
VERTEX
  8
DEM_20px_m
 10
18125.370238960495
 20
-59.88914
 30
0.0
  0
VERTEX
  8
DEM_20px_m
 10
18148.17806385921
 20
-59.909016
 30
0.0
  0
VERTEX
  8
DEM_20px_m
 10
18170.985888757925
 20
-59.979413
 30
0.0
  0
VERTEX
  8
DEM_20px_m
 10
18193.79371365664
 20
-60.0
 30
0.0
  0
VERTEX
  8
DEM_20px_m
 10
18216.601538555355
 20
-60.076593
 30
0.0
  0
VERTEX
  8
DEM_20px_m
 10
18239.40936345407
 20
-60.108611
 30
0.0
  0
VERTEX
  8
DEM_20px_m
 10
18262.217188352784
 20
-60.208759
 30
0.0
  0
VERTEX
  8
DEM_20px_m
 10
18285.0250132515
 20
-60.29678
 30
0.0
  0
VERTEX
  8
DEM_20px_m
 10
18307.832838150214
 20
-60.314578
 30
0.0
  0
VERTEX
  8
DEM_20px_m
 10
18330.64066304893
 20
-60.398201
 30
0.0
  0
VERTEX
  8
DEM_20px_m
 10
18353.448487947644
 20
-60.41735
 30
0.0
  0
VERTEX
  8
DEM_20px_m
 10
18376.25631284636
 20
-60.499754
 30
0.0
  0
VERTEX
  8
DEM_20px_m
 10
18399.064137745074
 20
-60.507655
 30
0.0
  0
VERTEX
  8
DEM_20px_m
 10
18421.87196264379
 20
-60.580653
 30
0.0
  0
VERTEX
  8
DEM_20px_m
 10
18444.679787542504
 20
-60.597509
 30
0.0
  0
VERTEX
  8
DEM_20px_m
 10
18467.48761244122
 20
-60.682943
 30
0.0
  0
VERTEX
  8
DEM_20px_m
 10
18490.295437339933
 20
-60.700494
 30
0.0
  0
VERTEX
  8
DEM_20px_m
 10
18513.10326223865
 20
-60.786021
 30
0.0
  0
VERTEX
  8
DEM_20px_m
 10
18535.911087137363
 20
-60.873349
 30
0.0
  0
VERTEX
  8
DEM_20px_m
 10
18558.71891203608
 20
-60.892765
 30
0.0
  0
VERTEX
  8
DEM_20px_m
 10
18581.526736934797
 20
-60.991318
 30
0.0
  0
VERTEX
  8
DEM_20px_m
 10
18604.33456183351
 20
-61.028171
 30
0.0
  0
VERTEX
  8
DEM_20px_m
 10
18627.142386732226
 20
-61.123894
 30
0.0
  0
VERTEX
  8
DEM_20px_m
 10
18649.95021163094
 20
-61.152486
 30
0.0
  0
VERTEX
  8
DEM_20px_m
 10
18672.758036529656
 20
-61.22139
 30
0.0
  0
VERTEX
  8
DEM_20px_m
 10
18695.56586142837
 20
-61.22455
 30
0.0
  0
VERTEX
  8
DEM_20px_m
 10
18718.373686327086
 20
-61.293454
 30
0.0
  0
VERTEX
  8
DEM_20px_m
 10
18741.1815112258
 20
-61.362357
 30
0.0
  0
VERTEX
  8
DEM_20px_m
 10
18763.989336124516
 20
-61.365518
 30
0.0
  0
VERTEX
  8
DEM_20px_m
 10
18786.79716102323
 20
-61.422343
 30
0.0
  0
VERTEX
  8
DEM_20px_m
 10
18809.604985921946
 20
-61.416999
 30
0.0
  0
VERTEX
  8
DEM_20px_m
 10
18832.41281082066
 20
-61.475633
 30
0.0
  0
VERTEX
  8
DEM_20px_m
 10
18855.220635719375
 20
-61.480706
 30
0.0
  0
VERTEX
  8
DEM_20px_m
 10
18878.02846061809
 20
-61.551181
 30
0.0
  0
VERTEX
  8
DEM_20px_m
 10
18900.836285516805
 20
-61.556963
 30
0.0
  0
VERTEX
  8
DEM_20px_m
 10
18923.64411041552
 20
-61.627438
 30
0.0
  0
VERTEX
  8
DEM_20px_m
 10
18946.451935314235
 20
-61.636249
 30
0.0
  0
VERTEX
  8
DEM_20px_m
 10
18969.25976021295
 20
-61.720357
 30
0.0
  0
VERTEX
  8
DEM_20px_m
 10
18992.067585111665
 20
-61.802907
 30
0.0
  0
VERTEX
  8
DEM_20px_m
 10
19014.875410010383
 20
-61.819467
 30
0.0
  0
VERTEX
  8
DEM_20px_m
 10
19037.6832349091
 20
-61.91649
 30
0.0
  0
VERTEX
  8
DEM_20px_m
 10
19060.491059807813
 20
-61.956248
 30
0.0
  0
VERTEX
  8
DEM_20px_m
 10
19083.298884706528
 20
-62.012299
 30
0.0
  0
VERTEX
  8
DEM_20px_m
 10
19106.106709605243
 20
-62.043611
 30
0.0
  0
VERTEX
  8
DEM_20px_m
 10
19128.914534503958
 20
-62.150852
 30
0.0
  0
VERTEX
  8
DEM_20px_m
 10
19151.722359402673
 20
-62.186656
 30
0.0
  0
VERTEX
  8
DEM_20px_m
 10
19174.530184301388
 20
-62.296634
 30
0.0
  0
VERTEX
  8
DEM_20px_m
 10
19197.338009200103
 20
-62.331403
 30
0.0
  0
VERTEX
  8
DEM_20px_m
 10
19220.145834098817
 20
-62.439937
 30
0.0
  0
VERTEX
  8
DEM_20px_m
 10
19242.953658997532
 20
-62.549908
 30
0.0
  0
VERTEX
  8
DEM_20px_m
 10
19265.761483896247
 20
-62.597169
 30
0.0
  0
VERTEX
  8
DEM_20px_m
 10
19288.569308794962
 20
-62.709941
 30
0.0
  0
VERTEX
  8
DEM_20px_m
 10
19311.377133693677
 20
-62.746102
 30
0.0
  0
VERTEX
  8
DEM_20px_m
 10
19334.184958592392
 20
-62.851037
 30
0.0
  0
VERTEX
  8
DEM_20px_m
 10
19356.992783491107
 20
-62.877141
 30
0.0
  0
VERTEX
  8
DEM_20px_m
 10
19379.80060838982
 20
-62.982077
 30
0.0
  0
VERTEX
  8
DEM_20px_m
 10
19402.608433288537
 20
-63.008181
 30
0.0
  0
VERTEX
  8
DEM_20px_m
 10
19425.41625818725
 20
-63.113117
 30
0.0
  0
VERTEX
  8
DEM_20px_m
 10
19448.224083085966
 20
-63.13922
 30
0.0
  0
VERTEX
  8
DEM_20px_m
 10
19471.03190798468
 20
-63.244156
 30
0.0
  0
VERTEX
  8
DEM_20px_m
 10
19493.839732883396
 20
-63.354911
 30
0.0
  0
VERTEX
  8
DEM_20px_m
 10
19516.64755778211
 20
-63.365858
 30
0.0
  0
VERTEX
  8
DEM_20px_m
 10
19539.455382680826
 20
-63.456936
 30
0.0
  0
VERTEX
  8
DEM_20px_m
 10
19562.26320757954
 20
-63.448237
 30
0.0
  0
VERTEX
  8
DEM_20px_m
 10
19585.071032478256
 20
-63.508856
 30
0.0
  0
VERTEX
  8
DEM_20px_m
 10
19607.87885737697
 20
-63.488353
 30
0.0
  0
VERTEX
  8
DEM_20px_m
 10
19630.686682275686
 20
-63.548972
 30
0.0
  0
VERTEX
  8
DEM_20px_m
 10
19653.4945071744
 20
-63.550157
 30
0.0
  0
VERTEX
  8
DEM_20px_m
 10
19676.302332073115
 20
-63.637004
 30
0.0
  0
VERTEX
  8
DEM_20px_m
 10
19699.11015697183
 20
-63.723852
 30
0.0
  0
VERTEX
  8
DEM_20px_m
 10
19721.917981870545
 20
-63.740848
 30
0.0
  0
VERTEX
  8
DEM_20px_m
 10
19744.72580676926
 20
-63.827696
 30
0.0
  0
VERTEX
  8
DEM_20px_m
 10
19767.533631667975
 20
-63.844691
 30
0.0
  0
VERTEX
  8
DEM_20px_m
 10
19790.34145656669
 20
-63.931539
 30
0.0
  0
VERTEX
  8
DEM_20px_m
 10
19813.14928146541
 20
-63.948535
 30
0.0
  0
VERTEX
  8
DEM_20px_m
 10
19835.957106364123
 20
-64.0
 30
0.0
  0
VERTEX
  8
DEM_20px_m
 10
19858.76493126284
 20
-64.0
 30
0.0
  0
VERTEX
  8
DEM_20px_m
 10
19881.572756161553
 20
-64.080791
 30
0.0
  0
VERTEX
  8
DEM_20px_m
 10
19904.380581060268
 20
-64.116547
 30
0.0
  0
VERTEX
  8
DEM_20px_m
 10
19927.188405958983
 20
-64.207934
 30
0.0
  0
VERTEX
  8
DEM_20px_m
 10
19949.996230857698
 20
-64.299322
 30
0.0
  0
VERTEX
  8
DEM_20px_m
 10
19972.804055756413
 20
-64.338745
 30
0.0
  0
VERTEX
  8
DEM_20px_m
 10
19995.611880655128
 20
-64.430296
 30
0.0
  0
VERTEX
  8
DEM_20px_m
 10
20018.419705553843
 20
-64.467185
 30
0.0
  0
VERTEX
  8
DEM_20px_m
 10
20041.227530452557
 20
-64.557192
 30
0.0
  0
VERTEX
  8
DEM_20px_m
 10
20064.035355351272
 20
-64.5866
 30
0.0
  0
VERTEX
  8
DEM_20px_m
 10
20086.843180249987
 20
-64.675128
 30
0.0
  0
VERTEX
  8
DEM_20px_m
 10
20109.651005148702
 20
-64.709589
 30
0.0
  0
VERTEX
  8
DEM_20px_m
 10
20132.458830047417
 20
-64.802913
 30
0.0
  0
VERTEX
  8
DEM_20px_m
 10
20155.266654946132
 20
-64.838732
 30
0.0
  0
VERTEX
  8
DEM_20px_m
 10
20178.074479844847
 20
-64.932055
 30
0.0
  0
VERTEX
  8
DEM_20px_m
 10
20200.882304743565
 20
-65.0
 30
0.0
  0
VERTEX
  8
DEM_20px_m
 10
20223.69012964228
 20
-65.0
 30
0.0
  0
VERTEX
  8
DEM_20px_m
 10
20246.497954540995
 20
-65.0
 30
0.0
  0
VERTEX
  8
DEM_20px_m
 10
20269.30577943971
 20
-65.087155
 30
0.0
  0
VERTEX
  8
DEM_20px_m
 10
20292.113604338425
 20
-65.260874
 30
0.0
  0
VERTEX
  8
DEM_20px_m
 10
20314.92142923714
 20
-65.386385
 30
0.0
  0
VERTEX
  8
DEM_20px_m
 10
20337.729254135855
 20
-65.560104
 30
0.0
  0
VERTEX
  8
DEM_20px_m
 10
20360.53707903457
 20
-65.685614
 30
0.0
  0
VERTEX
  8
DEM_20px_m
 10
20383.344903933285
 20
-65.852785
 30
0.0
  0
VERTEX
  8
DEM_20px_m
 10
20406.152728832
 20
-65.998724
 30
0.0
  0
VERTEX
  8
DEM_20px_m
 10
20428.960553730714
 20
-66.0
 30
0.0
  0
VERTEX
  8
DEM_20px_m
 10
20451.76837862943
 20
-66.057576
 30
0.0
  0
VERTEX
  8
DEM_20px_m
 10
20474.576203528144
 20
-66.089519
 30
0.0
  0
VERTEX
  8
DEM_20px_m
 10
20497.38402842686
 20
-66.177834
 30
0.0
  0
VERTEX
  8
DEM_20px_m
 10
20520.191853325574
 20
-66.209778
 30
0.0
  0
VERTEX
  8
DEM_20px_m
 10
20542.99967822429
 20
-66.296071
 30
0.0
  0
VERTEX
  8
DEM_20px_m
 10
20565.807503123004
 20
-66.323451
 30
0.0
  0
VERTEX
  8
DEM_20px_m
 10
20588.61532802172
 20
-66.408815
 30
0.0
  0
VERTEX
  8
DEM_20px_m
 10
20611.423152920433
 20
-66.442817
 30
0.0
  0
VERTEX
  8
DEM_20px_m
 10
20634.23097781915
 20
-66.532275
 30
0.0
  0
VERTEX
  8
DEM_20px_m
 10
20657.038802717863
 20
-66.621733
 30
0.0
  0
VERTEX
  8
DEM_20px_m
 10
20679.84662761658
 20
-66.656255
 30
0.0
  0
VERTEX
  8
DEM_20px_m
 10
20702.654452515293
 20
-66.745713
 30
0.0
  0
VERTEX
  8
DEM_20px_m
 10
20725.462277414008
 20
-66.780796
 30
0.0
  0
VERTEX
  8
DEM_20px_m
 10
20748.270102312723
 20
-66.870349
 30
0.0
  0
VERTEX
  8
DEM_20px_m
 10
20771.077927211438
 20
-66.91378
 30
0.0
  0
VERTEX
  8
DEM_20px_m
 10
20793.885752110153
 20
-67.003737
 30
0.0
  0
VERTEX
  8
DEM_20px_m
 10
20816.693577008868
 20
-67.032625
 30
0.0
  0
VERTEX
  8
DEM_20px_m
 10
20839.501401907582
 20
-67.122581
 30
0.0
  0
VERTEX
  8
DEM_20px_m
 10
20862.309226806297
 20
-67.151469
 30
0.0
  0
VERTEX
  8
DEM_20px_m
 10
20885.117051705012
 20
-67.241425
 30
0.0
  0
VERTEX
  8
DEM_20px_m
 10
20907.924876603727
 20
-67.331381
 30
0.0
  0
VERTEX
  8
DEM_20px_m
 10
20930.732701502442
 20
-67.360269
 30
0.0
  0
VERTEX
  8
DEM_20px_m
 10
20953.540526401157
 20
-67.457835
 30
0.0
  0
VERTEX
  8
DEM_20px_m
 10
20976.348351299872
 20
-67.482489
 30
0.0
  0
VERTEX
  8
DEM_20px_m
 10
20999.156176198587
 20
-67.559775
 30
0.0
  0
VERTEX
  8
DEM_20px_m
 10
21021.9640010973
 20
-67.561688
 30
0.0
  0
VERTEX
  8
DEM_20px_m
 10
21044.771825996017
 20
-67.639693
 30
0.0
  0
VERTEX
  8
DEM_20px_m
 10
21067.57965089473
 20
-67.669135
 30
0.0
  0
VERTEX
  8
DEM_20px_m
 10
21090.387475793446
 20
-67.759862
 30
0.0
  0
VERTEX
  8
DEM_20px_m
 10
21113.19530069216
 20
-67.785667
 30
0.0
  0
VERTEX
  8
DEM_20px_m
 10
21136.003125590876
 20
-67.902029
 30
0.0
  0
VERTEX
  8
DEM_20px_m
 10
21158.810950489595
 20
-68.0
 30
0.0
  0
VERTEX
  8
DEM_20px_m
 10
21181.61877538831
 20
-68.0
 30
0.0
  0
VERTEX
  8
DEM_20px_m
 10
21204.426600287024
 20
-68.082594
 30
0.0
  0
VERTEX
  8
DEM_20px_m
 10
21227.23442518574
 20
-68.107584
 30
0.0
  0
VERTEX
  8
DEM_20px_m
 10
21250.042250084454
 20
-68.217484
 30
0.0
  0
VERTEX
  8
DEM_20px_m
 10
21272.85007498317
 20
-68.251548
 30
0.0
  0
VERTEX
  8
DEM_20px_m
 10
21295.657899881884
 20
-68.369166
 30
0.0
  0
VERTEX
  8
DEM_20px_m
 10
21318.4657247806
 20
-68.414176
 30
0.0
  0
VERTEX
  8
DEM_20px_m
 10
21341.273549679314
 20
-68.534126
 30
0.0
  0
VERTEX
  8
DEM_20px_m
 10
21364.08137457803
 20
-68.654077
 30
0.0
  0
VERTEX
  8
DEM_20px_m
 10
21386.889199476744
 20
-68.705965
 30
0.0
  0
VERTEX
  8
DEM_20px_m
 10
21409.69702437546
 20
-68.825916
 30
0.0
  0
VERTEX
  8
DEM_20px_m
 10
21432.504849274173
 20
-68.877804
 30
0.0
  0
VERTEX
  8
DEM_20px_m
 10
21455.31267417289
 20
-68.997755
 30
0.0
  0
VERTEX
  8
DEM_20px_m
 10
21478.120499071607
 20
-69.049644
 30
0.0
  0
VERTEX
  8
DEM_20px_m
 10
21500.92832397032
 20
-69.169594
 30
0.0
  0
VERTEX
  8
DEM_20px_m
 10
21523.736148869037
 20
-69.221483
 30
0.0
  0
VERTEX
  8
DEM_20px_m
 10
21546.54397376775
 20
-69.341433
 30
0.0
  0
VERTEX
  8
DEM_20px_m
 10
21569.351798666466
 20
-69.405196
 30
0.0
  0
VERTEX
  8
DEM_20px_m
 10
21592.15962356518
 20
-69.519475
 30
0.0
  0
VERTEX
  8
DEM_20px_m
 10
21614.967448463896
 20
-69.633755
 30
0.0
  0
VERTEX
  8
DEM_20px_m
 10
21637.77527336261
 20
-69.703897
 30
0.0
  0
VERTEX
  8
DEM_20px_m
 10
21660.583098261326
 20
-69.818177
 30
0.0
  0
VERTEX
  8
DEM_20px_m
 10
21683.39092316004
 20
-69.888319
 30
0.0
  0
VERTEX
  8
DEM_20px_m
 10
21706.198748058756
 20
-70.0
 30
0.0
  0
VERTEX
  8
DEM_20px_m
 10
21729.00657295747
 20
-70.0
 30
0.0
  0
VERTEX
  8
DEM_20px_m
 10
21751.814397856186
 20
-70.0
 30
0.0
  0
VERTEX
  8
DEM_20px_m
 10
21774.6222227549
 20
-70.0
 30
0.0
  0
VERTEX
  8
DEM_20px_m
 10
21797.430047653615
 20
-70.0
 30
0.0
  0
VERTEX
  8
DEM_20px_m
 10
21820.23787255233
 20
-70.0
 30
0.0
  0
VERTEX
  8
DEM_20px_m
 10
21843.045697451045
 20
-70.0
 30
0.0
  0
VERTEX
  8
DEM_20px_m
 10
21865.85352234976
 20
-70.0
 30
0.0
  0
VERTEX
  8
DEM_20px_m
 10
21888.661347248475
 20
-70.0
 30
0.0
  0
VERTEX
  8
DEM_20px_m
 10
21911.46917214719
 20
-70.0
 30
0.0
  0
VERTEX
  8
DEM_20px_m
 10
21934.276997045905
 20
-70.0
 30
0.0
  0
VERTEX
  8
DEM_20px_m
 10
21957.08482194462
 20
-70.054679
 30
0.0
  0
VERTEX
  8
DEM_20px_m
 10
21979.892646843335
 20
-70.127737
 30
0.0
  0
VERTEX
  8
DEM_20px_m
 10
22002.70047174205
 20
-70.315923
 30
0.0
  0
VERTEX
  8
DEM_20px_m
 10
22025.508296640764
 20
-70.3749
 30
0.0
  0
VERTEX
  8
DEM_20px_m
 10
22048.31612153948
 20
-70.559615
 30
0.0
  0
VERTEX
  8
DEM_20px_m
 10
22071.123946438194
 20
-70.672007
 30
0.0
  0
VERTEX
  8
DEM_20px_m
 10
22093.93177133691
 20
-70.861833
 30
0.0
  0
VERTEX
  8
DEM_20px_m
 10
22116.739596235624
 20
-71.051658
 30
0.0
  0
VERTEX
  8
DEM_20px_m
 10
22139.54742113434
 20
-71.139043
 30
0.0
  0
VERTEX
  8
DEM_20px_m
 10
22162.355246033054
 20
-71.328868
 30
0.0
  0
VERTEX
  8
DEM_20px_m
 10
22185.16307093177
 20
-71.410688
 30
0.0
  0
VERTEX
  8
DEM_20px_m
 10
22207.970895830484
 20
-71.502186
 30
0.0
  0
VERTEX
  8
DEM_20px_m
 10
22230.7787207292
 20
-71.494422
 30
0.0
  0
VERTEX
  8
DEM_20px_m
 10
22253.586545627913
 20
-71.581642
 30
0.0
  0
VERTEX
  8
DEM_20px_m
 10
22276.39437052663
 20
-71.573878
 30
0.0
  0
VERTEX
  8
DEM_20px_m
 10
22299.202195425343
 20
-71.661098
 30
0.0
  0
VERTEX
  8
DEM_20px_m
 10
22322.010020324058
 20
-71.748318
 30
0.0
  0
VERTEX
  8
DEM_20px_m
 10
22344.817845222773
 20
-71.740554
 30
0.0
  0
VERTEX
  8
DEM_20px_m
 10
22367.625670121488
 20
-71.827774
 30
0.0
  0
VERTEX
  8
DEM_20px_m
 10
22390.433495020203
 20
-71.845299
 30
0.0
  0
VERTEX
  8
DEM_20px_m
 10
22413.24131991892
 20
-71.953031
 30
0.0
  0
VERTEX
  8
DEM_20px_m
 10
22436.049144817636
 20
-71.975603
 30
0.0
  0
VERTEX
  8
DEM_20px_m
 10
22458.85696971635
 20
-72.08589
 30
0.0
  0
VERTEX
  8
DEM_20px_m
 10
22481.664794615066
 20
-72.118484
 30
0.0
  0
VERTEX
  8
DEM_20px_m
 10
22504.47261951378
 20
-72.231812
 30
0.0
  0
VERTEX
  8
DEM_20px_m
 10
22527.280444412496
 20
-72.246887
 30
0.0
  0
VERTEX
  8
DEM_20px_m
 10
22550.08826931121
 20
-72.347697
 30
0.0
  0
VERTEX
  8
DEM_20px_m
 10
22572.896094209926
 20
-72.448507
 30
0.0
  0
VERTEX
  8
DEM_20px_m
 10
22595.70391910864
 20
-72.461104
 30
0.0
  0
VERTEX
  8
DEM_20px_m
 10
22618.511744007355
 20
-72.592114
 30
0.0
  0
VERTEX
  8
DEM_20px_m
 10
22641.31956890607
 20
-72.63889
 30
0.0
  0
VERTEX
  8
DEM_20px_m
 10
22664.127393804785
 20
-72.7699
 30
0.0
  0
VERTEX
  8
DEM_20px_m
 10
22686.9352187035
 20
-72.831553
 30
0.0
  0
VERTEX
  8
DEM_20px_m
 10
22709.743043602215
 20
-72.972441
 30
0.0
  0
VERTEX
  8
DEM_20px_m
 10
22732.550868500934
 20
-73.03643
 30
0.0
  0
VERTEX
  8
DEM_20px_m
 10
22755.35869339965
 20
-73.175659
 30
0.0
  0
VERTEX
  8
DEM_20px_m
 10
22778.166518298363
 20
-73.243575
 30
0.0
  0
VERTEX
  8
DEM_20px_m
 10
22800.97434319708
 20
-73.383255
 30
0.0
  0
VERTEX
  8
DEM_20px_m
 10
22823.782168095793
 20
-73.522936
 30
0.0
  0
VERTEX
  8
DEM_20px_m
 10
22846.589992994508
 20
-73.582081
 30
0.0
  0
VERTEX
  8
DEM_20px_m
 10
22869.397817893223
 20
-73.72269
 30
0.0
  0
VERTEX
  8
DEM_20px_m
 10
22892.205642791938
 20
-73.765996
 30
0.0
  0
VERTEX
  8
DEM_20px_m
 10
22915.013467690653
 20
-73.90407
 30
0.0
  0
VERTEX
  8
DEM_20px_m
 10
22937.821292589368
 20
-73.957606
 30
0.0
  0
VERTEX
  8
DEM_20px_m
 10
22960.629117488083
 20
-74.059587
 30
0.0
  0
VERTEX
  8
DEM_20px_m
 10
22983.436942386797
 20
-74.093328
 30
0.0
  0
VERTEX
  8
DEM_20px_m
 10
23006.244767285512
 20
-74.177374
 30
0.0
  0
VERTEX
  8
DEM_20px_m
 10
23029.052592184227
 20
-74.268014
 30
0.0
  0
VERTEX
  8
DEM_20px_m
 10
23051.860417082942
 20
-74.294804
 30
0.0
  0
VERTEX
  8
DEM_20px_m
 10
23074.668241981657
 20
-74.387334
 30
0.0
  0
VERTEX
  8
DEM_20px_m
 10
23097.476066880372
 20
-74.412634
 30
0.0
  0
VERTEX
  8
DEM_20px_m
 10
23120.283891779087
 20
-74.506655
 30
0.0
  0
VERTEX
  8
DEM_20px_m
 10
23143.0917166778
 20
-74.531955
 30
0.0
  0
VERTEX
  8
DEM_20px_m
 10
23165.899541576517
 20
-74.625975
 30
0.0
  0
VERTEX
  8
DEM_20px_m
 10
23188.70736647523
 20
-74.651275
 30
0.0
  0
VERTEX
  8
DEM_20px_m
 10
23211.515191373946
 20
-74.745296
 30
0.0
  0
VERTEX
  8
DEM_20px_m
 10
23234.32301627266
 20
-74.770596
 30
0.0
  0
VERTEX
  8
DEM_20px_m
 10
23257.130841171376
 20
-74.864617
 30
0.0
  0
VERTEX
  8
DEM_20px_m
 10
23279.93866607009
 20
-74.958637
 30
0.0
  0
VERTEX
  8
DEM_20px_m
 10
23302.746490968806
 20
-74.983937
 30
0.0
  0
VERTEX
  8
DEM_20px_m
 10
23325.55431586752
 20
-75.088613
 30
0.0
  0
VERTEX
  8
DEM_20px_m
 10
23348.362140766236
 20
-75.127301
 30
0.0
  0
VERTEX
  8
DEM_20px_m
 10
23371.16996566495
 20
-75.235806
 30
0.0
  0
VERTEX
  8
DEM_20px_m
 10
23393.977790563666
 20
-75.298221
 30
0.0
  0
VERTEX
  8
DEM_20px_m
 10
23416.78561546238
 20
-75.465084
 30
0.0
  0
VERTEX
  8
DEM_20px_m
 10
23439.593440361095
 20
-75.505068
 30
0.0
  0
VERTEX
  8
DEM_20px_m
 10
23462.40126525981
 20
-75.578387
 30
0.0
  0
VERTEX
  8
DEM_20px_m
 10
23485.209090158525
 20
-75.589068
 30
0.0
  0
VERTEX
  8
DEM_20px_m
 10
23508.01691505724
 20
-75.662387
 30
0.0
  0
VERTEX
  8
DEM_20px_m
 10
23530.824739955955
 20
-75.756532
 30
0.0
  0
VERTEX
  8
DEM_20px_m
 10
23553.63256485467
 20
-75.78072
 30
0.0
  0
VERTEX
  8
DEM_20px_m
 10
23576.440389753385
 20
-75.884513
 30
0.0
  0
VERTEX
  8
DEM_20px_m
 10
23599.2482146521
 20
-75.908701
 30
0.0
  0
VERTEX
  8
DEM_20px_m
 10
23622.056039550815
 20
-76.012495
 30
0.0
  0
VERTEX
  8
DEM_20px_m
 10
23644.86386444953
 20
-76.036683
 30
0.0
  0
VERTEX
  8
DEM_20px_m
 10
23667.671689348248
 20
-76.140476
 30
0.0
  0
VERTEX
  8
DEM_20px_m
 10
23690.479514246963
 20
-76.164664
 30
0.0
  0
VERTEX
  8
DEM_20px_m
 10
23713.287339145678
 20
-76.268457
 30
0.0
  0
VERTEX
  8
DEM_20px_m
 10
23736.095164044393
 20
-76.292645
 30
0.0
  0
VERTEX
  8
DEM_20px_m
 10
23758.902988943108
 20
-76.396439
 30
0.0
  0
VERTEX
  8
DEM_20px_m
 10
23781.710813841823
 20
-76.500232
 30
0.0
  0
VERTEX
  8
DEM_20px_m
 10
23804.518638740537
 20
-76.519528
 30
0.0
  0
VERTEX
  8
DEM_20px_m
 10
23827.326463639252
 20
-76.569438
 30
0.0
  0
VERTEX
  8
DEM_20px_m
 10
23850.134288537967
 20
-76.550132
 30
0.0
  0
VERTEX
  8
DEM_20px_m
 10
23872.942113436682
 20
-76.627866
 30
0.0
  0
VERTEX
  8
DEM_20px_m
 10
23895.749938335397
 20
-76.685784
 30
0.0
  0
VERTEX
  8
DEM_20px_m
 10
23918.557763234112
 20
-76.889665
 30
0.0
  0
VERTEX
  8
DEM_20px_m
 10
23941.365588132827
 20
-77.002893
 30
0.0
  0
VERTEX
  8
DEM_20px_m
 10
23964.17341303154
 20
-77.206774
 30
0.0
  0
VERTEX
  8
DEM_20px_m
 10
23986.98123793026
 20
-77.410655
 30
0.0
  0
VERTEX
  8
DEM_20px_m
 10
24009.789062828975
 20
-77.523883
 30
0.0
  0
VERTEX
  8
DEM_20px_m
 10
24032.59688772769
 20
-77.727764
 30
0.0
  0
VERTEX
  8
DEM_20px_m
 10
24055.404712626405
 20
-77.840992
 30
0.0
  0
VERTEX
  8
DEM_20px_m
 10
24078.21253752512
 20
-78.032892
 30
0.0
  0
VERTEX
  8
DEM_20px_m
 10
24101.020362423835
 20
-78.03808
 30
0.0
  0
VERTEX
  8
DEM_20px_m
 10
24123.82818732255
 20
-78.178032
 30
0.0
  0
VERTEX
  8
DEM_20px_m
 10
24146.636012221265
 20
-78.218339
 30
0.0
  0
VERTEX
  8
DEM_20px_m
 10
24169.44383711998
 20
-78.358292
 30
0.0
  0
VERTEX
  8
DEM_20px_m
 10
24192.251662018694
 20
-78.348135
 30
0.0
  0
VERTEX
  8
DEM_20px_m
 10
24215.05948691741
 20
-78.435649
 30
0.0
  0
VERTEX
  8
DEM_20px_m
 10
24237.867311816124
 20
-78.523163
 30
0.0
  0
VERTEX
  8
DEM_20px_m
 10
24260.67513671484
 20
-78.51223
 30
0.0
  0
VERTEX
  8
DEM_20px_m
 10
24283.482961613554
 20
-78.599744
 30
0.0
  0
VERTEX
  8
DEM_20px_m
 10
24306.29078651227
 20
-78.58881
 30
0.0
  0
VERTEX
  8
DEM_20px_m
 10
24329.098611410984
 20
-78.676324
 30
0.0
  0
VERTEX
  8
DEM_20px_m
 10
24351.9064363097
 20
-78.665391
 30
0.0
  0
VERTEX
  8
DEM_20px_m
 10
24374.714261208414
 20
-78.777039
 30
0.0
  0
VERTEX
  8
DEM_20px_m
 10
24397.52208610713
 20
-78.795092
 30
0.0
  0
VERTEX
  8
DEM_20px_m
 10
24420.329911005843
 20
-78.905956
 30
0.0
  0
VERTEX
  8
DEM_20px_m
 10
24443.13773590456
 20
-78.924009
 30
0.0
  0
VERTEX
  8
DEM_20px_m
 10
24465.945560803273
 20
-79.034873
 30
0.0
  0
VERTEX
  8
DEM_20px_m
 10
24488.753385701988
 20
-79.145738
 30
0.0
  0
VERTEX
  8
DEM_20px_m
 10
24511.561210600703
 20
-79.16379
 30
0.0
  0
VERTEX
  8
DEM_20px_m
 10
24534.369035499418
 20
-79.274655
 30
0.0
  0
VERTEX
  8
DEM_20px_m
 10
24557.176860398133
 20
-79.292707
 30
0.0
  0
VERTEX
  8
DEM_20px_m
 10
24579.984685296848
 20
-79.403572
 30
0.0
  0
VERTEX
  8
DEM_20px_m
 10
24602.792510195562
 20
-79.421624
 30
0.0
  0
VERTEX
  8
DEM_20px_m
 10
24625.600335094277
 20
-79.532489
 30
0.0
  0
VERTEX
  8
DEM_20px_m
 10
24648.408159992992
 20
-79.550541
 30
0.0
  0
VERTEX
  8
DEM_20px_m
 10
24671.215984891707
 20
-79.661406
 30
0.0
  0
VERTEX
  8
DEM_20px_m
 10
24694.023809790422
 20
-79.679458
 30
0.0
  0
VERTEX
  8
DEM_20px_m
 10
24716.831634689137
 20
-79.790323
 30
0.0
  0
VERTEX
  8
DEM_20px_m
 10
24739.639459587852
 20
-79.901187
 30
0.0
  0
VERTEX
  8
DEM_20px_m
 10
24762.447284486567
 20
-79.93472
 30
0.0
  0
VERTEX
  8
DEM_20px_m
 10
24785.25510938528
 20
-80.0
 30
0.0
  0
VERTEX
  8
DEM_20px_m
 10
24808.062934283997
 20
-80.0
 30
0.0
  0
VERTEX
  8
DEM_20px_m
 10
24830.87075918271
 20
-80.0
 30
0.0
  0
VERTEX
  8
DEM_20px_m
 10
24853.678584081426
 20
-80.0
 30
0.0
  0
VERTEX
  8
DEM_20px_m
 10
24876.48640898014
 20
-80.035659
 30
0.0
  0
VERTEX
  8
DEM_20px_m
 10
24899.294233878856
 20
-80.103789
 30
0.0
  0
VERTEX
  8
DEM_20px_m
 10
24922.10205877757
 20
-80.254109
 30
0.0
  0
VERTEX
  8
DEM_20px_m
 10
24944.90988367629
 20
-80.404428
 30
0.0
  0
VERTEX
  8
DEM_20px_m
 10
24967.717708575005
 20
-80.476388
 30
0.0
  0
VERTEX
  8
DEM_20px_m
 10
24990.52553347372
 20
-80.626707
 30
0.0
  0
VERTEX
  8
DEM_20px_m
 10
25013.333358372434
 20
-80.698703
 30
0.0
  0
VERTEX
  8
DEM_20px_m
 10
25036.14118327115
 20
-80.849143
 30
0.0
  0
VERTEX
  8
DEM_20px_m
 10
25058.949008169864
 20
-80.914494
 30
0.0
  0
VERTEX
  8
DEM_20px_m
 10
25081.75683306858
 20
-81.061103
 30
0.0
  0
VERTEX
  8
DEM_20px_m
 10
25104.564657967294
 20
-81.122456
 30
0.0
  0
VERTEX
  8
DEM_20px_m
 10
25127.37248286601
 20
-81.269065
 30
0.0
  0
VERTEX
  8
DEM_20px_m
 10
25150.180307764724
 20
-81.330418
 30
0.0
  0
VERTEX
  8
DEM_20px_m
 10
25172.98813266344
 20
-81.477027
 30
0.0
  0
VERTEX
  8
DEM_20px_m
 10
25195.795957562153
 20
-81.623636
 30
0.0
  0
VERTEX
  8
DEM_20px_m
 10
25218.60378246087
 20
-81.684988
 30
0.0
  0
VERTEX
  8
DEM_20px_m
 10
25241.411607359583
 20
-81.831597
 30
0.0
  0
VERTEX
  8
DEM_20px_m
 10
25264.219432258302
 20
-81.89295
 30
0.0
  0
VERTEX
  8
DEM_20px_m
 10
25287.027257157017
 20
-82.039559
 30
0.0
  0
VERTEX
  8
DEM_20px_m
 10
25309.83508205573
 20
-82.078483
 30
0.0
  0
VERTEX
  8
DEM_20px_m
 10
25332.642906954447
 20
-82.23151
 30
0.0
  0
VERTEX
  8
DEM_20px_m
 10
25355.45073185316
 20
-82.259751
 30
0.0
  0
VERTEX
  8
DEM_20px_m
 10
25378.258556751876
 20
-82.412777
 30
0.0
  0
VERTEX
  8
DEM_20px_m
 10
25401.06638165059
 20
-82.441018
 30
0.0
  0
VERTEX
  8
DEM_20px_m
 10
25423.874206549306
 20
-82.594045
 30
0.0
  0
VERTEX
  8
DEM_20px_m
 10
25446.68203144802
 20
-82.747071
 30
0.0
  0
VERTEX
  8
DEM_20px_m
 10
25469.489856346736
 20
-82.775312
 30
0.0
  0
VERTEX
  8
DEM_20px_m
 10
25492.29768124545
 20
-82.928339
 30
0.0
  0
VERTEX
  8
DEM_20px_m
 10
25515.105506144166
 20
-82.95658
 30
0.0
  0
VERTEX
  8
DEM_20px_m
 10
25537.91333104288
 20
-83.109606
 30
0.0
  0
VERTEX
  8
DEM_20px_m
 10
25560.721155941595
 20
-83.137847
 30
0.0
  0
VERTEX
  8
DEM_20px_m
 10
25583.52898084031
 20
-83.290874
 30
0.0
  0
VERTEX
  8
DEM_20px_m
 10
25606.336805739025
 20
-83.319115
 30
0.0
  0
VERTEX
  8
DEM_20px_m
 10
25629.14463063774
 20
-83.472141
 30
0.0
  0
VERTEX
  8
DEM_20px_m
 10
25651.952455536455
 20
-83.500382
 30
0.0
  0
VERTEX
  8
DEM_20px_m
 10
25674.76028043517
 20
-83.653409
 30
0.0
  0
VERTEX
  8
DEM_20px_m
 10
25697.568105333885
 20
-83.806435
 30
0.0
  0
VERTEX
  8
DEM_20px_m
 10
25697.568105333885
 20
-83.806435
 30
0.0
  0
VERTEX
  8
DEM_20px_m
 10
25723.081337060645
 20
-83.834676
 30
0.0
  0
VERTEX
  8
DEM_20px_m
 10
25748.594568787405
 20
-83.987703
 30
0.0
  0
VERTEX
  8
DEM_20px_m
 10
25774.107800514164
 20
-84.136873
 30
0.0
  0
VERTEX
  8
DEM_20px_m
 10
25799.621032240924
 20
-84.264714
 30
0.0
  0
VERTEX
  8
DEM_20px_m
 10
25825.134263967684
 20
-84.49815
 30
0.0
  0
VERTEX
  8
DEM_20px_m
 10
25850.647495694444
 20
-84.629548
 30
0.0
  0
VERTEX
  8
DEM_20px_m
 10
25876.160727421207
 20
-84.994381
 30
0.0
  0
VERTEX
  8
DEM_20px_m
 10
25901.67395914797
 20
-85.068662
 30
0.0
  0
VERTEX
  8
DEM_20px_m
 10
25927.187190874734
 20
-85.314784
 30
0.0
  0
VERTEX
  8
DEM_20px_m
 10
25952.700422601498
 20
-85.432741
 30
0.0
  0
VERTEX
  8
DEM_20px_m
 10
25978.21365432826
 20
-85.660645
 30
0.0
  0
VERTEX
  8
DEM_20px_m
 10
26003.726886055025
 20
-85.888549
 30
0.0
  0
VERTEX
  8
DEM_20px_m
 10
26029.2401177818
 20
-85.992488
 30
0.0
  0
VERTEX
  8
DEM_20px_m
 10
26054.753349508577
 20
-86.220392
 30
0.0
  0
VERTEX
  8
DEM_20px_m
 10
26080.26658123535
 20
-86.448296
 30
0.0
  0
VERTEX
  8
DEM_20px_m
 10
26105.779812962126
 20
-86.676201
 30
0.0
  0
VERTEX
  8
DEM_20px_m
 10
26131.2930446889
 20
-86.771463
 30
0.0
  0
VERTEX
  8
DEM_20px_m
 10
26156.80627641568
 20
-86.863788
 30
0.0
  0
VERTEX
  8
DEM_20px_m
 10
26182.31775144762
 20
-86.956113
 30
0.0
  0
VERTEX
  8
DEM_20px_m
 10
26207.829226479564
 20
-87.095039
 30
0.0
  0
VERTEX
  8
DEM_20px_m
 10
26233.340701511504
 20
-87.152948
 30
0.0
  0
VERTEX
  8
DEM_20px_m
 10
26258.852176543445
 20
-87.32384
 30
0.0
  0
VERTEX
  8
DEM_20px_m
 10
26284.36365157539
 20
-87.494732
 30
0.0
  0
VERTEX
  8
DEM_20px_m
 10
26309.87512660733
 20
-87.665624
 30
0.0
  0
VERTEX
  8
DEM_20px_m
 10
26335.38660163927
 20
-87.836516
 30
0.0
  0
VERTEX
  8
DEM_20px_m
 10
26360.898076671216
 20
-87.894425
 30
0.0
  0
VERTEX
  8
DEM_20px_m
 10
26386.409551703156
 20
-88.065317
 30
0.0
  0
VERTEX
  8
DEM_20px_m
 10
26411.921026735097
 20
-88.148603
 30
0.0
  0
VERTEX
  8
DEM_20px_m
 10
26437.43250176704
 20
-88.220961
 30
0.0
  0
VERTEX
  8
DEM_20px_m
 10
26462.943976798982
 20
-88.191421
 30
0.0
  0
VERTEX
  8
DEM_20px_m
 10
26490.63999202422
 20
-88.263779
 30
0.0
  0
VERTEX
  8
DEM_20px_m
 10
26518.336007249454
 20
-88.336137
 30
0.0
  0
VERTEX
  8
DEM_20px_m
 10
26546.03202247469
 20
-88.378955
 30
0.0
  0
VERTEX
  8
DEM_20px_m
 10
26573.728037699926
 20
-88.451313
 30
0.0
  0
VERTEX
  8
DEM_20px_m
 10
26601.424052925162
 20
-88.52367
 30
0.0
  0
VERTEX
  8
DEM_20px_m
 10
26629.120068150398
 20
-88.494131
 30
0.0
  0
VERTEX
  8
DEM_20px_m
 10
26656.816083375634
 20
-88.566489
 30
0.0
  0
VERTEX
  8
DEM_20px_m
 10
26682.32755840757
 20
-88.638846
 30
0.0
  0
VERTEX
  8
DEM_20px_m
 10
26707.839033439504
 20
-88.711204
 30
0.0
  0
VERTEX
  8
DEM_20px_m
 10
26733.35050847144
 20
-88.783562
 30
0.0
  0
VERTEX
  8
DEM_20px_m
 10
26758.86198350338
 20
-88.754022
 30
0.0
  0
VERTEX
  8
DEM_20px_m
 10
26784.373458535316
 20
-88.864266
 30
0.0
  0
VERTEX
  8
DEM_20px_m
 10
26809.88493356725
 20
-88.978474
 30
0.0
  0
VERTEX
  8
DEM_20px_m
 10
26835.396408599187
 20
-89.092683
 30
0.0
  0
VERTEX
  8
DEM_20px_m
 10
26860.907883631124
 20
-89.206892
 30
0.0
  0
VERTEX
  8
DEM_20px_m
 10
26886.41935866306
 20
-89.235544
 30
0.0
  0
VERTEX
  8
DEM_20px_m
 10
26911.930833694994
 20
-89.349753
 30
0.0
  0
VERTEX
  8
DEM_20px_m
 10
26937.44230872693
 20
-89.463962
 30
0.0
  0
VERTEX
  8
DEM_20px_m
 10
26962.95378375887
 20
-89.57817
 30
0.0
  0
VERTEX
  8
DEM_20px_m
 10
26962.95378375887
 20
-89.57817
 30
0.0
  0
VERTEX
  8
DEM_20px_m
 10
26988.26853931519
 20
-89.606823
 30
0.0
  0
VERTEX
  8
DEM_20px_m
 10
27013.583294871514
 20
-89.721031
 30
0.0
  0
VERTEX
  8
DEM_20px_m
 10
27038.898050427837
 20
-89.83524
 30
0.0
  0
VERTEX
  8
DEM_20px_m
 10
27064.21280598416
 20
-89.949449
 30
0.0
  0
VERTEX
  8
DEM_20px_m
 10
27089.527561540483
 20
-89.978101
 30
0.0
  0
VERTEX
  8
DEM_20px_m
 10
27114.8423170968
 20
-90.0
 30
0.0
  0
VERTEX
  8
DEM_20px_m
 10
27140.157072653124
 20
-90.0
 30
0.0
  0
VERTEX
  8
DEM_20px_m
 10
27165.471828209447
 20
-90.0
 30
0.0
  0
VERTEX
  8
DEM_20px_m
 10
27190.78658376576
 20
-90.0
 30
0.0
  0
VERTEX
  8
DEM_20px_m
 10
27216.10133932207
 20
-90.05186
 30
0.0
  0
VERTEX
  8
DEM_20px_m
 10
27241.416094878383
 20
-90.290215
 30
0.0
  0
VERTEX
  8
DEM_20px_m
 10
27266.730850434695
 20
-90.353302
 30
0.0
  0
VERTEX
  8
DEM_20px_m
 10
27292.045605991007
 20
-90.528571
 30
0.0
  0
VERTEX
  8
DEM_20px_m
 10
27317.36036154732
 20
-90.70384
 30
0.0
  0
VERTEX
  8
DEM_20px_m
 10
27342.67511710363
 20
-90.766927
 30
0.0
  0
VERTEX
  8
DEM_20px_m
 10
27367.989872659942
 20
-90.942196
 30
0.0
  0
VERTEX
  8
DEM_20px_m
 10
27393.30462821626
 20
-90.993951
 30
0.0
  0
VERTEX
  8
DEM_20px_m
 10
27418.61938377258
 20
-91.153106
 30
0.0
  0
VERTEX
  8
DEM_20px_m
 10
27443.9341393289
 20
-91.312261
 30
0.0
  0
VERTEX
  8
DEM_20px_m
 10
27469.24889488522
 20
-91.354917
 30
0.0
  0
VERTEX
  8
DEM_20px_m
 10
27494.563650441538
 20
-91.588552
 30
0.0
  0
VERTEX
  8
DEM_20px_m
 10
27519.878405997857
 20
-91.671611
 30
0.0
  0
VERTEX
  8
DEM_20px_m
 10
27545.193161554176
 20
-91.863217
 30
0.0
  0
VERTEX
  8
DEM_20px_m
 10
27570.507917110495
 20
-92.054824
 30
0.0
  0
VERTEX
  8
DEM_20px_m
 10
27593.00992204944
 20
-92.137883
 30
0.0
  0
VERTEX
  8
DEM_20px_m
 10
27615.511926988387
 20
-92.220942
 30
0.0
  0
VERTEX
  8
DEM_20px_m
 10
27638.013931927333
 20
-92.412549
 30
0.0
  0
VERTEX
  8
DEM_20px_m
 10
27660.515936866275
 20
-92.495608
 30
0.0
  0
VERTEX
  8
DEM_20px_m
 10
27683.01794180522
 20
-92.687214
 30
0.0
  0
VERTEX
  8
DEM_20px_m
 10
27705.519946744167
 20
-92.770273
 30
0.0
  0
VERTEX
  8
DEM_20px_m
 10
27728.021951683113
 20
-92.96188
 30
0.0
  0
VERTEX
  8
DEM_20px_m
 10
27750.52395662206
 20
-93.044939
 30
0.0
  0
VERTEX
  8
DEM_20px_m
 10
27773.025961561005
 20
-93.236546
 30
0.0
  0
VERTEX
  8
DEM_20px_m
 10
27795.52796649995
 20
-93.319605
 30
0.0
  0
VERTEX
  8
DEM_20px_m
 10
27818.029971438897
 20
-93.402663
 30
0.0
  0
VERTEX
  8
DEM_20px_m
 10
27840.531976377843
 20
-93.59427
 30
0.0
  0
VERTEX
  8
DEM_20px_m
 10
27863.033981316785
 20
-93.677329
 30
0.0
  0
VERTEX
  8
DEM_20px_m
 10
27885.53598625573
 20
-93.868936
 30
0.0
  0
VERTEX
  8
DEM_20px_m
 10
27908.037991194677
 20
-93.951995
 30
0.0
  0
VERTEX
  8
DEM_20px_m
 10
27930.539996133622
 20
-94.118112
 30
0.0
  0
VERTEX
  8
DEM_20px_m
 10
27953.04200107257
 20
-94.309719
 30
0.0
  0
VERTEX
  8
DEM_20px_m
 10
27975.544006011514
 20
-94.392778
 30
0.0
  0
VERTEX
  8
DEM_20px_m
 10
27996.613220181658
 20
-94.474978
 30
0.0
  0
VERTEX
  8
DEM_20px_m
 10
28017.682434351802
 20
-94.667444
 30
0.0
  0
VERTEX
  8
DEM_20px_m
 10
28038.751648521942
 20
-94.737495
 30
0.0
  0
VERTEX
  8
DEM_20px_m
 10
28059.820862692086
 20
-94.836434
 30
0.0
  0
VERTEX
  8
DEM_20px_m
 10
28080.89007686223
 20
-95.0
 30
0.0
  0
VERTEX
  8
DEM_20px_m
 10
28101.959291032374
 20
-95.0
 30
0.0
  0
VERTEX
  8
DEM_20px_m
 10
28123.028505202517
 20
-95.0
 30
0.0
  0
VERTEX
  8
DEM_20px_m
 10
28144.097719372658
 20
-95.0
 30
0.0
  0
VERTEX
  8
DEM_20px_m
 10
28165.1669335428
 20
-95.0
 30
0.0
  0
VERTEX
  8
DEM_20px_m
 10
28186.236147712945
 20
-95.203102
 30
0.0
  0
VERTEX
  8
DEM_20px_m
 10
28207.30536188309
 20
-95.725833
 30
0.0
  0
VERTEX
  8
DEM_20px_m
 10
28228.374576053233
 20
-95.962895
 30
0.0
  0
VERTEX
  8
DEM_20px_m
 10
28249.443790223373
 20
-96.199957
 30
0.0
  0
VERTEX
  8
DEM_20px_m
 10
28270.513004393517
 20
-96.722688
 30
0.0
  0
VERTEX
  8
DEM_20px_m
 10
28291.58221856366
 20
-96.774169
 30
0.0
  0
VERTEX
  8
DEM_20px_m
 10
28312.651432733805
 20
-96.85117
 30
0.0
  0
VERTEX
  8
DEM_20px_m
 10
28333.72064690395
 20
-97.201966
 30
0.0
  0
VERTEX
  8
DEM_20px_m
 10
28354.78986107409
 20
-97.305122
 30
0.0
  0
VERTEX
  8
DEM_20px_m
 10
28375.859075244232
 20
-97.457611
 30
0.0
  0
VERTEX
  8
DEM_20px_m
 10
28396.928289414376
 20
-97.892244
 30
0.0
  0
VERTEX
  8
DEM_20px_m
 10
28417.99750358452
 20
-97.999609
 30
0.0
  0
VERTEX
  8
DEM_20px_m
 10
28439.066717754664
 20
-98.113395
 30
0.0
  0
VERTEX
  8
DEM_20px_m
 10
28460.135931924804
 20
-98.590788
 30
0.0
  0
VERTEX
  8
DEM_20px_m
 10
28481.205146094948
 20
-98.684969
 30
0.0
  0
VERTEX
  8
DEM_20px_m
 10
28502.27436026509
 20
-98.774164
 30
0.0
  0
VERTEX
  8
DEM_20px_m
 10
28523.343574435235
 20
-99.253039
 30
0.0
  0
VERTEX
  8
DEM_20px_m
 10
28544.41278860538
 20
-99.377184
 30
0.0
  0
VERTEX
  8
DEM_20px_m
 10
28565.48200277552
 20
-99.521322
 30
0.0
  0
VERTEX
  8
DEM_20px_m
 10
28586.551216945663
 20
-100.0
 30
0.0
  0
VERTEX
  8
DEM_20px_m
 10
28607.620431115807
 20
-100.0
 30
0.0
  0
VERTEX
  8
DEM_20px_m
 10
28628.68964528595
 20
-100.0
 30
0.0
  0
VERTEX
  8
DEM_20px_m
 10
28649.758859456095
 20
-100.0
 30
0.0
  0
VERTEX
  8
DEM_20px_m
 10
28670.82807362624
 20
-100.0
 30
0.0
  0
VERTEX
  8
DEM_20px_m
 10
28691.89728779638
 20
-100.0
 30
0.0
  0
VERTEX
  8
DEM_20px_m
 10
28712.966501966523
 20
-100.0
 30
0.0
  0
VERTEX
  8
DEM_20px_m
 10
28734.035716136666
 20
-100.0
 30
0.0
  0
VERTEX
  8
DEM_20px_m
 10
28755.10493030681
 20
-100.0
 30
0.0
  0
VERTEX
  8
DEM_20px_m
 10
28776.174144476954
 20
-100.0
 30
0.0
  0
VERTEX
  8
DEM_20px_m
 10
28797.243358647094
 20
-100.0
 30
0.0
  0
VERTEX
  8
DEM_20px_m
 10
28818.312572817238
 20
-100.0
 30
0.0
  0
VERTEX
  8
DEM_20px_m
 10
28839.381786987382
 20
-100.0
 30
0.0
  0
VERTEX
  8
DEM_20px_m
 10
28860.451001157526
 20
-100.0
 30
0.0
  0
VERTEX
  8
DEM_20px_m
 10
28881.52021532767
 20
-100.0
 30
0.0
  0
VERTEX
  8
DEM_20px_m
 10
28902.58942949781
 20
-100.0
 30
0.0
  0
VERTEX
  8
DEM_20px_m
 10
28923.658643667954
 20
-100.0
 30
0.0
  0
VERTEX
  8
DEM_20px_m
 10
28944.727857838097
 20
-100.0
 30
0.0
  0
VERTEX
  8
DEM_20px_m
 10
28965.79707200824
 20
-100.0
 30
0.0
  0
VERTEX
  8
DEM_20px_m
 10
28986.866286178385
 20
-100.0
 30
0.0
  0
VERTEX
  8
DEM_20px_m
 10
29007.935500348525
 20
-100.0
 30
0.0
  0
VERTEX
  8
DEM_20px_m
 10
29029.00471451867
 20
-100.0
 30
0.0
  0
VERTEX
  8
DEM_20px_m
 10
29050.073928688813
 20
-100.0
 30
0.0
  0
VERTEX
  8
DEM_20px_m
 10
29071.143142858957
 20
-100.0
 30
0.0
  0
VERTEX
  8
DEM_20px_m
 10
29092.2123570291
 20
-100.00658
 30
0.0
  0
VERTEX
  8
DEM_20px_m
 10
29113.28157119924
 20
-100.0108
 30
0.0
  0
VERTEX
  8
DEM_20px_m
 10
29134.350785369385
 20
-100.01502
 30
0.0
  0
VERTEX
  8
DEM_20px_m
 10
29155.41999953953
 20
-100.11411
 30
0.0
  0
VERTEX
  8
DEM_20px_m
 10
29176.489213709672
 20
-100.11833
 30
0.0
  0
VERTEX
  8
DEM_20px_m
 10
29197.558427879816
 20
-100.12255
 30
0.0
  0
VERTEX
  8
DEM_20px_m
 10
29218.627642049956
 20
-100.22165
 30
0.0
  0
VERTEX
  8
DEM_20px_m
 10
29239.6968562201
 20
-100.22586
 30
0.0
  0
VERTEX
  8
DEM_20px_m
 10
29260.766070390244
 20
-100.23008
 30
0.0
  0
VERTEX
  8
DEM_20px_m
 10
29281.835284560388
 20
-100.2343
 30
0.0
  0
VERTEX
  8
DEM_20px_m
 10
29302.90449873053
 20
-100.3334
 30
0.0
  0
VERTEX
  8
DEM_20px_m
 10
29323.97371290067
 20
-100.33386
 30
0.0
  0
VERTEX
  8
DEM_20px_m
 10
29345.042927070815
 20
-100.31323
 30
0.0
  0
VERTEX
  8
DEM_20px_m
 10
29366.11214124096
 20
-100.36953
 30
0.0
  0
VERTEX
  8
DEM_20px_m
 10
29387.181355411103
 20
-100.31597
 30
0.0
  0
VERTEX
  8
DEM_20px_m
 10
29408.250569581247
 20
-100.26241
 30
0.0
  0
VERTEX
  8
DEM_20px_m
 10
29429.319783751387
 20
-100.31871
 30
0.0
  0
VERTEX
  8
DEM_20px_m
 10
29450.38899792153
 20
-100.26515
 30
0.0
  0
VERTEX
  8
DEM_20px_m
 10
29471.458212091675
 20
-100.21159
 30
0.0
  0
VERTEX
  8
DEM_20px_m
 10
29492.52742626182
 20
-100.26789
 30
0.0
  0
VERTEX
  8
DEM_20px_m
 10
29513.596640431962
 20
-100.21433
 30
0.0
  0
VERTEX
  8
DEM_20px_m
 10
29534.665854602106
 20
-100.16077
 30
0.0
  0
VERTEX
  8
DEM_20px_m
 10
29555.735068772246
 20
-100.21706
 30
0.0
  0
VERTEX
  8
DEM_20px_m
 10
29576.80428294239
 20
-100.1635
 30
0.0
  0
VERTEX
  8
DEM_20px_m
 10
29597.873497112534
 20
-100.10995
 30
0.0
  0
VERTEX
  8
DEM_20px_m
 10
29618.942711282678
 20
-100.16624
 30
0.0
  0
VERTEX
  8
DEM_20px_m
 10
29640.011925452818
 20
-100.11268
 30
0.0
  0
VERTEX
  8
DEM_20px_m
 10
29661.081139622962
 20
-100.05912
 30
0.0
  0
VERTEX
  8
DEM_20px_m
 10
29682.150353793106
 20
-100.11542
 30
0.0
  0
VERTEX
  8
DEM_20px_m
 10
29703.21956796325
 20
-100.06186
 30
0.0
  0
VERTEX
  8
DEM_20px_m
 10
29724.288782133393
 20
-100.0083
 30
0.0
  0
VERTEX
  8
DEM_20px_m
 10
29745.357996303537
 20
-100.0646
 30
0.0
  0
VERTEX
  8
DEM_20px_m
 10
29766.427210473677
 20
-100.01104
 30
0.0
  0
VERTEX
  8
DEM_20px_m
 10
29787.49642464382
 20
-100.0
 30
0.0
  0
VERTEX
  8
DEM_20px_m
 10
29808.565638813965
 20
-100.0
 30
0.0
  0
VERTEX
  8
DEM_20px_m
 10
29829.63485298411
 20
-100.0
 30
0.0
  0
VERTEX
  8
DEM_20px_m
 10
29850.70406715425
 20
-100.0
 30
0.0
  0
VERTEX
  8
DEM_20px_m
 10
29871.773281324393
 20
-100.05212
 30
0.0
  0
VERTEX
  8
DEM_20px_m
 10
29892.842495494537
 20
-100.06166
 30
0.0
  0
VERTEX
  8
DEM_20px_m
 10
29913.91170966468
 20
-100.10373
 30
0.0
  0
VERTEX
  8
DEM_20px_m
 10
29934.980923834824
 20
-100.318
 30
0.0
  0
VERTEX
  8
DEM_20px_m
 10
29956.050138004968
 20
-100.34019
 30
0.0
  0
VERTEX
  8
DEM_20px_m
 10
29977.11935217511
 20
-100.35598
 30
0.0
  0
VERTEX
  8
DEM_20px_m
 10
29998.188566345252
 20
-100.56873
 30
0.0
  0
VERTEX
  8
DEM_20px_m
 10
30019.257780515396
 20
-100.59795
 30
0.0
  0
VERTEX
  8
DEM_20px_m
 10
30040.32699468554
 20
-100.62771
 30
0.0
  0
VERTEX
  8
DEM_20px_m
 10
30061.396208855684
 20
-100.83822
 30
0.0
  0
VERTEX
  8
DEM_20px_m
 10
30082.465423025824
 20
-100.85519
 30
0.0
  0
VERTEX
  8
DEM_20px_m
 10
30103.534637195968
 20
-100.87182
 30
0.0
  0
VERTEX
  8
DEM_20px_m
 10
30124.60385136611
 20
-101.07947
 30
0.0
  0
VERTEX
  8
DEM_20px_m
 10
30145.673065536255
 20
-101.08064
 30
0.0
  0
VERTEX
  8
DEM_20px_m
 10
30166.7422797064
 20
-101.06634
 30
0.0
  0
VERTEX
  8
DEM_20px_m
 10
30187.81149387654
 20
-101.25483
 30
0.0
  0
VERTEX
  8
DEM_20px_m
 10
30208.880708046683
 20
-101.23211
 30
0.0
  0
VERTEX
  8
DEM_20px_m
 10
30229.949922216827
 20
-101.2379
 30
0.0
  0
VERTEX
  8
DEM_20px_m
 10
30251.01913638697
 20
-101.4677
 30
0.0
  0
VERTEX
  8
DEM_20px_m
 10
30272.088350557115
 20
-101.51768
 30
0.0
  0
VERTEX
  8
DEM_20px_m
 10
30293.157564727255
 20
-101.60399
 30
0.0
  0
VERTEX
  8
DEM_20px_m
 10
30314.2267788974
 20
-101.88414
 30
0.0
  0
VERTEX
  8
DEM_20px_m
 10
30335.295993067542
 20
-101.97294
 30
0.0
  0
VERTEX
  8
DEM_20px_m
 10
30356.365207237686
 20
-102.06175
 30
0.0
  0
VERTEX
  8
DEM_20px_m
 10
30377.43442140783
 20
-102.3419
 30
0.0
  0
VERTEX
  8
DEM_20px_m
 10
30398.50363557797
 20
-102.43071
 30
0.0
  0
VERTEX
  8
DEM_20px_m
 10
30419.572849748114
 20
-102.52203
 30
0.0
  0
VERTEX
  8
DEM_20px_m
 10
30440.642063918258
 20
-102.80296
 30
0.0
  0
VERTEX
  8
DEM_20px_m
 10
30461.7112780884
 20
-102.873
 30
0.0
  0
VERTEX
  8
DEM_20px_m
 10
30482.780492258546
 20
-102.94247
 30
0.0
  0
VERTEX
  8
DEM_20px_m
 10
30503.849706428686
 20
-103.21937
 30
0.0
  0
VERTEX
  8
DEM_20px_m
 10
30524.91892059883
 20
-103.3108
 30
0.0
  0
VERTEX
  8
DEM_20px_m
 10
30545.988134768973
 20
-103.3962
 30
0.0
  0
VERTEX
  8
DEM_20px_m
 10
30567.057348939117
 20
-103.65145
 30
0.0
  0
VERTEX
  8
DEM_20px_m
 10
30588.12656310926
 20
-103.77105
 30
0.0
  0
VERTEX
  8
DEM_20px_m
 10
30609.195777279405
 20
-103.89065
 30
0.0
  0
VERTEX
  8
DEM_20px_m
 10
30630.264991449545
 20
-104.01025
 30
0.0
  0
VERTEX
  8
DEM_20px_m
 10
30651.33420561969
 20
-104.31433
 30
0.0
  0
VERTEX
  8
DEM_20px_m
 10
30672.403419789833
 20
-104.43393
 30
0.0
  0
VERTEX
  8
DEM_20px_m
 10
30693.472633959977
 20
-104.55353
 30
0.0
  0
VERTEX
  8
DEM_20px_m
 10
30714.541848130117
 20
-104.85762
 30
0.0
  0
VERTEX
  8
DEM_20px_m
 10
30735.61106230026
 20
-104.97722
 30
0.0
  0
VERTEX
  8
DEM_20px_m
 10
30756.680276470404
 20
-105.0
 30
0.0
  0
VERTEX
  8
DEM_20px_m
 10
30777.749490640548
 20
-105.0
 30
0.0
  0
VERTEX
  8
DEM_20px_m
 10
30798.818704810692
 20
-105.0
 30
0.0
  0
VERTEX
  8
DEM_20px_m
 10
30819.887918980836
 20
-105.0
 30
0.0
  0
VERTEX
  8
DEM_20px_m
 10
30840.957133150976
 20
-105.0
 30
0.0
  0
VERTEX
  8
DEM_20px_m
 10
30862.02634732112
 20
-105.0
 30
0.0
  0
VERTEX
  8
DEM_20px_m
 10
30883.095561491264
 20
-105.0
 30
0.0
  0
VERTEX
  8
DEM_20px_m
 10
30904.164775661407
 20
-105.0
 30
0.0
  0
VERTEX
  8
DEM_20px_m
 10
30925.233989831548
 20
-105.0
 30
0.0
  0
VERTEX
  8
DEM_20px_m
 10
30946.30320400169
 20
-105.0
 30
0.0
  0
VERTEX
  8
DEM_20px_m
 10
30967.372418171835
 20
-105.0
 30
0.0
  0
VERTEX
  8
DEM_20px_m
 10
30988.44163234198
 20
-105.0
 30
0.0
  0
VERTEX
  8
DEM_20px_m
 10
31009.510846512123
 20
-105.0
 30
0.0
  0
VERTEX
  8
DEM_20px_m
 10
31030.580060682267
 20
-105.0
 30
0.0
  0
VERTEX
  8
DEM_20px_m
 10
31051.649274852407
 20
-105.0
 30
0.0
  0
VERTEX
  8
DEM_20px_m
 10
31072.71848902255
 20
-105.0
 30
0.0
  0
VERTEX
  8
DEM_20px_m
 10
31093.787703192695
 20
-105.0
 30
0.0
  0
VERTEX
  8
DEM_20px_m
 10
31114.85691736284
 20
-105.0
 30
0.0
  0
VERTEX
  8
DEM_20px_m
 10
31135.92613153298
 20
-105.0
 30
0.0
  0
VERTEX
  8
DEM_20px_m
 10
31156.995345703122
 20
-105.0
 30
0.0
  0
VERTEX
  8
DEM_20px_m
 10
31178.064559873266
 20
-105.0
 30
0.0
  0
VERTEX
  8
DEM_20px_m
 10
31199.13377404341
 20
-105.0
 30
0.0
  0
VERTEX
  8
DEM_20px_m
 10
31220.202988213554
 20
-105.0
 30
0.0
  0
VERTEX
  8
DEM_20px_m
 10
31241.272202383698
 20
-105.0
 30
0.0
  0
VERTEX
  8
DEM_20px_m
 10
31262.341416553838
 20
-105.0
 30
0.0
  0
VERTEX
  8
DEM_20px_m
 10
31283.41063072398
 20
-105.0
 30
0.0
  0
VERTEX
  8
DEM_20px_m
 10
31304.479844894126
 20
-105.0
 30
0.0
  0
VERTEX
  8
DEM_20px_m
 10
31325.54905906427
 20
-105.0
 30
0.0
  0
VERTEX
  8
DEM_20px_m
 10
31346.618273234413
 20
-105.0
 30
0.0
  0
VERTEX
  8
DEM_20px_m
 10
31367.687487404553
 20
-105.0
 30
0.0
  0
VERTEX
  8
DEM_20px_m
 10
31388.756701574697
 20
-105.0
 30
0.0
  0
VERTEX
  8
DEM_20px_m
 10
31409.82591574484
 20
-105.0
 30
0.0
  0
VERTEX
  8
DEM_20px_m
 10
31430.895129914985
 20
-105.0
 30
0.0
  0
VERTEX
  8
DEM_20px_m
 10
31451.96434408513
 20
-105.0
 30
0.0
  0
VERTEX
  8
DEM_20px_m
 10
31473.03355825527
 20
-105.0
 30
0.0
  0
VERTEX
  8
DEM_20px_m
 10
31494.102772425413
 20
-105.0
 30
0.0
  0
VERTEX
  8
DEM_20px_m
 10
31515.171986595557
 20
-105.0
 30
0.0
  0
VERTEX
  8
DEM_20px_m
 10
31536.2412007657
 20
-105.0
 30
0.0
  0
VERTEX
  8
DEM_20px_m
 10
31557.310414935844
 20
-105.0
 30
0.0
  0
VERTEX
  8
DEM_20px_m
 10
31578.379629105984
 20
-105.0
 30
0.0
  0
VERTEX
  8
DEM_20px_m
 10
31599.448843276128
 20
-105.0
 30
0.0
  0
VERTEX
  8
DEM_20px_m
 10
31620.518057446272
 20
-105.0
 30
0.0
  0
VERTEX
  8
DEM_20px_m
 10
31641.587271616416
 20
-105.0
 30
0.0
  0
VERTEX
  8
DEM_20px_m
 10
31662.65648578656
 20
-105.0
 30
0.0
  0
VERTEX
  8
DEM_20px_m
 10
31683.725699956703
 20
-105.0
 30
0.0
  0
VERTEX
  8
DEM_20px_m
 10
31704.794914126844
 20
-105.0
 30
0.0
  0
VERTEX
  8
DEM_20px_m
 10
31725.864128296987
 20
-105.01807
 30
0.0
  0
VERTEX
  8
DEM_20px_m
 10
31746.93334246713
 20
-105.03688
 30
0.0
  0
VERTEX
  8
DEM_20px_m
 10
31768.002556637275
 20
-105.05568
 30
0.0
  0
VERTEX
  8
DEM_20px_m
 10
31789.071770807415
 20
-105.42355
 30
0.0
  0
VERTEX
  8
DEM_20px_m
 10
31810.14098497756
 20
-105.44235
 30
0.0
  0
VERTEX
  8
DEM_20px_m
 10
31831.210199147703
 20
-105.46115
 30
0.0
  0
VERTEX
  8
DEM_20px_m
 10
31852.279413317847
 20
-105.64486
 30
0.0
  0
VERTEX
  8
DEM_20px_m
 10
31873.34862748799
 20
-105.46262
 30
0.0
  0
VERTEX
  8
DEM_20px_m
 10
31894.417841658134
 20
-105.3964
 30
0.0
  0
VERTEX
  8
DEM_20px_m
 10
31915.487055828275
 20
-105.37195
 30
0.0
  0
VERTEX
  8
DEM_20px_m
 10
31936.55626999842
 20
-105.80662
 30
0.0
  0
VERTEX
  8
DEM_20px_m
 10
31957.625484168562
 20
-105.89861
 30
0.0
  0
VERTEX
  8
DEM_20px_m
 10
31978.694698338706
 20
-105.932
 30
0.0
  0
VERTEX
  8
DEM_20px_m
 10
31999.763912508846
 20
-106.33005
 30
0.0
  0
VERTEX
  8
DEM_20px_m
 10
32020.83312667899
 20
-106.36672
 30
0.0
  0
VERTEX
  8
DEM_20px_m
 10
32041.902340849134
 20
-106.40033
 30
0.0
  0
VERTEX
  8
DEM_20px_m
 10
32062.971555019278
 20
-106.69387
 30
0.0
  0
VERTEX
  8
DEM_20px_m
 10
32084.04076918942
 20
-106.67205
 30
0.0
  0
VERTEX
  8
DEM_20px_m
 10
32105.109983359565
 20
-106.61645
 30
0.0
  0
VERTEX
  8
DEM_20px_m
 10
32126.179197529706
 20
-106.88358
 30
0.0
  0
VERTEX
  8
DEM_20px_m
 10
32147.24841169985
 20
-106.85968
 30
0.0
  0
VERTEX
  8
DEM_20px_m
 10
32168.317625869993
 20
-106.945
 30
0.0
  0
VERTEX
  8
DEM_20px_m
 10
32189.386840040137
 20
-107.32008
 30
0.0
  0
VERTEX
  8
DEM_20px_m
 10
32210.456054210277
 20
-107.28722
 30
0.0
  0
VERTEX
  8
DEM_20px_m
 10
32231.52526838042
 20
-107.23307
 30
0.0
  0
VERTEX
  8
DEM_20px_m
 10
32252.594482550565
 20
-107.49436
 30
0.0
  0
VERTEX
  8
DEM_20px_m
 10
32273.66369672071
 20
-107.44021
 30
0.0
  0
VERTEX
  8
DEM_20px_m
 10
32294.732910890853
 20
-107.38606
 30
0.0
  0
VERTEX
  8
DEM_20px_m
 10
32315.802125060996
 20
-107.64736
 30
0.0
  0
VERTEX
  8
DEM_20px_m
 10
32336.871339231137
 20
-107.59321
 30
0.0
  0
VERTEX
  8
DEM_20px_m
 10
32357.94055340128
 20
-107.49408
 30
0.0
  0
VERTEX
  8
DEM_20px_m
 10
32379.009767571424
 20
-107.81445
 30
0.0
  0
VERTEX
  8
DEM_20px_m
 10
32400.078981741568
 20
-107.72644
 30
0.0
  0
VERTEX
  8
DEM_20px_m
 10
32421.148195911708
 20
-107.6967
 30
0.0
  0
VERTEX
  8
DEM_20px_m
 10
32442.217410081852
 20
-108.00248
 30
0.0
  0
VERTEX
  8
DEM_20px_m
 10
32463.286624251996
 20
-107.97136
 30
0.0
  0
VERTEX
  8
DEM_20px_m
 10
32484.35583842214
 20
-107.94865
 30
0.0
  0
VERTEX
  8
DEM_20px_m
 10
32505.425052592283
 20
-108.29876
 30
0.0
  0
VERTEX
  8
DEM_20px_m
 10
32526.494266762427
 20
-108.29108
 30
0.0
  0
VERTEX
  8
DEM_20px_m
 10
32547.56348093257
 20
-108.25231
 30
0.0
  0
VERTEX
  8
DEM_20px_m
 10
32568.63269510271
 20
-108.56495
 30
0.0
  0
VERTEX
  8
DEM_20px_m
 10
32589.701909272855
 20
-108.53671
 30
0.0
  0
VERTEX
  8
DEM_20px_m
 10
32610.771123443
 20
-108.52573
 30
0.0
  0
VERTEX
  8
DEM_20px_m
 10
32631.84033761314
 20
-108.86055
 30
0.0
  0
VERTEX
  8
DEM_20px_m
 10
32652.909551783283
 20
-108.79834
 30
0.0
  0
VERTEX
  8
DEM_20px_m
 10
32673.978765953427
 20
-108.76414
 30
0.0
  0
VERTEX
  8
DEM_20px_m
 10
32695.04798012357
 20
-109.14204
 30
0.0
  0
VERTEX
  8
DEM_20px_m
 10
32716.117194293714
 20
-109.10068
 30
0.0
  0
VERTEX
  8
DEM_20px_m
 10
32737.18640846386
 20
-109.05145
 30
0.0
  0
VERTEX
  8
DEM_20px_m
 10
32758.255622634002
 20
-109.39605
 30
0.0
  0
VERTEX
  8
DEM_20px_m
 10
32779.324836804146
 20
-109.39596
 30
0.0
  0
VERTEX
  8
DEM_20px_m
 10
32800.39405097428
 20
-109.37844
 30
0.0
  0
VERTEX
  8
DEM_20px_m
 10
32821.463265144426
 20
-109.73887
 30
0.0
  0
VERTEX
  8
DEM_20px_m
 10
32842.53247931457
 20
-109.74941
 30
0.0
  0
VERTEX
  8
DEM_20px_m
 10
32863.601693484714
 20
-109.76914
 30
0.0
  0
VERTEX
  8
DEM_20px_m
 10
32884.67090765486
 20
-110.0
 30
0.0
  0
VERTEX
  8
DEM_20px_m
 10
32905.740121825
 20
-110.0
 30
0.0
  0
VERTEX
  8
DEM_20px_m
 10
32926.809335995145
 20
-110.0
 30
0.0
  0
VERTEX
  8
DEM_20px_m
 10
32947.87855016529
 20
-110.0
 30
0.0
  0
VERTEX
  8
DEM_20px_m
 10
32968.94776433543
 20
-110.0
 30
0.0
  0
VERTEX
  8
DEM_20px_m
 10
32990.01697850558
 20
-110.0
 30
0.0
  0
VERTEX
  8
DEM_20px_m
 10
33011.08619267572
 20
-110.0
 30
0.0
  0
VERTEX
  8
DEM_20px_m
 10
33032.155406845864
 20
-110.0
 30
0.0
  0
VERTEX
  8
DEM_20px_m
 10
33053.224621016
 20
-110.0
 30
0.0
  0
VERTEX
  8
DEM_20px_m
 10
33074.293835186145
 20
-110.0
 30
0.0
  0
VERTEX
  8
DEM_20px_m
 10
33095.36304935629
 20
-110.0
 30
0.0
  0
VERTEX
  8
DEM_20px_m
 10
33116.43226352643
 20
-110.0
 30
0.0
  0
VERTEX
  8
DEM_20px_m
 10
33137.501477696576
 20
-110.0
 30
0.0
  0
VERTEX
  8
DEM_20px_m
 10
33158.57069186672
 20
-110.0
 30
0.0
  0
VERTEX
  8
DEM_20px_m
 10
33179.639906036864
 20
-110.0
 30
0.0
  0
VERTEX
  8
DEM_20px_m
 10
33200.70912020701
 20
-110.0
 30
0.0
  0
VERTEX
  8
DEM_20px_m
 10
33221.778334377144
 20
-110.0
 30
0.0
  0
VERTEX
  8
DEM_20px_m
 10
33242.84754854729
 20
-110.0
 30
0.0
  0
VERTEX
  8
DEM_20px_m
 10
33263.91676271743
 20
-110.0
 30
0.0
  0
VERTEX
  8
DEM_20px_m
 10
33284.985976887576
 20
-110.0
 30
0.0
  0
VERTEX
  8
DEM_20px_m
 10
33306.05519105772
 20
-110.0
 30
0.0
  0
VERTEX
  8
DEM_20px_m
 10
33327.12440522786
 20
-110.0
 30
0.0
  0
VERTEX
  8
DEM_20px_m
 10
33348.19361939801
 20
-110.0
 30
0.0
  0
VERTEX
  8
DEM_20px_m
 10
33369.26283356815
 20
-110.0
 30
0.0
  0
VERTEX
  8
DEM_20px_m
 10
33390.332047738295
 20
-110.0
 30
0.0
  0
VERTEX
  8
DEM_20px_m
 10
33411.40126190844
 20
-110.0
 30
0.0
  0
VERTEX
  8
DEM_20px_m
 10
33432.47047607858
 20
-110.0
 30
0.0
  0
VERTEX
  8
DEM_20px_m
 10
33453.53969024873
 20
-110.0
 30
0.0
  0
VERTEX
  8
DEM_20px_m
 10
33474.60890441886
 20
-110.0
 30
0.0
  0
VERTEX
  8
DEM_20px_m
 10
33495.67811858901
 20
-110.0
 30
0.0
  0
VERTEX
  8
DEM_20px_m
 10
33516.74733275915
 20
-110.0
 30
0.0
  0
VERTEX
  8
DEM_20px_m
 10
33537.816546929294
 20
-110.0
 30
0.0
  0
VERTEX
  8
DEM_20px_m
 10
33558.88576109944
 20
-110.0
 30
0.0
  0
VERTEX
  8
DEM_20px_m
 10
33579.95497526958
 20
-110.0
 30
0.0
  0
VERTEX
  8
DEM_20px_m
 10
33601.024189439726
 20
-110.0
 30
0.0
  0
VERTEX
  8
DEM_20px_m
 10
33622.09340360987
 20
-110.0
 30
0.0
  0
VERTEX
  8
DEM_20px_m
 10
33643.16261778001
 20
-110.0
 30
0.0
  0
VERTEX
  8
DEM_20px_m
 10
33664.23183195015
 20
-110.0
 30
0.0
  0
VERTEX
  8
DEM_20px_m
 10
33685.301046120294
 20
-110.0
 30
0.0
  0
VERTEX
  8
DEM_20px_m
 10
33706.37026029044
 20
-110.0
 30
0.0
  0
VERTEX
  8
DEM_20px_m
 10
33727.43947446058
 20
-110.0
 30
0.0
  0
VERTEX
  8
DEM_20px_m
 10
33748.508688630725
 20
-110.0
 30
0.0
  0
VERTEX
  8
DEM_20px_m
 10
33769.57790280087
 20
-110.0
 30
0.0
  0
VERTEX
  8
DEM_20px_m
 10
33790.64711697101
 20
-110.0
 30
0.0
  0
VERTEX
  8
DEM_20px_m
 10
33811.71633114116
 20
-110.0
 30
0.0
  0
VERTEX
  8
DEM_20px_m
 10
33832.7855453113
 20
-110.0
 30
0.0
  0
VERTEX
  8
DEM_20px_m
 10
33853.854759481444
 20
-110.0
 30
0.0
  0
VERTEX
  8
DEM_20px_m
 10
33874.92397365159
 20
-110.0
 30
0.0
  0
VERTEX
  8
DEM_20px_m
 10
33895.993187821725
 20
-110.0
 30
0.0
  0
VERTEX
  8
DEM_20px_m
 10
33917.06240199187
 20
-110.0
 30
0.0
  0
VERTEX
  8
DEM_20px_m
 10
33938.13161616201
 20
-110.0
 30
0.0
  0
VERTEX
  8
DEM_20px_m
 10
33959.200830332156
 20
-110.0
 30
0.0
  0
VERTEX
  8
DEM_20px_m
 10
33980.2700445023
 20
-110.0
 30
0.0
  0
VERTEX
  8
DEM_20px_m
 10
34001.339258672444
 20
-110.0
 30
0.0
  0
VERTEX
  8
DEM_20px_m
 10
34022.40847284259
 20
-110.0
 30
0.0
  0
VERTEX
  8
DEM_20px_m
 10
34043.47768701273
 20
-110.0
 30
0.0
  0
VERTEX
  8
DEM_20px_m
 10
34064.546901182875
 20
-110.0
 30
0.0
  0
VERTEX
  8
DEM_20px_m
 10
34085.61611535301
 20
-110.0
 30
0.0
  0
VERTEX
  8
DEM_20px_m
 10
34106.685329523156
 20
-110.0
 30
0.0
  0
VERTEX
  8
DEM_20px_m
 10
34127.7545436933
 20
-110.0
 30
0.0
  0
VERTEX
  8
DEM_20px_m
 10
34148.82375786344
 20
-110.0
 30
0.0
  0
VERTEX
  8
DEM_20px_m
 10
34169.89297203359
 20
-110.0
 30
0.0
  0
VERTEX
  8
DEM_20px_m
 10
34190.96218620373
 20
-110.0
 30
0.0
  0
VERTEX
  8
DEM_20px_m
 10
34212.031400373875
 20
-110.0
 30
0.0
  0
VERTEX
  8
DEM_20px_m
 10
34233.10061454402
 20
-110.0
 30
0.0
  0
VERTEX
  8
DEM_20px_m
 10
34254.16982871416
 20
-110.0
 30
0.0
  0
VERTEX
  8
DEM_20px_m
 10
34275.23904288431
 20
-110.0
 30
0.0
  0
VERTEX
  8
DEM_20px_m
 10
34296.30825705445
 20
-110.0
 30
0.0
  0
VERTEX
  8
DEM_20px_m
 10
34317.377471224594
 20
-110.0
 30
0.0
  0
VERTEX
  8
DEM_20px_m
 10
34338.44668539473
 20
-110.0
 30
0.0
  0
VERTEX
  8
DEM_20px_m
 10
34359.515899564874
 20
-110.0
 30
0.0
  0
VERTEX
  8
DEM_20px_m
 10
34380.58511373502
 20
-110.0
 30
0.0
  0
VERTEX
  8
DEM_20px_m
 10
34401.65432790516
 20
-109.88415
 30
0.0
  0
VERTEX
  8
DEM_20px_m
 10
34422.723542075306
 20
-109.01828
 30
0.0
  0
VERTEX
  8
DEM_20px_m
 10
34443.79275624545
 20
-108.89193
 30
0.0
  0
VERTEX
  8
DEM_20px_m
 10
34464.86197041559
 20
-108.78549
 30
0.0
  0
VERTEX
  8
DEM_20px_m
 10
34485.93118458574
 20
-108.00307
 30
0.0
  0
VERTEX
  8
DEM_20px_m
 10
34507.00039875588
 20
-107.9604
 30
0.0
  0
VERTEX
  8
DEM_20px_m
 10
34528.06961292602
 20
-107.90215
 30
0.0
  0
VERTEX
  8
DEM_20px_m
 10
34549.13882709616
 20
-107.74448
 30
0.0
  0
VERTEX
  8
DEM_20px_m
 10
34570.208041266305
 20
-107.03873
 30
0.0
  0
VERTEX
  8
DEM_20px_m
 10
34591.27725543645
 20
-106.8208
 30
0.0
  0
VERTEX
  8
DEM_20px_m
 10
34612.34646960659
 20
-106.60288
 30
0.0
  0
VERTEX
  8
DEM_20px_m
 10
34633.41568377674
 20
-105.77261
 30
0.0
  0
VERTEX
  8
DEM_20px_m
 10
34654.48489794688
 20
-105.55835
 30
0.0
  0
VERTEX
  8
DEM_20px_m
 10
34675.554112117024
 20
-105.37271
 30
0.0
  0
VERTEX
  8
DEM_20px_m
 10
34696.62332628717
 20
-105.0
 30
0.0
  0
VERTEX
  8
DEM_20px_m
 10
34717.69254045731
 20
-105.0
 30
0.0
  0
VERTEX
  8
DEM_20px_m
 10
34738.761754627456
 20
-105.0
 30
0.0
  0
VERTEX
  8
DEM_20px_m
 10
34759.83096879759
 20
-105.0
 30
0.0
  0
VERTEX
  8
DEM_20px_m
 10
34780.900182967736
 20
-105.0
 30
0.0
  0
VERTEX
  8
DEM_20px_m
 10
34801.96939713788
 20
-105.0
 30
0.0
  0
VERTEX
  8
DEM_20px_m
 10
34823.038611308024
 20
-105.0
 30
0.0
  0
VERTEX
  8
DEM_20px_m
 10
34844.10782547817
 20
-105.0
 30
0.0
  0
VERTEX
  8
DEM_20px_m
 10
34865.17703964831
 20
-105.0
 30
0.0
  0
VERTEX
  8
DEM_20px_m
 10
34886.246253818455
 20
-105.0
 30
0.0
  0
VERTEX
  8
DEM_20px_m
 10
34907.3154679886
 20
-105.0
 30
0.0
  0
VERTEX
  8
DEM_20px_m
 10
34928.38468215874
 20
-105.0
 30
0.0
  0
VERTEX
  8
DEM_20px_m
 10
34949.45389632888
 20
-105.0
 30
0.0
  0
VERTEX
  8
DEM_20px_m
 10
34970.52311049902
 20
-105.19366
 30
0.0
  0
VERTEX
  8
DEM_20px_m
 10
34991.59232466917
 20
-105.80718
 30
0.0
  0
VERTEX
  8
DEM_20px_m
 10
35012.66153883931
 20
-107.13823
 30
0.0
  0
VERTEX
  8
DEM_20px_m
 10
35033.730753009455
 20
-107.53089
 30
0.0
  0
VERTEX
  8
DEM_20px_m
 10
35054.7999671796
 20
-107.97041
 30
0.0
  0
VERTEX
  8
DEM_20px_m
 10
35075.86918134974
 20
-109.40136
 30
0.0
  0
VERTEX
  8
DEM_20px_m
 10
35096.93839551989
 20
-109.91457
 30
0.0
  0
VERTEX
  8
DEM_20px_m
 10
35118.00760969003
 20
-110.93715
 30
0.0
  0
VERTEX
  8
DEM_20px_m
 10
35139.076823860174
 20
-114.77138
 30
0.0
  0
VERTEX
  8
DEM_20px_m
 10
35160.14603803032
 20
-115.10024
 30
0.0
  0
VERTEX
  8
DEM_20px_m
 10
35181.215252200454
 20
-115.20595
 30
0.0
  0
VERTEX
  8
DEM_20px_m
 10
35202.2844663706
 20
-115.84687
 30
0.0
  0
VERTEX
  8
DEM_20px_m
 10
35223.35368054074
 20
-115.86118
 30
0.0
  0
VERTEX
  8
DEM_20px_m
 10
35244.422894710886
 20
-115.89125
 30
0.0
  0
VERTEX
  8
DEM_20px_m
 10
35265.49210888103
 20
-116.53369
 30
0.0
  0
VERTEX
  8
DEM_20px_m
 10
35286.56132305117
 20
-116.58292
 30
0.0
  0
VERTEX
  8
DEM_20px_m
 10
35307.63053722132
 20
-116.52165
 30
0.0
  0
VERTEX
  8
DEM_20px_m
 10
35328.69975139146
 20
-117.07736
 30
0.0
  0
VERTEX
  8
DEM_20px_m
 10
35349.768965561605
 20
-117.15023
 30
0.0
  0
VERTEX
  8
DEM_20px_m
 10
35370.83817973174
 20
-117.2231
 30
0.0
  0
VERTEX
  8
DEM_20px_m
 10
35391.907393901885
 20
-117.8311
 30
0.0
  0
VERTEX
  8
DEM_20px_m
 10
35412.97660807203
 20
-117.93565
 30
0.0
  0
VERTEX
  8
DEM_20px_m
 10
35434.04582224217
 20
-118.05382
 30
0.0
  0
VERTEX
  8
DEM_20px_m
 10
35455.11503641232
 20
-118.6551
 30
0.0
  0
VERTEX
  8
DEM_20px_m
 10
35476.18425058246
 20
-118.7491
 30
0.0
  0
VERTEX
  8
DEM_20px_m
 10
35497.253464752604
 20
-118.86501
 30
0.0
  0
VERTEX
  8
DEM_20px_m
 10
35518.32267892275
 20
-119.5047
 30
0.0
  0
VERTEX
  8
DEM_20px_m
 10
35539.39189309289
 20
-119.58048
 30
0.0
  0
VERTEX
  8
DEM_20px_m
 10
35560.461107263036
 20
-119.68972
 30
0.0
  0
VERTEX
  8
DEM_20px_m
 10
35581.53032143318
 20
-120.36124
 30
0.0
  0
VERTEX
  8
DEM_20px_m
 10
35602.59953560332
 20
-120.57505
 30
0.0
  0
VERTEX
  8
DEM_20px_m
 10
35623.66874977346
 20
-120.76685
 30
0.0
  0
VERTEX
  8
DEM_20px_m
 10
35644.737963943604
 20
-121.47074
 30
0.0
  0
VERTEX
  8
DEM_20px_m
 10
35665.80717811375
 20
-121.64494
 30
0.0
  0
VERTEX
  8
DEM_20px_m
 10
35686.87639228389
 20
-121.81205
 30
0.0
  0
VERTEX
  8
DEM_20px_m
 10
35707.945606454035
 20
-122.53477
 30
0.0
  0
VERTEX
  8
DEM_20px_m
 10
35729.01482062418
 20
-122.79474
 30
0.0
  0
VERTEX
  8
DEM_20px_m
 10
35750.08403479432
 20
-123.1007
 30
0.0
  0
VERTEX
  8
DEM_20px_m
 10
35771.15324896447
 20
-123.86797
 30
0.0
  0
VERTEX
  8
DEM_20px_m
 10
35792.22246313461
 20
-124.10754
 30
0.0
  0
VERTEX
  8
DEM_20px_m
 10
35813.29167730475
 20
-124.27698
 30
0.0
  0
VERTEX
  8
DEM_20px_m
 10
35834.36089147489
 20
-124.464
 30
0.0
  0
VERTEX
  8
DEM_20px_m
 10
35855.430105645035
 20
-125.21074
 30
0.0
  0
VERTEX
  8
DEM_20px_m
 10
35876.49931981518
 20
-125.39828
 30
0.0
  0
VERTEX
  8
DEM_20px_m
 10
35897.56853398532
 20
-125.58614
 30
0.0
  0
VERTEX
  8
DEM_20px_m
 10
35918.63774815547
 20
-126.26318
 30
0.0
  0
VERTEX
  8
DEM_20px_m
 10
35939.70696232561
 20
-126.42587
 30
0.0
  0
VERTEX
  8
DEM_20px_m
 10
35960.776176495754
 20
-126.61018
 30
0.0
  0
VERTEX
  8
DEM_20px_m
 10
35981.8453906659
 20
-127.32407
 30
0.0
  0
VERTEX
  8
DEM_20px_m
 10
36002.91460483604
 20
-127.52056
 30
0.0
  0
VERTEX
  8
DEM_20px_m
 10
36023.983819006186
 20
-127.66807
 30
0.0
  0
VERTEX
  8
DEM_20px_m
 10
36045.05303317632
 20
-128.37686
 30
0.0
  0
VERTEX
  8
DEM_20px_m
 10
36066.122247346466
 20
-128.50579
 30
0.0
  0
VERTEX
  8
DEM_20px_m
 10
36087.19146151661
 20
-128.6464
 30
0.0
  0
VERTEX
  8
DEM_20px_m
 10
36108.26067568675
 20
-129.37777
 30
0.0
  0
VERTEX
  8
DEM_20px_m
 10
36129.3298898569
 20
-129.52234
 30
0.0
  0
VERTEX
  8
DEM_20px_m
 10
36150.39910402704
 20
-129.65752
 30
0.0
  0
VERTEX
  8
DEM_20px_m
 10
36171.468318197185
 20
-130.7375
 30
0.0
  0
VERTEX
  8
DEM_20px_m
 10
36192.53753236733
 20
-131.05789
 30
0.0
  0
VERTEX
  8
DEM_20px_m
 10
36213.60674653747
 20
-131.37574
 30
0.0
  0
VERTEX
  8
DEM_20px_m
 10
36234.67596070761
 20
-132.7712
 30
0.0
  0
VERTEX
  8
DEM_20px_m
 10
36255.74517487775
 20
-133.10867
 30
0.0
  0
VERTEX
  8
DEM_20px_m
 10
36276.8143890479
 20
-133.47315
 30
0.0
  0
VERTEX
  8
DEM_20px_m
 10
36297.88360321804
 20
-134.90052
 30
0.0
  0
VERTEX
  8
DEM_20px_m
 10
36318.952817388184
 20
-135.24487
 30
0.0
  0
VERTEX
  8
DEM_20px_m
 10
36340.02203155833
 20
-135.57361
 30
0.0
  0
VERTEX
  8
DEM_20px_m
 10
36361.09124572847
 20
-136.88188
 30
0.0
  0
VERTEX
  8
DEM_20px_m
 10
36382.160459898616
 20
-137.15436
 30
0.0
  0
VERTEX
  8
DEM_20px_m
 10
36403.22967406876
 20
-137.38759
 30
0.0
  0
VERTEX
  8
DEM_20px_m
 10
36424.2988882389
 20
-138.45902
 30
0.0
  0
VERTEX
  8
DEM_20px_m
 10
36445.36810240905
 20
-138.65186
 30
0.0
  0
VERTEX
  8
DEM_20px_m
 10
36466.43731657919
 20
-138.87556
 30
0.0
  0
VERTEX
  8
DEM_20px_m
 10
36487.50653074933
 20
-139.91883
 30
0.0
  0
VERTEX
  8
DEM_20px_m
 10
36508.57574491947
 20
-140.06678
 30
0.0
  0
VERTEX
  8
DEM_20px_m
 10
36529.644959089615
 20
-140.18512
 30
0.0
  0
VERTEX
  8
DEM_20px_m
 10
36550.71417325976
 20
-140.84737
 30
0.0
  0
VERTEX
  8
DEM_20px_m
 10
36571.7833874299
 20
-141.01396
 30
0.0
  0
VERTEX
  8
DEM_20px_m
 10
36592.85260160005
 20
-141.17834
 30
0.0
  0
VERTEX
  8
DEM_20px_m
 10
36613.92181577019
 20
-141.86904
 30
0.0
  0
VERTEX
  8
DEM_20px_m
 10
36634.991029940335
 20
-142.06402
 30
0.0
  0
VERTEX
  8
DEM_20px_m
 10
36656.06024411047
 20
-142.26915
 30
0.0
  0
VERTEX
  8
DEM_20px_m
 10
36677.129458280615
 20
-142.96659
 30
0.0
  0
VERTEX
  8
DEM_20px_m
 10
36698.19867245076
 20
-143.14125
 30
0.0
  0
VERTEX
  8
DEM_20px_m
 10
36719.2678866209
 20
-143.29034
 30
0.0
  0
VERTEX
  8
DEM_20px_m
 10
36740.33710079105
 20
-144.00299
 30
0.0
  0
VERTEX
  8
DEM_20px_m
 10
36761.40631496119
 20
-144.25912
 30
0.0
  0
VERTEX
  8
DEM_20px_m
 10
36782.475529131334
 20
-144.48809
 30
0.0
  0
VERTEX
  8
DEM_20px_m
 10
36803.54474330148
 20
-145.28341
 30
0.0
  0
VERTEX
  8
DEM_20px_m
 10
36824.61395747162
 20
-145.57371
 30
0.0
  0
VERTEX
  8
DEM_20px_m
 10
36845.683171641766
 20
-145.82523
 30
0.0
  0
VERTEX
  8
DEM_20px_m
 10
36866.75238581191
 20
-146.60604
 30
0.0
  0
VERTEX
  8
DEM_20px_m
 10
36887.82159998205
 20
-146.81378
 30
0.0
  0
VERTEX
  8
DEM_20px_m
 10
36908.8908141522
 20
-147.04251
 30
0.0
  0
VERTEX
  8
DEM_20px_m
 10
36929.96002832233
 20
-147.80161
 30
0.0
  0
VERTEX
  8
DEM_20px_m
 10
36951.02924249248
 20
-147.98655
 30
0.0
  0
VERTEX
  8
DEM_20px_m
 10
36972.09845666262
 20
-148.16708
 30
0.0
  0
VERTEX
  8
DEM_20px_m
 10
36993.167670832765
 20
-148.9041
 30
0.0
  0
VERTEX
  8
DEM_20px_m
 10
37014.23688500291
 20
-149.12561
 30
0.0
  0
VERTEX
  8
DEM_20px_m
 10
37035.30609917305
 20
-149.32625
 30
0.0
  0
VERTEX
  8
DEM_20px_m
 10
37056.3753133432
 20
-150.12698
 30
0.0
  0
VERTEX
  8
DEM_20px_m
 10
37077.44452751333
 20
-150.32991
 30
0.0
  0
VERTEX
  8
DEM_20px_m
 10
37098.51374168348
 20
-150.5779
 30
0.0
  0
VERTEX
  8
DEM_20px_m
 10
37119.58295585362
 20
-150.84683
 30
0.0
  0
VERTEX
  8
DEM_20px_m
 10
37140.652170023764
 20
-151.63484
 30
0.0
  0
VERTEX
  8
DEM_20px_m
 10
37161.72138419391
 20
-151.8967
 30
0.0
  0
VERTEX
  8
DEM_20px_m
 10
37182.79059836405
 20
-152.14741
 30
0.0
  0
VERTEX
  8
DEM_20px_m
 10
37203.859812534196
 20
-152.9632
 30
0.0
  0
VERTEX
  8
DEM_20px_m
 10
37224.92902670434
 20
-153.23391
 30
0.0
  0
VERTEX
  8
DEM_20px_m
 10
37245.99824087448
 20
-153.47886
 30
0.0
  0
VERTEX
  8
DEM_20px_m
 10
37267.06745504463
 20
-154.19604
 30
0.0
  0
VERTEX
  8
DEM_20px_m
 10
37288.13666921477
 20
-154.33082
 30
0.0
  0
VERTEX
  8
DEM_20px_m
 10
37309.205883384915
 20
-154.46986
 30
0.0
  0
VERTEX
  8
DEM_20px_m
 10
37330.27509755506
 20
-155.07748
 30
0.0
  0
VERTEX
  8
DEM_20px_m
 10
37351.344311725195
 20
-155.16828
 30
0.0
  0
VERTEX
  8
DEM_20px_m
 10
37372.41352589534
 20
-155.27436
 30
0.0
  0
VERTEX
  8
DEM_20px_m
 10
37393.48274006548
 20
-155.64131
 30
0.0
  0
VERTEX
  8
DEM_20px_m
 10
37414.55195423563
 20
-155.74937
 30
0.0
  0
VERTEX
  8
DEM_20px_m
 10
37435.62116840577
 20
-155.85541
 30
0.0
  0
VERTEX
  8
DEM_20px_m
 10
37456.690382575915
 20
-156.22862
 30
0.0
  0
VERTEX
  8
DEM_20px_m
 10
37477.75959674606
 20
-156.34438
 30
0.0
  0
VERTEX
  8
DEM_20px_m
 10
37498.8288109162
 20
-156.4794
 30
0.0
  0
VERTEX
  8
DEM_20px_m
 10
37519.89802508634
 20
-156.86201
 30
0.0
  0
VERTEX
  8
DEM_20px_m
 10
37540.96723925648
 20
-156.97381
 30
0.0
  0
VERTEX
  8
DEM_20px_m
 10
37562.03645342663
 20
-157.08082
 30
0.0
  0
VERTEX
  8
DEM_20px_m
 10
37583.10566759677
 20
-157.45037
 30
0.0
  0
VERTEX
  8
DEM_20px_m
 10
37604.174881766914
 20
-157.55328
 30
0.0
  0
VERTEX
  8
DEM_20px_m
 10
37625.24409593706
 20
-157.61961
 30
0.0
  0
VERTEX
  8
DEM_20px_m
 10
37646.3133101072
 20
-157.98588
 30
0.0
  0
VERTEX
  8
DEM_20px_m
 10
37667.382524277346
 20
-158.09303
 30
0.0
  0
VERTEX
  8
DEM_20px_m
 10
37688.45173844749
 20
-158.2046
 30
0.0
  0
VERTEX
  8
DEM_20px_m
 10
37709.52095261763
 20
-158.57776
 30
0.0
  0
VERTEX
  8
DEM_20px_m
 10
37730.59016678778
 20
-158.69406
 30
0.0
  0
VERTEX
  8
DEM_20px_m
 10
37751.65938095792
 20
-158.80282
 30
0.0
  0
VERTEX
  8
DEM_20px_m
 10
37772.72859512806
 20
-159.18679
 30
0.0
  0
VERTEX
  8
DEM_20px_m
 10
37793.7978092982
 20
-159.32367
 30
0.0
  0
VERTEX
  8
DEM_20px_m
 10
37814.867023468345
 20
-159.46056
 30
0.0
  0
VERTEX
  8
DEM_20px_m
 10
37835.93623763849
 20
-159.84477
 30
0.0
  0
VERTEX
  8
DEM_20px_m
 10
37857.00545180863
 20
-159.97582
 30
0.0
  0
VERTEX
  8
DEM_20px_m
 10
37878.07466597878
 20
-160.0
 30
0.0
  0
VERTEX
  8
DEM_20px_m
 10
37899.14388014892
 20
-160.28612
 30
0.0
  0
VERTEX
  8
DEM_20px_m
 10
37920.213094319064
 20
-160.36497
 30
0.0
  0
VERTEX
  8
DEM_20px_m
 10
37941.2823084892
 20
-160.44309
 30
0.0
  0
VERTEX
  8
DEM_20px_m
 10
37962.351522659344
 20
-160.74461
 30
0.0
  0
VERTEX
  8
DEM_20px_m
 10
37983.42073682949
 20
-160.82171
 30
0.0
  0
VERTEX
  8
DEM_20px_m
 10
38004.48995099963
 20
-160.92313
 30
0.0
  0
VERTEX
  8
DEM_20px_m
 10
38025.559165169776
 20
-161.33244
 30
0.0
  0
VERTEX
  8
DEM_20px_m
 10
38046.62837933992
 20
-161.45032
 30
0.0
  0
VERTEX
  8
DEM_20px_m
 10
38067.69759351006
 20
-161.59271
 30
0.0
  0
VERTEX
  8
DEM_20px_m
 10
38088.76680768021
 20
-162.03207
 30
0.0
  0
VERTEX
  8
DEM_20px_m
 10
38109.83602185035
 20
-162.2084
 30
0.0
  0
VERTEX
  8
DEM_20px_m
 10
38130.905236020495
 20
-162.43537
 30
0.0
  0
VERTEX
  8
DEM_20px_m
 10
38151.97445019064
 20
-162.90907
 30
0.0
  0
VERTEX
  8
DEM_20px_m
 10
38173.04366436078
 20
-163.14947
 30
0.0
  0
VERTEX
  8
DEM_20px_m
 10
38194.11287853093
 20
-163.40296
 30
0.0
  0
VERTEX
  8
DEM_20px_m
 10
38215.18209270106
 20
-163.87803
 30
0.0
  0
VERTEX
  8
DEM_20px_m
 10
38236.25130687121
 20
-164.17283
 30
0.0
  0
VERTEX
  8
DEM_20px_m
 10
38257.32052104135
 20
-164.3494
 30
0.0
  0
VERTEX
  8
DEM_20px_m
 10
38278.389735211495
 20
-164.89097
 30
0.0
  0
VERTEX
  8
DEM_20px_m
 10
38299.45894938164
 20
-165.0
 30
0.0
  0
VERTEX
  8
DEM_20px_m
 10
38320.52816355178
 20
-165.03813
 30
0.0
  0
VERTEX
  8
DEM_20px_m
 10
38341.597377721926
 20
-165.59034
 30
0.0
  0
VERTEX
  8
DEM_20px_m
 10
38362.66659189206
 20
-165.86903
 30
0.0
  0
VERTEX
  8
DEM_20px_m
 10
38383.73580606221
 20
-166.06079
 30
0.0
  0
VERTEX
  8
DEM_20px_m
 10
38404.80502023235
 20
-166.11777
 30
0.0
  0
VERTEX
  8
DEM_20px_m
 10
38425.874234402494
 20
-166.48621
 30
0.0
  0
VERTEX
  8
DEM_20px_m
 10
38446.94344857264
 20
-166.56524
 30
0.0
  0
VERTEX
  8
DEM_20px_m
 10
38468.01266274278
 20
-166.64426
 30
0.0
  0
VERTEX
  8
DEM_20px_m
 10
38489.081876912926
 20
-167.01936
 30
0.0
  0
VERTEX
  8
DEM_20px_m
 10
38510.15109108307
 20
-167.06509
 30
0.0
  0
VERTEX
  8
DEM_20px_m
 10
38531.22030525321
 20
-167.13766
 30
0.0
  0
VERTEX
  8
DEM_20px_m
 10
38552.28951942336
 20
-167.51453
 30
0.0
  0
VERTEX
  8
DEM_20px_m
 10
38573.3587335935
 20
-167.61142
 30
0.0
  0
VERTEX
  8
DEM_20px_m
 10
38594.427947763645
 20
-167.70665
 30
0.0
  0
VERTEX
  8
DEM_20px_m
 10
38615.49716193379
 20
-168.11128
 30
0.0
  0
VERTEX
  8
DEM_20px_m
 10
38636.566376103925
 20
-168.19684
 30
0.0
  0
VERTEX
  8
DEM_20px_m
 10
38657.63559027407
 20
-168.30821
 30
0.0
  0
VERTEX
  8
DEM_20px_m
 10
38678.70480444421
 20
-168.74624
 30
0.0
  0
VERTEX
  8
DEM_20px_m
 10
38699.77401861436
 20
-168.86692
 30
0.0
  0
VERTEX
  8
DEM_20px_m
 10
38720.8432327845
 20
-169.00268
 30
0.0
  0
VERTEX
  8
DEM_20px_m
 10
38741.912446954644
 20
-169.49028
 30
0.0
  0
VERTEX
  8
DEM_20px_m
 10
38762.98166112479
 20
-169.7076
 30
0.0
  0
VERTEX
  8
DEM_20px_m
 10
38784.05087529493
 20
-169.92492
 30
0.0
  0
VERTEX
  8
DEM_20px_m
 10
38805.12008946507
 20
-170.20749
 30
0.0
  0
VERTEX
  8
DEM_20px_m
 10
38826.18930363521
 20
-170.48591
 30
0.0
  0
VERTEX
  8
DEM_20px_m
 10
38847.258517805356
 20
-170.6944
 30
0.0
  0
VERTEX
  8
DEM_20px_m
 10
38868.3277319755
 20
-171.15513
 30
0.0
  0
VERTEX
  8
DEM_20px_m
 10
38889.39694614564
 20
-171.34242
 30
0.0
  0
VERTEX
  8
DEM_20px_m
 10
38910.46616031579
 20
-171.52972
 30
0.0
  0
VERTEX
  8
DEM_20px_m
 10
38931.53537448593
 20
-171.98725
 30
0.0
  0
VERTEX
  8
DEM_20px_m
 10
38952.604588656075
 20
-172.04482
 30
0.0
  0
VERTEX
  8
DEM_20px_m
 10
38973.67380282622
 20
-172.13747
 30
0.0
  0
VERTEX
  8
DEM_20px_m
 10
38994.74301699636
 20
-172.48817
 30
0.0
  0
VERTEX
  8
DEM_20px_m
 10
39015.81223116651
 20
-172.47476
 30
0.0
  0
VERTEX
  8
DEM_20px_m
 10
39036.88144533665
 20
-172.44545
 30
0.0
  0
VERTEX
  8
DEM_20px_m
 10
39057.950659506794
 20
-172.72019
 30
0.0
  0
VERTEX
  8
DEM_20px_m
 10
39079.01987367693
 20
-172.6289
 30
0.0
  0
VERTEX
  8
DEM_20px_m
 10
39100.089087847075
 20
-172.60083
 30
0.0
  0
VERTEX
  8
DEM_20px_m
 10
39121.15830201722
 20
-172.88857
 30
0.0
  0
VERTEX
  8
DEM_20px_m
 10
39142.22751618736
 20
-172.89628
 30
0.0
  0
VERTEX
  8
DEM_20px_m
 10
39163.296730357506
 20
-172.94464
 30
0.0
  0
VERTEX
  8
DEM_20px_m
 10
39184.36594452765
 20
-173.23769
 30
0.0
  0
VERTEX
  8
DEM_20px_m
 10
39205.435158697794
 20
-173.23409
 30
0.0
  0
VERTEX
  8
DEM_20px_m
 10
39226.50437286793
 20
-173.25962
 30
0.0
  0
VERTEX
  8
DEM_20px_m
 10
39247.573587038074
 20
-173.63219
 30
0.0
  0
VERTEX
  8
DEM_20px_m
 10
39268.64280120822
 20
-173.68251
 30
0.0
  0
VERTEX
  8
DEM_20px_m
 10
39289.71201537836
 20
-173.77536
 30
0.0
  0
VERTEX
  8
DEM_20px_m
 10
39310.781229548506
 20
-174.17683
 30
0.0
  0
VERTEX
  8
DEM_20px_m
 10
39331.85044371865
 20
-174.24691
 30
0.0
  0
VERTEX
  8
DEM_20px_m
 10
39352.91965788879
 20
-174.36804
 30
0.0
  0
VERTEX
  8
DEM_20px_m
 10
39373.98887205894
 20
-174.8164
 30
0.0
  0
VERTEX
  8
DEM_20px_m
 10
39395.05808622908
 20
-174.95511
 30
0.0
  0
VERTEX
  8
DEM_20px_m
 10
39416.127300399225
 20
-175.0
 30
0.0
  0
VERTEX
  8
DEM_20px_m
 10
39437.19651456937
 20
-175.40744
 30
0.0
  0
VERTEX
  8
DEM_20px_m
 10
39458.26572873951
 20
-175.53784
 30
0.0
  0
VERTEX
  8
DEM_20px_m
 10
39479.334942909656
 20
-175.66824
 30
0.0
  0
VERTEX
  8
DEM_20px_m
 10
39500.40415707979
 20
-176.08789
 30
0.0
  0
VERTEX
  8
DEM_20px_m
 10
39521.47337124994
 20
-176.21829
 30
0.0
  0
VERTEX
  8
DEM_20px_m
 10
39542.54258542008
 20
-176.32083
 30
0.0
  0
VERTEX
  8
DEM_20px_m
 10
39563.611799590224
 20
-176.69533
 30
0.0
  0
VERTEX
  8
DEM_20px_m
 10
39584.68101376037
 20
-176.77979
 30
0.0
  0
VERTEX
  8
DEM_20px_m
 10
39605.75022793051
 20
-176.8505
 30
0.0
  0
VERTEX
  8
DEM_20px_m
 10
39626.819442100656
 20
-177.176
 30
0.0
  0
VERTEX
  8
DEM_20px_m
 10
39647.8886562708
 20
-177.12145
 30
0.0
  0
VERTEX
  8
DEM_20px_m
 10
39668.957870440936
 20
-177.0669
 30
0.0
  0
VERTEX
  8
DEM_20px_m
 10
39690.02708461108
 20
-177.27138
 30
0.0
  0
VERTEX
  8
DEM_20px_m
 10
39711.09629878122
 20
-177.26899
 30
0.0
  0
VERTEX
  8
DEM_20px_m
 10
39732.16551295137
 20
-177.2823
 30
0.0
  0
VERTEX
  8
DEM_20px_m
 10
39753.23472712151
 20
-177.33205
 30
0.0
  0
VERTEX
  8
DEM_20px_m
 10
39774.303941291655
 20
-177.7425
 30
0.0
  0
VERTEX
  8
DEM_20px_m
 10
39795.3731554618
 20
-177.84998
 30
0.0
  0
VERTEX
  8
DEM_20px_m
 10
39816.44236963194
 20
-177.95494
 30
0.0
  0
VERTEX
  8
DEM_20px_m
 10
39837.51158380209
 20
-178.39145
 30
0.0
  0
VERTEX
  8
DEM_20px_m
 10
39858.58079797223
 20
-178.47174
 30
0.0
  0
VERTEX
  8
DEM_20px_m
 10
39879.650012142374
 20
-178.51979
 30
0.0
  0
VERTEX
  8
DEM_20px_m
 10
39879.650012142374
 20
-178.51979
 30
0.0
  0
VERTEX
  8
DEM_20px_m
 10
39901.151624432394
 20
-178.9428
 30
0.0
  0
VERTEX
  8
DEM_20px_m
 10
39922.65323672241
 20
-179.06616
 30
0.0
  0
VERTEX
  8
DEM_20px_m
 10
39944.15484901243
 20
-179.52648
 30
0.0
  0
VERTEX
  8
DEM_20px_m
 10
39965.65646130245
 20
-179.65163
 30
0.0
  0
VERTEX
  8
DEM_20px_m
 10
39987.15807359248
 20
-179.74142
 30
0.0
  0
VERTEX
  8
DEM_20px_m
 10
40008.6596858825
 20
-180.05714
 30
0.0
  0
VERTEX
  8
DEM_20px_m
 10
40030.16129817252
 20
-180.11453
 30
0.0
  0
VERTEX
  8
DEM_20px_m
 10
40051.66291046254
 20
-180.23961
 30
0.0
  0
VERTEX
  8
DEM_20px_m
 10
40073.16452275256
 20
-180.7318
 30
0.0
  0
VERTEX
  8
DEM_20px_m
 10
40097.353836578826
 20
-180.89498
 30
0.0
  0
VERTEX
  8
DEM_20px_m
 10
40121.543150405094
 20
-181.41536
 30
0.0
  0
VERTEX
  8
DEM_20px_m
 10
40145.73246423136
 20
-181.47938
 30
0.0
  0
VERTEX
  8
DEM_20px_m
 10
40169.92177805764
 20
-181.89756
 30
0.0
  0
VERTEX
  8
DEM_20px_m
 10
40194.111091883904
 20
-181.98059
 30
0.0
  0
VERTEX
  8
DEM_20px_m
 10
40218.30040571017
 20
-182.41278
 30
0.0
  0
VERTEX
  8
DEM_20px_m
 10
40242.48971953644
 20
-182.50249
 30
0.0
  0
VERTEX
  8
DEM_20px_m
 10
40266.67903336271
 20
-182.91976
 30
0.0
  0
VERTEX
  8
DEM_20px_m
 10
40290.868347188974
 20
-183.02317
 30
0.0
  0
VERTEX
  8
DEM_20px_m
 10
40315.05766101524
 20
-183.3949
 30
0.0
  0
VERTEX
  8
DEM_20px_m
 10
40339.24697484151
 20
-183.4537
 30
0.0
  0
VERTEX
  8
DEM_20px_m
 10
40363.43628866778
 20
-183.89365
 30
0.0
  0
VERTEX
  8
DEM_20px_m
 10
40387.625602494045
 20
-183.97479
 30
0.0
  0
VERTEX
  8
DEM_20px_m
 10
40411.81491632031
 20
-184.39786
 30
0.0
  0
VERTEX
  8
DEM_20px_m
 10
40436.00423014658
 20
-184.83644
 30
0.0
  0
VERTEX
  8
DEM_20px_m
 10
40460.19354397285
 20
-184.94736
 30
0.0
  0
VERTEX
  8
DEM_20px_m
 10
40484.38285779912
 20
-185.35185
 30
0.0
  0
VERTEX
  8
DEM_20px_m
 10
40508.5721716254
 20
-185.44484
 30
0.0
  0
VERTEX
  8
DEM_20px_m
 10
40532.76148545167
 20
-185.8388
 30
0.0
  0
VERTEX
  8
DEM_20px_m
 10
40556.95079927795
 20
-186.22217
 30
0.0
  0
VERTEX
  8
DEM_20px_m
 10
40581.14011310422
 20
-186.35979
 30
0.0
  0
VERTEX
  8
DEM_20px_m
 10
40605.3294269305
 20
-186.83935
 30
0.0
  0
VERTEX
  8
DEM_20px_m
 10
40629.51874075677
 20
-186.98384
 30
0.0
  0
VERTEX
  8
DEM_20px_m
 10
40653.70805458305
 20
-187.44031
 30
0.0
  0
VERTEX
  8
DEM_20px_m
 10
40681.352984670215
 20
-187.91676
 30
0.0
  0
VERTEX
  8
DEM_20px_m
 10
40708.997914757376
 20
-188.40588
 30
0.0
  0
VERTEX
  8
DEM_20px_m
 10
40736.642844844544
 20
-188.6183
 30
0.0
  0
VERTEX
  8
DEM_20px_m
 10
40764.287774931705
 20
-189.02344
 30
0.0
  0
VERTEX
  8
DEM_20px_m
 10
40791.93270501887
 20
-189.4079
 30
0.0
  0
VERTEX
  8
DEM_20px_m
 10
40819.577635106034
 20
-189.8042
 30
0.0
  0
VERTEX
  8
DEM_20px_m
 10
40847.2225651932
 20
-190.0
 30
0.0
  0
VERTEX
  8
DEM_20px_m
 10
40874.86749528036
 20
-190.0
 30
0.0
  0
VERTEX
  8
DEM_20px_m
 10
40902.512425367524
 20
-190.0
 30
0.0
  0
VERTEX
  8
DEM_20px_m
 10
40930.157355454685
 20
-190.0
 30
0.0
  0
VERTEX
  8
DEM_20px_m
 10
40957.802285541846
 20
-190.0
 30
0.0
  0
VERTEX
  8
DEM_20px_m
 10
40985.44721562901
 20
-190.0
 30
0.0
  0
VERTEX
  8
DEM_20px_m
 10
41013.09214571617
 20
-190.0
 30
0.0
  0
VERTEX
  8
DEM_20px_m
 10
41040.73707580333
 20
-190.0
 30
0.0
  0
VERTEX
  8
DEM_20px_m
 10
41068.382005890504
 20
-190.0
 30
0.0
  0
VERTEX
  8
DEM_20px_m
 10
41096.02693597768
 20
-190.0
 30
0.0
  0
VERTEX
  8
DEM_20px_m
 10
41123.671866064855
 20
-190.0
 30
0.0
  0
VERTEX
  8
DEM_20px_m
 10
41151.31679615204
 20
-190.0
 30
0.0
  0
VERTEX
  8
DEM_20px_m
 10
41178.96172623921
 20
-190.0
 30
0.0
  0
VERTEX
  8
DEM_20px_m
 10
41206.60665632639
 20
-190.44113
 30
0.0
  0
VERTEX
  8
DEM_20px_m
 10
41234.251586413564
 20
-191.153
 30
0.0
  0
VERTEX
  8
DEM_20px_m
 10
41266.50400484859
 20
-191.86215
 30
0.0
  0
VERTEX
  8
DEM_20px_m
 10
41298.75642328361
 20
-192.59878
 30
0.0
  0
VERTEX
  8
DEM_20px_m
 10
41331.008841718634
 20
-193.85581
 30
0.0
  0
VERTEX
  8
DEM_20px_m
 10
41363.26126015365
 20
-194.60351
 30
0.0
  0
VERTEX
  8
DEM_20px_m
 10
41395.51367858868
 20
-195.4429
 30
0.0
  0
VERTEX
  8
DEM_20px_m
 10
41427.7660970237
 20
-196.72669
 30
0.0
  0
VERTEX
  8
DEM_20px_m
 10
41455.411027110866
 20
-197.39315
 30
0.0
  0
VERTEX
  8
DEM_20px_m
 10
41483.055957198034
 20
-198.41319
 30
0.0
  0
VERTEX
  8
DEM_20px_m
 10
41510.7008872852
 20
-199.49226
 30
0.0
  0
VERTEX
  8
DEM_20px_m
 10
41538.34581737237
 20
-200.68988
 30
0.0
  0
VERTEX
  8
DEM_20px_m
 10
41565.99074745953
 20
-201.91172
 30
0.0
  0
VERTEX
  8
DEM_20px_m
 10
41593.6356775467
 20
-203.13355
 30
0.0
  0
VERTEX
  8
DEM_20px_m
 10
41621.28060763387
 20
-204.35538
 30
0.0
  0
VERTEX
  8
DEM_20px_m
 10
41648.92553772104
 20
-205.0
 30
0.0
  0
VERTEX
  8
DEM_20px_m
 10
41676.570467808226
 20
-205.0
 30
0.0
  0
VERTEX
  8
DEM_20px_m
 10
41704.2153978954
 20
-205.0
 30
0.0
  0
VERTEX
  8
DEM_20px_m
 10
41731.860327982584
 20
-205.0
 30
0.0
  0
VERTEX
  8
DEM_20px_m
 10
41759.50525806976
 20
-205.0
 30
0.0
  0
VERTEX
  8
DEM_20px_m
 10
41787.150188156935
 20
-205.0
 30
0.0
  0
VERTEX
  8
DEM_20px_m
 10
41814.79511824412
 20
-205.0
 30
0.0
  0
VERTEX
  8
DEM_20px_m
 10
41838.98443207038
 20
-205.0
 30
0.0
  0
VERTEX
  8
DEM_20px_m
 10
41863.173745896645
 20
-205.0
 30
0.0
  0
VERTEX
  8
DEM_20px_m
 10
41887.363059722906
 20
-204.61065
 30
0.0
  0
VERTEX
  8
DEM_20px_m
 10
41911.552373549166
 20
-204.20386
 30
0.0
  0
VERTEX
  8
DEM_20px_m
 10
41935.741687375434
 20
-203.33001
 30
0.0
  0
VERTEX
  8
DEM_20px_m
 10
41959.931001201694
 20
-202.53738
 30
0.0
  0
VERTEX
  8
DEM_20px_m
 10
41984.120315027954
 20
-202.05435
 30
0.0
  0
VERTEX
  8
DEM_20px_m
 10
42008.309628854215
 20
-201.24768
 30
0.0
  0
VERTEX
  8
DEM_20px_m
 10
42032.49894268049
 20
-200.77453
 30
0.0
  0
VERTEX
  8
DEM_20px_m
 10
42056.688256506764
 20
-200.0
 30
0.0
  0
VERTEX
  8
DEM_20px_m
 10
42080.87757033305
 20
-200.0
 30
0.0
  0
VERTEX
  8
DEM_20px_m
 10
42105.06688415932
 20
-200.0
 30
0.0
  0
VERTEX
  8
DEM_20px_m
 10
42129.2561979856
 20
-200.0
 30
0.0
  0
VERTEX
  8
DEM_20px_m
 10
42153.44551181187
 20
-200.0
 30
0.0
  0
VERTEX
  8
DEM_20px_m
 10
42177.63482563815
 20
-200.0
 30
0.0
  0
VERTEX
  8
DEM_20px_m
 10
42201.82413946443
 20
-200.0
 30
0.0
  0
VERTEX
  8
DEM_20px_m
 10
42224.40155792765
 20
-200.0
 30
0.0
  0
VERTEX
  8
DEM_20px_m
 10
42246.97897639088
 20
-200.0
 30
0.0
  0
VERTEX
  8
DEM_20px_m
 10
42269.5563948541
 20
-200.0
 30
0.0
  0
VERTEX
  8
DEM_20px_m
 10
42292.133813317334
 20
-200.0
 30
0.0
  0
VERTEX
  8
DEM_20px_m
 10
42314.71123178056
 20
-200.0
 30
0.0
  0
VERTEX
  8
DEM_20px_m
 10
42337.28865024378
 20
-200.0
 30
0.0
  0
VERTEX
  8
DEM_20px_m
 10
42359.86606870701
 20
-200.0
 30
0.0
  0
VERTEX
  8
DEM_20px_m
 10
42382.44348717023
 20
-200.0
 30
0.0
  0
VERTEX
  8
DEM_20px_m
 10
42405.02090563346
 20
-200.0
 30
0.0
  0
VERTEX
  8
DEM_20px_m
 10
42427.59832409669
 20
-200.0
 30
0.0
  0
VERTEX
  8
DEM_20px_m
 10
42450.17574255991
 20
-200.0
 30
0.0
  0
VERTEX
  8
DEM_20px_m
 10
42472.75316102314
 20
-200.0
 30
0.0
  0
VERTEX
  8
DEM_20px_m
 10
42495.33057948636
 20
-200.0
 30
0.0
  0
VERTEX
  8
DEM_20px_m
 10
42517.90799794959
 20
-200.0
 30
0.0
  0
VERTEX
  8
DEM_20px_m
 10
42540.48541641281
 20
-200.0
 30
0.0
  0
VERTEX
  8
DEM_20px_m
 10
42563.062834876044
 20
-200.0
 30
0.0
  0
VERTEX
  8
DEM_20px_m
 10
42585.64025333927
 20
-200.35818
 30
0.0
  0
VERTEX
  8
DEM_20px_m
 10
42608.21767180249
 20
-202.19643
 30
0.0
  0
VERTEX
  8
DEM_20px_m
 10
42630.79509026572
 20
-203.84135
 30
0.0
  0
VERTEX
  8
DEM_20px_m
 10
42653.37250872894
 20
-205.34697
 30
0.0
  0
VERTEX
  8
DEM_20px_m
 10
42675.94992719217
 20
-207.42331
 30
0.0
  0
VERTEX
  8
DEM_20px_m
 10
42698.5273456554
 20
-209.11311
 30
0.0
  0
VERTEX
  8
DEM_20px_m
 10
42721.10476411862
 20
-210.0
 30
0.0
  0
VERTEX
  8
DEM_20px_m
 10
42743.68218258185
 20
-210.0
 30
0.0
  0
VERTEX
  8
DEM_20px_m
 10
42766.25960104507
 20
-210.0
 30
0.0
  0
VERTEX
  8
DEM_20px_m
 10
42788.8370195083
 20
-210.0
 30
0.0
  0
VERTEX
  8
DEM_20px_m
 10
42811.41443797152
 20
-210.0
 30
0.0
  0
VERTEX
  8
DEM_20px_m
 10
42833.99185643475
 20
-210.0
 30
0.0
  0
VERTEX
  8
DEM_20px_m
 10
42856.56927489798
 20
-210.0
 30
0.0
  0
VERTEX
  8
DEM_20px_m
 10
42879.1466933612
 20
-210.0
 30
0.0
  0
VERTEX
  8
DEM_20px_m
 10
42901.72411182443
 20
-210.0
 30
0.0
  0
VERTEX
  8
DEM_20px_m
 10
42924.30153028765
 20
-210.0
 30
0.0
  0
VERTEX
  8
DEM_20px_m
 10
42946.87894875088
 20
-210.0
 30
0.0
  0
VERTEX
  8
DEM_20px_m
 10
42969.45636721411
 20
-210.0
 30
0.0
  0
VERTEX
  8
DEM_20px_m
 10
42992.03378567733
 20
-210.0
 30
0.0
  0
VERTEX
  8
DEM_20px_m
 10
43014.61120414056
 20
-210.0
 30
0.0
  0
VERTEX
  8
DEM_20px_m
 10
43037.18862260378
 20
-210.0
 30
0.0
  0
VERTEX
  8
DEM_20px_m
 10
43059.76604106701
 20
-210.0
 30
0.0
  0
VERTEX
  8
DEM_20px_m
 10
43082.34345953023
 20
-210.0
 30
0.0
  0
VERTEX
  8
DEM_20px_m
 10
43104.920877993456
 20
-210.0
 30
0.0
  0
VERTEX
  8
DEM_20px_m
 10
43127.49829645669
 20
-210.0
 30
0.0
  0
VERTEX
  8
DEM_20px_m
 10
43150.07571491991
 20
-210.0
 30
0.0
  0
VERTEX
  8
DEM_20px_m
 10
43172.65313338314
 20
-210.0
 30
0.0
  0
VERTEX
  8
DEM_20px_m
 10
43195.23055184636
 20
-211.35114
 30
0.0
  0
VERTEX
  8
DEM_20px_m
 10
43217.80797030959
 20
-212.24363
 30
0.0
  0
VERTEX
  8
DEM_20px_m
 10
43240.38538877281
 20
-213.01513
 30
0.0
  0
VERTEX
  8
DEM_20px_m
 10
43262.96280723604
 20
-213.78663
 30
0.0
  0
VERTEX
  8
DEM_20px_m
 10
43285.54022569927
 20
-214.55813
 30
0.0
  0
VERTEX
  8
DEM_20px_m
 10
43308.11764416249
 20
-215.0
 30
0.0
  0
VERTEX
  8
DEM_20px_m
 10
43330.69506262572
 20
-215.0
 30
0.0
  0
VERTEX
  8
DEM_20px_m
 10
43353.27248108894
 20
-215.0
 30
0.0
  0
VERTEX
  8
DEM_20px_m
 10
43375.849899552166
 20
-215.0
 30
0.0
  0
VERTEX
  8
DEM_20px_m
 10
43398.4273180154
 20
-215.0
 30
0.0
  0
VERTEX
  8
DEM_20px_m
 10
43421.00473647862
 20
-215.0
 30
0.0
  0
VERTEX
  8
DEM_20px_m
 10
43443.58215494185
 20
-215.1528
 30
0.0
  0
VERTEX
  8
DEM_20px_m
 10
43466.15957340507
 20
-215.54461
 30
0.0
  0
VERTEX
  8
DEM_20px_m
 10
43488.736991868296
 20
-215.77339
 30
0.0
  0
VERTEX
  8
DEM_20px_m
 10
43511.31441033152
 20
-216.17647
 30
0.0
  0
VERTEX
  8
DEM_20px_m
 10
43533.89182879475
 20
-216.3981
 30
0.0
  0
VERTEX
  8
DEM_20px_m
 10
43556.46924725798
 20
-216.80498
 30
0.0
  0
VERTEX
  8
DEM_20px_m
 10
43579.0466657212
 20
-217.02281
 30
0.0
  0
VERTEX
  8
DEM_20px_m
 10
43601.62408418443
 20
-217.42998
 30
0.0
  0
VERTEX
  8
DEM_20px_m
 10
43624.20150264765
 20
-217.64758
 30
0.0
  0
VERTEX
  8
DEM_20px_m
 10
43646.778921110876
 20
-218.05498
 30
0.0
  0
VERTEX
  8
DEM_20px_m
 10
43669.35633957411
 20
-218.46191
 30
0.0
  0
VERTEX
  8
DEM_20px_m
 10
43691.93375803733
 20
-218.67998
 30
0.0
  0
VERTEX
  8
DEM_20px_m
 10
43714.51117650056
 20
-219.08691
 30
0.0
  0
VERTEX
  8
DEM_20px_m
 10
43737.08859496378
 20
-219.30498
 30
0.0
  0
VERTEX
  8
DEM_20px_m
 10
43759.666013427006
 20
-219.71191
 30
0.0
  0
VERTEX
  8
DEM_20px_m
 10
43782.24343189023
 20
-219.92999
 30
0.0
  0
VERTEX
  8
DEM_20px_m
 10
43804.820850353455
 20
-222.10633
 30
0.0
  0
VERTEX
  8
DEM_20px_m
 10
43827.39826881669
 20
-223.30732
 30
0.0
  0
VERTEX
  8
DEM_20px_m
 10
43849.97568727991
 20
-225.0
 30
0.0
  0
VERTEX
  8
DEM_20px_m
 10
43872.553105743136
 20
-225.0
 30
0.0
  0
VERTEX
  8
DEM_20px_m
 10
43895.13052420636
 20
-225.74632
 30
0.0
  0
VERTEX
  8
DEM_20px_m
 10
43917.707942669585
 20
-226.30926
 30
0.0
  0
VERTEX
  8
DEM_20px_m
 10
43940.28536113281
 20
-227.24304
 30
0.0
  0
VERTEX
  8
DEM_20px_m
 10
43962.86277959604
 20
-227.81631
 30
0.0
  0
VERTEX
  8
DEM_20px_m
 10
43985.44019805927
 20
-228.74811
 30
0.0
  0
VERTEX
  8
DEM_20px_m
 10
44008.01761652249
 20
-229.33266
 30
0.0
  0
VERTEX
  8
DEM_20px_m
 10
44030.595034985716
 20
-230.34574
 30
0.0
  0
VERTEX
  8
DEM_20px_m
 10
44053.17245344894
 20
-231.13716
 30
0.0
  0
VERTEX
  8
DEM_20px_m
 10
44075.749871912165
 20
-232.3754
 30
0.0
  0
VERTEX
  8
DEM_20px_m
 10
44098.3272903754
 20
-233.1653
 30
0.0
  0
VERTEX
  8
DEM_20px_m
 10
44120.90470883862
 20
-234.40608
 30
0.0
  0
VERTEX
  8
DEM_20px_m
 10
44143.482127301846
 20
-235.19152
 30
0.0
  0
VERTEX
  8
DEM_20px_m
 10
44166.05954576507
 20
-236.68384
 30
0.0
  0
VERTEX
  8
DEM_20px_m
 10
44188.636964228295
 20
-238.1698
 30
0.0
  0
VERTEX
  8
DEM_20px_m
 10
44211.21438269152
 20
-239.05646
 30
0.0
  0
VERTEX
  8
DEM_20px_m
 10
44233.79180115475
 20
-240.60782
 30
0.0
  0
VERTEX
  8
DEM_20px_m
 10
44256.369219617976
 20
-241.58154
 30
0.0
  0
VERTEX
  8
DEM_20px_m
 10
44278.9466380812
 20
-243.14845
 30
0.0
  0
VERTEX
  8
DEM_20px_m
 10
44301.524056544426
 20
-244.26143
 30
0.0
  0
VERTEX
  8
DEM_20px_m
 10
44324.10147500765
 20
-245.47926
 30
0.0
  0
VERTEX
  8
DEM_20px_m
 10
44346.678893470875
 20
-246.27106
 30
0.0
  0
VERTEX
  8
DEM_20px_m
 10
44369.25631193411
 20
-247.30063
 30
0.0
  0
VERTEX
  8
DEM_20px_m
 10
44391.83373039733
 20
-248.03372
 30
0.0
  0
VERTEX
  8
DEM_20px_m
 10
44414.411148860556
 20
-249.12342
 30
0.0
  0
VERTEX
  8
DEM_20px_m
 10
44436.98856732378
 20
-249.85108
 30
0.0
  0
VERTEX
  8
DEM_20px_m
 10
44459.565985787005
 20
-250.76659
 30
0.0
  0
VERTEX
  8
DEM_20px_m
 10
44482.14340425023
 20
-251.35611
 30
0.0
  0
VERTEX
  8
DEM_20px_m
 10
44504.720822713454
 20
-252.18841
 30
0.0
  0
VERTEX
  8
DEM_20px_m
 10
44527.298241176686
 20
-252.82314
 30
0.0
  0
VERTEX
  8
DEM_20px_m
 10
44549.87565963991
 20
-253.59253
 30
0.0
  0
VERTEX
  8
DEM_20px_m
 10
44572.453078103135
 20
-254.22144
 30
0.0
  0
VERTEX
  8
DEM_20px_m
 10
44595.03049656636
 20
-254.95205
 30
0.0
  0
VERTEX
  8
DEM_20px_m
 10
44617.607915029585
 20
-255.93952
 30
0.0
  0
VERTEX
  8
DEM_20px_m
 10
44640.18533349281
 20
-256.98717
 30
0.0
  0
VERTEX
  8
DEM_20px_m
 10
44662.76275195604
 20
-258.00286
 30
0.0
  0
VERTEX
  8
DEM_20px_m
 10
44685.340170419266
 20
-259.42322
 30
0.0
  0
VERTEX
  8
DEM_20px_m
 10
44707.91758888249
 20
-260.51401
 30
0.0
  0
VERTEX
  8
DEM_20px_m
 10
44730.495007345715
 20
-261.91965
 30
0.0
  0
VERTEX
  8
DEM_20px_m
 10
44753.07242580894
 20
-263.46297
 30
0.0
  0
VERTEX
  8
DEM_20px_m
 10
44775.649844272164
 20
-264.49077
 30
0.0
  0
VERTEX
  8
DEM_20px_m
 10
44798.227262735396
 20
-266.16284
 30
0.0
  0
VERTEX
  8
DEM_20px_m
 10
44820.80468119862
 20
-267.25561
 30
0.0
  0
VERTEX
  8
DEM_20px_m
 10
44843.382099661845
 20
-268.95747
 30
0.0
  0
VERTEX
  8
DEM_20px_m
 10
44865.95951812507
 20
-270.08407
 30
0.0
  0
VERTEX
  8
DEM_20px_m
 10
44888.536936588294
 20
-272.40129
 30
0.0
  0
VERTEX
  8
DEM_20px_m
 10
44911.11435505152
 20
-273.95766
 30
0.0
  0
VERTEX
  8
DEM_20px_m
 10
44933.69177351475
 20
-276.47196
 30
0.0
  0
VERTEX
  8
DEM_20px_m
 10
44956.269191977975
 20
-278.27262
 30
0.0
  0
VERTEX
  8
DEM_20px_m
 10
44978.8466104412
 20
-281.04633
 30
0.0
  0
VERTEX
  8
DEM_20px_m
 10
45001.424028904425
 20
-282.8547
 30
0.0
  0
VERTEX
  8
DEM_20px_m
 10
45024.00144736765
 20
-285.82068
 30
0.0
  0
VERTEX
  8
DEM_20px_m
 10
45046.578865830874
 20
-287.90191
 30
0.0
  0
VERTEX
  8
DEM_20px_m
 10
45069.156284294106
 20
-291.36061
 30
0.0
  0
VERTEX
  8
DEM_20px_m
 10
45091.73370275733
 20
-293.82102
 30
0.0
  0
VERTEX
  8
DEM_20px_m
 10
45114.311121220555
 20
-297.91665
 30
0.0
  0
VERTEX
  8
DEM_20px_m
 10
45136.88853968378
 20
-300.66493
 30
0.0
  0
VERTEX
  8
DEM_20px_m
 10
45159.465958147004
 20
-304.9629
 30
0.0
  0
VERTEX
  8
DEM_20px_m
 10
45182.04337661023
 20
-307.91865
 30
0.0
  0
VERTEX
  8
DEM_20px_m
 10
45204.62079507345
 20
-312.59173
 30
0.0
  0
VERTEX
  8
DEM_20px_m
 10
45227.198213536685
 20
-315.677
 30
0.0
  0
VERTEX
  8
DEM_20px_m
 10
45249.77563199991
 20
-320.69632
 30
0.0
  0
VERTEX
  8
DEM_20px_m
 10
45272.353050463134
 20
-326.27931
 30
0.0
  0
VERTEX
  8
DEM_20px_m
 10
45294.93046892636
 20
-330.2088
 30
0.0
  0
VERTEX
  8
DEM_20px_m
 10
45317.50788738958
 20
-338.61019
 30
0.0
  0
VERTEX
  8
DEM_20px_m
 10
45340.08530585281
 20
-343.05654
 30
0.0
  0
VERTEX
  8
DEM_20px_m
 10
45362.66272431604
 20
-349.16848
 30
0.0
  0
VERTEX
  8
DEM_20px_m
 10
45385.240142779265
 20
-352.22021
 30
0.0
  0
VERTEX
  8
DEM_20px_m
 10
45407.81756124249
 20
-357.2624
 30
0.0
  0
VERTEX
  8
DEM_20px_m
 10
45430.394979705714
 20
-360.23338
 30
0.0
  0
VERTEX
  8
DEM_20px_m
 10
45452.97239816894
 20
-365.14483
 30
0.0
  0
VERTEX
  8
DEM_20px_m
 10
45475.54981663216
 20
-367.97117
 30
0.0
  0
VERTEX
  8
DEM_20px_m
 10
45498.127235095395
 20
-372.57253
 30
0.0
  0
VERTEX
  8
DEM_20px_m
 10
45520.70465355862
 20
-375.1154
 30
0.0
  0
VERTEX
  8
DEM_20px_m
 10
45543.282072021844
 20
-379.21739
 30
0.0
  0
VERTEX
  8
DEM_20px_m
 10
45565.85949048507
 20
-381.3885
 30
0.0
  0
VERTEX
  8
DEM_20px_m
 10
45588.43690894829
 20
-385.14937
 30
0.0
  0
VERTEX
  8
DEM_20px_m
 10
45611.01432741152
 20
-387.21954
 30
0.0
  0
VERTEX
  8
DEM_20px_m
 10
45633.59174587475
 20
-390.97042
 30
0.0
  0
VERTEX
  8
DEM_20px_m
 10
45656.169164337975
 20
-393.01563
 30
0.0
  0
VERTEX
  8
DEM_20px_m
 10
45678.7465828012
 20
-396.75623
 30
0.0
  0
VERTEX
  8
DEM_20px_m
 10
45701.324001264424
 20
-398.98722
 30
0.0
  0
VERTEX
  8
DEM_20px_m
 10
45723.90141972765
 20
-403.14911
 30
0.0
  0
VERTEX
  8
DEM_20px_m
 10
45746.47883819087
 20
-405.70082
 30
0.0
  0
VERTEX
  8
DEM_20px_m
 10
45769.056256654105
 20
-410.61757
 30
0.0
  0
VERTEX
  8
DEM_20px_m
 10
45791.63367511733
 20
-415.46946
 30
0.0
  0
VERTEX
  8
DEM_20px_m
 10
45814.211093580554
 20
-417.74192
 30
0.0
  0
VERTEX
  8
DEM_20px_m
 10
45836.78851204378
 20
-421.13715
 30
0.0
  0
VERTEX
  8
DEM_20px_m
 10
45859.365930507
 20
-422.90878
 30
0.0
  0
VERTEX
  8
DEM_20px_m
 10
45881.94334897023
 20
-425.76808
 30
0.0
  0
VERTEX
  8
DEM_20px_m
 10
45904.52076743345
 20
-427.61113
 30
0.0
  0
VERTEX
  8
DEM_20px_m
 10
45927.098185896684
 20
-430.63681
 30
0.0
  0
VERTEX
  8
DEM_20px_m
 10
45949.67560435991
 20
-432.71589
 30
0.0
  0
VERTEX
  8
DEM_20px_m
 10
45972.25302282313
 20
-436.26498
 30
0.0
  0
VERTEX
  8
DEM_20px_m
 10
45994.83044128636
 20
-438.40585
 30
0.0
  0
VERTEX
  8
DEM_20px_m
 10
46017.40785974958
 20
-442.23936
 30
0.0
  0
VERTEX
  8
DEM_20px_m
 10
46039.985278212815
 20
-444.36847
 30
0.0
  0
VERTEX
  8
DEM_20px_m
 10
46062.56269667604
 20
-448.34894
 30
0.0
  0
VERTEX
  8
DEM_20px_m
 10
46085.140115139264
 20
-450.41293
 30
0.0
  0
VERTEX
  8
DEM_20px_m
 10
46107.71753360249
 20
-454.25213
 30
0.0
  0
VERTEX
  8
DEM_20px_m
 10
46130.29495206571
 20
-456.0346
 30
0.0
  0
VERTEX
  8
DEM_20px_m
 10
46152.87237052894
 20
-458.94948
 30
0.0
  0
VERTEX
  8
DEM_20px_m
 10
46175.44978899216
 20
-460.69465
 30
0.0
  0
VERTEX
  8
DEM_20px_m
 10
46198.027207455394
 20
-462.97773
 30
0.0
  0
VERTEX
  8
DEM_20px_m
 10
46220.60462591862
 20
-464.69447
 30
0.0
  0
VERTEX
  8
DEM_20px_m
 10
46243.18204438184
 20
-467.31783
 30
0.0
  0
VERTEX
  8
DEM_20px_m
 10
46265.75946284507
 20
-469.38768
 30
0.0
  0
VERTEX
  8
DEM_20px_m
 10
46288.33688130829
 20
-472.54479
 30
0.0
  0
VERTEX
  8
DEM_20px_m
 10
46310.91429977152
 20
-475.87772
 30
0.0
  0
VERTEX
  8
DEM_20px_m
 10
46333.49171823475
 20
-479.05368
 30
0.0
  0
VERTEX
  8
DEM_20px_m
 10
46356.06913669797
 20
-483.00374
 30
0.0
  0
VERTEX
  8
DEM_20px_m
 10
46378.6465551612
 20
-486.63488
 30
0.0
  0
VERTEX
  8
DEM_20px_m
 10
46401.22397362442
 20
-491.02914
 30
0.0
  0
VERTEX
  8
DEM_20px_m
 10
46423.80139208765
 20
-494.95511
 30
0.0
  0
VERTEX
  8
DEM_20px_m
 10
46446.37881055087
 20
-498.85587
 30
0.0
  0
VERTEX
  8
DEM_20px_m
 10
46468.956229014104
 20
-501.60414
 30
0.0
  0
VERTEX
  8
DEM_20px_m
 10
46491.53364747733
 20
-504.69889
 30
0.0
  0
VERTEX
  8
DEM_20px_m
 10
46514.11106594055
 20
-506.2855
 30
0.0
  0
VERTEX
  8
DEM_20px_m
 10
46536.68848440378
 20
-508.53353
 30
0.0
  0
VERTEX
  8
DEM_20px_m
 10
46559.265902867
 20
-509.85974
 30
0.0
  0
VERTEX
  8
DEM_20px_m
 10
46581.84332133023
 20
-511.66393
 30
0.0
  0
VERTEX
  8
DEM_20px_m
 10
46604.42073979345
 20
-512.72377
 30
0.0
  0
VERTEX
  8
DEM_20px_m
 10
46626.99815825668
 20
-514.50081
 30
0.0
  0
VERTEX
  8
DEM_20px_m
 10
46649.57557671991
 20
-515.46416
 30
0.0
  0
VERTEX
  8
DEM_20px_m
 10
46672.15299518313
 20
-516.90631
 30
0.0
  0
VERTEX
  8
DEM_20px_m
 10
46694.73041364636
 20
-517.78649
 30
0.0
  0
VERTEX
  8
DEM_20px_m
 10
46717.30783210958
 20
-519.2278
 30
0.0
  0
VERTEX
  8
DEM_20px_m
 10
46739.885250572814
 20
-520.10543
 30
0.0
  0
VERTEX
  8
DEM_20px_m
 10
46762.46266903604
 20
-521.50626
 30
0.0
  0
VERTEX
  8
DEM_20px_m
 10
46785.04008749926
 20
-522.35104
 30
0.0
  0
VERTEX
  8
DEM_20px_m
 10
46807.61750596249
 20
-523.75949
 30
0.0
  0
VERTEX
  8
DEM_20px_m
 10
46830.19492442571
 20
-525.16917
 30
0.0
  0
VERTEX
  8
DEM_20px_m
 10
46852.77234288894
 20
-525.8935
 30
0.0
  0
VERTEX
  8
DEM_20px_m
 10
46875.34976135216
 20
-527.29779
 30
0.0
  0
VERTEX
  8
DEM_20px_m
 10
46897.92717981539
 20
-528.13063
 30
0.0
  0
VERTEX
  8
DEM_20px_m
 10
46920.50459827862
 20
-529.54602
 30
0.0
  0
VERTEX
  8
DEM_20px_m
 10
46943.08201674184
 20
-530.4922
 30
0.0
  0
VERTEX
  8
DEM_20px_m
 10
46965.65943520507
 20
-532.04026
 30
0.0
  0
VERTEX
  8
DEM_20px_m
 10
46988.23685366829
 20
-533.07805
 30
0.0
  0
VERTEX
  8
DEM_20px_m
 10
47010.814272131516
 20
-534.63164
 30
0.0
  0
VERTEX
  8
DEM_20px_m
 10
47033.39169059475
 20
-535.68471
 30
0.0
  0
VERTEX
  8
DEM_20px_m
 10
47055.96910905797
 20
-537.36213
 30
0.0
  0
VERTEX
  8
DEM_20px_m
 10
47078.5465275212
 20
-538.28575
 30
0.0
  0
VERTEX
  8
DEM_20px_m
 10
47101.12394598442
 20
-539.96289
 30
0.0
  0
VERTEX
  8
DEM_20px_m
 10
47123.70136444765
 20
-540.91669
 30
0.0
  0
VERTEX
  8
DEM_20px_m
 10
47146.27878291087
 20
-542.5801
 30
0.0
  0
VERTEX
  8
DEM_20px_m
 10
47168.8562013741
 20
-543.57956
 30
0.0
  0
VERTEX
  8
DEM_20px_m
 10
47191.43361983733
 20
-545.25575
 30
0.0
  0
VERTEX
  8
DEM_20px_m
 10
47214.01103830055
 20
-546.24386
 30
0.0
  0
VERTEX
  8
DEM_20px_m
 10
47236.58845676378
 20
-547.83961
 30
0.0
  0
VERTEX
  8
DEM_20px_m
 10
47259.165875227
 20
-548.83182
 30
0.0
  0
VERTEX
  8
DEM_20px_m
 10
47281.743293690226
 20
-550.41516
 30
0.0
  0
VERTEX
  8
DEM_20px_m
 10
47304.32071215345
 20
-551.47109
 30
0.0
  0
VERTEX
  8
DEM_20px_m
 10
47326.89813061668
 20
-552.96923
 30
0.0
  0
VERTEX
  8
DEM_20px_m
 10
47349.47554907991
 20
-554.04804
 30
0.0
  0
VERTEX
  8
DEM_20px_m
 10
47372.05296754313
 20
-555.59354
 30
0.0
  0
VERTEX
  8
DEM_20px_m
 10
47394.630386006356
 20
-557.26899
 30
0.0
  0
VERTEX
  8
DEM_20px_m
 10
47417.20780446958
 20
-558.49411
 30
0.0
  0
VERTEX
  8
DEM_20px_m
 10
47439.78522293281
 20
-560.17856
 30
0.0
  0
VERTEX
  8
DEM_20px_m
 10
47462.36264139604
 20
-561.29692
 30
0.0
  0
VERTEX
  8
DEM_20px_m
 10
47484.94005985926
 20
-562.94167
 30
0.0
  0
VERTEX
  8
DEM_20px_m
 10
47507.51747832249
 20
-564.04002
 30
0.0
  0
VERTEX
  8
DEM_20px_m
 10
47530.09489678571
 20
-565.66301
 30
0.0
  0
VERTEX
  8
DEM_20px_m
 10
47552.672315248936
 20
-566.73598
 30
0.0
  0
VERTEX
  8
DEM_20px_m
 10
47575.24973371216
 20
-568.2916
 30
0.0
  0
VERTEX
  8
DEM_20px_m
 10
47597.82715217539
 20
-569.37433
 30
0.0
  0
VERTEX
  8
DEM_20px_m
 10
47620.40457063862
 20
-571.09419
 30
0.0
  0
VERTEX
  8
DEM_20px_m
 10
47642.98198910184
 20
-572.3629
 30
0.0
  0
VERTEX
  8
DEM_20px_m
 10
47665.559407565066
 20
-574.09647
 30
0.0
  0
VERTEX
  8
DEM_20px_m
 10
47688.13682602829
 20
-575.40826
 30
0.0
  0
VERTEX
  8
DEM_20px_m
 10
47710.714244491515
 20
-576.74309
 30
0.0
  0
VERTEX
  8
DEM_20px_m
 10
47733.29166295475
 20
-577.9448
 30
0.0
  0
VERTEX
  8
DEM_20px_m
 10
47755.86908141797
 20
-578.98314
 30
0.0
  0
VERTEX
  8
DEM_20px_m
 10
47778.446499881196
 20
-580.2917
 30
0.0
  0
VERTEX
  8
DEM_20px_m
 10
47801.02391834442
 20
-582.61422
 30
0.0
  0
VERTEX
  8
DEM_20px_m
 10
47823.601336807646
 20
-585.08467
 30
0.0
  0
VERTEX
  8
DEM_20px_m
 10
47846.17875527087
 20
-587.62982
 30
0.0
  0
VERTEX
  8
DEM_20px_m
 10
47868.7561737341
 20
-591.10184
 30
0.0
  0
VERTEX
  8
DEM_20px_m
 10
47891.33359219733
 20
-592.2564
 30
0.0
  0
VERTEX
  8
DEM_20px_m
 10
47913.91101066055
 20
-593.84373
 30
0.0
  0
VERTEX
  8
DEM_20px_m
 10
47936.488429123776
 20
-595.82723
 30
0.0
  0
VERTEX
  8
DEM_20px_m
 10
47959.065847587
 20
-596.71913
 30
0.0
  0
VERTEX
  8
DEM_20px_m
 10
47981.643266050225
 20
-598.05417
 30
0.0
  0
VERTEX
  8
DEM_20px_m
 10
48004.22068451345
 20
-599.22797
 30
0.0
  0
VERTEX
  8
DEM_20px_m
 10
48026.79810297668
 20
-600.55872
 30
0.0
  0
VERTEX
  8
DEM_20px_m
 10
48049.375521439906
 20
-601.39119
 30
0.0
  0
VERTEX
  8
DEM_20px_m
 10
48071.95293990313
 20
-602.38301
 30
0.0
  0
VERTEX
  8
DEM_20px_m
 10
48094.530358366355
 20
-603.07588
 30
0.0
  0
VERTEX
  8
DEM_20px_m
 10
48117.10777682958
 20
-604.02119
 30
0.0
  0
VERTEX
  8
DEM_20px_m
 10
48139.68519529281
 20
-604.97343
 30
0.0
  0
VERTEX
  8
DEM_20px_m
 10
48162.26261375604
 20
-606.29701
 30
0.0
  0
VERTEX
  8
DEM_20px_m
 10
48184.84003221926
 20
-607.94691
 30
0.0
  0
VERTEX
  8
DEM_20px_m
 10
48207.417450682486
 20
-609.28458
 30
0.0
  0
VERTEX
  8
DEM_20px_m
 10
48229.99486914571
 20
-611.41314
 30
0.0
  0
VERTEX
  8
DEM_20px_m
 10
48252.572287608935
 20
-613.21303
 30
0.0
  0
VERTEX
  8
DEM_20px_m
 10
48275.14970607216
 20
-615.54519
 30
0.0
  0
VERTEX
  8
DEM_20px_m
 10
48297.72712453539
 20
-616.93658
 30
0.0
  0
VERTEX
  8
DEM_20px_m
 10
48320.304542998616
 20
-618.94798
 30
0.0
  0
VERTEX
  8
DEM_20px_m
 10
48342.88196146184
 20
-620.21406
 30
0.0
  0
VERTEX
  8
DEM_20px_m
 10
48365.459379925065
 20
-621.19458
 30
0.0
  0
VERTEX
  8
DEM_20px_m
 10
48388.03679838829
 20
-621.95603
 30
0.0
  0
VERTEX
  8
DEM_20px_m
 10
48410.61421685152
 20
-622.8301
 30
0.0
  0
VERTEX
  8
DEM_20px_m
 10
48433.191635314746
 20
-623.68995
 30
0.0
  0
VERTEX
  8
DEM_20px_m
 10
48455.76905377797
 20
-624.44766
 30
0.0
  0
VERTEX
  8
DEM_20px_m
 10
48478.346472241195
 20
-625.21189
 30
0.0
  0
VERTEX
  8
DEM_20px_m
 10
48500.92389070442
 20
-625.9442
 30
0.0
  0
VERTEX
  8
DEM_20px_m
 10
48523.501309167645
 20
-626.67248
 30
0.0
  0
VERTEX
  8
DEM_20px_m
 10
48546.07872763087
 20
-627.34866
 30
0.0
  0
VERTEX
  8
DEM_20px_m
 10
48568.6561460941
 20
-627.86886
 30
0.0
  0
VERTEX
  8
DEM_20px_m
 10
48591.233564557326
 20
-628.51018
 30
0.0
  0
VERTEX
  8
DEM_20px_m
 10
48613.81098302055
 20
-629.15156
 30
0.0
  0
VERTEX
  8
DEM_20px_m
 10
48636.388401483775
 20
-629.80834
 30
0.0
  0
VERTEX
  8
DEM_20px_m
 10
48658.965819947
 20
-630.6807
 30
0.0
  0
VERTEX
  8
DEM_20px_m
 10
48681.543238410224
 20
-631.47225
 30
0.0
  0
VERTEX
  8
DEM_20px_m
 10
48704.12065687345
 20
-632.19862
 30
0.0
  0
VERTEX
  8
DEM_20px_m
 10
48726.69807533668
 20
-632.92532
 30
0.0
  0
VERTEX
  8
DEM_20px_m
 10
48749.275493799905
 20
-633.62183
 30
0.0
  0
VERTEX
  8
DEM_20px_m
 10
48771.85291226313
 20
-634.31173
 30
0.0
  0
VERTEX
  8
DEM_20px_m
 10
48794.430330726354
 20
-634.98443
 30
0.0
  0
VERTEX
  8
DEM_20px_m
 10
48817.00774918958
 20
-635.62606
 30
0.0
  0
VERTEX
  8
DEM_20px_m
 10
48839.58516765281
 20
-636.19353
 30
0.0
  0
VERTEX
  8
DEM_20px_m
 10
48839.58516765281
 20
-636.19353
 30
0.0
  0
VERTEX
  8
DEM_20px_m
 10
48862.38722246776
 20
-636.84615
 30
0.0
  0
VERTEX
  8
DEM_20px_m
 10
48885.18927728272
 20
-637.5544
 30
0.0
  0
VERTEX
  8
DEM_20px_m
 10
48907.99133209767
 20
-638.23346
 30
0.0
  0
VERTEX
  8
DEM_20px_m
 10
48930.79338691263
 20
-639.20421
 30
0.0
  0
VERTEX
  8
DEM_20px_m
 10
48953.59544172758
 20
-639.86779
 30
0.0
  0
VERTEX
  8
DEM_20px_m
 10
48976.39749654254
 20
-641.45416
 30
0.0
  0
VERTEX
  8
DEM_20px_m
 10
48999.19955135749
 20
-642.5367
 30
0.0
  0
VERTEX
  8
DEM_20px_m
 10
49022.001606172445
 20
-644.10183
 30
0.0
  0
VERTEX
  8
DEM_20px_m
 10
49044.803660987396
 20
-645.19569
 30
0.0
  0
VERTEX
  8
DEM_20px_m
 10
49067.605715802354
 20
-646.34013
 30
0.0
  0
VERTEX
  8
DEM_20px_m
 10
49090.40777061731
 20
-648.1286
 30
0.0
  0
VERTEX
  8
DEM_20px_m
 10
49113.20982543227
 20
-649.31853
 30
0.0
  0
VERTEX
  8
DEM_20px_m
 10
49136.011880247235
 20
-650.16983
 30
0.0
  0
VERTEX
  8
DEM_20px_m
 10
49158.81393506219
 20
-650.92858
 30
0.0
  0
VERTEX
  8
DEM_20px_m
 10
49181.61598987715
 20
-652.02609
 30
0.0
  0
VERTEX
  8
DEM_20px_m
 10
49204.41804469211
 20
-652.73998
 30
0.0
  0
VERTEX
  8
DEM_20px_m
 10
49227.22009950707
 20
-653.87183
 30
0.0
  0
VERTEX
  8
DEM_20px_m
 10
49250.022154322025
 20
-654.58416
 30
0.0
  0
VERTEX
  8
DEM_20px_m
 10
49272.82420913703
 20
-655.26374
 30
0.0
  0
VERTEX
  8
DEM_20px_m
 10
49295.62626395203
 20
-656.3245
 30
0.0
  0
VERTEX
  8
DEM_20px_m
 10
49318.42831876703
 20
-656.9907
 30
0.0
  0
VERTEX
  8
DEM_20px_m
 10
49341.23037358203
 20
-657.72485
 30
0.0
  0
VERTEX
  8
DEM_20px_m
 10
49364.03242839703
 20
-658.72015
 30
0.0
  0
VERTEX
  8
DEM_20px_m
 10
49386.834483212035
 20
-659.44941
 30
0.0
  0
VERTEX
  8
DEM_20px_m
 10
49409.63653802704
 20
-662.27485
 30
0.0
  0
VERTEX
  8
DEM_20px_m
 10
49432.438592842045
 20
-663.73393
 30
0.0
  0
VERTEX
  8
DEM_20px_m
 10
49455.24064765705
 20
-665.14157
 30
0.0
  0
VERTEX
  8
DEM_20px_m
 10
49478.04270247199
 20
-666.23595
 30
0.0
  0
VERTEX
  8
DEM_20px_m
 10
49500.84475728693
 20
-667.58151
 30
0.0
  0
VERTEX
  8
DEM_20px_m
 10
49523.64681210188
 20
-668.65977
 30
0.0
  0
VERTEX
  8
DEM_20px_m
 10
49546.44886691683
 20
-669.74243
 30
0.0
  0
VERTEX
  8
DEM_20px_m
 10
49569.25092173177
 20
-671.59154
 30
0.0
  0
VERTEX
  8
DEM_20px_m
 10
49592.052976546714
 20
-673.14691
 30
0.0
  0
VERTEX
  8
DEM_20px_m
 10
49614.85503136166
 20
-674.70227
 30
0.0
  0
VERTEX
  8
DEM_20px_m
 10
49637.6570861766
 20
-677.69786
 30
0.0
  0
VERTEX
  8
DEM_20px_m
 10
49660.459140991545
 20
-679.96252
 30
0.0
  0
VERTEX
  8
DEM_20px_m
 10
49680.98099032503
 20
-680.56432
 30
0.0
  0
VERTEX
  8
DEM_20px_m
 10
49701.50283965851
 20
-681.08714
 30
0.0
  0
VERTEX
  8
DEM_20px_m
 10
49722.024688991994
 20
-681.62206
 30
0.0
  0
VERTEX
  8
DEM_20px_m
 10
49742.54653832548
 20
-682.14197
 30
0.0
  0
VERTEX
  8
DEM_20px_m
 10
49763.06838765897
 20
-683.22063
 30
0.0
  0
VERTEX
  8
DEM_20px_m
 10
49783.59023699245
 20
-683.6824
 30
0.0
  0
VERTEX
  8
DEM_20px_m
 10
49804.112086325935
 20
-684.14233
 30
0.0
  0
VERTEX
  8
DEM_20px_m
 10
49824.63393565942
 20
-684.45593
 30
0.0
  0
VERTEX
  8
DEM_20px_m
 10
49845.1557849929
 20
-684.86604
 30
0.0
  0
VERTEX
  8
DEM_20px_m
 10
49865.677634326385
 20
-685.52385
 30
0.0
  0
VERTEX
  8
DEM_20px_m
 10
49886.19948365984
 20
-687.05216
 30
0.0
  0
VERTEX
  8
DEM_20px_m
 10
49906.721332993286
 20
-688.01714
 30
0.0
  0
VERTEX
  8
DEM_20px_m
 10
49927.24318232674
 20
-688.91839
 30
0.0
  0
VERTEX
  8
DEM_20px_m
 10
49947.76503166019
 20
-689.91877
 30
0.0
  0
VERTEX
  8
DEM_20px_m
 10
49968.28688099364
 20
-690.32374
 30
0.0
  0
VERTEX
  8
DEM_20px_m
 10
49988.80873032709
 20
-690.87504
 30
0.0
  0
VERTEX
  8
DEM_20px_m
 10
50009.33057966054
 20
-691.37351
 30
0.0
  0
VERTEX
  8
DEM_20px_m
 10
50029.85242899399
 20
-691.79542
 30
0.0
  0
VERTEX
  8
DEM_20px_m
 10
50050.37427832744
 20
-692.27014
 30
0.0
  0
VERTEX
  8
DEM_20px_m
 10
50070.89612766089
 20
-692.82101
 30
0.0
  0
VERTEX
  8
DEM_20px_m
 10
50091.41797699438
 20
-694.0113
 30
0.0
  0
VERTEX
  8
DEM_20px_m
 10
50111.93982632786
 20
-694.23812
 30
0.0
  0
VERTEX
  8
DEM_20px_m
 10
50132.461675661354
 20
-694.6235
 30
0.0
  0
VERTEX
  8
DEM_20px_m
 10
50152.98352499484
 20
-695.0
 30
0.0
  0
VERTEX
  8
DEM_20px_m
 10
50173.50537432833
 20
-695.71369
 30
0.0
  0
VERTEX
  8
DEM_20px_m
 10
50194.02722366182
 20
-696.68625
 30
0.0
  0
VERTEX
  8
DEM_20px_m
 10
50214.5490729953
 20
-697.52142
 30
0.0
  0
VERTEX
  8
DEM_20px_m
 10
50235.07092232879
 20
-698.51697
 30
0.0
  0
VERTEX
  8
DEM_20px_m
 10
50255.592771662275
 20
-699.37423
 30
0.0
  0
VERTEX
  8
DEM_20px_m
 10
50276.114620995766
 20
-700.30869
 30
0.0
  0
VERTEX
  8
DEM_20px_m
 10
50296.150865383235
 20
-701.4916
 30
0.0
  0
VERTEX
  8
DEM_20px_m
 10
50316.187109770704
 20
-702.65888
 30
0.0
  0
VERTEX
  8
DEM_20px_m
 10
50336.22335415817
 20
-703.87155
 30
0.0
  0
VERTEX
  8
DEM_20px_m
 10
50356.25959854564
 20
-705.13781
 30
0.0
  0
VERTEX
  8
DEM_20px_m
 10
50376.295842933105
 20
-706.45963
 30
0.0
  0
VERTEX
  8
DEM_20px_m
 10
50396.332087320574
 20
-707.76293
 30
0.0
  0
VERTEX
  8
DEM_20px_m
 10
50416.36833170804
 20
-709.25283
 30
0.0
  0
VERTEX
  8
DEM_20px_m
 10
50436.40457609551
 20
-710.77406
 30
0.0
  0
VERTEX
  8
DEM_20px_m
 10
50456.44082048298
 20
-712.41469
 30
0.0
  0
VERTEX
  8
DEM_20px_m
 10
50476.47706487045
 20
-714.08377
 30
0.0
  0
VERTEX
  8
DEM_20px_m
 10
50496.51330925792
 20
-716.01561
 30
0.0
  0
VERTEX
  8
DEM_20px_m
 10
50516.54955364539
 20
-718.16049
 30
0.0
  0
VERTEX
  8
DEM_20px_m
 10
50536.58579803286
 20
-720.331
 30
0.0
  0
VERTEX
  8
DEM_20px_m
 10
50556.62204242033
 20
-722.78589
 30
0.0
  0
VERTEX
  8
DEM_20px_m
 10
50576.65828680779
 20
-725.28592
 30
0.0
  0
VERTEX
  8
DEM_20px_m
 10
50596.69453119526
 20
-727.9738
 30
0.0
  0
VERTEX
  8
DEM_20px_m
 10
50616.73077558273
 20
-730.6672
 30
0.0
  0
VERTEX
  8
DEM_20px_m
 10
50636.7670199702
 20
-733.20964
 30
0.0
  0
VERTEX
  8
DEM_20px_m
 10
50656.803264357666
 20
-735.50182
 30
0.0
  0
VERTEX
  8
DEM_20px_m
 10
50676.839508745135
 20
-737.30905
 30
0.0
  0
VERTEX
  8
DEM_20px_m
 10
50696.875753132605
 20
-739.11896
 30
0.0
  0
VERTEX
  8
DEM_20px_m
 10
50716.911997520074
 20
-741.23179
 30
0.0
  0
VERTEX
  8
DEM_20px_m
 10
50736.94824190754
 20
-743.35121
 30
0.0
  0
VERTEX
  8
DEM_20px_m
 10
50756.98448629501
 20
-745.5656
 30
0.0
  0
VERTEX
  8
DEM_20px_m
 10
50777.020730682474
 20
-748.0682
 30
0.0
  0
VERTEX
  8
DEM_20px_m
 10
50797.05697506994
 20
-749.75213
 30
0.0
  0
VERTEX
  8
DEM_20px_m
 10
50817.09321945741
 20
-751.63467
 30
0.0
  0
VERTEX
  8
DEM_20px_m
 10
50837.12946384488
 20
-752.96074
 30
0.0
  0
VERTEX
  8
DEM_20px_m
 10
50857.16570823235
 20
-753.83703
 30
0.0
  0
VERTEX
  8
DEM_20px_m
 10
50877.20195261982
 20
-754.04336
 30
0.0
  0
VERTEX
  8
DEM_20px_m
 10
50897.23819700729
 20
-754.4443
 30
0.0
  0
VERTEX
  8
DEM_20px_m
 10
50917.27444139476
 20
-754.69494
 30
0.0
  0
VERTEX
  8
DEM_20px_m
 10
50937.31068578223
 20
-754.94559
 30
0.0
  0
VERTEX
  8
DEM_20px_m
 10
50957.3469301697
 20
-755.0
 30
0.0
  0
VERTEX
  8
DEM_20px_m
 10
50977.38317455716
 20
-755.0
 30
0.0
  0
VERTEX
  8
DEM_20px_m
 10
50997.41941894463
 20
-755.0
 30
0.0
  0
VERTEX
  8
DEM_20px_m
 10
51017.4556633321
 20
-755.52774
 30
0.0
  0
VERTEX
  8
DEM_20px_m
 10
51037.49190771957
 20
-756.4048
 30
0.0
  0
VERTEX
  8
DEM_20px_m
 10
51057.528152107036
 20
-757.31771
 30
0.0
  0
VERTEX
  8
DEM_20px_m
 10
51077.564396494505
 20
-758.28027
 30
0.0
  0
VERTEX
  8
DEM_20px_m
 10
51097.600640881974
 20
-759.22269
 30
0.0
  0
VERTEX
  8
DEM_20px_m
 10
51117.63688526944
 20
-760.22284
 30
0.0
  0
VERTEX
  8
DEM_20px_m
 10
51137.67312965691
 20
-761.11167
 30
0.0
  0
VERTEX
  8
DEM_20px_m
 10
51157.70937404438
 20
-762.0714
 30
0.0
  0
VERTEX
  8
DEM_20px_m
 10
51177.74561843184
 20
-763.03113
 30
0.0
  0
VERTEX
  8
DEM_20px_m
 10
51197.78186281931
 20
-763.99087
 30
0.0
  0
VERTEX
  8
DEM_20px_m
 10
51217.81810720678
 20
-764.9506
 30
0.0
  0
VERTEX
  8
DEM_20px_m
 10
51237.85435159425
 20
-765.58663
 30
0.0
  0
VERTEX
  8
DEM_20px_m
 10
51257.89059598172
 20
-766.20511
 30
0.0
  0
VERTEX
  8
DEM_20px_m
 10
51277.92684036919
 20
-766.82358
 30
0.0
  0
VERTEX
  8
DEM_20px_m
 10
51297.96308475666
 20
-767.42413
 30
0.0
  0
VERTEX
  8
DEM_20px_m
 10
51317.99932914413
 20
-768.0149
 30
0.0
  0
VERTEX
  8
DEM_20px_m
 10
51338.0355735316
 20
-768.59272
 30
0.0
  0
VERTEX
  8
DEM_20px_m
 10
51358.071817919066
 20
-769.09067
 30
0.0
  0
VERTEX
  8
DEM_20px_m
 10
51378.10806230653
 20
-769.58636
 30
0.0
  0
VERTEX
  8
DEM_20px_m
 10
51398.144306694
 20
-770.07497
 30
0.0
  0
VERTEX
  8
DEM_20px_m
 10
51418.18055108147
 20
-770.73123
 30
0.0
  0
VERTEX
  8
DEM_20px_m
 10
51438.216795468936
 20
-771.3957
 30
0.0
  0
VERTEX
  8
DEM_20px_m
 10
51458.253039856405
 20
-772.23811
 30
0.0
  0
VERTEX
  8
DEM_20px_m
 10
51478.289284243874
 20
-773.07057
 30
0.0
  0
VERTEX
  8
DEM_20px_m
 10
51498.32552863134
 20
-773.91492
 30
0.0
  0
VERTEX
  8
DEM_20px_m
 10
51518.36177301881
 20
-774.74416
 30
0.0
  0
VERTEX
  8
DEM_20px_m
 10
51538.39801740628
 20
-775.80923
 30
0.0
  0
VERTEX
  8
DEM_20px_m
 10
51558.43426179375
 20
-777.00013
 30
0.0
  0
VERTEX
  8
DEM_20px_m
 10
51578.47050618121
 20
-778.23043
 30
0.0
  0
VERTEX
  8
DEM_20px_m
 10
51598.50675056868
 20
-779.42825
 30
0.0
  0
VERTEX
  8
DEM_20px_m
 10
51618.54299495615
 20
-781.15838
 30
0.0
  0
VERTEX
  8
DEM_20px_m
 10
51638.57923934362
 20
-783.32379
 30
0.0
  0
VERTEX
  8
DEM_20px_m
 10
51658.61548373109
 20
-785.42207
 30
0.0
  0
VERTEX
  8
DEM_20px_m
 10
51678.65172811856
 20
-787.46021
 30
0.0
  0
VERTEX
  8
DEM_20px_m
 10
51698.68797250603
 20
-790.08094
 30
0.0
  0
VERTEX
  8
DEM_20px_m
 10
51718.7242168935
 20
-791.76832
 30
0.0
  0
VERTEX
  8
DEM_20px_m
 10
51738.76046128097
 20
-793.45571
 30
0.0
  0
VERTEX
  8
DEM_20px_m
 10
51758.796705668436
 20
-795.303
 30
0.0
  0
VERTEX
  8
DEM_20px_m
 10
51778.8329500559
 20
-797.28741
 30
0.0
  0
VERTEX
  8
DEM_20px_m
 10
51798.86919444337
 20
-799.28333
 30
0.0
  0
VERTEX
  8
DEM_20px_m
 10
51818.905438830836
 20
-801.22206
 30
0.0
  0
VERTEX
  8
DEM_20px_m
 10
51838.941683218305
 20
-803.0745
 30
0.0
  0
VERTEX
  8
DEM_20px_m
 10
51858.977927605774
 20
-804.91874
 30
0.0
  0
VERTEX
  8
DEM_20px_m
 10
51879.01417199324
 20
-806.24776
 30
0.0
  0
VERTEX
  8
DEM_20px_m
 10
51899.05041638071
 20
-807.51191
 30
0.0
  0
VERTEX
  8
DEM_20px_m
 10
51919.08666076818
 20
-808.77606
 30
0.0
  0
VERTEX
  8
DEM_20px_m
 10
51939.12290515565
 20
-810.04956
 30
0.0
  0
VERTEX
  8
DEM_20px_m
 10
51959.15914954312
 20
-811.61204
 30
0.0
  0
VERTEX
  8
DEM_20px_m
 10
51979.19539393058
 20
-813.18009
 30
0.0
  0
VERTEX
  8
DEM_20px_m
 10
51999.23163831805
 20
-814.74813
 30
0.0
  0
VERTEX
  8
DEM_20px_m
 10
52019.26788270552
 20
-815.79468
 30
0.0
  0
VERTEX
  8
DEM_20px_m
 10
52039.30412709299
 20
-816.74143
 30
0.0
  0
VERTEX
  8
DEM_20px_m
 10
52059.34037148046
 20
-817.6101
 30
0.0
  0
VERTEX
  8
DEM_20px_m
 10
52079.37661586793
 20
-818.39961
 30
0.0
  0
VERTEX
  8
DEM_20px_m
 10
52099.4128602554
 20
-819.0961
 30
0.0
  0
VERTEX
  8
DEM_20px_m
 10
52119.44910464287
 20
-819.79258
 30
0.0
  0
VERTEX
  8
DEM_20px_m
 10
52139.485349030336
 20
-820.09976
 30
0.0
  0
VERTEX
  8
DEM_20px_m
 10
52159.5215934178
 20
-821.05182
 30
0.0
  0
VERTEX
  8
DEM_20px_m
 10
52179.55783780527
 20
-822.00388
 30
0.0
  0
VERTEX
  8
DEM_20px_m
 10
52199.594082192736
 20
-822.95593
 30
0.0
  0
VERTEX
  8
DEM_20px_m
 10
52219.630326580205
 20
-823.90799
 30
0.0
  0
VERTEX
  8
DEM_20px_m
 10
52239.666570967674
 20
-825.0091
 30
0.0
  0
VERTEX
  8
DEM_20px_m
 10
52259.702815355144
 20
-826.36212
 30
0.0
  0
VERTEX
  8
DEM_20px_m
 10
52279.73905974261
 20
-827.79041
 30
0.0
  0
VERTEX
  8
DEM_20px_m
 10
52299.77530413008
 20
-829.2187
 30
0.0
  0
VERTEX
  8
DEM_20px_m
 10
52319.81154851755
 20
-830.71886
 30
0.0
  0
VERTEX
  8
DEM_20px_m
 10
52339.84779290502
 20
-832.23431
 30
0.0
  0
VERTEX
  8
DEM_20px_m
 10
52359.88403729249
 20
-833.66038
 30
0.0
  0
VERTEX
  8
DEM_20px_m
 10
52379.92028167995
 20
-835.0
 30
0.0
  0
VERTEX
  8
DEM_20px_m
 10
52399.95652606742
 20
-836.26708
 30
0.0
  0
VERTEX
  8
DEM_20px_m
 10
52419.99277045489
 20
-837.3986
 30
0.0
  0
VERTEX
  8
DEM_20px_m
 10
52440.02901484236
 20
-838.61543
 30
0.0
  0
VERTEX
  8
DEM_20px_m
 10
52460.06525922983
 20
-839.93532
 30
0.0
  0
VERTEX
  8
DEM_20px_m
 10
52480.1015036173
 20
-840.83743
 30
0.0
  0
VERTEX
  8
DEM_20px_m
 10
52500.13774800477
 20
-841.77626
 30
0.0
  0
VERTEX
  8
DEM_20px_m
 10
52520.173992392236
 20
-842.71508
 30
0.0
  0
VERTEX
  8
DEM_20px_m
 10
52540.210236779705
 20
-843.65391
 30
0.0
  0
VERTEX
  8
DEM_20px_m
 10
52560.24648116717
 20
-844.58285
 30
0.0
  0
VERTEX
  8
DEM_20px_m
 10
52580.282725554636
 20
-846.04319
 30
0.0
  0
VERTEX
  8
DEM_20px_m
 10
52600.318969942105
 20
-848.45701
 30
0.0
  0
VERTEX
  8
DEM_20px_m
 10
52620.355214329575
 20
-851.01359
 30
0.0
  0
VERTEX
  8
DEM_20px_m
 10
52640.391458717044
 20
-853.83021
 30
0.0
  0
VERTEX
  8
DEM_20px_m
 10
52660.42770310451
 20
-856.44648
 30
0.0
  0
VERTEX
  8
DEM_20px_m
 10
52680.46394749198
 20
-858.77139
 30
0.0
  0
VERTEX
  8
DEM_20px_m
 10
52700.50019187945
 20
-860.55835
 30
0.0
  0
VERTEX
  8
DEM_20px_m
 10
52720.53643626692
 20
-861.73848
 30
0.0
  0
VERTEX
  8
DEM_20px_m
 10
52740.57268065439
 20
-862.79521
 30
0.0
  0
VERTEX
  8
DEM_20px_m
 10
52760.60892504185
 20
-863.63497
 30
0.0
  0
VERTEX
  8
DEM_20px_m
 10
52780.64516942932
 20
-864.8216
 30
0.0
  0
VERTEX
  8
DEM_20px_m
 10
52800.68141381679
 20
-865.0
 30
0.0
  0
VERTEX
  8
DEM_20px_m
 10
52820.71765820426
 20
-865.71403
 30
0.0
  0
VERTEX
  8
DEM_20px_m
 10
52840.75390259173
 20
-866.03866
 30
0.0
  0
VERTEX
  8
DEM_20px_m
 10
52860.7901469792
 20
-866.6779
 30
0.0
  0
VERTEX
  8
DEM_20px_m
 10
52880.82639136667
 20
-867.51531
 30
0.0
  0
VERTEX
  8
DEM_20px_m
 10
52900.862635754136
 20
-868.02842
 30
0.0
  0
VERTEX
  8
DEM_20px_m
 10
52920.898880141605
 20
-868.8343
 30
0.0
  0
VERTEX
  8
DEM_20px_m
 10
52940.935124529075
 20
-869.64018
 30
0.0
  0
VERTEX
  8
DEM_20px_m
 10
52960.97136891654
 20
-870.0
 30
0.0
  0
VERTEX
  8
DEM_20px_m
 10
52981.007613304006
 20
-870.86073
 30
0.0
  0
VERTEX
  8
DEM_20px_m
 10
53001.043857691475
 20
-871.86428
 30
0.0
  0
VERTEX
  8
DEM_20px_m
 10
53021.080102078944
 20
-872.87575
 30
0.0
  0
VERTEX
  8
DEM_20px_m
 10
53041.11634646641
 20
-873.88723
 30
0.0
  0
VERTEX
  8
DEM_20px_m
 10
53061.15259085388
 20
-874.8987
 30
0.0
  0
VERTEX
  8
DEM_20px_m
 10
53081.18883524135
 20
-875.6317
 30
0.0
  0
VERTEX
  8
DEM_20px_m
 10
53101.22507962882
 20
-876.33371
 30
0.0
  0
VERTEX
  8
DEM_20px_m
 10
53121.26132401629
 20
-877.03573
 30
0.0
  0
VERTEX
  8
DEM_20px_m
 10
53141.29756840376
 20
-878.43898
 30
0.0
  0
VERTEX
  8
DEM_20px_m
 10
53161.33381279122
 20
-879.17586
 30
0.0
  0
VERTEX
  8
DEM_20px_m
 10
53181.37005717869
 20
-879.93504
 30
0.0
  0
VERTEX
  8
DEM_20px_m
 10
53201.40630156616
 20
-880.99115
 30
0.0
  0
VERTEX
  8
DEM_20px_m
 10
53221.44254595363
 20
-882.03406
 30
0.0
  0
VERTEX
  8
DEM_20px_m
 10
53241.4787903411
 20
-883.07698
 30
0.0
  0
VERTEX
  8
DEM_20px_m
 10
53261.51503472857
 20
-884.11989
 30
0.0
  0
VERTEX
  8
DEM_20px_m
 10
53281.551279116036
 20
-885.24234
 30
0.0
  0
VERTEX
  8
DEM_20px_m
 10
53301.587523503506
 20
-886.79481
 30
0.0
  0
VERTEX
  8
DEM_20px_m
 10
53321.623767890975
 20
-888.34728
 30
0.0
  0
VERTEX
  8
DEM_20px_m
 10
53341.660012278444
 20
-889.82665
 30
0.0
  0
VERTEX
  8
DEM_20px_m
 10
53361.696256665906
 20
-890.9184
 30
0.0
  0
VERTEX
  8
DEM_20px_m
 10
53381.732501053375
 20
-891.87547
 30
0.0
  0
VERTEX
  8
DEM_20px_m
 10
53401.768745440844
 20
-892.83254
 30
0.0
  0
VERTEX
  8
DEM_20px_m
 10
53421.80498982831
 20
-893.78961
 30
0.0
  0
VERTEX
  8
DEM_20px_m
 10
53441.84123421578
 20
-894.74667
 30
0.0
  0
VERTEX
  8
DEM_20px_m
 10
53461.87747860325
 20
-895.49928
 30
0.0
  0
VERTEX
  8
DEM_20px_m
 10
53481.91372299072
 20
-896.26567
 30
0.0
  0
VERTEX
  8
DEM_20px_m
 10
53501.94996737819
 20
-897.03206
 30
0.0
  0
VERTEX
  8
DEM_20px_m
 10
53521.98621176566
 20
-897.79844
 30
0.0
  0
VERTEX
  8
DEM_20px_m
 10
53542.02245615312
 20
-898.56483
 30
0.0
  0
VERTEX
  8
DEM_20px_m
 10
53562.05870054059
 20
-899.33122
 30
0.0
  0
VERTEX
  8
DEM_20px_m
 10
53582.09494492806
 20
-900.0
 30
0.0
  0
VERTEX
  8
DEM_20px_m
 10
53602.13118931553
 20
-900.08058
 30
0.0
  0
VERTEX
  8
DEM_20px_m
 10
53622.167433703
 20
-901.49504
 30
0.0
  0
VERTEX
  8
DEM_20px_m
 10
53642.20367809047
 20
-902.62237
 30
0.0
  0
VERTEX
  8
DEM_20px_m
 10
53662.23992247794
 20
-903.54244
 30
0.0
  0
VERTEX
  8
DEM_20px_m
 10
53682.276166865406
 20
-904.46473
 30
0.0
  0
VERTEX
  8
DEM_20px_m
 10
53702.312411252875
 20
-905.44266
 30
0.0
  0
VERTEX
  8
DEM_20px_m
 10
53722.348655640344
 20
-906.50375
 30
0.0
  0
VERTEX
  8
DEM_20px_m
 10
53742.38490002781
 20
-907.75513
 30
0.0
  0
VERTEX
  8
DEM_20px_m
 10
53762.421144415275
 20
-909.18266
 30
0.0
  0
VERTEX
  8
DEM_20px_m
 10
53782.457388802744
 20
-910.52944
 30
0.0
  0
VERTEX
  8
DEM_20px_m
 10
53802.49363319021
 20
-911.87555
 30
0.0
  0
VERTEX
  8
DEM_20px_m
 10
53822.52987757768
 20
-913.22165
 30
0.0
  0
VERTEX
  8
DEM_20px_m
 10
53842.56612196515
 20
-914.51791
 30
0.0
  0
VERTEX
  8
DEM_20px_m
 10
53862.60236635262
 20
-915.98225
 30
0.0
  0
VERTEX
  8
DEM_20px_m
 10
53882.63861074009
 20
-917.21568
 30
0.0
  0
VERTEX
  8
DEM_20px_m
 10
53902.67485512756
 20
-918.44911
 30
0.0
  0
VERTEX
  8
DEM_20px_m
 10
53922.71109951503
 20
-919.68255
 30
0.0
  0
VERTEX
  8
DEM_20px_m
 10
53942.74734390249
 20
-921.18247
 30
0.0
  0
VERTEX
  8
DEM_20px_m
 10
53962.78358828996
 20
-922.8113
 30
0.0
  0
VERTEX
  8
DEM_20px_m
 10
53982.81983267743
 20
-924.44014
 30
0.0
  0
VERTEX
  8
DEM_20px_m
 10
54002.8560770649
 20
-925.51766
 30
0.0
  0
VERTEX
  8
DEM_20px_m
 10
54022.89232145237
 20
-926.31221
 30
0.0
  0
VERTEX
  8
DEM_20px_m
 10
54042.92856583984
 20
-927.09072
 30
0.0
  0
VERTEX
  8
DEM_20px_m
 10
54062.964810227306
 20
-927.8567
 30
0.0
  0
VERTEX
  8
DEM_20px_m
 10
54083.001054614775
 20
-928.71884
 30
0.0
  0
VERTEX
  8
DEM_20px_m
 10
54103.037299002244
 20
-929.59614
 30
0.0
  0
VERTEX
  8
DEM_20px_m
 10
54123.07354338971
 20
-930.54239
 30
0.0
  0
VERTEX
  8
DEM_20px_m
 10
54143.10978777718
 20
-931.54349
 30
0.0
  0
VERTEX
  8
DEM_20px_m
 10
54163.146032164645
 20
-932.54223
 30
0.0
  0
VERTEX
  8
DEM_20px_m
 10
54183.182276552114
 20
-933.54098
 30
0.0
  0
VERTEX
  8
DEM_20px_m
 10
54203.21852093958
 20
-934.53972
 30
0.0
  0
VERTEX
  8
DEM_20px_m
 10
54223.25476532705
 20
-935.58415
 30
0.0
  0
VERTEX
  8
DEM_20px_m
 10
54243.29100971452
 20
-936.68719
 30
0.0
  0
VERTEX
  8
DEM_20px_m
 10
54263.32725410199
 20
-937.79886
 30
0.0
  0
VERTEX
  8
DEM_20px_m
 10
54283.36349848946
 20
-938.91052
 30
0.0
  0
VERTEX
  8
DEM_20px_m
 10
54303.39974287693
 20
-940.02358
 30
0.0
  0
VERTEX
  8
DEM_20px_m
 10
54323.4359872644
 20
-941.1927
 30
0.0
  0
VERTEX
  8
DEM_20px_m
 10
54343.47223165186
 20
-942.32347
 30
0.0
  0
VERTEX
  8
DEM_20px_m
 10
54363.50847603933
 20
-943.45425
 30
0.0
  0
VERTEX
  8
DEM_20px_m
 10
54383.5447204268
 20
-944.58502
 30
0.0
  0
VERTEX
  8
DEM_20px_m
 10
54403.58096481427
 20
-945.86721
 30
0.0
  0
VERTEX
  8
DEM_20px_m
 10
54423.61720920174
 20
-947.24888
 30
0.0
  0
VERTEX
  8
DEM_20px_m
 10
54443.653453589206
 20
-948.63097
 30
0.0
  0
VERTEX
  8
DEM_20px_m
 10
54463.689697976675
 20
-950.01262
 30
0.0
  0
VERTEX
  8
DEM_20px_m
 10
54483.725942364144
 20
-951.37331
 30
0.0
  0
VERTEX
  8
DEM_20px_m
 10
54503.76218675161
 20
-952.78806
 30
0.0
  0
VERTEX
  8
DEM_20px_m
 10
54523.79843113908
 20
-954.20281
 30
0.0
  0
VERTEX
  8
DEM_20px_m
 10
54543.83467552655
 20
-955.41825
 30
0.0
  0
VERTEX
  8
DEM_20px_m
 10
54563.870919914014
 20
-956.46806
 30
0.0
  0
VERTEX
  8
DEM_20px_m
 10
54583.90716430148
 20
-957.4921
 30
0.0
  0
VERTEX
  8
DEM_20px_m
 10
54603.94340868895
 20
-958.51114
 30
0.0
  0
VERTEX
  8
DEM_20px_m
 10
54623.97965307642
 20
-959.53018
 30
0.0
  0
VERTEX
  8
DEM_20px_m
 10
54644.01589746389
 20
-960.59716
 30
0.0
  0
VERTEX
  8
DEM_20px_m
 10
54664.05214185136
 20
-961.6173
 30
0.0
  0
VERTEX
  8
DEM_20px_m
 10
54684.08838623883
 20
-962.66388
 30
0.0
  0
VERTEX
  8
DEM_20px_m
 10
54704.1246306263
 20
-963.64551
 30
0.0
  0
VERTEX
  8
DEM_20px_m
 10
54724.16087501377
 20
-964.6251
 30
0.0
  0
VERTEX
  8
DEM_20px_m
 10
54744.19711940123
 20
-965.64058
 30
0.0
  0
VERTEX
  8
DEM_20px_m
 10
54764.2333637887
 20
-966.7291
 30
0.0
  0
VERTEX
  8
DEM_20px_m
 10
54784.26960817617
 20
-967.83597
 30
0.0
  0
VERTEX
  8
DEM_20px_m
 10
54804.30585256364
 20
-968.94284
 30
0.0
  0
VERTEX
  8
DEM_20px_m
 10
54824.342096951106
 20
-970.07708
 30
0.0
  0
VERTEX
  8
DEM_20px_m
 10
54844.378341338575
 20
-971.77934
 30
0.0
  0
VERTEX
  8
DEM_20px_m
 10
54864.414585726045
 20
-973.46815
 30
0.0
  0
VERTEX
  8
DEM_20px_m
 10
54884.450830113514
 20
-975.08603
 30
0.0
  0
VERTEX
  8
DEM_20px_m
 10
54904.48707450098
 20
-975.96151
 30
0.0
  0
VERTEX
  8
DEM_20px_m
 10
54924.523318888445
 20
-976.80799
 30
0.0
  0
VERTEX
  8
DEM_20px_m
 10
54944.55956327592
 20
-977.65446
 30
0.0
  0
VERTEX
  8
DEM_20px_m
 10
54964.59580766338
 20
-978.46646
 30
0.0
  0
VERTEX
  8
DEM_20px_m
 10
54984.63205205085
 20
-979.28331
 30
0.0
  0
VERTEX
  8
DEM_20px_m
 10
55004.66829643832
 20
-980.11143
 30
0.0
  0
VERTEX
  8
DEM_20px_m
 10
55024.70454082579
 20
-980.94394
 30
0.0
  0
VERTEX
  8
DEM_20px_m
 10
55044.74078521326
 20
-981.78015
 30
0.0
  0
VERTEX
  8
DEM_20px_m
 10
55064.77702960073
 20
-982.58985
 30
0.0
  0
VERTEX
  8
DEM_20px_m
 10
55084.8132739882
 20
-983.39111
 30
0.0
  0
VERTEX
  8
DEM_20px_m
 10
55104.84951837567
 20
-984.12583
 30
0.0
  0
VERTEX
  8
DEM_20px_m
 10
55124.88576276314
 20
-984.82163
 30
0.0
  0
VERTEX
  8
DEM_20px_m
 10
55144.9220071506
 20
-985.45807
 30
0.0
  0
VERTEX
  8
DEM_20px_m
 10
55164.95825153807
 20
-986.00883
 30
0.0
  0
VERTEX
  8
DEM_20px_m
 10
55184.99449592554
 20
-986.54031
 30
0.0
  0
VERTEX
  8
DEM_20px_m
 10
55205.03074031301
 20
-987.20524
 30
0.0
  0
VERTEX
  8
DEM_20px_m
 10
55225.066984700476
 20
-987.85438
 30
0.0
  0
VERTEX
  8
DEM_20px_m
 10
55245.103229087945
 20
-988.57636
 30
0.0
  0
VERTEX
  8
DEM_20px_m
 10
55265.139473475414
 20
-989.23601
 30
0.0
  0
VERTEX
  8
DEM_20px_m
 10
55285.17571786288
 20
-990.0108
 30
0.0
  0
VERTEX
  8
DEM_20px_m
 10
55305.21196225035
 20
-990.84483
 30
0.0
  0
VERTEX
  8
DEM_20px_m
 10
55325.248206637814
 20
-991.70508
 30
0.0
  0
VERTEX
  8
DEM_20px_m
 10
55345.28445102528
 20
-992.40607
 30
0.0
  0
VERTEX
  8
DEM_20px_m
 10
55365.32069541275
 20
-993.07084
 30
0.0
  0
VERTEX
  8
DEM_20px_m
 10
55385.35693980022
 20
-993.75532
 30
0.0
  0
VERTEX
  8
DEM_20px_m
 10
55405.39318418769
 20
-994.52476
 30
0.0
  0
VERTEX
  8
DEM_20px_m
 10
55425.42942857516
 20
-995.33445
 30
0.0
  0
VERTEX
  8
DEM_20px_m
 10
55445.46567296263
 20
-996.42203
 30
0.0
  0
VERTEX
  8
DEM_20px_m
 10
55465.5019173501
 20
-997.47493
 30
0.0
  0
VERTEX
  8
DEM_20px_m
 10
55485.53816173757
 20
-998.50034
 30
0.0
  0
VERTEX
  8
DEM_20px_m
 10
55505.57440612504
 20
-999.669
 30
0.0
  0
VERTEX
  8
DEM_20px_m
 10
55525.610650512506
 20
-1000.7138
 30
0.0
  0
VERTEX
  8
DEM_20px_m
 10
55545.64689489997
 20
-1001.7836
 30
0.0
  0
VERTEX
  8
DEM_20px_m
 10
55566.15922015495
 20
-1002.8174
 30
0.0
  0
VERTEX
  8
DEM_20px_m
 10
55586.671545409925
 20
-1003.9085
 30
0.0
  0
VERTEX
  8
DEM_20px_m
 10
55607.18387066491
 20
-1005.0677
 30
0.0
  0
VERTEX
  8
DEM_20px_m
 10
55627.69619591989
 20
-1005.9323
 30
0.0
  0
VERTEX
  8
DEM_20px_m
 10
55648.20852117486
 20
-1006.7969
 30
0.0
  0
VERTEX
  8
DEM_20px_m
 10
55668.720846429846
 20
-1007.6614
 30
0.0
  0
VERTEX
  8
DEM_20px_m
 10
55689.23317168483
 20
-1008.526
 30
0.0
  0
VERTEX
  8
DEM_20px_m
 10
55709.74549693981
 20
-1009.3319
 30
0.0
  0
VERTEX
  8
DEM_20px_m
 10
55730.257822194784
 20
-1010.0588
 30
0.0
  0
VERTEX
  8
DEM_20px_m
 10
55750.770147449766
 20
-1010.5411
 30
0.0
  0
VERTEX
  8
DEM_20px_m
 10
55771.28247270475
 20
-1011.0236
 30
0.0
  0
VERTEX
  8
DEM_20px_m
 10
55791.79479795972
 20
-1011.55
 30
0.0
  0
VERTEX
  8
DEM_20px_m
 10
55812.307123214705
 20
-1012.0181
 30
0.0
  0
VERTEX
  8
DEM_20px_m
 10
55832.81944846969
 20
-1012.4596
 30
0.0
  0
VERTEX
  8
DEM_20px_m
 10
55853.33177372466
 20
-1012.9553
 30
0.0
  0
VERTEX
  8
DEM_20px_m
 10
55873.84409897964
 20
-1013.4511
 30
0.0
  0
VERTEX
  8
DEM_20px_m
 10
55873.84409897964
 20
-1013.4511
 30
0.0
  0
VERTEX
  8
DEM_20px_m
 10
55895.40208677481
 20
-1013.9468
 30
0.0
  0
VERTEX
  8
DEM_20px_m
 10
55916.96007456998
 20
-1014.4425
 30
0.0
  0
VERTEX
  8
DEM_20px_m
 10
55938.51806236515
 20
-1014.9383
 30
0.0
  0
VERTEX
  8
DEM_20px_m
 10
55960.076050160314
 20
-1015.4498
 30
0.0
  0
VERTEX
  8
DEM_20px_m
 10
55981.63403795548
 20
-1017.2697
 30
0.0
  0
VERTEX
  8
DEM_20px_m
 10
56003.19202575066
 20
-1018.1623
 30
0.0
  0
VERTEX
  8
DEM_20px_m
 10
56024.750013545825
 20
-1018.952
 30
0.0
  0
VERTEX
  8
DEM_20px_m
 10
56046.30800134099
 20
-1019.7417
 30
0.0
  0
VERTEX
  8
DEM_20px_m
 10
56067.86598913616
 20
-1020.621
 30
0.0
  0
VERTEX
  8
DEM_20px_m
 10
56089.4239769313
 20
-1021.6301
 30
0.0
  0
VERTEX
  8
DEM_20px_m
 10
56110.98196472644
 20
-1022.6326
 30
0.0
  0
VERTEX
  8
DEM_20px_m
 10
56132.539952521576
 20
-1023.6541
 30
0.0
  0
VERTEX
  8
DEM_20px_m
 10
56154.097940316715
 20
-1024.4026
 30
0.0
  0
VERTEX
  8
DEM_20px_m
 10
56175.65592811185
 20
-1025.3613
 30
0.0
  0
VERTEX
  8
DEM_20px_m
 10
56197.21391590699
 20
-1026.239
 30
0.0
  0
VERTEX
  8
DEM_20px_m
 10
56218.77190370213
 20
-1027.1193
 30
0.0
  0
VERTEX
  8
DEM_20px_m
 10
56240.32989149727
 20
-1027.9963
 30
0.0
  0
VERTEX
  8
DEM_20px_m
 10
56261.88787929241
 20
-1028.8078
 30
0.0
  0
VERTEX
  8
DEM_20px_m
 10
56283.44586708761
 20
-1030.4437
 30
0.0
  0
VERTEX
  8
DEM_20px_m
 10
56305.003854882816
 20
-1031.2475
 30
0.0
  0
VERTEX
  8
DEM_20px_m
 10
56326.56184267803
 20
-1031.7262
 30
0.0
  0
VERTEX
  8
DEM_20px_m
 10
56348.11983047323
 20
-1032.6365
 30
0.0
  0
VERTEX
  8
DEM_20px_m
 10
56369.677818268436
 20
-1033.6846
 30
0.0
  0
VERTEX
  8
DEM_20px_m
 10
56391.23580606364
 20
-1034.7333
 30
0.0
  0
VERTEX
  8
DEM_20px_m
 10
56412.793793858844
 20
-1035.9896
 30
0.0
  0
VERTEX
  8
DEM_20px_m
 10
56434.351781654055
 20
-1037.298
 30
0.0
  0
VERTEX
  8
DEM_20px_m
 10
56455.90976944926
 20
-1038.1333
 30
0.0
  0
VERTEX
  8
DEM_20px_m
 10
56477.46775724441
 20
-1039.323
 30
0.0
  0
VERTEX
  8
DEM_20px_m
 10
56499.02574503956
 20
-1040.5138
 30
0.0
  0
VERTEX
  8
DEM_20px_m
 10
56520.58373283471
 20
-1041.6406
 30
0.0
  0
VERTEX
  8
DEM_20px_m
 10
56542.141720629865
 20
-1042.4357
 30
0.0
  0
VERTEX
  8
DEM_20px_m
 10
56563.69970842502
 20
-1043.589
 30
0.0
  0
VERTEX
  8
DEM_20px_m
 10
56585.257696220164
 20
-1044.7423
 30
0.0
  0
VERTEX
  8
DEM_20px_m
 10
56606.81568401532
 20
-1046.0117
 30
0.0
  0
VERTEX
  8
DEM_20px_m
 10
56628.37367181047
 20
-1047.7143
 30
0.0
  0
VERTEX
  8
DEM_20px_m
 10
56649.93165960562
 20
-1050.5598
 30
0.0
  0
VERTEX
  8
DEM_20px_m
 10
56671.48964740076
 20
-1052.0043
 30
0.0
  0
VERTEX
  8
DEM_20px_m
 10
56693.04763519591
 20
-1053.4488
 30
0.0
  0
VERTEX
  8
DEM_20px_m
 10
56714.60562299105
 20
-1055.0
 30
0.0
  0
VERTEX
  8
DEM_20px_m
 10
56736.16361078619
 20
-1055.5686
 30
0.0
  0
VERTEX
  8
DEM_20px_m
 10
56757.72159858133
 20
-1056.3851
 30
0.0
  0
VERTEX
  8
DEM_20px_m
 10
56779.27958637647
 20
-1057.3143
 30
0.0
  0
VERTEX
  8
DEM_20px_m
 10
56800.837574171615
 20
-1058.129
 30
0.0
  0
VERTEX
  8
DEM_20px_m
 10
56822.395561966754
 20
-1058.9437
 30
0.0
  0
VERTEX
  8
DEM_20px_m
 10
56843.9535497619
 20
-1059.9641
 30
0.0
  0
VERTEX
  8
DEM_20px_m
 10
56865.51153755711
 20
-1061.0952
 30
0.0
  0
VERTEX
  8
DEM_20px_m
 10
56887.069525352315
 20
-1062.2119
 30
0.0
  0
VERTEX
  8
DEM_20px_m
 10
56908.62751314753
 20
-1063.7157
 30
0.0
  0
VERTEX
  8
DEM_20px_m
 10
56930.18550094273
 20
-1064.8057
 30
0.0
  0
VERTEX
  8
DEM_20px_m
 10
56951.74348873794
 20
-1065.4611
 30
0.0
  0
VERTEX
  8
DEM_20px_m
 10
56973.30147653315
 20
-1066.4725
 30
0.0
  0
VERTEX
  8
DEM_20px_m
 10
56994.85946432836
 20
-1067.1227
 30
0.0
  0
VERTEX
  8
DEM_20px_m
 10
57016.41745212357
 20
-1067.7878
 30
0.0
  0
VERTEX
  8
DEM_20px_m
 10
57037.97543991878
 20
-1068.4331
 30
0.0
  0
VERTEX
  8
DEM_20px_m
 10
57062.228176188335
 20
-1069.0623
 30
0.0
  0
VERTEX
  8
DEM_20px_m
 10
57086.4809124579
 20
-1069.5452
 30
0.0
  0
VERTEX
  8
DEM_20px_m
 10
57110.73364872745
 20
-1070.0973
 30
0.0
  0
VERTEX
  8
DEM_20px_m
 10
57134.98638499701
 20
-1070.6606
 30
0.0
  0
VERTEX
  8
DEM_20px_m
 10
57159.23912126657
 20
-1071.2935
 30
0.0
  0
VERTEX
  8
DEM_20px_m
 10
57183.49185753612
 20
-1072.6267
 30
0.0
  0
VERTEX
  8
DEM_20px_m
 10
57207.744593805684
 20
-1073.2942
 30
0.0
  0
VERTEX
  8
DEM_20px_m
 10
57231.99733007524
 20
-1074.1144
 30
0.0
  0
VERTEX
  8
DEM_20px_m
 10
57256.250066344786
 20
-1074.777
 30
0.0
  0
VERTEX
  8
DEM_20px_m
 10
57280.50280261434
 20
-1075.2852
 30
0.0
  0
VERTEX
  8
DEM_20px_m
 10
57304.75553888389
 20
-1076.3232
 30
0.0
  0
VERTEX
  8
DEM_20px_m
 10
57329.008275153436
 20
-1077.2727
 30
0.0
  0
VERTEX
  8
DEM_20px_m
 10
57353.26101142298
 20
-1078.5217
 30
0.0
  0
VERTEX
  8
DEM_20px_m
 10
57377.51374769254
 20
-1079.5318
 30
0.0
  0
VERTEX
  8
DEM_20px_m
 10
57401.766483962085
 20
-1080.0
 30
0.0
  0
VERTEX
  8
DEM_20px_m
 10
57426.01922023163
 20
-1080.8327
 30
0.0
  0
VERTEX
  8
DEM_20px_m
 10
57450.27195650119
 20
-1081.5701
 30
0.0
  0
VERTEX
  8
DEM_20px_m
 10
57474.52469277074
 20
-1082.103
 30
0.0
  0
VERTEX
  8
DEM_20px_m
 10
57498.777429040296
 20
-1083.0435
 30
0.0
  0
VERTEX
  8
DEM_20px_m
 10
57523.03016530985
 20
-1084.5633
 30
0.0
  0
VERTEX
  8
DEM_20px_m
 10
57547.282901579405
 20
-1085.1975
 30
0.0
  0
VERTEX
  8
DEM_20px_m
 10
57571.53563784896
 20
-1086.0907
 30
0.0
  0
VERTEX
  8
DEM_20px_m
 10
57595.788374118514
 20
-1086.8699
 30
0.0
  0
VERTEX
  8
DEM_20px_m
 10
57620.04111038807
 20
-1087.7779
 30
0.0
  0
VERTEX
  8
DEM_20px_m
 10
57644.03907290405
 20
-1088.3077
 30
0.0
  0
VERTEX
  8
DEM_20px_m
 10
57668.03703542004
 20
-1088.7496
 30
0.0
  0
VERTEX
  8
DEM_20px_m
 10
57692.034997936025
 20
-1089.6507
 30
0.0
  0
VERTEX
  8
DEM_20px_m
 10
57716.032960452016
 20
-1090.2204
 30
0.0
  0
VERTEX
  8
DEM_20px_m
 10
57740.030922968
 20
-1090.7773
 30
0.0
  0
VERTEX
  8
DEM_20px_m
 10
57764.02888548399
 20
-1091.6403
 30
0.0
  0
VERTEX
  8
DEM_20px_m
 10
57788.02684799997
 20
-1092.3831
 30
0.0
  0
VERTEX
  8
DEM_20px_m
 10
57812.024810515955
 20
-1093.3961
 30
0.0
  0
VERTEX
  8
DEM_20px_m
 10
57836.022773031946
 20
-1094.4657
 30
0.0
  0
VERTEX
  8
DEM_20px_m
 10
57860.02073554793
 20
-1095.7493
 30
0.0
  0
VERTEX
  8
DEM_20px_m
 10
57884.01869806392
 20
-1096.627
 30
0.0
  0
VERTEX
  8
DEM_20px_m
 10
57908.0166605799
 20
-1097.6411
 30
0.0
  0
VERTEX
  8
DEM_20px_m
 10
57932.01462309589
 20
-1098.1741
 30
0.0
  0
VERTEX
  8
DEM_20px_m
 10
57956.012585611876
 20
-1098.5338
 30
0.0
  0
VERTEX
  8
DEM_20px_m
 10
57980.01054812786
 20
-1099.7357
 30
0.0
  0
VERTEX
  8
DEM_20px_m
 10
58004.00851064385
 20
-1100.0729
 30
0.0
  0
VERTEX
  8
DEM_20px_m
 10
58028.00647315983
 20
-1100.2263
 30
0.0
  0
VERTEX
  8
DEM_20px_m
 10
58052.00443567582
 20
-1101.2661
 30
0.0
  0
VERTEX
  8
DEM_20px_m
 10
58076.002398191806
 20
-1101.4064
 30
0.0
  0
VERTEX
  8
DEM_20px_m
 10
58100.000360707796
 20
-1101.214
 30
0.0
  0
VERTEX
  8
DEM_20px_m
 10
58123.99832322378
 20
-1102.0979
 30
0.0
  0
VERTEX
  8
DEM_20px_m
 10
58147.99628573976
 20
-1101.9004
 30
0.0
  0
VERTEX
  8
DEM_20px_m
 10
58171.99424825575
 20
-1101.7512
 30
0.0
  0
VERTEX
  8
DEM_20px_m
 10
58195.992210771736
 20
-1102.5681
 30
0.0
  0
VERTEX
  8
DEM_20px_m
 10
58219.990173287726
 20
-1102.4115
 30
0.0
  0
VERTEX
  8
DEM_20px_m
 10
58243.98813580371
 20
-1102.7955
 30
0.0
  0
VERTEX
  8
DEM_20px_m
 10
58267.9860983197
 20
-1103.4393
 30
0.0
  0
VERTEX
  8
DEM_20px_m
 10
58291.98406083568
 20
-1103.4233
 30
0.0
  0
VERTEX
  8
DEM_20px_m
 10
58315.982023351666
 20
-1103.4807
 30
0.0
  0
VERTEX
  8
DEM_20px_m
 10
58339.979985867656
 20
-1104.1529
 30
0.0
  0
VERTEX
  8
DEM_20px_m
 10
58363.97794838364
 20
-1104.3892
 30
0.0
  0
VERTEX
  8
DEM_20px_m
 10
58387.97591089963
 20
-1104.9966
 30
0.0
  0
VERTEX
  8
DEM_20px_m
 10
58411.97387341561
 20
-1106.0939
 30
0.0
  0
VERTEX
  8
DEM_20px_m
 10
58435.9718359316
 20
-1106.7681
 30
0.0
  0
VERTEX
  8
DEM_20px_m
 10
58459.969798447586
 20
-1107.2917
 30
0.0
  0
VERTEX
  8
DEM_20px_m
 10
58483.96776096357
 20
-1108.1838
 30
0.0
  0
VERTEX
  8
DEM_20px_m
 10
58507.96572347956
 20
-1108.3057
 30
0.0
  0
VERTEX
  8
DEM_20px_m
 10
58531.96368599554
 20
-1108.7829
 30
0.0
  0
VERTEX
  8
DEM_20px_m
 10
58555.96164851153
 20
-1108.8669
 30
0.0
  0
VERTEX
  8
DEM_20px_m
 10
58579.959611027516
 20
-1109.323
 30
0.0
  0
VERTEX
  8
DEM_20px_m
 10
58603.95757354351
 20
-1110.1137
 30
0.0
  0
VERTEX
  8
DEM_20px_m
 10
58627.95553605949
 20
-1110.2701
 30
0.0
  0
VERTEX
  8
DEM_20px_m
 10
58651.95349857547
 20
-1110.3615
 30
0.0
  0
VERTEX
  8
DEM_20px_m
 10
58675.95146109146
 20
-1111.2139
 30
0.0
  0
VERTEX
  8
DEM_20px_m
 10
58699.949423607446
 20
-1110.9001
 30
0.0
  0
VERTEX
  8
DEM_20px_m
 10
58723.94738612344
 20
-1110.8245
 30
0.0
  0
VERTEX
  8
DEM_20px_m
 10
58747.94534863942
 20
-1111.7614
 30
0.0
  0
VERTEX
  8
DEM_20px_m
 10
58771.94331115541
 20
-1111.6492
 30
0.0
  0
VERTEX
  8
DEM_20px_m
 10
58795.94127367139
 20
-1111.5224
 30
0.0
  0
VERTEX
  8
DEM_20px_m
 10
58819.939236187376
 20
-1112.3516
 30
0.0
  0
VERTEX
  8
DEM_20px_m
 10
58843.93719870337
 20
-1111.6902
 30
0.0
  0
VERTEX
  8
DEM_20px_m
 10
58867.93516121935
 20
-1111.0474
 30
0.0
  0
VERTEX
  8
DEM_20px_m
 10
58891.93312373534
 20
-1111.7903
 30
0.0
  0
VERTEX
  8
DEM_20px_m
 10
58915.93108625132
 20
-1111.2482
 30
0.0
  0
VERTEX
  8
DEM_20px_m
 10
58939.92904876731
 20
-1110.4965
 30
0.0
  0
VERTEX
  8
DEM_20px_m
 10
58963.9270112833
 20
-1111.3293
 30
0.0
  0
VERTEX
  8
DEM_20px_m
 10
58987.92497379928
 20
-1110.7878
 30
0.0
  0
VERTEX
  8
DEM_20px_m
 10
59011.92293631527
 20
-1109.9787
 30
0.0
  0
VERTEX
  8
DEM_20px_m
 10
59035.92089883125
 20
-1110.7527
 30
0.0
  0
VERTEX
  8
DEM_20px_m
 10
59059.91886134724
 20
-1110.0927
 30
0.0
  0
VERTEX
  8
DEM_20px_m
 10
59083.91682386323
 20
-1109.5822
 30
0.0
  0
VERTEX
  8
DEM_20px_m
 10
59107.91478637922
 20
-1110.4792
 30
0.0
  0
VERTEX
  8
DEM_20px_m
 10
59131.9127488952
 20
-1110.4792
 30
0.0
  0
VERTEX
  8
DEM_20px_m
 10
59155.91071141118
 20
-1110.9159
 30
0.0
  0
VERTEX
  8
DEM_20px_m
 10
59179.90867392717
 20
-1112.1483
 30
0.0
  0
VERTEX
  8
DEM_20px_m
 10
59203.90663644316
 20
-1112.7681
 30
0.0
  0
VERTEX
  8
DEM_20px_m
 10
59227.90459895915
 20
-1113.2209
 30
0.0
  0
VERTEX
  8
DEM_20px_m
 10
59251.90256147513
 20
-1114.5879
 30
0.0
  0
VERTEX
  8
DEM_20px_m
 10
59275.90052399112
 20
-1115.1394
 30
0.0
  0
VERTEX
  8
DEM_20px_m
 10
59299.8984865071
 20
-1115.8922
 30
0.0
  0
VERTEX
  8
DEM_20px_m
 10
59323.89644902309
 20
-1117.6983
 30
0.0
  0
VERTEX
  8
DEM_20px_m
 10
59347.89441153908
 20
-1119.1105
 30
0.0
  0
VERTEX
  8
DEM_20px_m
 10
59371.89237405506
 20
-1120.3862
 30
0.0
  0
SEQEND
  0
ENDSEC
  0
EOF
