<svg xmlns="http://www.w3.org/2000/svg" width="640" height="360" viewBox="0 0 640 360" font-family="Segoe UI, system-ui, sans-serif">
<rect width="640" height="360" fill="#ffffff"/>
<text x="62.0" y="22" font-size="14" font-weight="600" fill="#172033">Total (still-water + IACS UR S11 wave) utilisation by frame</text>
<line x1="62.0" y1="306.0" x2="624.0" y2="306.0" stroke="#d7dee8" stroke-width="1"/>
<text x="54.0" y="310.0" font-size="11" text-anchor="end" fill="#6b6a60">0.00</text>
<line x1="62.0" y1="251.8" x2="624.0" y2="251.8" stroke="#d7dee8" stroke-width="1"/>
<text x="54.0" y="255.8" font-size="11" text-anchor="end" fill="#6b6a60">0.25</text>
<line x1="62.0" y1="197.7" x2="624.0" y2="197.7" stroke="#d7dee8" stroke-width="1"/>
<text x="54.0" y="201.7" font-size="11" text-anchor="end" fill="#6b6a60">0.50</text>
<line x1="62.0" y1="143.5" x2="624.0" y2="143.5" stroke="#d7dee8" stroke-width="1"/>
<text x="54.0" y="147.5" font-size="11" text-anchor="end" fill="#6b6a60">0.75</text>
<line x1="62.0" y1="89.3" x2="624.0" y2="89.3" stroke="#d7dee8" stroke-width="1"/>
<text x="54.0" y="93.3" font-size="11" text-anchor="end" fill="#6b6a60">1.00</text>
<line x1="62.0" y1="89.3" x2="624.0" y2="89.3" stroke="#6b6a60" stroke-width="1.5" stroke-dasharray="6 4"/>
<text x="624.0" y="83.3" font-size="11" text-anchor="end" fill="#6b6a60">limit = 1.00</text>
<path d="M 89.2 306.0 V 306.0 Q 89.2 306.0 89.2 306.0 H 117.2 Q 117.2 306.0 117.2 306.0 V 306.0 Z" fill="#2a78d6"/>
<text x="103.2" y="301.0" font-size="10" text-anchor="middle" fill="#172033">0.00</text>
<path d="M 119.2 306.0 V 306.0 Q 119.2 306.0 119.2 306.0 H 147.2 Q 147.2 306.0 147.2 306.0 V 306.0 Z" fill="#1baf7a"/>
<text x="133.2" y="301.0" font-size="10" text-anchor="middle" fill="#172033">0.00</text>
<text x="118.2" y="322.0" font-size="11" text-anchor="middle" fill="#172033">AP</text>
<path d="M 201.6 306.0 V 239.2 Q 201.6 235.2 205.6 235.2 H 225.6 Q 229.6 235.2 229.6 239.2 V 306.0 Z" fill="#2a78d6"/>
<text x="215.6" y="230.2" font-size="10" text-anchor="middle" fill="#172033">0.33</text>
<path d="M 231.6 306.0 V 223.3 Q 231.6 219.3 235.6 219.3 H 255.6 Q 259.6 219.3 259.6 223.3 V 306.0 Z" fill="#1baf7a"/>
<text x="245.6" y="214.3" font-size="10" text-anchor="middle" fill="#172033">0.40</text>
<text x="230.6" y="322.0" font-size="11" text-anchor="middle" fill="#172033">Fr 25</text>
<path d="M 314.0 306.0 V 231.2 Q 314.0 227.2 318.0 227.2 H 338.0 Q 342.0 227.2 342.0 231.2 V 306.0 Z" fill="#2a78d6"/>
<text x="328.0" y="222.2" font-size="10" text-anchor="middle" fill="#172033">0.36</text>
<path d="M 344.0 306.0 V 295.3 Q 344.0 291.3 348.0 291.3 H 368.0 Q 372.0 291.3 372.0 295.3 V 306.0 Z" fill="#1baf7a"/>
<text x="358.0" y="286.3" font-size="10" text-anchor="middle" fill="#172033">0.07</text>
<text x="343.0" y="322.0" font-size="11" text-anchor="middle" fill="#172033">Midship</text>
<path d="M 426.4 306.0 V 235.5 Q 426.4 231.5 430.4 231.5 H 450.4 Q 454.4 231.5 454.4 235.5 V 306.0 Z" fill="#2a78d6"/>
<text x="440.4" y="226.5" font-size="10" text-anchor="middle" fill="#172033">0.34</text>
<path d="M 456.4 306.0 V 221.6 Q 456.4 217.6 460.4 217.6 H 480.4 Q 484.4 217.6 484.4 221.6 V 306.0 Z" fill="#1baf7a"/>
<text x="470.4" y="212.6" font-size="10" text-anchor="middle" fill="#172033">0.41</text>
<text x="455.4" y="322.0" font-size="11" text-anchor="middle" fill="#172033">Fr 75</text>
<path d="M 538.8 306.0 V 306.0 Q 538.8 306.0 538.8 306.0 H 566.8 Q 566.8 306.0 566.8 306.0 V 306.0 Z" fill="#2a78d6"/>
<text x="552.8" y="301.0" font-size="10" text-anchor="middle" fill="#172033">0.00</text>
<path d="M 568.8 306.0 V 306.0 Q 568.8 306.0 568.8 306.0 H 596.8 Q 596.8 306.0 596.8 306.0 V 306.0 Z" fill="#1baf7a"/>
<text x="582.8" y="301.0" font-size="10" text-anchor="middle" fill="#172033">0.00</text>
<text x="567.8" y="322.0" font-size="11" text-anchor="middle" fill="#172033">FP</text>
<line x1="62.0" y1="306.0" x2="624.0" y2="306.0" stroke="#6b6a60" stroke-width="1"/>
<rect x="62.0" y="337.0" width="12" height="12" rx="3" fill="#2a78d6"/>
<text x="80.0" y="347.0" font-size="11" fill="#172033">Bending moment</text>
<rect x="212.0" y="337.0" width="12" height="12" rx="3" fill="#1baf7a"/>
<text x="230.0" y="347.0" font-size="11" fill="#172033">Shear force</text>
<text x="18" y="176.0" font-size="11" fill="#6b6a60" text-anchor="middle" transform="rotate(-90 18 176.0)">utilisation (-)</text>
</svg>
