<?xml version="1.0" encoding="UTF-8" standalone="no"?><svg xmlns="http://www.w3.org/2000/svg" xmlns:xlink="http://www.w3.org/1999/xlink" contentStyleType="text/css" height="6159px" preserveAspectRatio="none" style="width:2436px;height:6159px;background:#FFFFFF;" version="1.1" viewBox="0 0 2436 6159" width="2436px" zoomAndPan="magnify"><defs/><g><rect fill="#FF6347" height="135.6563" id="_title" rx="22.5" ry="22.5" style="stroke:#FF0000;stroke-width:6.0;" width="312" x="1058.25" y="45"/><text fill="#000000" font-family="sans-serif" font-size="42" font-weight="bold" lengthAdjust="spacing" textLength="270" x="1073.25" y="103.5996">AQWA Model</text><text fill="#000000" font-family="sans-serif" font-size="42" font-weight="bold" lengthAdjust="spacing" textLength="129" x="1149.75" y="156.4277">Decks</text><path d="M565.5,228.6563 L565.5,356.7656 L1426.5,356.7656 L1426.5,258.6563 L1396.5,228.6563 L565.5,228.6563 " fill="#FEFFDD" style="stroke:#181818;stroke-width:1.5;"/><path d="M1396.5,228.6563 L1396.5,258.6563 L1426.5,258.6563 L1396.5,228.6563 " fill="#FEFFDD" style="stroke:#181818;stroke-width:1.5;"/><text fill="#000000" font-family="sans-serif" font-size="39" lengthAdjust="spacing" textLength="693" x="583.5" y="284.1416">Objective: modular file management and</text><text fill="#000000" font-family="sans-serif" font-size="39" lengthAdjust="spacing" textLength="798" x="583.5" y="333.1963">analysis for easy updates/maintenance/reruns</text><path d="M723,416.7656 L723,495.8203 L1269,495.8203 L1269,446.7656 L1239,416.7656 L723,416.7656 " fill="#FEFFDD" style="stroke:#181818;stroke-width:1.5;"/><path d="M1239,416.7656 L1239,446.7656 L1269,446.7656 L1239,416.7656 " fill="#FEFFDD" style="stroke:#181818;stroke-width:1.5;"/><text fill="#000000" font-family="sans-serif" font-size="39" lengthAdjust="spacing" textLength="483" x="741" y="472.251">All files in ascii (.dat) format</text><ellipse cx="505.5" cy="362.2383" fill="#222222" rx="30" ry="30" style="stroke:#222222;stroke-width:3.0;"/><rect fill="none" height="601.5586" style="stroke:#000000;stroke-width:4.5;" width="1551" x="304.5" y="555.8203"/><path d="M808.5,555.8203 L808.5,587.6484 L778.5,617.6484 L304.5,617.6484 " fill="none" style="stroke:#000000;stroke-width:4.5;"/><text fill="#000000" font-family="sans-serif" font-size="42" lengthAdjust="spacing" textLength="474" x="313.5" y="602.4199">Deck 0: Preliminary Deck</text><path d="M1510.5,847.043 L1510.5,926.0977 L1795.5,926.0977 L1795.5,877.043 L1765.5,847.043 L1510.5,847.043 " fill="#FEFFDD" style="stroke:#181818;stroke-width:1.5;"/><path d="M1765.5,847.043 L1765.5,877.043 L1795.5,877.043 L1765.5,847.043 " fill="#FEFFDD" style="stroke:#181818;stroke-width:1.5;"/><text fill="#000000" font-family="sans-serif" font-size="39" lengthAdjust="spacing" textLength="210" x="1528.5" y="902.5283">General and</text><rect fill="#F1F1F1" height="105.2813" rx="37.5" ry="37.5" style="stroke:#181818;stroke-width:1.5;" width="261" x="375" y="668.6484"/><text fill="#000000" font-family="sans-serif" font-size="36" lengthAdjust="spacing" textLength="201" x="405" y="736.0195">General Info</text><path d="M736.5,847.043 L736.5,874.5703 L676.5,886.5703 L736.5,898.5703 L736.5,926.0977 A0,0 0 0 0 736.5,926.0977 L1480.5,926.0977 A0,0 0 0 0 1480.5,926.0977 L1480.5,877.043 L1450.5,847.043 L736.5,847.043 A0,0 0 0 0 736.5,847.043 " fill="#FEFFDD" style="stroke:#181818;stroke-width:1.5;"/><path d="M1450.5,847.043 L1450.5,877.043 L1480.5,877.043 L1450.5,847.043 " fill="#FEFFDD" style="stroke:#181818;stroke-width:1.5;"/><text fill="#000000" font-family="sans-serif" font-size="39" lengthAdjust="spacing" textLength="681" x="754.5" y="902.5283">For running pre and post python scripts</text><rect fill="#F1F1F1" height="105.2813" rx="37.5" ry="37.5" style="stroke:#181818;stroke-width:1.5;" width="342" x="334.5" y="833.9297"/><text fill="#000000" font-family="sans-serif" font-size="36" lengthAdjust="spacing" textLength="282" x="364.5" y="901.3008">Analysis Settings</text><path d="M700.5,1029.2109 L700.5,1056.7383 L640.5,1068.7383 L700.5,1080.7383 L700.5,1108.2656 A0,0 0 0 0 700.5,1108.2656 L1126.5,1108.2656 A0,0 0 0 0 1126.5,1108.2656 L1126.5,1059.2109 L1096.5,1029.2109 L700.5,1029.2109 A0,0 0 0 0 700.5,1029.2109 " fill="#FEFFDD" style="stroke:#181818;stroke-width:1.5;"/><path d="M1096.5,1029.2109 L1096.5,1059.2109 L1126.5,1059.2109 L1096.5,1029.2109 " fill="#FEFFDD" style="stroke:#181818;stroke-width:1.5;"/><text fill="#000000" font-family="sans-serif" font-size="39" lengthAdjust="spacing" textLength="363" x="718.5" y="1084.6963">For analysis settings</text><rect fill="#F1F1F1" height="105.2813" rx="37.5" ry="37.5" style="stroke:#181818;stroke-width:1.5;" width="270" x="370.5" y="1016.0977"/><text fill="#000000" font-family="sans-serif" font-size="36" lengthAdjust="spacing" textLength="210" x="400.5" y="1083.4688">Restart Card</text><rect fill="none" height="794.9531" style="stroke:#000000;stroke-width:4.5;" width="2133" x="271.5" y="1187.3789"/><path d="M850.5,1187.3789 L850.5,1219.207 L820.5,1249.207 L271.5,1249.207 " fill="none" style="stroke:#000000;stroke-width:4.5;"/><text fill="#000000" font-family="sans-serif" font-size="42" lengthAdjust="spacing" textLength="549" x="280.5" y="1233.9785">Deck 1: Coordinate Positions</text><path d="M1153.5,1559.2148 L1153.5,1687.3242 L2344.5,1687.3242 L2344.5,1589.2148 L2314.5,1559.2148 L1153.5,1559.2148 " fill="#FEFFDD" style="stroke:#181818;stroke-width:1.5;"/><path d="M2314.5,1559.2148 L2314.5,1589.2148 L2344.5,1589.2148 L2314.5,1559.2148 " fill="#FEFFDD" style="stroke:#181818;stroke-width:1.5;"/><text fill="#000000" font-family="sans-serif" font-size="39" lengthAdjust="spacing" textLength="342" x="1171.5" y="1614.7002">Mesh, Mesh sizing,</text><text fill="#000000" font-family="sans-serif" font-size="39" lengthAdjust="spacing" textLength="1128" x="1171.5" y="1663.7549">These parameters may be changed later if unconvergence occurs</text><rect fill="#F1F1F1" height="105.2813" rx="37.5" ry="37.5" style="stroke:#181818;stroke-width:1.5;" width="243" x="384" y="1300.207"/><text fill="#000000" font-family="sans-serif" font-size="36" lengthAdjust="spacing" textLength="183" x="414" y="1367.5781">Coordinate</text><rect fill="#F1F1F1" height="105.2813" rx="37.5" ry="37.5" style="stroke:#181818;stroke-width:1.5;" width="408" x="301.5" y="1465.4883"/><text fill="#000000" font-family="sans-serif" font-size="36" lengthAdjust="spacing" textLength="348" x="331.5" y="1532.8594">Coordinate Strtucture</text><rect fill="#F1F1F1" height="105.2813" rx="37.5" ry="37.5" style="stroke:#181818;stroke-width:1.5;" width="357" x="327" y="1675.7695"/><text fill="#000000" font-family="sans-serif" font-size="36" lengthAdjust="spacing" textLength="297" x="357" y="1743.1406">Coordinate  Offset</text><path d="M691.5,1854.1641 L691.5,1881.6914 L631.5,1893.6914 L691.5,1905.6914 L691.5,1933.2188 A0,0 0 0 0 691.5,1933.2188 L1123.5,1933.2188 A0,0 0 0 0 1123.5,1933.2188 L1123.5,1884.1641 L1093.5,1854.1641 L691.5,1854.1641 A0,0 0 0 0 691.5,1854.1641 " fill="#FEFFDD" style="stroke:#181818;stroke-width:1.5;"/><path d="M1093.5,1854.1641 L1093.5,1884.1641 L1123.5,1884.1641 L1093.5,1854.1641 " fill="#FEFFDD" style="stroke:#181818;stroke-width:1.5;"/><text fill="#000000" font-family="sans-serif" font-size="39" lengthAdjust="spacing" textLength="369" x="709.5" y="1909.6494">5 digit Node numbers</text><rect fill="#F1F1F1" height="105.2813" rx="37.5" ry="37.5" style="stroke:#181818;stroke-width:1.5;" width="252" x="379.5" y="1841.0508"/><text fill="#000000" font-family="sans-serif" font-size="36" lengthAdjust="spacing" textLength="192" x="409.5" y="1908.4219">NOD5 Card</text><rect fill="none" height="1125.5156" style="stroke:#000000;stroke-width:4.5;" width="1608" x="91.5" y="2012.332"/><path d="M799.5,2012.332 L799.5,2044.1602 L769.5,2074.1602 L91.5,2074.1602 " fill="none" style="stroke:#000000;stroke-width:4.5;"/><text fill="#000000" font-family="sans-serif" font-size="42" lengthAdjust="spacing" textLength="678" x="100.5" y="2058.9316">Deck 2 : (ELM*) - Element Topology</text><path d="M919.5,2524.9219 L919.5,2702.0859 L1639.5,2702.0859 L1639.5,2554.9219 L1609.5,2524.9219 L919.5,2524.9219 " fill="#FEFFDD" style="stroke:#181818;stroke-width:1.5;"/><path d="M1609.5,2524.9219 L1609.5,2554.9219 L1639.5,2554.9219 L1609.5,2524.9219 " fill="#FEFFDD" style="stroke:#181818;stroke-width:1.5;"/><text fill="#000000" font-family="sans-serif" font-size="39" lengthAdjust="spacing" textLength="657" x="937.5" y="2580.4072">Point mass, hydrodynamic interaction</text><text fill="#000000" font-family="sans-serif" font-size="39" lengthAdjust="spacing" textLength="225" x="937.5" y="2629.4619">Fix Structure</text><text fill="#000000" font-family="sans-serif" font-size="39" lengthAdjust="spacing" textLength="360" x="937.5" y="2678.5166">Waterline height etc.</text><rect fill="#F1F1F1" height="105.2813" rx="37.5" ry="37.5" style="stroke:#181818;stroke-width:1.5;" width="357" x="327" y="2125.1602"/><text fill="#000000" font-family="sans-serif" font-size="36" lengthAdjust="spacing" textLength="297" x="357" y="2192.5313">Element Topology</text><rect fill="#F1F1F1" height="105.2813" rx="37.5" ry="37.5" style="stroke:#181818;stroke-width:1.5;" width="588" x="211.5" y="2290.4414"/><text fill="#000000" font-family="sans-serif" font-size="36" lengthAdjust="spacing" textLength="528" x="241.5" y="2357.8125">HYDI - Hydrodynamic Interaction</text><rect fill="#F1F1F1" height="105.2813" rx="37.5" ry="37.5" style="stroke:#181818;stroke-width:1.5;" width="366" x="322.5" y="2455.7227"/><text fill="#000000" font-family="sans-serif" font-size="36" lengthAdjust="spacing" textLength="306" x="352.5" y="2523.0938">FIXD - FIx structure</text><rect fill="#F1F1F1" height="105.2813" rx="37.5" ry="37.5" style="stroke:#181818;stroke-width:1.5;" width="687" x="162" y="2666.0039"/><text fill="#000000" font-family="sans-serif" font-size="36" lengthAdjust="spacing" textLength="627" x="192" y="2733.375">VLID - Suppression of standing waves</text><rect fill="#F1F1F1" height="105.2813" rx="37.5" ry="37.5" style="stroke:#181818;stroke-width:1.5;" width="768" x="121.5" y="2831.2852"/><text fill="#000000" font-family="sans-serif" font-size="36" lengthAdjust="spacing" textLength="708" x="151.5" y="2898.6563">ILID - Suppression of irrelgular frequencies</text><rect fill="#F1F1F1" height="105.2813" rx="37.5" ry="37.5" style="stroke:#181818;stroke-width:1.5;" width="453" x="279" y="2996.5664"/><text fill="#000000" font-family="sans-serif" font-size="36" lengthAdjust="spacing" textLength="393" x="309" y="3063.9375">ZLWL - Waterline height</text><rect fill="none" height="364.9922" style="stroke:#000000;stroke-width:4.5;" width="1173" x="309" y="3167.8477"/><path d="M1023,3167.8477 L1023,3199.6758 L993,3229.6758 L309,3229.6758 " fill="none" style="stroke:#000000;stroke-width:4.5;"/><text fill="#000000" font-family="sans-serif" font-size="42" lengthAdjust="spacing" textLength="684" x="318" y="3214.4473">Deck 3 (MATE) - Material Properties</text><path d="M702,3289.6758 L702,3466.8398 L1422,3466.8398 L1422,3319.6758 L1392,3289.6758 L702,3289.6758 " fill="#FEFFDD" style="stroke:#181818;stroke-width:1.5;"/><path d="M1392,3289.6758 L1392,3319.6758 L1422,3319.6758 L1392,3289.6758 " fill="#FEFFDD" style="stroke:#181818;stroke-width:1.5;"/><text fill="#000000" font-family="sans-serif" font-size="39" lengthAdjust="spacing" textLength="657" x="720" y="3345.1611">Point mass, hydrodynamic interaction</text><text fill="#000000" font-family="sans-serif" font-size="39" lengthAdjust="spacing" textLength="225" x="720" y="3394.2158">Fix Structure</text><text fill="#000000" font-family="sans-serif" font-size="39" lengthAdjust="spacing" textLength="360" x="720" y="3443.2705">Waterline height etc.</text><rect fill="#F1F1F1" height="105.2813" rx="37.5" ry="37.5" style="stroke:#181818;stroke-width:1.5;" width="333" x="339" y="3325.6172"/><text fill="#000000" font-family="sans-serif" font-size="36" lengthAdjust="spacing" textLength="273" x="369" y="3392.9883">Material Property</text><rect fill="none" height="266.8828" style="stroke:#000000;stroke-width:4.5;" width="801" x="193.5" y="3564.5684"/><path d="M964.5,3564.5684 L964.5,3596.3965 L934.5,3626.3965 L193.5,3626.3965 " fill="none" style="stroke:#000000;stroke-width:4.5;"/><text fill="#000000" font-family="sans-serif" font-size="42" lengthAdjust="spacing" textLength="741" x="202.5" y="3611.168">Deck 4 (GEOM) - Geometric Properties</text><path d="M535.5,3686.3965 L535.5,3765.4512 L652.5,3765.4512 L652.5,3716.3965 L622.5,3686.3965 L535.5,3686.3965 " fill="#FEFFDD" style="stroke:#181818;stroke-width:1.5;"/><path d="M622.5,3686.3965 L622.5,3716.3965 L652.5,3716.3965 L622.5,3686.3965 " fill="#FEFFDD" style="stroke:#181818;stroke-width:1.5;"/><text fill="#000000" font-family="sans-serif" font-size="39" lengthAdjust="spacing" textLength="54" x="553.5" y="3741.8818">tba</text><rect fill="none" height="266.8828" style="stroke:#000000;stroke-width:4.5;" width="792" x="198" y="3863.1797"/><path d="M960,3863.1797 L960,3895.0078 L930,3925.0078 L198,3925.0078 " fill="none" style="stroke:#000000;stroke-width:4.5;"/><text fill="#000000" font-family="sans-serif" font-size="42" lengthAdjust="spacing" textLength="732" x="207" y="3909.7793">Deck 5 (GLOB) - Constant Parameters</text><path d="M535.5,3985.0078 L535.5,4064.0625 L652.5,4064.0625 L652.5,4015.0078 L622.5,3985.0078 L535.5,3985.0078 " fill="#FEFFDD" style="stroke:#181818;stroke-width:1.5;"/><path d="M622.5,3985.0078 L622.5,4015.0078 L652.5,4015.0078 L622.5,3985.0078 " fill="#FEFFDD" style="stroke:#181818;stroke-width:1.5;"/><text fill="#000000" font-family="sans-serif" font-size="39" lengthAdjust="spacing" textLength="54" x="553.5" y="4040.4932">tba</text><rect fill="none" height="266.8828" style="stroke:#000000;stroke-width:4.5;" width="744" x="222" y="4161.791"/><path d="M936,4161.791 L936,4193.6191 L906,4223.6191 L222,4223.6191 " fill="none" style="stroke:#000000;stroke-width:4.5;"/><text fill="#000000" font-family="sans-serif" font-size="42" lengthAdjust="spacing" textLength="684" x="231" y="4208.3906">Deck 6 (FDR) - Frequency/Direction</text><path d="M535.5,4283.6191 L535.5,4362.6738 L652.5,4362.6738 L652.5,4313.6191 L622.5,4283.6191 L535.5,4283.6191 " fill="#FEFFDD" style="stroke:#181818;stroke-width:1.5;"/><path d="M622.5,4283.6191 L622.5,4313.6191 L652.5,4313.6191 L622.5,4283.6191 " fill="#FEFFDD" style="stroke:#181818;stroke-width:1.5;"/><text fill="#000000" font-family="sans-serif" font-size="39" lengthAdjust="spacing" textLength="54" x="553.5" y="4339.1045">tba</text><rect fill="none" height="266.8828" style="stroke:#000000;stroke-width:4.5;" width="858" x="165" y="4460.4023"/><path d="M993,4460.4023 L993,4492.2305 L963,4522.2305 L165,4522.2305 " fill="none" style="stroke:#000000;stroke-width:4.5;"/><text fill="#000000" font-family="sans-serif" font-size="42" lengthAdjust="spacing" textLength="798" x="174" y="4507.002">Deck 7 (WFS) - Frequency depedent data</text><path d="M535.5,4582.2305 L535.5,4661.2852 L652.5,4661.2852 L652.5,4612.2305 L622.5,4582.2305 L535.5,4582.2305 " fill="#FEFFDD" style="stroke:#181818;stroke-width:1.5;"/><path d="M622.5,4582.2305 L622.5,4612.2305 L652.5,4612.2305 L622.5,4582.2305 " fill="#FEFFDD" style="stroke:#181818;stroke-width:1.5;"/><text fill="#000000" font-family="sans-serif" font-size="39" lengthAdjust="spacing" textLength="54" x="553.5" y="4637.7158">tba</text><rect fill="none" height="266.8828" style="stroke:#000000;stroke-width:4.5;" width="678" x="255" y="4759.0137"/><path d="M903,4759.0137 L903,4790.8418 L873,4820.8418 L255,4820.8418 " fill="none" style="stroke:#000000;stroke-width:4.5;"/><text fill="#000000" font-family="sans-serif" font-size="42" lengthAdjust="spacing" textLength="618" x="264" y="4805.6133">Deck 8 (DRC) - Drift Force Coeff</text><path d="M535.5,4880.8418 L535.5,4959.8965 L652.5,4959.8965 L652.5,4910.8418 L622.5,4880.8418 L535.5,4880.8418 " fill="#FEFFDD" style="stroke:#181818;stroke-width:1.5;"/><path d="M622.5,4880.8418 L622.5,4910.8418 L652.5,4910.8418 L622.5,4880.8418 " fill="#FEFFDD" style="stroke:#181818;stroke-width:1.5;"/><text fill="#000000" font-family="sans-serif" font-size="39" lengthAdjust="spacing" textLength="54" x="553.5" y="4936.3271">tba</text><rect fill="none" height="266.8828" style="stroke:#000000;stroke-width:4.5;" width="603" x="292.5" y="5057.625"/><path d="M865.5,5057.625 L865.5,5089.4531 L835.5,5119.4531 L292.5,5119.4531 " fill="none" style="stroke:#000000;stroke-width:4.5;"/><text fill="#000000" font-family="sans-serif" font-size="42" lengthAdjust="spacing" textLength="543" x="301.5" y="5104.2246">Deck 9 (DRM) - Drift Motions</text><path d="M535.5,5179.4531 L535.5,5258.5078 L652.5,5258.5078 L652.5,5209.4531 L622.5,5179.4531 L535.5,5179.4531 " fill="#FEFFDD" style="stroke:#181818;stroke-width:1.5;"/><path d="M622.5,5179.4531 L622.5,5209.4531 L652.5,5209.4531 L622.5,5179.4531 " fill="#FEFFDD" style="stroke:#181818;stroke-width:1.5;"/><text fill="#000000" font-family="sans-serif" font-size="39" lengthAdjust="spacing" textLength="54" x="553.5" y="5234.9385">tba</text><rect fill="none" height="266.8828" style="stroke:#000000;stroke-width:4.5;" width="1122" x="33" y="5356.2363"/><path d="M1125,5356.2363 L1125,5388.0645 L1095,5418.0645 L33,5418.0645 " fill="none" style="stroke:#000000;stroke-width:4.5;"/><text fill="#000000" font-family="sans-serif" font-size="42" lengthAdjust="spacing" textLength="1062" x="42" y="5402.8359">Deck 10 (HLD) - Hull draft coefficient and thruster forces</text><path d="M535.5,5478.0645 L535.5,5557.1191 L652.5,5557.1191 L652.5,5508.0645 L622.5,5478.0645 L535.5,5478.0645 " fill="#FEFFDD" style="stroke:#181818;stroke-width:1.5;"/><path d="M622.5,5478.0645 L622.5,5508.0645 L652.5,5508.0645 L622.5,5478.0645 " fill="#FEFFDD" style="stroke:#181818;stroke-width:1.5;"/><text fill="#000000" font-family="sans-serif" font-size="39" lengthAdjust="spacing" textLength="54" x="553.5" y="5533.5498">tba</text><rect fill="none" height="266.8828" style="stroke:#000000;stroke-width:4.5;" width="930" x="129" y="5654.8477"/><path d="M1029,5654.8477 L1029,5686.6758 L999,5716.6758 L129,5716.6758 " fill="none" style="stroke:#000000;stroke-width:4.5;"/><text fill="#000000" font-family="sans-serif" font-size="42" lengthAdjust="spacing" textLength="870" x="138" y="5701.4473">Deck 11 (HLD) - Current and wind parameters</text><path d="M535.5,5776.6758 L535.5,5855.7305 L652.5,5855.7305 L652.5,5806.6758 L622.5,5776.6758 L535.5,5776.6758 " fill="#FEFFDD" style="stroke:#181818;stroke-width:1.5;"/><path d="M622.5,5776.6758 L622.5,5806.6758 L652.5,5806.6758 L622.5,5776.6758 " fill="#FEFFDD" style="stroke:#181818;stroke-width:1.5;"/><text fill="#000000" font-family="sans-serif" font-size="39" lengthAdjust="spacing" textLength="54" x="553.5" y="5832.1611">tba</text><ellipse cx="505.5" cy="6014.7305" fill="none" rx="33" ry="33" style="stroke:#222222;stroke-width:3.0;"/><ellipse cx="505.5" cy="6014.7305" fill="#222222" rx="18" ry="18" style="stroke:#111111;stroke-width:3.0;"/><line style="stroke:#181818;stroke-width:3.0;" x1="505.5" x2="505.5" y1="773.9297" y2="833.9297"/><polygon fill="#181818" points="493.5,803.9297,505.5,833.9297,517.5,803.9297,505.5,815.9297" style="stroke:#181818;stroke-width:3.0;"/><line style="stroke:#181818;stroke-width:3.0;" x1="505.5" x2="505.5" y1="939.2109" y2="1016.0977"/><polygon fill="#181818" points="493.5,986.0977,505.5,1016.0977,517.5,986.0977,505.5,998.0977" style="stroke:#181818;stroke-width:3.0;"/><line style="stroke:#181818;stroke-width:3.0;" x1="505.5" x2="505.5" y1="392.2383" y2="668.6484"/><polygon fill="#181818" points="493.5,638.6484,505.5,668.6484,517.5,638.6484,505.5,650.6484" style="stroke:#181818;stroke-width:3.0;"/><line style="stroke:#181818;stroke-width:3.0;" x1="505.5" x2="505.5" y1="1405.4883" y2="1465.4883"/><polygon fill="#181818" points="493.5,1435.4883,505.5,1465.4883,517.5,1435.4883,505.5,1447.4883" style="stroke:#181818;stroke-width:3.0;"/><line style="stroke:#181818;stroke-width:3.0;" x1="505.5" x2="505.5" y1="1570.7695" y2="1675.7695"/><polygon fill="#181818" points="493.5,1645.7695,505.5,1675.7695,517.5,1645.7695,505.5,1657.7695" style="stroke:#181818;stroke-width:3.0;"/><line style="stroke:#181818;stroke-width:3.0;" x1="505.5" x2="505.5" y1="1781.0508" y2="1841.0508"/><polygon fill="#181818" points="493.5,1811.0508,505.5,1841.0508,517.5,1811.0508,505.5,1823.0508" style="stroke:#181818;stroke-width:3.0;"/><line style="stroke:#181818;stroke-width:3.0;" x1="505.5" x2="505.5" y1="1121.3789" y2="1300.207"/><polygon fill="#181818" points="493.5,1270.207,505.5,1300.207,517.5,1270.207,505.5,1282.207" style="stroke:#181818;stroke-width:3.0;"/><line style="stroke:#181818;stroke-width:3.0;" x1="505.5" x2="505.5" y1="2230.4414" y2="2290.4414"/><polygon fill="#181818" points="493.5,2260.4414,505.5,2290.4414,517.5,2260.4414,505.5,2272.4414" style="stroke:#181818;stroke-width:3.0;"/><line style="stroke:#181818;stroke-width:3.0;" x1="505.5" x2="505.5" y1="2395.7227" y2="2455.7227"/><polygon fill="#181818" points="493.5,2425.7227,505.5,2455.7227,517.5,2425.7227,505.5,2437.7227" style="stroke:#181818;stroke-width:3.0;"/><line style="stroke:#181818;stroke-width:3.0;" x1="505.5" x2="505.5" y1="2561.0039" y2="2666.0039"/><polygon fill="#181818" points="493.5,2636.0039,505.5,2666.0039,517.5,2636.0039,505.5,2648.0039" style="stroke:#181818;stroke-width:3.0;"/><line style="stroke:#181818;stroke-width:3.0;" x1="505.5" x2="505.5" y1="2771.2852" y2="2831.2852"/><polygon fill="#181818" points="493.5,2801.2852,505.5,2831.2852,517.5,2801.2852,505.5,2813.2852" style="stroke:#181818;stroke-width:3.0;"/><line style="stroke:#181818;stroke-width:3.0;" x1="505.5" x2="505.5" y1="2936.5664" y2="2996.5664"/><polygon fill="#181818" points="493.5,2966.5664,505.5,2996.5664,517.5,2966.5664,505.5,2978.5664" style="stroke:#181818;stroke-width:3.0;"/><line style="stroke:#181818;stroke-width:3.0;" x1="505.5" x2="505.5" y1="1946.332" y2="2125.1602"/><polygon fill="#181818" points="493.5,2095.1602,505.5,2125.1602,517.5,2095.1602,505.5,2107.1602" style="stroke:#181818;stroke-width:3.0;"/><line style="stroke:#181818;stroke-width:3.0;" x1="505.5" x2="505.5" y1="3101.8477" y2="3325.6172"/><polygon fill="#181818" points="493.5,3295.6172,505.5,3325.6172,517.5,3295.6172,505.5,3307.6172" style="stroke:#181818;stroke-width:3.0;"/><line style="stroke:#181818;stroke-width:3.0;" x1="505.5" x2="505.5" y1="3430.8984" y2="5981.7305"/><polygon fill="#181818" points="493.5,5951.7305,505.5,5981.7305,517.5,5951.7305,505.5,5963.7305" style="stroke:#181818;stroke-width:3.0;"/><text fill="#888888" font-family="sans-serif" font-size="30" lengthAdjust="spacing" textLength="288" x="1070.25" y="6075.873">2025.03.17 at 17:01</text><text fill="#888888" font-family="sans-serif" font-size="30" lengthAdjust="spacing" textLength="9" x="1209.75" y="6113.6074"> </text><!--SRC=[rPRTRzis4C3VzLSS0XHLXYnfscKVpfDhnR41g_OIOzc6lJ3aIU8YaUgHIgiD_Tzxb1F7YPrsBk27yS60UKVzxfjqKfG8Ro9teqqjI5JWjI_nhIM5T64RemQM318SdspMcHTQtXXq3bvlLXZOqX8GgZMna3SvBH11PMuhuMqKTKBe_thLXzGgBE4law2ySL7al20VHS3BM8z0EYzyzpUiwVNVABs-nHvKLZMb8CWqVwaIHkHOeV4WZ8AbFc-NhTCECeQZS2qqjH8UtL4bjF5eX95uH4YDSTqXvDE1-wm5_RBia0wq0U6arX0VyYVt0uATs_0LZWVxgws1lU0alEh1ZB3KbJQ2MWXxU_3lal0C-7wT8wTAb8_zN8U6rRlN7PlCdZviz- -ZSedUQvExq_yA7uOqDyRm8QW9EoDgwppKhI_OGIT9rzvjjcl9ly0kop0GfBP2BzFfxWn_7lHfS-oFUp2mNBCSUYRDhEk4Reluf-YAW-uNdFw7ZJY0DPrvWGwXwmFqI8xhiuLh15a8awE2ak44EeF6I6jkaNBaEWGhPKFkQqbziFzqqoPSUlADz0qz8uTfbd7yLeJlfid9Tiau0QLpxU4TDo-Ofhf6sZuNhw47yTaa_MuVleUpSj6-SrlpfCZRBJ8oizpA76Bd3g1e5LdL6b5f2Q73ISY0N2yd_J54QX6eDUbLI52f3KA1WGdevU7N4lFKXPK8Z_v8nkpaQDMwyODrAvh3yUy9Qmx77y7TcxSY_cqo3kBBfkRsSou4qsQioOqOUlA3kCMLRkwDDwfhul6JBwOduVk6Yqy_ElRdv6h2nvv6uVHBsNm3STgVduLSfk6Svhap8riZgw7x7wRpgHVj5zt_0UBpisaQt3z7osrFRF4t-U-lnTQjTCBqoVHje0zud74vU9Wjny-EuJz2F4mk0djuLqtjKQ89kqpjcFqJn5V3oqTiK5YZ2et8rxBOCVzdY9EBGU0df3CVRYaUv0EBMRPZyY-1d3wGKxljJVOjrEDN48ycIS2E6duAAHBCbi5VpKFaxltb2sfSkEAo48wTstIyj6dGy6YxC-A33e-JNJI1yxQEeipo5aKlmdiotcjv7QRfeL8lGNXuEHhrgcflFteH7eiylp3UZy9t5gS-0m00]--></g></svg>