<?xml version="1.0" encoding="us-ascii" standalone="no"?><svg xmlns="http://www.w3.org/2000/svg" xmlns:xlink="http://www.w3.org/1999/xlink" contentStyleType="text/css" height="2367px" preserveAspectRatio="none" style="width:2043px;height:2367px;background:#FFFFFF;" version="1.1" viewBox="0 0 2043 2367" width="2043px" zoomAndPan="magnify"><defs/><g><rect fill="#FF6347" height="135.6563" id="_title" rx="22.5" ry="22.5" style="stroke:#FF0000;stroke-width:6.0;" width="351" x="841.5" y="45"/><text fill="#000000" font-family="sans-serif" font-size="42" font-weight="bold" lengthAdjust="spacing" textLength="309" x="856.5" y="103.5996">AQWA No Load</text><text fill="#000000" font-family="sans-serif" font-size="42" font-weight="bold" lengthAdjust="spacing" textLength="195" x="919.5" y="156.4277">Workflow</text><path d="M369,198.6563 L369,226.1836 L309,238.1836 L369,250.1836 L369,277.7109 A0,0 0 0 0 369,277.7109 L1266,277.7109 A0,0 0 0 0 1266,277.7109 L1266,228.6563 L1236,198.6563 L369,198.6563 A0,0 0 0 0 369,198.6563 " fill="#FEFFDD" style="stroke:#181818;stroke-width:1.5;"/><path d="M1236,198.6563 L1236,228.6563 L1266,228.6563 L1236,198.6563 " fill="#FEFFDD" style="stroke:#181818;stroke-width:1.5;"/><text fill="#000000" font-family="sans-serif" font-size="39" lengthAdjust="spacing" textLength="834" x="387" y="254.1416">Objective: To run No Load time domain Analysis</text><ellipse cx="279" cy="238.1836" fill="#222222" rx="30" ry="30" style="stroke:#222222;stroke-width:3.0;"/><rect fill="none" height="896.4141" style="stroke:#000000;stroke-width:4.5;" width="1912.5" x="97.5" y="307.7109"/><path d="M487.5,307.7109 L487.5,339.5391 L457.5,369.5391 L97.5,369.5391 " fill="none" style="stroke:#000000;stroke-width:4.5;"/><text fill="#000000" font-family="sans-serif" font-size="42" lengthAdjust="spacing" textLength="360" x="106.5" y="354.3105">Diffraction Analysis</text><path d="M1362,719.7773 L1362,847.8867 L1950,847.8867 L1950,749.7773 L1920,719.7773 L1362,719.7773 " fill="#FEFFDD" style="stroke:#181818;stroke-width:1.5;"/><path d="M1920,719.7773 L1920,749.7773 L1950,749.7773 L1920,719.7773 " fill="#FEFFDD" style="stroke:#181818;stroke-width:1.5;"/><text fill="#000000" font-family="sans-serif" font-size="39" lengthAdjust="spacing" textLength="525" x="1380" y="775.2627">Generate .HYD and .RES files</text><text fill="#000000" font-family="sans-serif" font-size="39" lengthAdjust="spacing" textLength="318" x="1380" y="824.3174">for further analysis</text><path d="M490.5,399.5391 L490.5,553.4355 L430.5,565.4355 L490.5,577.4355 L490.5,731.332 A0,0 0 0 0 490.5,731.332 L1177.5,731.332 A0,0 0 0 0 1177.5,731.332 L1177.5,429.5391 L1147.5,399.5391 L490.5,399.5391 A0,0 0 0 0 490.5,399.5391 " fill="#FEFFDD" style="stroke:#181818;stroke-width:1.5;"/><path d="M1147.5,399.5391 L1147.5,429.5391 L1177.5,429.5391 L1147.5,399.5391 " fill="#FEFFDD" style="stroke:#181818;stroke-width:1.5;"/><text fill="#000000" font-family="sans-serif" font-size="39" lengthAdjust="spacing" textLength="621" x="508.5" y="455.0244">Limited number (&lt;10) of frequencies</text><text fill="#000000" font-family="sans-serif" font-size="39" lengthAdjust="spacing" textLength="525" x="508.5" y="504.0791">filename: F_F2_d10_SIMP.dat</text><text fill="#000000" font-family="monospace" font-size="39" lengthAdjust="spacing" textLength="288" x="508.5" y="551.8579">OPTIONS&#160;GOON</text><text fill="#000000" font-family="monospace" font-size="39" lengthAdjust="spacing" textLength="168" x="508.5" y="602.7788">OPTIONS</text><text fill="#000000" font-family="monospace" font-size="39" lengthAdjust="spacing" textLength="624" x="508.5" y="653.6997">OPTIONS&#160;LHFR&#160;MQTF&#160;REST&#160;END</text><text fill="#000000" font-family="monospace" font-size="39" lengthAdjust="spacing" textLength="312" x="508.5" y="704.6206">RESTART&#160;&#160;1&#160;&#160;5</text><rect fill="#F1F1F1" height="105.2813" rx="37.5" ry="37.5" style="stroke:#181818;stroke-width:1.5;" width="303" x="127.5" y="512.7949"/><text fill="#000000" font-family="sans-serif" font-size="36" lengthAdjust="spacing" textLength="243" x="157.5" y="580.166">First pass Run</text><path d="M477,836.332 L477,990.2285 L417,1002.2285 L477,1014.2285 L477,1168.125 A0,0 0 0 0 477,1168.125 L1332,1168.125 A0,0 0 0 0 1332,1168.125 L1332,866.332 L1302,836.332 L477,836.332 A0,0 0 0 0 477,836.332 " fill="#FEFFDD" style="stroke:#181818;stroke-width:1.5;"/><path d="M1302,836.332 L1302,866.332 L1332,866.332 L1302,836.332 " fill="#FEFFDD" style="stroke:#181818;stroke-width:1.5;"/><text fill="#000000" font-family="sans-serif" font-size="39" lengthAdjust="spacing" textLength="252" x="495" y="891.8174">50 frequencies</text><text fill="#000000" font-family="sans-serif" font-size="39" lengthAdjust="spacing" textLength="546" x="495" y="940.8721">filename: F_F2_d10_COMP.dat</text><text fill="#000000" font-family="monospace" font-size="39" lengthAdjust="spacing" textLength="288" x="495" y="988.6509">OPTIONS&#160;GOON</text><text fill="#000000" font-family="monospace" font-size="39" lengthAdjust="spacing" textLength="168" x="495" y="1039.5718">OPTIONS</text><text fill="#000000" font-family="monospace" font-size="39" lengthAdjust="spacing" textLength="624" x="495" y="1090.4927">OPTIONS&#160;LHFR&#160;MQTF&#160;REST&#160;END</text><text fill="#000000" font-family="monospace" font-size="39" lengthAdjust="spacing" textLength="792" x="495" y="1141.4136">RESTART&#160;&#160;2&#160;&#160;3&#160;&#160;&#160;&#160;&#160;&#160;&#160;F_F2_d10_SIMP</text><rect fill="#F1F1F1" height="105.2813" rx="37.5" ry="37.5" style="stroke:#181818;stroke-width:1.5;" width="276" x="141" y="949.5879"/><text fill="#000000" font-family="sans-serif" font-size="36" lengthAdjust="spacing" textLength="216" x="171" y="1016.959">Detailed Run</text><rect fill="none" height="459.6211" style="stroke:#000000;stroke-width:4.5;" width="1839" x="51" y="1234.125"/><path d="M456,1234.125 L456,1265.9531 L426,1295.9531 L51,1295.9531 " fill="none" style="stroke:#000000;stroke-width:4.5;"/><text fill="#000000" font-family="sans-serif" font-size="42" lengthAdjust="spacing" textLength="375" x="60" y="1280.7246">Equilibrium Analysis</text><path d="M1422,1427.7949 L1422,1555.9043 L1830,1555.9043 L1830,1457.7949 L1800,1427.7949 L1422,1427.7949 " fill="#FEFFDD" style="stroke:#181818;stroke-width:1.5;"/><path d="M1800,1427.7949 L1800,1457.7949 L1830,1457.7949 L1800,1427.7949 " fill="#FEFFDD" style="stroke:#181818;stroke-width:1.5;"/><text fill="#000000" font-family="sans-serif" font-size="39" lengthAdjust="spacing" textLength="345" x="1440" y="1483.2803">Generate .RES files</text><text fill="#000000" font-family="sans-serif" font-size="39" lengthAdjust="spacing" textLength="318" x="1440" y="1532.335">for further analysis</text><path d="M537,1325.9531 L537,1479.8496 L477,1491.8496 L537,1503.8496 L537,1657.7461 A0,0 0 0 0 537,1657.7461 L1392,1657.7461 A0,0 0 0 0 1392,1657.7461 L1392,1355.9531 L1362,1325.9531 L537,1325.9531 A0,0 0 0 0 537,1325.9531 " fill="#FEFFDD" style="stroke:#181818;stroke-width:1.5;"/><path d="M1362,1325.9531 L1362,1355.9531 L1392,1355.9531 L1362,1325.9531 " fill="#FEFFDD" style="stroke:#181818;stroke-width:1.5;"/><text fill="#000000" font-family="sans-serif" font-size="39" lengthAdjust="spacing" textLength="405" x="555" y="1381.4385">Static/stability analysis</text><text fill="#000000" font-family="sans-serif" font-size="39" lengthAdjust="spacing" textLength="504" x="555" y="1430.4932">filename: S_F2L15HSMR.dat</text><text fill="#000000" font-family="monospace" font-size="39" lengthAdjust="spacing" textLength="408" x="555" y="1478.272">OPTIONS&#160;PBIS&#160;PRST</text><text fill="#000000" font-family="monospace" font-size="39" lengthAdjust="spacing" textLength="408" x="555" y="1529.1929">OPTIONS&#160;LSTF&#160;NASF</text><text fill="#000000" font-family="monospace" font-size="39" lengthAdjust="spacing" textLength="384" x="555" y="1580.1138">OPTIONS&#160;REST&#160;END</text><text fill="#000000" font-family="monospace" font-size="39" lengthAdjust="spacing" textLength="792" x="555" y="1631.0347">RESTART&#160;&#160;4&#160;&#160;5&#160;&#160;&#160;&#160;&#160;&#160;&#160;F_F2_d10_COMP</text><rect fill="#F1F1F1" height="105.2813" rx="37.5" ry="37.5" style="stroke:#181818;stroke-width:1.5;" width="396" x="81" y="1439.209"/><text fill="#000000" font-family="sans-serif" font-size="36" lengthAdjust="spacing" textLength="336" x="111" y="1506.5801">Equilibrium Analysis</text><rect fill="none" height="408.7002" style="stroke:#000000;stroke-width:4.5;" width="1566" x="33" y="1723.7461"/><path d="M480,1723.7461 L480,1755.5742 L450,1785.5742 L33,1785.5742 " fill="none" style="stroke:#000000;stroke-width:4.5;"/><text fill="#000000" font-family="sans-serif" font-size="42" lengthAdjust="spacing" textLength="417" x="42" y="1770.3457">Time Domain Analysis</text><path d="M1392,1916.4829 L1392,1995.5376 L1539,1995.5376 L1539,1946.4829 L1509,1916.4829 L1392,1916.4829 " fill="#FEFFDD" style="stroke:#181818;stroke-width:1.5;"/><path d="M1509,1916.4829 L1509,1946.4829 L1539,1946.4829 L1509,1916.4829 " fill="#FEFFDD" style="stroke:#181818;stroke-width:1.5;"/><text fill="#000000" font-family="sans-serif" font-size="39" lengthAdjust="spacing" textLength="84" x="1410" y="1971.9683">none</text><path d="M555,1815.5742 L555,1944.0103 L495,1956.0103 L555,1968.0103 L555,2096.4463 A0,0 0 0 0 555,2096.4463 L1362,2096.4463 A0,0 0 0 0 1362,2096.4463 L1362,1845.5742 L1332,1815.5742 L555,1815.5742 A0,0 0 0 0 555,1815.5742 " fill="#FEFFDD" style="stroke:#181818;stroke-width:1.5;"/><path d="M1332,1815.5742 L1332,1845.5742 L1362,1845.5742 L1332,1815.5742 " fill="#FEFFDD" style="stroke:#181818;stroke-width:1.5;"/><text fill="#000000" font-family="sans-serif" font-size="39" lengthAdjust="spacing" textLength="348" x="573" y="1871.0596">No load in DECK 13</text><text fill="#000000" font-family="sans-serif" font-size="39" lengthAdjust="spacing" textLength="582" x="573" y="1920.1143">filename: D_RES_4_5_HSMR.dat</text><text fill="#000000" font-family="monospace" font-size="39" lengthAdjust="spacing" textLength="528" x="573" y="1967.8931">OPTIONS&#160;CONV&#160;NASF&#160;NOST</text><text fill="#000000" font-family="monospace" font-size="39" lengthAdjust="spacing" textLength="504" x="573" y="2018.814">OPTIONS&#160;RDEP&#160;REST&#160;END</text><text fill="#000000" font-family="monospace" font-size="39" lengthAdjust="spacing" textLength="744" x="573" y="2069.7349">RESTART&#160;&#160;4&#160;&#160;5&#160;&#160;&#160;&#160;&#160;&#160;&#160;S_F2L15HSMR</text><rect fill="#F1F1F1" height="105.2813" rx="37.5" ry="37.5" style="stroke:#181818;stroke-width:1.5;" width="432" x="63" y="1903.3696"/><text fill="#000000" font-family="sans-serif" font-size="36" lengthAdjust="spacing" textLength="372" x="93" y="1970.7407">Time Domain Analysis</text><ellipse cx="279" cy="2225.4463" fill="none" rx="33" ry="33" style="stroke:#222222;stroke-width:3.0;"/><ellipse cx="279" cy="2225.4463" fill="#222222" rx="18" ry="18" style="stroke:#222222;stroke-width:3.0;"/><line style="stroke:#181818;stroke-width:3.0;" x1="279" x2="279" y1="618.0762" y2="949.5879"/><polygon fill="#181818" points="267,919.5879,279,949.5879,291,919.5879,279,931.5879" style="stroke:#181818;stroke-width:3.0;"/><line style="stroke:#181818;stroke-width:3.0;" x1="279" x2="279" y1="268.1836" y2="512.7949"/><polygon fill="#181818" points="267,482.7949,279,512.7949,291,482.7949,279,494.7949" style="stroke:#181818;stroke-width:3.0;"/><line style="stroke:#181818;stroke-width:3.0;" x1="279" x2="279" y1="1054.8691" y2="1439.209"/><polygon fill="#181818" points="267,1409.209,279,1439.209,291,1409.209,279,1421.209" style="stroke:#181818;stroke-width:3.0;"/><line style="stroke:#181818;stroke-width:3.0;" x1="279" x2="279" y1="1544.4902" y2="1903.3696"/><polygon fill="#181818" points="267,1873.3696,279,1903.3696,291,1873.3696,279,1885.3696" style="stroke:#181818;stroke-width:3.0;"/><line style="stroke:#181818;stroke-width:3.0;" x1="279" x2="279" y1="2008.6509" y2="2192.4463"/><polygon fill="#181818" points="267,2162.4463,279,2192.4463,291,2162.4463,279,2174.4463" style="stroke:#181818;stroke-width:3.0;"/><text fill="#888888" font-family="sans-serif" font-size="30" lengthAdjust="spacing" textLength="288" x="873" y="2286.5889">2024.06.07 at 10:11</text><text fill="#888888" font-family="sans-serif" font-size="30" lengthAdjust="spacing" textLength="291" x="871.5" y="2324.3232">aqwa_no_load.puml</text><!--SRC=[pLLTRzem57tFhxX2gafVA87omgf9b9221WbDebMJ9aKcTef7OhUEqmbD- - -xIKjLcj02wiFkGwJuVXsVSsrd4KaOT8rinSKzKIG5pNN2hgIYJ7ao5tGebM0Ap5vzJB3aqKgmB8DEVS1G9bA1OhJY9j7gJZsrA482cH8j3SCelJ2ukHs08s4g2OMVubQgLPp8t-ZFD57QC01DICr0yRkbBdyBSnU_MAJv8-jZHL2vU2cYUSg0OXSkO218iivuLgOnGSjAJpKH8YBWKa33ud6iI5J-R38QyEUbrmu8XLqpP8sWgpN-OG713Yrlv4FC4vPj1SQuzJXNUeaaazUeDhQDhh2-pLMc4IYoxkNYopvu2flob6k6rV9qWTsQbsRx36GCiM8FEHCHVmEjX8U01KcHJJkqEo4rsw4_cSrRb5JhNqQIig-LPNSUJ5p7XslNTM2dTwTZEhOzcDq4DY210OmSgn9QE0PU0602zAgmpgkuQaYrc2QuMNeGfRtseUmDtV-MlGv0ztbjI-mZ6FrREKkZXvmdVA5udXv_bZxl2DN1sLjrNnFDetEyY1POHA_hksuFW8-CJitUs9zvnyW_lvhWnqC9TqljeyhEmBTtHdmy0XSuqcz7e9ZOJnc1eBY0hUqBUCyH45AmZoIjAx-tfFX89CKZWRdMQFWDpEuxMbeX4XPUXBtmM3c7hlEzr0eSzprDFMiqFqosLtDsd6YPblU64KjSKyO9xeqr6skqrcpMelGKY8RJyRYVfeqpusJ3IVFCA0ezP_q3]--></g></svg>