<?xml version="1.0" encoding="us-ascii" standalone="no"?><svg xmlns="http://www.w3.org/2000/svg" xmlns:xlink="http://www.w3.org/1999/xlink" contentStyleType="text/css" height="1509px" preserveAspectRatio="none" style="width:1368px;height:1509px;background:#FFFFFF;" version="1.1" viewBox="0 0 1368 1509" width="1368px" zoomAndPan="magnify"><defs/><g><rect fill="#FF6347" height="82.8281" id="_title" rx="22.5" ry="22.5" style="stroke:#FF0000;stroke-width:6.0;" width="234" x="563.25" y="45"/><text fill="#000000" font-family="sans-serif" font-size="42" font-weight="bold" lengthAdjust="spacing" textLength="204" x="578.25" y="103.5996">Geometry</text><path d="M427.5,145.8281 L427.5,197.8828 L367.5,209.8828 L427.5,221.8828 L427.5,273.9375 A0,0 0 0 0 427.5,273.9375 L1288.5,273.9375 A0,0 0 0 0 1288.5,273.9375 L1288.5,175.8281 L1258.5,145.8281 L427.5,145.8281 A0,0 0 0 0 427.5,145.8281 " fill="#FEFFDD" style="stroke:#181818;stroke-width:1.5;"/><path d="M1258.5,145.8281 L1258.5,175.8281 L1288.5,175.8281 L1258.5,145.8281 " fill="#FEFFDD" style="stroke:#181818;stroke-width:1.5;"/><text fill="#000000" font-family="sans-serif" font-size="39" lengthAdjust="spacing" textLength="693" x="445.5" y="201.3135">Objective: modular file management and</text><text fill="#000000" font-family="sans-serif" font-size="39" lengthAdjust="spacing" textLength="798" x="445.5" y="250.3682">analysis for easy updates/maintenance/reruns</text><ellipse cx="337.5" cy="209.8828" fill="#222222" rx="30" ry="30" style="stroke:#222222;stroke-width:3.0;"/><rect fill="none" height="254.1094" style="stroke:#000000;stroke-width:4.5;" width="819" x="156" y="303.9375"/><path d="M465,303.9375 L465,335.7656 L435,365.7656 L156,365.7656 " fill="none" style="stroke:#000000;stroke-width:4.5;"/><text fill="#000000" font-family="sans-serif" font-size="42" lengthAdjust="spacing" textLength="279" x="165" y="350.5371">Raw Geometry</text><path d="M549,429.8789 L549,457.4063 L489,469.4063 L549,481.4063 L549,508.9336 A0,0 0 0 0 549,508.9336 L945,508.9336 A0,0 0 0 0 945,508.9336 L945,459.8789 L915,429.8789 L549,429.8789 A0,0 0 0 0 549,429.8789 " fill="#FEFFDD" style="stroke:#181818;stroke-width:1.5;"/><path d="M915,429.8789 L915,459.8789 L945,459.8789 L915,429.8789 " fill="#FEFFDD" style="stroke:#181818;stroke-width:1.5;"/><text fill="#000000" font-family="sans-serif" font-size="39" lengthAdjust="spacing" textLength="333" x="567" y="485.3643">Get Raw Geometry</text><rect fill="#F1F1F1" height="105.2813" rx="37.5" ry="37.5" style="stroke:#181818;stroke-width:1.5;" width="303" x="186" y="416.7656"/><text fill="#000000" font-family="sans-serif" font-size="36" lengthAdjust="spacing" textLength="243" x="216" y="484.1367">Raw Geometry</text><rect fill="none" height="684.6094" style="stroke:#000000;stroke-width:4.5;" width="1303.5" x="33" y="588.0469"/><path d="M333,588.0469 L333,619.875 L303,649.875 L33,649.875 " fill="none" style="stroke:#000000;stroke-width:4.5;"/><text fill="#000000" font-family="sans-serif" font-size="42" lengthAdjust="spacing" textLength="270" x="42" y="634.6465">Edit Geometry</text><path d="M661.5,679.875 L661.5,780.9844 L601.5,792.9844 L661.5,804.9844 L661.5,906.0938 A0,0 0 0 0 661.5,906.0938 L1306.5,906.0938 A0,0 0 0 0 1306.5,906.0938 L1306.5,709.875 L1276.5,679.875 L661.5,679.875 A0,0 0 0 0 661.5,679.875 " fill="#FEFFDD" style="stroke:#181818;stroke-width:1.5;"/><path d="M1276.5,679.875 L1276.5,709.875 L1306.5,709.875 L1276.5,679.875 " fill="#FEFFDD" style="stroke:#181818;stroke-width:1.5;"/><text fill="#000000" font-family="sans-serif" font-size="39" lengthAdjust="spacing" textLength="582" x="679.5" y="735.3604">Modify to surface body for AQWA</text><text fill="#000000" font-family="sans-serif" font-size="39" lengthAdjust="spacing" textLength="315" x="679.5" y="784.415">- Use SpaceCliam</text><text fill="#000000" font-family="sans-serif" font-size="39" lengthAdjust="spacing" textLength="525" x="679.5" y="833.4697">- copy the necessary surfaces</text><text fill="#000000" font-family="sans-serif" font-size="39" lengthAdjust="spacing" textLength="12" x="679.5" y="882.5244">-</text><rect fill="#F1F1F1" height="105.2813" rx="37.5" ry="37.5" style="stroke:#181818;stroke-width:1.5;" width="528" x="73.5" y="740.3438"/><text fill="#000000" font-family="sans-serif" font-size="36" lengthAdjust="spacing" textLength="468" x="103.5" y="807.7148">Convert to Surface Geometry</text><path d="M672,979.207 L672,1006.7344 L612,1018.7344 L672,1030.7344 L672,1058.2617 A0,0 0 0 0 672,1058.2617 L1149,1058.2617 A0,0 0 0 0 1149,1058.2617 L1149,1009.207 L1119,979.207 L672,979.207 A0,0 0 0 0 672,979.207 " fill="#FEFFDD" style="stroke:#181818;stroke-width:1.5;"/><path d="M1119,979.207 L1119,1009.207 L1149,1009.207 L1119,979.207 " fill="#FEFFDD" style="stroke:#181818;stroke-width:1.5;"/><text fill="#000000" font-family="sans-serif" font-size="39" lengthAdjust="spacing" textLength="414" x="690" y="1034.6924">All lines, 3D bodies etc.</text><rect fill="#F1F1F1" height="105.2813" rx="37.5" ry="37.5" style="stroke:#181818;stroke-width:1.5;" width="549" x="63" y="966.0938"/><text fill="#000000" font-family="sans-serif" font-size="36" lengthAdjust="spacing" textLength="489" x="93" y="1033.4648">Delete Unwanted Geometries</text><path d="M586.5,1144.4883 L586.5,1172.0156 L526.5,1184.0156 L586.5,1196.0156 L586.5,1223.543 A0,0 0 0 0 586.5,1223.543 L1231.5,1223.543 A0,0 0 0 0 1231.5,1223.543 L1231.5,1174.4883 L1201.5,1144.4883 L586.5,1144.4883 A0,0 0 0 0 586.5,1144.4883 " fill="#FEFFDD" style="stroke:#181818;stroke-width:1.5;"/><path d="M1201.5,1144.4883 L1201.5,1174.4883 L1231.5,1174.4883 L1201.5,1144.4883 " fill="#FEFFDD" style="stroke:#181818;stroke-width:1.5;"/><text fill="#000000" font-family="sans-serif" font-size="39" lengthAdjust="spacing" textLength="582" x="604.5" y="1199.9736">Modify to surface body for AQWA</text><rect fill="#F1F1F1" height="105.2813" rx="37.5" ry="37.5" style="stroke:#181818;stroke-width:1.5;" width="378" x="148.5" y="1131.375"/><text fill="#000000" font-family="sans-serif" font-size="36" lengthAdjust="spacing" textLength="309" x="178.5" y="1198.7461">Move Hull to define</text><ellipse cx="337.5" cy="1365.6563" fill="none" rx="33" ry="33" style="stroke:#222222;stroke-width:3.0;"/><ellipse cx="337.5" cy="1365.6563" fill="#222222" rx="18" ry="18" style="stroke:#222222;stroke-width:3.0;"/><line style="stroke:#181818;stroke-width:3.0;" x1="337.5" x2="337.5" y1="239.8828" y2="416.7656"/><polygon fill="#181818" points="325.5,386.7656,337.5,416.7656,349.5,386.7656,337.5,398.7656" style="stroke:#181818;stroke-width:3.0;"/><line style="stroke:#181818;stroke-width:3.0;" x1="337.5" x2="337.5" y1="845.625" y2="966.0938"/><polygon fill="#181818" points="325.5,936.0938,337.5,966.0938,349.5,936.0938,337.5,948.0938" style="stroke:#181818;stroke-width:3.0;"/><line style="stroke:#181818;stroke-width:3.0;" x1="337.5" x2="337.5" y1="1071.375" y2="1131.375"/><polygon fill="#181818" points="325.5,1101.375,337.5,1131.375,349.5,1101.375,337.5,1113.375" style="stroke:#181818;stroke-width:3.0;"/><line style="stroke:#181818;stroke-width:3.0;" x1="337.5" x2="337.5" y1="522.0469" y2="740.3438"/><polygon fill="#181818" points="325.5,710.3438,337.5,740.3438,349.5,710.3438,337.5,722.3438" style="stroke:#181818;stroke-width:3.0;"/><line style="stroke:#181818;stroke-width:3.0;" x1="337.5" x2="337.5" y1="1236.6563" y2="1332.6563"/><polygon fill="#181818" points="325.5,1302.6563,337.5,1332.6563,349.5,1302.6563,337.5,1314.6563" style="stroke:#181818;stroke-width:3.0;"/><text fill="#888888" font-family="sans-serif" font-size="30" lengthAdjust="spacing" textLength="288" x="536.25" y="1426.7988">2024.04.03 at 11:41</text><text fill="#888888" font-family="sans-serif" font-size="30" lengthAdjust="spacing" textLength="348" x="506.25" y="1464.5332">geometry_creation.puml</text><!--SRC=[jLFBRXin3BphAmW3GHAWTT06lRWdrodYYr4q3-JCI5nRjIGkAAs3HT5_BxM9tGHs-ZYKDuapd255POk1uDpajKyj2aOelWJwnE98hhXBRiQIIE3TXyEOcvMtwqGvm_l3W1a75X1oUscqwwKyIbJ83KSiRCoGX4lYI4LwOt91ASQ0Hk9287wvAiEnnfVxRsIBtz048hike43ZbHynuP8YfGAO7EpmUXtwx3CqAacOU-XQXuNoMKIV2YLCbiw4f4jv896og-wZ0_Ml_Zmd65tXmyxb2BwRdSJaUURZxlgL1hPnIGMU4ry0NfhuiUVbi_Fb5JCpJXkI0eNXkfC6BVsxjmKxt_IrH7ugSS-k7qOu_NettSE_XTjCSDqgSXQyFlW1XELMAwu84bbT7vH-MpmVGFzc6aEN5nH8xT-c1zH7TDiMFUM_Rd8Q0WIlg_m6pYzgWqe6AdRy9-q5RmZcdT9rG8uQhG7_PRI_jBThK7y7jyOqhDTYZkecdunwZV5YCNRk6B30yNm-YN5qQexgpqWOwUJKr5fFh9y0]--></g></svg>