<?xml version="1.0" encoding="us-ascii" standalone="no"?><svg xmlns="http://www.w3.org/2000/svg" xmlns:xlink="http://www.w3.org/1999/xlink" contentStyleType="text/css" height="1076px" preserveAspectRatio="none" style="width:2152px;height:1076px;background:#FFFFFF;" version="1.1" viewBox="0 0 2152 1076" width="2152px" zoomAndPan="magnify"><defs/><g><rect fill="#FF6347" height="90.4375" id="_title" rx="15" ry="15" style="stroke:#FF0000;stroke-width:4.0;" width="346" x="889.5" y="10"/><text fill="#000000" font-family="sans-serif" font-size="28" font-weight="bold" lengthAdjust="spacing" textLength="318" x="899.5" y="49.0664">Global Motion Analysis</text><text fill="#000000" font-family="sans-serif" font-size="28" font-weight="bold" lengthAdjust="spacing" textLength="284" x="920.5" y="84.2852">Model Development</text><!--cluster Geometries--><g id="cluster_Geometries"><path d="M149,124.4375 L315,124.4375 A7.5,7.5 0 0 1 320,129.4375 L334,171.6563 L1257,171.6563 A5,5 0 0 1 1262,176.6563 L1262,353.4375 A5,5 0 0 1 1257,358.4375 L149,358.4375 A5,5 0 0 1 144,353.4375 L144,129.4375 A5,5 0 0 1 149,124.4375 " fill="none" style="stroke:#000000;stroke-width:3.0;"/><line style="stroke:#000000;stroke-width:3.0;" x1="144" x2="334" y1="171.6563" y2="171.6563"/><text fill="#000000" font-family="sans-serif" font-size="28" font-weight="bold" lengthAdjust="spacing" textLength="164" x="152" y="157.5039">Geometries</text></g><!--cluster md--><g id="cluster_md"><path d="M17,406.4375 L177,406.4375 A7.5,7.5 0 0 1 182,411.4375 L196,453.6563 L1567,453.6563 A5,5 0 0 1 1572,458.6563 L1572,721.4375 A5,5 0 0 1 1567,726.4375 L17,726.4375 A5,5 0 0 1 12,721.4375 L12,411.4375 A5,5 0 0 1 17,406.4375 " fill="none" style="stroke:#000000;stroke-width:3.0;"/><line style="stroke:#000000;stroke-width:3.0;" x1="12" x2="196" y1="453.6563" y2="453.6563"/><text fill="#000000" font-family="sans-serif" font-size="28" font-weight="bold" lengthAdjust="spacing" textLength="158" x="20" y="439.5039">Model Data</text></g><!--entity FST_Gometries--><g id="elem_FST_Gometries"><rect fill="#FF6347" height="130.4375" rx="15" ry="15" style="stroke:#FF0000;stroke-width:4.0;" width="330" x="385" y="196.4375"/><rect fill="#FF6347" height="20" style="stroke:#FF0000;stroke-width:4.0;" width="30" x="675" y="206.4375"/><rect fill="#FF6347" height="4" style="stroke:#FF0000;stroke-width:4.0;" width="8" x="671" y="210.4375"/><rect fill="#FF6347" height="4" style="stroke:#FF0000;stroke-width:4.0;" width="8" x="671" y="218.4375"/><text fill="#000000" font-family="sans-serif" font-size="28" font-weight="bold" lengthAdjust="spacing" textLength="196" x="415" y="265.5039">FST Geometry</text><text fill="#000000" font-family="sans-serif" font-size="28" lengthAdjust="spacing" textLength="8" x="611" y="265.5039">&#160;</text><text fill="#000000" font-family="sans-serif" font-size="28" lengthAdjust="spacing" textLength="250" x="415" y="300.7227">Light, Full, 90% etc.</text></g><!--entity LNG--><g id="elem_LNG"><rect fill="#FF6347" height="95.2188" rx="15" ry="15" style="stroke:#FF0000;stroke-width:4.0;" width="138" x="177" y="213.4375"/><rect fill="#FF6347" height="20" style="stroke:#FF0000;stroke-width:4.0;" width="30" x="275" y="223.4375"/><rect fill="#FF6347" height="4" style="stroke:#FF0000;stroke-width:4.0;" width="8" x="271" y="227.4375"/><rect fill="#FF6347" height="4" style="stroke:#FF0000;stroke-width:4.0;" width="8" x="271" y="235.4375"/><text fill="#000000" font-family="sans-serif" font-size="28" font-weight="bold" lengthAdjust="spacing" textLength="58" x="207" y="282.5039">LNG</text></g><!--entity Other_Structures--><g id="elem_Other_Structures"><rect fill="#FF6347" height="130.4375" rx="15" ry="15" style="stroke:#FF0000;stroke-width:4.0;" width="444" x="786" y="196.4375"/><rect fill="#FF6347" height="20" style="stroke:#FF0000;stroke-width:4.0;" width="30" x="1190" y="206.4375"/><rect fill="#FF6347" height="4" style="stroke:#FF0000;stroke-width:4.0;" width="8" x="1186" y="210.4375"/><rect fill="#FF6347" height="4" style="stroke:#FF0000;stroke-width:4.0;" width="8" x="1186" y="218.4375"/><text fill="#000000" font-family="sans-serif" font-size="28" font-weight="bold" lengthAdjust="spacing" textLength="236" x="816" y="265.5039">Other Structures</text><text fill="#000000" font-family="sans-serif" font-size="28" lengthAdjust="spacing" textLength="8" x="1052" y="265.5039">&#160;</text><text fill="#000000" font-family="sans-serif" font-size="28" lengthAdjust="spacing" textLength="364" x="816" y="300.7227">Struts, Dampener, Jacket etc</text></g><!--entity FST_model_data--><g id="elem_FST_model_data"><rect fill="#FF6347" height="216.0938" rx="15" ry="15" style="stroke:#FF0000;stroke-width:4.0;" width="412" x="44" y="478.4375"/><text fill="#000000" font-family="sans-serif" font-size="28" font-weight="bold" lengthAdjust="spacing" textLength="134" x="64" y="527.5039">FSTs/LNG</text><text fill="#000000" font-family="sans-serif" font-size="28" lengthAdjust="spacing" textLength="8" x="198" y="527.5039">&#160;</text><text fill="#000000" font-family="sans-serif" font-size="28" lengthAdjust="spacing" textLength="356" x="72" y="562.7227">Wave 1st order Load RAOs,</text><text fill="#000000" font-family="sans-serif" font-size="28" lengthAdjust="spacing" textLength="330" x="72" y="597.9414">Wave 2nd order drift load,</text><text fill="#000000" font-family="sans-serif" font-size="28" lengthAdjust="spacing" textLength="218" x="64" y="633.1602">Wind load coeffs,</text><text fill="#000000" font-family="sans-serif" font-size="28" lengthAdjust="spacing" textLength="242" x="64" y="668.3789">Current load coeffs</text></g><!--entity Strut--><g id="elem_Strut"><rect fill="#FF6347" height="110.4375" rx="15" ry="15" style="stroke:#FF0000;stroke-width:4.0;" width="254" x="877" y="531.4375"/><text fill="#000000" font-family="sans-serif" font-size="28" font-weight="bold" lengthAdjust="spacing" textLength="68" x="897" y="580.5039">Strut</text><text fill="#000000" font-family="sans-serif" font-size="28" lengthAdjust="spacing" textLength="8" x="965" y="580.5039">&#160;</text><text fill="#000000" font-family="sans-serif" font-size="28" lengthAdjust="spacing" textLength="206" x="905" y="615.7227">Using a rigid link</text></g><!--entity Jacket--><g id="elem_Jacket"><rect fill="#FF6347" height="110.4375" rx="15" ry="15" style="stroke:#FF0000;stroke-width:4.0;" width="280" x="526" y="531.4375"/><text fill="#000000" font-family="sans-serif" font-size="28" font-weight="bold" lengthAdjust="spacing" textLength="92" x="546" y="580.5039">Jacket</text><text fill="#000000" font-family="sans-serif" font-size="28" lengthAdjust="spacing" textLength="8" x="638" y="580.5039">&#160;</text><text fill="#000000" font-family="sans-serif" font-size="28" lengthAdjust="spacing" textLength="232" x="554" y="615.7227">As Fixed Structure</text></g><!--entity Dampener--><g id="elem_Dampener"><rect fill="#FF6347" height="110.4375" rx="15" ry="15" style="stroke:#FF0000;stroke-width:4.0;" width="338" x="1201" y="531.4375"/><text fill="#000000" font-family="sans-serif" font-size="28" font-weight="bold" lengthAdjust="spacing" textLength="144" x="1221" y="580.5039">Dampener</text><text fill="#000000" font-family="sans-serif" font-size="28" lengthAdjust="spacing" textLength="8" x="1365" y="580.5039">&#160;</text><text fill="#000000" font-family="sans-serif" font-size="28" lengthAdjust="spacing" textLength="290" x="1229" y="615.7227">Using non-linear Curve</text></g><g id="elem_GMN6"><path d="M1609,494.4375 L1609,677.9531 L2139,677.9531 L2139,514.4375 L2119,494.4375 L1609,494.4375 " fill="#FEFFDD" style="stroke:#181818;stroke-width:1.0;"/><path d="M2119,494.4375 L2119,514.4375 L2139,514.4375 L2119,494.4375 " fill="#FEFFDD" style="stroke:#181818;stroke-width:2.0;"/><text fill="#000000" font-family="sans-serif" font-size="26" lengthAdjust="spacing" textLength="76" x="1621" y="531.4277">Notes:</text><text fill="#000000" font-family="sans-serif" font-size="26" lengthAdjust="spacing" textLength="362" x="1653" y="564.1309">1a/ FST1 and FST2 geometries</text><text fill="#000000" font-family="sans-serif" font-size="26" lengthAdjust="spacing" textLength="188" x="1653" y="596.834">1b/ 2 LNG sizes</text><text fill="#000000" font-family="sans-serif" font-size="26" lengthAdjust="spacing" textLength="456" x="1653" y="629.5371">1c/ Other structures, Fixed objects etc.</text><text fill="#000000" font-family="sans-serif" font-size="26" lengthAdjust="spacing" textLength="302" x="1653" y="662.2402">1d/ Marine growth weight?</text></g><g id="elem_GMN14"><path d="M881,814.4375 L881,997.9531 A0,0 0 0 0 881,997.9531 L1859,997.9531 A0,0 0 0 0 1859,997.9531 L1859,834.4375 L1839,814.4375 L1378,814.4375 L1370,642.0375 L1362,814.4375 L881,814.4375 A0,0 0 0 0 881,814.4375 " fill="#FEFFDD" style="stroke:#181818;stroke-width:1.0;"/><path d="M1839,814.4375 L1839,834.4375 L1859,834.4375 L1839,814.4375 " fill="#FEFFDD" style="stroke:#181818;stroke-width:1.0;"/><text fill="#000000" font-family="sans-serif" font-size="26" lengthAdjust="spacing" textLength="8" x="893" y="851.4277">&#160;</text><text fill="#000000" font-family="sans-serif" font-size="26" lengthAdjust="spacing" textLength="76" x="893" y="884.1309">Notes:</text><text fill="#000000" font-family="sans-serif" font-size="26" lengthAdjust="spacing" textLength="904" x="925" y="916.834">1a/ Design data spreadsheet to drive key dimensions, weights and parameters</text><text fill="#000000" font-family="sans-serif" font-size="26" lengthAdjust="spacing" textLength="232" x="925" y="949.5371">1b/ Key coordinates</text><text fill="#000000" font-family="sans-serif" font-size="26" lengthAdjust="spacing" textLength="452" x="925" y="982.2402">1c/ Key inputs for both all analysis etc.</text></g><!--link Other_Structures to GMN6--><g id="link_Other_Structures_GMN6"><path d="M1230.44,295.0175 C1336.56,314.6975 1463.66,345.1175 1572,390.4375 C1636.1,417.2575 1701.66,457.5175 1755.24,494.4175 " fill="none" id="Other_Structures-GMN6" style="stroke:#181818;stroke-width:2.0;stroke-dasharray:7.0,7.0;"/></g><!--link FST_Gometries to FST_model_data--><g id="link_FST_Gometries_FST_model_data"><path d="M490.72,326.8575 C450.44,369.9775 404.3353,419.3118 357.4953,469.4118 " fill="none" id="FST_Gometries-to-FST_model_data" style="stroke:#181818;stroke-width:2.0;"/><polygon fill="#181818" points="349.3,478.1775,367.4367,470.4925,356.1294,470.8728,355.7492,459.5655,349.3,478.1775" style="stroke:#181818;stroke-width:2.0;"/></g><!--link LNG to FST_model_data--><g id="link_LNG_FST_model_data"><path d="M246.58,310.1175 C247.12,353.9375 247.8081,409.0785 248.5281,465.9585 " fill="none" id="LNG-to-FST_model_data" style="stroke:#181818;stroke-width:2.0;"/><polygon fill="#181818" points="248.68,477.9575,256.4515,459.8577,248.5534,467.9583,240.4528,460.0602,248.68,477.9575" style="stroke:#181818;stroke-width:2.0;"/></g><!--link Other_Structures to Strut--><g id="link_Other_Structures_Strut"><path d="M1007.2,326.8575 C1006.46,386.5975 1005.5096,463.0984 1004.8096,519.2584 " fill="none" id="Other_Structures-to-Strut" style="stroke:#181818;stroke-width:2.0;"/><polygon fill="#181818" points="1004.66,531.2575,1012.8837,513.3586,1004.7846,521.2583,996.885,513.1592,1004.66,531.2575" style="stroke:#181818;stroke-width:2.0;"/></g><!--link Other_Structures to Dampener--><g id="link_Other_Structures_Dampener"><path d="M1089.44,326.7775 C1114.36,346.7175 1141.62,369.1175 1166,390.4375 C1218.6,436.4575 1267.5305,483.1973 1308.0305,522.8973 " fill="none" id="Other_Structures-to-Dampener" style="stroke:#181818;stroke-width:2.0;"/><polygon fill="#181818" points="1316.6,531.2975,1309.3459,512.9842,1309.4588,524.2973,1298.1456,524.4102,1316.6,531.2975" style="stroke:#181818;stroke-width:2.0;"/></g><!--link Other_Structures to Jacket--><g id="link_Other_Structures_Jacket"><path d="M919.44,326.4975 C893.7,346.0775 866.04,368.3375 842,390.4375 C793.8,434.7575 751.9009,481.445 717.6609,521.825 " fill="none" id="Other_Structures-to-Jacket" style="stroke:#181818;stroke-width:2.0;"/><polygon fill="#181818" points="709.9,530.9775,727.643,522.4226,716.3674,523.3504,715.4396,512.0748,709.9,530.9775" style="stroke:#181818;stroke-width:2.0;"/></g><text fill="#888888" font-family="sans-serif" font-size="20" lengthAdjust="spacing" textLength="192" x="966.5" y="1030.7148">2024.03.27 at 13:15</text><text fill="#888888" font-family="sans-serif" font-size="20" lengthAdjust="spacing" textLength="336" x="894.5" y="1055.8711">global_analysis_methodology.puml</text><!--SRC=[TLJ1JXin4BtxAqQH410bf8dKGpcqeY10BG49gBXKGivwid7ZzKJs11gg_dl7tYIRf6HFktxpPiRlpMmij4COg3YrVgQ3he0jE_nAmM2ufxatvnGy1kX_V3_cSMABgSSOzoKv9qS10fh_O5rCor2NI26FL6acfLH6uShHI3iO4bloSEQrMqGRuQSVaa475_Y2ZcOLUXQAcaaoNGeBgK8E5YFyKGLLC_8I0Qrs-_BXSOKksct9SsFB2NVWSkvS1pvzE03augG5EeA4Fb-jycndkRczQhTpaBnjGtSy4PqUECmBdWUCkKZwvDY12rtDK7Jim3Vf53aLosaowxbXAVLNAK-CC29cgXJ8SolVyJI_fgUlUwd7FcXlqii0olMrcw1H3mQfIuZsRVEywDL58QwBYWhsDngWqIyiE6Ob6eBfmL07wn74hbUUm2icwRuebFAfrKR-rj8SpJhVhZ9YWm1h2s8lAoZAm9D-GUX7XZmcS4FQmFtPdJIp0WUIlmPDi6C69o49VR82f0ye2CVZp3YVXv3AR1ollQnIKyz6ccfwoSRKZVo8rfUW8TZIIbxhfvcP8nf2xLlDE8jBmTQ-PKOTqb1Mfc-MyUIxKW9r06dvfIQk0dUztsV-1KPRUaWtWZWBg4sSe0mLKr9Ab9lY0eoLvOYoFA9FxLZC0vDN41d3zgny5qf18hVrcdVc9M6okpB9C9PDbUuce9sJTCkjp0FJZCFM0a6t-tdNXZIMxnplBaEEoJx0-zXAk3tmSjVa_p0cQIoe0oc3Hws5F2V3uOanXw0P3g-lJwkgTQmEnjQX5tMEZlDjbgn_]--></g></svg>