<?xml version="1.0" encoding="UTF-8" standalone="no"?><svg xmlns="http://www.w3.org/2000/svg" xmlns:xlink="http://www.w3.org/1999/xlink" contentStyleType="text/css" height="632px" preserveAspectRatio="none" style="width:2051px;height:632px;background:#FFFFFF;" version="1.1" viewBox="0 0 2051 632" width="2051px" zoomAndPan="magnify"><defs/><g><line style="stroke:#181818;stroke-width:1.5;" x1="32.5" x2="32.5" y1="65.0938" y2="85.0938"/><rect fill="#F1F1F1" height="35.0938" style="stroke:#181818;stroke-width:1.5;" width="45" x="10" y="85.0938"/><text fill="#000000" font-family="sans-serif" font-size="12" lengthAdjust="spacing" textLength="25" x="20" y="107.5508">URL</text><line style="stroke:#181818;stroke-width:1.5;" x1="32.5" x2="42.5" y1="152.7344" y2="152.7344"/><rect fill="#F1F1F1" height="35.0938" style="stroke:#181818;stroke-width:1.5;" width="66" x="42.5" y="135.1875"/><text fill="#000000" font-family="sans-serif" font-size="12" lengthAdjust="spacing" textLength="46" x="52.5" y="157.6445">Address</text><line style="stroke:#181818;stroke-width:1.5;" x1="32.5" x2="42.5" y1="202.8281" y2="202.8281"/><rect fill="#F1F1F1" height="35.0938" style="stroke:#181818;stroke-width:1.5;" width="107" x="42.5" y="185.2813"/><text fill="#000000" font-family="sans-serif" font-size="12" lengthAdjust="spacing" textLength="87" x="52.5" y="207.7383">Consistent NAP</text><line style="stroke:#181818;stroke-width:1.5;" x1="32.5" x2="32.5" y1="120.1875" y2="202.8281"/><line style="stroke:#181818;stroke-width:1.5;" x1="208.5" x2="208.5" y1="65.0938" y2="85.0938"/><rect fill="#F1F1F1" height="35.0938" style="stroke:#181818;stroke-width:1.5;" width="78" x="169.5" y="85.0938"/><text fill="#000000" font-family="sans-serif" font-size="12" lengthAdjust="spacing" textLength="58" x="179.5" y="107.5508">Local SEO</text><line style="stroke:#181818;stroke-width:1.5;" x1="208.5" x2="218.5" y1="152.7344" y2="152.7344"/><rect fill="#F1F1F1" height="35.0938" style="stroke:#181818;stroke-width:1.5;" width="183" x="218.5" y="135.1875"/><text fill="#000000" font-family="sans-serif" font-size="12" lengthAdjust="spacing" textLength="163" x="228.5" y="157.6445">Name, Address, Phone (NAP)</text><line style="stroke:#181818;stroke-width:1.5;" x1="310" x2="320" y1="202.8281" y2="202.8281"/><rect fill="#F1F1F1" height="35.0938" style="stroke:#181818;stroke-width:1.5;" width="231" x="320" y="185.2813"/><text fill="#000000" font-family="sans-serif" font-size="12" lengthAdjust="spacing" textLength="211" x="330" y="207.7383">Consistent with Business Registration</text><line style="stroke:#181818;stroke-width:1.5;" x1="310" x2="320" y1="252.9219" y2="252.9219"/><rect fill="#F1F1F1" height="35.0938" style="stroke:#181818;stroke-width:1.5;" width="181" x="320" y="235.375"/><text fill="#000000" font-family="sans-serif" font-size="12" lengthAdjust="spacing" textLength="161" x="330" y="257.832">Consistent with Google Maps</text><line style="stroke:#181818;stroke-width:1.5;" x1="310" x2="310" y1="170.2813" y2="252.9219"/><line style="stroke:#181818;stroke-width:1.5;" x1="208.5" x2="218.5" y1="303.0156" y2="303.0156"/><rect fill="#F1F1F1" height="35.0938" style="stroke:#181818;stroke-width:1.5;" width="146" x="218.5" y="285.4688"/><text fill="#000000" font-family="sans-serif" font-size="12" lengthAdjust="spacing" textLength="126" x="228.5" y="307.9258">Claim on Google Maps</text><line style="stroke:#181818;stroke-width:1.5;" x1="208.5" x2="218.5" y1="353.1094" y2="353.1094"/><rect fill="#F1F1F1" height="35.0938" style="stroke:#181818;stroke-width:1.5;" width="210" x="218.5" y="335.5625"/><text fill="#000000" font-family="sans-serif" font-size="12" lengthAdjust="spacing" textLength="190" x="228.5" y="358.0195">Directories (yelp, Urbanspoon etc.)</text><line style="stroke:#181818;stroke-width:1.5;" x1="208.5" x2="218.5" y1="403.2031" y2="403.2031"/><rect fill="#F1F1F1" height="35.0938" style="stroke:#181818;stroke-width:1.5;" width="143" x="218.5" y="385.6563"/><text fill="#000000" font-family="sans-serif" font-size="12" lengthAdjust="spacing" textLength="123" x="228.5" y="408.1133">Reviews and Citations</text><line style="stroke:#181818;stroke-width:1.5;" x1="290" x2="300" y1="453.2969" y2="453.2969"/><rect fill="#F1F1F1" height="35.0938" style="stroke:#181818;stroke-width:1.5;" width="57" x="300" y="435.75"/><text fill="#000000" font-family="sans-serif" font-size="12" lengthAdjust="spacing" textLength="37" x="310" y="458.207">Quality</text><line style="stroke:#181818;stroke-width:1.5;" x1="290" x2="300" y1="503.3906" y2="503.3906"/><rect fill="#F1F1F1" height="35.0938" style="stroke:#181818;stroke-width:1.5;" width="127" x="300" y="485.8438"/><text fill="#000000" font-family="sans-serif" font-size="12" lengthAdjust="spacing" textLength="107" x="310" y="508.3008">Quantity (typ. &gt; 100)</text><line style="stroke:#181818;stroke-width:1.5;" x1="290" x2="290" y1="420.75" y2="503.3906"/><line style="stroke:#181818;stroke-width:1.5;" x1="208.5" x2="218.5" y1="553.4844" y2="553.4844"/><rect fill="#F1F1F1" height="35.0938" style="stroke:#181818;stroke-width:1.5;" width="94" x="218.5" y="535.9375"/><text fill="#000000" font-family="sans-serif" font-size="12" lengthAdjust="spacing" textLength="74" x="228.5" y="558.3945">Inbound links</text><line style="stroke:#181818;stroke-width:1.5;" x1="208.5" x2="218.5" y1="603.5781" y2="603.5781"/><rect fill="#F1F1F1" height="35.0938" style="stroke:#181818;stroke-width:1.5;" width="102" x="218.5" y="586.0313"/><text fill="#000000" font-family="sans-serif" font-size="12" lengthAdjust="spacing" textLength="82" x="228.5" y="608.4883">Google Photos</text><line style="stroke:#181818;stroke-width:1.5;" x1="208.5" x2="208.5" y1="120.1875" y2="603.5781"/><line style="stroke:#181818;stroke-width:1.5;" x1="605.5" x2="605.5" y1="65.0938" y2="85.0938"/><rect fill="#F1F1F1" height="35.0938" style="stroke:#181818;stroke-width:1.5;" width="69" x="571" y="85.0938"/><text fill="#000000" font-family="sans-serif" font-size="12" lengthAdjust="spacing" textLength="49" x="581" y="107.5508">Structure</text><line style="stroke:#181818;stroke-width:1.5;" x1="605.5" x2="615.5" y1="152.7344" y2="152.7344"/><rect fill="#F1F1F1" height="35.0938" style="stroke:#181818;stroke-width:1.5;" width="222" x="615.5" y="135.1875"/><text fill="#000000" font-family="sans-serif" font-size="12" lengthAdjust="spacing" textLength="202" x="625.5" y="157.6445">Unique url, page title, description, H1</text><line style="stroke:#181818;stroke-width:1.5;" x1="605.5" x2="615.5" y1="202.8281" y2="202.8281"/><rect fill="#F1F1F1" height="35.0938" style="stroke:#181818;stroke-width:1.5;" width="241" x="615.5" y="185.2813"/><text fill="#000000" font-family="sans-serif" font-size="12" lengthAdjust="spacing" textLength="221" x="625.5" y="207.7383">Page title (clear &amp; simple with keywords)</text><line style="stroke:#181818;stroke-width:1.5;" x1="605.5" x2="615.5" y1="252.9219" y2="252.9219"/><rect fill="#F1F1F1" height="35.0938" style="stroke:#181818;stroke-width:1.5;" width="353" x="615.5" y="235.375"/><text fill="#000000" font-family="sans-serif" font-size="12" lengthAdjust="spacing" textLength="333" x="625.5" y="257.832">H1 (short, clear, concise, active voice, describe page content)</text><line style="stroke:#181818;stroke-width:1.5;" x1="605.5" x2="615.5" y1="303.0156" y2="303.0156"/><rect fill="#F1F1F1" height="35.0938" style="stroke:#181818;stroke-width:1.5;" width="83" x="615.5" y="285.4688"/><text fill="#000000" font-family="sans-serif" font-size="12" lengthAdjust="spacing" textLength="63" x="625.5" y="307.9258">Description</text><line style="stroke:#181818;stroke-width:1.5;" x1="605.5" x2="615.5" y1="353.1094" y2="353.1094"/><rect fill="#F1F1F1" height="35.0938" style="stroke:#181818;stroke-width:1.5;" width="189" x="615.5" y="335.5625"/><text fill="#000000" font-family="sans-serif" font-size="12" lengthAdjust="spacing" textLength="169" x="625.5" y="358.0195">Content Heirarchy (H2, H3 etc.)</text><line style="stroke:#181818;stroke-width:1.5;" x1="605.5" x2="615.5" y1="403.2031" y2="403.2031"/><rect fill="#F1F1F1" height="35.0938" style="stroke:#181818;stroke-width:1.5;" width="144" x="615.5" y="385.6563"/><text fill="#000000" font-family="sans-serif" font-size="12" lengthAdjust="spacing" textLength="124" x="625.5" y="408.1133">Paragraphs vs. Bullets</text><line style="stroke:#181818;stroke-width:1.5;" x1="605.5" x2="605.5" y1="120.1875" y2="403.2031"/><line style="stroke:#181818;stroke-width:1.5;" x1="1019.5" x2="1019.5" y1="65.0938" y2="85.0938"/><rect fill="#F1F1F1" height="35.0938" style="stroke:#181818;stroke-width:1.5;" width="62" x="988.5" y="85.0938"/><text fill="#000000" font-family="sans-serif" font-size="12" lengthAdjust="spacing" textLength="42" x="998.5" y="107.5508">Images</text><line style="stroke:#181818;stroke-width:1.5;" x1="1102" x2="1102" y1="65.0938" y2="85.0938"/><rect fill="#F1F1F1" height="35.0938" style="stroke:#181818;stroke-width:1.5;" width="63" x="1070.5" y="85.0938"/><text fill="#000000" font-family="sans-serif" font-size="12" lengthAdjust="spacing" textLength="43" x="1080.5" y="107.5508">Content</text><line style="stroke:#181818;stroke-width:1.5;" x1="1102" x2="1112" y1="152.7344" y2="152.7344"/><rect fill="#F1F1F1" height="35.0938" style="stroke:#181818;stroke-width:1.5;" width="130" x="1112" y="135.1875"/><text fill="#000000" font-family="sans-serif" font-size="12" lengthAdjust="spacing" textLength="110" x="1122" y="157.6445">No Keyword Stuffing</text><line style="stroke:#181818;stroke-width:1.5;" x1="1102" x2="1112" y1="202.8281" y2="202.8281"/><rect fill="#F1F1F1" height="35.0938" style="stroke:#181818;stroke-width:1.5;" width="205" x="1112" y="185.2813"/><text fill="#000000" font-family="sans-serif" font-size="12" lengthAdjust="spacing" textLength="185" x="1122" y="207.7383">No Cloaking (i.e. Doorway) Pages</text><line style="stroke:#181818;stroke-width:1.5;" x1="1102" x2="1112" y1="252.9219" y2="252.9219"/><rect fill="#F1F1F1" height="35.0938" style="stroke:#181818;stroke-width:1.5;" width="100" x="1112" y="235.375"/><text fill="#000000" font-family="sans-serif" font-size="12" lengthAdjust="spacing" textLength="80" x="1122" y="257.832">No Hidden text</text><line style="stroke:#181818;stroke-width:1.5;" x1="1102" x2="1112" y1="303.0156" y2="303.0156"/><rect fill="#F1F1F1" height="35.0938" style="stroke:#181818;stroke-width:1.5;" width="128" x="1112" y="285.4688"/><text fill="#000000" font-family="sans-serif" font-size="12" lengthAdjust="spacing" textLength="108" x="1122" y="307.9258">Content Duplication</text><line style="stroke:#181818;stroke-width:1.5;" x1="1102" x2="1112" y1="353.1094" y2="353.1094"/><rect fill="#F1F1F1" height="35.0938" style="stroke:#181818;stroke-width:1.5;" width="136" x="1112" y="335.5625"/><text fill="#000000" font-family="sans-serif" font-size="12" lengthAdjust="spacing" textLength="116" x="1122" y="358.0195">Repetitive anchor text</text><line style="stroke:#181818;stroke-width:1.5;" x1="1102" x2="1112" y1="403.2031" y2="403.2031"/><rect fill="#F1F1F1" height="35.0938" style="stroke:#181818;stroke-width:1.5;" width="213" x="1112" y="385.6563"/><text fill="#000000" font-family="sans-serif" font-size="12" lengthAdjust="spacing" textLength="193" x="1122" y="408.1133">A Page with single search objective</text><line style="stroke:#181818;stroke-width:1.5;" x1="1102" x2="1102" y1="120.1875" y2="403.2031"/><line style="stroke:#181818;stroke-width:1.5;" x1="1414" x2="1414" y1="65.0938" y2="85.0938"/><rect fill="#F1F1F1" height="35.0938" style="stroke:#181818;stroke-width:1.5;" width="138" x="1345" y="85.0938"/><text fill="#000000" font-family="sans-serif" font-size="12" lengthAdjust="spacing" textLength="118" x="1355" y="107.5508">General Compatibility</text><line style="stroke:#181818;stroke-width:1.5;" x1="1414" x2="1424" y1="152.7344" y2="152.7344"/><rect fill="#F1F1F1" height="35.0938" style="stroke:#181818;stroke-width:1.5;" width="124" x="1424" y="135.1875"/><text fill="#000000" font-family="sans-serif" font-size="12" lengthAdjust="spacing" textLength="104" x="1434" y="157.6445">Mobile friendliness</text><line style="stroke:#181818;stroke-width:1.5;" x1="1414" x2="1424" y1="202.8281" y2="202.8281"/><rect fill="#F1F1F1" height="35.0938" style="stroke:#181818;stroke-width:1.5;" width="123" x="1424" y="185.2813"/><text fill="#000000" font-family="sans-serif" font-size="12" lengthAdjust="spacing" textLength="103" x="1434" y="207.7383">Page loading  time</text><line style="stroke:#181818;stroke-width:1.5;" x1="1414" x2="1424" y1="252.9219" y2="252.9219"/><rect fill="#F1F1F1" height="35.0938" style="stroke:#181818;stroke-width:1.5;" width="74" x="1424" y="235.375"/><text fill="#000000" font-family="sans-serif" font-size="12" lengthAdjust="spacing" textLength="54" x="1434" y="257.832">Robots.txt</text><line style="stroke:#181818;stroke-width:1.5;" x1="1414" x2="1424" y1="303.0156" y2="303.0156"/><rect fill="#F1F1F1" height="35.0938" style="stroke:#181818;stroke-width:1.5;" width="99" x="1424" y="285.4688"/><text fill="#000000" font-family="sans-serif" font-size="12" lengthAdjust="spacing" textLength="79" x="1434" y="307.9258">XML Sitemaps</text><line style="stroke:#181818;stroke-width:1.5;" x1="1414" x2="1414" y1="120.1875" y2="303.0156"/><line style="stroke:#181818;stroke-width:1.5;" x1="1593" x2="1593" y1="65.0938" y2="85.0938"/><rect fill="#F1F1F1" height="35.0938" style="stroke:#181818;stroke-width:1.5;" width="50" x="1568" y="85.0938"/><text fill="#000000" font-family="sans-serif" font-size="12" lengthAdjust="spacing" textLength="30" x="1578" y="107.5508">Links</text><line style="stroke:#181818;stroke-width:1.5;" x1="1593" x2="1603" y1="152.7344" y2="152.7344"/><rect fill="#F1F1F1" height="35.0938" style="stroke:#181818;stroke-width:1.5;" width="200" x="1603" y="135.1875"/><text fill="#000000" font-family="sans-serif" font-size="12" lengthAdjust="spacing" textLength="180" x="1613" y="157.6445">Practical (context) outbound links</text><line style="stroke:#181818;stroke-width:1.5;" x1="1593" x2="1603" y1="202.8281" y2="202.8281"/><rect fill="#F1F1F1" height="35.0938" style="stroke:#181818;stroke-width:1.5;" width="94" x="1603" y="185.2813"/><text fill="#000000" font-family="sans-serif" font-size="12" lengthAdjust="spacing" textLength="74" x="1613" y="207.7383">Inbound links</text><line style="stroke:#181818;stroke-width:1.5;" x1="1593" x2="1593" y1="120.1875" y2="202.8281"/><line style="stroke:#181818;stroke-width:1.5;" x1="1872" x2="1872" y1="65.0938" y2="85.0938"/><rect fill="#F1F1F1" height="35.0938" style="stroke:#181818;stroke-width:1.5;" width="98" x="1823" y="85.0938"/><text fill="#000000" font-family="sans-serif" font-size="12" lengthAdjust="spacing" textLength="78" x="1833" y="107.5508">Sanity Checks</text><line style="stroke:#181818;stroke-width:1.5;" x1="1872" x2="1882" y1="152.7344" y2="152.7344"/><rect fill="#F1F1F1" height="35.0938" style="stroke:#181818;stroke-width:1.5;" width="99" x="1882" y="135.1875"/><text fill="#000000" font-family="sans-serif" font-size="12" lengthAdjust="spacing" textLength="79" x="1892" y="157.6445">Hidden Pages</text><line style="stroke:#181818;stroke-width:1.5;" x1="1872" x2="1882" y1="202.8281" y2="202.8281"/><rect fill="#F1F1F1" height="35.0938" style="stroke:#181818;stroke-width:1.5;" width="158" x="1882" y="185.2813"/><text fill="#000000" font-family="sans-serif" font-size="12" lengthAdjust="spacing" textLength="138" x="1892" y="207.7383">Stuffing words into alt text</text><line style="stroke:#181818;stroke-width:1.5;" x1="1872" x2="1872" y1="120.1875" y2="202.8281"/><line style="stroke:#181818;stroke-width:1.5;" x1="32.5" x2="1872" y1="65.0938" y2="65.0938"/><rect fill="#F1F1F1" height="35.0938" style="stroke:#181818;stroke-width:1.5;" width="94" x="905.25" y="10"/><text fill="#000000" font-family="sans-serif" font-size="12" lengthAdjust="spacing" textLength="74" x="915.25" y="32.457">Page Checks</text><line style="stroke:#181818;stroke-width:1.5;" x1="952.25" x2="952.25" y1="45.0938" y2="65.0938"/><!--SRC=[RPHTRzem58RlyolErHGGomgTfWbLLTlGbNRGiLAgxT8uf-3X-6Is0qLJ__kE7Q3hDcw8xJVdupclS-Qyi7upTyc9yrkDfma_3vHOM572hmGWMrX4iqMjQHCtmkz2oDN2KcsAd3HPk0gQxr73YkVaEJbvjmlNXebO8EHBb2kNjDimknlnNnlEYyAYS_4v9-EKysWyt9vFaY0RaHGQffTVek1MbDZPlzA1oP8CGihQLZX-5M2Z_18kQgSCI-4E5xnlXLTa_Y-z8bfeXB6eThLeeKeWyy_1G5cKdgn21oa3gJemitDXN4MiHY-pM0odN2lSE12cW5pvcDerkR_MGYk_FIoCvnMaVbjbS0hTewCcmhMP1xQWbLarkNUrSD-UNEGpzRQMlhOOpsT6_QmHQgixK0NU75WpiGATjAeA9NHWs8tQoU4SKgbHM7W3JfKLhoEG5MutP0lNr3BiGkgMP7q7efZ_o4ZbEBYGNgqHrgJa8TKSc_mi2eYR68ENAlRZZlo7gAomSia8XZskx_WFYXDXWmchfOErotYWMgDlMhykEKFpk8lKU8JWSrCwmwaV7vLPxFTpJMB5QqXLXXaCYEn6R5iHXTkBXgeeq8379_-goa5TQIKF3kBvLiZuGkl2I4Rpyifv0pTYP0E6aJaC7GBDVs345Sk-GeEMxPrJMN7WkTgx0iR42uH7TfafTFJmoz2uYo9qmTChcxdVqPoyo_mk_xVn2ARAOnaysroZWuKcDimhNAeq3kV9ju1g_xVJNdilEasOuDB33MxlIRtGs_E6Q1nGnXC8xHimoHct4humoKIpusTSungjOvpGpNf7lLxMVP_Uiti7AE7e0tHx_TxxVlSOykazXFDMabvDHk2ejXAX2FTPpUimZrPo8zO2xceJYFGXhDBxSOk_6_jDk3HhPScKmIOt3-D614Foqufy5ETQXJa_Z9C1FegQwxuqaWBfFipkFxtzc8o4MTJSRH_G93dpyNRBPzFV]--></g></svg>