<?xml version="1.0" encoding="utf-8" standalone="no"?>
<!DOCTYPE svg PUBLIC "-//W3C//DTD SVG 1.1//EN"
  "http://www.w3.org/Graphics/SVG/1.1/DTD/svg11.dtd">
<!-- Created with matplotlib (http://matplotlib.org/) -->
<svg height="345pt" version="1.1" viewBox="0 0 460 345" width="460pt" xmlns="http://www.w3.org/2000/svg" xmlns:xlink="http://www.w3.org/1999/xlink">
 <defs>
  <style type="text/css">
*{stroke-linecap:butt;stroke-linejoin:round;}
  </style>
 </defs>
 <g id="figure_1">
  <g id="patch_1">
   <path d="M 0 345.6 
L 460.8 345.6 
L 460.8 0 
L 0 0 
z
" style="fill:#ffffff;"/>
  </g>
  <g id="axes_1">
   <g id="patch_2">
    <path d="M 57.6 162.432 
L 414.72 162.432 
L 414.72 41.472 
L 57.6 41.472 
z
" style="fill:#ffffff;"/>
   </g>
   <g id="matplotlib.axis_1">
    <g id="xtick_1">
     <g id="line2d_1">
      <path clip-path="url(#p18095279e8)" d="M 57.6 162.432 
L 57.6 41.472 
" style="fill:none;stroke:#b0b0b0;stroke-linecap:square;stroke-width:0.8;"/>
     </g>
     <g id="line2d_2">
      <defs>
       <path d="M 0 0 
L 0 3.5 
" id="mb20ea52fc3" style="stroke:#000000;stroke-width:0.8;"/>
      </defs>
      <g>
       <use style="stroke:#000000;stroke-width:0.8;" x="57.6" xlink:href="#mb20ea52fc3" y="162.432"/>
      </g>
     </g>
     <g id="text_1">
      <!-- 0 -->
      <defs>
       <path d="M 31.78125 66.40625 
Q 24.171875 66.40625 20.328125 58.90625 
Q 16.5 51.421875 16.5 36.375 
Q 16.5 21.390625 20.328125 13.890625 
Q 24.171875 6.390625 31.78125 6.390625 
Q 39.453125 6.390625 43.28125 13.890625 
Q 47.125 21.390625 47.125 36.375 
Q 47.125 51.421875 43.28125 58.90625 
Q 39.453125 66.40625 31.78125 66.40625 
z
M 31.78125 74.21875 
Q 44.046875 74.21875 50.515625 64.515625 
Q 56.984375 54.828125 56.984375 36.375 
Q 56.984375 17.96875 50.515625 8.265625 
Q 44.046875 -1.421875 31.78125 -1.421875 
Q 19.53125 -1.421875 13.0625 8.265625 
Q 6.59375 17.96875 6.59375 36.375 
Q 6.59375 54.828125 13.0625 64.515625 
Q 19.53125 74.21875 31.78125 74.21875 
z
" id="DejaVuSans-30"/>
      </defs>
      <g transform="translate(54.41875 177.030437)scale(0.1 -0.1)">
       <use xlink:href="#DejaVuSans-30"/>
      </g>
     </g>
    </g>
    <g id="xtick_2">
     <g id="line2d_3">
      <path clip-path="url(#p18095279e8)" d="M 129.024 162.432 
L 129.024 41.472 
" style="fill:none;stroke:#b0b0b0;stroke-linecap:square;stroke-width:0.8;"/>
     </g>
     <g id="line2d_4">
      <g>
       <use style="stroke:#000000;stroke-width:0.8;" x="129.024" xlink:href="#mb20ea52fc3" y="162.432"/>
      </g>
     </g>
     <g id="text_2">
      <!-- 5 -->
      <defs>
       <path d="M 10.796875 72.90625 
L 49.515625 72.90625 
L 49.515625 64.59375 
L 19.828125 64.59375 
L 19.828125 46.734375 
Q 21.96875 47.46875 24.109375 47.828125 
Q 26.265625 48.1875 28.421875 48.1875 
Q 40.625 48.1875 47.75 41.5 
Q 54.890625 34.8125 54.890625 23.390625 
Q 54.890625 11.625 47.5625 5.09375 
Q 40.234375 -1.421875 26.90625 -1.421875 
Q 22.3125 -1.421875 17.546875 -0.640625 
Q 12.796875 0.140625 7.71875 1.703125 
L 7.71875 11.625 
Q 12.109375 9.234375 16.796875 8.0625 
Q 21.484375 6.890625 26.703125 6.890625 
Q 35.15625 6.890625 40.078125 11.328125 
Q 45.015625 15.765625 45.015625 23.390625 
Q 45.015625 31 40.078125 35.4375 
Q 35.15625 39.890625 26.703125 39.890625 
Q 22.75 39.890625 18.8125 39.015625 
Q 14.890625 38.140625 10.796875 36.28125 
z
" id="DejaVuSans-35"/>
      </defs>
      <g transform="translate(125.84275 177.030437)scale(0.1 -0.1)">
       <use xlink:href="#DejaVuSans-35"/>
      </g>
     </g>
    </g>
    <g id="xtick_3">
     <g id="line2d_5">
      <path clip-path="url(#p18095279e8)" d="M 200.448 162.432 
L 200.448 41.472 
" style="fill:none;stroke:#b0b0b0;stroke-linecap:square;stroke-width:0.8;"/>
     </g>
     <g id="line2d_6">
      <g>
       <use style="stroke:#000000;stroke-width:0.8;" x="200.448" xlink:href="#mb20ea52fc3" y="162.432"/>
      </g>
     </g>
     <g id="text_3">
      <!-- 10 -->
      <defs>
       <path d="M 12.40625 8.296875 
L 28.515625 8.296875 
L 28.515625 63.921875 
L 10.984375 60.40625 
L 10.984375 69.390625 
L 28.421875 72.90625 
L 38.28125 72.90625 
L 38.28125 8.296875 
L 54.390625 8.296875 
L 54.390625 0 
L 12.40625 0 
z
" id="DejaVuSans-31"/>
      </defs>
      <g transform="translate(194.0855 177.030437)scale(0.1 -0.1)">
       <use xlink:href="#DejaVuSans-31"/>
       <use x="63.623047" xlink:href="#DejaVuSans-30"/>
      </g>
     </g>
    </g>
    <g id="xtick_4">
     <g id="line2d_7">
      <path clip-path="url(#p18095279e8)" d="M 271.872 162.432 
L 271.872 41.472 
" style="fill:none;stroke:#b0b0b0;stroke-linecap:square;stroke-width:0.8;"/>
     </g>
     <g id="line2d_8">
      <g>
       <use style="stroke:#000000;stroke-width:0.8;" x="271.872" xlink:href="#mb20ea52fc3" y="162.432"/>
      </g>
     </g>
     <g id="text_4">
      <!-- 15 -->
      <g transform="translate(265.5095 177.030437)scale(0.1 -0.1)">
       <use xlink:href="#DejaVuSans-31"/>
       <use x="63.623047" xlink:href="#DejaVuSans-35"/>
      </g>
     </g>
    </g>
    <g id="xtick_5">
     <g id="line2d_9">
      <path clip-path="url(#p18095279e8)" d="M 343.296 162.432 
L 343.296 41.472 
" style="fill:none;stroke:#b0b0b0;stroke-linecap:square;stroke-width:0.8;"/>
     </g>
     <g id="line2d_10">
      <g>
       <use style="stroke:#000000;stroke-width:0.8;" x="343.296" xlink:href="#mb20ea52fc3" y="162.432"/>
      </g>
     </g>
     <g id="text_5">
      <!-- 20 -->
      <defs>
       <path d="M 19.1875 8.296875 
L 53.609375 8.296875 
L 53.609375 0 
L 7.328125 0 
L 7.328125 8.296875 
Q 12.9375 14.109375 22.625 23.890625 
Q 32.328125 33.6875 34.8125 36.53125 
Q 39.546875 41.84375 41.421875 45.53125 
Q 43.3125 49.21875 43.3125 52.78125 
Q 43.3125 58.59375 39.234375 62.25 
Q 35.15625 65.921875 28.609375 65.921875 
Q 23.96875 65.921875 18.8125 64.3125 
Q 13.671875 62.703125 7.8125 59.421875 
L 7.8125 69.390625 
Q 13.765625 71.78125 18.9375 73 
Q 24.125 74.21875 28.421875 74.21875 
Q 39.75 74.21875 46.484375 68.546875 
Q 53.21875 62.890625 53.21875 53.421875 
Q 53.21875 48.921875 51.53125 44.890625 
Q 49.859375 40.875 45.40625 35.40625 
Q 44.1875 33.984375 37.640625 27.21875 
Q 31.109375 20.453125 19.1875 8.296875 
z
" id="DejaVuSans-32"/>
      </defs>
      <g transform="translate(336.9335 177.030437)scale(0.1 -0.1)">
       <use xlink:href="#DejaVuSans-32"/>
       <use x="63.623047" xlink:href="#DejaVuSans-30"/>
      </g>
     </g>
    </g>
    <g id="xtick_6">
     <g id="line2d_11">
      <path clip-path="url(#p18095279e8)" d="M 414.72 162.432 
L 414.72 41.472 
" style="fill:none;stroke:#b0b0b0;stroke-linecap:square;stroke-width:0.8;"/>
     </g>
     <g id="line2d_12">
      <g>
       <use style="stroke:#000000;stroke-width:0.8;" x="414.72" xlink:href="#mb20ea52fc3" y="162.432"/>
      </g>
     </g>
     <g id="text_6">
      <!-- 25 -->
      <g transform="translate(408.3575 177.030437)scale(0.1 -0.1)">
       <use xlink:href="#DejaVuSans-32"/>
       <use x="63.623047" xlink:href="#DejaVuSans-35"/>
      </g>
     </g>
    </g>
    <g id="text_7">
     <!-- Time period (s) -->
     <defs>
      <path d="M -0.296875 72.90625 
L 61.375 72.90625 
L 61.375 64.59375 
L 35.5 64.59375 
L 35.5 0 
L 25.59375 0 
L 25.59375 64.59375 
L -0.296875 64.59375 
z
" id="DejaVuSans-54"/>
      <path d="M 9.421875 54.6875 
L 18.40625 54.6875 
L 18.40625 0 
L 9.421875 0 
z
M 9.421875 75.984375 
L 18.40625 75.984375 
L 18.40625 64.59375 
L 9.421875 64.59375 
z
" id="DejaVuSans-69"/>
      <path d="M 52 44.1875 
Q 55.375 50.25 60.0625 53.125 
Q 64.75 56 71.09375 56 
Q 79.640625 56 84.28125 50.015625 
Q 88.921875 44.046875 88.921875 33.015625 
L 88.921875 0 
L 79.890625 0 
L 79.890625 32.71875 
Q 79.890625 40.578125 77.09375 44.375 
Q 74.3125 48.1875 68.609375 48.1875 
Q 61.625 48.1875 57.5625 43.546875 
Q 53.515625 38.921875 53.515625 30.90625 
L 53.515625 0 
L 44.484375 0 
L 44.484375 32.71875 
Q 44.484375 40.625 41.703125 44.40625 
Q 38.921875 48.1875 33.109375 48.1875 
Q 26.21875 48.1875 22.15625 43.53125 
Q 18.109375 38.875 18.109375 30.90625 
L 18.109375 0 
L 9.078125 0 
L 9.078125 54.6875 
L 18.109375 54.6875 
L 18.109375 46.1875 
Q 21.1875 51.21875 25.484375 53.609375 
Q 29.78125 56 35.6875 56 
Q 41.65625 56 45.828125 52.96875 
Q 50 49.953125 52 44.1875 
z
" id="DejaVuSans-6d"/>
      <path d="M 56.203125 29.59375 
L 56.203125 25.203125 
L 14.890625 25.203125 
Q 15.484375 15.921875 20.484375 11.0625 
Q 25.484375 6.203125 34.421875 6.203125 
Q 39.59375 6.203125 44.453125 7.46875 
Q 49.3125 8.734375 54.109375 11.28125 
L 54.109375 2.78125 
Q 49.265625 0.734375 44.1875 -0.34375 
Q 39.109375 -1.421875 33.890625 -1.421875 
Q 20.796875 -1.421875 13.15625 6.1875 
Q 5.515625 13.8125 5.515625 26.8125 
Q 5.515625 40.234375 12.765625 48.109375 
Q 20.015625 56 32.328125 56 
Q 43.359375 56 49.78125 48.890625 
Q 56.203125 41.796875 56.203125 29.59375 
z
M 47.21875 32.234375 
Q 47.125 39.59375 43.09375 43.984375 
Q 39.0625 48.390625 32.421875 48.390625 
Q 24.90625 48.390625 20.390625 44.140625 
Q 15.875 39.890625 15.1875 32.171875 
z
" id="DejaVuSans-65"/>
      <path id="DejaVuSans-20"/>
      <path d="M 18.109375 8.203125 
L 18.109375 -20.796875 
L 9.078125 -20.796875 
L 9.078125 54.6875 
L 18.109375 54.6875 
L 18.109375 46.390625 
Q 20.953125 51.265625 25.265625 53.625 
Q 29.59375 56 35.59375 56 
Q 45.5625 56 51.78125 48.09375 
Q 58.015625 40.1875 58.015625 27.296875 
Q 58.015625 14.40625 51.78125 6.484375 
Q 45.5625 -1.421875 35.59375 -1.421875 
Q 29.59375 -1.421875 25.265625 0.953125 
Q 20.953125 3.328125 18.109375 8.203125 
z
M 48.6875 27.296875 
Q 48.6875 37.203125 44.609375 42.84375 
Q 40.53125 48.484375 33.40625 48.484375 
Q 26.265625 48.484375 22.1875 42.84375 
Q 18.109375 37.203125 18.109375 27.296875 
Q 18.109375 17.390625 22.1875 11.75 
Q 26.265625 6.109375 33.40625 6.109375 
Q 40.53125 6.109375 44.609375 11.75 
Q 48.6875 17.390625 48.6875 27.296875 
z
" id="DejaVuSans-70"/>
      <path d="M 41.109375 46.296875 
Q 39.59375 47.171875 37.8125 47.578125 
Q 36.03125 48 33.890625 48 
Q 26.265625 48 22.1875 43.046875 
Q 18.109375 38.09375 18.109375 28.8125 
L 18.109375 0 
L 9.078125 0 
L 9.078125 54.6875 
L 18.109375 54.6875 
L 18.109375 46.1875 
Q 20.953125 51.171875 25.484375 53.578125 
Q 30.03125 56 36.53125 56 
Q 37.453125 56 38.578125 55.875 
Q 39.703125 55.765625 41.0625 55.515625 
z
" id="DejaVuSans-72"/>
      <path d="M 30.609375 48.390625 
Q 23.390625 48.390625 19.1875 42.75 
Q 14.984375 37.109375 14.984375 27.296875 
Q 14.984375 17.484375 19.15625 11.84375 
Q 23.34375 6.203125 30.609375 6.203125 
Q 37.796875 6.203125 41.984375 11.859375 
Q 46.1875 17.53125 46.1875 27.296875 
Q 46.1875 37.015625 41.984375 42.703125 
Q 37.796875 48.390625 30.609375 48.390625 
z
M 30.609375 56 
Q 42.328125 56 49.015625 48.375 
Q 55.71875 40.765625 55.71875 27.296875 
Q 55.71875 13.875 49.015625 6.21875 
Q 42.328125 -1.421875 30.609375 -1.421875 
Q 18.84375 -1.421875 12.171875 6.21875 
Q 5.515625 13.875 5.515625 27.296875 
Q 5.515625 40.765625 12.171875 48.375 
Q 18.84375 56 30.609375 56 
z
" id="DejaVuSans-6f"/>
      <path d="M 45.40625 46.390625 
L 45.40625 75.984375 
L 54.390625 75.984375 
L 54.390625 0 
L 45.40625 0 
L 45.40625 8.203125 
Q 42.578125 3.328125 38.25 0.953125 
Q 33.9375 -1.421875 27.875 -1.421875 
Q 17.96875 -1.421875 11.734375 6.484375 
Q 5.515625 14.40625 5.515625 27.296875 
Q 5.515625 40.1875 11.734375 48.09375 
Q 17.96875 56 27.875 56 
Q 33.9375 56 38.25 53.625 
Q 42.578125 51.265625 45.40625 46.390625 
z
M 14.796875 27.296875 
Q 14.796875 17.390625 18.875 11.75 
Q 22.953125 6.109375 30.078125 6.109375 
Q 37.203125 6.109375 41.296875 11.75 
Q 45.40625 17.390625 45.40625 27.296875 
Q 45.40625 37.203125 41.296875 42.84375 
Q 37.203125 48.484375 30.078125 48.484375 
Q 22.953125 48.484375 18.875 42.84375 
Q 14.796875 37.203125 14.796875 27.296875 
z
" id="DejaVuSans-64"/>
      <path d="M 31 75.875 
Q 24.46875 64.65625 21.28125 53.65625 
Q 18.109375 42.671875 18.109375 31.390625 
Q 18.109375 20.125 21.3125 9.0625 
Q 24.515625 -2 31 -13.1875 
L 23.1875 -13.1875 
Q 15.875 -1.703125 12.234375 9.375 
Q 8.59375 20.453125 8.59375 31.390625 
Q 8.59375 42.28125 12.203125 53.3125 
Q 15.828125 64.359375 23.1875 75.875 
z
" id="DejaVuSans-28"/>
      <path d="M 44.28125 53.078125 
L 44.28125 44.578125 
Q 40.484375 46.53125 36.375 47.5 
Q 32.28125 48.484375 27.875 48.484375 
Q 21.1875 48.484375 17.84375 46.4375 
Q 14.5 44.390625 14.5 40.28125 
Q 14.5 37.15625 16.890625 35.375 
Q 19.28125 33.59375 26.515625 31.984375 
L 29.59375 31.296875 
Q 39.15625 29.25 43.1875 25.515625 
Q 47.21875 21.78125 47.21875 15.09375 
Q 47.21875 7.46875 41.1875 3.015625 
Q 35.15625 -1.421875 24.609375 -1.421875 
Q 20.21875 -1.421875 15.453125 -0.5625 
Q 10.6875 0.296875 5.421875 2 
L 5.421875 11.28125 
Q 10.40625 8.6875 15.234375 7.390625 
Q 20.0625 6.109375 24.8125 6.109375 
Q 31.15625 6.109375 34.5625 8.28125 
Q 37.984375 10.453125 37.984375 14.40625 
Q 37.984375 18.0625 35.515625 20.015625 
Q 33.0625 21.96875 24.703125 23.78125 
L 21.578125 24.515625 
Q 13.234375 26.265625 9.515625 29.90625 
Q 5.8125 33.546875 5.8125 39.890625 
Q 5.8125 47.609375 11.28125 51.796875 
Q 16.75 56 26.8125 56 
Q 31.78125 56 36.171875 55.265625 
Q 40.578125 54.546875 44.28125 53.078125 
z
" id="DejaVuSans-73"/>
      <path d="M 8.015625 75.875 
L 15.828125 75.875 
Q 23.140625 64.359375 26.78125 53.3125 
Q 30.421875 42.28125 30.421875 31.390625 
Q 30.421875 20.453125 26.78125 9.375 
Q 23.140625 -1.703125 15.828125 -13.1875 
L 8.015625 -13.1875 
Q 14.5 -2 17.703125 9.0625 
Q 20.90625 20.125 20.90625 31.390625 
Q 20.90625 42.671875 17.703125 53.65625 
Q 14.5 64.65625 8.015625 75.875 
z
" id="DejaVuSans-29"/>
     </defs>
     <g transform="translate(198.159219 190.708562)scale(0.1 -0.1)">
      <use xlink:href="#DejaVuSans-54"/>
      <use x="61.037109" xlink:href="#DejaVuSans-69"/>
      <use x="88.820312" xlink:href="#DejaVuSans-6d"/>
      <use x="186.232422" xlink:href="#DejaVuSans-65"/>
      <use x="247.755859" xlink:href="#DejaVuSans-20"/>
      <use x="279.542969" xlink:href="#DejaVuSans-70"/>
      <use x="343.019531" xlink:href="#DejaVuSans-65"/>
      <use x="404.542969" xlink:href="#DejaVuSans-72"/>
      <use x="445.65625" xlink:href="#DejaVuSans-69"/>
      <use x="473.439453" xlink:href="#DejaVuSans-6f"/>
      <use x="534.621094" xlink:href="#DejaVuSans-64"/>
      <use x="598.097656" xlink:href="#DejaVuSans-20"/>
      <use x="629.884766" xlink:href="#DejaVuSans-28"/>
      <use x="668.898438" xlink:href="#DejaVuSans-73"/>
      <use x="720.998047" xlink:href="#DejaVuSans-29"/>
     </g>
    </g>
   </g>
   <g id="matplotlib.axis_2">
    <g id="ytick_1">
     <g id="line2d_13">
      <path clip-path="url(#p18095279e8)" d="M 57.6 156.933974 
L 414.72 156.933974 
" style="fill:none;stroke:#b0b0b0;stroke-linecap:square;stroke-width:0.8;"/>
     </g>
     <g id="line2d_14">
      <defs>
       <path d="M 0 0 
L -3.5 0 
" id="m8b15fc3744" style="stroke:#000000;stroke-width:0.8;"/>
      </defs>
      <g>
       <use style="stroke:#000000;stroke-width:0.8;" x="57.6" xlink:href="#m8b15fc3744" y="156.933974"/>
      </g>
     </g>
     <g id="text_8">
      <!-- 0 -->
      <g transform="translate(44.2375 160.733193)scale(0.1 -0.1)">
       <use xlink:href="#DejaVuSans-30"/>
      </g>
     </g>
    </g>
    <g id="ytick_2">
     <g id="line2d_15">
      <path clip-path="url(#p18095279e8)" d="M 57.6 131.654334 
L 414.72 131.654334 
" style="fill:none;stroke:#b0b0b0;stroke-linecap:square;stroke-width:0.8;"/>
     </g>
     <g id="line2d_16">
      <g>
       <use style="stroke:#000000;stroke-width:0.8;" x="57.6" xlink:href="#m8b15fc3744" y="131.654334"/>
      </g>
     </g>
     <g id="text_9">
      <!-- 1 -->
      <g transform="translate(44.2375 135.453553)scale(0.1 -0.1)">
       <use xlink:href="#DejaVuSans-31"/>
      </g>
     </g>
    </g>
    <g id="ytick_3">
     <g id="line2d_17">
      <path clip-path="url(#p18095279e8)" d="M 57.6 106.374695 
L 414.72 106.374695 
" style="fill:none;stroke:#b0b0b0;stroke-linecap:square;stroke-width:0.8;"/>
     </g>
     <g id="line2d_18">
      <g>
       <use style="stroke:#000000;stroke-width:0.8;" x="57.6" xlink:href="#m8b15fc3744" y="106.374695"/>
      </g>
     </g>
     <g id="text_10">
      <!-- 2 -->
      <g transform="translate(44.2375 110.173914)scale(0.1 -0.1)">
       <use xlink:href="#DejaVuSans-32"/>
      </g>
     </g>
    </g>
    <g id="ytick_4">
     <g id="line2d_19">
      <path clip-path="url(#p18095279e8)" d="M 57.6 81.095055 
L 414.72 81.095055 
" style="fill:none;stroke:#b0b0b0;stroke-linecap:square;stroke-width:0.8;"/>
     </g>
     <g id="line2d_20">
      <g>
       <use style="stroke:#000000;stroke-width:0.8;" x="57.6" xlink:href="#m8b15fc3744" y="81.095055"/>
      </g>
     </g>
     <g id="text_11">
      <!-- 3 -->
      <defs>
       <path d="M 40.578125 39.3125 
Q 47.65625 37.796875 51.625 33 
Q 55.609375 28.21875 55.609375 21.1875 
Q 55.609375 10.40625 48.1875 4.484375 
Q 40.765625 -1.421875 27.09375 -1.421875 
Q 22.515625 -1.421875 17.65625 -0.515625 
Q 12.796875 0.390625 7.625 2.203125 
L 7.625 11.71875 
Q 11.71875 9.328125 16.59375 8.109375 
Q 21.484375 6.890625 26.8125 6.890625 
Q 36.078125 6.890625 40.9375 10.546875 
Q 45.796875 14.203125 45.796875 21.1875 
Q 45.796875 27.640625 41.28125 31.265625 
Q 36.765625 34.90625 28.71875 34.90625 
L 20.21875 34.90625 
L 20.21875 43.015625 
L 29.109375 43.015625 
Q 36.375 43.015625 40.234375 45.921875 
Q 44.09375 48.828125 44.09375 54.296875 
Q 44.09375 59.90625 40.109375 62.90625 
Q 36.140625 65.921875 28.71875 65.921875 
Q 24.65625 65.921875 20.015625 65.03125 
Q 15.375 64.15625 9.8125 62.3125 
L 9.8125 71.09375 
Q 15.4375 72.65625 20.34375 73.4375 
Q 25.25 74.21875 29.59375 74.21875 
Q 40.828125 74.21875 47.359375 69.109375 
Q 53.90625 64.015625 53.90625 55.328125 
Q 53.90625 49.265625 50.4375 45.09375 
Q 46.96875 40.921875 40.578125 39.3125 
z
" id="DejaVuSans-33"/>
      </defs>
      <g transform="translate(44.2375 84.894274)scale(0.1 -0.1)">
       <use xlink:href="#DejaVuSans-33"/>
      </g>
     </g>
    </g>
    <g id="ytick_5">
     <g id="line2d_21">
      <path clip-path="url(#p18095279e8)" d="M 57.6 55.815416 
L 414.72 55.815416 
" style="fill:none;stroke:#b0b0b0;stroke-linecap:square;stroke-width:0.8;"/>
     </g>
     <g id="line2d_22">
      <g>
       <use style="stroke:#000000;stroke-width:0.8;" x="57.6" xlink:href="#m8b15fc3744" y="55.815416"/>
      </g>
     </g>
     <g id="text_12">
      <!-- 4 -->
      <defs>
       <path d="M 37.796875 64.3125 
L 12.890625 25.390625 
L 37.796875 25.390625 
z
M 35.203125 72.90625 
L 47.609375 72.90625 
L 47.609375 25.390625 
L 58.015625 25.390625 
L 58.015625 17.1875 
L 47.609375 17.1875 
L 47.609375 0 
L 37.796875 0 
L 37.796875 17.1875 
L 4.890625 17.1875 
L 4.890625 26.703125 
z
" id="DejaVuSans-34"/>
      </defs>
      <g transform="translate(44.2375 59.614635)scale(0.1 -0.1)">
       <use xlink:href="#DejaVuSans-34"/>
      </g>
     </g>
    </g>
    <g id="text_13">
     <!-- Amplitude (m/m or deg/m) -->
     <defs>
      <path d="M 34.1875 63.1875 
L 20.796875 26.90625 
L 47.609375 26.90625 
z
M 28.609375 72.90625 
L 39.796875 72.90625 
L 67.578125 0 
L 57.328125 0 
L 50.6875 18.703125 
L 17.828125 18.703125 
L 11.1875 0 
L 0.78125 0 
z
" id="DejaVuSans-41"/>
      <path d="M 9.421875 75.984375 
L 18.40625 75.984375 
L 18.40625 0 
L 9.421875 0 
z
" id="DejaVuSans-6c"/>
      <path d="M 18.3125 70.21875 
L 18.3125 54.6875 
L 36.8125 54.6875 
L 36.8125 47.703125 
L 18.3125 47.703125 
L 18.3125 18.015625 
Q 18.3125 11.328125 20.140625 9.421875 
Q 21.96875 7.515625 27.59375 7.515625 
L 36.8125 7.515625 
L 36.8125 0 
L 27.59375 0 
Q 17.1875 0 13.234375 3.875 
Q 9.28125 7.765625 9.28125 18.015625 
L 9.28125 47.703125 
L 2.6875 47.703125 
L 2.6875 54.6875 
L 9.28125 54.6875 
L 9.28125 70.21875 
z
" id="DejaVuSans-74"/>
      <path d="M 8.5 21.578125 
L 8.5 54.6875 
L 17.484375 54.6875 
L 17.484375 21.921875 
Q 17.484375 14.15625 20.5 10.265625 
Q 23.53125 6.390625 29.59375 6.390625 
Q 36.859375 6.390625 41.078125 11.03125 
Q 45.3125 15.671875 45.3125 23.6875 
L 45.3125 54.6875 
L 54.296875 54.6875 
L 54.296875 0 
L 45.3125 0 
L 45.3125 8.40625 
Q 42.046875 3.421875 37.71875 1 
Q 33.40625 -1.421875 27.6875 -1.421875 
Q 18.265625 -1.421875 13.375 4.4375 
Q 8.5 10.296875 8.5 21.578125 
z
M 31.109375 56 
z
" id="DejaVuSans-75"/>
      <path d="M 25.390625 72.90625 
L 33.6875 72.90625 
L 8.296875 -9.28125 
L 0 -9.28125 
z
" id="DejaVuSans-2f"/>
      <path d="M 45.40625 27.984375 
Q 45.40625 37.75 41.375 43.109375 
Q 37.359375 48.484375 30.078125 48.484375 
Q 22.859375 48.484375 18.828125 43.109375 
Q 14.796875 37.75 14.796875 27.984375 
Q 14.796875 18.265625 18.828125 12.890625 
Q 22.859375 7.515625 30.078125 7.515625 
Q 37.359375 7.515625 41.375 12.890625 
Q 45.40625 18.265625 45.40625 27.984375 
z
M 54.390625 6.78125 
Q 54.390625 -7.171875 48.1875 -13.984375 
Q 42 -20.796875 29.203125 -20.796875 
Q 24.46875 -20.796875 20.265625 -20.09375 
Q 16.0625 -19.390625 12.109375 -17.921875 
L 12.109375 -9.1875 
Q 16.0625 -11.328125 19.921875 -12.34375 
Q 23.78125 -13.375 27.78125 -13.375 
Q 36.625 -13.375 41.015625 -8.765625 
Q 45.40625 -4.15625 45.40625 5.171875 
L 45.40625 9.625 
Q 42.625 4.78125 38.28125 2.390625 
Q 33.9375 0 27.875 0 
Q 17.828125 0 11.671875 7.65625 
Q 5.515625 15.328125 5.515625 27.984375 
Q 5.515625 40.671875 11.671875 48.328125 
Q 17.828125 56 27.875 56 
Q 33.9375 56 38.28125 53.609375 
Q 42.625 51.21875 45.40625 46.390625 
L 45.40625 54.6875 
L 54.390625 54.6875 
z
" id="DejaVuSans-67"/>
     </defs>
     <g transform="translate(38.157812 168.762938)rotate(-90)scale(0.1 -0.1)">
      <use xlink:href="#DejaVuSans-41"/>
      <use x="68.408203" xlink:href="#DejaVuSans-6d"/>
      <use x="165.820312" xlink:href="#DejaVuSans-70"/>
      <use x="229.296875" xlink:href="#DejaVuSans-6c"/>
      <use x="257.080078" xlink:href="#DejaVuSans-69"/>
      <use x="284.863281" xlink:href="#DejaVuSans-74"/>
      <use x="324.072266" xlink:href="#DejaVuSans-75"/>
      <use x="387.451172" xlink:href="#DejaVuSans-64"/>
      <use x="450.927734" xlink:href="#DejaVuSans-65"/>
      <use x="512.451172" xlink:href="#DejaVuSans-20"/>
      <use x="544.238281" xlink:href="#DejaVuSans-28"/>
      <use x="583.251953" xlink:href="#DejaVuSans-6d"/>
      <use x="680.664062" xlink:href="#DejaVuSans-2f"/>
      <use x="714.355469" xlink:href="#DejaVuSans-6d"/>
      <use x="811.767578" xlink:href="#DejaVuSans-20"/>
      <use x="843.554688" xlink:href="#DejaVuSans-6f"/>
      <use x="904.736328" xlink:href="#DejaVuSans-72"/>
      <use x="945.849609" xlink:href="#DejaVuSans-20"/>
      <use x="977.636719" xlink:href="#DejaVuSans-64"/>
      <use x="1041.113281" xlink:href="#DejaVuSans-65"/>
      <use x="1102.636719" xlink:href="#DejaVuSans-67"/>
      <use x="1166.113281" xlink:href="#DejaVuSans-2f"/>
      <use x="1199.804688" xlink:href="#DejaVuSans-6d"/>
      <use x="1297.216797" xlink:href="#DejaVuSans-29"/>
     </g>
    </g>
   </g>
   <g id="line2d_23">
    <path clip-path="url(#p18095279e8)" d="M 102.482842 156.927212 
L 105.954048 156.929595 
L 107.296819 156.930114 
L 108.711014 156.927876 
L 110.210918 156.92188 
L 111.796531 156.920578 
L 113.482138 156.919216 
L 115.282022 156.910527 
L 117.196186 156.911948 
L 119.238912 156.908704 
L 121.438771 156.90969 
L 123.795763 156.921412 
L 126.324173 156.92797 
L 129.066854 156.899189 
L 132.023808 156.89704 
L 135.237888 156.842411 
L 138.751949 156.820241 
L 142.59456 156.782094 
L 146.822861 156.707847 
L 151.479706 156.63896 
L 156.665088 156.498658 
L 162.450432 156.396023 
L 168.964301 156.150811 
L 176.320973 155.820153 
L 184.73472 155.310263 
L 194.419814 153.634981 
L 205.733376 152.310328 
L 208.161792 152.411446 
L 210.733056 152.679411 
L 213.447168 153.099053 
L 216.16128 153.627397 
L 220.44672 154.390842 
L 223.446528 154.6085 
L 226.589184 154.378202 
L 229.874688 153.756323 
L 233.30304 152.911983 
L 252.301824 148.0861 
L 276.014592 143.563573 
L 306.15552 139.488495 
L 313.29792 138.765497 
L 320.868864 138.118338 
L 328.725504 137.579882 
L 330.43968 137.461068 
L 337.153536 136.87458 
L 346.15296 136.194558 
L 356.723712 135.572678 
L 367.151616 135.072142 
L 378.150912 134.624692 
L 390.007296 134.222746 
L 402.863616 133.861247 
L 416.577024 133.540195 
L 461.8 132.980363 
" style="fill:none;stroke:#0000ff;stroke-linecap:square;stroke-width:1.5;"/>
   </g>
   <g id="line2d_24">
    <path clip-path="url(#p18095279e8)" d="M 102.482842 156.918169 
L 105.954048 156.923235 
L 107.296819 156.924095 
L 108.711014 156.92418 
L 110.210918 156.913689 
L 111.796531 156.915856 
L 113.482138 156.903461 
L 115.282022 156.90384 
L 117.196186 156.895018 
L 119.238912 156.906267 
L 121.438771 156.927808 
L 123.795763 156.888698 
L 126.324173 156.869485 
L 129.066854 156.791498 
L 132.023808 156.793116 
L 135.237888 156.737829 
L 138.751949 156.653623 
L 142.59456 156.678397 
L 146.822861 156.587137 
L 151.479706 156.497394 
L 156.665088 156.50877 
L 162.450432 156.320184 
L 168.964301 156.259007 
L 176.320973 156.406135 
L 184.73472 156.071433 
L 194.419814 155.552947 
L 205.733376 155.431858 
L 208.161792 155.503905 
L 210.733056 155.604265 
L 213.447168 155.711956 
L 216.16128 155.787795 
L 220.44672 155.727629 
L 223.446528 155.531459 
L 226.589184 155.227851 
L 229.874688 154.846634 
L 233.30304 154.410055 
L 252.301824 151.721312 
L 276.014592 148.568941 
L 306.15552 145.583416 
L 313.29792 145.052543 
L 320.868864 144.549478 
L 328.725504 144.071693 
L 330.43968 143.978159 
L 337.153536 143.621716 
L 346.15296 143.197018 
L 356.723712 142.75968 
L 367.151616 142.390597 
L 378.150912 142.044266 
L 390.007296 141.725743 
L 402.863616 141.429971 
L 416.577024 141.156951 
L 461.8 140.634017 
" style="fill:none;stroke:#008000;stroke-linecap:square;stroke-width:1.5;"/>
   </g>
   <g id="line2d_25">
    <path clip-path="url(#p18095279e8)" d="M 102.482842 156.924464 
L 105.954048 156.9259 
L 107.296819 156.921915 
L 108.711014 156.920156 
L 110.210918 156.920333 
L 111.796531 156.921119 
L 113.482138 156.903967 
L 115.282022 156.914665 
L 117.196186 156.88296 
L 119.238912 156.903512 
L 121.438771 156.873379 
L 123.795763 156.872165 
L 126.324173 156.848276 
L 129.066854 156.822693 
L 132.023808 156.754514 
L 135.237888 156.858413 
L 138.751949 156.622276 
L 142.59456 156.764626 
L 146.822861 156.650842 
L 151.479706 156.454672 
L 156.665088 156.727212 
L 162.450432 156.434954 
L 168.964301 156.132356 
L 176.320973 156.512057 
L 184.73472 156.220835 
L 194.419814 155.213189 
L 205.733376 154.95837 
L 208.161792 155.04963 
L 210.733056 155.193976 
L 213.447168 155.392927 
L 216.16128 155.647746 
L 220.44672 156.134884 
L 223.446528 156.527477 
L 226.589184 156.888066 
L 229.874688 156.403101 
L 233.30304 155.869954 
L 252.301824 152.800753 
L 276.014592 149.582655 
L 306.15552 146.738695 
L 313.29792 146.303885 
L 320.868864 145.98789 
L 328.725504 145.525273 
L 330.43968 145.297756 
L 337.153536 144.316906 
L 346.15296 143.689971 
L 356.723712 143.229881 
L 367.151616 142.850687 
L 378.150912 142.489188 
L 390.007296 142.147913 
L 402.863616 141.829389 
L 416.577024 141.531089 
L 461.8 140.943266 
" style="fill:none;stroke:#ff0000;stroke-linecap:square;stroke-width:1.5;"/>
   </g>
   <g id="line2d_26">
    <path clip-path="url(#p18095279e8)" d="M 102.482842 156.925434 
L 105.954048 156.922021 
L 107.296819 156.921998 
L 108.711014 156.925099 
L 110.210918 156.921878 
L 111.796531 156.911943 
L 113.482138 156.922521 
L 115.282022 156.898777 
L 117.196186 156.912899 
L 119.238912 156.88522 
L 121.438771 156.898097 
L 123.795763 156.876254 
L 126.324173 156.870258 
L 129.066854 156.829022 
L 132.023808 156.843737 
L 135.237888 156.720332 
L 138.751949 156.893433 
L 142.59456 156.630531 
L 146.822861 156.633717 
L 151.479706 156.80521 
L 156.665088 156.401391 
L 162.450432 156.437457 
L 168.964301 156.71309 
L 176.320973 155.970632 
L 184.73472 155.645897 
L 194.419814 156.226133 
L 205.733376 156.108376 
L 208.161792 155.714407 
L 210.733056 155.303057 
L 213.447168 154.881567 
L 216.16128 154.457181 
L 220.44672 153.830017 
L 223.446528 153.427357 
L 226.589184 153.042078 
L 229.874688 152.679974 
L 233.30304 152.342493 
L 252.301824 151.098303 
L 276.014592 150.659433 
L 306.15552 151.014295 
L 313.29792 151.191002 
L 320.868864 151.444475 
L 328.725504 151.810924 
L 330.43968 151.855825 
L 337.153536 151.845686 
L 346.15296 151.910865 
L 356.723712 152.10785 
L 367.151616 152.323664 
L 378.150912 152.553962 
L 390.007296 152.791502 
L 402.863616 153.034836 
L 416.577024 153.279619 
L 461.8 153.880315 
" style="fill:none;stroke:#ffa500;stroke-linecap:square;stroke-width:1.5;"/>
   </g>
   <g id="line2d_27">
    <path clip-path="url(#p18095279e8)" d="M 102.482842 156.916752 
L 105.954048 156.89953 
L 107.296819 156.903644 
L 108.711014 156.899067 
L 110.210918 156.894331 
L 111.796531 156.903007 
L 113.482138 156.892462 
L 115.282022 156.892477 
L 117.196186 156.905469 
L 119.238912 156.875863 
L 121.438771 156.895345 
L 123.795763 156.87527 
L 126.324173 156.92232 
L 129.066854 156.794853 
L 132.023808 156.886046 
L 135.237888 156.657037 
L 138.751949 156.722795 
L 142.59456 156.722795 
L 146.822861 156.505387 
L 151.479706 156.705414 
L 156.665088 156.608804 
L 162.450432 156.316514 
L 168.964301 156.481633 
L 176.320973 156.803732 
L 184.73472 156.230912 
L 194.419814 155.7525 
L 205.733376 155.60172 
L 208.161792 155.648214 
L 210.733056 155.72585 
L 213.447168 155.832163 
L 216.16128 155.960203 
L 220.44672 156.154146 
L 223.446528 156.225843 
L 226.589184 156.178769 
L 229.874688 155.984971 
L 233.30304 155.668347 
L 252.301824 152.745153 
L 276.014592 146.505374 
L 306.15552 125.170197 
L 313.29792 112.062026 
L 320.868864 87.120291 
L 328.725504 49.838047 
L 330.43968 46.970182 
L 337.153536 67.610119 
L 346.15296 100.373304 
L 356.723712 118.985458 
L 367.151616 128.24084 
L 378.150912 134.121412 
L 390.007296 138.205947 
L 402.863616 141.233137 
L 416.577024 143.560743 
L 461.8 146.972465 
" style="fill:none;stroke:#000000;stroke-linecap:square;stroke-width:1.5;"/>
   </g>
   <g id="line2d_28">
    <path clip-path="url(#p18095279e8)" d="M 102.482842 156.926362 
L 105.954048 156.930241 
L 107.296819 156.92701 
L 108.711014 156.923874 
L 110.210918 156.923705 
L 111.796531 156.91668 
L 113.482138 156.915362 
L 115.282022 156.910843 
L 117.196186 156.905614 
L 119.238912 156.905324 
L 121.438771 156.903745 
L 123.795763 156.917346 
L 126.324173 156.923405 
L 129.066854 156.916955 
L 132.023808 156.872069 
L 135.237888 156.860974 
L 138.751949 156.807962 
L 142.59456 156.751908 
L 146.822861 156.694695 
L 151.479706 156.584905 
L 156.665088 156.483806 
L 162.450432 156.256549 
L 168.964301 156.034507 
L 176.320973 155.510615 
L 184.73472 154.528154 
L 194.419814 154.302201 
L 205.733376 152.788605 
L 208.161792 151.787749 
L 210.733056 150.684056 
L 213.447168 149.561533 
L 216.16128 148.48536 
L 220.44672 147.052875 
L 223.446528 146.249004 
L 226.589184 145.568248 
L 229.874688 145.000469 
L 233.30304 144.53263 
L 252.301824 143.317409 
L 276.014592 143.630267 
L 306.15552 145.275668 
L 313.29792 145.71309 
L 320.868864 146.172238 
L 328.725504 146.64587 
L 330.43968 146.741466 
L 337.153536 147.129642 
L 346.15296 147.623552 
L 356.723712 148.171053 
L 367.151616 148.66786 
L 378.150912 149.163219 
L 390.007296 149.654232 
L 402.863616 150.138003 
L 416.577024 150.611635 
L 461.8 151.715342 
" style="fill:none;stroke:#9932cc;stroke-linecap:square;stroke-width:1.5;"/>
   </g>
   <g id="line2d_29">
    <path clip-path="url(#p18095279e8)" d="M 102.482842 156.933818 
L 107.23968 156.933126 
L 108.653875 156.933028 
L 110.153779 156.931659 
L 111.739392 156.931831 
L 113.410714 156.931193 
L 115.210598 156.929408 
L 117.124762 156.92937 
L 119.153203 156.927606 
L 121.338778 156.925369 
L 123.69577 156.925146 
L 126.224179 156.926274 
L 128.952576 156.933089 
L 131.895245 156.9311 
L 135.109325 156.912329 
L 138.609101 156.901489 
L 142.437427 156.888066 
L 146.637158 156.842082 
L 151.294003 156.820392 
L 156.450816 156.73563 
L 162.20759 156.668538 
L 168.678605 156.573486 
L 176.006707 156.362654 
L 184.3776 156.125278 
L 194.005555 155.380793 
L 205.161984 153.988896 
L 218.446848 153.801826 
L 221.446656 154.138046 
L 224.446464 154.36809 
L 227.017728 154.221469 
L 230.160384 153.473191 
L 233.588736 152.292632 
L 236.731392 151.086793 
L 256.587264 145.30534 
L 281.442816 141.174647 
L 287.156736 140.426369 
L 293.156352 139.700844 
L 299.584512 138.995542 
L 306.15552 138.318047 
L 313.29792 137.675944 
L 320.868864 137.071761 
L 328.725504 136.530777 
L 337.153536 136.088383 
L 340.724736 135.916482 
L 346.15296 135.572678 
L 355.723776 135.026638 
L 367.151616 134.541269 
L 378.150912 134.159547 
L 390.007296 133.823327 
L 402.863616 133.5225 
L 416.577024 133.254536 
L 461.8 132.78504 
" style="fill:none;stroke:#0000ff;stroke-dasharray:9.6,2.4,1.5,2.4;stroke-dashoffset:0;stroke-width:1.5;"/>
   </g>
   <g id="line2d_30">
    <path clip-path="url(#p18095279e8)" d="M 102.482842 156.922489 
L 107.23968 156.93025 
L 108.653875 156.930738 
L 110.153779 156.924929 
L 111.739392 156.926461 
L 113.410714 156.914514 
L 115.210598 156.91513 
L 117.124762 156.904371 
L 119.153203 156.903562 
L 121.338778 156.901489 
L 123.69577 156.914979 
L 126.224179 156.906444 
L 128.952576 156.86223 
L 131.895245 156.847619 
L 135.109325 156.784925 
L 138.609101 156.712094 
L 142.437427 156.694424 
L 146.637158 156.62177 
L 151.294003 156.475401 
L 156.450816 156.478182 
L 162.20759 156.301983 
L 168.678605 156.149041 
L 176.006707 156.228672 
L 184.3776 155.907368 
L 194.005555 155.2458 
L 205.161984 154.978847 
L 218.446848 155.393938 
L 221.446656 155.582272 
L 224.446464 155.723837 
L 227.017728 155.727882 
L 230.160384 155.544099 
L 233.588736 155.191448 
L 236.731392 154.786974 
L 256.587264 151.926077 
L 281.442816 148.677644 
L 287.156736 148.045653 
L 293.156352 147.431357 
L 299.584512 146.834758 
L 306.15552 146.26091 
L 313.29792 145.709814 
L 320.868864 145.181469 
L 328.725504 144.678405 
L 337.153536 144.198091 
L 340.724736 144.01355 
L 346.15296 143.745586 
L 355.723776 143.313304 
L 367.151616 142.868382 
L 378.150912 142.489188 
L 390.007296 142.135273 
L 402.863616 141.806638 
L 416.577024 141.503282 
L 461.8 140.906552 
" style="fill:none;stroke:#008000;stroke-dasharray:9.6,2.4,1.5,2.4;stroke-dashoffset:0;stroke-width:1.5;"/>
   </g>
   <g id="line2d_31">
    <path clip-path="url(#p18095279e8)" d="M 102.482842 156.930602 
L 107.23968 156.922588 
L 108.653875 156.923361 
L 110.153779 156.921122 
L 111.739392 156.922633 
L 113.410714 156.91754 
L 115.210598 156.91852 
L 117.124762 156.902298 
L 119.153203 156.911179 
L 121.338778 156.884931 
L 123.69577 156.89426 
L 126.224179 156.866502 
L 128.952576 156.874162 
L 131.895245 156.816626 
L 135.109325 156.877044 
L 138.609101 156.703373 
L 142.437427 156.750191 
L 146.637158 156.732141 
L 151.294003 156.500175 
L 156.450816 156.638708 
L 162.20759 156.584104 
L 168.678605 156.182916 
L 176.006707 156.377822 
L 184.3776 156.495372 
L 194.005555 155.454357 
L 205.161984 154.903766 
L 218.446848 155.585052 
L 221.446656 155.894728 
L 224.446464 156.253952 
L 227.017728 156.54037 
L 230.160384 156.558066 
L 233.588736 156.100757 
L 236.731392 155.592131 
L 256.587264 152.355831 
L 281.442816 149.17818 
L 287.156736 148.591693 
L 293.156352 148.022901 
L 299.584512 147.484445 
L 306.15552 146.976324 
L 313.29792 146.518762 
L 320.868864 146.131984 
L 328.725504 145.858964 
L 337.153536 145.398874 
L 340.724736 144.779523 
L 346.15296 143.755698 
L 355.723776 143.128763 
L 367.151616 142.795071 
L 378.150912 142.491716 
L 390.007296 142.185832 
L 402.863616 141.887532 
L 416.577024 141.599345 
L 461.8 141.010248 
" style="fill:none;stroke:#ff0000;stroke-dasharray:9.6,2.4,1.5,2.4;stroke-dashoffset:0;stroke-width:1.5;"/>
   </g>
   <g id="line2d_32">
    <path clip-path="url(#p18095279e8)" d="M 102.482842 156.92944 
L 107.23968 156.921164 
L 108.653875 156.919243 
L 110.153779 156.921507 
L 111.739392 156.917795 
L 113.410714 156.919681 
L 115.210598 156.908554 
L 117.124762 156.914869 
L 119.153203 156.891188 
L 121.338778 156.904919 
L 123.69577 156.873111 
L 126.224179 156.88929 
L 128.952576 156.84281 
L 131.895245 156.892462 
L 135.109325 156.771027 
L 138.609101 156.863972 
L 142.437427 156.667175 
L 146.637158 156.593596 
L 151.294003 156.807237 
L 156.450816 156.438615 
L 162.20759 156.322597 
L 168.678605 156.732789 
L 176.006707 156.090416 
L 184.3776 155.55204 
L 194.005555 155.886479 
L 205.161984 156.540439 
L 218.446848 154.184879 
L 221.446656 153.692417 
L 224.446464 153.217337 
L 227.017728 152.855233 
L 230.160384 152.430846 
L 233.588736 152.039774 
L 236.731392 151.716777 
L 256.587264 150.465345 
L 281.442816 150.100344 
L 287.156736 150.127864 
L 293.156352 150.187249 
L 299.584512 150.277051 
L 306.15552 150.397269 
L 313.29792 150.547905 
L 320.868864 150.731854 
L 328.725504 150.972291 
L 337.153536 151.319911 
L 340.724736 151.443026 
L 346.15296 151.492272 
L 355.723776 151.584971 
L 367.151616 151.812373 
L 378.150912 152.054258 
L 390.007296 152.309179 
L 402.863616 152.572791 
L 416.577024 152.840748 
L 461.8 153.504868 
" style="fill:none;stroke:#ffa500;stroke-dasharray:9.6,2.4,1.5,2.4;stroke-dashoffset:0;stroke-width:1.5;"/>
   </g>
   <g id="line2d_33">
    <path clip-path="url(#p18095279e8)" d="M 102.482842 156.931694 
L 107.23968 156.930395 
L 108.653875 156.929106 
L 110.153779 156.928884 
L 111.739392 156.929377 
L 113.410714 156.925854 
L 115.210598 156.927834 
L 117.124762 156.924019 
L 119.153203 156.922208 
L 121.338778 156.920892 
L 123.69577 156.914666 
L 126.224179 156.92055 
L 128.952576 156.904861 
L 131.895245 156.924309 
L 135.109325 156.853196 
L 138.609101 156.847923 
L 142.437427 156.839421 
L 146.637158 156.724967 
L 151.294003 156.796258 
L 156.450816 156.778848 
L 162.20759 156.601273 
L 168.678605 156.659209 
L 176.006707 156.831484 
L 184.3776 156.584616 
L 194.005555 156.265674 
L 205.161984 156.005104 
L 218.446848 156.173845 
L 221.446656 156.272192 
L 224.446464 156.355621 
L 227.017728 156.371843 
L 230.160384 156.276827 
L 233.588736 156.050729 
L 236.731392 155.762205 
L 256.587264 153.060908 
L 281.442816 147.574305 
L 287.156736 145.746404 
L 293.156352 143.433282 
L 299.584512 140.378572 
L 306.15552 136.134711 
L 313.29792 129.80513 
L 320.868864 119.289625 
L 328.725504 99.460801 
L 337.153536 63.351774 
L 340.724736 53.835677 
L 346.15296 65.987892 
L 355.723776 100.70644 
L 367.151616 120.549748 
L 378.150912 129.993424 
L 390.007296 135.830543 
L 402.863616 139.784721 
L 416.577024 142.674312 
L 461.8 146.508126 
" style="fill:none;stroke:#000000;stroke-dasharray:9.6,2.4,1.5,2.4;stroke-dashoffset:0;stroke-width:1.5;"/>
   </g>
   <g id="line2d_34">
    <path clip-path="url(#p18095279e8)" d="M 102.482842 156.933534 
L 107.23968 156.932437 
L 108.653875 156.932189 
L 110.153779 156.932156 
L 111.739392 156.930592 
L 113.410714 156.930279 
L 115.210598 156.92932 
L 117.124762 156.92776 
L 119.153203 156.926449 
L 121.338778 156.924336 
L 123.69577 156.922282 
L 126.224179 156.926112 
L 128.952576 156.926045 
L 131.895245 156.924685 
L 135.109325 156.920266 
L 138.609101 156.900718 
L 142.437427 156.869432 
L 146.637158 156.853326 
L 151.294003 156.774503 
L 156.450816 156.729747 
L 162.20759 156.607501 
L 168.678605 156.43847 
L 176.006707 156.219904 
L 184.3776 155.666464 
L 194.005555 155.179941 
L 205.161984 154.286268 
L 218.446848 146.916724 
L 221.446656 145.158346 
L 224.446464 143.712827 
L 227.017728 142.848122 
L 230.160384 142.116672 
L 233.588736 141.711115 
L 236.731392 141.537305 
L 256.587264 141.928377 
L 281.442816 143.447766 
L 287.156736 143.857668 
L 293.156352 144.293642 
L 299.584512 144.749893 
L 306.15552 145.223525 
L 313.29792 145.710193 
L 320.868864 146.204103 
L 328.725504 146.702359 
L 337.153536 147.203511 
L 340.724736 147.403392 
L 346.15296 147.703215 
L 355.723776 148.204367 
L 367.151616 148.75042 
L 378.150912 149.242881 
L 390.007296 149.728101 
L 402.863616 150.20463 
L 416.577024 150.673917 
L 461.8 151.760857 
" style="fill:none;stroke:#9932cc;stroke-dasharray:9.6,2.4,1.5,2.4;stroke-dashoffset:0;stroke-width:1.5;"/>
   </g>
   <g id="line2d_35">
    <path clip-path="url(#p18095279e8)" d="M 102.482842 156.933012 
L 108.396749 156.933629 
L 109.868083 156.933136 
L 111.439411 156.932419 
L 113.110733 156.931737 
L 114.882048 156.930445 
L 116.767642 156.930622 
L 118.781798 156.931064 
L 120.938803 156.930513 
L 123.252941 156.929555 
L 125.752781 156.927439 
L 128.438323 156.924345 
L 131.352422 156.921425 
L 134.509363 156.915681 
L 137.952 156.906267 
L 141.723187 156.901287 
L 145.851494 156.878965 
L 150.42263 156.864101 
L 155.47945 156.829721 
L 161.121946 156.78088 
L 167.464397 156.740256 
L 174.621082 156.631377 
L 182.777702 156.497394 
L 192.162816 156.219066 
L 203.019264 155.514775 
L 215.875584 154.9068 
L 231.16032 154.69799 
L 234.588672 153.751267 
L 238.159872 152.090395 
L 241.87392 149.835451 
L 245.730816 147.307487 
L 249.73056 144.936257 
L 254.016 143.025116 
L 258.444288 141.62968 
L 263.015424 140.631134 
L 267.729408 139.882857 
L 272.871936 139.27109 
L 278.157312 138.727577 
L 309.01248 136.27798 
L 316.297728 135.838115 
L 323.868672 135.436168 
L 332.011008 135.115117 
L 340.724736 134.746034 
L 350.009856 134.318808 
L 356.723712 134.073596 
L 367.151616 133.77024 
L 378.150912 133.502276 
L 390.007296 133.262119 
L 402.863616 133.04977 
L 416.577024 132.857645 
L 461.8 132.514112 
" style="fill:none;stroke:#0000ff;stroke-dasharray:1.5,2.475;stroke-dashoffset:0;stroke-width:1.5;"/>
   </g>
   <g id="line2d_36">
    <path clip-path="url(#p18095279e8)" d="M 102.482842 156.929641 
L 108.396749 156.930945 
L 109.868083 156.926751 
L 111.439411 156.92549 
L 113.110733 156.912539 
L 114.882048 156.91509 
L 116.767642 156.911076 
L 118.781798 156.931173 
L 120.938803 156.921963 
L 123.252941 156.899063 
L 125.752781 156.895928 
L 128.438323 156.857402 
L 131.352422 156.84274 
L 134.509363 156.818117 
L 137.952 156.759949 
L 141.723187 156.723394 
L 145.851494 156.710274 
L 150.42263 156.571717 
L 155.47945 156.537589 
L 161.121946 156.463267 
L 167.464397 156.255974 
L 174.621082 156.248643 
L 182.777702 156.131345 
L 192.162816 155.454862 
L 203.019264 155.013732 
L 215.875584 155.290039 
L 231.16032 155.892705 
L 234.588672 155.964247 
L 238.159872 155.705889 
L 241.87392 155.172236 
L 245.730816 154.524319 
L 249.73056 153.83469 
L 254.016 153.131916 
L 258.444288 152.41903 
L 263.015424 151.706144 
L 267.729408 150.998314 
L 272.871936 150.300596 
L 278.157312 149.620574 
L 309.01248 146.544042 
L 316.297728 145.998002 
L 323.868672 145.472185 
L 332.011008 144.971648 
L 340.724736 144.491335 
L 350.009856 144.031246 
L 356.723712 143.725362 
L 367.151616 143.303192 
L 378.150912 142.906302 
L 390.007296 142.532163 
L 402.863616 142.183304 
L 416.577024 141.854669 
L 461.8 141.203228 
" style="fill:none;stroke:#008000;stroke-dasharray:1.5,2.475;stroke-dashoffset:0;stroke-width:1.5;"/>
   </g>
   <g id="line2d_37">
    <path clip-path="url(#p18095279e8)" d="M 102.482842 156.930895 
L 108.396749 156.925993 
L 109.868083 156.923652 
L 111.439411 156.927517 
L 113.110733 156.921845 
L 114.882048 156.922454 
L 116.767642 156.913055 
L 118.781798 156.917524 
L 120.938803 156.902248 
L 123.252941 156.908492 
L 125.752781 156.884679 
L 128.438323 156.892894 
L 131.352422 156.838417 
L 134.509363 156.8776 
L 137.952 156.778529 
L 141.723187 156.75421 
L 145.851494 156.82196 
L 150.42263 156.600283 
L 155.47945 156.614439 
L 161.121946 156.729639 
L 167.464397 156.321195 
L 174.621082 156.320437 
L 182.777702 156.673088 
L 192.162816 155.850741 
L 203.019264 155.042551 
L 215.875584 155.244788 
L 231.16032 156.429392 
L 234.588672 156.096965 
L 238.159872 155.559773 
L 241.87392 154.94573 
L 245.730816 154.292252 
L 249.73056 153.622341 
L 254.016 152.944847 
L 258.444288 152.272408 
L 263.015424 151.61261 
L 267.729408 150.970507 
L 272.871936 150.348628 
L 278.157312 149.744444 
L 309.01248 147.128002 
L 316.297728 146.751335 
L 323.868672 146.488427 
L 332.011008 146.040977 
L 340.724736 144.243595 
L 350.009856 143.518069 
L 356.723712 143.308248 
L 367.151616 143.017532 
L 378.150912 142.709121 
L 390.007296 142.398181 
L 402.863616 142.092297 
L 416.577024 141.799054 
L 461.8 141.185783 
" style="fill:none;stroke:#ff0000;stroke-dasharray:1.5,2.475;stroke-dashoffset:0;stroke-width:1.5;"/>
   </g>
   <g id="line2d_38">
    <path clip-path="url(#p18095279e8)" d="M 102.482842 156.931428 
L 108.396749 156.92298 
L 109.868083 156.924288 
L 111.439411 156.921278 
L 113.110733 156.922397 
L 114.882048 156.916549 
L 116.767642 156.918128 
L 118.781798 156.90825 
L 120.938803 156.917766 
L 123.252941 156.89772 
L 125.752781 156.909785 
L 128.438323 156.862886 
L 131.352422 156.894345 
L 134.509363 156.793246 
L 137.952 156.826299 
L 141.723187 156.765813 
L 145.851494 156.628648 
L 150.42263 156.78189 
L 155.47945 156.583022 
L 161.121946 156.353159 
L 167.464397 156.630386 
L 174.621082 156.345772 
L 182.777702 155.713972 
L 192.162816 155.730484 
L 203.019264 156.739741 
L 215.875584 154.914881 
L 231.16032 152.456918 
L 234.588672 152.060052 
L 238.159872 151.700844 
L 241.87392 151.379296 
L 245.730816 151.098303 
L 249.73056 150.853521 
L 254.016 150.646397 
L 258.444288 150.475484 
L 263.015424 150.340781 
L 267.729408 150.239392 
L 272.871936 150.172765 
L 278.157312 150.139451 
L 309.01248 150.446516 
L 316.297728 150.601496 
L 323.868672 150.805723 
L 332.011008 151.098303 
L 340.724736 151.290943 
L 350.009856 151.389435 
L 356.723712 151.519792 
L 367.151616 151.742849 
L 378.150912 151.986183 
L 390.007296 152.241104 
L 402.863616 152.503267 
L 416.577024 152.769776 
L 461.8 153.43754 
" style="fill:none;stroke:#ffa500;stroke-dasharray:1.5,2.475;stroke-dashoffset:0;stroke-width:1.5;"/>
   </g>
   <g id="line2d_39">
    <path clip-path="url(#p18095279e8)" d="M 102.482842 156.932323 
L 108.396749 156.930641 
L 109.868083 156.931998 
L 111.439411 156.929821 
L 113.110733 156.926387 
L 114.882048 156.920308 
L 116.767642 156.912248 
L 118.781798 156.908308 
L 120.938803 156.898893 
L 123.252941 156.892622 
L 125.752781 156.885408 
L 128.438323 156.878108 
L 131.352422 156.871301 
L 134.509363 156.860684 
L 137.952 156.855325 
L 141.723187 156.844433 
L 145.851494 156.808628 
L 150.42263 156.824836 
L 155.47945 156.784787 
L 161.121946 156.708166 
L 167.464397 156.724967 
L 174.621082 156.745535 
L 182.777702 156.670797 
L 192.162816 156.427318 
L 203.019264 156.055219 
L 215.875584 155.983233 
L 231.16032 156.287401 
L 234.588672 156.060868 
L 238.159872 155.682107 
L 241.87392 155.194425 
L 245.730816 154.626646 
L 249.73056 153.998033 
L 254.016 153.30569 
L 258.444288 152.530787 
L 263.015424 151.644356 
L 267.729408 150.61598 
L 272.871936 149.403656 
L 278.157312 147.950894 
L 309.01248 130.775569 
L 316.297728 120.810463 
L 323.868672 102.314182 
L 332.011008 68.160517 
L 340.724736 64.626381 
L 350.009856 98.780045 
L 356.723712 113.582864 
L 367.151616 125.894405 
L 378.150912 133.093036 
L 390.007296 137.80039 
L 402.863616 141.131748 
L 416.577024 143.61868 
L 461.8 147.09018 
" style="fill:none;stroke:#000000;stroke-dasharray:1.5,2.475;stroke-dashoffset:0;stroke-width:1.5;"/>
   </g>
   <g id="line2d_40">
    <path clip-path="url(#p18095279e8)" d="M 102.482842 156.932808 
L 108.396749 156.933454 
L 109.868083 156.932852 
L 111.439411 156.93215 
L 113.110733 156.930913 
L 114.882048 156.929873 
L 116.767642 156.929513 
L 118.781798 156.930122 
L 120.938803 156.92985 
L 123.252941 156.928263 
L 125.752781 156.925868 
L 128.438323 156.923664 
L 131.352422 156.91807 
L 134.509363 156.911842 
L 137.952 156.905628 
L 141.723187 156.886625 
L 145.851494 156.876863 
L 150.42263 156.841912 
L 155.47945 156.808367 
L 161.121946 156.760454 
L 167.464397 156.659064 
L 174.621082 156.549999 
L 182.777702 156.30623 
L 192.162816 155.962955 
L 203.019264 155.83506 
L 215.875584 152.545271 
L 231.16032 140.566866 
L 234.588672 137.9742 
L 238.159872 136.323005 
L 241.87392 135.743638 
L 245.730816 135.902964 
L 249.73056 136.482331 
L 254.016 137.249992 
L 258.444288 138.061105 
L 263.015424 138.886702 
L 267.729408 139.697816 
L 272.871936 140.479961 
L 278.157312 141.247622 
L 309.01248 144.760032 
L 316.297728 145.394438 
L 323.868672 146.007119 
L 332.011008 146.599521 
L 340.724736 147.171646 
L 350.009856 147.730734 
L 356.723712 148.113116 
L 367.151616 148.647582 
L 378.150912 149.169012 
L 390.007296 149.675958 
L 402.863616 150.169868 
L 416.577024 150.650742 
L 461.8 151.750075 
" style="fill:none;stroke:#9932cc;stroke-dasharray:1.5,2.475;stroke-dashoffset:0;stroke-width:1.5;"/>
   </g>
   <g id="patch_3">
    <path d="M 57.6 162.432 
L 57.6 41.472 
" style="fill:none;stroke:#000000;stroke-linecap:square;stroke-linejoin:miter;stroke-width:0.8;"/>
   </g>
   <g id="patch_4">
    <path d="M 414.72 162.432 
L 414.72 41.472 
" style="fill:none;stroke:#000000;stroke-linecap:square;stroke-linejoin:miter;stroke-width:0.8;"/>
   </g>
   <g id="patch_5">
    <path d="M 57.6 162.432 
L 414.72 162.432 
" style="fill:none;stroke:#000000;stroke-linecap:square;stroke-linejoin:miter;stroke-width:0.8;"/>
   </g>
   <g id="patch_6">
    <path d="M 57.6 41.472 
L 414.72 41.472 
" style="fill:none;stroke:#000000;stroke-linecap:square;stroke-linejoin:miter;stroke-width:0.8;"/>
   </g>
   <g id="legend_1">
    <g id="patch_7">
     <path d="M 63.2 118.327 
L 316.9675 118.327 
Q 318.5675 118.327 318.5675 116.727 
L 318.5675 47.072 
Q 318.5675 45.472 316.9675 45.472 
L 63.2 45.472 
Q 61.6 45.472 61.6 47.072 
L 61.6 116.727 
Q 61.6 118.327 63.2 118.327 
z
" style="fill:#ffffff;opacity:0.8;stroke:#cccccc;stroke-linejoin:miter;"/>
    </g>
    <g id="line2d_41">
     <path d="M 64.8 51.95075 
L 80.8 51.95075 
" style="fill:none;stroke:#0000ff;stroke-linecap:square;stroke-width:1.5;"/>
    </g>
    <g id="line2d_42"/>
    <g id="text_14">
     <!-- Heave (Min) -->
     <defs>
      <path d="M 9.8125 72.90625 
L 19.671875 72.90625 
L 19.671875 43.015625 
L 55.515625 43.015625 
L 55.515625 72.90625 
L 65.375 72.90625 
L 65.375 0 
L 55.515625 0 
L 55.515625 34.71875 
L 19.671875 34.71875 
L 19.671875 0 
L 9.8125 0 
z
" id="DejaVuSans-48"/>
      <path d="M 34.28125 27.484375 
Q 23.390625 27.484375 19.1875 25 
Q 14.984375 22.515625 14.984375 16.5 
Q 14.984375 11.71875 18.140625 8.90625 
Q 21.296875 6.109375 26.703125 6.109375 
Q 34.1875 6.109375 38.703125 11.40625 
Q 43.21875 16.703125 43.21875 25.484375 
L 43.21875 27.484375 
z
M 52.203125 31.203125 
L 52.203125 0 
L 43.21875 0 
L 43.21875 8.296875 
Q 40.140625 3.328125 35.546875 0.953125 
Q 30.953125 -1.421875 24.3125 -1.421875 
Q 15.921875 -1.421875 10.953125 3.296875 
Q 6 8.015625 6 15.921875 
Q 6 25.140625 12.171875 29.828125 
Q 18.359375 34.515625 30.609375 34.515625 
L 43.21875 34.515625 
L 43.21875 35.40625 
Q 43.21875 41.609375 39.140625 45 
Q 35.0625 48.390625 27.6875 48.390625 
Q 23 48.390625 18.546875 47.265625 
Q 14.109375 46.140625 10.015625 43.890625 
L 10.015625 52.203125 
Q 14.9375 54.109375 19.578125 55.046875 
Q 24.21875 56 28.609375 56 
Q 40.484375 56 46.34375 49.84375 
Q 52.203125 43.703125 52.203125 31.203125 
z
" id="DejaVuSans-61"/>
      <path d="M 2.984375 54.6875 
L 12.5 54.6875 
L 29.59375 8.796875 
L 46.6875 54.6875 
L 56.203125 54.6875 
L 35.6875 0 
L 23.484375 0 
z
" id="DejaVuSans-76"/>
      <path d="M 9.8125 72.90625 
L 24.515625 72.90625 
L 43.109375 23.296875 
L 61.8125 72.90625 
L 76.515625 72.90625 
L 76.515625 0 
L 66.890625 0 
L 66.890625 64.015625 
L 48.09375 14.015625 
L 38.1875 14.015625 
L 19.390625 64.015625 
L 19.390625 0 
L 9.8125 0 
z
" id="DejaVuSans-4d"/>
      <path d="M 54.890625 33.015625 
L 54.890625 0 
L 45.90625 0 
L 45.90625 32.71875 
Q 45.90625 40.484375 42.875 44.328125 
Q 39.84375 48.1875 33.796875 48.1875 
Q 26.515625 48.1875 22.3125 43.546875 
Q 18.109375 38.921875 18.109375 30.90625 
L 18.109375 0 
L 9.078125 0 
L 9.078125 54.6875 
L 18.109375 54.6875 
L 18.109375 46.1875 
Q 21.34375 51.125 25.703125 53.5625 
Q 30.078125 56 35.796875 56 
Q 45.21875 56 50.046875 50.171875 
Q 54.890625 44.34375 54.890625 33.015625 
z
" id="DejaVuSans-6e"/>
     </defs>
     <g transform="translate(87.2 54.75075)scale(0.08 -0.08)">
      <use xlink:href="#DejaVuSans-48"/>
      <use x="75.195312" xlink:href="#DejaVuSans-65"/>
      <use x="136.71875" xlink:href="#DejaVuSans-61"/>
      <use x="197.998047" xlink:href="#DejaVuSans-76"/>
      <use x="257.177734" xlink:href="#DejaVuSans-65"/>
      <use x="318.701172" xlink:href="#DejaVuSans-20"/>
      <use x="350.488281" xlink:href="#DejaVuSans-28"/>
      <use x="389.501953" xlink:href="#DejaVuSans-4d"/>
      <use x="475.78125" xlink:href="#DejaVuSans-69"/>
      <use x="503.564453" xlink:href="#DejaVuSans-6e"/>
      <use x="566.943359" xlink:href="#DejaVuSans-29"/>
     </g>
    </g>
    <g id="line2d_43">
     <path d="M 64.8 63.69325 
L 80.8 63.69325 
" style="fill:none;stroke:#008000;stroke-linecap:square;stroke-width:1.5;"/>
    </g>
    <g id="line2d_44"/>
    <g id="text_15">
     <!-- Surge (Min) -->
     <defs>
      <path d="M 53.515625 70.515625 
L 53.515625 60.890625 
Q 47.90625 63.578125 42.921875 64.890625 
Q 37.9375 66.21875 33.296875 66.21875 
Q 25.25 66.21875 20.875 63.09375 
Q 16.5 59.96875 16.5 54.203125 
Q 16.5 49.359375 19.40625 46.890625 
Q 22.3125 44.4375 30.421875 42.921875 
L 36.375 41.703125 
Q 47.40625 39.59375 52.65625 34.296875 
Q 57.90625 29 57.90625 20.125 
Q 57.90625 9.515625 50.796875 4.046875 
Q 43.703125 -1.421875 29.984375 -1.421875 
Q 24.8125 -1.421875 18.96875 -0.25 
Q 13.140625 0.921875 6.890625 3.21875 
L 6.890625 13.375 
Q 12.890625 10.015625 18.65625 8.296875 
Q 24.421875 6.59375 29.984375 6.59375 
Q 38.421875 6.59375 43.015625 9.90625 
Q 47.609375 13.234375 47.609375 19.390625 
Q 47.609375 24.75 44.3125 27.78125 
Q 41.015625 30.8125 33.5 32.328125 
L 27.484375 33.5 
Q 16.453125 35.6875 11.515625 40.375 
Q 6.59375 45.0625 6.59375 53.421875 
Q 6.59375 63.09375 13.40625 68.65625 
Q 20.21875 74.21875 32.171875 74.21875 
Q 37.3125 74.21875 42.625 73.28125 
Q 47.953125 72.359375 53.515625 70.515625 
z
" id="DejaVuSans-53"/>
     </defs>
     <g transform="translate(87.2 66.49325)scale(0.08 -0.08)">
      <use xlink:href="#DejaVuSans-53"/>
      <use x="63.476562" xlink:href="#DejaVuSans-75"/>
      <use x="126.855469" xlink:href="#DejaVuSans-72"/>
      <use x="167.953125" xlink:href="#DejaVuSans-67"/>
      <use x="231.429688" xlink:href="#DejaVuSans-65"/>
      <use x="292.953125" xlink:href="#DejaVuSans-20"/>
      <use x="324.740234" xlink:href="#DejaVuSans-28"/>
      <use x="363.753906" xlink:href="#DejaVuSans-4d"/>
      <use x="450.033203" xlink:href="#DejaVuSans-69"/>
      <use x="477.816406" xlink:href="#DejaVuSans-6e"/>
      <use x="541.195312" xlink:href="#DejaVuSans-29"/>
     </g>
    </g>
    <g id="line2d_45">
     <path d="M 64.8 75.43575 
L 80.8 75.43575 
" style="fill:none;stroke:#ff0000;stroke-linecap:square;stroke-width:1.5;"/>
    </g>
    <g id="line2d_46"/>
    <g id="text_16">
     <!-- Sway (Min) -->
     <defs>
      <path d="M 4.203125 54.6875 
L 13.1875 54.6875 
L 24.421875 12.015625 
L 35.59375 54.6875 
L 46.1875 54.6875 
L 57.421875 12.015625 
L 68.609375 54.6875 
L 77.59375 54.6875 
L 63.28125 0 
L 52.6875 0 
L 40.921875 44.828125 
L 29.109375 0 
L 18.5 0 
z
" id="DejaVuSans-77"/>
      <path d="M 32.171875 -5.078125 
Q 28.375 -14.84375 24.75 -17.8125 
Q 21.140625 -20.796875 15.09375 -20.796875 
L 7.90625 -20.796875 
L 7.90625 -13.28125 
L 13.1875 -13.28125 
Q 16.890625 -13.28125 18.9375 -11.515625 
Q 21 -9.765625 23.484375 -3.21875 
L 25.09375 0.875 
L 2.984375 54.6875 
L 12.5 54.6875 
L 29.59375 11.921875 
L 46.6875 54.6875 
L 56.203125 54.6875 
z
" id="DejaVuSans-79"/>
     </defs>
     <g transform="translate(87.2 78.23575)scale(0.08 -0.08)">
      <use xlink:href="#DejaVuSans-53"/>
      <use x="63.476562" xlink:href="#DejaVuSans-77"/>
      <use x="145.263672" xlink:href="#DejaVuSans-61"/>
      <use x="206.542969" xlink:href="#DejaVuSans-79"/>
      <use x="265.722656" xlink:href="#DejaVuSans-20"/>
      <use x="297.509766" xlink:href="#DejaVuSans-28"/>
      <use x="336.523438" xlink:href="#DejaVuSans-4d"/>
      <use x="422.802734" xlink:href="#DejaVuSans-69"/>
      <use x="450.585938" xlink:href="#DejaVuSans-6e"/>
      <use x="513.964844" xlink:href="#DejaVuSans-29"/>
     </g>
    </g>
    <g id="line2d_47">
     <path d="M 64.8 87.17825 
L 80.8 87.17825 
" style="fill:none;stroke:#ffa500;stroke-linecap:square;stroke-width:1.5;"/>
    </g>
    <g id="line2d_48"/>
    <g id="text_17">
     <!-- Yaw (Min) -->
     <defs>
      <path d="M -0.203125 72.90625 
L 10.40625 72.90625 
L 30.609375 42.921875 
L 50.6875 72.90625 
L 61.28125 72.90625 
L 35.5 34.71875 
L 35.5 0 
L 25.59375 0 
L 25.59375 34.71875 
z
" id="DejaVuSans-59"/>
     </defs>
     <g transform="translate(87.2 89.97825)scale(0.08 -0.08)">
      <use xlink:href="#DejaVuSans-59"/>
      <use x="60.880859" xlink:href="#DejaVuSans-61"/>
      <use x="122.160156" xlink:href="#DejaVuSans-77"/>
      <use x="203.947266" xlink:href="#DejaVuSans-20"/>
      <use x="235.734375" xlink:href="#DejaVuSans-28"/>
      <use x="274.748047" xlink:href="#DejaVuSans-4d"/>
      <use x="361.027344" xlink:href="#DejaVuSans-69"/>
      <use x="388.810547" xlink:href="#DejaVuSans-6e"/>
      <use x="452.189453" xlink:href="#DejaVuSans-29"/>
     </g>
    </g>
    <g id="line2d_49">
     <path d="M 64.8 98.92075 
L 80.8 98.92075 
" style="fill:none;stroke:#000000;stroke-linecap:square;stroke-width:1.5;"/>
    </g>
    <g id="line2d_50"/>
    <g id="text_18">
     <!-- Roll (Min) -->
     <defs>
      <path d="M 44.390625 34.1875 
Q 47.5625 33.109375 50.5625 29.59375 
Q 53.5625 26.078125 56.59375 19.921875 
L 66.609375 0 
L 56 0 
L 46.6875 18.703125 
Q 43.0625 26.03125 39.671875 28.421875 
Q 36.28125 30.8125 30.421875 30.8125 
L 19.671875 30.8125 
L 19.671875 0 
L 9.8125 0 
L 9.8125 72.90625 
L 32.078125 72.90625 
Q 44.578125 72.90625 50.734375 67.671875 
Q 56.890625 62.453125 56.890625 51.90625 
Q 56.890625 45.015625 53.6875 40.46875 
Q 50.484375 35.9375 44.390625 34.1875 
z
M 19.671875 64.796875 
L 19.671875 38.921875 
L 32.078125 38.921875 
Q 39.203125 38.921875 42.84375 42.21875 
Q 46.484375 45.515625 46.484375 51.90625 
Q 46.484375 58.296875 42.84375 61.546875 
Q 39.203125 64.796875 32.078125 64.796875 
z
" id="DejaVuSans-52"/>
     </defs>
     <g transform="translate(87.2 101.72075)scale(0.08 -0.08)">
      <use xlink:href="#DejaVuSans-52"/>
      <use x="69.419922" xlink:href="#DejaVuSans-6f"/>
      <use x="130.601562" xlink:href="#DejaVuSans-6c"/>
      <use x="158.384766" xlink:href="#DejaVuSans-6c"/>
      <use x="186.167969" xlink:href="#DejaVuSans-20"/>
      <use x="217.955078" xlink:href="#DejaVuSans-28"/>
      <use x="256.96875" xlink:href="#DejaVuSans-4d"/>
      <use x="343.248047" xlink:href="#DejaVuSans-69"/>
      <use x="371.03125" xlink:href="#DejaVuSans-6e"/>
      <use x="434.410156" xlink:href="#DejaVuSans-29"/>
     </g>
    </g>
    <g id="line2d_51">
     <path d="M 64.8 110.66325 
L 80.8 110.66325 
" style="fill:none;stroke:#9932cc;stroke-linecap:square;stroke-width:1.5;"/>
    </g>
    <g id="line2d_52"/>
    <g id="text_19">
     <!-- Pitch (Min) -->
     <defs>
      <path d="M 19.671875 64.796875 
L 19.671875 37.40625 
L 32.078125 37.40625 
Q 38.96875 37.40625 42.71875 40.96875 
Q 46.484375 44.53125 46.484375 51.125 
Q 46.484375 57.671875 42.71875 61.234375 
Q 38.96875 64.796875 32.078125 64.796875 
z
M 9.8125 72.90625 
L 32.078125 72.90625 
Q 44.34375 72.90625 50.609375 67.359375 
Q 56.890625 61.8125 56.890625 51.125 
Q 56.890625 40.328125 50.609375 34.8125 
Q 44.34375 29.296875 32.078125 29.296875 
L 19.671875 29.296875 
L 19.671875 0 
L 9.8125 0 
z
" id="DejaVuSans-50"/>
      <path d="M 48.78125 52.59375 
L 48.78125 44.1875 
Q 44.96875 46.296875 41.140625 47.34375 
Q 37.3125 48.390625 33.40625 48.390625 
Q 24.65625 48.390625 19.8125 42.84375 
Q 14.984375 37.3125 14.984375 27.296875 
Q 14.984375 17.28125 19.8125 11.734375 
Q 24.65625 6.203125 33.40625 6.203125 
Q 37.3125 6.203125 41.140625 7.25 
Q 44.96875 8.296875 48.78125 10.40625 
L 48.78125 2.09375 
Q 45.015625 0.34375 40.984375 -0.53125 
Q 36.96875 -1.421875 32.421875 -1.421875 
Q 20.0625 -1.421875 12.78125 6.34375 
Q 5.515625 14.109375 5.515625 27.296875 
Q 5.515625 40.671875 12.859375 48.328125 
Q 20.21875 56 33.015625 56 
Q 37.15625 56 41.109375 55.140625 
Q 45.0625 54.296875 48.78125 52.59375 
z
" id="DejaVuSans-63"/>
      <path d="M 54.890625 33.015625 
L 54.890625 0 
L 45.90625 0 
L 45.90625 32.71875 
Q 45.90625 40.484375 42.875 44.328125 
Q 39.84375 48.1875 33.796875 48.1875 
Q 26.515625 48.1875 22.3125 43.546875 
Q 18.109375 38.921875 18.109375 30.90625 
L 18.109375 0 
L 9.078125 0 
L 9.078125 75.984375 
L 18.109375 75.984375 
L 18.109375 46.1875 
Q 21.34375 51.125 25.703125 53.5625 
Q 30.078125 56 35.796875 56 
Q 45.21875 56 50.046875 50.171875 
Q 54.890625 44.34375 54.890625 33.015625 
z
" id="DejaVuSans-68"/>
     </defs>
     <g transform="translate(87.2 113.46325)scale(0.08 -0.08)">
      <use xlink:href="#DejaVuSans-50"/>
      <use x="60.271484" xlink:href="#DejaVuSans-69"/>
      <use x="88.054688" xlink:href="#DejaVuSans-74"/>
      <use x="127.263672" xlink:href="#DejaVuSans-63"/>
      <use x="182.244141" xlink:href="#DejaVuSans-68"/>
      <use x="245.623047" xlink:href="#DejaVuSans-20"/>
      <use x="277.410156" xlink:href="#DejaVuSans-28"/>
      <use x="316.423828" xlink:href="#DejaVuSans-4d"/>
      <use x="402.703125" xlink:href="#DejaVuSans-69"/>
      <use x="430.486328" xlink:href="#DejaVuSans-6e"/>
      <use x="493.865234" xlink:href="#DejaVuSans-29"/>
     </g>
    </g>
    <g id="line2d_53">
     <path d="M 151.67875 51.95075 
L 167.67875 51.95075 
" style="fill:none;stroke:#0000ff;stroke-dasharray:9.6,2.4,1.5,2.4;stroke-dashoffset:0;stroke-width:1.5;"/>
    </g>
    <g id="line2d_54"/>
    <g id="text_20">
     <!-- Heave (50%) -->
     <defs>
      <path d="M 72.703125 32.078125 
Q 68.453125 32.078125 66.03125 28.46875 
Q 63.625 24.859375 63.625 18.40625 
Q 63.625 12.0625 66.03125 8.421875 
Q 68.453125 4.78125 72.703125 4.78125 
Q 76.859375 4.78125 79.265625 8.421875 
Q 81.6875 12.0625 81.6875 18.40625 
Q 81.6875 24.8125 79.265625 28.4375 
Q 76.859375 32.078125 72.703125 32.078125 
z
M 72.703125 38.28125 
Q 80.421875 38.28125 84.953125 32.90625 
Q 89.5 27.546875 89.5 18.40625 
Q 89.5 9.28125 84.9375 3.921875 
Q 80.375 -1.421875 72.703125 -1.421875 
Q 64.890625 -1.421875 60.34375 3.921875 
Q 55.8125 9.28125 55.8125 18.40625 
Q 55.8125 27.59375 60.375 32.9375 
Q 64.9375 38.28125 72.703125 38.28125 
z
M 22.3125 68.015625 
Q 18.109375 68.015625 15.6875 64.375 
Q 13.28125 60.75 13.28125 54.390625 
Q 13.28125 47.953125 15.671875 44.328125 
Q 18.0625 40.71875 22.3125 40.71875 
Q 26.5625 40.71875 28.96875 44.328125 
Q 31.390625 47.953125 31.390625 54.390625 
Q 31.390625 60.6875 28.953125 64.34375 
Q 26.515625 68.015625 22.3125 68.015625 
z
M 66.40625 74.21875 
L 74.21875 74.21875 
L 28.609375 -1.421875 
L 20.796875 -1.421875 
z
M 22.3125 74.21875 
Q 30.03125 74.21875 34.609375 68.875 
Q 39.203125 63.53125 39.203125 54.390625 
Q 39.203125 45.171875 34.640625 39.84375 
Q 30.078125 34.515625 22.3125 34.515625 
Q 14.546875 34.515625 10.03125 39.859375 
Q 5.515625 45.21875 5.515625 54.390625 
Q 5.515625 63.484375 10.046875 68.84375 
Q 14.59375 74.21875 22.3125 74.21875 
z
" id="DejaVuSans-25"/>
     </defs>
     <g transform="translate(174.07875 54.75075)scale(0.08 -0.08)">
      <use xlink:href="#DejaVuSans-48"/>
      <use x="75.195312" xlink:href="#DejaVuSans-65"/>
      <use x="136.71875" xlink:href="#DejaVuSans-61"/>
      <use x="197.998047" xlink:href="#DejaVuSans-76"/>
      <use x="257.177734" xlink:href="#DejaVuSans-65"/>
      <use x="318.701172" xlink:href="#DejaVuSans-20"/>
      <use x="350.488281" xlink:href="#DejaVuSans-28"/>
      <use x="389.501953" xlink:href="#DejaVuSans-35"/>
      <use x="453.125" xlink:href="#DejaVuSans-30"/>
      <use x="516.748047" xlink:href="#DejaVuSans-25"/>
      <use x="611.767578" xlink:href="#DejaVuSans-29"/>
     </g>
    </g>
    <g id="line2d_55">
     <path d="M 151.67875 63.69325 
L 167.67875 63.69325 
" style="fill:none;stroke:#008000;stroke-dasharray:9.6,2.4,1.5,2.4;stroke-dashoffset:0;stroke-width:1.5;"/>
    </g>
    <g id="line2d_56"/>
    <g id="text_21">
     <!-- Surge (50%) -->
     <g transform="translate(174.07875 66.49325)scale(0.08 -0.08)">
      <use xlink:href="#DejaVuSans-53"/>
      <use x="63.476562" xlink:href="#DejaVuSans-75"/>
      <use x="126.855469" xlink:href="#DejaVuSans-72"/>
      <use x="167.953125" xlink:href="#DejaVuSans-67"/>
      <use x="231.429688" xlink:href="#DejaVuSans-65"/>
      <use x="292.953125" xlink:href="#DejaVuSans-20"/>
      <use x="324.740234" xlink:href="#DejaVuSans-28"/>
      <use x="363.753906" xlink:href="#DejaVuSans-35"/>
      <use x="427.376953" xlink:href="#DejaVuSans-30"/>
      <use x="491" xlink:href="#DejaVuSans-25"/>
      <use x="586.019531" xlink:href="#DejaVuSans-29"/>
     </g>
    </g>
    <g id="line2d_57">
     <path d="M 151.67875 75.43575 
L 167.67875 75.43575 
" style="fill:none;stroke:#ff0000;stroke-dasharray:9.6,2.4,1.5,2.4;stroke-dashoffset:0;stroke-width:1.5;"/>
    </g>
    <g id="line2d_58"/>
    <g id="text_22">
     <!-- Sway (50%) -->
     <g transform="translate(174.07875 78.23575)scale(0.08 -0.08)">
      <use xlink:href="#DejaVuSans-53"/>
      <use x="63.476562" xlink:href="#DejaVuSans-77"/>
      <use x="145.263672" xlink:href="#DejaVuSans-61"/>
      <use x="206.542969" xlink:href="#DejaVuSans-79"/>
      <use x="265.722656" xlink:href="#DejaVuSans-20"/>
      <use x="297.509766" xlink:href="#DejaVuSans-28"/>
      <use x="336.523438" xlink:href="#DejaVuSans-35"/>
      <use x="400.146484" xlink:href="#DejaVuSans-30"/>
      <use x="463.769531" xlink:href="#DejaVuSans-25"/>
      <use x="558.789062" xlink:href="#DejaVuSans-29"/>
     </g>
    </g>
    <g id="line2d_59">
     <path d="M 151.67875 87.17825 
L 167.67875 87.17825 
" style="fill:none;stroke:#ffa500;stroke-dasharray:9.6,2.4,1.5,2.4;stroke-dashoffset:0;stroke-width:1.5;"/>
    </g>
    <g id="line2d_60"/>
    <g id="text_23">
     <!-- Yaw (50%) -->
     <g transform="translate(174.07875 89.97825)scale(0.08 -0.08)">
      <use xlink:href="#DejaVuSans-59"/>
      <use x="60.880859" xlink:href="#DejaVuSans-61"/>
      <use x="122.160156" xlink:href="#DejaVuSans-77"/>
      <use x="203.947266" xlink:href="#DejaVuSans-20"/>
      <use x="235.734375" xlink:href="#DejaVuSans-28"/>
      <use x="274.748047" xlink:href="#DejaVuSans-35"/>
      <use x="338.371094" xlink:href="#DejaVuSans-30"/>
      <use x="401.994141" xlink:href="#DejaVuSans-25"/>
      <use x="497.013672" xlink:href="#DejaVuSans-29"/>
     </g>
    </g>
    <g id="line2d_61">
     <path d="M 151.67875 98.92075 
L 167.67875 98.92075 
" style="fill:none;stroke:#000000;stroke-dasharray:9.6,2.4,1.5,2.4;stroke-dashoffset:0;stroke-width:1.5;"/>
    </g>
    <g id="line2d_62"/>
    <g id="text_24">
     <!-- Roll (50%) -->
     <g transform="translate(174.07875 101.72075)scale(0.08 -0.08)">
      <use xlink:href="#DejaVuSans-52"/>
      <use x="69.419922" xlink:href="#DejaVuSans-6f"/>
      <use x="130.601562" xlink:href="#DejaVuSans-6c"/>
      <use x="158.384766" xlink:href="#DejaVuSans-6c"/>
      <use x="186.167969" xlink:href="#DejaVuSans-20"/>
      <use x="217.955078" xlink:href="#DejaVuSans-28"/>
      <use x="256.96875" xlink:href="#DejaVuSans-35"/>
      <use x="320.591797" xlink:href="#DejaVuSans-30"/>
      <use x="384.214844" xlink:href="#DejaVuSans-25"/>
      <use x="479.234375" xlink:href="#DejaVuSans-29"/>
     </g>
    </g>
    <g id="line2d_63">
     <path d="M 151.67875 110.66325 
L 167.67875 110.66325 
" style="fill:none;stroke:#9932cc;stroke-dasharray:9.6,2.4,1.5,2.4;stroke-dashoffset:0;stroke-width:1.5;"/>
    </g>
    <g id="line2d_64"/>
    <g id="text_25">
     <!-- Pitch (50%) -->
     <g transform="translate(174.07875 113.46325)scale(0.08 -0.08)">
      <use xlink:href="#DejaVuSans-50"/>
      <use x="60.271484" xlink:href="#DejaVuSans-69"/>
      <use x="88.054688" xlink:href="#DejaVuSans-74"/>
      <use x="127.263672" xlink:href="#DejaVuSans-63"/>
      <use x="182.244141" xlink:href="#DejaVuSans-68"/>
      <use x="245.623047" xlink:href="#DejaVuSans-20"/>
      <use x="277.410156" xlink:href="#DejaVuSans-28"/>
      <use x="316.423828" xlink:href="#DejaVuSans-35"/>
      <use x="380.046875" xlink:href="#DejaVuSans-30"/>
      <use x="443.669922" xlink:href="#DejaVuSans-25"/>
      <use x="538.689453" xlink:href="#DejaVuSans-29"/>
     </g>
    </g>
    <g id="line2d_65">
     <path d="M 242.14375 51.95075 
L 258.14375 51.95075 
" style="fill:none;stroke:#0000ff;stroke-dasharray:1.5,2.475;stroke-dashoffset:0;stroke-width:1.5;"/>
    </g>
    <g id="line2d_66"/>
    <g id="text_26">
     <!-- Heave (Max) -->
     <defs>
      <path d="M 54.890625 54.6875 
L 35.109375 28.078125 
L 55.90625 0 
L 45.3125 0 
L 29.390625 21.484375 
L 13.484375 0 
L 2.875 0 
L 24.125 28.609375 
L 4.6875 54.6875 
L 15.28125 54.6875 
L 29.78125 35.203125 
L 44.28125 54.6875 
z
" id="DejaVuSans-78"/>
     </defs>
     <g transform="translate(264.54375 54.75075)scale(0.08 -0.08)">
      <use xlink:href="#DejaVuSans-48"/>
      <use x="75.195312" xlink:href="#DejaVuSans-65"/>
      <use x="136.71875" xlink:href="#DejaVuSans-61"/>
      <use x="197.998047" xlink:href="#DejaVuSans-76"/>
      <use x="257.177734" xlink:href="#DejaVuSans-65"/>
      <use x="318.701172" xlink:href="#DejaVuSans-20"/>
      <use x="350.488281" xlink:href="#DejaVuSans-28"/>
      <use x="389.501953" xlink:href="#DejaVuSans-4d"/>
      <use x="475.78125" xlink:href="#DejaVuSans-61"/>
      <use x="537.060547" xlink:href="#DejaVuSans-78"/>
      <use x="596.240234" xlink:href="#DejaVuSans-29"/>
     </g>
    </g>
    <g id="line2d_67">
     <path d="M 242.14375 63.69325 
L 258.14375 63.69325 
" style="fill:none;stroke:#008000;stroke-dasharray:1.5,2.475;stroke-dashoffset:0;stroke-width:1.5;"/>
    </g>
    <g id="line2d_68"/>
    <g id="text_27">
     <!-- Surge (Max) -->
     <g transform="translate(264.54375 66.49325)scale(0.08 -0.08)">
      <use xlink:href="#DejaVuSans-53"/>
      <use x="63.476562" xlink:href="#DejaVuSans-75"/>
      <use x="126.855469" xlink:href="#DejaVuSans-72"/>
      <use x="167.953125" xlink:href="#DejaVuSans-67"/>
      <use x="231.429688" xlink:href="#DejaVuSans-65"/>
      <use x="292.953125" xlink:href="#DejaVuSans-20"/>
      <use x="324.740234" xlink:href="#DejaVuSans-28"/>
      <use x="363.753906" xlink:href="#DejaVuSans-4d"/>
      <use x="450.033203" xlink:href="#DejaVuSans-61"/>
      <use x="511.3125" xlink:href="#DejaVuSans-78"/>
      <use x="570.492188" xlink:href="#DejaVuSans-29"/>
     </g>
    </g>
    <g id="line2d_69">
     <path d="M 242.14375 75.43575 
L 258.14375 75.43575 
" style="fill:none;stroke:#ff0000;stroke-dasharray:1.5,2.475;stroke-dashoffset:0;stroke-width:1.5;"/>
    </g>
    <g id="line2d_70"/>
    <g id="text_28">
     <!-- Sway (Max) -->
     <g transform="translate(264.54375 78.23575)scale(0.08 -0.08)">
      <use xlink:href="#DejaVuSans-53"/>
      <use x="63.476562" xlink:href="#DejaVuSans-77"/>
      <use x="145.263672" xlink:href="#DejaVuSans-61"/>
      <use x="206.542969" xlink:href="#DejaVuSans-79"/>
      <use x="265.722656" xlink:href="#DejaVuSans-20"/>
      <use x="297.509766" xlink:href="#DejaVuSans-28"/>
      <use x="336.523438" xlink:href="#DejaVuSans-4d"/>
      <use x="422.802734" xlink:href="#DejaVuSans-61"/>
      <use x="484.082031" xlink:href="#DejaVuSans-78"/>
      <use x="543.261719" xlink:href="#DejaVuSans-29"/>
     </g>
    </g>
    <g id="line2d_71">
     <path d="M 242.14375 87.17825 
L 258.14375 87.17825 
" style="fill:none;stroke:#ffa500;stroke-dasharray:1.5,2.475;stroke-dashoffset:0;stroke-width:1.5;"/>
    </g>
    <g id="line2d_72"/>
    <g id="text_29">
     <!-- Yaw (Max) -->
     <g transform="translate(264.54375 89.97825)scale(0.08 -0.08)">
      <use xlink:href="#DejaVuSans-59"/>
      <use x="60.880859" xlink:href="#DejaVuSans-61"/>
      <use x="122.160156" xlink:href="#DejaVuSans-77"/>
      <use x="203.947266" xlink:href="#DejaVuSans-20"/>
      <use x="235.734375" xlink:href="#DejaVuSans-28"/>
      <use x="274.748047" xlink:href="#DejaVuSans-4d"/>
      <use x="361.027344" xlink:href="#DejaVuSans-61"/>
      <use x="422.306641" xlink:href="#DejaVuSans-78"/>
      <use x="481.486328" xlink:href="#DejaVuSans-29"/>
     </g>
    </g>
    <g id="line2d_73">
     <path d="M 242.14375 98.92075 
L 258.14375 98.92075 
" style="fill:none;stroke:#000000;stroke-dasharray:1.5,2.475;stroke-dashoffset:0;stroke-width:1.5;"/>
    </g>
    <g id="line2d_74"/>
    <g id="text_30">
     <!-- Roll (Max) -->
     <g transform="translate(264.54375 101.72075)scale(0.08 -0.08)">
      <use xlink:href="#DejaVuSans-52"/>
      <use x="69.419922" xlink:href="#DejaVuSans-6f"/>
      <use x="130.601562" xlink:href="#DejaVuSans-6c"/>
      <use x="158.384766" xlink:href="#DejaVuSans-6c"/>
      <use x="186.167969" xlink:href="#DejaVuSans-20"/>
      <use x="217.955078" xlink:href="#DejaVuSans-28"/>
      <use x="256.96875" xlink:href="#DejaVuSans-4d"/>
      <use x="343.248047" xlink:href="#DejaVuSans-61"/>
      <use x="404.527344" xlink:href="#DejaVuSans-78"/>
      <use x="463.707031" xlink:href="#DejaVuSans-29"/>
     </g>
    </g>
    <g id="line2d_75">
     <path d="M 242.14375 110.66325 
L 258.14375 110.66325 
" style="fill:none;stroke:#9932cc;stroke-dasharray:1.5,2.475;stroke-dashoffset:0;stroke-width:1.5;"/>
    </g>
    <g id="line2d_76"/>
    <g id="text_31">
     <!-- Pitch (Max) -->
     <g transform="translate(264.54375 113.46325)scale(0.08 -0.08)">
      <use xlink:href="#DejaVuSans-50"/>
      <use x="60.271484" xlink:href="#DejaVuSans-69"/>
      <use x="88.054688" xlink:href="#DejaVuSans-74"/>
      <use x="127.263672" xlink:href="#DejaVuSans-63"/>
      <use x="182.244141" xlink:href="#DejaVuSans-68"/>
      <use x="245.623047" xlink:href="#DejaVuSans-20"/>
      <use x="277.410156" xlink:href="#DejaVuSans-28"/>
      <use x="316.423828" xlink:href="#DejaVuSans-4d"/>
      <use x="402.703125" xlink:href="#DejaVuSans-61"/>
      <use x="463.982422" xlink:href="#DejaVuSans-78"/>
      <use x="523.162109" xlink:href="#DejaVuSans-29"/>
     </g>
    </g>
   </g>
  </g>
  <g id="axes_2">
   <g id="patch_8">
    <path d="M 57.6 307.584 
L 414.72 307.584 
L 414.72 186.624 
L 57.6 186.624 
z
" style="fill:#ffffff;"/>
   </g>
   <g id="patch_9">
    <path clip-path="url(#pd3f71d33b4)" d="M 94.74048 307.584 
L 106.16832 307.584 
L 106.16832 307.03394 
L 94.74048 307.03394 
z
" style="fill:#1f77b4;"/>
   </g>
   <g id="patch_10">
    <path clip-path="url(#pd3f71d33b4)" d="M 123.31008 307.584 
L 134.73792 307.584 
L 134.73792 280.39944 
L 123.31008 280.39944 
z
" style="fill:#ff7f0e;"/>
   </g>
   <g id="patch_11">
    <path clip-path="url(#pd3f71d33b4)" d="M 151.87968 307.584 
L 163.30752 307.584 
L 163.30752 192.384 
L 151.87968 192.384 
z
" style="fill:#2ca02c;"/>
   </g>
   <g id="patch_12">
    <path clip-path="url(#pd3f71d33b4)" d="M 180.44928 307.584 
L 191.87712 307.584 
L 191.87712 238.160598 
L 180.44928 238.160598 
z
" style="fill:#d62728;"/>
   </g>
   <g id="patch_13">
    <path clip-path="url(#pd3f71d33b4)" d="M 209.01888 307.584 
L 220.44672 307.584 
L 220.44672 267.250104 
L 209.01888 267.250104 
z
" style="fill:#9467bd;"/>
   </g>
   <g id="patch_14">
    <path clip-path="url(#pd3f71d33b4)" d="M 237.58848 307.584 
L 249.01632 307.584 
L 249.01632 280.963976 
L 237.58848 280.963976 
z
" style="fill:#8c564b;"/>
   </g>
   <g id="patch_15">
    <path clip-path="url(#pd3f71d33b4)" d="M 266.15808 307.584 
L 277.58592 307.584 
L 277.58592 298.267715 
L 266.15808 298.267715 
z
" style="fill:#e377c2;"/>
   </g>
   <g id="patch_16">
    <path clip-path="url(#pd3f71d33b4)" d="M 294.72768 307.584 
L 306.15552 307.584 
L 306.15552 306.767595 
L 294.72768 306.767595 
z
" style="fill:#7f7f7f;"/>
   </g>
   <g id="patch_17">
    <path clip-path="url(#pd3f71d33b4)" d="M 323.29728 307.584 
L 334.72512 307.584 
L 334.72512 307.523204 
L 323.29728 307.523204 
z
" style="fill:#bcbd22;"/>
   </g>
   <g id="matplotlib.axis_3">
    <g id="xtick_7">
     <g id="line2d_77">
      <path clip-path="url(#pd3f71d33b4)" d="M 57.6 307.584 
L 57.6 186.624 
" style="fill:none;stroke:#b0b0b0;stroke-linecap:square;stroke-width:0.8;"/>
     </g>
     <g id="line2d_78">
      <g>
       <use style="stroke:#000000;stroke-width:0.8;" x="57.6" xlink:href="#mb20ea52fc3" y="307.584"/>
      </g>
     </g>
     <g id="text_32">
      <!-- 0 -->
      <g transform="translate(54.41875 322.182437)scale(0.1 -0.1)">
       <use xlink:href="#DejaVuSans-30"/>
      </g>
     </g>
    </g>
    <g id="xtick_8">
     <g id="line2d_79">
      <path clip-path="url(#pd3f71d33b4)" d="M 129.024 307.584 
L 129.024 186.624 
" style="fill:none;stroke:#b0b0b0;stroke-linecap:square;stroke-width:0.8;"/>
     </g>
     <g id="line2d_80">
      <g>
       <use style="stroke:#000000;stroke-width:0.8;" x="129.024" xlink:href="#mb20ea52fc3" y="307.584"/>
      </g>
     </g>
     <g id="text_33">
      <!-- 5 -->
      <g transform="translate(125.84275 322.182437)scale(0.1 -0.1)">
       <use xlink:href="#DejaVuSans-35"/>
      </g>
     </g>
    </g>
    <g id="xtick_9">
     <g id="line2d_81">
      <path clip-path="url(#pd3f71d33b4)" d="M 200.448 307.584 
L 200.448 186.624 
" style="fill:none;stroke:#b0b0b0;stroke-linecap:square;stroke-width:0.8;"/>
     </g>
     <g id="line2d_82">
      <g>
       <use style="stroke:#000000;stroke-width:0.8;" x="200.448" xlink:href="#mb20ea52fc3" y="307.584"/>
      </g>
     </g>
     <g id="text_34">
      <!-- 10 -->
      <g transform="translate(194.0855 322.182437)scale(0.1 -0.1)">
       <use xlink:href="#DejaVuSans-31"/>
       <use x="63.623047" xlink:href="#DejaVuSans-30"/>
      </g>
     </g>
    </g>
    <g id="xtick_10">
     <g id="line2d_83">
      <path clip-path="url(#pd3f71d33b4)" d="M 271.872 307.584 
L 271.872 186.624 
" style="fill:none;stroke:#b0b0b0;stroke-linecap:square;stroke-width:0.8;"/>
     </g>
     <g id="line2d_84">
      <g>
       <use style="stroke:#000000;stroke-width:0.8;" x="271.872" xlink:href="#mb20ea52fc3" y="307.584"/>
      </g>
     </g>
     <g id="text_35">
      <!-- 15 -->
      <g transform="translate(265.5095 322.182437)scale(0.1 -0.1)">
       <use xlink:href="#DejaVuSans-31"/>
       <use x="63.623047" xlink:href="#DejaVuSans-35"/>
      </g>
     </g>
    </g>
    <g id="xtick_11">
     <g id="line2d_85">
      <path clip-path="url(#pd3f71d33b4)" d="M 343.296 307.584 
L 343.296 186.624 
" style="fill:none;stroke:#b0b0b0;stroke-linecap:square;stroke-width:0.8;"/>
     </g>
     <g id="line2d_86">
      <g>
       <use style="stroke:#000000;stroke-width:0.8;" x="343.296" xlink:href="#mb20ea52fc3" y="307.584"/>
      </g>
     </g>
     <g id="text_36">
      <!-- 20 -->
      <g transform="translate(336.9335 322.182437)scale(0.1 -0.1)">
       <use xlink:href="#DejaVuSans-32"/>
       <use x="63.623047" xlink:href="#DejaVuSans-30"/>
      </g>
     </g>
    </g>
    <g id="xtick_12">
     <g id="line2d_87">
      <path clip-path="url(#pd3f71d33b4)" d="M 414.72 307.584 
L 414.72 186.624 
" style="fill:none;stroke:#b0b0b0;stroke-linecap:square;stroke-width:0.8;"/>
     </g>
     <g id="line2d_88">
      <g>
       <use style="stroke:#000000;stroke-width:0.8;" x="414.72" xlink:href="#mb20ea52fc3" y="307.584"/>
      </g>
     </g>
     <g id="text_37">
      <!-- 25 -->
      <g transform="translate(408.3575 322.182437)scale(0.1 -0.1)">
       <use xlink:href="#DejaVuSans-32"/>
       <use x="63.623047" xlink:href="#DejaVuSans-35"/>
      </g>
     </g>
    </g>
    <g id="text_38">
     <!-- AvgerageTP -->
     <g transform="translate(206.094375 335.860562)scale(0.1 -0.1)">
      <use xlink:href="#DejaVuSans-41"/>
      <use x="68.330078" xlink:href="#DejaVuSans-76"/>
      <use x="127.509766" xlink:href="#DejaVuSans-67"/>
      <use x="190.986328" xlink:href="#DejaVuSans-65"/>
      <use x="252.509766" xlink:href="#DejaVuSans-72"/>
      <use x="293.623047" xlink:href="#DejaVuSans-61"/>
      <use x="354.902344" xlink:href="#DejaVuSans-67"/>
      <use x="418.378906" xlink:href="#DejaVuSans-65"/>
      <use x="479.902344" xlink:href="#DejaVuSans-54"/>
      <use x="540.986328" xlink:href="#DejaVuSans-50"/>
     </g>
    </g>
   </g>
   <g id="matplotlib.axis_4">
    <g id="ytick_6">
     <g id="line2d_89">
      <path clip-path="url(#pd3f71d33b4)" d="M 57.6 307.584 
L 414.72 307.584 
" style="fill:none;stroke:#b0b0b0;stroke-linecap:square;stroke-width:0.8;"/>
     </g>
     <g id="line2d_90">
      <g>
       <use style="stroke:#000000;stroke-width:0.8;" x="57.6" xlink:href="#m8b15fc3744" y="307.584"/>
      </g>
     </g>
     <g id="text_39">
      <!-- 0 -->
      <g transform="translate(44.2375 311.383219)scale(0.1 -0.1)">
       <use xlink:href="#DejaVuSans-30"/>
      </g>
     </g>
    </g>
    <g id="ytick_7">
     <g id="line2d_91">
      <path clip-path="url(#pd3f71d33b4)" d="M 57.6 278.633457 
L 414.72 278.633457 
" style="fill:none;stroke:#b0b0b0;stroke-linecap:square;stroke-width:0.8;"/>
     </g>
     <g id="line2d_92">
      <g>
       <use style="stroke:#000000;stroke-width:0.8;" x="57.6" xlink:href="#m8b15fc3744" y="278.633457"/>
      </g>
     </g>
     <g id="text_40">
      <!-- 10 -->
      <g transform="translate(37.875 282.432676)scale(0.1 -0.1)">
       <use xlink:href="#DejaVuSans-31"/>
       <use x="63.623047" xlink:href="#DejaVuSans-30"/>
      </g>
     </g>
    </g>
    <g id="ytick_8">
     <g id="line2d_93">
      <path clip-path="url(#pd3f71d33b4)" d="M 57.6 249.682914 
L 414.72 249.682914 
" style="fill:none;stroke:#b0b0b0;stroke-linecap:square;stroke-width:0.8;"/>
     </g>
     <g id="line2d_94">
      <g>
       <use style="stroke:#000000;stroke-width:0.8;" x="57.6" xlink:href="#m8b15fc3744" y="249.682914"/>
      </g>
     </g>
     <g id="text_41">
      <!-- 20 -->
      <g transform="translate(37.875 253.482133)scale(0.1 -0.1)">
       <use xlink:href="#DejaVuSans-32"/>
       <use x="63.623047" xlink:href="#DejaVuSans-30"/>
      </g>
     </g>
    </g>
    <g id="ytick_9">
     <g id="line2d_95">
      <path clip-path="url(#pd3f71d33b4)" d="M 57.6 220.732372 
L 414.72 220.732372 
" style="fill:none;stroke:#b0b0b0;stroke-linecap:square;stroke-width:0.8;"/>
     </g>
     <g id="line2d_96">
      <g>
       <use style="stroke:#000000;stroke-width:0.8;" x="57.6" xlink:href="#m8b15fc3744" y="220.732372"/>
      </g>
     </g>
     <g id="text_42">
      <!-- 30 -->
      <g transform="translate(37.875 224.53159)scale(0.1 -0.1)">
       <use xlink:href="#DejaVuSans-33"/>
       <use x="63.623047" xlink:href="#DejaVuSans-30"/>
      </g>
     </g>
    </g>
    <g id="ytick_10">
     <g id="line2d_97">
      <path clip-path="url(#pd3f71d33b4)" d="M 57.6 191.781829 
L 414.72 191.781829 
" style="fill:none;stroke:#b0b0b0;stroke-linecap:square;stroke-width:0.8;"/>
     </g>
     <g id="line2d_98">
      <g>
       <use style="stroke:#000000;stroke-width:0.8;" x="57.6" xlink:href="#m8b15fc3744" y="191.781829"/>
      </g>
     </g>
     <g id="text_43">
      <!-- 40 -->
      <g transform="translate(37.875 195.581047)scale(0.1 -0.1)">
       <use xlink:href="#DejaVuSans-34"/>
       <use x="63.623047" xlink:href="#DejaVuSans-30"/>
      </g>
     </g>
    </g>
    <g id="text_44">
     <!-- SumPer -->
     <g transform="translate(31.795312 266.461812)rotate(-90)scale(0.1 -0.1)">
      <use xlink:href="#DejaVuSans-53"/>
      <use x="63.476562" xlink:href="#DejaVuSans-75"/>
      <use x="126.855469" xlink:href="#DejaVuSans-6d"/>
      <use x="224.267578" xlink:href="#DejaVuSans-50"/>
      <use x="284.523438" xlink:href="#DejaVuSans-65"/>
      <use x="346.046875" xlink:href="#DejaVuSans-72"/>
     </g>
    </g>
   </g>
   <g id="patch_18">
    <path d="M 57.6 307.584 
L 57.6 186.624 
" style="fill:none;stroke:#000000;stroke-linecap:square;stroke-linejoin:miter;stroke-width:0.8;"/>
   </g>
   <g id="patch_19">
    <path d="M 414.72 307.584 
L 414.72 186.624 
" style="fill:none;stroke:#000000;stroke-linecap:square;stroke-linejoin:miter;stroke-width:0.8;"/>
   </g>
   <g id="patch_20">
    <path d="M 57.6 307.584 
L 414.72 307.584 
" style="fill:none;stroke:#000000;stroke-linecap:square;stroke-linejoin:miter;stroke-width:0.8;"/>
   </g>
   <g id="patch_21">
    <path d="M 57.6 186.624 
L 414.72 186.624 
" style="fill:none;stroke:#000000;stroke-linecap:square;stroke-linejoin:miter;stroke-width:0.8;"/>
   </g>
   <g id="legend_2">
    <g id="patch_22">
     <path d="M 245.47875 228.2515 
L 409.12 228.2515 
Q 410.72 228.2515 410.72 226.6515 
L 410.72 192.224 
Q 410.72 190.624 409.12 190.624 
L 245.47875 190.624 
Q 243.87875 190.624 243.87875 192.224 
L 243.87875 226.6515 
Q 243.87875 228.2515 245.47875 228.2515 
z
" style="fill:#ffffff;opacity:0.8;stroke:#cccccc;stroke-linejoin:miter;"/>
    </g>
    <g id="patch_23">
     <path d="M 247.07875 199.90275 
L 263.07875 199.90275 
L 263.07875 194.30275 
L 247.07875 194.30275 
z
" style="fill:#1f77b4;"/>
    </g>
    <g id="text_45">
     <!-- Bin 1 -->
     <defs>
      <path d="M 19.671875 34.8125 
L 19.671875 8.109375 
L 35.5 8.109375 
Q 43.453125 8.109375 47.28125 11.40625 
Q 51.125 14.703125 51.125 21.484375 
Q 51.125 28.328125 47.28125 31.5625 
Q 43.453125 34.8125 35.5 34.8125 
z
M 19.671875 64.796875 
L 19.671875 42.828125 
L 34.28125 42.828125 
Q 41.5 42.828125 45.03125 45.53125 
Q 48.578125 48.25 48.578125 53.8125 
Q 48.578125 59.328125 45.03125 62.0625 
Q 41.5 64.796875 34.28125 64.796875 
z
M 9.8125 72.90625 
L 35.015625 72.90625 
Q 46.296875 72.90625 52.390625 68.21875 
Q 58.5 63.53125 58.5 54.890625 
Q 58.5 48.1875 55.375 44.234375 
Q 52.25 40.28125 46.1875 39.3125 
Q 53.46875 37.75 57.5 32.78125 
Q 61.53125 27.828125 61.53125 20.40625 
Q 61.53125 10.640625 54.890625 5.3125 
Q 48.25 0 35.984375 0 
L 9.8125 0 
z
" id="DejaVuSans-42"/>
     </defs>
     <g transform="translate(269.47875 199.90275)scale(0.08 -0.08)">
      <use xlink:href="#DejaVuSans-42"/>
      <use x="68.603516" xlink:href="#DejaVuSans-69"/>
      <use x="96.386719" xlink:href="#DejaVuSans-6e"/>
      <use x="159.765625" xlink:href="#DejaVuSans-20"/>
      <use x="191.552734" xlink:href="#DejaVuSans-31"/>
     </g>
    </g>
    <g id="patch_24">
     <path d="M 247.07875 211.64525 
L 263.07875 211.64525 
L 263.07875 206.04525 
L 247.07875 206.04525 
z
" style="fill:#ff7f0e;"/>
    </g>
    <g id="text_46">
     <!-- Bin 2 -->
     <g transform="translate(269.47875 211.64525)scale(0.08 -0.08)">
      <use xlink:href="#DejaVuSans-42"/>
      <use x="68.603516" xlink:href="#DejaVuSans-69"/>
      <use x="96.386719" xlink:href="#DejaVuSans-6e"/>
      <use x="159.765625" xlink:href="#DejaVuSans-20"/>
      <use x="191.552734" xlink:href="#DejaVuSans-32"/>
     </g>
    </g>
    <g id="patch_25">
     <path d="M 247.07875 223.38775 
L 263.07875 223.38775 
L 263.07875 217.78775 
L 247.07875 217.78775 
z
" style="fill:#2ca02c;"/>
    </g>
    <g id="text_47">
     <!-- Bin 3 -->
     <g transform="translate(269.47875 223.38775)scale(0.08 -0.08)">
      <use xlink:href="#DejaVuSans-42"/>
      <use x="68.603516" xlink:href="#DejaVuSans-69"/>
      <use x="96.386719" xlink:href="#DejaVuSans-6e"/>
      <use x="159.765625" xlink:href="#DejaVuSans-20"/>
      <use x="191.552734" xlink:href="#DejaVuSans-33"/>
     </g>
    </g>
    <g id="patch_26">
     <path d="M 305.8925 199.90275 
L 321.8925 199.90275 
L 321.8925 194.30275 
L 305.8925 194.30275 
z
" style="fill:#d62728;"/>
    </g>
    <g id="text_48">
     <!-- Bin 4 -->
     <g transform="translate(328.2925 199.90275)scale(0.08 -0.08)">
      <use xlink:href="#DejaVuSans-42"/>
      <use x="68.603516" xlink:href="#DejaVuSans-69"/>
      <use x="96.386719" xlink:href="#DejaVuSans-6e"/>
      <use x="159.765625" xlink:href="#DejaVuSans-20"/>
      <use x="191.552734" xlink:href="#DejaVuSans-34"/>
     </g>
    </g>
    <g id="patch_27">
     <path d="M 305.8925 211.64525 
L 321.8925 211.64525 
L 321.8925 206.04525 
L 305.8925 206.04525 
z
" style="fill:#9467bd;"/>
    </g>
    <g id="text_49">
     <!-- Bin 5 -->
     <g transform="translate(328.2925 211.64525)scale(0.08 -0.08)">
      <use xlink:href="#DejaVuSans-42"/>
      <use x="68.603516" xlink:href="#DejaVuSans-69"/>
      <use x="96.386719" xlink:href="#DejaVuSans-6e"/>
      <use x="159.765625" xlink:href="#DejaVuSans-20"/>
      <use x="191.552734" xlink:href="#DejaVuSans-35"/>
     </g>
    </g>
    <g id="patch_28">
     <path d="M 305.8925 223.38775 
L 321.8925 223.38775 
L 321.8925 217.78775 
L 305.8925 217.78775 
z
" style="fill:#8c564b;"/>
    </g>
    <g id="text_50">
     <!-- Bin 6 -->
     <defs>
      <path d="M 33.015625 40.375 
Q 26.375 40.375 22.484375 35.828125 
Q 18.609375 31.296875 18.609375 23.390625 
Q 18.609375 15.53125 22.484375 10.953125 
Q 26.375 6.390625 33.015625 6.390625 
Q 39.65625 6.390625 43.53125 10.953125 
Q 47.40625 15.53125 47.40625 23.390625 
Q 47.40625 31.296875 43.53125 35.828125 
Q 39.65625 40.375 33.015625 40.375 
z
M 52.59375 71.296875 
L 52.59375 62.3125 
Q 48.875 64.0625 45.09375 64.984375 
Q 41.3125 65.921875 37.59375 65.921875 
Q 27.828125 65.921875 22.671875 59.328125 
Q 17.53125 52.734375 16.796875 39.40625 
Q 19.671875 43.65625 24.015625 45.921875 
Q 28.375 48.1875 33.59375 48.1875 
Q 44.578125 48.1875 50.953125 41.515625 
Q 57.328125 34.859375 57.328125 23.390625 
Q 57.328125 12.15625 50.6875 5.359375 
Q 44.046875 -1.421875 33.015625 -1.421875 
Q 20.359375 -1.421875 13.671875 8.265625 
Q 6.984375 17.96875 6.984375 36.375 
Q 6.984375 53.65625 15.1875 63.9375 
Q 23.390625 74.21875 37.203125 74.21875 
Q 40.921875 74.21875 44.703125 73.484375 
Q 48.484375 72.75 52.59375 71.296875 
z
" id="DejaVuSans-36"/>
     </defs>
     <g transform="translate(328.2925 223.38775)scale(0.08 -0.08)">
      <use xlink:href="#DejaVuSans-42"/>
      <use x="68.603516" xlink:href="#DejaVuSans-69"/>
      <use x="96.386719" xlink:href="#DejaVuSans-6e"/>
      <use x="159.765625" xlink:href="#DejaVuSans-20"/>
      <use x="191.552734" xlink:href="#DejaVuSans-36"/>
     </g>
    </g>
    <g id="patch_29">
     <path d="M 364.70625 199.90275 
L 380.70625 199.90275 
L 380.70625 194.30275 
L 364.70625 194.30275 
z
" style="fill:#e377c2;"/>
    </g>
    <g id="text_51">
     <!-- Bin 7 -->
     <defs>
      <path d="M 8.203125 72.90625 
L 55.078125 72.90625 
L 55.078125 68.703125 
L 28.609375 0 
L 18.3125 0 
L 43.21875 64.59375 
L 8.203125 64.59375 
z
" id="DejaVuSans-37"/>
     </defs>
     <g transform="translate(387.10625 199.90275)scale(0.08 -0.08)">
      <use xlink:href="#DejaVuSans-42"/>
      <use x="68.603516" xlink:href="#DejaVuSans-69"/>
      <use x="96.386719" xlink:href="#DejaVuSans-6e"/>
      <use x="159.765625" xlink:href="#DejaVuSans-20"/>
      <use x="191.552734" xlink:href="#DejaVuSans-37"/>
     </g>
    </g>
    <g id="patch_30">
     <path d="M 364.70625 211.64525 
L 380.70625 211.64525 
L 380.70625 206.04525 
L 364.70625 206.04525 
z
" style="fill:#7f7f7f;"/>
    </g>
    <g id="text_52">
     <!-- Bin 8 -->
     <defs>
      <path d="M 31.78125 34.625 
Q 24.75 34.625 20.71875 30.859375 
Q 16.703125 27.09375 16.703125 20.515625 
Q 16.703125 13.921875 20.71875 10.15625 
Q 24.75 6.390625 31.78125 6.390625 
Q 38.8125 6.390625 42.859375 10.171875 
Q 46.921875 13.96875 46.921875 20.515625 
Q 46.921875 27.09375 42.890625 30.859375 
Q 38.875 34.625 31.78125 34.625 
z
M 21.921875 38.8125 
Q 15.578125 40.375 12.03125 44.71875 
Q 8.5 49.078125 8.5 55.328125 
Q 8.5 64.0625 14.71875 69.140625 
Q 20.953125 74.21875 31.78125 74.21875 
Q 42.671875 74.21875 48.875 69.140625 
Q 55.078125 64.0625 55.078125 55.328125 
Q 55.078125 49.078125 51.53125 44.71875 
Q 48 40.375 41.703125 38.8125 
Q 48.828125 37.15625 52.796875 32.3125 
Q 56.78125 27.484375 56.78125 20.515625 
Q 56.78125 9.90625 50.3125 4.234375 
Q 43.84375 -1.421875 31.78125 -1.421875 
Q 19.734375 -1.421875 13.25 4.234375 
Q 6.78125 9.90625 6.78125 20.515625 
Q 6.78125 27.484375 10.78125 32.3125 
Q 14.796875 37.15625 21.921875 38.8125 
z
M 18.3125 54.390625 
Q 18.3125 48.734375 21.84375 45.5625 
Q 25.390625 42.390625 31.78125 42.390625 
Q 38.140625 42.390625 41.71875 45.5625 
Q 45.3125 48.734375 45.3125 54.390625 
Q 45.3125 60.0625 41.71875 63.234375 
Q 38.140625 66.40625 31.78125 66.40625 
Q 25.390625 66.40625 21.84375 63.234375 
Q 18.3125 60.0625 18.3125 54.390625 
z
" id="DejaVuSans-38"/>
     </defs>
     <g transform="translate(387.10625 211.64525)scale(0.08 -0.08)">
      <use xlink:href="#DejaVuSans-42"/>
      <use x="68.603516" xlink:href="#DejaVuSans-69"/>
      <use x="96.386719" xlink:href="#DejaVuSans-6e"/>
      <use x="159.765625" xlink:href="#DejaVuSans-20"/>
      <use x="191.552734" xlink:href="#DejaVuSans-38"/>
     </g>
    </g>
    <g id="patch_31">
     <path d="M 364.70625 223.38775 
L 380.70625 223.38775 
L 380.70625 217.78775 
L 364.70625 217.78775 
z
" style="fill:#bcbd22;"/>
    </g>
    <g id="text_53">
     <!-- Bin 8 -->
     <g transform="translate(387.10625 223.38775)scale(0.08 -0.08)">
      <use xlink:href="#DejaVuSans-42"/>
      <use x="68.603516" xlink:href="#DejaVuSans-69"/>
      <use x="96.386719" xlink:href="#DejaVuSans-6e"/>
      <use x="159.765625" xlink:href="#DejaVuSans-20"/>
      <use x="191.552734" xlink:href="#DejaVuSans-38"/>
     </g>
    </g>
   </g>
  </g>
  <g id="text_54">
   <!-- RAOs for Various Drafts, RAO Direction = 45 -->
   <defs>
    <path d="M 39.40625 66.21875 
Q 28.65625 66.21875 22.328125 58.203125 
Q 16.015625 50.203125 16.015625 36.375 
Q 16.015625 22.609375 22.328125 14.59375 
Q 28.65625 6.59375 39.40625 6.59375 
Q 50.140625 6.59375 56.421875 14.59375 
Q 62.703125 22.609375 62.703125 36.375 
Q 62.703125 50.203125 56.421875 58.203125 
Q 50.140625 66.21875 39.40625 66.21875 
z
M 39.40625 74.21875 
Q 54.734375 74.21875 63.90625 63.9375 
Q 73.09375 53.65625 73.09375 36.375 
Q 73.09375 19.140625 63.90625 8.859375 
Q 54.734375 -1.421875 39.40625 -1.421875 
Q 24.03125 -1.421875 14.8125 8.828125 
Q 5.609375 19.09375 5.609375 36.375 
Q 5.609375 53.65625 14.8125 63.9375 
Q 24.03125 74.21875 39.40625 74.21875 
z
" id="DejaVuSans-4f"/>
    <path d="M 37.109375 75.984375 
L 37.109375 68.5 
L 28.515625 68.5 
Q 23.6875 68.5 21.796875 66.546875 
Q 19.921875 64.59375 19.921875 59.515625 
L 19.921875 54.6875 
L 34.71875 54.6875 
L 34.71875 47.703125 
L 19.921875 47.703125 
L 19.921875 0 
L 10.890625 0 
L 10.890625 47.703125 
L 2.296875 47.703125 
L 2.296875 54.6875 
L 10.890625 54.6875 
L 10.890625 58.5 
Q 10.890625 67.625 15.140625 71.796875 
Q 19.390625 75.984375 28.609375 75.984375 
z
" id="DejaVuSans-66"/>
    <path d="M 28.609375 0 
L 0.78125 72.90625 
L 11.078125 72.90625 
L 34.1875 11.53125 
L 57.328125 72.90625 
L 67.578125 72.90625 
L 39.796875 0 
z
" id="DejaVuSans-56"/>
    <path d="M 19.671875 64.796875 
L 19.671875 8.109375 
L 31.59375 8.109375 
Q 46.6875 8.109375 53.6875 14.9375 
Q 60.6875 21.78125 60.6875 36.53125 
Q 60.6875 51.171875 53.6875 57.984375 
Q 46.6875 64.796875 31.59375 64.796875 
z
M 9.8125 72.90625 
L 30.078125 72.90625 
Q 51.265625 72.90625 61.171875 64.09375 
Q 71.09375 55.28125 71.09375 36.53125 
Q 71.09375 17.671875 61.125 8.828125 
Q 51.171875 0 30.078125 0 
L 9.8125 0 
z
" id="DejaVuSans-44"/>
    <path d="M 11.71875 12.40625 
L 22.015625 12.40625 
L 22.015625 4 
L 14.015625 -11.625 
L 7.71875 -11.625 
L 11.71875 4 
z
" id="DejaVuSans-2c"/>
    <path d="M 10.59375 45.40625 
L 73.1875 45.40625 
L 73.1875 37.203125 
L 10.59375 37.203125 
z
M 10.59375 25.484375 
L 73.1875 25.484375 
L 73.1875 17.1875 
L 10.59375 17.1875 
z
" id="DejaVuSans-3d"/>
   </defs>
   <g transform="translate(74.79875 17.549812)scale(0.14 -0.14)">
    <use xlink:href="#DejaVuSans-52"/>
    <use x="69.419922" xlink:href="#DejaVuSans-41"/>
    <use x="137.8125" xlink:href="#DejaVuSans-4f"/>
    <use x="216.523438" xlink:href="#DejaVuSans-73"/>
    <use x="268.623047" xlink:href="#DejaVuSans-20"/>
    <use x="300.410156" xlink:href="#DejaVuSans-66"/>
    <use x="335.615234" xlink:href="#DejaVuSans-6f"/>
    <use x="396.796875" xlink:href="#DejaVuSans-72"/>
    <use x="437.910156" xlink:href="#DejaVuSans-20"/>
    <use x="469.697266" xlink:href="#DejaVuSans-56"/>
    <use x="537.996094" xlink:href="#DejaVuSans-61"/>
    <use x="599.275391" xlink:href="#DejaVuSans-72"/>
    <use x="640.388672" xlink:href="#DejaVuSans-69"/>
    <use x="668.171875" xlink:href="#DejaVuSans-6f"/>
    <use x="729.353516" xlink:href="#DejaVuSans-75"/>
    <use x="792.732422" xlink:href="#DejaVuSans-73"/>
    <use x="844.832031" xlink:href="#DejaVuSans-20"/>
    <use x="876.619141" xlink:href="#DejaVuSans-44"/>
    <use x="953.621094" xlink:href="#DejaVuSans-72"/>
    <use x="994.734375" xlink:href="#DejaVuSans-61"/>
    <use x="1056.013672" xlink:href="#DejaVuSans-66"/>
    <use x="1091.203125" xlink:href="#DejaVuSans-74"/>
    <use x="1130.412109" xlink:href="#DejaVuSans-73"/>
    <use x="1182.511719" xlink:href="#DejaVuSans-2c"/>
    <use x="1214.298828" xlink:href="#DejaVuSans-20"/>
    <use x="1246.085938" xlink:href="#DejaVuSans-52"/>
    <use x="1315.505859" xlink:href="#DejaVuSans-41"/>
    <use x="1383.898438" xlink:href="#DejaVuSans-4f"/>
    <use x="1462.609375" xlink:href="#DejaVuSans-20"/>
    <use x="1494.396484" xlink:href="#DejaVuSans-44"/>
    <use x="1571.398438" xlink:href="#DejaVuSans-69"/>
    <use x="1599.181641" xlink:href="#DejaVuSans-72"/>
    <use x="1640.263672" xlink:href="#DejaVuSans-65"/>
    <use x="1701.787109" xlink:href="#DejaVuSans-63"/>
    <use x="1756.767578" xlink:href="#DejaVuSans-74"/>
    <use x="1795.976562" xlink:href="#DejaVuSans-69"/>
    <use x="1823.759766" xlink:href="#DejaVuSans-6f"/>
    <use x="1884.941406" xlink:href="#DejaVuSans-6e"/>
    <use x="1948.320312" xlink:href="#DejaVuSans-20"/>
    <use x="1980.107422" xlink:href="#DejaVuSans-3d"/>
    <use x="2063.896484" xlink:href="#DejaVuSans-20"/>
    <use x="2095.683594" xlink:href="#DejaVuSans-34"/>
    <use x="2159.306641" xlink:href="#DejaVuSans-35"/>
   </g>
  </g>
 </g>
 <defs>
  <clipPath id="p18095279e8">
   <rect height="120.96" width="357.12" x="57.6" y="41.472"/>
  </clipPath>
  <clipPath id="pd3f71d33b4">
   <rect height="120.96" width="357.12" x="57.6" y="186.624"/>
  </clipPath>
 </defs>
</svg>
