<?xml version="1.0" encoding="utf-8" standalone="no"?>
<!DOCTYPE svg PUBLIC "-//W3C//DTD SVG 1.1//EN"
  "http://www.w3.org/Graphics/SVG/1.1/DTD/svg11.dtd">
<!-- Created with matplotlib (http://matplotlib.org/) -->
<svg height="345pt" version="1.1" viewBox="0 0 460 345" width="460pt" xmlns="http://www.w3.org/2000/svg" xmlns:xlink="http://www.w3.org/1999/xlink">
 <defs>
  <style type="text/css">
*{stroke-linecap:butt;stroke-linejoin:round;}
  </style>
 </defs>
 <g id="figure_1">
  <g id="patch_1">
   <path d="M 0 345.6 
L 460.8 345.6 
L 460.8 0 
L 0 0 
z
" style="fill:#ffffff;"/>
  </g>
  <g id="axes_1">
   <g id="patch_2">
    <path d="M 57.6 162.432 
L 414.72 162.432 
L 414.72 41.472 
L 57.6 41.472 
z
" style="fill:#ffffff;"/>
   </g>
   <g id="matplotlib.axis_1">
    <g id="xtick_1">
     <g id="line2d_1">
      <path clip-path="url(#pe8e88e0a05)" d="M 57.6 162.432 
L 57.6 41.472 
" style="fill:none;stroke:#b0b0b0;stroke-linecap:square;stroke-width:0.8;"/>
     </g>
     <g id="line2d_2">
      <defs>
       <path d="M 0 0 
L 0 3.5 
" id="m9f2cb33adb" style="stroke:#000000;stroke-width:0.8;"/>
      </defs>
      <g>
       <use style="stroke:#000000;stroke-width:0.8;" x="57.6" xlink:href="#m9f2cb33adb" y="162.432"/>
      </g>
     </g>
     <g id="text_1">
      <!-- 0 -->
      <defs>
       <path d="M 31.78125 66.40625 
Q 24.171875 66.40625 20.328125 58.90625 
Q 16.5 51.421875 16.5 36.375 
Q 16.5 21.390625 20.328125 13.890625 
Q 24.171875 6.390625 31.78125 6.390625 
Q 39.453125 6.390625 43.28125 13.890625 
Q 47.125 21.390625 47.125 36.375 
Q 47.125 51.421875 43.28125 58.90625 
Q 39.453125 66.40625 31.78125 66.40625 
z
M 31.78125 74.21875 
Q 44.046875 74.21875 50.515625 64.515625 
Q 56.984375 54.828125 56.984375 36.375 
Q 56.984375 17.96875 50.515625 8.265625 
Q 44.046875 -1.421875 31.78125 -1.421875 
Q 19.53125 -1.421875 13.0625 8.265625 
Q 6.59375 17.96875 6.59375 36.375 
Q 6.59375 54.828125 13.0625 64.515625 
Q 19.53125 74.21875 31.78125 74.21875 
z
" id="DejaVuSans-30"/>
      </defs>
      <g transform="translate(54.41875 177.030437)scale(0.1 -0.1)">
       <use xlink:href="#DejaVuSans-30"/>
      </g>
     </g>
    </g>
    <g id="xtick_2">
     <g id="line2d_3">
      <path clip-path="url(#pe8e88e0a05)" d="M 129.024 162.432 
L 129.024 41.472 
" style="fill:none;stroke:#b0b0b0;stroke-linecap:square;stroke-width:0.8;"/>
     </g>
     <g id="line2d_4">
      <g>
       <use style="stroke:#000000;stroke-width:0.8;" x="129.024" xlink:href="#m9f2cb33adb" y="162.432"/>
      </g>
     </g>
     <g id="text_2">
      <!-- 5 -->
      <defs>
       <path d="M 10.796875 72.90625 
L 49.515625 72.90625 
L 49.515625 64.59375 
L 19.828125 64.59375 
L 19.828125 46.734375 
Q 21.96875 47.46875 24.109375 47.828125 
Q 26.265625 48.1875 28.421875 48.1875 
Q 40.625 48.1875 47.75 41.5 
Q 54.890625 34.8125 54.890625 23.390625 
Q 54.890625 11.625 47.5625 5.09375 
Q 40.234375 -1.421875 26.90625 -1.421875 
Q 22.3125 -1.421875 17.546875 -0.640625 
Q 12.796875 0.140625 7.71875 1.703125 
L 7.71875 11.625 
Q 12.109375 9.234375 16.796875 8.0625 
Q 21.484375 6.890625 26.703125 6.890625 
Q 35.15625 6.890625 40.078125 11.328125 
Q 45.015625 15.765625 45.015625 23.390625 
Q 45.015625 31 40.078125 35.4375 
Q 35.15625 39.890625 26.703125 39.890625 
Q 22.75 39.890625 18.8125 39.015625 
Q 14.890625 38.140625 10.796875 36.28125 
z
" id="DejaVuSans-35"/>
      </defs>
      <g transform="translate(125.84275 177.030437)scale(0.1 -0.1)">
       <use xlink:href="#DejaVuSans-35"/>
      </g>
     </g>
    </g>
    <g id="xtick_3">
     <g id="line2d_5">
      <path clip-path="url(#pe8e88e0a05)" d="M 200.448 162.432 
L 200.448 41.472 
" style="fill:none;stroke:#b0b0b0;stroke-linecap:square;stroke-width:0.8;"/>
     </g>
     <g id="line2d_6">
      <g>
       <use style="stroke:#000000;stroke-width:0.8;" x="200.448" xlink:href="#m9f2cb33adb" y="162.432"/>
      </g>
     </g>
     <g id="text_3">
      <!-- 10 -->
      <defs>
       <path d="M 12.40625 8.296875 
L 28.515625 8.296875 
L 28.515625 63.921875 
L 10.984375 60.40625 
L 10.984375 69.390625 
L 28.421875 72.90625 
L 38.28125 72.90625 
L 38.28125 8.296875 
L 54.390625 8.296875 
L 54.390625 0 
L 12.40625 0 
z
" id="DejaVuSans-31"/>
      </defs>
      <g transform="translate(194.0855 177.030437)scale(0.1 -0.1)">
       <use xlink:href="#DejaVuSans-31"/>
       <use x="63.623047" xlink:href="#DejaVuSans-30"/>
      </g>
     </g>
    </g>
    <g id="xtick_4">
     <g id="line2d_7">
      <path clip-path="url(#pe8e88e0a05)" d="M 271.872 162.432 
L 271.872 41.472 
" style="fill:none;stroke:#b0b0b0;stroke-linecap:square;stroke-width:0.8;"/>
     </g>
     <g id="line2d_8">
      <g>
       <use style="stroke:#000000;stroke-width:0.8;" x="271.872" xlink:href="#m9f2cb33adb" y="162.432"/>
      </g>
     </g>
     <g id="text_4">
      <!-- 15 -->
      <g transform="translate(265.5095 177.030437)scale(0.1 -0.1)">
       <use xlink:href="#DejaVuSans-31"/>
       <use x="63.623047" xlink:href="#DejaVuSans-35"/>
      </g>
     </g>
    </g>
    <g id="xtick_5">
     <g id="line2d_9">
      <path clip-path="url(#pe8e88e0a05)" d="M 343.296 162.432 
L 343.296 41.472 
" style="fill:none;stroke:#b0b0b0;stroke-linecap:square;stroke-width:0.8;"/>
     </g>
     <g id="line2d_10">
      <g>
       <use style="stroke:#000000;stroke-width:0.8;" x="343.296" xlink:href="#m9f2cb33adb" y="162.432"/>
      </g>
     </g>
     <g id="text_5">
      <!-- 20 -->
      <defs>
       <path d="M 19.1875 8.296875 
L 53.609375 8.296875 
L 53.609375 0 
L 7.328125 0 
L 7.328125 8.296875 
Q 12.9375 14.109375 22.625 23.890625 
Q 32.328125 33.6875 34.8125 36.53125 
Q 39.546875 41.84375 41.421875 45.53125 
Q 43.3125 49.21875 43.3125 52.78125 
Q 43.3125 58.59375 39.234375 62.25 
Q 35.15625 65.921875 28.609375 65.921875 
Q 23.96875 65.921875 18.8125 64.3125 
Q 13.671875 62.703125 7.8125 59.421875 
L 7.8125 69.390625 
Q 13.765625 71.78125 18.9375 73 
Q 24.125 74.21875 28.421875 74.21875 
Q 39.75 74.21875 46.484375 68.546875 
Q 53.21875 62.890625 53.21875 53.421875 
Q 53.21875 48.921875 51.53125 44.890625 
Q 49.859375 40.875 45.40625 35.40625 
Q 44.1875 33.984375 37.640625 27.21875 
Q 31.109375 20.453125 19.1875 8.296875 
z
" id="DejaVuSans-32"/>
      </defs>
      <g transform="translate(336.9335 177.030437)scale(0.1 -0.1)">
       <use xlink:href="#DejaVuSans-32"/>
       <use x="63.623047" xlink:href="#DejaVuSans-30"/>
      </g>
     </g>
    </g>
    <g id="xtick_6">
     <g id="line2d_11">
      <path clip-path="url(#pe8e88e0a05)" d="M 414.72 162.432 
L 414.72 41.472 
" style="fill:none;stroke:#b0b0b0;stroke-linecap:square;stroke-width:0.8;"/>
     </g>
     <g id="line2d_12">
      <g>
       <use style="stroke:#000000;stroke-width:0.8;" x="414.72" xlink:href="#m9f2cb33adb" y="162.432"/>
      </g>
     </g>
     <g id="text_6">
      <!-- 25 -->
      <g transform="translate(408.3575 177.030437)scale(0.1 -0.1)">
       <use xlink:href="#DejaVuSans-32"/>
       <use x="63.623047" xlink:href="#DejaVuSans-35"/>
      </g>
     </g>
    </g>
    <g id="text_7">
     <!-- Time period (s) -->
     <defs>
      <path d="M -0.296875 72.90625 
L 61.375 72.90625 
L 61.375 64.59375 
L 35.5 64.59375 
L 35.5 0 
L 25.59375 0 
L 25.59375 64.59375 
L -0.296875 64.59375 
z
" id="DejaVuSans-54"/>
      <path d="M 9.421875 54.6875 
L 18.40625 54.6875 
L 18.40625 0 
L 9.421875 0 
z
M 9.421875 75.984375 
L 18.40625 75.984375 
L 18.40625 64.59375 
L 9.421875 64.59375 
z
" id="DejaVuSans-69"/>
      <path d="M 52 44.1875 
Q 55.375 50.25 60.0625 53.125 
Q 64.75 56 71.09375 56 
Q 79.640625 56 84.28125 50.015625 
Q 88.921875 44.046875 88.921875 33.015625 
L 88.921875 0 
L 79.890625 0 
L 79.890625 32.71875 
Q 79.890625 40.578125 77.09375 44.375 
Q 74.3125 48.1875 68.609375 48.1875 
Q 61.625 48.1875 57.5625 43.546875 
Q 53.515625 38.921875 53.515625 30.90625 
L 53.515625 0 
L 44.484375 0 
L 44.484375 32.71875 
Q 44.484375 40.625 41.703125 44.40625 
Q 38.921875 48.1875 33.109375 48.1875 
Q 26.21875 48.1875 22.15625 43.53125 
Q 18.109375 38.875 18.109375 30.90625 
L 18.109375 0 
L 9.078125 0 
L 9.078125 54.6875 
L 18.109375 54.6875 
L 18.109375 46.1875 
Q 21.1875 51.21875 25.484375 53.609375 
Q 29.78125 56 35.6875 56 
Q 41.65625 56 45.828125 52.96875 
Q 50 49.953125 52 44.1875 
z
" id="DejaVuSans-6d"/>
      <path d="M 56.203125 29.59375 
L 56.203125 25.203125 
L 14.890625 25.203125 
Q 15.484375 15.921875 20.484375 11.0625 
Q 25.484375 6.203125 34.421875 6.203125 
Q 39.59375 6.203125 44.453125 7.46875 
Q 49.3125 8.734375 54.109375 11.28125 
L 54.109375 2.78125 
Q 49.265625 0.734375 44.1875 -0.34375 
Q 39.109375 -1.421875 33.890625 -1.421875 
Q 20.796875 -1.421875 13.15625 6.1875 
Q 5.515625 13.8125 5.515625 26.8125 
Q 5.515625 40.234375 12.765625 48.109375 
Q 20.015625 56 32.328125 56 
Q 43.359375 56 49.78125 48.890625 
Q 56.203125 41.796875 56.203125 29.59375 
z
M 47.21875 32.234375 
Q 47.125 39.59375 43.09375 43.984375 
Q 39.0625 48.390625 32.421875 48.390625 
Q 24.90625 48.390625 20.390625 44.140625 
Q 15.875 39.890625 15.1875 32.171875 
z
" id="DejaVuSans-65"/>
      <path id="DejaVuSans-20"/>
      <path d="M 18.109375 8.203125 
L 18.109375 -20.796875 
L 9.078125 -20.796875 
L 9.078125 54.6875 
L 18.109375 54.6875 
L 18.109375 46.390625 
Q 20.953125 51.265625 25.265625 53.625 
Q 29.59375 56 35.59375 56 
Q 45.5625 56 51.78125 48.09375 
Q 58.015625 40.1875 58.015625 27.296875 
Q 58.015625 14.40625 51.78125 6.484375 
Q 45.5625 -1.421875 35.59375 -1.421875 
Q 29.59375 -1.421875 25.265625 0.953125 
Q 20.953125 3.328125 18.109375 8.203125 
z
M 48.6875 27.296875 
Q 48.6875 37.203125 44.609375 42.84375 
Q 40.53125 48.484375 33.40625 48.484375 
Q 26.265625 48.484375 22.1875 42.84375 
Q 18.109375 37.203125 18.109375 27.296875 
Q 18.109375 17.390625 22.1875 11.75 
Q 26.265625 6.109375 33.40625 6.109375 
Q 40.53125 6.109375 44.609375 11.75 
Q 48.6875 17.390625 48.6875 27.296875 
z
" id="DejaVuSans-70"/>
      <path d="M 41.109375 46.296875 
Q 39.59375 47.171875 37.8125 47.578125 
Q 36.03125 48 33.890625 48 
Q 26.265625 48 22.1875 43.046875 
Q 18.109375 38.09375 18.109375 28.8125 
L 18.109375 0 
L 9.078125 0 
L 9.078125 54.6875 
L 18.109375 54.6875 
L 18.109375 46.1875 
Q 20.953125 51.171875 25.484375 53.578125 
Q 30.03125 56 36.53125 56 
Q 37.453125 56 38.578125 55.875 
Q 39.703125 55.765625 41.0625 55.515625 
z
" id="DejaVuSans-72"/>
      <path d="M 30.609375 48.390625 
Q 23.390625 48.390625 19.1875 42.75 
Q 14.984375 37.109375 14.984375 27.296875 
Q 14.984375 17.484375 19.15625 11.84375 
Q 23.34375 6.203125 30.609375 6.203125 
Q 37.796875 6.203125 41.984375 11.859375 
Q 46.1875 17.53125 46.1875 27.296875 
Q 46.1875 37.015625 41.984375 42.703125 
Q 37.796875 48.390625 30.609375 48.390625 
z
M 30.609375 56 
Q 42.328125 56 49.015625 48.375 
Q 55.71875 40.765625 55.71875 27.296875 
Q 55.71875 13.875 49.015625 6.21875 
Q 42.328125 -1.421875 30.609375 -1.421875 
Q 18.84375 -1.421875 12.171875 6.21875 
Q 5.515625 13.875 5.515625 27.296875 
Q 5.515625 40.765625 12.171875 48.375 
Q 18.84375 56 30.609375 56 
z
" id="DejaVuSans-6f"/>
      <path d="M 45.40625 46.390625 
L 45.40625 75.984375 
L 54.390625 75.984375 
L 54.390625 0 
L 45.40625 0 
L 45.40625 8.203125 
Q 42.578125 3.328125 38.25 0.953125 
Q 33.9375 -1.421875 27.875 -1.421875 
Q 17.96875 -1.421875 11.734375 6.484375 
Q 5.515625 14.40625 5.515625 27.296875 
Q 5.515625 40.1875 11.734375 48.09375 
Q 17.96875 56 27.875 56 
Q 33.9375 56 38.25 53.625 
Q 42.578125 51.265625 45.40625 46.390625 
z
M 14.796875 27.296875 
Q 14.796875 17.390625 18.875 11.75 
Q 22.953125 6.109375 30.078125 6.109375 
Q 37.203125 6.109375 41.296875 11.75 
Q 45.40625 17.390625 45.40625 27.296875 
Q 45.40625 37.203125 41.296875 42.84375 
Q 37.203125 48.484375 30.078125 48.484375 
Q 22.953125 48.484375 18.875 42.84375 
Q 14.796875 37.203125 14.796875 27.296875 
z
" id="DejaVuSans-64"/>
      <path d="M 31 75.875 
Q 24.46875 64.65625 21.28125 53.65625 
Q 18.109375 42.671875 18.109375 31.390625 
Q 18.109375 20.125 21.3125 9.0625 
Q 24.515625 -2 31 -13.1875 
L 23.1875 -13.1875 
Q 15.875 -1.703125 12.234375 9.375 
Q 8.59375 20.453125 8.59375 31.390625 
Q 8.59375 42.28125 12.203125 53.3125 
Q 15.828125 64.359375 23.1875 75.875 
z
" id="DejaVuSans-28"/>
      <path d="M 44.28125 53.078125 
L 44.28125 44.578125 
Q 40.484375 46.53125 36.375 47.5 
Q 32.28125 48.484375 27.875 48.484375 
Q 21.1875 48.484375 17.84375 46.4375 
Q 14.5 44.390625 14.5 40.28125 
Q 14.5 37.15625 16.890625 35.375 
Q 19.28125 33.59375 26.515625 31.984375 
L 29.59375 31.296875 
Q 39.15625 29.25 43.1875 25.515625 
Q 47.21875 21.78125 47.21875 15.09375 
Q 47.21875 7.46875 41.1875 3.015625 
Q 35.15625 -1.421875 24.609375 -1.421875 
Q 20.21875 -1.421875 15.453125 -0.5625 
Q 10.6875 0.296875 5.421875 2 
L 5.421875 11.28125 
Q 10.40625 8.6875 15.234375 7.390625 
Q 20.0625 6.109375 24.8125 6.109375 
Q 31.15625 6.109375 34.5625 8.28125 
Q 37.984375 10.453125 37.984375 14.40625 
Q 37.984375 18.0625 35.515625 20.015625 
Q 33.0625 21.96875 24.703125 23.78125 
L 21.578125 24.515625 
Q 13.234375 26.265625 9.515625 29.90625 
Q 5.8125 33.546875 5.8125 39.890625 
Q 5.8125 47.609375 11.28125 51.796875 
Q 16.75 56 26.8125 56 
Q 31.78125 56 36.171875 55.265625 
Q 40.578125 54.546875 44.28125 53.078125 
z
" id="DejaVuSans-73"/>
      <path d="M 8.015625 75.875 
L 15.828125 75.875 
Q 23.140625 64.359375 26.78125 53.3125 
Q 30.421875 42.28125 30.421875 31.390625 
Q 30.421875 20.453125 26.78125 9.375 
Q 23.140625 -1.703125 15.828125 -13.1875 
L 8.015625 -13.1875 
Q 14.5 -2 17.703125 9.0625 
Q 20.90625 20.125 20.90625 31.390625 
Q 20.90625 42.671875 17.703125 53.65625 
Q 14.5 64.65625 8.015625 75.875 
z
" id="DejaVuSans-29"/>
     </defs>
     <g transform="translate(198.159219 190.708562)scale(0.1 -0.1)">
      <use xlink:href="#DejaVuSans-54"/>
      <use x="61.037109" xlink:href="#DejaVuSans-69"/>
      <use x="88.820312" xlink:href="#DejaVuSans-6d"/>
      <use x="186.232422" xlink:href="#DejaVuSans-65"/>
      <use x="247.755859" xlink:href="#DejaVuSans-20"/>
      <use x="279.542969" xlink:href="#DejaVuSans-70"/>
      <use x="343.019531" xlink:href="#DejaVuSans-65"/>
      <use x="404.542969" xlink:href="#DejaVuSans-72"/>
      <use x="445.65625" xlink:href="#DejaVuSans-69"/>
      <use x="473.439453" xlink:href="#DejaVuSans-6f"/>
      <use x="534.621094" xlink:href="#DejaVuSans-64"/>
      <use x="598.097656" xlink:href="#DejaVuSans-20"/>
      <use x="629.884766" xlink:href="#DejaVuSans-28"/>
      <use x="668.898438" xlink:href="#DejaVuSans-73"/>
      <use x="720.998047" xlink:href="#DejaVuSans-29"/>
     </g>
    </g>
   </g>
   <g id="matplotlib.axis_2">
    <g id="ytick_1">
     <g id="line2d_13">
      <path clip-path="url(#pe8e88e0a05)" d="M 57.6 156.933826 
L 414.72 156.933826 
" style="fill:none;stroke:#b0b0b0;stroke-linecap:square;stroke-width:0.8;"/>
     </g>
     <g id="line2d_14">
      <defs>
       <path d="M 0 0 
L -3.5 0 
" id="m1a10957fdf" style="stroke:#000000;stroke-width:0.8;"/>
      </defs>
      <g>
       <use style="stroke:#000000;stroke-width:0.8;" x="57.6" xlink:href="#m1a10957fdf" y="156.933826"/>
      </g>
     </g>
     <g id="text_8">
      <!-- 0.0 -->
      <defs>
       <path d="M 10.6875 12.40625 
L 21 12.40625 
L 21 0 
L 10.6875 0 
z
" id="DejaVuSans-2e"/>
      </defs>
      <g transform="translate(34.696875 160.733045)scale(0.1 -0.1)">
       <use xlink:href="#DejaVuSans-30"/>
       <use x="63.623047" xlink:href="#DejaVuSans-2e"/>
       <use x="95.410156" xlink:href="#DejaVuSans-30"/>
      </g>
     </g>
    </g>
    <g id="ytick_2">
     <g id="line2d_15">
      <path clip-path="url(#pe8e88e0a05)" d="M 57.6 123.871997 
L 414.72 123.871997 
" style="fill:none;stroke:#b0b0b0;stroke-linecap:square;stroke-width:0.8;"/>
     </g>
     <g id="line2d_16">
      <g>
       <use style="stroke:#000000;stroke-width:0.8;" x="57.6" xlink:href="#m1a10957fdf" y="123.871997"/>
      </g>
     </g>
     <g id="text_9">
      <!-- 0.5 -->
      <g transform="translate(34.696875 127.671215)scale(0.1 -0.1)">
       <use xlink:href="#DejaVuSans-30"/>
       <use x="63.623047" xlink:href="#DejaVuSans-2e"/>
       <use x="95.410156" xlink:href="#DejaVuSans-35"/>
      </g>
     </g>
    </g>
    <g id="ytick_3">
     <g id="line2d_17">
      <path clip-path="url(#pe8e88e0a05)" d="M 57.6 90.810167 
L 414.72 90.810167 
" style="fill:none;stroke:#b0b0b0;stroke-linecap:square;stroke-width:0.8;"/>
     </g>
     <g id="line2d_18">
      <g>
       <use style="stroke:#000000;stroke-width:0.8;" x="57.6" xlink:href="#m1a10957fdf" y="90.810167"/>
      </g>
     </g>
     <g id="text_10">
      <!-- 1.0 -->
      <g transform="translate(34.696875 94.609386)scale(0.1 -0.1)">
       <use xlink:href="#DejaVuSans-31"/>
       <use x="63.623047" xlink:href="#DejaVuSans-2e"/>
       <use x="95.410156" xlink:href="#DejaVuSans-30"/>
      </g>
     </g>
    </g>
    <g id="ytick_4">
     <g id="line2d_19">
      <path clip-path="url(#pe8e88e0a05)" d="M 57.6 57.748338 
L 414.72 57.748338 
" style="fill:none;stroke:#b0b0b0;stroke-linecap:square;stroke-width:0.8;"/>
     </g>
     <g id="line2d_20">
      <g>
       <use style="stroke:#000000;stroke-width:0.8;" x="57.6" xlink:href="#m1a10957fdf" y="57.748338"/>
      </g>
     </g>
     <g id="text_11">
      <!-- 1.5 -->
      <g transform="translate(34.696875 61.547557)scale(0.1 -0.1)">
       <use xlink:href="#DejaVuSans-31"/>
       <use x="63.623047" xlink:href="#DejaVuSans-2e"/>
       <use x="95.410156" xlink:href="#DejaVuSans-35"/>
      </g>
     </g>
    </g>
    <g id="text_12">
     <!-- Amplitude (m/m or deg/m) -->
     <defs>
      <path d="M 34.1875 63.1875 
L 20.796875 26.90625 
L 47.609375 26.90625 
z
M 28.609375 72.90625 
L 39.796875 72.90625 
L 67.578125 0 
L 57.328125 0 
L 50.6875 18.703125 
L 17.828125 18.703125 
L 11.1875 0 
L 0.78125 0 
z
" id="DejaVuSans-41"/>
      <path d="M 9.421875 75.984375 
L 18.40625 75.984375 
L 18.40625 0 
L 9.421875 0 
z
" id="DejaVuSans-6c"/>
      <path d="M 18.3125 70.21875 
L 18.3125 54.6875 
L 36.8125 54.6875 
L 36.8125 47.703125 
L 18.3125 47.703125 
L 18.3125 18.015625 
Q 18.3125 11.328125 20.140625 9.421875 
Q 21.96875 7.515625 27.59375 7.515625 
L 36.8125 7.515625 
L 36.8125 0 
L 27.59375 0 
Q 17.1875 0 13.234375 3.875 
Q 9.28125 7.765625 9.28125 18.015625 
L 9.28125 47.703125 
L 2.6875 47.703125 
L 2.6875 54.6875 
L 9.28125 54.6875 
L 9.28125 70.21875 
z
" id="DejaVuSans-74"/>
      <path d="M 8.5 21.578125 
L 8.5 54.6875 
L 17.484375 54.6875 
L 17.484375 21.921875 
Q 17.484375 14.15625 20.5 10.265625 
Q 23.53125 6.390625 29.59375 6.390625 
Q 36.859375 6.390625 41.078125 11.03125 
Q 45.3125 15.671875 45.3125 23.6875 
L 45.3125 54.6875 
L 54.296875 54.6875 
L 54.296875 0 
L 45.3125 0 
L 45.3125 8.40625 
Q 42.046875 3.421875 37.71875 1 
Q 33.40625 -1.421875 27.6875 -1.421875 
Q 18.265625 -1.421875 13.375 4.4375 
Q 8.5 10.296875 8.5 21.578125 
z
M 31.109375 56 
z
" id="DejaVuSans-75"/>
      <path d="M 25.390625 72.90625 
L 33.6875 72.90625 
L 8.296875 -9.28125 
L 0 -9.28125 
z
" id="DejaVuSans-2f"/>
      <path d="M 45.40625 27.984375 
Q 45.40625 37.75 41.375 43.109375 
Q 37.359375 48.484375 30.078125 48.484375 
Q 22.859375 48.484375 18.828125 43.109375 
Q 14.796875 37.75 14.796875 27.984375 
Q 14.796875 18.265625 18.828125 12.890625 
Q 22.859375 7.515625 30.078125 7.515625 
Q 37.359375 7.515625 41.375 12.890625 
Q 45.40625 18.265625 45.40625 27.984375 
z
M 54.390625 6.78125 
Q 54.390625 -7.171875 48.1875 -13.984375 
Q 42 -20.796875 29.203125 -20.796875 
Q 24.46875 -20.796875 20.265625 -20.09375 
Q 16.0625 -19.390625 12.109375 -17.921875 
L 12.109375 -9.1875 
Q 16.0625 -11.328125 19.921875 -12.34375 
Q 23.78125 -13.375 27.78125 -13.375 
Q 36.625 -13.375 41.015625 -8.765625 
Q 45.40625 -4.15625 45.40625 5.171875 
L 45.40625 9.625 
Q 42.625 4.78125 38.28125 2.390625 
Q 33.9375 0 27.875 0 
Q 17.828125 0 11.671875 7.65625 
Q 5.515625 15.328125 5.515625 27.984375 
Q 5.515625 40.671875 11.671875 48.328125 
Q 17.828125 56 27.875 56 
Q 33.9375 56 38.28125 53.609375 
Q 42.625 51.21875 45.40625 46.390625 
L 45.40625 54.6875 
L 54.390625 54.6875 
z
" id="DejaVuSans-67"/>
     </defs>
     <g transform="translate(28.617187 168.762938)rotate(-90)scale(0.1 -0.1)">
      <use xlink:href="#DejaVuSans-41"/>
      <use x="68.408203" xlink:href="#DejaVuSans-6d"/>
      <use x="165.820312" xlink:href="#DejaVuSans-70"/>
      <use x="229.296875" xlink:href="#DejaVuSans-6c"/>
      <use x="257.080078" xlink:href="#DejaVuSans-69"/>
      <use x="284.863281" xlink:href="#DejaVuSans-74"/>
      <use x="324.072266" xlink:href="#DejaVuSans-75"/>
      <use x="387.451172" xlink:href="#DejaVuSans-64"/>
      <use x="450.927734" xlink:href="#DejaVuSans-65"/>
      <use x="512.451172" xlink:href="#DejaVuSans-20"/>
      <use x="544.238281" xlink:href="#DejaVuSans-28"/>
      <use x="583.251953" xlink:href="#DejaVuSans-6d"/>
      <use x="680.664062" xlink:href="#DejaVuSans-2f"/>
      <use x="714.355469" xlink:href="#DejaVuSans-6d"/>
      <use x="811.767578" xlink:href="#DejaVuSans-20"/>
      <use x="843.554688" xlink:href="#DejaVuSans-6f"/>
      <use x="904.736328" xlink:href="#DejaVuSans-72"/>
      <use x="945.849609" xlink:href="#DejaVuSans-20"/>
      <use x="977.636719" xlink:href="#DejaVuSans-64"/>
      <use x="1041.113281" xlink:href="#DejaVuSans-65"/>
      <use x="1102.636719" xlink:href="#DejaVuSans-67"/>
      <use x="1166.113281" xlink:href="#DejaVuSans-2f"/>
      <use x="1199.804688" xlink:href="#DejaVuSans-6d"/>
      <use x="1297.216797" xlink:href="#DejaVuSans-29"/>
     </g>
    </g>
   </g>
   <g id="line2d_21">
    <path clip-path="url(#pe8e88e0a05)" d="M 102.482842 156.90534 
L 105.954048 156.932854 
L 107.296819 156.87694 
L 108.711014 156.870579 
L 110.210918 156.86314 
L 111.796531 156.897941 
L 113.482138 156.847601 
L 115.282022 156.760648 
L 117.196186 156.898542 
L 119.238912 156.841848 
L 121.438771 156.709534 
L 123.795763 156.767856 
L 126.324173 156.58013 
L 129.066854 156.635278 
L 132.023808 156.389364 
L 135.237888 156.539068 
L 138.751949 156.320331 
L 142.59456 156.183984 
L 146.822861 156.080831 
L 151.479706 155.816997 
L 156.665088 155.68475 
L 162.450432 155.184855 
L 168.964301 154.763647 
L 176.320973 154.152004 
L 184.73472 153.092041 
L 194.419814 150.991954 
L 205.733376 149.81892 
L 208.161792 149.210583 
L 210.733056 148.33775 
L 213.447168 147.286384 
L 216.16128 146.175507 
L 220.44672 144.734011 
L 223.446528 144.066162 
L 226.589184 143.728931 
L 229.874688 143.728931 
L 233.30304 144.079387 
L 252.301824 148.9527 
L 276.014592 144.50919 
L 306.15552 129.254462 
L 313.29792 125.994566 
L 320.868864 122.794181 
L 328.725504 119.692981 
L 330.43968 119.091256 
L 337.153536 116.724029 
L 346.15296 113.907161 
L 356.723712 111.004333 
L 367.151616 108.570982 
L 378.150912 106.336002 
L 390.007296 104.292781 
L 402.863616 102.447931 
L 416.577024 100.788227 
L 461.8 97.842894 
" style="fill:none;stroke:#0000ff;stroke-linecap:square;stroke-width:1.5;"/>
   </g>
   <g id="line2d_22">
    <path clip-path="url(#pe8e88e0a05)" d="M 102.482842 156.893828 
L 105.954048 156.873237 
L 107.296819 156.851965 
L 108.711014 156.852758 
L 110.210918 156.825714 
L 111.796531 156.817118 
L 113.482138 156.87938 
L 115.282022 156.832326 
L 117.196186 156.838674 
L 119.238912 156.737703 
L 121.438771 156.457669 
L 123.795763 156.350218 
L 126.324173 156.299502 
L 129.066854 156.209772 
L 132.023808 156.154228 
L 135.237888 156.135052 
L 138.751949 155.947922 
L 142.59456 155.972388 
L 146.822861 155.645737 
L 151.479706 155.689379 
L 156.665088 155.228497 
L 162.450432 155.261559 
L 168.964301 154.76497 
L 176.320973 154.707442 
L 184.73472 154.082574 
L 194.419814 154.187049 
L 205.733376 155.053269 
L 208.161792 154.714716 
L 210.733056 154.163906 
L 213.447168 153.520523 
L 216.16128 152.881768 
L 220.44672 152.089607 
L 223.446528 151.745764 
L 226.589184 151.589051 
L 229.874688 151.644594 
L 233.30304 151.930249 
L 252.301824 156.354583 
L 276.014592 144.601764 
L 306.15552 129.545407 
L 313.29792 126.576454 
L 320.868864 123.693463 
L 328.725504 120.909657 
L 330.43968 120.36083 
L 337.153536 118.231649 
L 346.15296 115.685888 
L 356.723712 113.034329 
L 367.151616 110.766288 
L 378.150912 108.643718 
L 390.007296 106.660008 
L 402.863616 104.828383 
L 416.577024 103.135617 
L 461.8 99.907399 
" style="fill:none;stroke:#008000;stroke-linecap:square;stroke-width:1.5;"/>
   </g>
   <g id="line2d_23">
    <path clip-path="url(#pe8e88e0a05)" d="M 102.482842 156.893881 
L 105.954048 156.869435 
L 107.296819 156.899706 
L 108.711014 156.877707 
L 110.210918 156.901882 
L 111.796531 156.835831 
L 113.482138 156.823598 
L 115.282022 156.749143 
L 117.196186 156.821217 
L 119.238912 156.866181 
L 121.438771 156.854345 
L 123.795763 156.790867 
L 126.324173 156.84641 
L 129.066854 156.839996 
L 132.023808 156.83312 
L 135.237888 156.808852 
L 138.751949 156.788354 
L 142.59456 156.844228 
L 146.822861 156.841848 
L 151.479706 156.852163 
L 156.665088 156.843898 
L 162.450432 156.88547 
L 168.964301 156.906113 
L 176.320973 156.8736 
L 184.73472 156.839534 
L 194.419814 156.845022 
L 205.733376 156.864793 
L 208.161792 156.862611 
L 210.733056 156.857718 
L 213.447168 156.851237 
L 216.16128 156.844162 
L 220.44672 156.83464 
L 223.446528 156.829946 
L 226.589184 156.82697 
L 229.874688 156.825714 
L 233.30304 156.82611 
L 252.301824 156.844096 
L 276.014592 156.868489 
L 306.15552 156.883135 
L 313.29792 156.88213 
L 320.868864 156.877422 
L 328.725504 156.874791 
L 330.43968 156.87776 
L 337.153536 156.900136 
L 346.15296 156.917546 
L 356.723712 156.923372 
L 367.151616 156.925137 
L 378.150912 156.926156 
L 390.007296 156.927002 
L 402.863616 156.927782 
L 416.577024 156.928505 
L 461.8 156.929847 
" style="fill:none;stroke:#ff0000;stroke-linecap:square;stroke-width:1.5;"/>
   </g>
   <g id="line2d_24">
    <path clip-path="url(#pe8e88e0a05)" d="M 102.482842 156.927275 
L 105.954048 156.928204 
L 107.296819 156.904915 
L 108.711014 156.91894 
L 110.210918 156.900096 
L 111.796531 156.887226 
L 113.482138 156.915777 
L 115.282022 156.897175 
L 117.196186 156.890977 
L 119.238912 156.907965 
L 121.438771 156.901456 
L 123.795763 156.893932 
L 126.324173 156.854871 
L 129.066854 156.871579 
L 132.023808 156.916735 
L 135.237888 156.908113 
L 138.751949 156.889916 
L 142.59456 156.851121 
L 146.822861 156.860706 
L 151.479706 156.874269 
L 156.665088 156.888817 
L 162.450432 156.905692 
L 168.964301 156.925987 
L 176.320973 156.903009 
L 184.73472 156.914114 
L 194.419814 156.904316 
L 205.733376 156.87461 
L 208.161792 156.871162 
L 210.733056 156.869079 
L 213.447168 156.868472 
L 216.16128 156.869268 
L 220.44672 156.872678 
L 223.446528 156.876012 
L 226.589184 156.879876 
L 229.874688 156.884006 
L 233.30304 156.888249 
L 252.301824 156.90748 
L 276.014592 156.920236 
L 306.15552 156.923805 
L 313.29792 156.922775 
L 320.868864 156.92032 
L 328.725504 156.917482 
L 330.43968 156.917804 
L 337.153536 156.922949 
L 346.15296 156.928177 
L 356.723712 156.930584 
L 367.151616 156.931541 
L 378.150912 156.93204 
L 390.007296 156.932349 
L 402.863616 156.932579 
L 416.577024 156.932773 
L 461.8 156.933107 
" style="fill:none;stroke:#ffa500;stroke-linecap:square;stroke-width:1.5;"/>
   </g>
   <g id="line2d_25">
    <path clip-path="url(#pe8e88e0a05)" d="M 102.482842 156.873852 
L 105.954048 156.832897 
L 107.296819 156.879649 
L 108.711014 156.843468 
L 110.210918 156.869609 
L 111.796531 156.770044 
L 113.482138 156.709124 
L 115.282022 156.572506 
L 117.196186 156.680974 
L 119.238912 156.794973 
L 121.438771 156.698932 
L 123.795763 156.679724 
L 126.324173 156.788912 
L 129.066854 156.719504 
L 132.023808 156.597436 
L 135.237888 156.551555 
L 138.751949 156.631457 
L 142.59456 156.794898 
L 146.822861 156.768681 
L 151.479706 156.77425 
L 156.665088 156.639224 
L 162.450432 156.674913 
L 168.964301 156.737273 
L 176.320973 156.559587 
L 184.73472 156.445853 
L 194.419814 156.377658 
L 205.733376 156.28067 
L 208.161792 156.233691 
L 210.733056 156.171179 
L 213.447168 156.095407 
L 216.16128 156.011679 
L 220.44672 155.883624 
L 223.446528 155.804063 
L 226.589184 155.733595 
L 229.874688 155.674114 
L 233.30304 155.625999 
L 252.301824 155.498323 
L 276.014592 155.364585 
L 306.15552 154.640582 
L 313.29792 154.140107 
L 320.868864 153.196744 
L 328.725504 152.023792 
L 330.43968 152.046523 
L 337.153536 153.4377 
L 346.15296 155.054677 
L 356.723712 155.887413 
L 367.151616 156.27082 
L 378.150912 156.495484 
L 390.007296 156.637178 
L 402.863616 156.730794 
L 416.577024 156.794557 
L 461.8 156.856449 
" style="fill:none;stroke:#000000;stroke-linecap:square;stroke-width:1.5;"/>
   </g>
   <g id="line2d_26">
    <path clip-path="url(#pe8e88e0a05)" d="M 102.482842 156.906893 
L 105.954048 156.887074 
L 107.296819 156.891507 
L 108.711014 156.879308 
L 110.210918 156.85328 
L 111.796531 156.901426 
L 113.482138 156.866881 
L 115.282022 156.838126 
L 117.196186 156.887984 
L 119.238912 156.821115 
L 121.438771 156.763869 
L 123.795763 156.650855 
L 126.324173 156.640777 
L 129.066854 156.466691 
L 132.023808 156.514048 
L 135.237888 156.324997 
L 138.751949 156.298098 
L 142.59456 156.115866 
L 146.822861 155.910144 
L 151.479706 155.765041 
L 156.665088 155.376709 
L 162.450432 155.058087 
L 168.964301 154.493206 
L 176.320973 153.643042 
L 184.73472 152.186702 
L 194.419814 150.337862 
L 205.733376 145.022447 
L 208.161792 144.336709 
L 210.733056 144.044986 
L 213.447168 144.17001 
L 216.16128 144.681472 
L 220.44672 145.905192 
L 223.446528 146.734897 
L 226.589184 147.261513 
L 229.874688 147.212261 
L 233.30304 146.45454 
L 252.301824 136.138164 
L 276.014592 126.098357 
L 306.15552 123.097781 
L 313.29792 123.366772 
L 320.868864 123.870656 
L 328.725504 124.575337 
L 330.43968 124.738247 
L 337.153536 125.454294 
L 346.15296 126.484795 
L 356.723712 127.757767 
L 367.151616 129.019373 
L 378.150912 130.360539 
L 390.007296 131.758535 
L 402.863616 133.198206 
L 416.577024 134.664397 
L 461.8 138.333153 
" style="fill:none;stroke:#9932cc;stroke-linecap:square;stroke-width:1.5;"/>
   </g>
   <g id="line2d_27">
    <path clip-path="url(#pe8e88e0a05)" d="M 102.482842 156.933739 
L 107.23968 156.932399 
L 108.653875 156.925779 
L 110.153779 156.924046 
L 111.739392 156.931212 
L 113.410714 156.913989 
L 115.210598 156.919623 
L 117.124762 156.923881 
L 119.153203 156.920211 
L 121.338778 156.911033 
L 123.69577 156.900242 
L 126.224179 156.867372 
L 128.952576 156.846344 
L 131.895245 156.788618 
L 135.109325 156.79576 
L 138.609101 156.710328 
L 142.437427 156.648304 
L 146.637158 156.575436 
L 151.294003 156.422161 
L 156.450816 156.331505 
L 162.20759 156.058349 
L 168.678605 155.846092 
L 176.006707 155.440754 
L 184.3776 154.997064 
L 194.005555 153.755262 
L 205.161984 152.520733 
L 218.446848 146.486288 
L 221.446656 144.337269 
L 224.446464 142.294048 
L 227.017728 140.945125 
L 230.160384 139.860697 
L 233.588736 139.609427 
L 236.731392 140.111967 
L 256.587264 148.661756 
L 281.442816 140.925288 
L 287.156736 137.705066 
L 293.156352 134.359209 
L 299.584512 130.973678 
L 306.15552 127.601371 
L 313.29792 124.288576 
L 320.868864 121.074966 
L 328.725504 118.000216 
L 337.153536 115.090775 
L 340.724736 113.979897 
L 346.15296 112.36648 
L 355.723776 109.840556 
L 367.151616 107.294795 
L 378.150912 105.192063 
L 390.007296 103.287702 
L 402.863616 101.575099 
L 416.577024 100.04103 
L 461.8 97.328661 
" style="fill:none;stroke:#0000ff;stroke-dasharray:9.6,2.4,1.5,2.4;stroke-dashoffset:0;stroke-width:1.5;"/>
   </g>
   <g id="line2d_28">
    <path clip-path="url(#pe8e88e0a05)" d="M 102.482842 156.902668 
L 107.23968 156.879452 
L 108.653875 156.867239 
L 110.153779 156.854345 
L 111.739392 156.852097 
L 113.410714 156.850907 
L 115.210598 156.842046 
L 117.124762 156.851171 
L 119.153203 156.86519 
L 121.338778 156.80257 
L 123.69577 156.663578 
L 126.224179 156.50065 
L 128.952576 156.341358 
L 131.895245 156.234899 
L 135.109325 156.156212 
L 138.609101 155.954535 
L 142.437427 155.908248 
L 146.637158 155.530682 
L 151.294003 155.559776 
L 156.450816 154.983178 
L 162.20759 155.036077 
L 168.678605 154.402612 
L 176.006707 154.314668 
L 184.3776 153.513249 
L 194.005555 153.092041 
L 205.161984 153.670623 
L 218.446848 152.336909 
L 221.446656 151.787422 
L 224.446464 151.255126 
L 227.017728 150.917895 
L 230.160384 150.683156 
L 233.588736 150.703655 
L 236.731392 150.96286 
L 256.587264 156.914769 
L 281.442816 144.185185 
L 287.156736 141.176558 
L 293.156352 138.115033 
L 299.584512 135.046895 
L 306.15552 131.991982 
L 313.29792 128.983355 
L 320.868864 126.040853 
L 328.725504 123.190923 
L 337.153536 120.433566 
L 340.724736 119.362363 
L 346.15296 117.78862 
L 355.723776 115.269309 
L 367.151616 112.637587 
L 378.150912 110.395995 
L 390.007296 108.293263 
L 402.863616 106.32939 
L 416.577024 104.510989 
L 461.8 100.99323 
" style="fill:none;stroke:#008000;stroke-dasharray:9.6,2.4,1.5,2.4;stroke-dashoffset:0;stroke-width:1.5;"/>
   </g>
   <g id="line2d_29">
    <path clip-path="url(#pe8e88e0a05)" d="M 102.482842 156.933098 
L 107.23968 156.932021 
L 108.653875 156.932088 
L 110.153779 156.931871 
L 111.739392 156.929013 
L 113.410714 156.929001 
L 115.210598 156.930579 
L 117.124762 156.931195 
L 119.153203 156.929497 
L 121.338778 156.929228 
L 123.69577 156.92798 
L 126.224179 156.928762 
L 128.952576 156.928076 
L 131.895245 156.925713 
L 135.109325 156.921738 
L 138.609101 156.91873 
L 142.437427 156.922175 
L 146.637158 156.917917 
L 151.294003 156.916171 
L 156.450816 156.912098 
L 162.20759 156.919384 
L 168.678605 156.922195 
L 176.006707 156.913486 
L 184.3776 156.892783 
L 194.005555 156.890746 
L 205.161984 156.900043 
L 218.446848 156.868476 
L 221.446656 156.856858 
L 224.446464 156.845088 
L 227.017728 156.83636 
L 230.160384 156.827433 
L 233.588736 156.82168 
L 236.731392 156.819564 
L 256.587264 156.84317 
L 281.442816 156.87493 
L 287.156736 156.879743 
L 293.156352 156.883988 
L 299.584512 156.887658 
L 306.15552 156.890707 
L 313.29792 156.892981 
L 320.868864 156.894145 
L 328.725504 156.893583 
L 337.153536 156.893537 
L 340.724736 156.898159 
L 346.15296 156.911291 
L 355.723776 156.923458 
L 367.151616 156.925316 
L 378.150912 156.925825 
L 390.007296 156.926532 
L 402.863616 156.92738 
L 416.577024 156.928264 
L 461.8 156.930048 
" style="fill:none;stroke:#ff0000;stroke-dasharray:9.6,2.4,1.5,2.4;stroke-dashoffset:0;stroke-width:1.5;"/>
   </g>
   <g id="line2d_30">
    <path clip-path="url(#pe8e88e0a05)" d="M 102.482842 156.933698 
L 107.23968 156.933078 
L 108.653875 156.933093 
L 110.153779 156.932181 
L 111.739392 156.93278 
L 113.410714 156.932898 
L 115.210598 156.93232 
L 117.124762 156.931779 
L 119.153203 156.93247 
L 121.338778 156.933382 
L 123.69577 156.931549 
L 126.224179 156.929742 
L 128.952576 156.929109 
L 131.895245 156.932 
L 135.109325 156.93121 
L 138.609101 156.929586 
L 142.437427 156.920649 
L 146.637158 156.919948 
L 151.294003 156.919577 
L 156.450816 156.918061 
L 162.20759 156.920554 
L 168.678605 156.927514 
L 176.006707 156.916925 
L 184.3776 156.921092 
L 194.005555 156.924453 
L 205.161984 156.900278 
L 218.446848 156.883248 
L 221.446656 156.883248 
L 224.446464 156.88518 
L 227.017728 156.887756 
L 230.160384 156.891659 
L 233.588736 156.89575 
L 236.731392 156.899168 
L 256.587264 156.91303 
L 281.442816 156.922608 
L 287.156736 156.924085 
L 293.156352 156.92537 
L 299.584512 156.926438 
L 306.15552 156.927272 
L 313.29792 156.927832 
L 320.868864 156.928033 
L 328.725504 156.927662 
L 337.153536 156.926749 
L 340.724736 156.926984 
L 346.15296 156.928761 
L 355.723776 156.931267 
L 367.151616 156.932236 
L 378.150912 156.932518 
L 390.007296 156.932601 
L 402.863616 156.932601 
L 416.577024 156.932556 
L 461.8 156.932336 
" style="fill:none;stroke:#ffa500;stroke-dasharray:9.6,2.4,1.5,2.4;stroke-dashoffset:0;stroke-width:1.5;"/>
   </g>
   <g id="line2d_31">
    <path clip-path="url(#pe8e88e0a05)" d="M 102.482842 156.92981 
L 107.23968 156.924078 
L 108.653875 156.923214 
L 110.153779 156.92218 
L 111.739392 156.906495 
L 113.410714 156.903259 
L 115.210598 156.914334 
L 117.124762 156.920945 
L 119.153203 156.911526 
L 121.338778 156.906506 
L 123.69577 156.909405 
L 126.224179 156.919137 
L 128.952576 156.912326 
L 131.895245 156.891848 
L 135.109325 156.868965 
L 138.609101 156.882111 
L 142.437427 156.907783 
L 146.637158 156.899251 
L 151.294003 156.891242 
L 156.450816 156.855212 
L 162.20759 156.85813 
L 168.678605 156.843657 
L 176.006707 156.755458 
L 184.3776 156.71511 
L 194.005555 156.710336 
L 205.161984 156.649643 
L 218.446848 156.432972 
L 221.446656 156.345455 
L 224.446464 156.24733 
L 227.017728 156.16777 
L 230.160384 156.076085 
L 233.588736 156.002965 
L 236.731392 155.957502 
L 256.587264 155.959017 
L 281.442816 156.039715 
L 287.156736 156.043503 
L 293.156352 156.038578 
L 299.584512 156.021529 
L 306.15552 155.985538 
L 313.29792 155.915448 
L 320.868864 155.782089 
L 328.725504 155.51575 
L 337.153536 155.099761 
L 340.724736 155.100898 
L 346.15296 155.546059 
L 355.723776 156.283701 
L 367.151616 156.63786 
L 378.150912 156.784896 
L 390.007296 156.863244 
L 402.863616 156.907374 
L 416.577024 156.927813 
L 461.8 156.916626 
" style="fill:none;stroke:#000000;stroke-dasharray:9.6,2.4,1.5,2.4;stroke-dashoffset:0;stroke-width:1.5;"/>
   </g>
   <g id="line2d_32">
    <path clip-path="url(#pe8e88e0a05)" d="M 102.482842 156.931244 
L 107.23968 156.927745 
L 108.653875 156.92654 
L 110.153779 156.927567 
L 111.739392 156.926934 
L 113.410714 156.924532 
L 115.210598 156.918634 
L 117.124762 156.918512 
L 119.153203 156.911405 
L 121.338778 156.912701 
L 123.69577 156.902191 
L 126.224179 156.868662 
L 128.952576 156.822365 
L 131.895245 156.811833 
L 135.109325 156.732765 
L 138.609101 156.706358 
L 142.437427 156.609067 
L 146.637158 156.492074 
L 151.294003 156.387509 
L 156.450816 156.144659 
L 162.20759 155.962427 
L 168.678605 155.560077 
L 176.006707 155.155075 
L 184.3776 154.177993 
L 194.005555 153.137642 
L 205.161984 147.992714 
L 218.446848 142.91977 
L 221.446656 143.586565 
L 224.446464 144.776187 
L 227.017728 145.757437 
L 230.160384 146.42802 
L 233.588736 146.007485 
L 236.731392 144.681472 
L 256.587264 132.201802 
L 281.442816 123.840348 
L 287.156736 123.150821 
L 293.156352 122.779538 
L 299.584512 122.699977 
L 306.15552 122.88183 
L 313.29792 123.298577 
L 320.868864 123.91612 
L 328.725504 124.711727 
L 337.153536 125.65509 
L 340.724736 126.068048 
L 346.15296 126.723477 
L 355.723776 127.897945 
L 367.151616 129.288364 
L 378.150912 130.621953 
L 390.007296 132.008583 
L 402.863616 133.433099 
L 416.577024 134.880347 
L 461.8 138.495712 
" style="fill:none;stroke:#9932cc;stroke-dasharray:9.6,2.4,1.5,2.4;stroke-dashoffset:0;stroke-width:1.5;"/>
   </g>
   <g id="line2d_33">
    <path clip-path="url(#pe8e88e0a05)" d="M 102.482842 156.930561 
L 108.396749 156.931654 
L 109.868083 156.928951 
L 111.439411 156.922982 
L 113.110733 156.910934 
L 114.882048 156.89398 
L 116.767642 156.877839 
L 118.781798 156.877475 
L 120.938803 156.875637 
L 123.252941 156.876186 
L 125.752781 156.869474 
L 128.438323 156.861024 
L 131.352422 156.842443 
L 134.509363 156.833582 
L 137.952 156.800917 
L 141.723187 156.773278 
L 145.851494 156.719717 
L 150.42263 156.665099 
L 155.47945 156.579932 
L 161.121946 156.474994 
L 167.464397 156.311801 
L 174.621082 156.113893 
L 182.777702 155.852704 
L 192.162816 155.306523 
L 203.019264 154.591726 
L 215.875584 152.5247 
L 231.16032 143.735544 
L 234.588672 141.619587 
L 238.159872 139.913596 
L 241.87392 139.120112 
L 245.730816 139.721838 
L 249.73056 141.79812 
L 254.016 144.819972 
L 258.444288 147.729413 
L 263.015424 149.071723 
L 267.729408 147.921171 
L 272.871936 145.110916 
L 278.157312 141.652648 
L 309.01248 123.68685 
L 316.297728 120.407117 
L 323.868672 117.299305 
L 332.011008 114.396476 
L 340.724736 111.711856 
L 350.009856 109.238831 
L 356.723712 107.638638 
L 367.151616 105.535906 
L 378.150912 103.631545 
L 390.007296 101.925554 
L 402.863616 100.398098 
L 416.577024 99.035951 
L 461.8 96.636419 
" style="fill:none;stroke:#0000ff;stroke-dasharray:1.5,2.475;stroke-dashoffset:0;stroke-width:1.5;"/>
   </g>
   <g id="line2d_34">
    <path clip-path="url(#pe8e88e0a05)" d="M 102.482842 156.894383 
L 108.396749 156.883367 
L 109.868083 156.877819 
L 111.439411 156.871372 
L 113.110733 156.845617 
L 114.882048 156.762962 
L 116.767642 156.652404 
L 118.781798 156.598645 
L 120.938803 156.586015 
L 123.252941 156.587801 
L 125.752781 156.53629 
L 128.438323 156.497608 
L 131.352422 156.444379 
L 134.509363 156.376536 
L 137.952 156.250768 
L 141.723187 156.177371 
L 145.851494 155.935359 
L 150.42263 155.852704 
L 155.47945 155.485057 
L 161.121946 155.308506 
L 167.464397 154.933585 
L 174.621082 154.517667 
L 182.777702 154.082574 
L 192.162816 153.10725 
L 203.019264 153.652109 
L 215.875584 151.732539 
L 231.16032 149.779246 
L 234.588672 149.699898 
L 238.159872 149.878432 
L 241.87392 150.386261 
L 245.730816 151.237934 
L 249.73056 152.426176 
L 254.016 153.921893 
L 258.444288 155.535972 
L 263.015424 155.278089 
L 267.729408 153.029224 
L 272.871936 150.388906 
L 278.157312 147.550879 
L 309.01248 132.428398 
L 316.297728 129.459446 
L 323.868672 126.556617 
L 332.011008 123.746362 
L 340.724736 121.022067 
L 350.009856 118.40357 
L 356.723712 116.631456 
L 367.151616 114.21133 
L 378.150912 111.916839 
L 390.007296 109.747983 
L 402.863616 107.717987 
L 416.577024 105.82685 
L 461.8 102.109407 
" style="fill:none;stroke:#008000;stroke-dasharray:1.5,2.475;stroke-dashoffset:0;stroke-width:1.5;"/>
   </g>
   <g id="line2d_35">
    <path clip-path="url(#pe8e88e0a05)" d="M 102.482842 156.933752 
L 108.396749 156.933583 
L 109.868083 156.933696 
L 111.439411 156.933461 
L 113.110733 156.933468 
L 114.882048 156.933611 
L 116.767642 156.933679 
L 118.781798 156.933402 
L 120.938803 156.933323 
L 123.252941 156.933126 
L 125.752781 156.933344 
L 128.438323 156.93314 
L 131.352422 156.932825 
L 134.509363 156.932049 
L 137.952 156.931235 
L 141.723187 156.931535 
L 145.851494 156.930417 
L 150.42263 156.929398 
L 155.47945 156.927376 
L 161.121946 156.928017 
L 167.464397 156.927684 
L 174.621082 156.925534 
L 182.777702 156.915093 
L 192.162816 156.908507 
L 203.019264 156.916925 
L 215.875584 156.91307 
L 231.16032 156.882964 
L 234.588672 156.874143 
L 238.159872 156.864528 
L 241.87392 156.855535 
L 245.730816 156.849188 
L 249.73056 156.847204 
L 254.016 156.849584 
L 258.444288 156.855006 
L 263.015424 156.861817 
L 267.729408 156.868892 
L 272.871936 156.875571 
L 278.157312 156.881648 
L 309.01248 156.902166 
L 316.297728 156.903978 
L 323.868672 156.904447 
L 332.011008 156.904824 
L 340.724736 156.917011 
L 350.009856 156.927671 
L 356.723712 156.929669 
L 367.151616 156.930366 
L 378.150912 156.93085 
L 390.007296 156.931425 
L 402.863616 156.93203 
L 416.577024 156.93261 
L 461.8 156.932882 
" style="fill:none;stroke:#ff0000;stroke-dasharray:1.5,2.475;stroke-dashoffset:0;stroke-width:1.5;"/>
   </g>
   <g id="line2d_36">
    <path clip-path="url(#pe8e88e0a05)" d="M 102.482842 156.933818 
L 108.396749 156.933738 
L 109.868083 156.933679 
L 111.439411 156.933754 
L 113.110733 156.933801 
L 114.882048 156.933689 
L 116.767642 156.933719 
L 118.781798 156.933641 
L 120.938803 156.933754 
L 123.252941 156.933597 
L 125.752781 156.933509 
L 128.438323 156.933214 
L 131.352422 156.933544 
L 134.509363 156.933469 
L 137.952 156.933236 
L 141.723187 156.931766 
L 145.851494 156.930481 
L 150.42263 156.930525 
L 155.47945 156.92895 
L 161.121946 156.928518 
L 167.464397 156.93095 
L 174.621082 156.926419 
L 182.777702 156.925101 
L 192.162816 156.932935 
L 203.019264 156.918853 
L 215.875584 156.906654 
L 231.16032 156.905919 
L 234.588672 156.908779 
L 238.159872 156.912337 
L 241.87392 156.915678 
L 245.730816 156.91819 
L 249.73056 156.919869 
L 254.016 156.921089 
L 258.444288 156.922168 
L 263.015424 156.923241 
L 267.729408 156.924324 
L 272.871936 156.925389 
L 278.157312 156.9264 
L 309.01248 156.929886 
L 316.297728 156.930169 
L 323.868672 156.93028 
L 332.011008 156.930469 
L 340.724736 156.932252 
L 350.009856 156.93378 
L 356.723712 156.93343 
L 367.151616 156.933169 
L 378.150912 156.933073 
L 390.007296 156.933046 
L 402.863616 156.933054 
L 416.577024 156.93308 
L 461.8 156.933191 
" style="fill:none;stroke:#ffa500;stroke-dasharray:1.5,2.475;stroke-dashoffset:0;stroke-width:1.5;"/>
   </g>
   <g id="line2d_37">
    <path clip-path="url(#pe8e88e0a05)" d="M 102.482842 156.933566 
L 108.396749 156.932075 
L 109.868083 156.932138 
L 111.439411 156.929306 
L 113.110733 156.928022 
L 114.882048 156.928473 
L 116.767642 156.929958 
L 118.781798 156.928101 
L 120.938803 156.927628 
L 123.252941 156.925207 
L 125.752781 156.929314 
L 128.438323 156.926412 
L 131.352422 156.920937 
L 134.509363 156.908889 
L 137.952 156.90806 
L 141.723187 156.921748 
L 145.851494 156.916758 
L 150.42263 156.914049 
L 155.47945 156.89844 
L 161.121946 156.88931 
L 167.464397 156.880028 
L 174.621082 156.825282 
L 182.777702 156.778758 
L 192.162816 156.791943 
L 203.019264 156.761028 
L 215.875584 156.67764 
L 231.16032 156.454946 
L 234.588672 156.360231 
L 238.159872 156.248088 
L 241.87392 156.133672 
L 245.730816 156.038957 
L 249.73056 155.98478 
L 254.016 155.975687 
L 258.444288 155.999556 
L 263.015424 156.040094 
L 267.729408 156.085557 
L 272.871936 156.128368 
L 278.157312 156.165496 
L 309.01248 156.186334 
L 316.297728 156.115108 
L 323.868672 155.962806 
L 332.011008 155.715789 
L 340.724736 155.978339 
L 350.009856 156.493969 
L 356.723712 156.677792 
L 367.151616 156.81259 
L 378.150912 156.879459 
L 390.007296 156.914826 
L 402.863616 156.928435 
L 416.577024 156.920687 
L 461.8 156.918618 
" style="fill:none;stroke:#000000;stroke-dasharray:1.5,2.475;stroke-dashoffset:0;stroke-width:1.5;"/>
   </g>
   <g id="line2d_38">
    <path clip-path="url(#pe8e88e0a05)" d="M 102.482842 156.929234 
L 108.396749 156.930618 
L 109.868083 156.926813 
L 111.439411 156.919141 
L 113.110733 156.906124 
L 114.882048 156.883551 
L 116.767642 156.862941 
L 118.781798 156.861577 
L 120.938803 156.865176 
L 123.252941 156.862183 
L 125.752781 156.855212 
L 128.438323 156.843165 
L 131.352422 156.829601 
L 134.509363 156.800959 
L 137.952 156.782206 
L 141.723187 156.726021 
L 145.851494 156.683399 
L 150.42263 156.595844 
L 155.47945 156.50344 
L 161.121946 156.358715 
L 167.464397 156.173453 
L 174.621082 155.921131 
L 182.777702 155.454754 
L 192.162816 154.930032 
L 203.019264 153.054293 
L 215.875584 148.41325 
L 231.16032 146.29163 
L 234.588672 144.950463 
L 238.159872 142.154472 
L 241.87392 138.521198 
L 245.730816 134.781843 
L 249.73056 131.31148 
L 254.016 128.257863 
L 258.444288 125.670245 
L 263.015424 123.556202 
L 267.729408 121.919524 
L 272.871936 120.73369 
L 278.157312 119.975969 
L 309.01248 121.051933 
L 316.297728 121.934679 
L 323.868672 122.950025 
L 332.011008 124.07903 
L 340.724736 125.298961 
L 350.009856 126.598453 
L 356.723712 127.541816 
L 367.151616 128.932235 
L 378.150912 130.368117 
L 390.007296 131.82673 
L 402.863616 133.308075 
L 416.577024 134.800786 
L 461.8 138.460009 
" style="fill:none;stroke:#9932cc;stroke-dasharray:1.5,2.475;stroke-dashoffset:0;stroke-width:1.5;"/>
   </g>
   <g id="patch_3">
    <path d="M 57.6 162.432 
L 57.6 41.472 
" style="fill:none;stroke:#000000;stroke-linecap:square;stroke-linejoin:miter;stroke-width:0.8;"/>
   </g>
   <g id="patch_4">
    <path d="M 414.72 162.432 
L 414.72 41.472 
" style="fill:none;stroke:#000000;stroke-linecap:square;stroke-linejoin:miter;stroke-width:0.8;"/>
   </g>
   <g id="patch_5">
    <path d="M 57.6 162.432 
L 414.72 162.432 
" style="fill:none;stroke:#000000;stroke-linecap:square;stroke-linejoin:miter;stroke-width:0.8;"/>
   </g>
   <g id="patch_6">
    <path d="M 57.6 41.472 
L 414.72 41.472 
" style="fill:none;stroke:#000000;stroke-linecap:square;stroke-linejoin:miter;stroke-width:0.8;"/>
   </g>
   <g id="legend_1">
    <g id="patch_7">
     <path d="M 63.2 118.327 
L 316.9675 118.327 
Q 318.5675 118.327 318.5675 116.727 
L 318.5675 47.072 
Q 318.5675 45.472 316.9675 45.472 
L 63.2 45.472 
Q 61.6 45.472 61.6 47.072 
L 61.6 116.727 
Q 61.6 118.327 63.2 118.327 
z
" style="fill:#ffffff;opacity:0.8;stroke:#cccccc;stroke-linejoin:miter;"/>
    </g>
    <g id="line2d_39">
     <path d="M 64.8 51.95075 
L 80.8 51.95075 
" style="fill:none;stroke:#0000ff;stroke-linecap:square;stroke-width:1.5;"/>
    </g>
    <g id="line2d_40"/>
    <g id="text_13">
     <!-- Heave (Min) -->
     <defs>
      <path d="M 9.8125 72.90625 
L 19.671875 72.90625 
L 19.671875 43.015625 
L 55.515625 43.015625 
L 55.515625 72.90625 
L 65.375 72.90625 
L 65.375 0 
L 55.515625 0 
L 55.515625 34.71875 
L 19.671875 34.71875 
L 19.671875 0 
L 9.8125 0 
z
" id="DejaVuSans-48"/>
      <path d="M 34.28125 27.484375 
Q 23.390625 27.484375 19.1875 25 
Q 14.984375 22.515625 14.984375 16.5 
Q 14.984375 11.71875 18.140625 8.90625 
Q 21.296875 6.109375 26.703125 6.109375 
Q 34.1875 6.109375 38.703125 11.40625 
Q 43.21875 16.703125 43.21875 25.484375 
L 43.21875 27.484375 
z
M 52.203125 31.203125 
L 52.203125 0 
L 43.21875 0 
L 43.21875 8.296875 
Q 40.140625 3.328125 35.546875 0.953125 
Q 30.953125 -1.421875 24.3125 -1.421875 
Q 15.921875 -1.421875 10.953125 3.296875 
Q 6 8.015625 6 15.921875 
Q 6 25.140625 12.171875 29.828125 
Q 18.359375 34.515625 30.609375 34.515625 
L 43.21875 34.515625 
L 43.21875 35.40625 
Q 43.21875 41.609375 39.140625 45 
Q 35.0625 48.390625 27.6875 48.390625 
Q 23 48.390625 18.546875 47.265625 
Q 14.109375 46.140625 10.015625 43.890625 
L 10.015625 52.203125 
Q 14.9375 54.109375 19.578125 55.046875 
Q 24.21875 56 28.609375 56 
Q 40.484375 56 46.34375 49.84375 
Q 52.203125 43.703125 52.203125 31.203125 
z
" id="DejaVuSans-61"/>
      <path d="M 2.984375 54.6875 
L 12.5 54.6875 
L 29.59375 8.796875 
L 46.6875 54.6875 
L 56.203125 54.6875 
L 35.6875 0 
L 23.484375 0 
z
" id="DejaVuSans-76"/>
      <path d="M 9.8125 72.90625 
L 24.515625 72.90625 
L 43.109375 23.296875 
L 61.8125 72.90625 
L 76.515625 72.90625 
L 76.515625 0 
L 66.890625 0 
L 66.890625 64.015625 
L 48.09375 14.015625 
L 38.1875 14.015625 
L 19.390625 64.015625 
L 19.390625 0 
L 9.8125 0 
z
" id="DejaVuSans-4d"/>
      <path d="M 54.890625 33.015625 
L 54.890625 0 
L 45.90625 0 
L 45.90625 32.71875 
Q 45.90625 40.484375 42.875 44.328125 
Q 39.84375 48.1875 33.796875 48.1875 
Q 26.515625 48.1875 22.3125 43.546875 
Q 18.109375 38.921875 18.109375 30.90625 
L 18.109375 0 
L 9.078125 0 
L 9.078125 54.6875 
L 18.109375 54.6875 
L 18.109375 46.1875 
Q 21.34375 51.125 25.703125 53.5625 
Q 30.078125 56 35.796875 56 
Q 45.21875 56 50.046875 50.171875 
Q 54.890625 44.34375 54.890625 33.015625 
z
" id="DejaVuSans-6e"/>
     </defs>
     <g transform="translate(87.2 54.75075)scale(0.08 -0.08)">
      <use xlink:href="#DejaVuSans-48"/>
      <use x="75.195312" xlink:href="#DejaVuSans-65"/>
      <use x="136.71875" xlink:href="#DejaVuSans-61"/>
      <use x="197.998047" xlink:href="#DejaVuSans-76"/>
      <use x="257.177734" xlink:href="#DejaVuSans-65"/>
      <use x="318.701172" xlink:href="#DejaVuSans-20"/>
      <use x="350.488281" xlink:href="#DejaVuSans-28"/>
      <use x="389.501953" xlink:href="#DejaVuSans-4d"/>
      <use x="475.78125" xlink:href="#DejaVuSans-69"/>
      <use x="503.564453" xlink:href="#DejaVuSans-6e"/>
      <use x="566.943359" xlink:href="#DejaVuSans-29"/>
     </g>
    </g>
    <g id="line2d_41">
     <path d="M 64.8 63.69325 
L 80.8 63.69325 
" style="fill:none;stroke:#008000;stroke-linecap:square;stroke-width:1.5;"/>
    </g>
    <g id="line2d_42"/>
    <g id="text_14">
     <!-- Surge (Min) -->
     <defs>
      <path d="M 53.515625 70.515625 
L 53.515625 60.890625 
Q 47.90625 63.578125 42.921875 64.890625 
Q 37.9375 66.21875 33.296875 66.21875 
Q 25.25 66.21875 20.875 63.09375 
Q 16.5 59.96875 16.5 54.203125 
Q 16.5 49.359375 19.40625 46.890625 
Q 22.3125 44.4375 30.421875 42.921875 
L 36.375 41.703125 
Q 47.40625 39.59375 52.65625 34.296875 
Q 57.90625 29 57.90625 20.125 
Q 57.90625 9.515625 50.796875 4.046875 
Q 43.703125 -1.421875 29.984375 -1.421875 
Q 24.8125 -1.421875 18.96875 -0.25 
Q 13.140625 0.921875 6.890625 3.21875 
L 6.890625 13.375 
Q 12.890625 10.015625 18.65625 8.296875 
Q 24.421875 6.59375 29.984375 6.59375 
Q 38.421875 6.59375 43.015625 9.90625 
Q 47.609375 13.234375 47.609375 19.390625 
Q 47.609375 24.75 44.3125 27.78125 
Q 41.015625 30.8125 33.5 32.328125 
L 27.484375 33.5 
Q 16.453125 35.6875 11.515625 40.375 
Q 6.59375 45.0625 6.59375 53.421875 
Q 6.59375 63.09375 13.40625 68.65625 
Q 20.21875 74.21875 32.171875 74.21875 
Q 37.3125 74.21875 42.625 73.28125 
Q 47.953125 72.359375 53.515625 70.515625 
z
" id="DejaVuSans-53"/>
     </defs>
     <g transform="translate(87.2 66.49325)scale(0.08 -0.08)">
      <use xlink:href="#DejaVuSans-53"/>
      <use x="63.476562" xlink:href="#DejaVuSans-75"/>
      <use x="126.855469" xlink:href="#DejaVuSans-72"/>
      <use x="167.953125" xlink:href="#DejaVuSans-67"/>
      <use x="231.429688" xlink:href="#DejaVuSans-65"/>
      <use x="292.953125" xlink:href="#DejaVuSans-20"/>
      <use x="324.740234" xlink:href="#DejaVuSans-28"/>
      <use x="363.753906" xlink:href="#DejaVuSans-4d"/>
      <use x="450.033203" xlink:href="#DejaVuSans-69"/>
      <use x="477.816406" xlink:href="#DejaVuSans-6e"/>
      <use x="541.195312" xlink:href="#DejaVuSans-29"/>
     </g>
    </g>
    <g id="line2d_43">
     <path d="M 64.8 75.43575 
L 80.8 75.43575 
" style="fill:none;stroke:#ff0000;stroke-linecap:square;stroke-width:1.5;"/>
    </g>
    <g id="line2d_44"/>
    <g id="text_15">
     <!-- Sway (Min) -->
     <defs>
      <path d="M 4.203125 54.6875 
L 13.1875 54.6875 
L 24.421875 12.015625 
L 35.59375 54.6875 
L 46.1875 54.6875 
L 57.421875 12.015625 
L 68.609375 54.6875 
L 77.59375 54.6875 
L 63.28125 0 
L 52.6875 0 
L 40.921875 44.828125 
L 29.109375 0 
L 18.5 0 
z
" id="DejaVuSans-77"/>
      <path d="M 32.171875 -5.078125 
Q 28.375 -14.84375 24.75 -17.8125 
Q 21.140625 -20.796875 15.09375 -20.796875 
L 7.90625 -20.796875 
L 7.90625 -13.28125 
L 13.1875 -13.28125 
Q 16.890625 -13.28125 18.9375 -11.515625 
Q 21 -9.765625 23.484375 -3.21875 
L 25.09375 0.875 
L 2.984375 54.6875 
L 12.5 54.6875 
L 29.59375 11.921875 
L 46.6875 54.6875 
L 56.203125 54.6875 
z
" id="DejaVuSans-79"/>
     </defs>
     <g transform="translate(87.2 78.23575)scale(0.08 -0.08)">
      <use xlink:href="#DejaVuSans-53"/>
      <use x="63.476562" xlink:href="#DejaVuSans-77"/>
      <use x="145.263672" xlink:href="#DejaVuSans-61"/>
      <use x="206.542969" xlink:href="#DejaVuSans-79"/>
      <use x="265.722656" xlink:href="#DejaVuSans-20"/>
      <use x="297.509766" xlink:href="#DejaVuSans-28"/>
      <use x="336.523438" xlink:href="#DejaVuSans-4d"/>
      <use x="422.802734" xlink:href="#DejaVuSans-69"/>
      <use x="450.585938" xlink:href="#DejaVuSans-6e"/>
      <use x="513.964844" xlink:href="#DejaVuSans-29"/>
     </g>
    </g>
    <g id="line2d_45">
     <path d="M 64.8 87.17825 
L 80.8 87.17825 
" style="fill:none;stroke:#ffa500;stroke-linecap:square;stroke-width:1.5;"/>
    </g>
    <g id="line2d_46"/>
    <g id="text_16">
     <!-- Yaw (Min) -->
     <defs>
      <path d="M -0.203125 72.90625 
L 10.40625 72.90625 
L 30.609375 42.921875 
L 50.6875 72.90625 
L 61.28125 72.90625 
L 35.5 34.71875 
L 35.5 0 
L 25.59375 0 
L 25.59375 34.71875 
z
" id="DejaVuSans-59"/>
     </defs>
     <g transform="translate(87.2 89.97825)scale(0.08 -0.08)">
      <use xlink:href="#DejaVuSans-59"/>
      <use x="60.880859" xlink:href="#DejaVuSans-61"/>
      <use x="122.160156" xlink:href="#DejaVuSans-77"/>
      <use x="203.947266" xlink:href="#DejaVuSans-20"/>
      <use x="235.734375" xlink:href="#DejaVuSans-28"/>
      <use x="274.748047" xlink:href="#DejaVuSans-4d"/>
      <use x="361.027344" xlink:href="#DejaVuSans-69"/>
      <use x="388.810547" xlink:href="#DejaVuSans-6e"/>
      <use x="452.189453" xlink:href="#DejaVuSans-29"/>
     </g>
    </g>
    <g id="line2d_47">
     <path d="M 64.8 98.92075 
L 80.8 98.92075 
" style="fill:none;stroke:#000000;stroke-linecap:square;stroke-width:1.5;"/>
    </g>
    <g id="line2d_48"/>
    <g id="text_17">
     <!-- Roll (Min) -->
     <defs>
      <path d="M 44.390625 34.1875 
Q 47.5625 33.109375 50.5625 29.59375 
Q 53.5625 26.078125 56.59375 19.921875 
L 66.609375 0 
L 56 0 
L 46.6875 18.703125 
Q 43.0625 26.03125 39.671875 28.421875 
Q 36.28125 30.8125 30.421875 30.8125 
L 19.671875 30.8125 
L 19.671875 0 
L 9.8125 0 
L 9.8125 72.90625 
L 32.078125 72.90625 
Q 44.578125 72.90625 50.734375 67.671875 
Q 56.890625 62.453125 56.890625 51.90625 
Q 56.890625 45.015625 53.6875 40.46875 
Q 50.484375 35.9375 44.390625 34.1875 
z
M 19.671875 64.796875 
L 19.671875 38.921875 
L 32.078125 38.921875 
Q 39.203125 38.921875 42.84375 42.21875 
Q 46.484375 45.515625 46.484375 51.90625 
Q 46.484375 58.296875 42.84375 61.546875 
Q 39.203125 64.796875 32.078125 64.796875 
z
" id="DejaVuSans-52"/>
     </defs>
     <g transform="translate(87.2 101.72075)scale(0.08 -0.08)">
      <use xlink:href="#DejaVuSans-52"/>
      <use x="69.419922" xlink:href="#DejaVuSans-6f"/>
      <use x="130.601562" xlink:href="#DejaVuSans-6c"/>
      <use x="158.384766" xlink:href="#DejaVuSans-6c"/>
      <use x="186.167969" xlink:href="#DejaVuSans-20"/>
      <use x="217.955078" xlink:href="#DejaVuSans-28"/>
      <use x="256.96875" xlink:href="#DejaVuSans-4d"/>
      <use x="343.248047" xlink:href="#DejaVuSans-69"/>
      <use x="371.03125" xlink:href="#DejaVuSans-6e"/>
      <use x="434.410156" xlink:href="#DejaVuSans-29"/>
     </g>
    </g>
    <g id="line2d_49">
     <path d="M 64.8 110.66325 
L 80.8 110.66325 
" style="fill:none;stroke:#9932cc;stroke-linecap:square;stroke-width:1.5;"/>
    </g>
    <g id="line2d_50"/>
    <g id="text_18">
     <!-- Pitch (Min) -->
     <defs>
      <path d="M 19.671875 64.796875 
L 19.671875 37.40625 
L 32.078125 37.40625 
Q 38.96875 37.40625 42.71875 40.96875 
Q 46.484375 44.53125 46.484375 51.125 
Q 46.484375 57.671875 42.71875 61.234375 
Q 38.96875 64.796875 32.078125 64.796875 
z
M 9.8125 72.90625 
L 32.078125 72.90625 
Q 44.34375 72.90625 50.609375 67.359375 
Q 56.890625 61.8125 56.890625 51.125 
Q 56.890625 40.328125 50.609375 34.8125 
Q 44.34375 29.296875 32.078125 29.296875 
L 19.671875 29.296875 
L 19.671875 0 
L 9.8125 0 
z
" id="DejaVuSans-50"/>
      <path d="M 48.78125 52.59375 
L 48.78125 44.1875 
Q 44.96875 46.296875 41.140625 47.34375 
Q 37.3125 48.390625 33.40625 48.390625 
Q 24.65625 48.390625 19.8125 42.84375 
Q 14.984375 37.3125 14.984375 27.296875 
Q 14.984375 17.28125 19.8125 11.734375 
Q 24.65625 6.203125 33.40625 6.203125 
Q 37.3125 6.203125 41.140625 7.25 
Q 44.96875 8.296875 48.78125 10.40625 
L 48.78125 2.09375 
Q 45.015625 0.34375 40.984375 -0.53125 
Q 36.96875 -1.421875 32.421875 -1.421875 
Q 20.0625 -1.421875 12.78125 6.34375 
Q 5.515625 14.109375 5.515625 27.296875 
Q 5.515625 40.671875 12.859375 48.328125 
Q 20.21875 56 33.015625 56 
Q 37.15625 56 41.109375 55.140625 
Q 45.0625 54.296875 48.78125 52.59375 
z
" id="DejaVuSans-63"/>
      <path d="M 54.890625 33.015625 
L 54.890625 0 
L 45.90625 0 
L 45.90625 32.71875 
Q 45.90625 40.484375 42.875 44.328125 
Q 39.84375 48.1875 33.796875 48.1875 
Q 26.515625 48.1875 22.3125 43.546875 
Q 18.109375 38.921875 18.109375 30.90625 
L 18.109375 0 
L 9.078125 0 
L 9.078125 75.984375 
L 18.109375 75.984375 
L 18.109375 46.1875 
Q 21.34375 51.125 25.703125 53.5625 
Q 30.078125 56 35.796875 56 
Q 45.21875 56 50.046875 50.171875 
Q 54.890625 44.34375 54.890625 33.015625 
z
" id="DejaVuSans-68"/>
     </defs>
     <g transform="translate(87.2 113.46325)scale(0.08 -0.08)">
      <use xlink:href="#DejaVuSans-50"/>
      <use x="60.271484" xlink:href="#DejaVuSans-69"/>
      <use x="88.054688" xlink:href="#DejaVuSans-74"/>
      <use x="127.263672" xlink:href="#DejaVuSans-63"/>
      <use x="182.244141" xlink:href="#DejaVuSans-68"/>
      <use x="245.623047" xlink:href="#DejaVuSans-20"/>
      <use x="277.410156" xlink:href="#DejaVuSans-28"/>
      <use x="316.423828" xlink:href="#DejaVuSans-4d"/>
      <use x="402.703125" xlink:href="#DejaVuSans-69"/>
      <use x="430.486328" xlink:href="#DejaVuSans-6e"/>
      <use x="493.865234" xlink:href="#DejaVuSans-29"/>
     </g>
    </g>
    <g id="line2d_51">
     <path d="M 151.67875 51.95075 
L 167.67875 51.95075 
" style="fill:none;stroke:#0000ff;stroke-dasharray:9.6,2.4,1.5,2.4;stroke-dashoffset:0;stroke-width:1.5;"/>
    </g>
    <g id="line2d_52"/>
    <g id="text_19">
     <!-- Heave (50%) -->
     <defs>
      <path d="M 72.703125 32.078125 
Q 68.453125 32.078125 66.03125 28.46875 
Q 63.625 24.859375 63.625 18.40625 
Q 63.625 12.0625 66.03125 8.421875 
Q 68.453125 4.78125 72.703125 4.78125 
Q 76.859375 4.78125 79.265625 8.421875 
Q 81.6875 12.0625 81.6875 18.40625 
Q 81.6875 24.8125 79.265625 28.4375 
Q 76.859375 32.078125 72.703125 32.078125 
z
M 72.703125 38.28125 
Q 80.421875 38.28125 84.953125 32.90625 
Q 89.5 27.546875 89.5 18.40625 
Q 89.5 9.28125 84.9375 3.921875 
Q 80.375 -1.421875 72.703125 -1.421875 
Q 64.890625 -1.421875 60.34375 3.921875 
Q 55.8125 9.28125 55.8125 18.40625 
Q 55.8125 27.59375 60.375 32.9375 
Q 64.9375 38.28125 72.703125 38.28125 
z
M 22.3125 68.015625 
Q 18.109375 68.015625 15.6875 64.375 
Q 13.28125 60.75 13.28125 54.390625 
Q 13.28125 47.953125 15.671875 44.328125 
Q 18.0625 40.71875 22.3125 40.71875 
Q 26.5625 40.71875 28.96875 44.328125 
Q 31.390625 47.953125 31.390625 54.390625 
Q 31.390625 60.6875 28.953125 64.34375 
Q 26.515625 68.015625 22.3125 68.015625 
z
M 66.40625 74.21875 
L 74.21875 74.21875 
L 28.609375 -1.421875 
L 20.796875 -1.421875 
z
M 22.3125 74.21875 
Q 30.03125 74.21875 34.609375 68.875 
Q 39.203125 63.53125 39.203125 54.390625 
Q 39.203125 45.171875 34.640625 39.84375 
Q 30.078125 34.515625 22.3125 34.515625 
Q 14.546875 34.515625 10.03125 39.859375 
Q 5.515625 45.21875 5.515625 54.390625 
Q 5.515625 63.484375 10.046875 68.84375 
Q 14.59375 74.21875 22.3125 74.21875 
z
" id="DejaVuSans-25"/>
     </defs>
     <g transform="translate(174.07875 54.75075)scale(0.08 -0.08)">
      <use xlink:href="#DejaVuSans-48"/>
      <use x="75.195312" xlink:href="#DejaVuSans-65"/>
      <use x="136.71875" xlink:href="#DejaVuSans-61"/>
      <use x="197.998047" xlink:href="#DejaVuSans-76"/>
      <use x="257.177734" xlink:href="#DejaVuSans-65"/>
      <use x="318.701172" xlink:href="#DejaVuSans-20"/>
      <use x="350.488281" xlink:href="#DejaVuSans-28"/>
      <use x="389.501953" xlink:href="#DejaVuSans-35"/>
      <use x="453.125" xlink:href="#DejaVuSans-30"/>
      <use x="516.748047" xlink:href="#DejaVuSans-25"/>
      <use x="611.767578" xlink:href="#DejaVuSans-29"/>
     </g>
    </g>
    <g id="line2d_53">
     <path d="M 151.67875 63.69325 
L 167.67875 63.69325 
" style="fill:none;stroke:#008000;stroke-dasharray:9.6,2.4,1.5,2.4;stroke-dashoffset:0;stroke-width:1.5;"/>
    </g>
    <g id="line2d_54"/>
    <g id="text_20">
     <!-- Surge (50%) -->
     <g transform="translate(174.07875 66.49325)scale(0.08 -0.08)">
      <use xlink:href="#DejaVuSans-53"/>
      <use x="63.476562" xlink:href="#DejaVuSans-75"/>
      <use x="126.855469" xlink:href="#DejaVuSans-72"/>
      <use x="167.953125" xlink:href="#DejaVuSans-67"/>
      <use x="231.429688" xlink:href="#DejaVuSans-65"/>
      <use x="292.953125" xlink:href="#DejaVuSans-20"/>
      <use x="324.740234" xlink:href="#DejaVuSans-28"/>
      <use x="363.753906" xlink:href="#DejaVuSans-35"/>
      <use x="427.376953" xlink:href="#DejaVuSans-30"/>
      <use x="491" xlink:href="#DejaVuSans-25"/>
      <use x="586.019531" xlink:href="#DejaVuSans-29"/>
     </g>
    </g>
    <g id="line2d_55">
     <path d="M 151.67875 75.43575 
L 167.67875 75.43575 
" style="fill:none;stroke:#ff0000;stroke-dasharray:9.6,2.4,1.5,2.4;stroke-dashoffset:0;stroke-width:1.5;"/>
    </g>
    <g id="line2d_56"/>
    <g id="text_21">
     <!-- Sway (50%) -->
     <g transform="translate(174.07875 78.23575)scale(0.08 -0.08)">
      <use xlink:href="#DejaVuSans-53"/>
      <use x="63.476562" xlink:href="#DejaVuSans-77"/>
      <use x="145.263672" xlink:href="#DejaVuSans-61"/>
      <use x="206.542969" xlink:href="#DejaVuSans-79"/>
      <use x="265.722656" xlink:href="#DejaVuSans-20"/>
      <use x="297.509766" xlink:href="#DejaVuSans-28"/>
      <use x="336.523438" xlink:href="#DejaVuSans-35"/>
      <use x="400.146484" xlink:href="#DejaVuSans-30"/>
      <use x="463.769531" xlink:href="#DejaVuSans-25"/>
      <use x="558.789062" xlink:href="#DejaVuSans-29"/>
     </g>
    </g>
    <g id="line2d_57">
     <path d="M 151.67875 87.17825 
L 167.67875 87.17825 
" style="fill:none;stroke:#ffa500;stroke-dasharray:9.6,2.4,1.5,2.4;stroke-dashoffset:0;stroke-width:1.5;"/>
    </g>
    <g id="line2d_58"/>
    <g id="text_22">
     <!-- Yaw (50%) -->
     <g transform="translate(174.07875 89.97825)scale(0.08 -0.08)">
      <use xlink:href="#DejaVuSans-59"/>
      <use x="60.880859" xlink:href="#DejaVuSans-61"/>
      <use x="122.160156" xlink:href="#DejaVuSans-77"/>
      <use x="203.947266" xlink:href="#DejaVuSans-20"/>
      <use x="235.734375" xlink:href="#DejaVuSans-28"/>
      <use x="274.748047" xlink:href="#DejaVuSans-35"/>
      <use x="338.371094" xlink:href="#DejaVuSans-30"/>
      <use x="401.994141" xlink:href="#DejaVuSans-25"/>
      <use x="497.013672" xlink:href="#DejaVuSans-29"/>
     </g>
    </g>
    <g id="line2d_59">
     <path d="M 151.67875 98.92075 
L 167.67875 98.92075 
" style="fill:none;stroke:#000000;stroke-dasharray:9.6,2.4,1.5,2.4;stroke-dashoffset:0;stroke-width:1.5;"/>
    </g>
    <g id="line2d_60"/>
    <g id="text_23">
     <!-- Roll (50%) -->
     <g transform="translate(174.07875 101.72075)scale(0.08 -0.08)">
      <use xlink:href="#DejaVuSans-52"/>
      <use x="69.419922" xlink:href="#DejaVuSans-6f"/>
      <use x="130.601562" xlink:href="#DejaVuSans-6c"/>
      <use x="158.384766" xlink:href="#DejaVuSans-6c"/>
      <use x="186.167969" xlink:href="#DejaVuSans-20"/>
      <use x="217.955078" xlink:href="#DejaVuSans-28"/>
      <use x="256.96875" xlink:href="#DejaVuSans-35"/>
      <use x="320.591797" xlink:href="#DejaVuSans-30"/>
      <use x="384.214844" xlink:href="#DejaVuSans-25"/>
      <use x="479.234375" xlink:href="#DejaVuSans-29"/>
     </g>
    </g>
    <g id="line2d_61">
     <path d="M 151.67875 110.66325 
L 167.67875 110.66325 
" style="fill:none;stroke:#9932cc;stroke-dasharray:9.6,2.4,1.5,2.4;stroke-dashoffset:0;stroke-width:1.5;"/>
    </g>
    <g id="line2d_62"/>
    <g id="text_24">
     <!-- Pitch (50%) -->
     <g transform="translate(174.07875 113.46325)scale(0.08 -0.08)">
      <use xlink:href="#DejaVuSans-50"/>
      <use x="60.271484" xlink:href="#DejaVuSans-69"/>
      <use x="88.054688" xlink:href="#DejaVuSans-74"/>
      <use x="127.263672" xlink:href="#DejaVuSans-63"/>
      <use x="182.244141" xlink:href="#DejaVuSans-68"/>
      <use x="245.623047" xlink:href="#DejaVuSans-20"/>
      <use x="277.410156" xlink:href="#DejaVuSans-28"/>
      <use x="316.423828" xlink:href="#DejaVuSans-35"/>
      <use x="380.046875" xlink:href="#DejaVuSans-30"/>
      <use x="443.669922" xlink:href="#DejaVuSans-25"/>
      <use x="538.689453" xlink:href="#DejaVuSans-29"/>
     </g>
    </g>
    <g id="line2d_63">
     <path d="M 242.14375 51.95075 
L 258.14375 51.95075 
" style="fill:none;stroke:#0000ff;stroke-dasharray:1.5,2.475;stroke-dashoffset:0;stroke-width:1.5;"/>
    </g>
    <g id="line2d_64"/>
    <g id="text_25">
     <!-- Heave (Max) -->
     <defs>
      <path d="M 54.890625 54.6875 
L 35.109375 28.078125 
L 55.90625 0 
L 45.3125 0 
L 29.390625 21.484375 
L 13.484375 0 
L 2.875 0 
L 24.125 28.609375 
L 4.6875 54.6875 
L 15.28125 54.6875 
L 29.78125 35.203125 
L 44.28125 54.6875 
z
" id="DejaVuSans-78"/>
     </defs>
     <g transform="translate(264.54375 54.75075)scale(0.08 -0.08)">
      <use xlink:href="#DejaVuSans-48"/>
      <use x="75.195312" xlink:href="#DejaVuSans-65"/>
      <use x="136.71875" xlink:href="#DejaVuSans-61"/>
      <use x="197.998047" xlink:href="#DejaVuSans-76"/>
      <use x="257.177734" xlink:href="#DejaVuSans-65"/>
      <use x="318.701172" xlink:href="#DejaVuSans-20"/>
      <use x="350.488281" xlink:href="#DejaVuSans-28"/>
      <use x="389.501953" xlink:href="#DejaVuSans-4d"/>
      <use x="475.78125" xlink:href="#DejaVuSans-61"/>
      <use x="537.060547" xlink:href="#DejaVuSans-78"/>
      <use x="596.240234" xlink:href="#DejaVuSans-29"/>
     </g>
    </g>
    <g id="line2d_65">
     <path d="M 242.14375 63.69325 
L 258.14375 63.69325 
" style="fill:none;stroke:#008000;stroke-dasharray:1.5,2.475;stroke-dashoffset:0;stroke-width:1.5;"/>
    </g>
    <g id="line2d_66"/>
    <g id="text_26">
     <!-- Surge (Max) -->
     <g transform="translate(264.54375 66.49325)scale(0.08 -0.08)">
      <use xlink:href="#DejaVuSans-53"/>
      <use x="63.476562" xlink:href="#DejaVuSans-75"/>
      <use x="126.855469" xlink:href="#DejaVuSans-72"/>
      <use x="167.953125" xlink:href="#DejaVuSans-67"/>
      <use x="231.429688" xlink:href="#DejaVuSans-65"/>
      <use x="292.953125" xlink:href="#DejaVuSans-20"/>
      <use x="324.740234" xlink:href="#DejaVuSans-28"/>
      <use x="363.753906" xlink:href="#DejaVuSans-4d"/>
      <use x="450.033203" xlink:href="#DejaVuSans-61"/>
      <use x="511.3125" xlink:href="#DejaVuSans-78"/>
      <use x="570.492188" xlink:href="#DejaVuSans-29"/>
     </g>
    </g>
    <g id="line2d_67">
     <path d="M 242.14375 75.43575 
L 258.14375 75.43575 
" style="fill:none;stroke:#ff0000;stroke-dasharray:1.5,2.475;stroke-dashoffset:0;stroke-width:1.5;"/>
    </g>
    <g id="line2d_68"/>
    <g id="text_27">
     <!-- Sway (Max) -->
     <g transform="translate(264.54375 78.23575)scale(0.08 -0.08)">
      <use xlink:href="#DejaVuSans-53"/>
      <use x="63.476562" xlink:href="#DejaVuSans-77"/>
      <use x="145.263672" xlink:href="#DejaVuSans-61"/>
      <use x="206.542969" xlink:href="#DejaVuSans-79"/>
      <use x="265.722656" xlink:href="#DejaVuSans-20"/>
      <use x="297.509766" xlink:href="#DejaVuSans-28"/>
      <use x="336.523438" xlink:href="#DejaVuSans-4d"/>
      <use x="422.802734" xlink:href="#DejaVuSans-61"/>
      <use x="484.082031" xlink:href="#DejaVuSans-78"/>
      <use x="543.261719" xlink:href="#DejaVuSans-29"/>
     </g>
    </g>
    <g id="line2d_69">
     <path d="M 242.14375 87.17825 
L 258.14375 87.17825 
" style="fill:none;stroke:#ffa500;stroke-dasharray:1.5,2.475;stroke-dashoffset:0;stroke-width:1.5;"/>
    </g>
    <g id="line2d_70"/>
    <g id="text_28">
     <!-- Yaw (Max) -->
     <g transform="translate(264.54375 89.97825)scale(0.08 -0.08)">
      <use xlink:href="#DejaVuSans-59"/>
      <use x="60.880859" xlink:href="#DejaVuSans-61"/>
      <use x="122.160156" xlink:href="#DejaVuSans-77"/>
      <use x="203.947266" xlink:href="#DejaVuSans-20"/>
      <use x="235.734375" xlink:href="#DejaVuSans-28"/>
      <use x="274.748047" xlink:href="#DejaVuSans-4d"/>
      <use x="361.027344" xlink:href="#DejaVuSans-61"/>
      <use x="422.306641" xlink:href="#DejaVuSans-78"/>
      <use x="481.486328" xlink:href="#DejaVuSans-29"/>
     </g>
    </g>
    <g id="line2d_71">
     <path d="M 242.14375 98.92075 
L 258.14375 98.92075 
" style="fill:none;stroke:#000000;stroke-dasharray:1.5,2.475;stroke-dashoffset:0;stroke-width:1.5;"/>
    </g>
    <g id="line2d_72"/>
    <g id="text_29">
     <!-- Roll (Max) -->
     <g transform="translate(264.54375 101.72075)scale(0.08 -0.08)">
      <use xlink:href="#DejaVuSans-52"/>
      <use x="69.419922" xlink:href="#DejaVuSans-6f"/>
      <use x="130.601562" xlink:href="#DejaVuSans-6c"/>
      <use x="158.384766" xlink:href="#DejaVuSans-6c"/>
      <use x="186.167969" xlink:href="#DejaVuSans-20"/>
      <use x="217.955078" xlink:href="#DejaVuSans-28"/>
      <use x="256.96875" xlink:href="#DejaVuSans-4d"/>
      <use x="343.248047" xlink:href="#DejaVuSans-61"/>
      <use x="404.527344" xlink:href="#DejaVuSans-78"/>
      <use x="463.707031" xlink:href="#DejaVuSans-29"/>
     </g>
    </g>
    <g id="line2d_73">
     <path d="M 242.14375 110.66325 
L 258.14375 110.66325 
" style="fill:none;stroke:#9932cc;stroke-dasharray:1.5,2.475;stroke-dashoffset:0;stroke-width:1.5;"/>
    </g>
    <g id="line2d_74"/>
    <g id="text_30">
     <!-- Pitch (Max) -->
     <g transform="translate(264.54375 113.46325)scale(0.08 -0.08)">
      <use xlink:href="#DejaVuSans-50"/>
      <use x="60.271484" xlink:href="#DejaVuSans-69"/>
      <use x="88.054688" xlink:href="#DejaVuSans-74"/>
      <use x="127.263672" xlink:href="#DejaVuSans-63"/>
      <use x="182.244141" xlink:href="#DejaVuSans-68"/>
      <use x="245.623047" xlink:href="#DejaVuSans-20"/>
      <use x="277.410156" xlink:href="#DejaVuSans-28"/>
      <use x="316.423828" xlink:href="#DejaVuSans-4d"/>
      <use x="402.703125" xlink:href="#DejaVuSans-61"/>
      <use x="463.982422" xlink:href="#DejaVuSans-78"/>
      <use x="523.162109" xlink:href="#DejaVuSans-29"/>
     </g>
    </g>
   </g>
  </g>
  <g id="axes_2">
   <g id="patch_8">
    <path d="M 57.6 307.584 
L 414.72 307.584 
L 414.72 186.624 
L 57.6 186.624 
z
" style="fill:#ffffff;"/>
   </g>
   <g id="patch_9">
    <path clip-path="url(#pc9c6aaa6ab)" d="M 94.74048 307.584 
L 106.16832 307.584 
L 106.16832 307.03394 
L 94.74048 307.03394 
z
" style="fill:#1f77b4;"/>
   </g>
   <g id="patch_10">
    <path clip-path="url(#pc9c6aaa6ab)" d="M 123.31008 307.584 
L 134.73792 307.584 
L 134.73792 280.39944 
L 123.31008 280.39944 
z
" style="fill:#ff7f0e;"/>
   </g>
   <g id="patch_11">
    <path clip-path="url(#pc9c6aaa6ab)" d="M 151.87968 307.584 
L 163.30752 307.584 
L 163.30752 192.384 
L 151.87968 192.384 
z
" style="fill:#2ca02c;"/>
   </g>
   <g id="patch_12">
    <path clip-path="url(#pc9c6aaa6ab)" d="M 180.44928 307.584 
L 191.87712 307.584 
L 191.87712 238.160598 
L 180.44928 238.160598 
z
" style="fill:#d62728;"/>
   </g>
   <g id="patch_13">
    <path clip-path="url(#pc9c6aaa6ab)" d="M 209.01888 307.584 
L 220.44672 307.584 
L 220.44672 267.250104 
L 209.01888 267.250104 
z
" style="fill:#9467bd;"/>
   </g>
   <g id="patch_14">
    <path clip-path="url(#pc9c6aaa6ab)" d="M 237.58848 307.584 
L 249.01632 307.584 
L 249.01632 280.963976 
L 237.58848 280.963976 
z
" style="fill:#8c564b;"/>
   </g>
   <g id="patch_15">
    <path clip-path="url(#pc9c6aaa6ab)" d="M 266.15808 307.584 
L 277.58592 307.584 
L 277.58592 298.267715 
L 266.15808 298.267715 
z
" style="fill:#e377c2;"/>
   </g>
   <g id="patch_16">
    <path clip-path="url(#pc9c6aaa6ab)" d="M 294.72768 307.584 
L 306.15552 307.584 
L 306.15552 306.767595 
L 294.72768 306.767595 
z
" style="fill:#7f7f7f;"/>
   </g>
   <g id="patch_17">
    <path clip-path="url(#pc9c6aaa6ab)" d="M 323.29728 307.584 
L 334.72512 307.584 
L 334.72512 307.523204 
L 323.29728 307.523204 
z
" style="fill:#bcbd22;"/>
   </g>
   <g id="matplotlib.axis_3">
    <g id="xtick_7">
     <g id="line2d_75">
      <path clip-path="url(#pc9c6aaa6ab)" d="M 57.6 307.584 
L 57.6 186.624 
" style="fill:none;stroke:#b0b0b0;stroke-linecap:square;stroke-width:0.8;"/>
     </g>
     <g id="line2d_76">
      <g>
       <use style="stroke:#000000;stroke-width:0.8;" x="57.6" xlink:href="#m9f2cb33adb" y="307.584"/>
      </g>
     </g>
     <g id="text_31">
      <!-- 0 -->
      <g transform="translate(54.41875 322.182437)scale(0.1 -0.1)">
       <use xlink:href="#DejaVuSans-30"/>
      </g>
     </g>
    </g>
    <g id="xtick_8">
     <g id="line2d_77">
      <path clip-path="url(#pc9c6aaa6ab)" d="M 129.024 307.584 
L 129.024 186.624 
" style="fill:none;stroke:#b0b0b0;stroke-linecap:square;stroke-width:0.8;"/>
     </g>
     <g id="line2d_78">
      <g>
       <use style="stroke:#000000;stroke-width:0.8;" x="129.024" xlink:href="#m9f2cb33adb" y="307.584"/>
      </g>
     </g>
     <g id="text_32">
      <!-- 5 -->
      <g transform="translate(125.84275 322.182437)scale(0.1 -0.1)">
       <use xlink:href="#DejaVuSans-35"/>
      </g>
     </g>
    </g>
    <g id="xtick_9">
     <g id="line2d_79">
      <path clip-path="url(#pc9c6aaa6ab)" d="M 200.448 307.584 
L 200.448 186.624 
" style="fill:none;stroke:#b0b0b0;stroke-linecap:square;stroke-width:0.8;"/>
     </g>
     <g id="line2d_80">
      <g>
       <use style="stroke:#000000;stroke-width:0.8;" x="200.448" xlink:href="#m9f2cb33adb" y="307.584"/>
      </g>
     </g>
     <g id="text_33">
      <!-- 10 -->
      <g transform="translate(194.0855 322.182437)scale(0.1 -0.1)">
       <use xlink:href="#DejaVuSans-31"/>
       <use x="63.623047" xlink:href="#DejaVuSans-30"/>
      </g>
     </g>
    </g>
    <g id="xtick_10">
     <g id="line2d_81">
      <path clip-path="url(#pc9c6aaa6ab)" d="M 271.872 307.584 
L 271.872 186.624 
" style="fill:none;stroke:#b0b0b0;stroke-linecap:square;stroke-width:0.8;"/>
     </g>
     <g id="line2d_82">
      <g>
       <use style="stroke:#000000;stroke-width:0.8;" x="271.872" xlink:href="#m9f2cb33adb" y="307.584"/>
      </g>
     </g>
     <g id="text_34">
      <!-- 15 -->
      <g transform="translate(265.5095 322.182437)scale(0.1 -0.1)">
       <use xlink:href="#DejaVuSans-31"/>
       <use x="63.623047" xlink:href="#DejaVuSans-35"/>
      </g>
     </g>
    </g>
    <g id="xtick_11">
     <g id="line2d_83">
      <path clip-path="url(#pc9c6aaa6ab)" d="M 343.296 307.584 
L 343.296 186.624 
" style="fill:none;stroke:#b0b0b0;stroke-linecap:square;stroke-width:0.8;"/>
     </g>
     <g id="line2d_84">
      <g>
       <use style="stroke:#000000;stroke-width:0.8;" x="343.296" xlink:href="#m9f2cb33adb" y="307.584"/>
      </g>
     </g>
     <g id="text_35">
      <!-- 20 -->
      <g transform="translate(336.9335 322.182437)scale(0.1 -0.1)">
       <use xlink:href="#DejaVuSans-32"/>
       <use x="63.623047" xlink:href="#DejaVuSans-30"/>
      </g>
     </g>
    </g>
    <g id="xtick_12">
     <g id="line2d_85">
      <path clip-path="url(#pc9c6aaa6ab)" d="M 414.72 307.584 
L 414.72 186.624 
" style="fill:none;stroke:#b0b0b0;stroke-linecap:square;stroke-width:0.8;"/>
     </g>
     <g id="line2d_86">
      <g>
       <use style="stroke:#000000;stroke-width:0.8;" x="414.72" xlink:href="#m9f2cb33adb" y="307.584"/>
      </g>
     </g>
     <g id="text_36">
      <!-- 25 -->
      <g transform="translate(408.3575 322.182437)scale(0.1 -0.1)">
       <use xlink:href="#DejaVuSans-32"/>
       <use x="63.623047" xlink:href="#DejaVuSans-35"/>
      </g>
     </g>
    </g>
    <g id="text_37">
     <!-- AvgerageTP -->
     <g transform="translate(206.094375 335.860562)scale(0.1 -0.1)">
      <use xlink:href="#DejaVuSans-41"/>
      <use x="68.330078" xlink:href="#DejaVuSans-76"/>
      <use x="127.509766" xlink:href="#DejaVuSans-67"/>
      <use x="190.986328" xlink:href="#DejaVuSans-65"/>
      <use x="252.509766" xlink:href="#DejaVuSans-72"/>
      <use x="293.623047" xlink:href="#DejaVuSans-61"/>
      <use x="354.902344" xlink:href="#DejaVuSans-67"/>
      <use x="418.378906" xlink:href="#DejaVuSans-65"/>
      <use x="479.902344" xlink:href="#DejaVuSans-54"/>
      <use x="540.986328" xlink:href="#DejaVuSans-50"/>
     </g>
    </g>
   </g>
   <g id="matplotlib.axis_4">
    <g id="ytick_5">
     <g id="line2d_87">
      <path clip-path="url(#pc9c6aaa6ab)" d="M 57.6 307.584 
L 414.72 307.584 
" style="fill:none;stroke:#b0b0b0;stroke-linecap:square;stroke-width:0.8;"/>
     </g>
     <g id="line2d_88">
      <g>
       <use style="stroke:#000000;stroke-width:0.8;" x="57.6" xlink:href="#m1a10957fdf" y="307.584"/>
      </g>
     </g>
     <g id="text_38">
      <!-- 0 -->
      <g transform="translate(44.2375 311.383219)scale(0.1 -0.1)">
       <use xlink:href="#DejaVuSans-30"/>
      </g>
     </g>
    </g>
    <g id="ytick_6">
     <g id="line2d_89">
      <path clip-path="url(#pc9c6aaa6ab)" d="M 57.6 278.633457 
L 414.72 278.633457 
" style="fill:none;stroke:#b0b0b0;stroke-linecap:square;stroke-width:0.8;"/>
     </g>
     <g id="line2d_90">
      <g>
       <use style="stroke:#000000;stroke-width:0.8;" x="57.6" xlink:href="#m1a10957fdf" y="278.633457"/>
      </g>
     </g>
     <g id="text_39">
      <!-- 10 -->
      <g transform="translate(37.875 282.432676)scale(0.1 -0.1)">
       <use xlink:href="#DejaVuSans-31"/>
       <use x="63.623047" xlink:href="#DejaVuSans-30"/>
      </g>
     </g>
    </g>
    <g id="ytick_7">
     <g id="line2d_91">
      <path clip-path="url(#pc9c6aaa6ab)" d="M 57.6 249.682914 
L 414.72 249.682914 
" style="fill:none;stroke:#b0b0b0;stroke-linecap:square;stroke-width:0.8;"/>
     </g>
     <g id="line2d_92">
      <g>
       <use style="stroke:#000000;stroke-width:0.8;" x="57.6" xlink:href="#m1a10957fdf" y="249.682914"/>
      </g>
     </g>
     <g id="text_40">
      <!-- 20 -->
      <g transform="translate(37.875 253.482133)scale(0.1 -0.1)">
       <use xlink:href="#DejaVuSans-32"/>
       <use x="63.623047" xlink:href="#DejaVuSans-30"/>
      </g>
     </g>
    </g>
    <g id="ytick_8">
     <g id="line2d_93">
      <path clip-path="url(#pc9c6aaa6ab)" d="M 57.6 220.732372 
L 414.72 220.732372 
" style="fill:none;stroke:#b0b0b0;stroke-linecap:square;stroke-width:0.8;"/>
     </g>
     <g id="line2d_94">
      <g>
       <use style="stroke:#000000;stroke-width:0.8;" x="57.6" xlink:href="#m1a10957fdf" y="220.732372"/>
      </g>
     </g>
     <g id="text_41">
      <!-- 30 -->
      <defs>
       <path d="M 40.578125 39.3125 
Q 47.65625 37.796875 51.625 33 
Q 55.609375 28.21875 55.609375 21.1875 
Q 55.609375 10.40625 48.1875 4.484375 
Q 40.765625 -1.421875 27.09375 -1.421875 
Q 22.515625 -1.421875 17.65625 -0.515625 
Q 12.796875 0.390625 7.625 2.203125 
L 7.625 11.71875 
Q 11.71875 9.328125 16.59375 8.109375 
Q 21.484375 6.890625 26.8125 6.890625 
Q 36.078125 6.890625 40.9375 10.546875 
Q 45.796875 14.203125 45.796875 21.1875 
Q 45.796875 27.640625 41.28125 31.265625 
Q 36.765625 34.90625 28.71875 34.90625 
L 20.21875 34.90625 
L 20.21875 43.015625 
L 29.109375 43.015625 
Q 36.375 43.015625 40.234375 45.921875 
Q 44.09375 48.828125 44.09375 54.296875 
Q 44.09375 59.90625 40.109375 62.90625 
Q 36.140625 65.921875 28.71875 65.921875 
Q 24.65625 65.921875 20.015625 65.03125 
Q 15.375 64.15625 9.8125 62.3125 
L 9.8125 71.09375 
Q 15.4375 72.65625 20.34375 73.4375 
Q 25.25 74.21875 29.59375 74.21875 
Q 40.828125 74.21875 47.359375 69.109375 
Q 53.90625 64.015625 53.90625 55.328125 
Q 53.90625 49.265625 50.4375 45.09375 
Q 46.96875 40.921875 40.578125 39.3125 
z
" id="DejaVuSans-33"/>
      </defs>
      <g transform="translate(37.875 224.53159)scale(0.1 -0.1)">
       <use xlink:href="#DejaVuSans-33"/>
       <use x="63.623047" xlink:href="#DejaVuSans-30"/>
      </g>
     </g>
    </g>
    <g id="ytick_9">
     <g id="line2d_95">
      <path clip-path="url(#pc9c6aaa6ab)" d="M 57.6 191.781829 
L 414.72 191.781829 
" style="fill:none;stroke:#b0b0b0;stroke-linecap:square;stroke-width:0.8;"/>
     </g>
     <g id="line2d_96">
      <g>
       <use style="stroke:#000000;stroke-width:0.8;" x="57.6" xlink:href="#m1a10957fdf" y="191.781829"/>
      </g>
     </g>
     <g id="text_42">
      <!-- 40 -->
      <defs>
       <path d="M 37.796875 64.3125 
L 12.890625 25.390625 
L 37.796875 25.390625 
z
M 35.203125 72.90625 
L 47.609375 72.90625 
L 47.609375 25.390625 
L 58.015625 25.390625 
L 58.015625 17.1875 
L 47.609375 17.1875 
L 47.609375 0 
L 37.796875 0 
L 37.796875 17.1875 
L 4.890625 17.1875 
L 4.890625 26.703125 
z
" id="DejaVuSans-34"/>
      </defs>
      <g transform="translate(37.875 195.581047)scale(0.1 -0.1)">
       <use xlink:href="#DejaVuSans-34"/>
       <use x="63.623047" xlink:href="#DejaVuSans-30"/>
      </g>
     </g>
    </g>
    <g id="text_43">
     <!-- SumPer -->
     <g transform="translate(31.795312 266.461812)rotate(-90)scale(0.1 -0.1)">
      <use xlink:href="#DejaVuSans-53"/>
      <use x="63.476562" xlink:href="#DejaVuSans-75"/>
      <use x="126.855469" xlink:href="#DejaVuSans-6d"/>
      <use x="224.267578" xlink:href="#DejaVuSans-50"/>
      <use x="284.523438" xlink:href="#DejaVuSans-65"/>
      <use x="346.046875" xlink:href="#DejaVuSans-72"/>
     </g>
    </g>
   </g>
   <g id="patch_18">
    <path d="M 57.6 307.584 
L 57.6 186.624 
" style="fill:none;stroke:#000000;stroke-linecap:square;stroke-linejoin:miter;stroke-width:0.8;"/>
   </g>
   <g id="patch_19">
    <path d="M 414.72 307.584 
L 414.72 186.624 
" style="fill:none;stroke:#000000;stroke-linecap:square;stroke-linejoin:miter;stroke-width:0.8;"/>
   </g>
   <g id="patch_20">
    <path d="M 57.6 307.584 
L 414.72 307.584 
" style="fill:none;stroke:#000000;stroke-linecap:square;stroke-linejoin:miter;stroke-width:0.8;"/>
   </g>
   <g id="patch_21">
    <path d="M 57.6 186.624 
L 414.72 186.624 
" style="fill:none;stroke:#000000;stroke-linecap:square;stroke-linejoin:miter;stroke-width:0.8;"/>
   </g>
   <g id="legend_2">
    <g id="patch_22">
     <path d="M 245.47875 228.2515 
L 409.12 228.2515 
Q 410.72 228.2515 410.72 226.6515 
L 410.72 192.224 
Q 410.72 190.624 409.12 190.624 
L 245.47875 190.624 
Q 243.87875 190.624 243.87875 192.224 
L 243.87875 226.6515 
Q 243.87875 228.2515 245.47875 228.2515 
z
" style="fill:#ffffff;opacity:0.8;stroke:#cccccc;stroke-linejoin:miter;"/>
    </g>
    <g id="patch_23">
     <path d="M 247.07875 199.90275 
L 263.07875 199.90275 
L 263.07875 194.30275 
L 247.07875 194.30275 
z
" style="fill:#1f77b4;"/>
    </g>
    <g id="text_44">
     <!-- Bin 1 -->
     <defs>
      <path d="M 19.671875 34.8125 
L 19.671875 8.109375 
L 35.5 8.109375 
Q 43.453125 8.109375 47.28125 11.40625 
Q 51.125 14.703125 51.125 21.484375 
Q 51.125 28.328125 47.28125 31.5625 
Q 43.453125 34.8125 35.5 34.8125 
z
M 19.671875 64.796875 
L 19.671875 42.828125 
L 34.28125 42.828125 
Q 41.5 42.828125 45.03125 45.53125 
Q 48.578125 48.25 48.578125 53.8125 
Q 48.578125 59.328125 45.03125 62.0625 
Q 41.5 64.796875 34.28125 64.796875 
z
M 9.8125 72.90625 
L 35.015625 72.90625 
Q 46.296875 72.90625 52.390625 68.21875 
Q 58.5 63.53125 58.5 54.890625 
Q 58.5 48.1875 55.375 44.234375 
Q 52.25 40.28125 46.1875 39.3125 
Q 53.46875 37.75 57.5 32.78125 
Q 61.53125 27.828125 61.53125 20.40625 
Q 61.53125 10.640625 54.890625 5.3125 
Q 48.25 0 35.984375 0 
L 9.8125 0 
z
" id="DejaVuSans-42"/>
     </defs>
     <g transform="translate(269.47875 199.90275)scale(0.08 -0.08)">
      <use xlink:href="#DejaVuSans-42"/>
      <use x="68.603516" xlink:href="#DejaVuSans-69"/>
      <use x="96.386719" xlink:href="#DejaVuSans-6e"/>
      <use x="159.765625" xlink:href="#DejaVuSans-20"/>
      <use x="191.552734" xlink:href="#DejaVuSans-31"/>
     </g>
    </g>
    <g id="patch_24">
     <path d="M 247.07875 211.64525 
L 263.07875 211.64525 
L 263.07875 206.04525 
L 247.07875 206.04525 
z
" style="fill:#ff7f0e;"/>
    </g>
    <g id="text_45">
     <!-- Bin 2 -->
     <g transform="translate(269.47875 211.64525)scale(0.08 -0.08)">
      <use xlink:href="#DejaVuSans-42"/>
      <use x="68.603516" xlink:href="#DejaVuSans-69"/>
      <use x="96.386719" xlink:href="#DejaVuSans-6e"/>
      <use x="159.765625" xlink:href="#DejaVuSans-20"/>
      <use x="191.552734" xlink:href="#DejaVuSans-32"/>
     </g>
    </g>
    <g id="patch_25">
     <path d="M 247.07875 223.38775 
L 263.07875 223.38775 
L 263.07875 217.78775 
L 247.07875 217.78775 
z
" style="fill:#2ca02c;"/>
    </g>
    <g id="text_46">
     <!-- Bin 3 -->
     <g transform="translate(269.47875 223.38775)scale(0.08 -0.08)">
      <use xlink:href="#DejaVuSans-42"/>
      <use x="68.603516" xlink:href="#DejaVuSans-69"/>
      <use x="96.386719" xlink:href="#DejaVuSans-6e"/>
      <use x="159.765625" xlink:href="#DejaVuSans-20"/>
      <use x="191.552734" xlink:href="#DejaVuSans-33"/>
     </g>
    </g>
    <g id="patch_26">
     <path d="M 305.8925 199.90275 
L 321.8925 199.90275 
L 321.8925 194.30275 
L 305.8925 194.30275 
z
" style="fill:#d62728;"/>
    </g>
    <g id="text_47">
     <!-- Bin 4 -->
     <g transform="translate(328.2925 199.90275)scale(0.08 -0.08)">
      <use xlink:href="#DejaVuSans-42"/>
      <use x="68.603516" xlink:href="#DejaVuSans-69"/>
      <use x="96.386719" xlink:href="#DejaVuSans-6e"/>
      <use x="159.765625" xlink:href="#DejaVuSans-20"/>
      <use x="191.552734" xlink:href="#DejaVuSans-34"/>
     </g>
    </g>
    <g id="patch_27">
     <path d="M 305.8925 211.64525 
L 321.8925 211.64525 
L 321.8925 206.04525 
L 305.8925 206.04525 
z
" style="fill:#9467bd;"/>
    </g>
    <g id="text_48">
     <!-- Bin 5 -->
     <g transform="translate(328.2925 211.64525)scale(0.08 -0.08)">
      <use xlink:href="#DejaVuSans-42"/>
      <use x="68.603516" xlink:href="#DejaVuSans-69"/>
      <use x="96.386719" xlink:href="#DejaVuSans-6e"/>
      <use x="159.765625" xlink:href="#DejaVuSans-20"/>
      <use x="191.552734" xlink:href="#DejaVuSans-35"/>
     </g>
    </g>
    <g id="patch_28">
     <path d="M 305.8925 223.38775 
L 321.8925 223.38775 
L 321.8925 217.78775 
L 305.8925 217.78775 
z
" style="fill:#8c564b;"/>
    </g>
    <g id="text_49">
     <!-- Bin 6 -->
     <defs>
      <path d="M 33.015625 40.375 
Q 26.375 40.375 22.484375 35.828125 
Q 18.609375 31.296875 18.609375 23.390625 
Q 18.609375 15.53125 22.484375 10.953125 
Q 26.375 6.390625 33.015625 6.390625 
Q 39.65625 6.390625 43.53125 10.953125 
Q 47.40625 15.53125 47.40625 23.390625 
Q 47.40625 31.296875 43.53125 35.828125 
Q 39.65625 40.375 33.015625 40.375 
z
M 52.59375 71.296875 
L 52.59375 62.3125 
Q 48.875 64.0625 45.09375 64.984375 
Q 41.3125 65.921875 37.59375 65.921875 
Q 27.828125 65.921875 22.671875 59.328125 
Q 17.53125 52.734375 16.796875 39.40625 
Q 19.671875 43.65625 24.015625 45.921875 
Q 28.375 48.1875 33.59375 48.1875 
Q 44.578125 48.1875 50.953125 41.515625 
Q 57.328125 34.859375 57.328125 23.390625 
Q 57.328125 12.15625 50.6875 5.359375 
Q 44.046875 -1.421875 33.015625 -1.421875 
Q 20.359375 -1.421875 13.671875 8.265625 
Q 6.984375 17.96875 6.984375 36.375 
Q 6.984375 53.65625 15.1875 63.9375 
Q 23.390625 74.21875 37.203125 74.21875 
Q 40.921875 74.21875 44.703125 73.484375 
Q 48.484375 72.75 52.59375 71.296875 
z
" id="DejaVuSans-36"/>
     </defs>
     <g transform="translate(328.2925 223.38775)scale(0.08 -0.08)">
      <use xlink:href="#DejaVuSans-42"/>
      <use x="68.603516" xlink:href="#DejaVuSans-69"/>
      <use x="96.386719" xlink:href="#DejaVuSans-6e"/>
      <use x="159.765625" xlink:href="#DejaVuSans-20"/>
      <use x="191.552734" xlink:href="#DejaVuSans-36"/>
     </g>
    </g>
    <g id="patch_29">
     <path d="M 364.70625 199.90275 
L 380.70625 199.90275 
L 380.70625 194.30275 
L 364.70625 194.30275 
z
" style="fill:#e377c2;"/>
    </g>
    <g id="text_50">
     <!-- Bin 7 -->
     <defs>
      <path d="M 8.203125 72.90625 
L 55.078125 72.90625 
L 55.078125 68.703125 
L 28.609375 0 
L 18.3125 0 
L 43.21875 64.59375 
L 8.203125 64.59375 
z
" id="DejaVuSans-37"/>
     </defs>
     <g transform="translate(387.10625 199.90275)scale(0.08 -0.08)">
      <use xlink:href="#DejaVuSans-42"/>
      <use x="68.603516" xlink:href="#DejaVuSans-69"/>
      <use x="96.386719" xlink:href="#DejaVuSans-6e"/>
      <use x="159.765625" xlink:href="#DejaVuSans-20"/>
      <use x="191.552734" xlink:href="#DejaVuSans-37"/>
     </g>
    </g>
    <g id="patch_30">
     <path d="M 364.70625 211.64525 
L 380.70625 211.64525 
L 380.70625 206.04525 
L 364.70625 206.04525 
z
" style="fill:#7f7f7f;"/>
    </g>
    <g id="text_51">
     <!-- Bin 8 -->
     <defs>
      <path d="M 31.78125 34.625 
Q 24.75 34.625 20.71875 30.859375 
Q 16.703125 27.09375 16.703125 20.515625 
Q 16.703125 13.921875 20.71875 10.15625 
Q 24.75 6.390625 31.78125 6.390625 
Q 38.8125 6.390625 42.859375 10.171875 
Q 46.921875 13.96875 46.921875 20.515625 
Q 46.921875 27.09375 42.890625 30.859375 
Q 38.875 34.625 31.78125 34.625 
z
M 21.921875 38.8125 
Q 15.578125 40.375 12.03125 44.71875 
Q 8.5 49.078125 8.5 55.328125 
Q 8.5 64.0625 14.71875 69.140625 
Q 20.953125 74.21875 31.78125 74.21875 
Q 42.671875 74.21875 48.875 69.140625 
Q 55.078125 64.0625 55.078125 55.328125 
Q 55.078125 49.078125 51.53125 44.71875 
Q 48 40.375 41.703125 38.8125 
Q 48.828125 37.15625 52.796875 32.3125 
Q 56.78125 27.484375 56.78125 20.515625 
Q 56.78125 9.90625 50.3125 4.234375 
Q 43.84375 -1.421875 31.78125 -1.421875 
Q 19.734375 -1.421875 13.25 4.234375 
Q 6.78125 9.90625 6.78125 20.515625 
Q 6.78125 27.484375 10.78125 32.3125 
Q 14.796875 37.15625 21.921875 38.8125 
z
M 18.3125 54.390625 
Q 18.3125 48.734375 21.84375 45.5625 
Q 25.390625 42.390625 31.78125 42.390625 
Q 38.140625 42.390625 41.71875 45.5625 
Q 45.3125 48.734375 45.3125 54.390625 
Q 45.3125 60.0625 41.71875 63.234375 
Q 38.140625 66.40625 31.78125 66.40625 
Q 25.390625 66.40625 21.84375 63.234375 
Q 18.3125 60.0625 18.3125 54.390625 
z
" id="DejaVuSans-38"/>
     </defs>
     <g transform="translate(387.10625 211.64525)scale(0.08 -0.08)">
      <use xlink:href="#DejaVuSans-42"/>
      <use x="68.603516" xlink:href="#DejaVuSans-69"/>
      <use x="96.386719" xlink:href="#DejaVuSans-6e"/>
      <use x="159.765625" xlink:href="#DejaVuSans-20"/>
      <use x="191.552734" xlink:href="#DejaVuSans-38"/>
     </g>
    </g>
    <g id="patch_31">
     <path d="M 364.70625 223.38775 
L 380.70625 223.38775 
L 380.70625 217.78775 
L 364.70625 217.78775 
z
" style="fill:#bcbd22;"/>
    </g>
    <g id="text_52">
     <!-- Bin 8 -->
     <g transform="translate(387.10625 223.38775)scale(0.08 -0.08)">
      <use xlink:href="#DejaVuSans-42"/>
      <use x="68.603516" xlink:href="#DejaVuSans-69"/>
      <use x="96.386719" xlink:href="#DejaVuSans-6e"/>
      <use x="159.765625" xlink:href="#DejaVuSans-20"/>
      <use x="191.552734" xlink:href="#DejaVuSans-38"/>
     </g>
    </g>
   </g>
  </g>
  <g id="text_53">
   <!-- RAOs for Various Drafts, RAO Direction = 0 -->
   <defs>
    <path d="M 39.40625 66.21875 
Q 28.65625 66.21875 22.328125 58.203125 
Q 16.015625 50.203125 16.015625 36.375 
Q 16.015625 22.609375 22.328125 14.59375 
Q 28.65625 6.59375 39.40625 6.59375 
Q 50.140625 6.59375 56.421875 14.59375 
Q 62.703125 22.609375 62.703125 36.375 
Q 62.703125 50.203125 56.421875 58.203125 
Q 50.140625 66.21875 39.40625 66.21875 
z
M 39.40625 74.21875 
Q 54.734375 74.21875 63.90625 63.9375 
Q 73.09375 53.65625 73.09375 36.375 
Q 73.09375 19.140625 63.90625 8.859375 
Q 54.734375 -1.421875 39.40625 -1.421875 
Q 24.03125 -1.421875 14.8125 8.828125 
Q 5.609375 19.09375 5.609375 36.375 
Q 5.609375 53.65625 14.8125 63.9375 
Q 24.03125 74.21875 39.40625 74.21875 
z
" id="DejaVuSans-4f"/>
    <path d="M 37.109375 75.984375 
L 37.109375 68.5 
L 28.515625 68.5 
Q 23.6875 68.5 21.796875 66.546875 
Q 19.921875 64.59375 19.921875 59.515625 
L 19.921875 54.6875 
L 34.71875 54.6875 
L 34.71875 47.703125 
L 19.921875 47.703125 
L 19.921875 0 
L 10.890625 0 
L 10.890625 47.703125 
L 2.296875 47.703125 
L 2.296875 54.6875 
L 10.890625 54.6875 
L 10.890625 58.5 
Q 10.890625 67.625 15.140625 71.796875 
Q 19.390625 75.984375 28.609375 75.984375 
z
" id="DejaVuSans-66"/>
    <path d="M 28.609375 0 
L 0.78125 72.90625 
L 11.078125 72.90625 
L 34.1875 11.53125 
L 57.328125 72.90625 
L 67.578125 72.90625 
L 39.796875 0 
z
" id="DejaVuSans-56"/>
    <path d="M 19.671875 64.796875 
L 19.671875 8.109375 
L 31.59375 8.109375 
Q 46.6875 8.109375 53.6875 14.9375 
Q 60.6875 21.78125 60.6875 36.53125 
Q 60.6875 51.171875 53.6875 57.984375 
Q 46.6875 64.796875 31.59375 64.796875 
z
M 9.8125 72.90625 
L 30.078125 72.90625 
Q 51.265625 72.90625 61.171875 64.09375 
Q 71.09375 55.28125 71.09375 36.53125 
Q 71.09375 17.671875 61.125 8.828125 
Q 51.171875 0 30.078125 0 
L 9.8125 0 
z
" id="DejaVuSans-44"/>
    <path d="M 11.71875 12.40625 
L 22.015625 12.40625 
L 22.015625 4 
L 14.015625 -11.625 
L 7.71875 -11.625 
L 11.71875 4 
z
" id="DejaVuSans-2c"/>
    <path d="M 10.59375 45.40625 
L 73.1875 45.40625 
L 73.1875 37.203125 
L 10.59375 37.203125 
z
M 10.59375 25.484375 
L 73.1875 25.484375 
L 73.1875 17.1875 
L 10.59375 17.1875 
z
" id="DejaVuSans-3d"/>
   </defs>
   <g transform="translate(79.2525 17.549812)scale(0.14 -0.14)">
    <use xlink:href="#DejaVuSans-52"/>
    <use x="69.419922" xlink:href="#DejaVuSans-41"/>
    <use x="137.8125" xlink:href="#DejaVuSans-4f"/>
    <use x="216.523438" xlink:href="#DejaVuSans-73"/>
    <use x="268.623047" xlink:href="#DejaVuSans-20"/>
    <use x="300.410156" xlink:href="#DejaVuSans-66"/>
    <use x="335.615234" xlink:href="#DejaVuSans-6f"/>
    <use x="396.796875" xlink:href="#DejaVuSans-72"/>
    <use x="437.910156" xlink:href="#DejaVuSans-20"/>
    <use x="469.697266" xlink:href="#DejaVuSans-56"/>
    <use x="537.996094" xlink:href="#DejaVuSans-61"/>
    <use x="599.275391" xlink:href="#DejaVuSans-72"/>
    <use x="640.388672" xlink:href="#DejaVuSans-69"/>
    <use x="668.171875" xlink:href="#DejaVuSans-6f"/>
    <use x="729.353516" xlink:href="#DejaVuSans-75"/>
    <use x="792.732422" xlink:href="#DejaVuSans-73"/>
    <use x="844.832031" xlink:href="#DejaVuSans-20"/>
    <use x="876.619141" xlink:href="#DejaVuSans-44"/>
    <use x="953.621094" xlink:href="#DejaVuSans-72"/>
    <use x="994.734375" xlink:href="#DejaVuSans-61"/>
    <use x="1056.013672" xlink:href="#DejaVuSans-66"/>
    <use x="1091.203125" xlink:href="#DejaVuSans-74"/>
    <use x="1130.412109" xlink:href="#DejaVuSans-73"/>
    <use x="1182.511719" xlink:href="#DejaVuSans-2c"/>
    <use x="1214.298828" xlink:href="#DejaVuSans-20"/>
    <use x="1246.085938" xlink:href="#DejaVuSans-52"/>
    <use x="1315.505859" xlink:href="#DejaVuSans-41"/>
    <use x="1383.898438" xlink:href="#DejaVuSans-4f"/>
    <use x="1462.609375" xlink:href="#DejaVuSans-20"/>
    <use x="1494.396484" xlink:href="#DejaVuSans-44"/>
    <use x="1571.398438" xlink:href="#DejaVuSans-69"/>
    <use x="1599.181641" xlink:href="#DejaVuSans-72"/>
    <use x="1640.263672" xlink:href="#DejaVuSans-65"/>
    <use x="1701.787109" xlink:href="#DejaVuSans-63"/>
    <use x="1756.767578" xlink:href="#DejaVuSans-74"/>
    <use x="1795.976562" xlink:href="#DejaVuSans-69"/>
    <use x="1823.759766" xlink:href="#DejaVuSans-6f"/>
    <use x="1884.941406" xlink:href="#DejaVuSans-6e"/>
    <use x="1948.320312" xlink:href="#DejaVuSans-20"/>
    <use x="1980.107422" xlink:href="#DejaVuSans-3d"/>
    <use x="2063.896484" xlink:href="#DejaVuSans-20"/>
    <use x="2095.683594" xlink:href="#DejaVuSans-30"/>
   </g>
  </g>
 </g>
 <defs>
  <clipPath id="pe8e88e0a05">
   <rect height="120.96" width="357.12" x="57.6" y="41.472"/>
  </clipPath>
  <clipPath id="pc9c6aaa6ab">
   <rect height="120.96" width="357.12" x="57.6" y="186.624"/>
  </clipPath>
 </defs>
</svg>
