  0
SECTION
  2
HEADER
  9
$ACADVER
  1
AC1009
  9
$INSBASE
 10
0.0
 20
0.0
 30
0.0
  9
$EXTMIN
 10
0.0
 20
0.0
 30
0.0
  9
$EXTMAX
 10
100.0
 20
100.0
 30
0.0
  9
$UNITMODE
 70
0
  9
$AUNITS
 70
0
  9
$ANGBASE
 50
0.0
  9
$ANGDIR
 70
0
  0
ENDSEC
  0
SECTION
  2
TABLES
  0
TABLE
  2
LTYPE
 70
19
  0
LTYPE
  2
CONTINUOUS
 70
0
  3
Solid
 72
65
 73
0
 40
0.0
  0
LTYPE
  2
CENTER
 70
0
  3
Center ____ _ ____ _ ____ _ ____ _ ____ _ ____
 72
65
 73
4
 40
2.0
 49
1.25
 49
-0.25
 49
0.25
 49
-0.25
  0
LTYPE
  2
CENTERX2
 70
0
  3
Center (2x) ________  __  ________  __  ________
 72
65
 73
4
 40
3.5
 49
2.5
 49
-0.25
 49
0.5
 49
-0.25
  0
LTYPE
  2
CENTER2
 70
0
  3
Center (.5x) ____ _ ____ _ ____ _ ____ _ ____
 72
65
 73
4
 40
1.0
 49
0.625
 49
-0.125
 49
0.125
 49
-0.125
  0
LTYPE
  2
DASHED
 70
0
  3
Dashed __ __ __ __ __ __ __ __ __ __ __ __ __ _
 72
65
 73
2
 40
0.6
 49
0.5
 49
-0.1
  0
LTYPE
  2
DASHEDX2
 70
0
  3
Dashed (2x) ____  ____  ____  ____  ____  ____
 72
65
 73
2
 40
1.2
 49
1.0
 49
-0.2
  0
LTYPE
  2
DASHED2
 70
0
  3
Dashed (.5x) _ _ _ _ _ _ _ _ _ _ _ _ _ _
 72
65
 73
2
 40
0.3
 49
0.25
 49
-0.05
  0
LTYPE
  2
PHANTOM
 70
0
  3
Phantom ______  __  __  ______  __  __  ______
 72
65
 73
6
 40
2.5
 49
1.25
 49
-0.25
 49
0.25
 49
-0.25
 49
0.25
 49
-0.25
  0
LTYPE
  2
PHANTOMX2
 70
0
  3
Phantom (2x)____________    ____    ____    ____________
 72
65
 73
6
 40
4.25
 49
2.5
 49
-0.25
 49
0.5
 49
-0.25
 49
0.5
 49
-0.25
  0
LTYPE
  2
PHANTOM2
 70
0
  3
Phantom (.5x) ___ _ _ ___ _ _ ___ _ _ ___ _ _ ___
 72
65
 73
6
 40
1.25
 49
0.625
 49
-0.125
 49
0.125
 49
-0.125
 49
0.125
 49
-0.125
  0
LTYPE
  2
DASHDOT
 70
0
  3
Dash dot __ . __ . __ . __ . __ . __ . __ . __
 72
65
 73
4
 40
1.4
 49
1.0
 49
-0.2
 49
0.0
 49
-0.2
  0
LTYPE
  2
DASHDOTX2
 70
0
  3
Dash dot (2x) ____  .  ____  .  ____  .  ____
 72
65
 73
4
 40
2.4
 49
2.0
 49
-0.2
 49
0.0
 49
-0.2
  0
LTYPE
  2
DASHDOT2
 70
0
  3
Dash dot (.5x) _ . _ . _ . _ . _ . _ . _ . _
 72
65
 73
4
 40
0.7
 49
0.5
 49
-0.1
 49
0.0
 49
-0.1
  0
LTYPE
  2
DOT
 70
0
  3
Dot .  .  .  .  .  .  .  .  .  .  .  .  .  .  .  .
 72
65
 73
2
 40
0.2
 49
0.0
 49
-0.2
  0
LTYPE
  2
DOTX2
 70
0
  3
Dot (2x) .    .    .    .    .    .    .    . 
 72
65
 73
2
 40
0.4
 49
0.0
 49
-0.4
  0
LTYPE
  2
DOT2
 70
0
  3
Dot (.5) . . . . . . . . . . . . . . . . . . . 
 72
65
 73
2
 40
0.1
 49
0.0
 49
-0.1
  0
LTYPE
  2
DIVIDE
 70
0
  3
Divide __ . . __ . . __ . . __ . . __ . . __
 72
65
 73
6
 40
1.6
 49
1.0
 49
-0.2
 49
0.0
 49
-0.2
 49
0.0
 49
-0.2
  0
LTYPE
  2
DIVIDEX2
 70
0
  3
Divide (2x) ____  . .  ____  . .  ____  . .  ____
 72
65
 73
6
 40
2.6
 49
2.0
 49
-0.2
 49
0.0
 49
-0.2
 49
0.0
 49
-0.2
  0
LTYPE
  2
DIVIDE2
 70
0
  3
Divide(.5x) _ . _ . _ . _ . _ . _ . _ . _
 72
65
 73
6
 40
0.8
 49
0.5
 49
-0.1
 49
0.0
 49
-0.1
 49
0.0
 49
-0.1
  0
ENDTAB
  0
TABLE
  2
LAYER
 70
6
  0
LAYER
  2
DIMENSIONS
 70
0
 62
1
  6
CONTINUOUS
  0
LAYER
  2
TABLEBACKGROUND
 70
0
 62
1
  6
CONTINUOUS
  0
LAYER
  2
TABLECONTENT
 70
0
 62
1
  6
CONTINUOUS
  0
LAYER
  2
TABLEGRID
 70
0
 62
1
  6
CONTINUOUS
  0
LAYER
  2
VIEWPORTS
 70
0
 62
7
  6
CONTINUOUS
  0
LAYER
  2
DEM_20px_m
 70
0
 62
1
  6
CONTINUOUS
  0
ENDTAB
  0
TABLE
  2
STYLE
 70
12
  0
STYLE
  2
STANDARD
 70
0
 40
0.0
 41
1.0
 42
1.0
 50
0.0
 71
0
  3
arial.ttf
  4

  0
STYLE
  2
ARIAL
 70
0
 40
0.0
 41
1.0
 42
1.0
 50
0.0
 71
0
  3
arial.ttf
  4

  0
STYLE
  2
ARIAL_BOLD
 70
0
 40
0.0
 41
1.0
 42
1.0
 50
0.0
 71
0
  3
arialbd.ttf
  4

  0
STYLE
  2
ARIAL_ITALIC
 70
0
 40
0.0
 41
1.0
 42
1.0
 50
0.0
 71
0
  3
ariali.ttf
  4

  0
STYLE
  2
ARIAL_BOLD_ITALIC
 70
0
 40
0.0
 41
1.0
 42
1.0
 50
0.0
 71
0
  3
arialbi.ttf
  4

  0
STYLE
  2
ARIAL_BLACK
 70
0
 40
0.0
 41
1.0
 42
1.0
 50
0.0
 71
0
  3
ariblk.ttf
  4

  0
STYLE
  2
ISOCPEUR
 70
0
 40
0.0
 41
1.0
 42
1.0
 50
0.0
 71
0
  3
isocpeur.ttf
  4

  0
STYLE
  2
ISOCPEUR_ITALIC
 70
0
 40
0.0
 41
1.0
 42
1.0
 50
0.0
 71
0
  3
isocpeui.ttf
  4

  0
STYLE
  2
TIMES
 70
0
 40
0.0
 41
1.0
 42
1.0
 50
0.0
 71
0
  3
times.ttf
  4

  0
STYLE
  2
TIMES_BOLD
 70
0
 40
0.0
 41
1.0
 42
1.0
 50
0.0
 71
0
  3
timesbd.ttf
  4

  0
STYLE
  2
TIMES_ITALIC
 70
0
 40
0.0
 41
1.0
 42
1.0
 50
0.0
 71
0
  3
timesi.ttf
  4

  0
STYLE
  2
TIMES_BOLD_ITALIC
 70
0
 40
0.0
 41
1.0
 42
1.0
 50
0.0
 71
0
  3
timesbi.ttf
  4

  0
ENDTAB
  0
TABLE
  2
VIEW
 70
0
  0
ENDTAB
  0
TABLE
  2
APPID
 70
1
  0
APPID
  2
DXFWRITE
 70
0
  0
ENDTAB
  0
TABLE
  2
VPORT
 70
0
  0
ENDTAB
  0
TABLE
  2
UCS
 70
0
  0
ENDTAB
  0
ENDSEC
  0
SECTION
  2
BLOCKS
  0
ENDSEC
  0
SECTION
  2
ENTITIES
  0
VIEWPORT
  8
VIEWPORTS
 67
1
 10
0.0
 20
0.0
 30
0.0
 40
1.0
 41
1.0
 68
1
 69
1
1001
ACAD
1000
MVIEW
1002
{
1070
16
1010
0.0
1020
0.0
1030
0.0
1010
0.0
1020
0.0
1030
0.0
1040
0.0
1040
1.0
1040
0.0
1040
0.0
1040
50.0
1040
0.0
1040
0.0
1070
0
1070
100
1070
1
1070
3
1070
0
1070
0
1070
0
1070
0
1040
0.0
1040
0.0
1040
0.0
1040
0.1
1040
0.1
1040
0.1
1040
0.1
1070
0
1002
{
1002
}
1002
}
  0
POLYLINE
 62
7
  8
DEM_20px_m
 66
1
 10
0.0
 20
0.0
 30
0.0
 70
8
  0
VERTEX
  8
DEM_20px_m
 10
0.0
 20
-1072.0209
 30
0.0
  0
VERTEX
  8
DEM_20px_m
 10
21.483277777704753
 20
-1073.0638
 30
0.0
  0
VERTEX
  8
DEM_20px_m
 10
42.966555555409506
 20
-1073.9908
 30
0.0
  0
VERTEX
  8
DEM_20px_m
 10
64.44983333311426
 20
-1074.2746
 30
0.0
  0
VERTEX
  8
DEM_20px_m
 10
85.93311111081901
 20
-1075.408
 30
0.0
  0
VERTEX
  8
DEM_20px_m
 10
107.41638888852377
 20
-1075.795
 30
0.0
  0
VERTEX
  8
DEM_20px_m
 10
128.8996666662285
 20
-1077.0662
 30
0.0
  0
VERTEX
  8
DEM_20px_m
 10
150.38294444393327
 20
-1078.2423
 30
0.0
  0
VERTEX
  8
DEM_20px_m
 10
171.86622222163803
 20
-1078.7878
 30
0.0
  0
VERTEX
  8
DEM_20px_m
 10
193.34949999934278
 20
-1080.0286
 30
0.0
  0
VERTEX
  8
DEM_20px_m
 10
214.83277777704754
 20
-1080.5661
 30
0.0
  0
VERTEX
  8
DEM_20px_m
 10
236.3160555547523
 20
-1081.7435
 30
0.0
  0
VERTEX
  8
DEM_20px_m
 10
257.799333332457
 20
-1082.9826
 30
0.0
  0
VERTEX
  8
DEM_20px_m
 10
279.2826111101618
 20
-1083.1397
 30
0.0
  0
VERTEX
  8
DEM_20px_m
 10
300.76588888786654
 20
-1084.1548
 30
0.0
  0
VERTEX
  8
DEM_20px_m
 10
322.2491666655713
 20
-1085.0749
 30
0.0
  0
VERTEX
  8
DEM_20px_m
 10
343.73244444327605
 20
-1085.279
 30
0.0
  0
VERTEX
  8
DEM_20px_m
 10
365.2157222209808
 20
-1086.7152
 30
0.0
  0
VERTEX
  8
DEM_20px_m
 10
386.69899999868557
 20
-1087.7199
 30
0.0
  0
VERTEX
  8
DEM_20px_m
 10
408.1822777763903
 20
-1089.1145
 30
0.0
  0
VERTEX
  8
DEM_20px_m
 10
429.6655555540951
 20
-1090.2787
 30
0.0
  0
VERTEX
  8
DEM_20px_m
 10
451.14883333179984
 20
-1090.1406
 30
0.0
  0
VERTEX
  8
DEM_20px_m
 10
472.6321111095046
 20
-1091.5579
 30
0.0
  0
VERTEX
  8
DEM_20px_m
 10
494.11538888720935
 20
-1092.8401
 30
0.0
  0
VERTEX
  8
DEM_20px_m
 10
515.598666664914
 20
-1093.107
 30
0.0
  0
VERTEX
  8
DEM_20px_m
 10
537.0819444426188
 20
-1094.1235
 30
0.0
  0
VERTEX
  8
DEM_20px_m
 10
558.5652222203236
 20
-1095.0104
 30
0.0
  0
VERTEX
  8
DEM_20px_m
 10
580.0484999980283
 20
-1096.561
 30
0.0
  0
VERTEX
  8
DEM_20px_m
 10
601.5317777757331
 20
-1098.1338
 30
0.0
  0
VERTEX
  8
DEM_20px_m
 10
623.0150555534378
 20
-1099.375
 30
0.0
  0
VERTEX
  8
DEM_20px_m
 10
644.4983333311426
 20
-1100.8309
 30
0.0
  0
VERTEX
  8
DEM_20px_m
 10
665.9816111088473
 20
-1101.3589
 30
0.0
  0
VERTEX
  8
DEM_20px_m
 10
687.4648888865521
 20
-1102.5645
 30
0.0
  0
VERTEX
  8
DEM_20px_m
 10
708.9481666642569
 20
-1103.8889
 30
0.0
  0
VERTEX
  8
DEM_20px_m
 10
730.4314444419616
 20
-1104.304
 30
0.0
  0
VERTEX
  8
DEM_20px_m
 10
751.9147222196664
 20
-1105.5765
 30
0.0
  0
VERTEX
  8
DEM_20px_m
 10
773.3979999973711
 20
-1107.0535
 30
0.0
  0
VERTEX
  8
DEM_20px_m
 10
794.8812777750759
 20
-1108.07
 30
0.0
  0
VERTEX
  8
DEM_20px_m
 10
816.3645555527806
 20
-1109.6044
 30
0.0
  0
VERTEX
  8
DEM_20px_m
 10
837.8478333304854
 20
-1110.4908
 30
0.0
  0
VERTEX
  8
DEM_20px_m
 10
859.3311111081902
 20
-1111.6994
 30
0.0
  0
VERTEX
  8
DEM_20px_m
 10
880.8143888858949
 20
-1112.934
 30
0.0
  0
VERTEX
  8
DEM_20px_m
 10
902.2976666635997
 20
-1113.657
 30
0.0
  0
VERTEX
  8
DEM_20px_m
 10
923.7809444413044
 20
-1114.7824
 30
0.0
  0
VERTEX
  8
DEM_20px_m
 10
945.2642222190092
 20
-1115.8168
 30
0.0
  0
VERTEX
  8
DEM_20px_m
 10
966.7474999967139
 20
-1116.0765
 30
0.0
  0
VERTEX
  8
DEM_20px_m
 10
988.2307777744187
 20
-1116.946
 30
0.0
  0
VERTEX
  8
DEM_20px_m
 10
1009.7140555521235
 20
-1117.2771
 30
0.0
  0
VERTEX
  8
DEM_20px_m
 10
1031.197333329828
 20
-1118.2086
 30
0.0
  0
VERTEX
  8
DEM_20px_m
 10
1052.680611107533
 20
-1119.1519
 30
0.0
  0
VERTEX
  8
DEM_20px_m
 10
1074.1638888852376
 20
-1119.3799
 30
0.0
  0
VERTEX
  8
DEM_20px_m
 10
1095.6471666629425
 20
-1120.1514
 30
0.0
  0
VERTEX
  8
DEM_20px_m
 10
1117.1304444406471
 20
-1120.4565
 30
0.0
  0
VERTEX
  8
DEM_20px_m
 10
1138.613722218352
 20
-1121.3959
 30
0.0
  0
VERTEX
  8
DEM_20px_m
 10
1160.0969999960566
 20
-1122.3431
 30
0.0
  0
VERTEX
  8
DEM_20px_m
 10
1181.5802777737615
 20
-1123.1428
 30
0.0
  0
VERTEX
  8
DEM_20px_m
 10
1203.0635555514662
 20
-1124.1144
 30
0.0
  0
VERTEX
  8
DEM_20px_m
 10
1224.546833329171
 20
-1125.0936
 30
0.0
  0
VERTEX
  8
DEM_20px_m
 10
1246.0301111068757
 20
-1126.0843
 30
0.0
  0
VERTEX
  8
DEM_20px_m
 10
1267.5133888845805
 20
-1127.1863
 30
0.0
  0
VERTEX
  8
DEM_20px_m
 10
1288.9966666622852
 20
-1128.1652
 30
0.0
  0
VERTEX
  8
DEM_20px_m
 10
1310.47994443999
 20
-1129.2369
 30
0.0
  0
VERTEX
  8
DEM_20px_m
 10
1331.9632222176947
 20
-1130.2941
 30
0.0
  0
VERTEX
  8
DEM_20px_m
 10
1353.4464999953996
 20
-1130.7025
 30
0.0
  0
VERTEX
  8
DEM_20px_m
 10
1374.9297777731042
 20
-1131.6252
 30
0.0
  0
VERTEX
  8
DEM_20px_m
 10
1396.4130555508088
 20
-1132.6332
 30
0.0
  0
VERTEX
  8
DEM_20px_m
 10
1417.8963333285137
 20
-1133.3969
 30
0.0
  0
VERTEX
  8
DEM_20px_m
 10
1439.3796111062184
 20
-1134.4542
 30
0.0
  0
VERTEX
  8
DEM_20px_m
 10
1460.8628888839232
 20
-1134.9714
 30
0.0
  0
VERTEX
  8
DEM_20px_m
 10
1482.3461666616279
 20
-1135.957
 30
0.0
  0
VERTEX
  8
DEM_20px_m
 10
1503.8294444393327
 20
-1136.9331
 30
0.0
  0
VERTEX
  8
DEM_20px_m
 10
1525.3127222170374
 20
-1137.1141
 30
0.0
  0
VERTEX
  8
DEM_20px_m
 10
1546.7959999947423
 20
-1137.9235
 30
0.0
  0
VERTEX
  8
DEM_20px_m
 10
1568.279277772447
 20
-1137.767
 30
0.0
  0
VERTEX
  8
DEM_20px_m
 10
1589.7625555501518
 20
-1138.7531
 30
0.0
  0
VERTEX
  8
DEM_20px_m
 10
1611.2458333278564
 20
-1139.6663
 30
0.0
  0
VERTEX
  8
DEM_20px_m
 10
1632.7291111055613
 20
-1140.4255
 30
0.0
  0
VERTEX
  8
DEM_20px_m
 10
1654.212388883266
 20
-1141.7445
 30
0.0
  0
VERTEX
  8
DEM_20px_m
 10
1675.6956666609708
 20
-1143.0788
 30
0.0
  0
VERTEX
  8
DEM_20px_m
 10
1697.1789444386754
 20
-1144.526
 30
0.0
  0
VERTEX
  8
DEM_20px_m
 10
1718.6622222163803
 20
-1145.5274
 30
0.0
  0
VERTEX
  8
DEM_20px_m
 10
1740.145499994085
 20
-1146.1862
 30
0.0
  0
VERTEX
  8
DEM_20px_m
 10
1761.6287777717898
 20
-1146.909
 30
0.0
  0
VERTEX
  8
DEM_20px_m
 10
1783.1120555494945
 20
-1147.6348
 30
0.0
  0
VERTEX
  8
DEM_20px_m
 10
1804.5953333271993
 20
-1148.1597
 30
0.0
  0
VERTEX
  8
DEM_20px_m
 10
1826.078611104904
 20
-1148.9057
 30
0.0
  0
VERTEX
  8
DEM_20px_m
 10
1847.5618888826089
 20
-1149.6517
 30
0.0
  0
VERTEX
  8
DEM_20px_m
 10
1869.0451666603135
 20
-1150.3358
 30
0.0
  0
VERTEX
  8
DEM_20px_m
 10
1890.5284444380184
 20
-1151.3079
 30
0.0
  0
VERTEX
  8
DEM_20px_m
 10
1912.011722215723
 20
-1152.1022
 30
0.0
  0
VERTEX
  8
DEM_20px_m
 10
1933.4949999934279
 20
-1152.836
 30
0.0
  0
VERTEX
  8
DEM_20px_m
 10
1954.9782777711325
 20
-1153.3719
 30
0.0
  0
VERTEX
  8
DEM_20px_m
 10
1976.4615555488374
 20
-1153.4233
 30
0.0
  0
VERTEX
  8
DEM_20px_m
 10
1997.944833326542
 20
-1154.2326
 30
0.0
  0
VERTEX
  8
DEM_20px_m
 10
2019.428111104247
 20
-1154.8502
 30
0.0
  0
VERTEX
  8
DEM_20px_m
 10
2040.9113888819516
 20
-1155.2417
 30
0.0
  0
VERTEX
  8
DEM_20px_m
 10
2062.394666659656
 20
-1156.257
 30
0.0
  0
VERTEX
  8
DEM_20px_m
 10
2083.877944437361
 20
-1157.4622
 30
0.0
  0
VERTEX
  8
DEM_20px_m
 10
2105.361222215066
 20
-1158.4717
 30
0.0
  0
VERTEX
  8
DEM_20px_m
 10
2126.8444999927706
 20
-1159.478
 30
0.0
  0
VERTEX
  8
DEM_20px_m
 10
2148.327777770475
 20
-1160.7077
 30
0.0
  0
VERTEX
  8
DEM_20px_m
 10
2169.81105554818
 20
-1161.7507
 30
0.0
  0
VERTEX
  8
DEM_20px_m
 10
2191.294333325885
 20
-1162.6312
 30
0.0
  0
VERTEX
  8
DEM_20px_m
 10
2212.7776111035896
 20
-1163.6707
 30
0.0
  0
VERTEX
  8
DEM_20px_m
 10
2234.2608888812942
 20
-1164.7169
 30
0.0
  0
VERTEX
  8
DEM_20px_m
 10
2255.744166658999
 20
-1165.7176
 30
0.0
  0
VERTEX
  8
DEM_20px_m
 10
2277.227444436704
 20
-1166.7964
 30
0.0
  0
VERTEX
  8
DEM_20px_m
 10
2298.7107222144086
 20
-1167.4514
 30
0.0
  0
VERTEX
  8
DEM_20px_m
 10
2320.1939999921133
 20
-1168.504
 30
0.0
  0
VERTEX
  8
DEM_20px_m
 10
2341.677277769818
 20
-1169.6223
 30
0.0
  0
VERTEX
  8
DEM_20px_m
 10
2363.160555547523
 20
-1170.3884
 30
0.0
  0
VERTEX
  8
DEM_20px_m
 10
2384.6438333252277
 20
-1171.6829
 30
0.0
  0
VERTEX
  8
DEM_20px_m
 10
2406.1271111029323
 20
-1172.9592
 30
0.0
  0
VERTEX
  8
DEM_20px_m
 10
2427.610388880637
 20
-1173.4136
 30
0.0
  0
VERTEX
  8
DEM_20px_m
 10
2449.093666658342
 20
-1174.5223
 30
0.0
  0
VERTEX
  8
DEM_20px_m
 10
2470.5769444360467
 20
-1174.6561
 30
0.0
  0
VERTEX
  8
DEM_20px_m
 10
2492.0602222137513
 20
-1175.4515
 30
0.0
  0
VERTEX
  8
DEM_20px_m
 10
2513.543499991456
 20
-1176.4224
 30
0.0
  0
VERTEX
  8
DEM_20px_m
 10
2535.026777769161
 20
-1176.9459
 30
0.0
  0
VERTEX
  8
DEM_20px_m
 10
2556.5100555468657
 20
-1177.9442
 30
0.0
  0
VERTEX
  8
DEM_20px_m
 10
2577.9933333245704
 20
-1179.0654
 30
0.0
  0
VERTEX
  8
DEM_20px_m
 10
2599.476611102275
 20
-1179.8948
 30
0.0
  0
VERTEX
  8
DEM_20px_m
 10
2620.95988887998
 20
-1180.6923
 30
0.0
  0
VERTEX
  8
DEM_20px_m
 10
2642.4431666576847
 20
-1180.9644
 30
0.0
  0
VERTEX
  8
DEM_20px_m
 10
2663.9264444353894
 20
-1181.6086
 30
0.0
  0
VERTEX
  8
DEM_20px_m
 10
2685.409722213094
 20
-1182.1814
 30
0.0
  0
VERTEX
  8
DEM_20px_m
 10
2706.892999990799
 20
-1182.1953
 30
0.0
  0
VERTEX
  8
DEM_20px_m
 10
2728.3762777685038
 20
-1183.1817
 30
0.0
  0
VERTEX
  8
DEM_20px_m
 10
2749.8595555462084
 20
-1183.5729
 30
0.0
  0
VERTEX
  8
DEM_20px_m
 10
2771.342833323913
 20
-1184.4951
 30
0.0
  0
VERTEX
  8
DEM_20px_m
 10
2792.8261111016177
 20
-1185.3175
 30
0.0
  0
VERTEX
  8
DEM_20px_m
 10
2814.309388879323
 20
-1185.7863
 30
0.0
  0
VERTEX
  8
DEM_20px_m
 10
2835.7926666570274
 20
-1186.4184
 30
0.0
  0
VERTEX
  8
DEM_20px_m
 10
2857.275944434732
 20
-1186.9005
 30
0.0
  0
VERTEX
  8
DEM_20px_m
 10
2878.7592222124367
 20
-1186.8819
 30
0.0
  0
VERTEX
  8
DEM_20px_m
 10
2900.242499990142
 20
-1187.3521
 30
0.0
  0
VERTEX
  8
DEM_20px_m
 10
2921.7257777678465
 20
-1187.1491
 30
0.0
  0
VERTEX
  8
DEM_20px_m
 10
2943.209055545551
 20
-1187.7294
 30
0.0
  0
VERTEX
  8
DEM_20px_m
 10
2964.6923333232558
 20
-1188.2191
 30
0.0
  0
VERTEX
  8
DEM_20px_m
 10
2986.175611100961
 20
-1188.4181
 30
0.0
  0
VERTEX
  8
DEM_20px_m
 10
3007.6588888786655
 20
-1189.377
 30
0.0
  0
VERTEX
  8
DEM_20px_m
 10
3029.14216665637
 20
-1190.0
 30
0.0
  0
VERTEX
  8
DEM_20px_m
 10
3050.625444434075
 20
-1190.098
 30
0.0
  0
VERTEX
  8
DEM_20px_m
 10
3072.10872221178
 20
-1190.7039
 30
0.0
  0
VERTEX
  8
DEM_20px_m
 10
3093.5919999894845
 20
-1190.477
 30
0.0
  0
VERTEX
  8
DEM_20px_m
 10
3115.075277767189
 20
-1190.9176
 30
0.0
  0
VERTEX
  8
DEM_20px_m
 10
3136.558555544894
 20
-1191.4471
 30
0.0
  0
VERTEX
  8
DEM_20px_m
 10
3158.041833322599
 20
-1191.1965
 30
0.0
  0
VERTEX
  8
DEM_20px_m
 10
3179.5251111003035
 20
-1191.8704
 30
0.0
  0
VERTEX
  8
DEM_20px_m
 10
3201.008388878008
 20
-1191.8997
 30
0.0
  0
VERTEX
  8
DEM_20px_m
 10
3222.491666655713
 20
-1192.7122
 30
0.0
  0
VERTEX
  8
DEM_20px_m
 10
3243.974944433418
 20
-1193.5532
 30
0.0
  0
VERTEX
  8
DEM_20px_m
 10
3265.4582222111226
 20
-1193.6965
 30
0.0
  0
VERTEX
  8
DEM_20px_m
 10
3286.941499988827
 20
-1194.3438
 30
0.0
  0
VERTEX
  8
DEM_20px_m
 10
3308.424777766532
 20
-1194.8328
 30
0.0
  0
VERTEX
  8
DEM_20px_m
 10
3329.908055544237
 20
-1194.3776
 30
0.0
  0
VERTEX
  8
DEM_20px_m
 10
3351.3913333219416
 20
-1194.8108
 30
0.0
  0
VERTEX
  8
DEM_20px_m
 10
3372.8746110996462
 20
-1194.3353
 30
0.0
  0
VERTEX
  8
DEM_20px_m
 10
3394.357888877351
 20
-1194.978
 30
0.0
  0
VERTEX
  8
DEM_20px_m
 10
3415.841166655056
 20
-1195.6131
 30
0.0
  0
VERTEX
  8
DEM_20px_m
 10
3437.3244444327606
 20
-1195.1184
 30
0.0
  0
VERTEX
  8
DEM_20px_m
 10
3458.8077222104653
 20
-1195.6889
 30
0.0
  0
VERTEX
  8
DEM_20px_m
 10
3480.29099998817
 20
-1196.3203
 30
0.0
  0
VERTEX
  8
DEM_20px_m
 10
3501.7742777658746
 20
-1195.9725
 30
0.0
  0
VERTEX
  8
DEM_20px_m
 10
3523.2575555435797
 20
-1196.3714
 30
0.0
  0
VERTEX
  8
DEM_20px_m
 10
3544.7408333212843
 20
-1196.2041
 30
0.0
  0
VERTEX
  8
DEM_20px_m
 10
3566.224111098989
 20
-1196.6969
 30
0.0
  0
VERTEX
  8
DEM_20px_m
 10
3587.7073888766936
 20
-1197.1176
 30
0.0
  0
VERTEX
  8
DEM_20px_m
 10
3609.1906666543987
 20
-1196.8892
 30
0.0
  0
VERTEX
  8
DEM_20px_m
 10
3630.6739444321033
 20
-1197.4858
 30
0.0
  0
VERTEX
  8
DEM_20px_m
 10
3652.157222209808
 20
-1197.0271
 30
0.0
  0
SEQEND
  0
ENDSEC
  0
EOF
