<?xml version="1.0" encoding="UTF-8" standalone="no"?><svg xmlns="http://www.w3.org/2000/svg" xmlns:xlink="http://www.w3.org/1999/xlink" contentStyleType="text/css" height="632px" preserveAspectRatio="none" style="width:2076px;height:632px;background:#FFFFFF;" version="1.1" viewBox="0 0 2076 632" width="2076px" zoomAndPan="magnify"><defs/><g><line style="stroke:#181818;stroke-width:1.5;" x1="58" x2="58" y1="65.0938" y2="85.0938"/><rect fill="#F1F1F1" height="35.0938" style="stroke:#181818;stroke-width:1.5;" width="96" x="10" y="85.0938"/><text fill="#000000" font-family="sans-serif" font-size="12" lengthAdjust="spacing" textLength="76" x="20" y="107.5508">Basic Checks</text><line style="stroke:#181818;stroke-width:1.5;" x1="58" x2="68" y1="152.7344" y2="152.7344"/><rect fill="#F1F1F1" height="35.0938" style="stroke:#181818;stroke-width:1.5;" width="66" x="68" y="135.1875"/><text fill="#000000" font-family="sans-serif" font-size="12" lengthAdjust="spacing" textLength="46" x="78" y="157.6445">Address</text><line style="stroke:#181818;stroke-width:1.5;" x1="58" x2="68" y1="202.8281" y2="202.8281"/><rect fill="#F1F1F1" height="35.0938" style="stroke:#181818;stroke-width:1.5;" width="107" x="68" y="185.2813"/><text fill="#000000" font-family="sans-serif" font-size="12" lengthAdjust="spacing" textLength="87" x="78" y="207.7383">Consistent NAP</text><line style="stroke:#181818;stroke-width:1.5;" x1="58" x2="58" y1="120.1875" y2="202.8281"/><line style="stroke:#181818;stroke-width:1.5;" x1="234" x2="234" y1="65.0938" y2="85.0938"/><rect fill="#F1F1F1" height="35.0938" style="stroke:#181818;stroke-width:1.5;" width="78" x="195" y="85.0938"/><text fill="#000000" font-family="sans-serif" font-size="12" lengthAdjust="spacing" textLength="58" x="205" y="107.5508">Local SEO</text><line style="stroke:#181818;stroke-width:1.5;" x1="234" x2="244" y1="152.7344" y2="152.7344"/><rect fill="#F1F1F1" height="35.0938" style="stroke:#181818;stroke-width:1.5;" width="183" x="244" y="135.1875"/><text fill="#000000" font-family="sans-serif" font-size="12" lengthAdjust="spacing" textLength="163" x="254" y="157.6445">Name, Address, Phone (NAP)</text><line style="stroke:#181818;stroke-width:1.5;" x1="335.5" x2="345.5" y1="202.8281" y2="202.8281"/><rect fill="#F1F1F1" height="35.0938" style="stroke:#181818;stroke-width:1.5;" width="231" x="345.5" y="185.2813"/><text fill="#000000" font-family="sans-serif" font-size="12" lengthAdjust="spacing" textLength="211" x="355.5" y="207.7383">Consistent with Business Registration</text><line style="stroke:#181818;stroke-width:1.5;" x1="335.5" x2="345.5" y1="252.9219" y2="252.9219"/><rect fill="#F1F1F1" height="35.0938" style="stroke:#181818;stroke-width:1.5;" width="181" x="345.5" y="235.375"/><text fill="#000000" font-family="sans-serif" font-size="12" lengthAdjust="spacing" textLength="161" x="355.5" y="257.832">Consistent with Google Maps</text><line style="stroke:#181818;stroke-width:1.5;" x1="335.5" x2="335.5" y1="170.2813" y2="252.9219"/><line style="stroke:#181818;stroke-width:1.5;" x1="234" x2="244" y1="303.0156" y2="303.0156"/><rect fill="#F1F1F1" height="35.0938" style="stroke:#181818;stroke-width:1.5;" width="146" x="244" y="285.4688"/><text fill="#000000" font-family="sans-serif" font-size="12" lengthAdjust="spacing" textLength="126" x="254" y="307.9258">Claim on Google Maps</text><line style="stroke:#181818;stroke-width:1.5;" x1="234" x2="244" y1="353.1094" y2="353.1094"/><rect fill="#F1F1F1" height="35.0938" style="stroke:#181818;stroke-width:1.5;" width="210" x="244" y="335.5625"/><text fill="#000000" font-family="sans-serif" font-size="12" lengthAdjust="spacing" textLength="190" x="254" y="358.0195">Directories (yelp, Urbanspoon etc.)</text><line style="stroke:#181818;stroke-width:1.5;" x1="234" x2="244" y1="403.2031" y2="403.2031"/><rect fill="#F1F1F1" height="35.0938" style="stroke:#181818;stroke-width:1.5;" width="143" x="244" y="385.6563"/><text fill="#000000" font-family="sans-serif" font-size="12" lengthAdjust="spacing" textLength="123" x="254" y="408.1133">Reviews and Citations</text><line style="stroke:#181818;stroke-width:1.5;" x1="315.5" x2="325.5" y1="453.2969" y2="453.2969"/><rect fill="#F1F1F1" height="35.0938" style="stroke:#181818;stroke-width:1.5;" width="57" x="325.5" y="435.75"/><text fill="#000000" font-family="sans-serif" font-size="12" lengthAdjust="spacing" textLength="37" x="335.5" y="458.207">Quality</text><line style="stroke:#181818;stroke-width:1.5;" x1="315.5" x2="325.5" y1="503.3906" y2="503.3906"/><rect fill="#F1F1F1" height="35.0938" style="stroke:#181818;stroke-width:1.5;" width="127" x="325.5" y="485.8438"/><text fill="#000000" font-family="sans-serif" font-size="12" lengthAdjust="spacing" textLength="107" x="335.5" y="508.3008">Quantity (typ. &gt; 100)</text><line style="stroke:#181818;stroke-width:1.5;" x1="315.5" x2="315.5" y1="420.75" y2="503.3906"/><line style="stroke:#181818;stroke-width:1.5;" x1="234" x2="244" y1="553.4844" y2="553.4844"/><rect fill="#F1F1F1" height="35.0938" style="stroke:#181818;stroke-width:1.5;" width="94" x="244" y="535.9375"/><text fill="#000000" font-family="sans-serif" font-size="12" lengthAdjust="spacing" textLength="74" x="254" y="558.3945">Inbound links</text><line style="stroke:#181818;stroke-width:1.5;" x1="234" x2="244" y1="603.5781" y2="603.5781"/><rect fill="#F1F1F1" height="35.0938" style="stroke:#181818;stroke-width:1.5;" width="102" x="244" y="586.0313"/><text fill="#000000" font-family="sans-serif" font-size="12" lengthAdjust="spacing" textLength="82" x="254" y="608.4883">Google Photos</text><line style="stroke:#181818;stroke-width:1.5;" x1="234" x2="234" y1="120.1875" y2="603.5781"/><line style="stroke:#181818;stroke-width:1.5;" x1="631" x2="631" y1="65.0938" y2="85.0938"/><rect fill="#F1F1F1" height="35.0938" style="stroke:#181818;stroke-width:1.5;" width="69" x="596.5" y="85.0938"/><text fill="#000000" font-family="sans-serif" font-size="12" lengthAdjust="spacing" textLength="49" x="606.5" y="107.5508">Structure</text><line style="stroke:#181818;stroke-width:1.5;" x1="631" x2="641" y1="152.7344" y2="152.7344"/><rect fill="#F1F1F1" height="35.0938" style="stroke:#181818;stroke-width:1.5;" width="222" x="641" y="135.1875"/><text fill="#000000" font-family="sans-serif" font-size="12" lengthAdjust="spacing" textLength="202" x="651" y="157.6445">Unique url, page title, description, H1</text><line style="stroke:#181818;stroke-width:1.5;" x1="631" x2="641" y1="202.8281" y2="202.8281"/><rect fill="#F1F1F1" height="35.0938" style="stroke:#181818;stroke-width:1.5;" width="241" x="641" y="185.2813"/><text fill="#000000" font-family="sans-serif" font-size="12" lengthAdjust="spacing" textLength="221" x="651" y="207.7383">Page title (clear &amp; simple with keywords)</text><line style="stroke:#181818;stroke-width:1.5;" x1="631" x2="641" y1="252.9219" y2="252.9219"/><rect fill="#F1F1F1" height="35.0938" style="stroke:#181818;stroke-width:1.5;" width="353" x="641" y="235.375"/><text fill="#000000" font-family="sans-serif" font-size="12" lengthAdjust="spacing" textLength="333" x="651" y="257.832">H1 (short, clear, concise, active voice, describe page content)</text><line style="stroke:#181818;stroke-width:1.5;" x1="631" x2="641" y1="303.0156" y2="303.0156"/><rect fill="#F1F1F1" height="35.0938" style="stroke:#181818;stroke-width:1.5;" width="83" x="641" y="285.4688"/><text fill="#000000" font-family="sans-serif" font-size="12" lengthAdjust="spacing" textLength="63" x="651" y="307.9258">Description</text><line style="stroke:#181818;stroke-width:1.5;" x1="631" x2="641" y1="353.1094" y2="353.1094"/><rect fill="#F1F1F1" height="35.0938" style="stroke:#181818;stroke-width:1.5;" width="189" x="641" y="335.5625"/><text fill="#000000" font-family="sans-serif" font-size="12" lengthAdjust="spacing" textLength="169" x="651" y="358.0195">Content Heirarchy (H2, H3 etc.)</text><line style="stroke:#181818;stroke-width:1.5;" x1="631" x2="641" y1="403.2031" y2="403.2031"/><rect fill="#F1F1F1" height="35.0938" style="stroke:#181818;stroke-width:1.5;" width="144" x="641" y="385.6563"/><text fill="#000000" font-family="sans-serif" font-size="12" lengthAdjust="spacing" textLength="124" x="651" y="408.1133">Paragraphs vs. Bullets</text><line style="stroke:#181818;stroke-width:1.5;" x1="631" x2="631" y1="120.1875" y2="403.2031"/><line style="stroke:#181818;stroke-width:1.5;" x1="1045" x2="1045" y1="65.0938" y2="85.0938"/><rect fill="#F1F1F1" height="35.0938" style="stroke:#181818;stroke-width:1.5;" width="62" x="1014" y="85.0938"/><text fill="#000000" font-family="sans-serif" font-size="12" lengthAdjust="spacing" textLength="42" x="1024" y="107.5508">Images</text><line style="stroke:#181818;stroke-width:1.5;" x1="1127.5" x2="1127.5" y1="65.0938" y2="85.0938"/><rect fill="#F1F1F1" height="35.0938" style="stroke:#181818;stroke-width:1.5;" width="63" x="1096" y="85.0938"/><text fill="#000000" font-family="sans-serif" font-size="12" lengthAdjust="spacing" textLength="43" x="1106" y="107.5508">Content</text><line style="stroke:#181818;stroke-width:1.5;" x1="1127.5" x2="1137.5" y1="152.7344" y2="152.7344"/><rect fill="#F1F1F1" height="35.0938" style="stroke:#181818;stroke-width:1.5;" width="130" x="1137.5" y="135.1875"/><text fill="#000000" font-family="sans-serif" font-size="12" lengthAdjust="spacing" textLength="110" x="1147.5" y="157.6445">No Keyword Stuffing</text><line style="stroke:#181818;stroke-width:1.5;" x1="1127.5" x2="1137.5" y1="202.8281" y2="202.8281"/><rect fill="#F1F1F1" height="35.0938" style="stroke:#181818;stroke-width:1.5;" width="205" x="1137.5" y="185.2813"/><text fill="#000000" font-family="sans-serif" font-size="12" lengthAdjust="spacing" textLength="185" x="1147.5" y="207.7383">No Cloaking (i.e. Doorway) Pages</text><line style="stroke:#181818;stroke-width:1.5;" x1="1127.5" x2="1137.5" y1="252.9219" y2="252.9219"/><rect fill="#F1F1F1" height="35.0938" style="stroke:#181818;stroke-width:1.5;" width="100" x="1137.5" y="235.375"/><text fill="#000000" font-family="sans-serif" font-size="12" lengthAdjust="spacing" textLength="80" x="1147.5" y="257.832">No Hidden text</text><line style="stroke:#181818;stroke-width:1.5;" x1="1127.5" x2="1137.5" y1="303.0156" y2="303.0156"/><rect fill="#F1F1F1" height="35.0938" style="stroke:#181818;stroke-width:1.5;" width="128" x="1137.5" y="285.4688"/><text fill="#000000" font-family="sans-serif" font-size="12" lengthAdjust="spacing" textLength="108" x="1147.5" y="307.9258">Content Duplication</text><line style="stroke:#181818;stroke-width:1.5;" x1="1127.5" x2="1137.5" y1="353.1094" y2="353.1094"/><rect fill="#F1F1F1" height="35.0938" style="stroke:#181818;stroke-width:1.5;" width="136" x="1137.5" y="335.5625"/><text fill="#000000" font-family="sans-serif" font-size="12" lengthAdjust="spacing" textLength="116" x="1147.5" y="358.0195">Repetitive anchor text</text><line style="stroke:#181818;stroke-width:1.5;" x1="1127.5" x2="1137.5" y1="403.2031" y2="403.2031"/><rect fill="#F1F1F1" height="35.0938" style="stroke:#181818;stroke-width:1.5;" width="213" x="1137.5" y="385.6563"/><text fill="#000000" font-family="sans-serif" font-size="12" lengthAdjust="spacing" textLength="193" x="1147.5" y="408.1133">A Page with single search objective</text><line style="stroke:#181818;stroke-width:1.5;" x1="1127.5" x2="1127.5" y1="120.1875" y2="403.2031"/><line style="stroke:#181818;stroke-width:1.5;" x1="1439.5" x2="1439.5" y1="65.0938" y2="85.0938"/><rect fill="#F1F1F1" height="35.0938" style="stroke:#181818;stroke-width:1.5;" width="138" x="1370.5" y="85.0938"/><text fill="#000000" font-family="sans-serif" font-size="12" lengthAdjust="spacing" textLength="118" x="1380.5" y="107.5508">General Compatibility</text><line style="stroke:#181818;stroke-width:1.5;" x1="1439.5" x2="1449.5" y1="152.7344" y2="152.7344"/><rect fill="#F1F1F1" height="35.0938" style="stroke:#181818;stroke-width:1.5;" width="124" x="1449.5" y="135.1875"/><text fill="#000000" font-family="sans-serif" font-size="12" lengthAdjust="spacing" textLength="104" x="1459.5" y="157.6445">Mobile friendliness</text><line style="stroke:#181818;stroke-width:1.5;" x1="1439.5" x2="1449.5" y1="202.8281" y2="202.8281"/><rect fill="#F1F1F1" height="35.0938" style="stroke:#181818;stroke-width:1.5;" width="123" x="1449.5" y="185.2813"/><text fill="#000000" font-family="sans-serif" font-size="12" lengthAdjust="spacing" textLength="103" x="1459.5" y="207.7383">Page loading  time</text><line style="stroke:#181818;stroke-width:1.5;" x1="1439.5" x2="1449.5" y1="252.9219" y2="252.9219"/><rect fill="#F1F1F1" height="35.0938" style="stroke:#181818;stroke-width:1.5;" width="74" x="1449.5" y="235.375"/><text fill="#000000" font-family="sans-serif" font-size="12" lengthAdjust="spacing" textLength="54" x="1459.5" y="257.832">Robots.txt</text><line style="stroke:#181818;stroke-width:1.5;" x1="1439.5" x2="1449.5" y1="303.0156" y2="303.0156"/><rect fill="#F1F1F1" height="35.0938" style="stroke:#181818;stroke-width:1.5;" width="99" x="1449.5" y="285.4688"/><text fill="#000000" font-family="sans-serif" font-size="12" lengthAdjust="spacing" textLength="79" x="1459.5" y="307.9258">XML Sitemaps</text><line style="stroke:#181818;stroke-width:1.5;" x1="1439.5" x2="1439.5" y1="120.1875" y2="303.0156"/><line style="stroke:#181818;stroke-width:1.5;" x1="1618.5" x2="1618.5" y1="65.0938" y2="85.0938"/><rect fill="#F1F1F1" height="35.0938" style="stroke:#181818;stroke-width:1.5;" width="50" x="1593.5" y="85.0938"/><text fill="#000000" font-family="sans-serif" font-size="12" lengthAdjust="spacing" textLength="30" x="1603.5" y="107.5508">Links</text><line style="stroke:#181818;stroke-width:1.5;" x1="1618.5" x2="1628.5" y1="152.7344" y2="152.7344"/><rect fill="#F1F1F1" height="35.0938" style="stroke:#181818;stroke-width:1.5;" width="200" x="1628.5" y="135.1875"/><text fill="#000000" font-family="sans-serif" font-size="12" lengthAdjust="spacing" textLength="180" x="1638.5" y="157.6445">Practical (context) outbound links</text><line style="stroke:#181818;stroke-width:1.5;" x1="1618.5" x2="1628.5" y1="202.8281" y2="202.8281"/><rect fill="#F1F1F1" height="35.0938" style="stroke:#181818;stroke-width:1.5;" width="94" x="1628.5" y="185.2813"/><text fill="#000000" font-family="sans-serif" font-size="12" lengthAdjust="spacing" textLength="74" x="1638.5" y="207.7383">Inbound links</text><line style="stroke:#181818;stroke-width:1.5;" x1="1618.5" x2="1618.5" y1="120.1875" y2="202.8281"/><line style="stroke:#181818;stroke-width:1.5;" x1="1897.5" x2="1897.5" y1="65.0938" y2="85.0938"/><rect fill="#F1F1F1" height="35.0938" style="stroke:#181818;stroke-width:1.5;" width="98" x="1848.5" y="85.0938"/><text fill="#000000" font-family="sans-serif" font-size="12" lengthAdjust="spacing" textLength="78" x="1858.5" y="107.5508">Sanity Checks</text><line style="stroke:#181818;stroke-width:1.5;" x1="1897.5" x2="1907.5" y1="152.7344" y2="152.7344"/><rect fill="#F1F1F1" height="35.0938" style="stroke:#181818;stroke-width:1.5;" width="99" x="1907.5" y="135.1875"/><text fill="#000000" font-family="sans-serif" font-size="12" lengthAdjust="spacing" textLength="79" x="1917.5" y="157.6445">Hidden Pages</text><line style="stroke:#181818;stroke-width:1.5;" x1="1897.5" x2="1907.5" y1="202.8281" y2="202.8281"/><rect fill="#F1F1F1" height="35.0938" style="stroke:#181818;stroke-width:1.5;" width="158" x="1907.5" y="185.2813"/><text fill="#000000" font-family="sans-serif" font-size="12" lengthAdjust="spacing" textLength="138" x="1917.5" y="207.7383">Stuffing words into alt text</text><line style="stroke:#181818;stroke-width:1.5;" x1="1897.5" x2="1897.5" y1="120.1875" y2="202.8281"/><line style="stroke:#181818;stroke-width:1.5;" x1="58" x2="1897.5" y1="65.0938" y2="65.0938"/><rect fill="#ADFF2F" height="35.0938" style="stroke:#181818;stroke-width:1.5;" width="125" x="915.25" y="10"/><text fill="#000000" font-family="sans-serif" font-size="12" lengthAdjust="spacing" textLength="105" x="925.25" y="32.457">Functional Website</text><line style="stroke:#181818;stroke-width:1.5;" x1="977.75" x2="977.75" y1="45.0938" y2="65.0938"/><!--SRC=[RLJ1Kjim4BtxA_RKSPZK9O7fT38C0pX0e8Ic16XxbEKbKP6rhYGdP3hyUrTo4g1jBl5gdtVVldtoaVF2-cNXaWFdLneF4tuUAZ6peeBV2K0siuXcXLhJCXw4tucGZpDBZIbpqcJXF61-H0mZdfFdvE33kjmEd3L6UaL6QFY6XLCUuU3WLTL31krmIQSav7EKZuxZ7JWkIukkVSx9EEKy6W_NnvCauAz8Si7fwPS8k1OLTZUlT64o9uEGChOJqcyAB9MVmqdZb64etE2Cpwq81FyFFIUQQOIngDTSj50LaFadCLGMfIUhq47AezLTkBE5CAucHgENMIJ3BHSAbmw4AI5NFhPsRU-lZT3AhxQ1yHn1wbTr1eVGszrjAroO8cWFMfcrM6ikFBSd5_MPUjj8trYC-JkZVZK8ZTLTgCKCWGjhLgn49wsg0uKkZ7eHEzdc8PKQXOLtu5HLSnm5USJLacpfMYwZ7gHkJjPt8OBvZunKZeiBNli2OK5ARbiLsFPdK92uhJ5yOR5PTzH_XCeAA-SimQZF_FPUgJWHDfYqdZjOk8mNgZNwTlIBYZkqZ-jAhKS8FhVKMPpcuK6PsUOyroGUEOPKPPZ1aCWknQeJfN0Rq4YL9Hhm-EJVi1msjLPowo3URuqiNnXT6CdIlBnot8eRPMG3XfKv31C25JynoXLfdwD1o_REgQgvSA4she0nSO3mm2upfOuUVbaQJr66ANXxLRlt6oh8kyol-tyVNy6KBs0LFDjUews59ZRiArogD2xdoNU06l-tqzvwBpfDcE3ILrTthTIBUXkz8He7bF44GljMcEI8HmbVe6IYsV5tp761rh6SqClwk_r-rjjFRzczGvIm-n5w_K5_Vz3RWtnw2o7VITBpoHKuQgn4ACDzLaKJzj59BiL2m4rZWY83255wE-xmTsDp2ATceIoPAjZaydxSWc14VbgJZ-1Sgx3d-t4on0VHCEzJ8oaeFO2xsxFtdv8hOMODJpi0D4dE-dYxujpq3m00]--></g></svg>