<?xml version="1.0" encoding="UTF-8" standalone="no"?><svg xmlns="http://www.w3.org/2000/svg" xmlns:xlink="http://www.w3.org/1999/xlink" contentStyleType="text/css" height="632px" preserveAspectRatio="none" style="width:1997px;height:632px;background:#FFFFFF;" version="1.1" viewBox="0 0 1997 632" width="1997px" zoomAndPan="magnify"><defs/><g><line style="stroke:#181818;stroke-width:1.5;" x1="58" x2="58" y1="65.0938" y2="85.0938"/><rect fill="#F1F1F1" height="35.0938" style="stroke:#181818;stroke-width:1.5;" width="96" x="10" y="85.0938"/><text fill="#000000" font-family="sans-serif" font-size="12" lengthAdjust="spacing" textLength="76" x="20" y="107.5508">Basic Checks</text><line style="stroke:#181818;stroke-width:1.5;" x1="58" x2="68" y1="152.7344" y2="152.7344"/><rect fill="#F1F1F1" height="35.0938" style="stroke:#181818;stroke-width:1.5;" width="66" x="68" y="135.1875"/><text fill="#000000" font-family="sans-serif" font-size="12" lengthAdjust="spacing" textLength="46" x="78" y="157.6445">Address</text><line style="stroke:#181818;stroke-width:1.5;" x1="58" x2="68" y1="202.8281" y2="202.8281"/><rect fill="#F1F1F1" height="35.0938" style="stroke:#181818;stroke-width:1.5;" width="66" x="68" y="185.2813"/><text fill="#000000" font-family="sans-serif" font-size="12" lengthAdjust="spacing" textLength="46" x="78" y="207.7383">Address</text><line style="stroke:#181818;stroke-width:1.5;" x1="101" x2="111" y1="252.9219" y2="252.9219"/><rect fill="#F1F1F1" height="35.0938" style="stroke:#181818;stroke-width:1.5;" width="217" x="111" y="235.375"/><text fill="#000000" font-family="sans-serif" font-size="12" lengthAdjust="spacing" textLength="197" x="121" y="257.832">Matches with Business Registration</text><line style="stroke:#181818;stroke-width:1.5;" x1="101" x2="111" y1="303.0156" y2="303.0156"/><rect fill="#F1F1F1" height="35.0938" style="stroke:#181818;stroke-width:1.5;" width="167" x="111" y="285.4688"/><text fill="#000000" font-family="sans-serif" font-size="12" lengthAdjust="spacing" textLength="147" x="121" y="307.9258">Matches with Google Maps</text><line style="stroke:#181818;stroke-width:1.5;" x1="101" x2="111" y1="353.1094" y2="353.1094"/><rect fill="#F1F1F1" height="35.0938" style="stroke:#181818;stroke-width:1.5;" width="101" x="111" y="335.5625"/><text fill="#000000" font-family="sans-serif" font-size="12" lengthAdjust="spacing" textLength="81" x="121" y="358.0195">Matches with ?</text><line style="stroke:#181818;stroke-width:1.5;" x1="101" x2="101" y1="220.375" y2="353.1094"/><line style="stroke:#181818;stroke-width:1.5;" x1="58" x2="58" y1="120.1875" y2="202.8281"/><line style="stroke:#181818;stroke-width:1.5;" x1="387" x2="387" y1="65.0938" y2="85.0938"/><rect fill="#F1F1F1" height="35.0938" style="stroke:#181818;stroke-width:1.5;" width="78" x="348" y="85.0938"/><text fill="#000000" font-family="sans-serif" font-size="12" lengthAdjust="spacing" textLength="58" x="358" y="107.5508">Local SEO</text><line style="stroke:#181818;stroke-width:1.5;" x1="387" x2="397" y1="152.7344" y2="152.7344"/><rect fill="#F1F1F1" height="35.0938" style="stroke:#181818;stroke-width:1.5;" width="183" x="397" y="135.1875"/><text fill="#000000" font-family="sans-serif" font-size="12" lengthAdjust="spacing" textLength="163" x="407" y="157.6445">Name, Address, Phone (NAP)</text><line style="stroke:#181818;stroke-width:1.5;" x1="488.5" x2="498.5" y1="202.8281" y2="202.8281"/><rect fill="#F1F1F1" height="35.0938" style="stroke:#181818;stroke-width:1.5;" width="231" x="498.5" y="185.2813"/><text fill="#000000" font-family="sans-serif" font-size="12" lengthAdjust="spacing" textLength="211" x="508.5" y="207.7383">Consistent with Business Registration</text><line style="stroke:#181818;stroke-width:1.5;" x1="488.5" x2="498.5" y1="252.9219" y2="252.9219"/><rect fill="#F1F1F1" height="35.0938" style="stroke:#181818;stroke-width:1.5;" width="181" x="498.5" y="235.375"/><text fill="#000000" font-family="sans-serif" font-size="12" lengthAdjust="spacing" textLength="161" x="508.5" y="257.832">Consistent with Google Maps</text><line style="stroke:#181818;stroke-width:1.5;" x1="488.5" x2="488.5" y1="170.2813" y2="252.9219"/><line style="stroke:#181818;stroke-width:1.5;" x1="387" x2="397" y1="303.0156" y2="303.0156"/><rect fill="#F1F1F1" height="35.0938" style="stroke:#181818;stroke-width:1.5;" width="146" x="397" y="285.4688"/><text fill="#000000" font-family="sans-serif" font-size="12" lengthAdjust="spacing" textLength="126" x="407" y="307.9258">Claim on Google Maps</text><line style="stroke:#181818;stroke-width:1.5;" x1="387" x2="397" y1="353.1094" y2="353.1094"/><rect fill="#F1F1F1" height="35.0938" style="stroke:#181818;stroke-width:1.5;" width="210" x="397" y="335.5625"/><text fill="#000000" font-family="sans-serif" font-size="12" lengthAdjust="spacing" textLength="190" x="407" y="358.0195">Directories (yelp, Urbanspoon etc.)</text><line style="stroke:#181818;stroke-width:1.5;" x1="387" x2="397" y1="403.2031" y2="403.2031"/><rect fill="#F1F1F1" height="35.0938" style="stroke:#181818;stroke-width:1.5;" width="143" x="397" y="385.6563"/><text fill="#000000" font-family="sans-serif" font-size="12" lengthAdjust="spacing" textLength="123" x="407" y="408.1133">Reviews and Citations</text><line style="stroke:#181818;stroke-width:1.5;" x1="468.5" x2="478.5" y1="453.2969" y2="453.2969"/><rect fill="#F1F1F1" height="35.0938" style="stroke:#181818;stroke-width:1.5;" width="57" x="478.5" y="435.75"/><text fill="#000000" font-family="sans-serif" font-size="12" lengthAdjust="spacing" textLength="37" x="488.5" y="458.207">Quality</text><line style="stroke:#181818;stroke-width:1.5;" x1="468.5" x2="478.5" y1="503.3906" y2="503.3906"/><rect fill="#F1F1F1" height="35.0938" style="stroke:#181818;stroke-width:1.5;" width="127" x="478.5" y="485.8438"/><text fill="#000000" font-family="sans-serif" font-size="12" lengthAdjust="spacing" textLength="107" x="488.5" y="508.3008">Quantity (typ. &gt; 100)</text><line style="stroke:#181818;stroke-width:1.5;" x1="468.5" x2="468.5" y1="420.75" y2="503.3906"/><line style="stroke:#181818;stroke-width:1.5;" x1="387" x2="397" y1="553.4844" y2="553.4844"/><rect fill="#F1F1F1" height="35.0938" style="stroke:#181818;stroke-width:1.5;" width="94" x="397" y="535.9375"/><text fill="#000000" font-family="sans-serif" font-size="12" lengthAdjust="spacing" textLength="74" x="407" y="558.3945">Inbound links</text><line style="stroke:#181818;stroke-width:1.5;" x1="387" x2="397" y1="603.5781" y2="603.5781"/><rect fill="#F1F1F1" height="35.0938" style="stroke:#181818;stroke-width:1.5;" width="102" x="397" y="586.0313"/><text fill="#000000" font-family="sans-serif" font-size="12" lengthAdjust="spacing" textLength="82" x="407" y="608.4883">Google Photos</text><line style="stroke:#181818;stroke-width:1.5;" x1="387" x2="387" y1="120.1875" y2="603.5781"/><line style="stroke:#181818;stroke-width:1.5;" x1="786.5" x2="786.5" y1="65.0938" y2="85.0938"/><rect fill="#F1F1F1" height="35.0938" style="stroke:#181818;stroke-width:1.5;" width="74" x="749.5" y="85.0938"/><text fill="#000000" font-family="sans-serif" font-size="12" lengthAdjust="spacing" textLength="54" x="759.5" y="107.5508">Headings</text><line style="stroke:#181818;stroke-width:1.5;" x1="786.5" x2="796.5" y1="152.7344" y2="152.7344"/><rect fill="#F1F1F1" height="35.0938" style="stroke:#181818;stroke-width:1.5;" width="74" x="796.5" y="135.1875"/><text fill="#000000" font-family="sans-serif" font-size="12" lengthAdjust="spacing" textLength="54" x="806.5" y="157.6445">Single H1</text><line style="stroke:#181818;stroke-width:1.5;" x1="786.5" x2="796.5" y1="202.8281" y2="202.8281"/><rect fill="#F1F1F1" height="35.0938" style="stroke:#181818;stroke-width:1.5;" width="118" x="796.5" y="185.2813"/><text fill="#000000" font-family="sans-serif" font-size="12" lengthAdjust="spacing" textLength="98" x="806.5" y="207.7383">H2, H3, H4 usage</text><line style="stroke:#181818;stroke-width:1.5;" x1="786.5" x2="786.5" y1="120.1875" y2="202.8281"/><line style="stroke:#181818;stroke-width:1.5;" x1="965.5" x2="965.5" y1="65.0938" y2="85.0938"/><rect fill="#F1F1F1" height="35.0938" style="stroke:#181818;stroke-width:1.5;" width="62" x="934.5" y="85.0938"/><text fill="#000000" font-family="sans-serif" font-size="12" lengthAdjust="spacing" textLength="42" x="944.5" y="107.5508">Images</text><line style="stroke:#181818;stroke-width:1.5;" x1="1048" x2="1048" y1="65.0938" y2="85.0938"/><rect fill="#F1F1F1" height="35.0938" style="stroke:#181818;stroke-width:1.5;" width="63" x="1016.5" y="85.0938"/><text fill="#000000" font-family="sans-serif" font-size="12" lengthAdjust="spacing" textLength="43" x="1026.5" y="107.5508">Content</text><line style="stroke:#181818;stroke-width:1.5;" x1="1048" x2="1058" y1="152.7344" y2="152.7344"/><rect fill="#F1F1F1" height="35.0938" style="stroke:#181818;stroke-width:1.5;" width="130" x="1058" y="135.1875"/><text fill="#000000" font-family="sans-serif" font-size="12" lengthAdjust="spacing" textLength="110" x="1068" y="157.6445">No Keyword Stuffing</text><line style="stroke:#181818;stroke-width:1.5;" x1="1048" x2="1058" y1="202.8281" y2="202.8281"/><rect fill="#F1F1F1" height="35.0938" style="stroke:#181818;stroke-width:1.5;" width="205" x="1058" y="185.2813"/><text fill="#000000" font-family="sans-serif" font-size="12" lengthAdjust="spacing" textLength="185" x="1068" y="207.7383">No Cloaking (i.e. Doorway) Pages</text><line style="stroke:#181818;stroke-width:1.5;" x1="1048" x2="1058" y1="252.9219" y2="252.9219"/><rect fill="#F1F1F1" height="35.0938" style="stroke:#181818;stroke-width:1.5;" width="100" x="1058" y="235.375"/><text fill="#000000" font-family="sans-serif" font-size="12" lengthAdjust="spacing" textLength="80" x="1068" y="257.832">No Hidden text</text><line style="stroke:#181818;stroke-width:1.5;" x1="1048" x2="1058" y1="303.0156" y2="303.0156"/><rect fill="#F1F1F1" height="35.0938" style="stroke:#181818;stroke-width:1.5;" width="128" x="1058" y="285.4688"/><text fill="#000000" font-family="sans-serif" font-size="12" lengthAdjust="spacing" textLength="108" x="1068" y="307.9258">Content Duplication</text><line style="stroke:#181818;stroke-width:1.5;" x1="1048" x2="1058" y1="353.1094" y2="353.1094"/><rect fill="#F1F1F1" height="35.0938" style="stroke:#181818;stroke-width:1.5;" width="136" x="1058" y="335.5625"/><text fill="#000000" font-family="sans-serif" font-size="12" lengthAdjust="spacing" textLength="116" x="1068" y="358.0195">Repetitive anchor text</text><line style="stroke:#181818;stroke-width:1.5;" x1="1048" x2="1058" y1="403.2031" y2="403.2031"/><rect fill="#F1F1F1" height="35.0938" style="stroke:#181818;stroke-width:1.5;" width="213" x="1058" y="385.6563"/><text fill="#000000" font-family="sans-serif" font-size="12" lengthAdjust="spacing" textLength="193" x="1068" y="408.1133">A Page with single search objective</text><line style="stroke:#181818;stroke-width:1.5;" x1="1048" x2="1048" y1="120.1875" y2="403.2031"/><line style="stroke:#181818;stroke-width:1.5;" x1="1360" x2="1360" y1="65.0938" y2="85.0938"/><rect fill="#F1F1F1" height="35.0938" style="stroke:#181818;stroke-width:1.5;" width="138" x="1291" y="85.0938"/><text fill="#000000" font-family="sans-serif" font-size="12" lengthAdjust="spacing" textLength="118" x="1301" y="107.5508">General Compatibility</text><line style="stroke:#181818;stroke-width:1.5;" x1="1360" x2="1370" y1="152.7344" y2="152.7344"/><rect fill="#F1F1F1" height="35.0938" style="stroke:#181818;stroke-width:1.5;" width="124" x="1370" y="135.1875"/><text fill="#000000" font-family="sans-serif" font-size="12" lengthAdjust="spacing" textLength="104" x="1380" y="157.6445">Mobile friendliness</text><line style="stroke:#181818;stroke-width:1.5;" x1="1360" x2="1370" y1="202.8281" y2="202.8281"/><rect fill="#F1F1F1" height="35.0938" style="stroke:#181818;stroke-width:1.5;" width="123" x="1370" y="185.2813"/><text fill="#000000" font-family="sans-serif" font-size="12" lengthAdjust="spacing" textLength="103" x="1380" y="207.7383">Page loading  time</text><line style="stroke:#181818;stroke-width:1.5;" x1="1360" x2="1370" y1="252.9219" y2="252.9219"/><rect fill="#F1F1F1" height="35.0938" style="stroke:#181818;stroke-width:1.5;" width="74" x="1370" y="235.375"/><text fill="#000000" font-family="sans-serif" font-size="12" lengthAdjust="spacing" textLength="54" x="1380" y="257.832">Robots.txt</text><line style="stroke:#181818;stroke-width:1.5;" x1="1360" x2="1370" y1="303.0156" y2="303.0156"/><rect fill="#F1F1F1" height="35.0938" style="stroke:#181818;stroke-width:1.5;" width="99" x="1370" y="285.4688"/><text fill="#000000" font-family="sans-serif" font-size="12" lengthAdjust="spacing" textLength="79" x="1380" y="307.9258">XML Sitemaps</text><line style="stroke:#181818;stroke-width:1.5;" x1="1360" x2="1360" y1="120.1875" y2="303.0156"/><line style="stroke:#181818;stroke-width:1.5;" x1="1539" x2="1539" y1="65.0938" y2="85.0938"/><rect fill="#F1F1F1" height="35.0938" style="stroke:#181818;stroke-width:1.5;" width="50" x="1514" y="85.0938"/><text fill="#000000" font-family="sans-serif" font-size="12" lengthAdjust="spacing" textLength="30" x="1524" y="107.5508">Links</text><line style="stroke:#181818;stroke-width:1.5;" x1="1539" x2="1549" y1="152.7344" y2="152.7344"/><rect fill="#F1F1F1" height="35.0938" style="stroke:#181818;stroke-width:1.5;" width="200" x="1549" y="135.1875"/><text fill="#000000" font-family="sans-serif" font-size="12" lengthAdjust="spacing" textLength="180" x="1559" y="157.6445">Practical (context) outbound links</text><line style="stroke:#181818;stroke-width:1.5;" x1="1539" x2="1549" y1="202.8281" y2="202.8281"/><rect fill="#F1F1F1" height="35.0938" style="stroke:#181818;stroke-width:1.5;" width="94" x="1549" y="185.2813"/><text fill="#000000" font-family="sans-serif" font-size="12" lengthAdjust="spacing" textLength="74" x="1559" y="207.7383">Inbound links</text><line style="stroke:#181818;stroke-width:1.5;" x1="1539" x2="1539" y1="120.1875" y2="202.8281"/><line style="stroke:#181818;stroke-width:1.5;" x1="1818" x2="1818" y1="65.0938" y2="85.0938"/><rect fill="#F1F1F1" height="35.0938" style="stroke:#181818;stroke-width:1.5;" width="98" x="1769" y="85.0938"/><text fill="#000000" font-family="sans-serif" font-size="12" lengthAdjust="spacing" textLength="78" x="1779" y="107.5508">Sanity Checks</text><line style="stroke:#181818;stroke-width:1.5;" x1="1818" x2="1828" y1="152.7344" y2="152.7344"/><rect fill="#F1F1F1" height="35.0938" style="stroke:#181818;stroke-width:1.5;" width="99" x="1828" y="135.1875"/><text fill="#000000" font-family="sans-serif" font-size="12" lengthAdjust="spacing" textLength="79" x="1838" y="157.6445">Hidden Pages</text><line style="stroke:#181818;stroke-width:1.5;" x1="1818" x2="1828" y1="202.8281" y2="202.8281"/><rect fill="#F1F1F1" height="35.0938" style="stroke:#181818;stroke-width:1.5;" width="158" x="1828" y="185.2813"/><text fill="#000000" font-family="sans-serif" font-size="12" lengthAdjust="spacing" textLength="138" x="1838" y="207.7383">Stuffing words into alt text</text><line style="stroke:#181818;stroke-width:1.5;" x1="1818" x2="1818" y1="120.1875" y2="202.8281"/><line style="stroke:#181818;stroke-width:1.5;" x1="58" x2="1818" y1="65.0938" y2="65.0938"/><rect fill="#ADFF2F" height="35.0938" style="stroke:#181818;stroke-width:1.5;" width="125" x="875.5" y="10"/><text fill="#000000" font-family="sans-serif" font-size="12" lengthAdjust="spacing" textLength="105" x="885.5" y="32.457">Functional Website</text><line style="stroke:#181818;stroke-width:1.5;" x1="938" x2="938" y1="45.0938" y2="65.0938"/><!--SRC=[XLHjRzem4FwUNt4V0s8Pq6gQ4EhQXXRQGiSAxRQFJd84hualiXqeclhVTqu2wzfAGqBolVYvvvuxvzHOeUqsCjxGs5s69nwVHrAaMkJmsmC8KeseTfXbjAqSxdSkuiTKKwcIa3BIC7OvFwiSpdZsdhtXnmQk3PUbYgqa9JBuZf6H5c4uV85wmabjXZGoXd2DyQDXkmrdIQBHl3ctOIPil4O3MsdNS5uQgJW4TvXAOxLmbTx96nEb6RAlU0_bY-SeJ2bcZekBhrNDMv5ZPr-v0_CrAGJ_zcpUgW52KeOhehB_PV8wzHKP23CXSo3r9Z2I6cDBMZ9HdzKgEd2l8w5CGPoDDWugCbno8t5hGAW4GcchqasVtqgHIRix6Cgo1RxT5G6SGA_RhH6kLEJ62PbKZVuD5-xRagdqcQ18f4hhy89F79xqAclIxy3aYF_7K1gHOfL_bVEflieAkFPhOGbkSBSbdS32bgiL0-tzOKRYaMtmPO01Z8ZqLknQCA-0cgI9J19KOF6fnckmOLGMcOmFihCe1NApSeEiIxpcDJrSEQiGws6OkX63GiTheEWNAyvtAjfZLAXv9qBA2mQEv5vAc14R22iUZKgoQl2LlyBbBfnG05RcM7EXYAm9R5F_nspA0bhCtQ3htJleFjU22RXDz6FNsPDj0PNszNZ-7PY3M0ZbHllY2JLA_LLlhpSuzGr8PGb4PcjXl5DknNq9l7d6QtBF73Ue3Si9lQ3VxVU3th6_B15664Ft4_JwW_xne7S4uM89Bjxo_F5y2ePA7ICaxX78g7JpQ7dNOYFWhbHEaG4uor_EMlpOzawuK1kfIULkJQuVPdKIJCWk2h9LSfX9D-U7cJV2bIYPzuMAoIazWFlbvOVFtbIejEHk1u3A2raVgtSSM_m1]--></g></svg>