<?xml version="1.0" encoding="UTF-8" standalone="no"?><svg xmlns="http://www.w3.org/2000/svg" xmlns:xlink="http://www.w3.org/1999/xlink" contentStyleType="text/css" height="738px" preserveAspectRatio="none" style="width:415px;height:738px;background:#FFFFFF;" version="1.1" viewBox="0 0 415 738" width="415px" zoomAndPan="magnify"><defs/><g><rect fill="#FF6347" height="45.2188" id="_title" rx="7.5" ry="7.5" style="stroke:#FF0000;stroke-width:2.0;" width="100" x="156" y="15"/><text fill="#000000" font-family="sans-serif" font-size="14" font-weight="bold" lengthAdjust="spacing" textLength="90" x="161" y="34.5332">SEO Analysis</text><text fill="#000000" font-family="sans-serif" font-size="14" font-weight="bold" lengthAdjust="spacing" textLength="65" x="175.5" y="52.1426">Workflow</text><ellipse cx="91.5" cy="76.2188" fill="#222222" rx="10" ry="10" style="stroke:#222222;stroke-width:1.0;"/><rect fill="none" height="249.9844" style="stroke:#000000;stroke-width:1.5;" width="276" x="22.5" y="96.2188"/><path d="M70.5,96.2188 L70.5,106.8281 L60.5,116.8281 L22.5,116.8281 " fill="none" style="stroke:#000000;stroke-width:1.5;"/><text fill="#000000" font-family="sans-serif" font-size="14" lengthAdjust="spacing" textLength="38" x="25.5" y="111.752">Inputs</text><rect fill="#F1F1F1" height="35.0938" rx="12.5" ry="12.5" style="stroke:#181818;stroke-width:0.5;" width="112" x="35.5" y="133.8281"/><text fill="#000000" font-family="sans-serif" font-size="12" lengthAdjust="spacing" textLength="92" x="45.5" y="156.2852">Website link (url)</text><path d="M170.5,193.293 L170.5,202.4688 L150.5,206.4688 L170.5,210.4688 L170.5,219.6445 A0,0 0 0 0 170.5,219.6445 L288.5,219.6445 A0,0 0 0 0 288.5,219.6445 L288.5,203.293 L278.5,193.293 L170.5,193.293 A0,0 0 0 0 170.5,193.293 " fill="#FEFFDD" style="stroke:#181818;stroke-width:0.5;"/><path d="M278.5,193.293 L278.5,203.293 L288.5,203.293 L278.5,193.293 " fill="#FEFFDD" style="stroke:#181818;stroke-width:0.5;"/><text fill="#000000" font-family="sans-serif" font-size="13" lengthAdjust="spacing" textLength="97" x="176.5" y="211.7881">Read from config</text><rect fill="#F1F1F1" height="35.0938" rx="12.5" ry="12.5" style="stroke:#181818;stroke-width:0.5;" width="118" x="32.5" y="188.9219"/><text fill="#000000" font-family="sans-serif" font-size="12" lengthAdjust="spacing" textLength="98" x="42.5" y="211.3789">Industry or vertical</text><path d="M145,248.3867 L145,257.5625 L125,261.5625 L145,265.5625 L145,274.7383 A0,0 0 0 0 145,274.7383 L278,274.7383 A0,0 0 0 0 278,274.7383 L278,258.3867 L268,248.3867 L145,248.3867 A0,0 0 0 0 145,248.3867 " fill="#FEFFDD" style="stroke:#181818;stroke-width:0.5;"/><path d="M268,248.3867 L268,258.3867 L278,258.3867 L268,248.3867 " fill="#FEFFDD" style="stroke:#181818;stroke-width:0.5;"/><text fill="#000000" font-family="sans-serif" font-size="13" lengthAdjust="spacing" textLength="112" x="151" y="266.8818">From URL or config</text><rect fill="#F1F1F1" height="35.0938" rx="12.5" ry="12.5" style="stroke:#181818;stroke-width:0.5;" width="67" x="58" y="244.0156"/><text fill="#000000" font-family="sans-serif" font-size="12" lengthAdjust="spacing" textLength="47" x="68" y="266.4727">Location</text><path d="M169.5,303.4805 L169.5,312.6563 L149.5,316.6563 L169.5,320.6563 L169.5,329.832 A0,0 0 0 0 169.5,329.832 L287.5,329.832 A0,0 0 0 0 287.5,329.832 L287.5,313.4805 L277.5,303.4805 L169.5,303.4805 A0,0 0 0 0 169.5,303.4805 " fill="#FEFFDD" style="stroke:#181818;stroke-width:0.5;"/><path d="M277.5,303.4805 L277.5,313.4805 L287.5,313.4805 L277.5,303.4805 " fill="#FEFFDD" style="stroke:#181818;stroke-width:0.5;"/><text fill="#000000" font-family="sans-serif" font-size="13" lengthAdjust="spacing" textLength="97" x="175.5" y="321.9756">Read from config</text><rect fill="#F1F1F1" height="35.0938" rx="12.5" ry="12.5" style="stroke:#181818;stroke-width:0.5;" width="116" x="33.5" y="299.1094"/><text fill="#000000" font-family="sans-serif" font-size="12" lengthAdjust="spacing" textLength="96" x="43.5" y="321.5664">Competition Data</text><rect fill="none" height="248.3594" style="stroke:#000000;stroke-width:1.5;" width="393" x="11" y="356.2031"/><path d="M73,356.2031 L73,366.8125 L63,376.8125 L11,376.8125 " fill="none" style="stroke:#000000;stroke-width:1.5;"/><text fill="#000000" font-family="sans-serif" font-size="14" lengthAdjust="spacing" textLength="52" x="14" y="371.7363">Analysis</text><path d="M166.5,386.8125 L166.5,428.6914 L146.5,432.6914 L166.5,436.6914 L166.5,478.5703 A0,0 0 0 0 166.5,478.5703 L388.5,478.5703 A0,0 0 0 0 388.5,478.5703 L388.5,396.8125 L378.5,386.8125 L166.5,386.8125 A0,0 0 0 0 166.5,386.8125 " fill="#FEFFDD" style="stroke:#181818;stroke-width:0.5;"/><path d="M378.5,386.8125 L378.5,396.8125 L388.5,396.8125 L378.5,386.8125 " fill="#FEFFDD" style="stroke:#181818;stroke-width:0.5;"/><text fill="#000000" font-family="sans-serif" font-size="13" lengthAdjust="spacing" textLength="201" x="172.5" y="405.3076">seoaudit, seo-analyze, seolib used</text><text fill="#000000" font-family="sans-serif" font-size="13" lengthAdjust="spacing" textLength="96" x="172.5" y="421.6592">Anaysis include:</text><text fill="#000000" font-family="sans-serif" font-size="13" lengthAdjust="spacing" textLength="37" x="188.5" y="438.0107">Audits</text><text fill="#000000" font-family="sans-serif" font-size="13" lengthAdjust="spacing" textLength="57" x="188.5" y="454.3623">Keywords</text><text fill="#000000" font-family="sans-serif" font-size="13" lengthAdjust="spacing" textLength="22" x="188.5" y="470.7139">etc.</text><rect fill="#F1F1F1" height="35.0938" rx="12.5" ry="12.5" style="stroke:#181818;stroke-width:0.5;" width="110" x="36.5" y="415.1445"/><text fill="#000000" font-family="sans-serif" font-size="12" lengthAdjust="spacing" textLength="87" x="49.5" y="437.6016">Analyze website</text><path d="M181,494.7656 L181,512.1172 L161,516.1172 L181,520.1172 L181,537.4688 A0,0 0 0 0 181,537.4688 L349,537.4688 A0,0 0 0 0 349,537.4688 L349,504.7656 L339,494.7656 L181,494.7656 A0,0 0 0 0 181,494.7656 " fill="#FEFFDD" style="stroke:#181818;stroke-width:0.5;"/><path d="M339,494.7656 L339,504.7656 L349,504.7656 L339,494.7656 " fill="#FEFFDD" style="stroke:#181818;stroke-width:0.5;"/><text fill="#000000" font-family="sans-serif" font-size="13" lengthAdjust="spacing" textLength="139" x="187" y="513.2607">Result saved as parquet</text><text fill="#000000" font-family="sans-serif" font-size="13" lengthAdjust="spacing" textLength="147" x="187" y="529.6123">Reanalysis once a month</text><rect fill="#F1F1F1" height="35.0938" rx="12.5" ry="12.5" style="stroke:#181818;stroke-width:0.5;" width="139" x="22" y="498.5703"/><text fill="#000000" font-family="sans-serif" font-size="12" lengthAdjust="spacing" textLength="116" x="35" y="521.0273">Competition Analysis</text><path d="M182,561.8398 L182,571.0156 L162,575.0156 L182,579.0156 L182,588.1914 A0,0 0 0 0 182,588.1914 L394,588.1914 A0,0 0 0 0 394,588.1914 L394,571.8398 L384,561.8398 L182,561.8398 A0,0 0 0 0 182,561.8398 " fill="#FEFFDD" style="stroke:#181818;stroke-width:0.5;"/><path d="M384,561.8398 L384,571.8398 L394,571.8398 L384,561.8398 " fill="#FEFFDD" style="stroke:#181818;stroke-width:0.5;"/><text fill="#000000" font-family="sans-serif" font-size="13" lengthAdjust="spacing" textLength="191" x="188" y="580.335">Based on competitor comparison</text><rect fill="#F1F1F1" height="35.0938" rx="12.5" ry="12.5" style="stroke:#181818;stroke-width:0.5;" width="141" x="21" y="557.4688"/><text fill="#000000" font-family="sans-serif" font-size="12" lengthAdjust="spacing" textLength="118" x="34" y="579.9258">Determine SEO Rank</text><rect fill="#F1F1F1" height="35.0938" rx="12.5" ry="12.5" style="stroke:#181818;stroke-width:0.5;" width="151" x="16" y="624.5625"/><text fill="#000000" font-family="sans-serif" font-size="12" lengthAdjust="spacing" textLength="128" x="29" y="647.0195">Save Output as parquet</text><ellipse cx="91.5" cy="690.6563" fill="none" rx="11" ry="11" style="stroke:#222222;stroke-width:1.0;"/><ellipse cx="91.5" cy="690.6563" fill="#222222" rx="6" ry="6" style="stroke:#111111;stroke-width:1.0;"/><line style="stroke:#181818;stroke-width:1.0;" x1="91.5" x2="91.5" y1="168.9219" y2="188.9219"/><polygon fill="#181818" points="87.5,178.9219,91.5,188.9219,95.5,178.9219,91.5,182.9219" style="stroke:#181818;stroke-width:1.0;"/><line style="stroke:#181818;stroke-width:1.0;" x1="91.5" x2="91.5" y1="224.0156" y2="244.0156"/><polygon fill="#181818" points="87.5,234.0156,91.5,244.0156,95.5,234.0156,91.5,238.0156" style="stroke:#181818;stroke-width:1.0;"/><line style="stroke:#181818;stroke-width:1.0;" x1="91.5" x2="91.5" y1="279.1094" y2="299.1094"/><polygon fill="#181818" points="87.5,289.1094,91.5,299.1094,95.5,289.1094,91.5,293.1094" style="stroke:#181818;stroke-width:1.0;"/><line style="stroke:#181818;stroke-width:1.0;" x1="91.5" x2="91.5" y1="86.2188" y2="133.8281"/><polygon fill="#181818" points="87.5,123.8281,91.5,133.8281,95.5,123.8281,91.5,127.8281" style="stroke:#181818;stroke-width:1.0;"/><line style="stroke:#181818;stroke-width:1.0;" x1="91.5" x2="91.5" y1="450.2383" y2="498.5703"/><polygon fill="#181818" points="87.5,488.5703,91.5,498.5703,95.5,488.5703,91.5,492.5703" style="stroke:#181818;stroke-width:1.0;"/><line style="stroke:#181818;stroke-width:1.0;" x1="91.5" x2="91.5" y1="533.6641" y2="557.4688"/><polygon fill="#181818" points="87.5,547.4688,91.5,557.4688,95.5,547.4688,91.5,551.4688" style="stroke:#181818;stroke-width:1.0;"/><line style="stroke:#181818;stroke-width:1.0;" x1="91.5" x2="91.5" y1="334.2031" y2="415.1445"/><polygon fill="#181818" points="87.5,405.1445,91.5,415.1445,95.5,405.1445,91.5,409.1445" style="stroke:#181818;stroke-width:1.0;"/><line style="stroke:#181818;stroke-width:1.0;" x1="91.5" x2="91.5" y1="592.5625" y2="624.5625"/><polygon fill="#181818" points="87.5,614.5625,91.5,624.5625,95.5,614.5625,91.5,618.5625" style="stroke:#181818;stroke-width:1.0;"/><line style="stroke:#181818;stroke-width:1.0;" x1="91.5" x2="91.5" y1="659.6563" y2="679.6563"/><polygon fill="#181818" points="87.5,669.6563,91.5,679.6563,95.5,669.6563,91.5,673.6563" style="stroke:#181818;stroke-width:1.0;"/><text fill="#888888" font-family="sans-serif" font-size="10" lengthAdjust="spacing" textLength="96" x="158" y="711.0371">2023.01.11 at 11:41</text><text fill="#888888" font-family="sans-serif" font-size="10" lengthAdjust="spacing" textLength="119" x="146.5" y="723.6152">epic_seo_flowchart.puml</text><!--SRC=[hLDDQnin4BthLmo641jIGmkzsAV4QKbeGc2JaailazMiBLQQSVKHuvR-zqgxJkF4DlZGEUrgthmtypGAhU4bUdGGJRHq8LwJhoIndebdyl3nimhxC0yBKxTC8S2d_O2PMF7WIU-aiMxdlfSea0Tn64MfBWdtN-xWdD6kWma_61x5jusL5IWL8lge5EJ8R1bjX65mpSiKmm1-zvaIaqTw2YOIMCCj39Ete-bMzffr2j6l8Mi_KoQgqKx_fKkmv69lveluvhX4HQYXyUAW5cxC_0s0M7UrhretKcFfysZ-huNwUtLJcZjAOIPkIHipBZ7YVvwaE_spu_hB3HNVkpRwE_j5iEgzFxgDG899ctXMlZvWpzBzMFC4AUJzUL-IfOes6AvjqZJP0NIWGXhsfhxHUfLNT7-IOZq-RFa4jlr-SU5rs0E3LXIIZH3mcJHWA4x-JFGUWniw4Au949nmNAW3VLnI9EyCzo-cGcwFjlm2iwjP95zyFqktQoutPOBmuU7p6apWFiy0TodcLxSroRGyJragrKX6UtMYCT9miCunlhqTQtqA6E7qwchYt62aJXfZYT7HSAIAnARgBm00]--></g></svg>