<?xml version="1.0" encoding="UTF-8" standalone="no"?><svg xmlns="http://www.w3.org/2000/svg" xmlns:xlink="http://www.w3.org/1999/xlink" contentStyleType="text/css" height="711px" preserveAspectRatio="none" style="width:478px;height:711px;background:#FFFFFF;" version="1.1" viewBox="0 0 478 711" width="478px" zoomAndPan="magnify"><defs/><g><rect fill="#FF6347" height="45.2188" id="_title" rx="7.5" ry="7.5" style="stroke:#FF0000;stroke-width:2.0;" width="109" x="183" y="15"/><text fill="#000000" font-family="sans-serif" font-size="14" font-weight="bold" lengthAdjust="spacing" textLength="99" x="188" y="34.5332">Website Tools</text><text fill="#000000" font-family="sans-serif" font-size="14" font-weight="bold" lengthAdjust="spacing" textLength="64" x="207.5" y="52.1426">HairByLiz</text><ellipse cx="93" cy="76.2188" fill="#222222" rx="10" ry="10" style="stroke:#222222;stroke-width:1.0;"/><rect fill="none" height="262.8242" style="stroke:#000000;stroke-width:1.5;" width="402.5" x="31.5" y="96.2188"/><path d="M78.5,96.2188 L78.5,106.8281 L68.5,116.8281 L31.5,116.8281 " fill="none" style="stroke:#000000;stroke-width:1.5;"/><text fill="#000000" font-family="sans-serif" font-size="14" lengthAdjust="spacing" textLength="37" x="34.5" y="111.752">Setup</text><path d="M152,132.3945 L152,157.9219 L132,161.9219 L152,165.9219 L152,191.4492 A0,0 0 0 0 152,191.4492 L424,191.4492 A0,0 0 0 0 424,191.4492 L424,142.3945 L414,132.3945 L152,132.3945 A0,0 0 0 0 152,132.3945 " fill="#FEFFDD" style="stroke:#181818;stroke-width:0.5;"/><path d="M414,132.3945 L414,142.3945 L424,142.3945 L414,132.3945 " fill="#FEFFDD" style="stroke:#181818;stroke-width:0.5;"/><text fill="#000000" font-family="sans-serif" font-size="13" lengthAdjust="spacing" textLength="149" x="158" y="150.8896">Change management etc.</text><text fill="#000000" font-family="sans-serif" font-size="13" lengthAdjust="spacing" textLength="251" x="158" y="167.2412">https://github.com/vamseeachanta/hairbyliz</text><text fill="#000000" font-family="sans-serif" font-size="13" lengthAdjust="spacing" textLength="96" x="158" y="183.5928">Access: VA, PP</text><rect fill="#F1F1F1" height="50.1875" rx="12.5" ry="12.5" style="stroke:#181818;stroke-width:0.5;" width="78" x="54" y="136.8281"/><text fill="#000000" font-family="sans-serif" font-size="12" lengthAdjust="spacing" textLength="58" x="64" y="159.2852">Raw Files:</text><text fill="#000000" font-family="sans-serif" font-size="12" lengthAdjust="spacing" textLength="36" x="76" y="174.3789">Github</text><path d="M164.5,201.4492 L164.5,235.1523 L144.5,239.1523 L164.5,243.1523 L164.5,276.8555 A0,0 0 0 0 164.5,276.8555 L371.5,276.8555 A0,0 0 0 0 371.5,276.8555 L371.5,211.4492 L361.5,201.4492 L164.5,201.4492 A0,0 0 0 0 164.5,201.4492 " fill="#FEFFDD" style="stroke:#181818;stroke-width:0.5;"/><path d="M361.5,201.4492 L361.5,211.4492 L371.5,211.4492 L361.5,201.4492 " fill="#FEFFDD" style="stroke:#181818;stroke-width:0.5;"/><text fill="#000000" font-family="sans-serif" font-size="13" lengthAdjust="spacing" textLength="186" x="170.5" y="219.9443">https://hairbyliz.herokuapp.com/</text><text fill="#000000" font-family="sans-serif" font-size="13" lengthAdjust="spacing" textLength="26" x="170.5" y="236.2959">java,</text><text fill="#000000" font-family="sans-serif" font-size="13" lengthAdjust="spacing" textLength="120" x="170.5" y="252.6475">content, ssl cert etc.</text><text fill="#000000" font-family="sans-serif" font-size="13" lengthAdjust="spacing" textLength="96" x="170.5" y="268.999">Access: VA, PP</text><rect fill="#F1F1F1" height="50.1875" rx="12.5" ry="12.5" style="stroke:#181818;stroke-width:0.5;" width="103" x="41.5" y="214.0586"/><text fill="#000000" font-family="sans-serif" font-size="12" lengthAdjust="spacing" textLength="69" x="51.5" y="236.5156">Deployment:</text><text fill="#000000" font-family="sans-serif" font-size="12" lengthAdjust="spacing" textLength="71" x="63.5" y="251.6094">Heroku Dyno</text><path d="M154.5,308.7734 L154.5,317.9492 L134.5,321.9492 L154.5,325.9492 L154.5,335.125 A0,0 0 0 0 154.5,335.125 L245.5,335.125 A0,0 0 0 0 245.5,335.125 L245.5,318.7734 L235.5,308.7734 L154.5,308.7734 A0,0 0 0 0 154.5,308.7734 " fill="#FEFFDD" style="stroke:#181818;stroke-width:0.5;"/><path d="M235.5,308.7734 L235.5,318.7734 L245.5,318.7734 L235.5,308.7734 " fill="#FEFFDD" style="stroke:#181818;stroke-width:0.5;"/><text fill="#000000" font-family="sans-serif" font-size="13" lengthAdjust="spacing" textLength="70" x="160.5" y="327.2686">Access: VA</text><rect fill="#F1F1F1" height="50.1875" rx="12.5" ry="12.5" style="stroke:#181818;stroke-width:0.5;" width="83" x="51.5" y="296.8555"/><text fill="#000000" font-family="sans-serif" font-size="12" lengthAdjust="spacing" textLength="55" x="61.5" y="319.3125">DNS Host</text><text fill="#000000" font-family="sans-serif" font-size="12" lengthAdjust="spacing" textLength="51" x="73.5" y="334.4063">GoDaddy</text><rect fill="none" height="262.8242" style="stroke:#000000;stroke-width:1.5;" width="456" x="11" y="369.043"/><path d="M91,369.043 L91,379.6523 L81,389.6523 L11,389.6523 " fill="none" style="stroke:#000000;stroke-width:1.5;"/><text fill="#000000" font-family="sans-serif" font-size="14" lengthAdjust="spacing" textLength="70" x="14" y="384.5762">Operations</text><path d="M185,405.2188 L185,430.7461 L165,434.7461 L185,438.7461 L185,464.2734 A0,0 0 0 0 185,464.2734 L457,464.2734 A0,0 0 0 0 457,464.2734 L457,415.2188 L447,405.2188 L185,405.2188 A0,0 0 0 0 185,405.2188 " fill="#FEFFDD" style="stroke:#181818;stroke-width:0.5;"/><path d="M447,405.2188 L447,415.2188 L457,415.2188 L447,405.2188 " fill="#FEFFDD" style="stroke:#181818;stroke-width:0.5;"/><text fill="#000000" font-family="sans-serif" font-size="13" lengthAdjust="spacing" textLength="149" x="191" y="423.7139">Change management etc.</text><text fill="#000000" font-family="sans-serif" font-size="13" lengthAdjust="spacing" textLength="251" x="191" y="440.0654">https://github.com/vamseeachanta/hairbyliz</text><text fill="#000000" font-family="sans-serif" font-size="13" lengthAdjust="spacing" textLength="96" x="191" y="456.417">Access: VA, PP</text><rect fill="#F1F1F1" height="50.1875" rx="12.5" ry="12.5" style="stroke:#181818;stroke-width:0.5;" width="144" x="21" y="409.6523"/><text fill="#000000" font-family="sans-serif" font-size="12" lengthAdjust="spacing" textLength="124" x="31" y="432.1094">Organic SEO Updates:</text><text fill="#000000" font-family="sans-serif" font-size="12" lengthAdjust="spacing" textLength="36" x="43" y="447.2031">Github</text><path d="M178,488.0156 L178,505.3672 L158,509.3672 L178,513.3672 L178,530.7188 A0,0 0 0 0 178,530.7188 L450,530.7188 A0,0 0 0 0 450,530.7188 L450,498.0156 L440,488.0156 L178,488.0156 A0,0 0 0 0 178,488.0156 " fill="#FEFFDD" style="stroke:#181818;stroke-width:0.5;"/><path d="M440,488.0156 L440,498.0156 L450,498.0156 L440,488.0156 " fill="#FEFFDD" style="stroke:#181818;stroke-width:0.5;"/><text fill="#000000" font-family="sans-serif" font-size="13" lengthAdjust="spacing" textLength="251" x="184" y="506.5107">https://analytics.google.com/analytics/web/</text><text fill="#000000" font-family="sans-serif" font-size="13" lengthAdjust="spacing" textLength="96" x="184" y="522.8623">Access: VA, PP</text><rect fill="#F1F1F1" height="50.1875" rx="12.5" ry="12.5" style="stroke:#181818;stroke-width:0.5;" width="130" x="28" y="484.2734"/><text fill="#000000" font-family="sans-serif" font-size="12" lengthAdjust="spacing" textLength="110" x="38" y="506.7305">Page view analytics:</text><text fill="#000000" font-family="sans-serif" font-size="12" lengthAdjust="spacing" textLength="91" x="50" y="521.8242">Google Analytics</text><path d="M161,544.4609 L161,578.1641 L141,582.1641 L161,586.1641 L161,619.8672 A0,0 0 0 0 161,619.8672 L353,619.8672 A0,0 0 0 0 353,619.8672 L353,554.4609 L343,544.4609 L161,544.4609 A0,0 0 0 0 161,544.4609 " fill="#FEFFDD" style="stroke:#181818;stroke-width:0.5;"/><path d="M343,544.4609 L343,554.4609 L353,554.4609 L343,544.4609 " fill="#FEFFDD" style="stroke:#181818;stroke-width:0.5;"/><text fill="#000000" font-family="sans-serif" font-size="13" lengthAdjust="spacing" textLength="137" x="167" y="562.9561">https://ads.google.com/</text><text fill="#000000" font-family="sans-serif" font-size="13" lengthAdjust="spacing" textLength="167" x="167" y="579.3076">1st time use of USD 500 has</text><text fill="#000000" font-family="sans-serif" font-size="13" lengthAdjust="spacing" textLength="143" x="167" y="595.6592">additional USD 500 offer.</text><text fill="#000000" font-family="sans-serif" font-size="13" lengthAdjust="spacing" textLength="82" x="167" y="612.0107">Access: None</text><rect fill="#F1F1F1" height="50.1875" rx="12.5" ry="12.5" style="stroke:#181818;stroke-width:0.5;" width="96" x="45" y="557.0703"/><text fill="#000000" font-family="sans-serif" font-size="12" lengthAdjust="spacing" textLength="56" x="55" y="579.5273">Paid SEO:</text><text fill="#000000" font-family="sans-serif" font-size="12" lengthAdjust="spacing" textLength="64" x="67" y="594.6211">Google Ads</text><ellipse cx="93" cy="662.8672" fill="none" rx="11" ry="11" style="stroke:#222222;stroke-width:1.0;"/><ellipse cx="93" cy="662.8672" fill="#222222" rx="6" ry="6" style="stroke:#111111;stroke-width:1.0;"/><line style="stroke:#181818;stroke-width:1.0;" x1="93" x2="93" y1="187.0156" y2="214.0586"/><polygon fill="#181818" points="89,204.0586,93,214.0586,97,204.0586,93,208.0586" style="stroke:#181818;stroke-width:1.0;"/><line style="stroke:#181818;stroke-width:1.0;" x1="93" x2="93" y1="264.2461" y2="296.8555"/><polygon fill="#181818" points="89,286.8555,93,296.8555,97,286.8555,93,290.8555" style="stroke:#181818;stroke-width:1.0;"/><line style="stroke:#181818;stroke-width:1.0;" x1="93" x2="93" y1="86.2188" y2="136.8281"/><polygon fill="#181818" points="89,126.8281,93,136.8281,97,126.8281,93,130.8281" style="stroke:#181818;stroke-width:1.0;"/><line style="stroke:#181818;stroke-width:1.0;" x1="93" x2="93" y1="459.8398" y2="484.2734"/><polygon fill="#181818" points="89,474.2734,93,484.2734,97,474.2734,93,478.2734" style="stroke:#181818;stroke-width:1.0;"/><line style="stroke:#181818;stroke-width:1.0;" x1="93" x2="93" y1="534.4609" y2="557.0703"/><polygon fill="#181818" points="89,547.0703,93,557.0703,97,547.0703,93,551.0703" style="stroke:#181818;stroke-width:1.0;"/><line style="stroke:#181818;stroke-width:1.0;" x1="93" x2="93" y1="347.043" y2="409.6523"/><polygon fill="#181818" points="89,399.6523,93,409.6523,97,399.6523,93,403.6523" style="stroke:#181818;stroke-width:1.0;"/><line style="stroke:#181818;stroke-width:1.0;" x1="93" x2="93" y1="607.2578" y2="651.8672"/><polygon fill="#181818" points="89,641.8672,93,651.8672,97,641.8672,93,645.8672" style="stroke:#181818;stroke-width:1.0;"/><text fill="#888888" font-family="sans-serif" font-size="10" lengthAdjust="spacing" textLength="96" x="189.5" y="683.248">2023.01.21 at 14:16</text><text fill="#888888" font-family="sans-serif" font-size="10" lengthAdjust="spacing" textLength="90" x="192.5" y="695.8262">website_tools.puml</text><!--SRC=[tLInRjim4Dtv5GS3GHB0a982MTJ9iTjuQ68ZJjebovayIwmbda3IDjIY_rvAQUmeiWkttNgJyExn-1xrIBVKfaIB1NZjSxfcgyZUyyge8Lj35YwlXDl7USYqN1fo3jxj9mmvPmkMLAUDSfdQvorgoWCNw5c8fWbVQEwqfu1oxfuCZ57Rw-gJ_YQ4ysYz410gZ0jqpGPwC_AhiWVVdnjr9VUuWOyw9vTiiRfkjCzMy_Sjp73Oo-eqyosuhc669YKeq61A1HaFv6NKeMNUbow9uxIP7aakuZKMZWXb6E0npeA3UPK71s-N3gGC1vZ0vq4VfjDMcungjBroDQ8ovweMqhOr9ilB5OmgmqTxUn6zrHPbpHGioyP1Py5NN6E_WqesFkZfWtCvIB87ZkWOdpkRTpCOisjhlk4HAbKTxM-tuszEzOVeX6bIaiNwqxKJDR4f6YrXzc42ZwL2_vzbQnfam5hJ1eAYlF9QllN7d8RRENZf_d7IjdEZj1dLcDc2yORcyJzxqAh-GGdiLQx-GhDggUtmBfqFJrf1i784l837sGYkBYuWGmSTSiXl4pBCjpnUBCWUlYvtREY0wLs0mwl8fH0B3hWL9tKqptfLgEZsDbBg5D33wNYS54NlN9mimgjeiA2pSr4F-xNg9m00]--></g></svg>