<svg xmlns="http://www.w3.org/2000/svg" width="920" height="1678" viewBox="0 0 920 1678">
<rect width="920" height="1678" fill="#ffffff"/>
<text x="460.0" y="17.0" font-family="sans-serif" font-size="16" font-weight="bold" fill="#333333" text-anchor="middle">DynaCard AI — 18 Failure Mode Diagnostic Gallery</text>
<rect x="15.0" y="35.0" width="890.0" height="36.0" stroke="none" stroke-width="1.0" fill="#2e7d32" rx="4.0"/>
<text x="460.0" y="58.4" font-family="sans-serif" font-size="14" font-weight="bold" fill="#ffffff" text-anchor="middle">Tier 1 — Core Conditions</text>
<g transform="translate(15.0,81.0)">
<rect x="0.0" y="0.0" width="290.0" height="210.0" stroke="#666666" stroke-width="1.0" fill="#fafafa" rx="4.0"/>
<text x="145.0" y="16.0" font-family="sans-serif" font-size="11" font-weight="bold" fill="#2e7d32" text-anchor="middle">Normal</text>
<rect x="35.0" y="30.0" width="247.0" height="160.0" stroke="#e0e0e0" stroke-width="1.0" fill="none"/>
<polygon points="46.2,172.4 46.5,151.1 47.1,116.0 48.3,77.8 49.9,46.9 51.9,45.7 54.4,49.0 57.3,42.2 60.7,42.6 64.4,45.4 68.5,41.2 73.0,43.8 77.8,49.0 83.0,44.2 88.5,49.4 94.3,42.2 100.3,45.9 106.6,46.4 113.1,48.3 119.7,40.9 126.6,46.3 133.5,47.3 140.6,47.0 147.7,43.6 154.9,44.2 162.1,44.0 169.3,44.0 176.4,37.3 183.5,47.2 190.4,47.7 197.3,48.8 203.9,43.2 210.4,41.2 216.7,46.1 222.7,48.9 228.5,48.9 234.0,43.1 239.2,42.7 244.0,43.5 248.5,48.3 252.6,44.7 256.3,45.2 259.7,44.8 262.6,42.2 265.1,44.8 267.1,43.0 268.7,45.4 269.9,44.5 270.5,43.2 270.8,51.4 270.8,46.9 270.5,80.1 269.9,113.4 268.7,144.6 267.1,170.3 265.1,179.5 262.6,172.3 259.7,182.7 256.3,177.4 252.6,175.5 248.5,173.8 244.0,173.3 239.2,173.0 234.0,177.5 228.5,177.9 222.7,172.8 216.7,176.9 210.4,181.1 203.9,180.6 197.3,179.7 190.4,174.2 183.5,175.6 176.4,173.4 169.3,177.8 162.1,175.5 154.9,173.7 147.7,177.3 140.6,174.3 133.5,178.7 126.6,177.5 119.7,177.6 113.1,180.8 106.6,174.2 100.3,178.0 94.3,176.1 88.5,174.2 83.0,174.4 77.8,173.5 73.0,176.5 68.5,177.8 64.4,176.4 60.7,182.7 57.3,181.8 54.4,181.3 51.9,180.0 49.9,174.6 48.3,179.7 47.1,177.6 46.5,171.0 46.2,177.5" stroke="#1a3a5c" stroke-width="1.5" fill="none"/>
</g>
<g transform="translate(315.0,81.0)">
<rect x="0.0" y="0.0" width="290.0" height="210.0" stroke="#666666" stroke-width="1.0" fill="#fafafa" rx="4.0"/>
<text x="145.0" y="16.0" font-family="sans-serif" font-size="11" font-weight="bold" fill="#2e7d32" text-anchor="middle">Gas Interference</text>
<rect x="35.0" y="30.0" width="247.0" height="160.0" stroke="#e0e0e0" stroke-width="1.0" fill="none"/>
<polygon points="46.2,161.0 46.5,137.8 47.1,106.0 48.3,72.3 49.9,43.2 51.9,42.5 54.4,44.5 57.3,40.3 60.7,40.6 64.4,42.3 68.5,39.7 73.0,41.3 77.8,44.5 83.0,41.6 88.5,44.8 94.3,40.3 100.3,42.6 106.6,42.9 113.1,44.1 119.7,39.5 126.6,42.8 133.5,43.5 140.6,43.3 147.7,41.2 154.9,41.6 162.1,41.5 169.3,41.4 176.4,37.3 183.5,43.4 190.4,43.7 197.3,44.4 203.9,41.0 210.4,39.7 216.7,42.7 222.7,44.5 228.5,44.4 234.0,40.9 239.2,40.7 244.0,41.1 248.5,44.1 252.6,41.9 256.3,42.2 259.7,41.9 262.6,40.3 265.1,41.9 267.1,40.8 268.7,42.3 269.9,41.7 270.5,40.9 270.8,46.0 270.8,43.2 270.5,75.0 269.9,106.7 268.7,137.2 267.1,164.3 265.1,171.1 262.6,167.7 259.7,175.2 256.3,173.0 252.6,172.8 248.5,172.7 244.0,173.3 239.2,174.0 234.0,177.5 228.5,178.6 222.7,176.1 216.7,179.2 210.4,182.4 203.9,182.6 197.3,182.5 190.4,179.4 183.5,180.6 176.4,179.5 169.3,182.3 162.1,181.0 154.9,179.9 147.7,182.1 140.6,180.1 133.5,182.5 126.6,181.5 119.7,181.2 113.1,182.7 106.6,178.2 100.3,179.9 94.3,178.1 88.5,176.3 83.0,175.6 77.8,174.3 73.0,175.3 68.5,175.1 64.4,173.3 60.7,176.2 57.3,174.6 54.4,173.3 51.9,171.4 49.9,166.9 48.3,168.9 47.1,166.5 46.5,161.3 46.2,164.1" stroke="#1a3a5c" stroke-width="1.5" fill="none"/>
</g>
<g transform="translate(615.0,81.0)">
<rect x="0.0" y="0.0" width="290.0" height="210.0" stroke="#666666" stroke-width="1.0" fill="#fafafa" rx="4.0"/>
<text x="145.0" y="16.0" font-family="sans-serif" font-size="11" font-weight="bold" fill="#2e7d32" text-anchor="middle">Fluid Pound</text>
<rect x="35.0" y="30.0" width="247.0" height="160.0" stroke="#e0e0e0" stroke-width="1.0" fill="none"/>
<polygon points="46.2,127.1 46.5,110.2 47.1,87.2 48.3,62.7 49.9,41.6 51.9,41.1 54.4,42.5 57.3,39.5 60.7,39.7 64.4,40.9 68.5,39.1 73.0,40.2 77.8,42.5 83.0,40.4 88.5,42.7 94.3,39.5 100.3,41.1 106.6,41.4 113.1,42.2 119.7,38.9 126.6,41.3 133.5,41.8 140.6,41.6 147.7,40.1 154.9,40.4 162.1,40.3 169.3,40.3 176.4,37.3 183.5,41.7 190.4,41.9 197.3,42.5 203.9,39.9 210.4,39.0 216.7,41.2 222.7,42.5 228.5,42.5 234.0,39.9 239.2,39.7 244.0,40.1 248.5,42.2 252.6,40.6 256.3,40.8 259.7,40.6 262.6,39.5 265.1,40.6 267.1,39.8 268.7,40.9 269.9,40.5 270.5,39.9 270.8,43.6 270.8,41.6 270.5,63.8 269.9,86.0 268.7,107.3 267.1,126.1 265.1,130.3 262.6,127.0 259.7,131.7 256.3,129.3 252.6,128.5 248.5,127.7 244.0,127.5 239.2,127.3 234.0,129.4 228.5,129.5 222.7,182.7 216.7,182.7 210.4,180.9 203.9,179.0 197.3,177.2 190.4,175.3 183.5,173.4 176.4,171.6 169.3,169.7 162.1,167.9 154.9,166.0 147.7,164.1 140.6,162.3 133.5,160.4 126.6,158.6 119.7,156.7 113.1,154.8 106.6,153.0 100.3,151.1 94.3,149.3 88.5,147.4 83.0,145.6 77.8,143.7 73.0,141.8 68.5,140.0 64.4,138.1 60.7,136.3 57.3,134.4 54.4,132.5 51.9,130.7 49.9,128.8 48.3,127.0 47.1,125.1 46.5,123.2 46.2,121.4" stroke="#1a3a5c" stroke-width="1.5" fill="none"/>
</g>
<g transform="translate(15.0,301.0)">
<rect x="0.0" y="0.0" width="290.0" height="210.0" stroke="#666666" stroke-width="1.0" fill="#fafafa" rx="4.0"/>
<text x="145.0" y="16.0" font-family="sans-serif" font-size="11" font-weight="bold" fill="#2e7d32" text-anchor="middle">Pump Tagging</text>
<rect x="35.0" y="30.0" width="247.0" height="160.0" stroke="#e0e0e0" stroke-width="1.0" fill="none"/>
<polygon points="46.2,179.6 46.5,168.3 47.1,152.9 48.3,136.5 49.9,122.3 51.9,121.9 54.4,122.9 57.3,120.9 60.7,121.0 64.4,121.8 68.5,120.6 73.0,121.4 77.8,122.9 83.0,121.5 88.5,123.0 94.3,120.9 100.3,122.0 106.6,122.1 113.1,122.7 119.7,120.5 126.6,122.1 133.5,122.4 140.6,122.3 147.7,121.3 154.9,121.5 162.1,121.4 169.3,121.4 176.4,119.4 183.5,122.4 190.4,122.5 197.3,122.9 203.9,121.2 210.4,120.6 216.7,122.1 222.7,122.9 228.5,122.9 234.0,121.2 239.2,121.0 244.0,121.3 248.5,122.7 252.6,121.6 256.3,121.8 259.7,121.7 262.6,120.9 265.1,121.7 267.1,103.8 268.7,87.3 269.9,69.8 270.5,52.1 270.8,37.3 270.8,53.2 270.5,85.4 269.9,117.5 268.7,149.1 267.1,179.0 265.1,181.8 262.6,179.6 259.7,182.7 256.3,181.1 252.6,180.6 248.5,180.1 244.0,179.9 239.2,179.8 234.0,181.2 228.5,181.3 222.7,179.7 216.7,181.0 210.4,182.2 203.9,182.1 197.3,181.8 190.4,180.2 183.5,180.6 176.4,179.9 169.3,181.2 162.1,180.6 154.9,180.0 147.7,181.1 140.6,180.2 133.5,181.5 126.6,181.2 119.7,181.2 113.1,182.1 106.6,180.2 100.3,181.3 94.3,180.7 88.5,180.2 83.0,180.2 77.8,180.0 73.0,180.9 68.5,181.2 64.4,180.8 60.7,182.7 57.3,182.4 54.4,182.3 51.9,181.9 49.9,180.3 48.3,181.8 47.1,181.2 46.5,179.2 46.2,181.2" stroke="#1a3a5c" stroke-width="1.5" fill="none"/>
</g>
<g transform="translate(315.0,301.0)">
<rect x="0.0" y="0.0" width="290.0" height="210.0" stroke="#666666" stroke-width="1.0" fill="#fafafa" rx="4.0"/>
<text x="145.0" y="16.0" font-family="sans-serif" font-size="11" font-weight="bold" fill="#2e7d32" text-anchor="middle">Tubing Movement</text>
<rect x="35.0" y="30.0" width="247.0" height="160.0" stroke="#e0e0e0" stroke-width="1.0" fill="none"/>
<polygon points="46.2,172.9 46.5,151.5 47.1,116.3 48.3,78.0 49.9,47.1 51.9,45.9 54.4,49.2 57.3,42.4 60.7,42.8 64.4,45.5 68.5,41.4 73.0,44.0 77.8,49.1 83.0,44.3 88.5,49.5 94.3,42.3 100.3,45.9 106.6,46.5 113.1,48.4 119.7,40.9 126.6,46.3 133.5,47.4 140.6,47.1 147.7,43.6 154.9,44.3 162.1,44.1 169.3,44.0 176.4,37.3 183.5,47.3 190.4,47.7 197.3,48.8 203.9,43.2 210.4,41.2 216.7,46.1 222.7,48.9 228.5,48.8 234.0,43.1 239.2,42.7 244.0,43.5 248.5,48.2 252.6,44.7 256.3,45.1 259.7,44.7 262.6,42.1 265.1,44.7 267.1,42.9 268.7,45.3 269.9,44.4 270.5,43.0 270.8,51.2 270.8,46.8 270.5,80.0 269.9,113.3 268.7,144.6 267.1,170.3 265.1,179.5 262.6,172.3 259.7,182.7 256.3,177.4 252.6,175.5 248.5,173.8 244.0,173.3 239.2,173.0 234.0,177.5 228.5,177.9 222.7,172.7 216.7,176.8 210.4,181.1 203.9,180.5 197.3,179.6 190.4,174.1 183.5,175.5 176.4,173.3 169.3,177.7 162.1,175.4 154.9,173.5 147.7,177.2 140.6,174.2 133.5,178.6 126.6,177.4 119.7,177.5 113.1,180.6 106.6,174.0 100.3,177.8 94.3,175.9 88.5,174.0 83.0,174.2 77.8,173.3 73.0,176.3 68.5,177.6 64.4,176.2 60.7,182.5 57.3,181.5 54.4,181.1 51.9,179.8 49.9,174.3 48.3,179.4 47.1,177.3 46.5,170.7 46.2,177.2" stroke="#1a3a5c" stroke-width="1.5" fill="none"/>
</g>
<g transform="translate(615.0,301.0)">
<rect x="0.0" y="0.0" width="290.0" height="210.0" stroke="#666666" stroke-width="1.0" fill="#fafafa" rx="4.0"/>
<text x="145.0" y="16.0" font-family="sans-serif" font-size="11" font-weight="bold" fill="#2e7d32" text-anchor="middle">Traveling Valve Leak</text>
<rect x="35.0" y="30.0" width="247.0" height="160.0" stroke="#e0e0e0" stroke-width="1.0" fill="none"/>
<polygon points="46.2,175.3 46.5,149.3 47.1,113.2 48.3,75.0 49.9,42.1 51.9,42.4 54.4,46.0 57.3,42.3 60.7,43.8 64.4,47.0 68.5,45.2 73.0,48.2 77.8,53.2 83.0,50.9 88.5,55.9 94.3,51.9 100.3,55.7 106.6,57.3 113.1,59.9 119.7,55.7 126.6,60.8 133.5,62.8 140.6,63.7 147.7,62.4 154.9,64.1 162.1,65.2 169.3,66.3 176.4,62.7 183.5,71.1 190.4,72.6 197.3,74.7 203.9,71.8 210.4,71.5 216.7,76.3 222.7,79.5 228.5,80.7 234.0,77.7 239.2,78.6 244.0,80.4 248.5,85.0 252.6,83.7 256.3,85.2 259.7,86.1 262.6,85.5 265.1,88.5 267.1,88.4 268.7,91.3 269.9,91.9 270.5,92.1 270.8,99.3 270.8,37.3 270.5,73.1 269.9,109.0 268.7,143.3 267.1,173.7 265.1,180.4 262.6,175.2 259.7,182.7 256.3,178.9 252.6,177.5 248.5,176.3 244.0,175.9 239.2,175.7 234.0,178.9 228.5,179.3 222.7,175.5 216.7,178.5 210.4,181.6 203.9,181.2 197.3,180.6 190.4,176.5 183.5,177.5 176.4,176.0 169.3,179.2 162.1,177.5 154.9,176.2 147.7,178.8 140.6,176.7 133.5,179.8 126.6,179.0 119.7,179.0 113.1,181.3 106.6,176.6 100.3,179.3 94.3,177.9 88.5,176.6 83.0,176.7 77.8,176.1 73.0,178.2 68.5,179.1 64.4,178.2 60.7,182.7 57.3,182.0 54.4,181.7 51.9,180.8 49.9,176.8 48.3,180.5 47.1,179.0 46.5,174.3 46.2,179.0" stroke="#1a3a5c" stroke-width="1.5" fill="none"/>
</g>
<g transform="translate(15.0,521.0)">
<rect x="0.0" y="0.0" width="290.0" height="210.0" stroke="#666666" stroke-width="1.0" fill="#fafafa" rx="4.0"/>
<text x="145.0" y="16.0" font-family="sans-serif" font-size="11" font-weight="bold" fill="#2e7d32" text-anchor="middle">Standing Valve Leak</text>
<rect x="35.0" y="30.0" width="247.0" height="160.0" stroke="#e0e0e0" stroke-width="1.0" fill="none"/>
<polygon points="46.2,182.7 46.5,155.4 47.1,118.1 48.3,78.5 49.9,44.3 51.9,43.4 54.4,45.8 57.3,40.9 60.7,41.1 64.4,43.2 68.5,40.2 73.0,42.0 77.8,45.8 83.0,42.3 88.5,46.1 94.3,40.9 100.3,43.5 106.6,43.9 113.1,45.3 119.7,39.9 126.6,43.8 133.5,44.6 140.6,44.4 147.7,41.8 154.9,42.3 162.1,42.2 169.3,42.1 176.4,37.3 183.5,44.5 190.4,44.8 197.3,45.7 203.9,41.6 210.4,40.1 216.7,43.7 222.7,45.7 228.5,45.7 234.0,41.5 239.2,41.2 244.0,41.8 248.5,45.2 252.6,42.7 256.3,43.0 259.7,42.7 262.6,40.9 265.1,42.7 267.1,41.4 268.7,43.2 269.9,42.5 270.5,41.6 270.8,47.5 270.8,44.3 270.5,79.0 269.9,113.8 268.7,147.1 267.1,176.3 265.1,181.8 262.6,175.4 259.7,181.8 256.3,176.7 252.6,174.1 248.5,171.7 244.0,170.1 239.2,168.7 234.0,170.7 228.5,169.9 222.7,164.9 216.7,166.7 210.4,168.6 203.9,167.0 197.3,165.2 190.4,159.9 183.5,159.7 176.4,157.0 169.3,158.9 162.1,156.1 154.9,153.5 147.7,155.0 140.6,151.6 133.5,153.6 126.6,151.5 119.7,150.4 113.1,151.5 106.6,145.5 100.3,147.0 94.3,144.5 88.5,141.9 83.0,140.8 77.8,139.0 73.0,140.0 68.5,139.7 64.4,137.5 60.7,140.9 57.3,139.0 54.4,137.4 51.9,135.3 49.9,130.1 48.3,132.6 47.1,129.9 46.5,124.0 46.2,127.5" stroke="#1a3a5c" stroke-width="1.5" fill="none"/>
</g>
<rect x="15.0" y="741.0" width="890.0" height="36.0" stroke="none" stroke-width="1.0" fill="#f57f17" rx="4.0"/>
<text x="460.0" y="764.4" font-family="sans-serif" font-size="14" font-weight="bold" fill="#ffffff" text-anchor="middle">Tier 2 — Common Field Failures</text>
<g transform="translate(15.0,787.0)">
<rect x="0.0" y="0.0" width="290.0" height="210.0" stroke="#666666" stroke-width="1.0" fill="#fafafa" rx="4.0"/>
<text x="145.0" y="16.0" font-family="sans-serif" font-size="11" font-weight="bold" fill="#f57f17" text-anchor="middle">Rod Parting</text>
<rect x="35.0" y="30.0" width="247.0" height="160.0" stroke="#e0e0e0" stroke-width="1.0" fill="none"/>
<polygon points="46.2,102.4 46.5,120.3 47.1,106.4 48.3,85.7 49.8,82.3 51.8,72.7 54.3,74.0 57.1,52.8 60.4,49.0 64.1,51.5 68.1,39.0 72.5,43.1 77.3,54.1 82.3,43.2 87.7,56.3 93.4,41.9 99.3,53.5 105.5,58.8 111.9,68.2 118.4,56.8 125.2,75.6 132.1,85.1 139.0,92.0 146.1,91.8 153.2,101.4 160.3,109.2 167.4,117.2 174.5,109.7 181.5,140.4 188.5,148.7 195.3,158.1 201.9,151.3 208.4,152.1 214.7,167.8 220.7,178.0 226.5,180.5 232.1,168.9 237.3,168.7 242.2,170.1 246.8,179.6 251.0,169.1 254.9,166.7 258.3,161.5 261.4,150.4 264.1,150.4 266.3,139.6 268.1,138.0 269.4,128.4 270.3,117.4 270.8,128.1 270.8,109.7 270.3,102.9 269.4,96.5 268.1,85.6 266.3,62.5 264.1,77.2 261.4,54.7 258.3,73.5 254.9,57.0 251.0,49.1 246.8,42.8 242.2,40.3 237.3,39.1 232.1,50.1 226.5,52.8 220.7,43.6 214.7,56.7 208.4,71.0 201.9,75.1 195.3,79.3 188.5,73.2 181.5,83.7 174.5,86.4 167.4,104.5 160.3,107.4 153.2,111.4 146.1,127.9 139.0,128.8 132.1,146.4 125.2,150.8 118.4,157.4 111.9,170.5 105.5,160.2 99.3,173.0 93.4,171.8 87.7,169.7 82.3,171.2 77.3,169.4 72.5,175.3 68.1,176.3 64.1,170.3 60.4,181.0 57.1,174.1 54.3,167.4 51.8,158.2 49.8,138.7 48.3,143.0 47.1,130.5 46.5,107.3 46.2,114.1" stroke="#1a3a5c" stroke-width="1.5" fill="none"/>
</g>
<g transform="translate(315.0,787.0)">
<rect x="0.0" y="0.0" width="290.0" height="210.0" stroke="#666666" stroke-width="1.0" fill="#fafafa" rx="4.0"/>
<text x="145.0" y="16.0" font-family="sans-serif" font-size="11" font-weight="bold" fill="#f57f17" text-anchor="middle">Stuck Pump</text>
<rect x="35.0" y="30.0" width="247.0" height="160.0" stroke="#e0e0e0" stroke-width="1.0" fill="none"/>
<polygon points="59.2,109.0 59.4,125.6 60.0,117.0 61.0,102.8 62.4,102.0 64.2,96.0 66.4,98.1 68.9,82.0 71.8,79.2 75.0,80.8 78.6,69.9 82.5,71.4 86.7,77.8 91.2,66.2 95.9,73.1 100.9,57.5 106.2,61.9 111.6,60.8 117.3,62.5 123.1,47.4 129.0,55.9 135.1,56.8 141.3,55.4 147.5,48.5 153.8,49.4 160.1,49.0 166.4,49.0 172.7,37.3 178.9,56.2 185.0,57.9 191.0,61.2 196.9,52.5 202.6,50.5 208.2,61.3 213.5,68.6 218.7,70.8 223.5,62.9 228.2,64.9 232.5,69.3 236.6,81.0 240.3,77.9 243.7,82.1 246.8,84.9 249.5,83.9 251.8,92.3 253.8,92.9 255.4,101.2 256.6,103.6 257.4,105.2 257.8,124.1 257.8,120.1 257.4,125.2 256.6,130.4 255.4,131.8 253.8,123.1 251.8,143.8 249.5,134.4 246.8,157.0 243.7,150.9 240.3,150.8 236.6,151.0 232.5,153.2 228.2,155.6 223.5,166.5 218.7,169.9 213.5,162.8 208.2,172.4 202.6,182.1 196.9,182.7 191.0,182.6 185.0,173.7 178.9,177.2 172.7,174.0 166.4,182.4 160.1,178.5 153.8,175.1 147.5,181.4 141.3,175.4 135.1,182.5 129.0,179.3 123.1,178.1 117.3,182.4 111.6,168.5 106.2,173.4 100.9,167.7 95.9,161.9 91.2,159.5 86.7,155.1 82.5,157.5 78.6,156.6 75.0,150.8 71.8,158.8 68.9,153.5 66.4,148.9 64.2,142.8 62.4,128.9 61.0,134.3 60.0,126.5 59.4,110.5 59.2,118.3" stroke="#1a3a5c" stroke-width="1.5" fill="none"/>
</g>
<g transform="translate(615.0,787.0)">
<rect x="0.0" y="0.0" width="290.0" height="210.0" stroke="#666666" stroke-width="1.0" fill="#fafafa" rx="4.0"/>
<text x="145.0" y="16.0" font-family="sans-serif" font-size="11" font-weight="bold" fill="#f57f17" text-anchor="middle">Worn Barrel</text>
<rect x="35.0" y="30.0" width="247.0" height="160.0" stroke="#e0e0e0" stroke-width="1.0" fill="none"/>
<polygon points="46.2,175.4 46.5,148.7 47.1,112.2 48.3,73.5 49.9,40.0 51.9,39.4 54.4,41.9 57.3,37.3 60.7,37.8 64.4,40.1 68.5,37.5 73.0,39.6 77.8,43.7 83.0,40.7 88.5,44.9 94.3,40.3 100.3,43.4 106.6,44.3 113.1,46.3 119.7,41.6 126.6,46.1 133.5,47.6 140.6,48.1 147.7,46.4 154.9,47.7 162.1,48.4 169.3,49.2 176.4,45.3 183.5,53.3 190.4,54.6 197.3,56.5 203.9,53.5 210.4,53.2 216.7,57.7 222.7,60.9 228.5,62.0 234.0,59.1 239.2,60.1 244.0,61.9 248.5,66.6 252.6,65.4 256.3,67.1 259.7,68.3 262.6,67.9 265.1,71.2 267.1,71.4 268.7,74.7 269.9,75.6 270.5,76.3 270.8,83.8 270.8,39.8 270.5,75.0 269.9,110.2 268.7,144.0 267.1,173.9 265.1,180.4 262.6,175.3 259.7,182.7 256.3,179.0 252.6,177.6 248.5,176.4 244.0,176.1 239.2,175.8 234.0,179.0 228.5,179.3 222.7,175.6 216.7,178.6 210.4,181.6 203.9,181.2 197.3,180.6 190.4,176.6 183.5,177.6 176.4,176.1 169.3,179.2 162.1,177.6 154.9,176.3 147.7,178.9 140.6,176.8 133.5,179.9 126.6,179.0 119.7,179.1 113.1,181.4 106.6,176.7 100.3,179.3 94.3,178.0 88.5,176.7 83.0,176.8 77.8,176.2 73.0,178.3 68.5,179.2 64.4,178.3 60.7,182.7 57.3,182.1 54.4,181.7 51.9,180.8 49.9,176.9 48.3,180.6 47.1,179.1 46.5,174.4 46.2,179.0" stroke="#1a3a5c" stroke-width="1.5" fill="none"/>
</g>
<g transform="translate(15.0,1007.0)">
<rect x="0.0" y="0.0" width="290.0" height="210.0" stroke="#666666" stroke-width="1.0" fill="#fafafa" rx="4.0"/>
<text x="145.0" y="16.0" font-family="sans-serif" font-size="11" font-weight="bold" fill="#f57f17" text-anchor="middle">Gas Lock</text>
<rect x="35.0" y="30.0" width="247.0" height="160.0" stroke="#e0e0e0" stroke-width="1.0" fill="none"/>
<polygon points="46.2,109.4 46.5,116.0 47.1,109.3 48.3,99.6 49.8,97.1 51.8,91.8 54.3,90.9 57.1,80.4 60.4,77.0 64.1,76.0 68.1,68.4 72.5,67.5 77.3,69.3 82.3,61.6 87.7,63.8 93.4,54.2 99.3,55.4 105.5,53.7 111.9,53.7 118.4,44.8 125.2,48.6 132.1,48.5 139.0,47.3 146.1,43.4 153.2,43.6 160.3,43.4 167.4,43.5 174.5,37.6 181.5,47.9 188.5,49.3 195.3,51.8 201.9,47.9 208.4,47.8 214.7,54.5 220.7,59.5 226.5,62.0 232.1,59.1 237.3,61.7 242.2,65.6 246.8,73.4 251.0,73.5 254.9,77.6 258.3,81.0 261.4,82.4 264.1,88.9 266.3,91.3 268.1,97.8 269.4,101.2 270.3,104.1 270.8,116.3 270.8,116.4 270.3,121.2 269.4,126.2 268.1,129.0 266.3,126.5 264.1,139.5 261.4,136.6 258.3,150.5 254.9,149.2 251.0,151.0 246.8,152.8 242.2,155.7 237.3,158.5 232.1,165.7 226.5,168.9 220.7,166.4 214.7,172.7 208.4,178.8 201.9,180.0 195.3,180.8 188.5,176.7 181.5,179.1 174.5,177.7 167.4,182.4 160.3,180.4 153.2,178.6 146.1,181.8 139.0,178.3 132.1,181.6 125.2,179.4 118.4,178.0 111.9,179.4 105.5,171.1 99.3,172.6 93.4,168.4 87.7,164.0 82.3,161.3 77.3,157.4 72.5,157.1 68.1,154.9 64.1,150.1 60.4,152.5 57.1,147.7 54.3,143.3 51.8,138.0 49.8,128.6 48.3,129.3 47.1,123.0 46.5,112.4 46.2,114.3" stroke="#1a3a5c" stroke-width="1.5" fill="none"/>
</g>
<g transform="translate(315.0,1007.0)">
<rect x="0.0" y="0.0" width="290.0" height="210.0" stroke="#666666" stroke-width="1.0" fill="#fafafa" rx="4.0"/>
<text x="145.0" y="16.0" font-family="sans-serif" font-size="11" font-weight="bold" fill="#f57f17" text-anchor="middle">Delayed TV Closure</text>
<rect x="35.0" y="30.0" width="247.0" height="160.0" stroke="#e0e0e0" stroke-width="1.0" fill="none"/>
<polygon points="46.2,178.2 46.5,163.2 47.1,151.6 48.3,142.5 49.9,135.5 51.9,130.0 54.4,125.7 57.3,122.4 60.7,119.8 64.4,117.7 68.5,116.2 73.0,114.9 77.8,114.0 83.0,42.1 88.5,45.7 94.3,40.7 100.3,43.2 106.6,43.6 113.1,44.9 119.7,39.8 126.6,43.5 133.5,44.2 140.6,44.0 147.7,41.6 154.9,42.1 162.1,41.9 169.3,41.9 176.4,37.3 183.5,44.2 190.4,44.4 197.3,45.3 203.9,41.4 210.4,40.0 216.7,43.4 222.7,45.3 228.5,45.3 234.0,41.3 239.2,41.1 244.0,41.6 248.5,44.9 252.6,42.4 256.3,42.7 259.7,42.5 262.6,40.7 265.1,42.5 267.1,41.2 268.7,42.9 269.9,42.3 270.5,41.4 270.8,47.0 270.8,43.9 270.5,78.1 269.9,112.3 268.7,145.1 267.1,174.1 265.1,180.5 262.6,175.6 259.7,182.7 256.3,179.1 252.6,177.7 248.5,176.6 244.0,176.2 239.2,176.0 234.0,179.1 228.5,179.4 222.7,175.8 216.7,178.7 210.4,181.6 203.9,181.2 197.3,180.7 190.4,176.8 183.5,177.8 176.4,176.3 169.3,179.3 162.1,177.7 154.9,176.5 147.7,179.0 140.6,176.9 133.5,180.0 126.6,179.1 119.7,179.2 113.1,181.4 106.6,176.9 100.3,179.4 94.3,178.1 88.5,176.9 83.0,177.0 77.8,176.4 73.0,178.4 68.5,179.3 64.4,178.4 60.7,182.7 57.3,182.1 54.4,181.7 51.9,180.9 49.9,177.1 48.3,180.6 47.1,179.2 46.5,174.7 46.2,179.1" stroke="#1a3a5c" stroke-width="1.5" fill="none"/>
</g>
<rect x="15.0" y="1227.0" width="890.0" height="36.0" stroke="none" stroke-width="1.0" fill="#c62828" rx="4.0"/>
<text x="460.0" y="1250.4" font-family="sans-serif" font-size="14" font-weight="bold" fill="#ffffff" text-anchor="middle">Tier 3 — Mechanical &amp; Environmental</text>
<g transform="translate(15.0,1273.0)">
<rect x="0.0" y="0.0" width="290.0" height="210.0" stroke="#666666" stroke-width="1.0" fill="#fafafa" rx="4.0"/>
<text x="145.0" y="16.0" font-family="sans-serif" font-size="11" font-weight="bold" fill="#c62828" text-anchor="middle">Excessive Friction</text>
<rect x="35.0" y="30.0" width="247.0" height="160.0" stroke="#e0e0e0" stroke-width="1.0" fill="none"/>
<polygon points="46.2,127.1 46.5,110.3 47.1,87.2 48.3,62.7 49.9,41.6 51.9,41.1 54.4,42.5 57.3,39.5 60.7,39.7 64.4,40.9 68.5,39.1 73.0,40.2 77.8,42.5 83.0,40.4 88.5,42.7 94.3,39.5 100.3,41.1 106.6,41.4 113.1,42.2 119.7,38.9 126.6,41.3 133.5,41.8 140.6,41.6 147.7,40.1 154.9,40.4 162.1,40.3 169.3,40.3 176.4,37.3 183.5,41.7 190.4,41.9 197.3,42.5 203.9,39.9 210.4,39.0 216.7,41.2 222.7,42.5 228.5,42.5 234.0,39.9 239.2,39.7 244.0,40.1 248.5,42.2 252.6,40.6 256.3,40.8 259.7,40.6 262.6,39.5 265.1,40.6 267.1,39.8 268.7,40.9 269.9,40.5 270.5,39.9 270.8,43.6 270.8,92.6 270.5,114.8 269.9,137.0 268.7,158.3 267.1,177.1 265.1,181.3 262.6,178.1 259.7,182.7 256.3,180.4 252.6,179.5 248.5,178.7 244.0,178.5 239.2,178.4 234.0,180.4 228.5,180.6 222.7,178.3 216.7,180.1 210.4,182.0 203.9,181.8 197.3,181.4 190.4,178.9 183.5,179.5 176.4,178.6 169.3,180.5 162.1,179.5 154.9,178.7 147.7,180.3 140.6,179.0 133.5,180.9 126.6,180.4 119.7,180.4 113.1,181.9 106.6,178.9 100.3,180.6 94.3,179.7 88.5,178.9 83.0,179.0 77.8,178.6 73.0,179.9 68.5,180.5 64.4,179.9 60.7,182.7 57.3,182.3 54.4,182.1 51.9,181.5 49.9,179.1 48.3,181.4 47.1,180.4 46.5,177.5 46.2,180.4" stroke="#1a3a5c" stroke-width="1.5" fill="none"/>
</g>
<g transform="translate(315.0,1273.0)">
<rect x="0.0" y="0.0" width="290.0" height="210.0" stroke="#666666" stroke-width="1.0" fill="#fafafa" rx="4.0"/>
<text x="145.0" y="16.0" font-family="sans-serif" font-size="11" font-weight="bold" fill="#c62828" text-anchor="middle">Plunger Undertravel</text>
<rect x="35.0" y="30.0" width="247.0" height="160.0" stroke="#e0e0e0" stroke-width="1.0" fill="none"/>
<polygon points="46.2,175.6 46.5,149.7 47.1,114.1 48.3,76.5 49.9,43.9 51.9,43.1 54.4,45.4 57.3,40.7 60.7,41.0 64.4,42.9 68.5,40.0 73.0,41.8 77.8,45.4 83.0,42.1 88.5,45.7 94.3,40.7 100.3,43.2 106.6,43.6 113.1,44.9 119.7,39.8 126.6,43.5 133.5,44.2 140.6,44.0 147.7,41.6 154.9,42.1 162.1,41.9 169.3,41.9 176.4,37.3 183.5,44.2 190.4,44.4 197.3,45.3 203.9,41.4 210.4,40.0 216.7,43.4 222.7,45.3 228.5,45.3 234.0,41.3 239.2,41.1 244.0,41.6 248.5,44.9 252.6,42.4 256.3,42.7 259.7,42.5 262.6,40.7 265.1,42.5 267.1,41.2 268.7,42.9 269.9,42.3 270.5,41.4 270.8,47.0 270.8,43.9 270.5,78.1 269.9,112.3 268.7,145.1 267.1,174.1 265.1,180.5 262.6,175.6 259.7,182.7 256.3,179.1 252.6,177.7 248.5,176.6 244.0,176.2 239.2,176.0 234.0,179.1 228.5,179.4 222.7,175.8 216.7,178.7 210.4,181.6 203.9,181.2 197.3,180.7 190.4,176.8 183.5,177.8 176.4,176.3 169.3,179.3 162.1,177.7 154.9,176.5 147.7,179.0 140.6,176.9 133.5,180.0 126.6,179.1 119.7,179.2 113.1,181.4 106.6,176.9 100.3,179.4 94.3,178.1 88.5,176.9 83.0,177.0 77.8,176.4 73.0,178.4 68.5,179.3 64.4,178.4 60.7,182.7 57.3,182.1 54.4,181.7 51.9,180.9 49.9,177.1 48.3,180.6 47.1,179.2 46.5,174.7 46.2,179.1" stroke="#1a3a5c" stroke-width="1.5" fill="none"/>
</g>
<g transform="translate(615.0,1273.0)">
<rect x="0.0" y="0.0" width="290.0" height="210.0" stroke="#666666" stroke-width="1.0" fill="#fafafa" rx="4.0"/>
<text x="145.0" y="16.0" font-family="sans-serif" font-size="11" font-weight="bold" fill="#c62828" text-anchor="middle">Paraffin Restriction</text>
<rect x="35.0" y="30.0" width="247.0" height="160.0" stroke="#e0e0e0" stroke-width="1.0" fill="none"/>
<polygon points="46.2,140.7 46.5,121.3 47.1,94.7 48.3,66.6 49.9,42.2 51.9,41.6 54.4,43.3 57.3,39.8 60.7,40.0 64.4,41.5 68.5,39.3 73.0,40.7 77.8,43.3 83.0,40.9 88.5,43.5 94.3,39.8 100.3,41.7 106.6,42.0 113.1,43.0 119.7,39.1 126.6,41.9 133.5,42.5 140.6,42.3 147.7,40.5 154.9,40.9 162.1,40.8 169.3,40.7 176.4,37.3 183.5,42.4 190.4,42.6 197.3,43.2 203.9,40.4 210.4,39.3 216.7,41.8 222.7,43.3 228.5,43.3 234.0,40.3 239.2,40.1 244.0,40.5 248.5,42.9 252.6,41.1 256.3,41.4 259.7,41.2 262.6,52.0 265.1,65.4 267.1,76.7 268.7,65.7 269.9,53.2 270.5,40.3 270.8,44.5 270.8,59.7 270.5,85.3 269.9,110.9 268.7,135.4 267.1,157.1 265.1,161.8 262.6,158.1 259.7,163.5 256.3,160.8 252.6,159.8 248.5,158.9 244.0,158.7 239.2,161.8 234.0,167.5 228.5,171.1 222.7,171.7 216.7,177.2 210.4,182.7 203.9,179.1 197.3,175.3 190.4,169.1 183.5,166.5 176.4,162.0 169.3,161.0 162.1,159.8 154.9,158.8 147.7,160.7 140.6,159.2 133.5,161.4 126.6,160.8 119.7,160.9 113.1,162.5 106.6,159.1 100.3,161.0 94.3,160.1 88.5,159.1 83.0,159.2 77.8,158.8 73.0,160.3 68.5,161.0 64.4,160.3 60.7,163.5 57.3,163.0 54.4,162.8 51.9,162.1 49.9,159.3 48.3,161.9 47.1,160.9 46.5,157.5 46.2,160.8" stroke="#1a3a5c" stroke-width="1.5" fill="none"/>
</g>
<g transform="translate(15.0,1493.0)">
<rect x="0.0" y="0.0" width="290.0" height="210.0" stroke="#666666" stroke-width="1.0" fill="#fafafa" rx="4.0"/>
<text x="145.0" y="16.0" font-family="sans-serif" font-size="11" font-weight="bold" fill="#c62828" text-anchor="middle">Bent Barrel</text>
<rect x="35.0" y="30.0" width="247.0" height="160.0" stroke="#e0e0e0" stroke-width="1.0" fill="none"/>
<polygon points="46.2,151.3 46.5,129.1 47.1,98.8 48.3,66.8 49.9,39.1 51.9,38.7 54.4,40.9 57.3,37.3 60.7,37.9 64.4,40.0 68.5,38.0 73.0,40.1 77.8,43.7 83.0,41.5 88.5,45.2 94.3,41.7 100.3,44.5 106.6,45.6 113.1,47.5 119.7,43.9 126.6,47.9 133.5,49.4 140.6,50.0 147.7,48.8 154.9,50.1 162.1,50.8 169.3,51.6 176.4,48.5 183.5,55.3 190.4,56.3 197.3,57.8 203.9,55.3 210.4,54.9 216.7,58.5 222.7,60.9 228.5,61.6 234.0,58.8 239.2,59.2 244.0,60.3 248.5,63.6 252.6,62.0 256.3,62.7 259.7,62.9 262.6,61.7 265.1,63.5 267.1,62.7 268.7,64.3 269.9,63.9 270.5,63.2 270.8,68.1 270.8,65.5 270.5,94.6 269.9,123.8 268.7,151.7 267.1,176.3 265.1,181.5 262.6,177.0 259.7,182.7 256.3,179.2 252.6,177.6 248.5,176.2 244.0,175.3 239.2,174.6 234.0,176.6 228.5,176.2 222.7,172.5 216.7,174.2 210.4,175.9 203.9,174.8 197.3,173.5 190.4,169.5 183.5,169.4 176.4,167.3 169.3,169.1 162.1,166.9 154.9,164.9 147.7,166.2 140.6,163.6 133.5,165.3 126.6,163.8 119.7,163.1 113.1,164.1 106.6,159.5 100.3,160.9 94.3,159.1 88.5,157.4 83.0,156.8 77.8,155.7 73.0,156.8 68.5,157.1 64.4,155.8 60.7,159.0 57.3,158.1 54.4,157.5 51.9,156.4 49.9,152.9 48.3,155.8 47.1,154.4 46.5,150.5 46.2,154.2" stroke="#1a3a5c" stroke-width="1.5" fill="none"/>
</g>
<g transform="translate(315.0,1493.0)">
<rect x="0.0" y="0.0" width="290.0" height="210.0" stroke="#666666" stroke-width="1.0" fill="#fafafa" rx="4.0"/>
<text x="145.0" y="16.0" font-family="sans-serif" font-size="11" font-weight="bold" fill="#c62828" text-anchor="middle">Sand Abrasion</text>
<rect x="35.0" y="30.0" width="247.0" height="160.0" stroke="#e0e0e0" stroke-width="1.0" fill="none"/>
<polygon points="46.2,157.7 46.5,146.6 47.1,132.1 48.3,63.2 49.9,64.5 51.9,78.1 54.4,73.2 57.3,56.7 60.7,78.8 64.4,42.3 68.5,46.6 73.0,49.4 77.8,66.3 83.0,54.5 88.5,58.1 94.3,52.8 100.3,84.6 106.6,66.6 113.1,87.5 119.7,61.0 126.6,71.3 133.5,81.7 140.6,83.8 147.7,56.5 154.9,79.5 162.1,38.2 169.3,57.0 176.4,68.2 183.5,57.2 190.4,88.4 197.3,37.5 203.9,62.2 210.4,45.3 216.7,84.7 222.7,63.3 228.5,63.1 234.0,37.3 239.2,57.2 244.0,62.8 248.5,75.2 252.6,70.8 256.3,60.6 259.7,65.0 262.6,87.1 265.1,43.8 267.1,39.5 268.7,81.4 269.9,58.6 270.5,82.6 270.8,53.8 270.8,74.1 270.5,77.1 269.9,97.0 268.7,117.9 267.1,175.9 265.1,133.9 262.6,169.7 259.7,182.7 256.3,153.2 252.6,162.8 248.5,137.3 244.0,138.3 239.2,165.1 234.0,131.4 228.5,167.7 222.7,154.2 216.7,169.4 210.4,133.2 203.9,175.3 197.3,181.6 190.4,158.9 183.5,128.8 176.4,133.8 169.3,142.7 162.1,134.3 154.9,133.8 147.7,155.1 140.6,165.5 133.5,141.6 126.6,147.4 119.7,163.1 113.1,179.2 106.6,141.9 100.3,169.3 94.3,132.0 88.5,169.6 83.0,176.1 77.8,137.1 73.0,174.9 68.5,173.8 64.4,150.5 60.7,137.0 57.3,173.8 54.4,167.5 51.9,141.6 49.9,129.7 48.3,156.7 47.1,175.7 46.5,181.2 46.2,171.0" stroke="#1a3a5c" stroke-width="1.5" fill="none"/>
</g>
<g transform="translate(615.0,1493.0)">
<rect x="0.0" y="0.0" width="290.0" height="210.0" stroke="#666666" stroke-width="1.0" fill="#fafafa" rx="4.0"/>
<text x="145.0" y="16.0" font-family="sans-serif" font-size="11" font-weight="bold" fill="#c62828" text-anchor="middle">Excessive Vibration</text>
<rect x="35.0" y="30.0" width="247.0" height="160.0" stroke="#e0e0e0" stroke-width="1.0" fill="none"/>
<polygon points="46.2,162.9 46.5,128.0 47.1,93.8 48.3,66.0 49.9,47.1 51.9,58.2 54.4,69.5 57.3,72.8 60.7,70.7 64.4,62.8 68.5,50.1 73.0,41.1 77.8,38.7 83.0,41.0 88.5,52.0 94.3,61.6 100.3,71.5 106.6,74.0 113.1,69.5 119.7,57.1 126.6,47.2 133.5,39.7 140.6,38.7 147.7,44.0 154.9,55.1 162.1,66.2 169.3,72.8 176.4,70.4 183.5,65.6 190.4,54.4 197.3,44.2 203.9,37.3 210.4,38.7 216.7,48.6 222.7,61.0 228.5,70.8 234.0,73.2 239.2,69.7 244.0,60.4 248.5,50.1 252.6,40.2 256.3,37.7 259.7,42.4 262.6,52.0 265.1,64.2 267.1,71.6 268.7,73.4 269.9,67.0 270.5,55.8 270.8,46.9 270.8,38.9 270.5,66.4 269.9,100.9 268.7,138.9 267.1,174.6 265.1,182.7 262.6,178.9 259.7,173.3 256.3,160.3 252.6,149.8 248.5,145.2 244.0,148.3 239.2,157.6 234.0,170.4 228.5,179.6 222.7,181.0 216.7,177.5 210.4,168.5 203.9,156.8 197.3,148.5 190.4,145.6 183.5,152.0 176.4,162.2 169.3,174.6 162.1,180.9 154.9,180.3 147.7,174.1 140.6,162.0 133.5,152.5 126.6,146.5 119.7,148.1 113.1,157.3 106.6,167.0 100.3,178.1 94.3,181.9 88.5,178.4 83.0,169.1 77.8,157.3 73.0,148.9 68.5,146.3 64.4,150.4 60.7,162.2 57.3,173.5 54.4,181.6 51.9,182.7 49.9,175.4 48.3,166.1 47.1,154.3 46.5,145.4 46.2,147.1" stroke="#1a3a5c" stroke-width="1.5" fill="none"/>
</g>
</svg>