<svg xmlns="http://www.w3.org/2000/svg" width="920" height="680" viewBox="0 0 920 680">
<rect width="920" height="680" fill="#ffffff"/>
<text x="460.0" y="22.0" font-family="sans-serif" font-size="16" font-weight="bold" fill="#333333" text-anchor="middle">Sucker Rod Pump System — Surface Card to Downhole Diagnosis</text>
<line x1="30.0" y1="200.0" x2="350.0" y2="200.0" stroke="#8B4513" stroke-width="2.5" fill="none"/>
<text x="340.0" y="195.0" font-family="sans-serif" font-size="9" font-weight="normal" fill="#8B4513" text-anchor="end">Ground Level</text>
<rect x="100.0" y="185.0" width="160.0" height="15.0" stroke="#666666" stroke-width="1.0" fill="#d0d0d0"/>
<rect x="230.0" y="100.0" width="12.0" height="85.0" stroke="#666666" stroke-width="1.0" fill="#b0b0b0"/>
<line x1="120.0" y1="105.0" x2="280.0" y2="105.0" stroke="#333333" stroke-width="4" fill="none"/>
<circle cx="236.0" cy="105.0" r="6.0" stroke="#333333" stroke-width="1.0" fill="#888888"/>
<path d="M 100.0,105.0 A 20.0,20.0 0 0,1 120.0,85.0" stroke="#333333" stroke-width="3" fill="none"/>
<line x1="120.0" y1="125.0" x2="120.0" y2="200.0" stroke="#1a3a5c" stroke-width="2" fill="none"/>
<text x="95.0" y="165.0" font-family="sans-serif" font-size="8" font-weight="normal" fill="#333333" text-anchor="end">Polished</text>
<text x="95.0" y="175.0" font-family="sans-serif" font-size="8" font-weight="normal" fill="#333333" text-anchor="end">Rod</text>
<rect x="265.0" y="108.0" width="20.0" height="30.0" stroke="#666666" stroke-width="1.0" fill="#999999"/>
<line x1="275.0" y1="138.0" x2="295.0" y2="175.0" stroke="#333333" stroke-width="2.5" fill="none"/>
<rect x="280.0" y="175.0" width="35.0" height="20.0" stroke="#666666" stroke-width="1.0" fill="#aaaaaa"/>
<text x="298.0" y="189.0" font-family="sans-serif" font-size="7" font-weight="normal" fill="#333333" text-anchor="middle">Motor</text>
<rect x="110.0" y="196.0" width="20.0" height="10.0" stroke="#666666" stroke-width="1.0" fill="#c0c0c0"/>
<text x="80.0" y="210.0" font-family="sans-serif" font-size="7" font-weight="normal" fill="#333333" text-anchor="end">Stuffing Box</text>
<text x="200.0" y="80.0" font-family="sans-serif" font-size="11" font-weight="bold" fill="#333333" text-anchor="middle">Pumping Unit</text>
<line x1="140.0" y1="150.0" x2="155.0" y2="150.0" stroke="#2e7d32" stroke-width="1.5" fill="none" stroke-dasharray="3,2"/>
<line x1="155.0" y1="140.0" x2="155.0" y2="160.0" stroke="#2e7d32" stroke-width="1.5" fill="none"/>
<text x="168.0" y="148.0" font-family="sans-serif" font-size="7" font-weight="normal" fill="#2e7d32" text-anchor="start">Surface Card</text>
<text x="168.0" y="158.0" font-family="sans-serif" font-size="7" font-weight="normal" fill="#2e7d32" text-anchor="start">Measurement</text>
<line x1="155.0" y1="206.0" x2="155.0" y2="600.0" stroke="#8B6914" stroke-width="2" fill="none"/>
<line x1="205.0" y1="206.0" x2="205.0" y2="600.0" stroke="#8B6914" stroke-width="2" fill="none"/>
<line x1="170.0" y1="206.0" x2="170.0" y2="520.0" stroke="#666666" stroke-width="1.5" fill="none"/>
<line x1="190.0" y1="206.0" x2="190.0" y2="520.0" stroke="#666666" stroke-width="1.5" fill="none"/>
<line x1="180.0" y1="206.0" x2="180.0" y2="510.0" stroke="#1a3a5c" stroke-width="1.5" fill="none" stroke-dasharray="8,4"/>
<text x="220.0" y="350.0" font-family="sans-serif" font-size="9" font-weight="normal" fill="#333333" text-anchor="start">Rod String</text>
<text x="220.0" y="362.0" font-family="sans-serif" font-size="7" font-weight="normal" fill="#666666" text-anchor="start">(up to 8000 ft)</text>
<text x="147.0" y="350.0" font-family="sans-serif" font-size="9" font-weight="normal" fill="#333333" text-anchor="end">Tubing</text>
<text x="147.0" y="300.0" font-family="sans-serif" font-size="9" font-weight="normal" fill="#8B6914" text-anchor="end">Casing</text>
<rect x="170.0" y="510.0" width="20.0" height="10.0" stroke="#f57f17" stroke-width="1.5" fill="#e8d8c8"/>
<text x="220.0" y="518.0" font-family="sans-serif" font-size="8" font-weight="normal" fill="#f57f17" text-anchor="start">Traveling Valve (TV)</text>
<rect x="167.0" y="520.0" width="26.0" height="40.0" stroke="#1a3a5c" stroke-width="1.5" fill="#e8f0f8"/>
<text x="220.0" y="545.0" font-family="sans-serif" font-size="8" font-weight="normal" fill="#1a3a5c" text-anchor="start">Pump Barrel</text>
<rect x="171.0" y="522.0" width="18.0" height="15.0" stroke="#6a1b9a" stroke-width="1" fill="#d8c8e8"/>
<rect x="170.0" y="560.0" width="20.0" height="10.0" stroke="#c62828" stroke-width="1.5" fill="#e8d8c8"/>
<text x="220.0" y="568.0" font-family="sans-serif" font-size="8" font-weight="normal" fill="#c62828" text-anchor="start">Standing Valve (SV)</text>
<line x1="147.0" y1="590.0" x2="155.0" y2="590.0" stroke="#8B6914" stroke-width="1" fill="none"/>
<line x1="205.0" y1="590.0" x2="213.0" y2="590.0" stroke="#8B6914" stroke-width="1" fill="none"/>
<line x1="147.0" y1="593.0" x2="155.0" y2="593.0" stroke="#8B6914" stroke-width="1" fill="none"/>
<line x1="205.0" y1="593.0" x2="213.0" y2="593.0" stroke="#8B6914" stroke-width="1" fill="none"/>
<line x1="147.0" y1="596.0" x2="155.0" y2="596.0" stroke="#8B6914" stroke-width="1" fill="none"/>
<line x1="205.0" y1="596.0" x2="213.0" y2="596.0" stroke="#8B6914" stroke-width="1" fill="none"/>
<line x1="147.0" y1="599.0" x2="155.0" y2="599.0" stroke="#8B6914" stroke-width="1" fill="none"/>
<line x1="205.0" y1="599.0" x2="213.0" y2="599.0" stroke="#8B6914" stroke-width="1" fill="none"/>
<line x1="147.0" y1="602.0" x2="155.0" y2="602.0" stroke="#8B6914" stroke-width="1" fill="none"/>
<line x1="205.0" y1="602.0" x2="213.0" y2="602.0" stroke="#8B6914" stroke-width="1" fill="none"/>
<text x="143.0" y="598.0" font-family="sans-serif" font-size="8" font-weight="normal" fill="#8B6914" text-anchor="end">Perforations</text>
<rect x="125.0" y="610.0" width="110.0" height="25.0" stroke="none" stroke-width="1.0" fill="#f5e6d3" rx="3.0"/>
<text x="180.0" y="627.0" font-family="sans-serif" font-size="10" font-weight="bold" fill="#8B6914" text-anchor="middle">Reservoir</text>
<text x="180.0" y="280.0" font-family="sans-serif" font-size="10" font-weight="normal" fill="#00bcd4" text-anchor="middle">▲</text>
<text x="180.0" y="380.0" font-family="sans-serif" font-size="10" font-weight="normal" fill="#00bcd4" text-anchor="middle">▲</text>
<text x="180.0" y="470.0" font-family="sans-serif" font-size="10" font-weight="normal" fill="#00bcd4" text-anchor="middle">▲</text>
<text x="147.0" y="475.0" font-family="sans-serif" font-size="7" font-weight="normal" fill="#00bcd4" text-anchor="end">Fluid</text>
<text x="147.0" y="485.0" font-family="sans-serif" font-size="7" font-weight="normal" fill="#00bcd4" text-anchor="end">Flow ▲</text>
<text x="740.0" y="55.0" font-family="sans-serif" font-size="13" font-weight="bold" fill="#333333" text-anchor="middle">Normal Dynamometer Card</text>
<text x="740.0" y="70.0" font-family="sans-serif" font-size="10" font-weight="normal" fill="#666666" text-anchor="middle">(Downhole / Pump Card)</text>
<rect x="630.0" y="90.0" width="260.0" height="230.0" stroke="#666666" stroke-width="1.0" fill="none"/>
<line x1="630.0" y1="90.0" x2="630.0" y2="320.0" stroke="#e0e0e0" stroke-width="0.5" fill="none"/>
<text x="630.0" y="334.0" font-family="sans-serif" font-size="8" font-weight="normal" fill="#333333" text-anchor="middle">-9</text>
<line x1="695.0" y1="90.0" x2="695.0" y2="320.0" stroke="#e0e0e0" stroke-width="0.5" fill="none"/>
<text x="695.0" y="334.0" font-family="sans-serif" font-size="8" font-weight="normal" fill="#333333" text-anchor="middle">24</text>
<line x1="760.0" y1="90.0" x2="760.0" y2="320.0" stroke="#e0e0e0" stroke-width="0.5" fill="none"/>
<text x="760.0" y="334.0" font-family="sans-serif" font-size="8" font-weight="normal" fill="#333333" text-anchor="middle">57</text>
<line x1="825.0" y1="90.0" x2="825.0" y2="320.0" stroke="#e0e0e0" stroke-width="0.5" fill="none"/>
<text x="825.0" y="334.0" font-family="sans-serif" font-size="8" font-weight="normal" fill="#333333" text-anchor="middle">90</text>
<line x1="890.0" y1="90.0" x2="890.0" y2="320.0" stroke="#e0e0e0" stroke-width="0.5" fill="none"/>
<text x="890.0" y="334.0" font-family="sans-serif" font-size="8" font-weight="normal" fill="#333333" text-anchor="middle">123</text>
<line x1="630.0" y1="320.0" x2="890.0" y2="320.0" stroke="#e0e0e0" stroke-width="0.5" fill="none"/>
<text x="626.0" y="323.0" font-family="sans-serif" font-size="8" font-weight="normal" fill="#333333" text-anchor="end">3733</text>
<line x1="630.0" y1="262.5" x2="890.0" y2="262.5" stroke="#e0e0e0" stroke-width="0.5" fill="none"/>
<text x="626.0" y="265.5" font-family="sans-serif" font-size="8" font-weight="normal" fill="#333333" text-anchor="end">7395</text>
<line x1="630.0" y1="205.0" x2="890.0" y2="205.0" stroke="#e0e0e0" stroke-width="0.5" fill="none"/>
<text x="626.0" y="208.0" font-family="sans-serif" font-size="8" font-weight="normal" fill="#333333" text-anchor="end">11057</text>
<line x1="630.0" y1="147.5" x2="890.0" y2="147.5" stroke="#e0e0e0" stroke-width="0.5" fill="none"/>
<text x="626.0" y="150.5" font-family="sans-serif" font-size="8" font-weight="normal" fill="#333333" text-anchor="end">14720</text>
<line x1="630.0" y1="90.0" x2="890.0" y2="90.0" stroke="#e0e0e0" stroke-width="0.5" fill="none"/>
<text x="626.0" y="93.0" font-family="sans-serif" font-size="8" font-weight="normal" fill="#333333" text-anchor="end">18382</text>
<text x="760.0" y="346.0" font-family="sans-serif" font-size="9" font-weight="normal" fill="#333333" text-anchor="middle">Position (in)</text>
<text x="600.0" y="205.0" font-family="sans-serif" font-size="9" font-weight="normal" fill="#333333" text-anchor="middle" transform="rotate(-90,600.0,205.0)">Load (lbs)</text>
<polygon points="647.9,290.1 648.2,261.1 648.9,213.2 650.0,161.1 651.6,119.0 653.6,117.4 656.1,121.8 659.0,112.6 662.4,113.1 666.1,116.9 670.2,111.3 674.7,114.8 679.5,121.9 684.7,115.3 690.1,122.4 695.9,112.6 701.9,117.6 708.2,118.3 714.6,120.9 721.3,110.8 728.1,118.1 735.1,119.6 742.1,119.2 749.2,114.4 756.4,115.3 763.6,115.1 770.8,115.0 777.9,105.9 784.9,119.5 791.9,120.0 798.7,121.6 805.4,114.0 811.8,111.3 818.1,117.9 824.1,121.8 829.9,121.7 835.3,113.8 840.5,113.3 845.3,114.4 849.8,120.8 853.9,116.0 857.6,116.7 861.0,116.1 863.9,112.6 866.4,116.1 868.4,113.7 870.0,116.9 871.1,115.7 871.8,113.9 872.1,125.1 872.1,119.0 871.8,164.3 871.1,209.6 870.0,252.1 868.4,287.2 866.4,299.8 863.9,290.0 861.0,304.1 857.6,296.9 853.9,294.3 849.8,292.0 845.3,291.3 840.5,290.9 835.3,297.0 829.9,297.6 824.1,290.6 818.1,296.2 811.8,301.9 805.4,301.2 798.7,300.0 791.9,292.5 784.9,294.4 777.9,291.5 770.8,297.4 763.6,294.3 756.4,291.8 749.2,296.8 742.1,292.7 735.1,298.7 728.1,297.1 721.3,297.2 714.6,301.5 708.2,292.5 701.9,297.6 695.9,295.1 690.1,292.6 684.7,292.8 679.5,291.6 674.7,295.7 670.2,297.4 666.1,295.6 662.4,304.1 659.0,302.9 656.1,302.2 653.6,300.5 651.6,293.0 650.0,300.0 648.9,297.2 648.2,288.2 647.9,297.0" stroke="#1a3a5c" stroke-width="2.5" fill="none"/>
<text x="760.0" y="120.0" font-family="sans-serif" font-size="9" font-weight="normal" fill="#2e7d32" text-anchor="middle">UPSTROKE →</text>
<text x="760.0" y="305.0" font-family="sans-serif" font-size="9" font-weight="normal" fill="#f57f17" text-anchor="middle">← DOWNSTROKE</text>
<text x="740.0" y="380.0" font-family="sans-serif" font-size="12" font-weight="bold" fill="#333333" text-anchor="middle">Analysis Pipeline</text>
<text x="640.0" y="402.0" font-family="sans-serif" font-size="10" font-weight="bold" fill="#333333" text-anchor="start">1.</text>
<text x="660.0" y="402.0" font-family="sans-serif" font-size="10" font-weight="normal" fill="#333333" text-anchor="start">Surface Card Measured</text>
<text x="645.0" y="415.0" font-family="sans-serif" font-size="10" font-weight="normal" fill="#e0e0e0" text-anchor="start">↓</text>
<text x="640.0" y="422.0" font-family="sans-serif" font-size="10" font-weight="bold" fill="#333333" text-anchor="start">2.</text>
<text x="660.0" y="422.0" font-family="sans-serif" font-size="10" font-weight="normal" fill="#333333" text-anchor="start">Physics Engine (Gibbs / FD)</text>
<text x="645.0" y="435.0" font-family="sans-serif" font-size="10" font-weight="normal" fill="#e0e0e0" text-anchor="start">↓</text>
<text x="640.0" y="442.0" font-family="sans-serif" font-size="10" font-weight="bold" fill="#333333" text-anchor="start">3.</text>
<text x="660.0" y="442.0" font-family="sans-serif" font-size="10" font-weight="normal" fill="#333333" text-anchor="start">Downhole Card Reconstructed</text>
<text x="645.0" y="455.0" font-family="sans-serif" font-size="10" font-weight="normal" fill="#e0e0e0" text-anchor="start">↓</text>
<text x="640.0" y="462.0" font-family="sans-serif" font-size="10" font-weight="bold" fill="#2e7d32" text-anchor="start">4.</text>
<text x="660.0" y="462.0" font-family="sans-serif" font-size="10" font-weight="normal" fill="#2e7d32" text-anchor="start">ML Classifier → 18 Modes</text>
<rect x="610.0" y="510.0" width="280.0" height="120.0" stroke="#666666" stroke-width="1.0" fill="#f8f8f8" rx="6.0"/>
<text x="750.0" y="530.0" font-family="sans-serif" font-size="11" font-weight="bold" fill="#333333" text-anchor="middle">Key Engineering Outputs</text>
<text x="630.0" y="548.0" font-family="sans-serif" font-size="9" font-weight="normal" fill="#333333" text-anchor="start">• Pump fillage &amp; production rate</text>
<text x="630.0" y="562.0" font-family="sans-serif" font-size="9" font-weight="normal" fill="#333333" text-anchor="start">• Gearbox torque (API 11E)</text>
<text x="630.0" y="576.0" font-family="sans-serif" font-size="9" font-weight="normal" fill="#333333" text-anchor="start">• Rod buckling detection</text>
<text x="630.0" y="590.0" font-family="sans-serif" font-size="9" font-weight="normal" fill="#333333" text-anchor="start">• Ideal card comparison</text>
<text x="630.0" y="604.0" font-family="sans-serif" font-size="9" font-weight="normal" fill="#333333" text-anchor="start">• Counterbalance optimization</text>
<text x="630.0" y="618.0" font-family="sans-serif" font-size="9" font-weight="normal" fill="#333333" text-anchor="start">• Confidence score (0–100%)</text>
<line x1="200.0" y1="150.0" x2="530.0" y2="150.0" stroke="#2e7d32" stroke-width="1.5" fill="none" stroke-dasharray="6,3"/>
<polyline points="520.0,145.0 530.0,150.0 520.0,155.0" stroke="#2e7d32" stroke-width="1.5" fill="none"/>
<text x="365.0" y="142.0" font-family="sans-serif" font-size="9" font-weight="normal" fill="#2e7d32" text-anchor="middle">Dynamometer Data →</text>
</svg>