<?xml version="1.0" encoding="us-ascii" standalone="no"?><svg xmlns="http://www.w3.org/2000/svg" xmlns:xlink="http://www.w3.org/1999/xlink" contentStyleType="text/css" height="2343px" preserveAspectRatio="none" style="width:1440px;height:2343px;background:#FFFFFF;" version="1.1" viewBox="0 0 1440 2343" width="1440px" zoomAndPan="magnify"><defs/><g><rect fill="#FF6347" height="135.6563" id="_title" rx="22.5" ry="22.5" style="stroke:#FF0000;stroke-width:6.0;" width="561" x="435" y="45"/><text fill="#000000" font-family="sans-serif" font-size="42" font-weight="bold" lengthAdjust="spacing" textLength="207" x="606" y="103.5996">Multibody</text><text fill="#000000" font-family="sans-serif" font-size="42" font-weight="bold" lengthAdjust="spacing" textLength="519" x="462" y="156.4277">OrcaFlex Hydrodynamics</text><path d="M309,198.6563 L309,250.7109 L249,262.7109 L309,274.7109 L309,326.7656 A0,0 0 0 0 309,326.7656 L885,326.7656 A0,0 0 0 0 885,326.7656 L885,228.6563 L855,198.6563 L309,198.6563 A0,0 0 0 0 309,198.6563 " fill="#FEFFDD" style="stroke:#181818;stroke-width:1.5;"/><path d="M855,198.6563 L855,228.6563 L885,228.6563 L855,198.6563 " fill="#FEFFDD" style="stroke:#181818;stroke-width:1.5;"/><text fill="#000000" font-family="sans-serif" font-size="39" lengthAdjust="spacing" textLength="513" x="327" y="254.1416">Objective: Multibody Analysis</text><text fill="#000000" font-family="sans-serif" font-size="39" lengthAdjust="spacing" textLength="396" x="327" y="303.1963">- Each Block is feature</text><ellipse cx="219" cy="262.7109" fill="#222222" rx="30" ry="30" style="stroke:#222222;stroke-width:3.0;"/><rect fill="none" height="665.6133" style="stroke:#000000;stroke-width:4.5;" width="870" x="103.5" y="356.7656"/><path d="M490.5,356.7656 L490.5,388.5938 L460.5,418.5938 L103.5,418.5938 " fill="none" style="stroke:#000000;stroke-width:4.5;"/><text fill="#000000" font-family="sans-serif" font-size="42" lengthAdjust="spacing" textLength="357" x="112.5" y="403.3652">Vessel - Diffraction</text><path d="M334.5,634.875 L334.5,812.0391 L913.5,812.0391 L913.5,664.875 L883.5,634.875 L334.5,634.875 " fill="#FEFFDD" style="stroke:#181818;stroke-width:1.5;"/><path d="M883.5,634.875 L883.5,664.875 L913.5,664.875 L883.5,634.875 " fill="#FEFFDD" style="stroke:#181818;stroke-width:1.5;"/><text fill="#000000" font-family="sans-serif" font-size="39" lengthAdjust="spacing" textLength="516" x="352.5" y="690.3604">Objective: Diffraction Analysis</text><text fill="#000000" font-family="sans-serif" font-size="39" lengthAdjust="spacing" textLength="378" x="352.5" y="739.415">- Software: OrcaWave</text><text fill="#000000" font-family="sans-serif" font-size="39" lengthAdjust="spacing" textLength="150" x="352.5" y="788.4697">- Status:</text><text fill="#FF0000" font-family="sans-serif" font-size="39" lengthAdjust="spacing" textLength="213" x="514.5" y="788.4697">Not Planned</text><rect fill="#F1F1F1" height="105.2813" rx="37.5" ry="37.5" style="stroke:#181818;stroke-width:1.5;" width="156" x="141" y="469.5938"/><text fill="#000000" font-family="sans-serif" font-size="36" lengthAdjust="spacing" textLength="96" x="171" y="536.9648">RAOs</text><rect fill="#F1F1F1" height="105.2813" rx="37.5" ry="37.5" style="stroke:#181818;stroke-width:1.5;" width="150" x="144" y="670.8164"/><text fill="#000000" font-family="sans-serif" font-size="36" lengthAdjust="spacing" textLength="90" x="174" y="738.1875">QTFs</text><rect fill="#F1F1F1" height="105.2813" rx="37.5" ry="37.5" style="stroke:#181818;stroke-width:1.5;" width="171" x="133.5" y="881.0977"/><text fill="#000000" font-family="sans-serif" font-size="36" lengthAdjust="spacing" textLength="111" x="163.5" y="948.4688">Others</text><rect fill="none" height="414.0469" style="stroke:#000000;stroke-width:4.5;" width="1374" x="33" y="1052.3789"/><path d="M375,1052.3789 L375,1084.207 L345,1114.207 L33,1114.207 " fill="none" style="stroke:#000000;stroke-width:4.5;"/><text fill="#000000" font-family="sans-serif" font-size="42" lengthAdjust="spacing" textLength="312" x="42" y="1098.9785">Vessel Shielding</text><path d="M405,1174.207 L405,1400.4258 L1347,1400.4258 L1347,1204.207 L1317,1174.207 L405,1174.207 " fill="#FEFFDD" style="stroke:#181818;stroke-width:1.5;"/><path d="M1317,1174.207 L1317,1204.207 L1347,1204.207 L1317,1174.207 " fill="#FEFFDD" style="stroke:#181818;stroke-width:1.5;"/><text fill="#000000" font-family="sans-serif" font-size="39" lengthAdjust="spacing" textLength="879" x="423" y="1229.6924">Objective: Seastate RAOs to take shielding effects</text><text fill="#000000" font-family="sans-serif" font-size="39" lengthAdjust="spacing" textLength="378" x="423" y="1278.7471">- Software: OrcaWave</text><text fill="#000000" font-family="sans-serif" font-size="39" lengthAdjust="spacing" textLength="765" x="423" y="1327.8018">- Define areas with shielding beside a vessel</text><text fill="#000000" font-family="sans-serif" font-size="39" lengthAdjust="spacing" textLength="150" x="423" y="1376.8564">- Status:</text><text fill="#FF0000" font-family="sans-serif" font-size="39" lengthAdjust="spacing" textLength="213" x="585" y="1376.8564">Not Planned</text><rect fill="#F1F1F1" height="105.2813" rx="37.5" ry="37.5" style="stroke:#181818;stroke-width:1.5;" width="312" x="63" y="1234.6758"/><text fill="#000000" font-family="sans-serif" font-size="36" lengthAdjust="spacing" textLength="252" x="93" y="1302.0469">Seastate RAOs</text><rect fill="none" height="610.2656" style="stroke:#000000;stroke-width:4.5;" width="1275" x="36" y="1496.4258"/><path d="M594,1496.4258 L594,1528.2539 L564,1558.2539 L36,1558.2539 " fill="none" style="stroke:#000000;stroke-width:4.5;"/><text fill="#000000" font-family="sans-serif" font-size="42" lengthAdjust="spacing" textLength="528" x="45" y="1543.0254">Connected Model Dynamics</text><path d="M402,1618.2539 L402,2040.6914 L1251,2040.6914 L1251,1648.2539 L1221,1618.2539 L402,1618.2539 " fill="#FEFFDD" style="stroke:#181818;stroke-width:1.5;"/><path d="M1221,1618.2539 L1221,1648.2539 L1251,1648.2539 L1221,1618.2539 " fill="#FEFFDD" style="stroke:#181818;stroke-width:1.5;"/><text fill="#000000" font-family="sans-serif" font-size="39" lengthAdjust="spacing" textLength="633" x="420" y="1673.7393">Objective: Perform dynamic analysis</text><text fill="#000000" font-family="sans-serif" font-size="39" lengthAdjust="spacing" textLength="357" x="420" y="1722.7939">- Software: OrcaFlex</text><text fill="#000000" font-family="sans-serif" font-size="39" lengthAdjust="spacing" textLength="681" x="420" y="1771.8486">- Define multiple bodies, structures etc.</text><text fill="#000000" font-family="sans-serif" font-size="39" lengthAdjust="spacing" textLength="786" x="420" y="1820.9033">- Define boundary conditions, constraints etc.</text><text fill="#000000" font-family="sans-serif" font-size="39" lengthAdjust="spacing" textLength="651" x="420" y="1869.958">- Define wind, current coefficients etc.</text><text fill="#000000" font-family="sans-serif" font-size="39" lengthAdjust="spacing" textLength="483" x="420" y="1919.0127">- Postprocess to get results</text><text fill="#000000" font-family="sans-serif" font-size="39" lengthAdjust="spacing" textLength="90" x="420" y="1968.0674">- etc.</text><text fill="#000000" font-family="sans-serif" font-size="39" lengthAdjust="spacing" textLength="150" x="420" y="2017.1221">- Status:</text><text fill="#008000" font-family="sans-serif" font-size="39" lengthAdjust="spacing" textLength="156" x="582" y="2017.1221">On going</text><rect fill="#F1F1F1" height="105.2813" rx="37.5" ry="37.5" style="stroke:#181818;stroke-width:1.5;" width="306" x="66" y="1776.832"/><text fill="#000000" font-family="sans-serif" font-size="36" lengthAdjust="spacing" textLength="246" x="96" y="1844.2031">Detailed Model</text><ellipse cx="219" cy="2199.6914" fill="none" rx="33" ry="33" style="stroke:#222222;stroke-width:3.0;"/><ellipse cx="219" cy="2199.6914" fill="#222222" rx="18" ry="18" style="stroke:#222222;stroke-width:3.0;"/><line style="stroke:#181818;stroke-width:3.0;" x1="219" x2="219" y1="574.875" y2="670.8164"/><polygon fill="#181818" points="207,640.8164,219,670.8164,231,640.8164,219,652.8164" style="stroke:#181818;stroke-width:3.0;"/><line style="stroke:#181818;stroke-width:3.0;" x1="219" x2="219" y1="776.0977" y2="881.0977"/><polygon fill="#181818" points="207,851.0977,219,881.0977,231,851.0977,219,863.0977" style="stroke:#181818;stroke-width:3.0;"/><line style="stroke:#181818;stroke-width:3.0;" x1="219" x2="219" y1="292.7109" y2="469.5938"/><polygon fill="#181818" points="207,439.5938,219,469.5938,231,439.5938,219,451.5938" style="stroke:#181818;stroke-width:3.0;"/><line style="stroke:#181818;stroke-width:3.0;" x1="219" x2="219" y1="986.3789" y2="1234.6758"/><polygon fill="#181818" points="207,1204.6758,219,1234.6758,231,1204.6758,219,1216.6758" style="stroke:#181818;stroke-width:3.0;"/><line style="stroke:#181818;stroke-width:3.0;" x1="219" x2="219" y1="1339.957" y2="1776.832"/><polygon fill="#181818" points="207,1746.832,219,1776.832,231,1746.832,219,1758.832" style="stroke:#181818;stroke-width:3.0;"/><line style="stroke:#181818;stroke-width:3.0;" x1="219" x2="219" y1="1882.1133" y2="2166.6914"/><polygon fill="#181818" points="207,2136.6914,219,2166.6914,231,2136.6914,219,2148.6914" style="stroke:#181818;stroke-width:3.0;"/><text fill="#888888" font-family="sans-serif" font-size="30" lengthAdjust="spacing" textLength="288" x="571.5" y="2260.834">2024.12.05 at 06:38</text><text fill="#888888" font-family="sans-serif" font-size="30" lengthAdjust="spacing" textLength="330" x="550.5" y="2298.5684">multibody_model.puml</text><!--SRC=[hLJ1RXen4BtxAqP8KHAffMghNcYAb40ZBXGQK7lfnTYpkowxDXeFK5JbtplUGBCD83ZKfxNdlV7CU-EDHfS8xrMSEx_Gf2jWnoNU1R983s7fRI-GHuAt7mvZfeKpSuynmhl3W5ue0m6XtGjhCy_fwOe4cOPASr2g3i9mMRAR1Rk17nv6PFHzYRzWiB4aPrvNpaIb8cjYfK2M3un0BY-utgOrclr4msw5dKQsMw_BJNJnB-erVDQcWBioc3cu21bgNXBMSVIsJgoUxf3YfJWNFBI-ISTO2hdlieoqIQSj-7rEBGt6eMec8UEr9W6chh_h5JQ3BCN53jnamJEOfDidaRRx9J2CI-qzsfitATPzKVykHUVXTXG_Fc-_Jk-Rsn4NI79GdpmUwtfIE2ojy_cP7KzGYrE2I9S31s0zHuYxB81P9j2pHUXZvZo2X7M4jUEYaMg6qLc9mQekzRzAzqyRHpNg1Kbb62qCWnMn-jjfJLgTbcgCb0MgO3lZe4yDI7eM-zfKQTuNyenavXt6Ln2PbYRDTGHaqzvdpD93rBGHPRojMn6MV0jHEy_7Q6ldhU2MH5YhAbOwu_00OHmYBoYOzAkG4SYHvQSGfSvcRoyuXppB2T5tHnxo88QViAoFh5svy-BPiyXXeLGM14tgmegfLwsDhFPmsBRs4ZJ3vM3GgQhMjRh898EuWLVNAbsnPVq1]--></g></svg>