<?xml version="1.0" encoding="us-ascii" standalone="no"?><svg xmlns="http://www.w3.org/2000/svg" xmlns:xlink="http://www.w3.org/1999/xlink" contentStyleType="text/css" height="734px" preserveAspectRatio="none" style="width:2776px;height:734px;background:#FFFFFF;" version="1.1" viewBox="0 0 2776 734" width="2776px" zoomAndPan="magnify"><defs/><g><rect fill="#FF6347" height="90.4375" id="_title" rx="15" ry="15" style="stroke:#FF0000;stroke-width:4.0;" width="652" x="1048.5" y="10"/><text fill="#000000" font-family="sans-serif" font-size="28" font-weight="bold" lengthAdjust="spacing" textLength="624" x="1058.5" y="49.0664">Global Motion Analysis | Model Development</text><text fill="#000000" font-family="sans-serif" font-size="28" font-weight="bold" lengthAdjust="spacing" textLength="376" x="1190.5" y="84.2852">Weighted Average Method</text><!--cluster Geometries--><g id="cluster_Geometries"><path d="M241,124.4375 L407,124.4375 A7.5,7.5 0 0 1 412,129.4375 L426,171.6563 L1349,171.6563 A5,5 0 0 1 1354,176.6563 L1354,353.4375 A5,5 0 0 1 1349,358.4375 L241,358.4375 A5,5 0 0 1 236,353.4375 L236,129.4375 A5,5 0 0 1 241,124.4375 " fill="none" style="stroke:#000000;stroke-width:3.0;"/><line style="stroke:#000000;stroke-width:3.0;" x1="236" x2="426" y1="171.6563" y2="171.6563"/><text fill="#000000" font-family="sans-serif" font-size="28" font-weight="bold" lengthAdjust="spacing" textLength="164" x="244" y="157.5039">Geometries</text></g><!--cluster md--><g id="cluster_md"><path d="M17,406.4375 L177,406.4375 A7.5,7.5 0 0 1 182,411.4375 L196,453.6563 L1741,453.6563 A5,5 0 0 1 1746,458.6563 L1746,651.4375 A5,5 0 0 1 1741,656.4375 L17,656.4375 A5,5 0 0 1 12,651.4375 L12,411.4375 A5,5 0 0 1 17,406.4375 " fill="none" style="stroke:#000000;stroke-width:3.0;"/><line style="stroke:#000000;stroke-width:3.0;" x1="12" x2="196" y1="453.6563" y2="453.6563"/><text fill="#000000" font-family="sans-serif" font-size="28" font-weight="bold" lengthAdjust="spacing" textLength="158" x="20" y="439.5039">Model Data</text></g><!--entity FST_Gometries--><g id="elem_FST_Gometries"><rect fill="#FF6347" height="130.4375" rx="15" ry="15" style="stroke:#FF0000;stroke-width:4.0;" width="330" x="477" y="196.4375"/><rect fill="#FF6347" height="20" style="stroke:#FF0000;stroke-width:4.0;" width="30" x="767" y="206.4375"/><rect fill="#FF6347" height="4" style="stroke:#FF0000;stroke-width:4.0;" width="8" x="763" y="210.4375"/><rect fill="#FF6347" height="4" style="stroke:#FF0000;stroke-width:4.0;" width="8" x="763" y="218.4375"/><text fill="#000000" font-family="sans-serif" font-size="28" font-weight="bold" lengthAdjust="spacing" textLength="196" x="507" y="265.5039">FST Geometry</text><text fill="#000000" font-family="sans-serif" font-size="28" lengthAdjust="spacing" textLength="8" x="703" y="265.5039">&#160;</text><text fill="#000000" font-family="sans-serif" font-size="28" lengthAdjust="spacing" textLength="250" x="507" y="300.7227">Light, Full, 90% etc.</text></g><!--entity LNG--><g id="elem_LNG"><rect fill="#FF6347" height="95.2188" rx="15" ry="15" style="stroke:#FF0000;stroke-width:4.0;" width="138" x="269" y="213.4375"/><rect fill="#FF6347" height="20" style="stroke:#FF0000;stroke-width:4.0;" width="30" x="367" y="223.4375"/><rect fill="#FF6347" height="4" style="stroke:#FF0000;stroke-width:4.0;" width="8" x="363" y="227.4375"/><rect fill="#FF6347" height="4" style="stroke:#FF0000;stroke-width:4.0;" width="8" x="363" y="235.4375"/><text fill="#000000" font-family="sans-serif" font-size="28" font-weight="bold" lengthAdjust="spacing" textLength="58" x="299" y="282.5039">LNG</text></g><!--entity Other_Structures--><g id="elem_Other_Structures"><rect fill="#FF6347" height="130.4375" rx="15" ry="15" style="stroke:#FF0000;stroke-width:4.0;" width="444" x="878" y="196.4375"/><rect fill="#FF6347" height="20" style="stroke:#FF0000;stroke-width:4.0;" width="30" x="1282" y="206.4375"/><rect fill="#FF6347" height="4" style="stroke:#FF0000;stroke-width:4.0;" width="8" x="1278" y="210.4375"/><rect fill="#FF6347" height="4" style="stroke:#FF0000;stroke-width:4.0;" width="8" x="1278" y="218.4375"/><text fill="#000000" font-family="sans-serif" font-size="28" font-weight="bold" lengthAdjust="spacing" textLength="236" x="908" y="265.5039">Other Structures</text><text fill="#000000" font-family="sans-serif" font-size="28" lengthAdjust="spacing" textLength="8" x="1144" y="265.5039">&#160;</text><text fill="#000000" font-family="sans-serif" font-size="28" lengthAdjust="spacing" textLength="364" x="908" y="300.7227">Struts, Dampener, Jacket etc</text></g><!--entity FST_model_data--><g id="elem_FST_model_data"><rect fill="#FF6347" height="145.6563" rx="15" ry="15" style="stroke:#FF0000;stroke-width:4.0;" width="586" x="45" y="478.4375"/><text fill="#000000" font-family="sans-serif" font-size="28" font-weight="bold" lengthAdjust="spacing" textLength="134" x="65" y="527.5039">FSTs/LNG</text><text fill="#000000" font-family="sans-serif" font-size="28" lengthAdjust="spacing" textLength="8" x="199" y="527.5039">&#160;</text><text fill="#000000" font-family="sans-serif" font-size="28" lengthAdjust="spacing" textLength="530" x="73" y="562.7227">1st order Load RAOs, 2nd wave drift load,</text><text fill="#000000" font-family="sans-serif" font-size="28" lengthAdjust="spacing" textLength="338" x="73" y="597.9414">Wind coeffs, current coeffs</text></g><!--entity Strut--><g id="elem_Strut"><rect fill="#FF6347" height="110.4375" rx="15" ry="15" style="stroke:#FF0000;stroke-width:4.0;" width="254" x="701" y="496.4375"/><text fill="#000000" font-family="sans-serif" font-size="28" font-weight="bold" lengthAdjust="spacing" textLength="68" x="721" y="545.5039">Strut</text><text fill="#000000" font-family="sans-serif" font-size="28" lengthAdjust="spacing" textLength="8" x="789" y="545.5039">&#160;</text><text fill="#000000" font-family="sans-serif" font-size="28" lengthAdjust="spacing" textLength="206" x="729" y="580.7227">Using a rigid link</text></g><!--entity Jacket--><g id="elem_Jacket"><rect fill="#FF6347" height="110.4375" rx="15" ry="15" style="stroke:#FF0000;stroke-width:4.0;" width="280" x="1434" y="496.4375"/><text fill="#000000" font-family="sans-serif" font-size="28" font-weight="bold" lengthAdjust="spacing" textLength="92" x="1454" y="545.5039">Jacket</text><text fill="#000000" font-family="sans-serif" font-size="28" lengthAdjust="spacing" textLength="8" x="1546" y="545.5039">&#160;</text><text fill="#000000" font-family="sans-serif" font-size="28" lengthAdjust="spacing" textLength="232" x="1462" y="580.7227">As Fixed Structure</text></g><!--entity Dampener--><g id="elem_Dampener"><rect fill="#FF6347" height="110.4375" rx="15" ry="15" style="stroke:#FF0000;stroke-width:4.0;" width="338" x="1025" y="496.4375"/><text fill="#000000" font-family="sans-serif" font-size="28" font-weight="bold" lengthAdjust="spacing" textLength="144" x="1045" y="545.5039">Dampener</text><text fill="#000000" font-family="sans-serif" font-size="28" lengthAdjust="spacing" textLength="8" x="1189" y="545.5039">&#160;</text><text fill="#000000" font-family="sans-serif" font-size="28" lengthAdjust="spacing" textLength="290" x="1053" y="580.7227">Using non-linear Curve</text></g><g id="elem_GMN6"><path d="M1393,169.4375 L1393,253.4375 L1322.32,261.4375 L1393,269.4375 L1393,352.9531 A0,0 0 0 0 1393,352.9531 L1923,352.9531 A0,0 0 0 0 1923,352.9531 L1923,189.4375 L1903,169.4375 L1393,169.4375 A0,0 0 0 0 1393,169.4375 " fill="#FEFFDD" style="stroke:#181818;stroke-width:1.0;"/><path d="M1903,169.4375 L1903,189.4375 L1923,189.4375 L1903,169.4375 " fill="#FEFFDD" style="stroke:#181818;stroke-width:1.0;"/><text fill="#000000" font-family="sans-serif" font-size="26" lengthAdjust="spacing" textLength="76" x="1405" y="206.4277">Notes:</text><text fill="#000000" font-family="sans-serif" font-size="26" lengthAdjust="spacing" textLength="362" x="1437" y="239.1309">1a/ FST1 and FST2 geometries</text><text fill="#000000" font-family="sans-serif" font-size="26" lengthAdjust="spacing" textLength="188" x="1437" y="271.834">1b/ 2 LNG sizes</text><text fill="#000000" font-family="sans-serif" font-size="26" lengthAdjust="spacing" textLength="456" x="1437" y="304.5371">1c/ Other structures, Fixed objects etc.</text><text fill="#000000" font-family="sans-serif" font-size="26" lengthAdjust="spacing" textLength="302" x="1437" y="337.2402">1d/ Marine growth weight?</text></g><g id="elem_GMN14"><path d="M1785,476.4375 L1785,627.25 L2763,627.25 L2763,496.4375 L2743,476.4375 L1785,476.4375 " fill="#FEFFDD" style="stroke:#181818;stroke-width:1.0;"/><path d="M2743,476.4375 L2743,496.4375 L2763,496.4375 L2743,476.4375 " fill="#FEFFDD" style="stroke:#181818;stroke-width:2.0;"/><text fill="#000000" font-family="sans-serif" font-size="26" lengthAdjust="spacing" textLength="76" x="1797" y="513.4277">Notes:</text><text fill="#000000" font-family="sans-serif" font-size="26" lengthAdjust="spacing" textLength="904" x="1829" y="546.1309">1a/ Design data spreadsheet to drive key dimensions, weights and parameters</text><text fill="#000000" font-family="sans-serif" font-size="26" lengthAdjust="spacing" textLength="232" x="1829" y="578.834">1b/ Key coordinates</text><text fill="#000000" font-family="sans-serif" font-size="26" lengthAdjust="spacing" textLength="452" x="1829" y="611.5371">1c/ Key inputs for both all analysis etc.</text></g><!--link Dampener to GMN14--><g id="link_Dampener_GMN14"><path d="M1241.92,495.6375 C1286.4,449.8575 1357.3,391.1975 1435,382.4375 C1495.94,375.5575 1650.06,375.5575 1711,382.4375 C1839.02,396.8775 1977.7,438.1775 2085.4,476.3375 " fill="none" id="Dampener-GMN14" style="stroke:#181818;stroke-width:2.0;stroke-dasharray:7.0,7.0;"/></g><!--link FST_Gometries to FST_model_data--><g id="link_FST_Gometries_FST_model_data"><path d="M574.54,326.9175 C526.96,371.6775 471.9216,423.4565 422.5616,469.8765 " fill="none" id="FST_Gometries-to-FST_model_data" style="stroke:#181818;stroke-width:2.0;"/><polygon fill="#181818" points="413.82,478.0975,432.4131,471.5938,421.1047,471.2467,421.4518,459.9383,413.82,478.0975" style="stroke:#181818;stroke-width:2.0;"/></g><!--link LNG to FST_model_data--><g id="link_LNG_FST_model_data"><path d="M338,310.0175 C338,355.6175 338,413.6575 338,466.2375 " fill="none" id="LNG-to-FST_model_data" style="stroke:#181818;stroke-width:2.0;"/><polygon fill="#181818" points="338,478.2375,346,460.2375,338,468.2375,330,460.2375,338,478.2375" style="stroke:#181818;stroke-width:2.0;"/></g><!--link Other_Structures to Strut--><g id="link_Other_Structures_Strut"><path d="M1039.64,326.9175 C991.42,377.5975 932.9103,439.1426 887.3303,487.0626 " fill="none" id="Other_Structures-to-Strut" style="stroke:#181818;stroke-width:2.0;"/><polygon fill="#181818" points="879.06,495.7575,897.2621,488.2287,885.9519,488.5117,885.6689,477.2016,879.06,495.7575" style="stroke:#181818;stroke-width:2.0;"/></g><!--link Other_Structures to Dampener--><g id="link_Other_Structures_Dampener"><path d="M1120.86,326.9175 C1137.52,377.5975 1156.851,436.4382 1172.611,484.3582 " fill="none" id="Other_Structures-to-Dampener" style="stroke:#181818;stroke-width:2.0;"/><polygon fill="#181818" points="1176.36,495.7575,1178.336,476.1591,1173.2358,486.2581,1163.1369,481.1579,1176.36,495.7575" style="stroke:#181818;stroke-width:2.0;"/></g><!--link Other_Structures to Jacket--><g id="link_Other_Structures_Jacket"><path d="M1245.04,326.6175 C1281.82,342.4175 1321.3,359.1975 1358,374.4375 C1375.68,381.7775 1381.76,380.2975 1398,390.4375 C1445.16,419.8575 1483.1081,453.9192 1516.3881,487.6192 " fill="none" id="Other_Structures-to-Jacket" style="stroke:#181818;stroke-width:2.0;"/><polygon fill="#181818" points="1524.82,496.1575,1517.8644,477.7287,1517.7934,489.0422,1506.4799,488.9713,1524.82,496.1575" style="stroke:#181818;stroke-width:2.0;"/></g><text fill="#888888" font-family="sans-serif" font-size="20" lengthAdjust="spacing" textLength="192" x="1278.5" y="689.1992">2024.03.27 at 11:37</text><text fill="#888888" font-family="sans-serif" font-size="20" lengthAdjust="spacing" textLength="336" x="1206.5" y="714.3555">global_analysis_methodology.puml</text><!--SRC=[ZLHDZzem4BtxLuoGqEv6V1Ia7hg7LXIqh5hObNQfUgc4J3n9N1mRsGPAF_vxnmwGXR9ISqeyy-QDtvk9Ixb2w3Etb7h5BI_1Iw_mex42xPDPQp4qLgE5tjlBERD2fakDphrMP6YKiM1H_1FcwJAt5KL8cPcIUyCOYr4OAxFW2gR6IwDXeBdQEUdWDvq8L3323IgpAb5x-ARXAygyy2XWi47BSuGf-i88giPMn1DEncXAz5QYWryiDUNAw01k9CdTy-mGtIK9bPk4OYsuMolLWdTlce0-xJI0Ew3K-VXGvxJAv66S9369tav3ZxuW2P-zNQT-RT55al3fNGj6l5mXITo2JzGf-a0MoqJKl4OnzeSnRJo23VqneEU1FjrjV0rFZtT3YptWMeINFkJ7MzT9YoxqGvFWvC-NvsctuWHtv2GHv0-IrIo-O-fT5A86Y2vCkPKQWOpS-WAsqOOF38a-T5ghtzZRnZsFboi5kK21emEk6mKCPlQSXpWxC35SmDFWaVheKyajto08ApCFYYAjwBoaG6emooWfNLiRIbRVHyVAm3qNn5rJHlahlYzEwXnua5KAK58l8p9cr83AdGenS7jTZkv4H9LIGmxMlgJHHhU90hc5uTfkAk0XyVyS7g6JkOPm7t0hYrou0cbml0dYa4HBt86Gj1kETeTagMnnSIhY1g97UpeGdmcI6b9TQkxFXYB4Q7LfMY6ZHLqOSfehHUNsIncdelRyP4cWtNv_RaAOlGl7vmCVSw8BS3bsaEsLy7wVw1-G6MhCiYRHu7LZHqzdEkq8SGNSmzNz_MrPDcvOCvCADQbpVHDliqVz1G00]--></g></svg>