<svg xmlns="http://www.w3.org/2000/svg" width="280" height="200" viewBox="0 0 280 200">
<rect width="280" height="200" fill="#ffffff"/>
<text x="140.0" y="18.0" font-family="sans-serif" font-size="13" font-weight="bold" fill="#c62828" text-anchor="middle">Bent Barrel</text>
<text x="140.0" y="30.0" font-family="sans-serif" font-size="8" font-weight="normal" fill="#c62828" text-anchor="middle">[Tier 3 — Mechanical &amp; Environmental]</text>
<rect x="45.0" y="35.0" width="220.0" height="120.0" stroke="#666666" stroke-width="1.0" fill="none"/>
<line x1="45.0" y1="35.0" x2="45.0" y2="155.0" stroke="#e0e0e0" stroke-width="0.5" fill="none"/>
<text x="45.0" y="169.0" font-family="sans-serif" font-size="8" font-weight="normal" fill="#333333" text-anchor="middle">-6</text>
<line x1="118.3" y1="35.0" x2="118.3" y2="155.0" stroke="#e0e0e0" stroke-width="0.5" fill="none"/>
<text x="118.3" y="169.0" font-family="sans-serif" font-size="8" font-weight="normal" fill="#333333" text-anchor="middle">36</text>
<line x1="191.7" y1="35.0" x2="191.7" y2="155.0" stroke="#e0e0e0" stroke-width="0.5" fill="none"/>
<text x="191.7" y="169.0" font-family="sans-serif" font-size="8" font-weight="normal" fill="#333333" text-anchor="middle">78</text>
<line x1="265.0" y1="35.0" x2="265.0" y2="155.0" stroke="#e0e0e0" stroke-width="0.5" fill="none"/>
<text x="265.0" y="169.0" font-family="sans-serif" font-size="8" font-weight="normal" fill="#333333" text-anchor="middle">120</text>
<line x1="45.0" y1="155.0" x2="265.0" y2="155.0" stroke="#e0e0e0" stroke-width="0.5" fill="none"/>
<text x="41.0" y="158.0" font-family="sans-serif" font-size="8" font-weight="normal" fill="#333333" text-anchor="end">3040</text>
<line x1="45.0" y1="115.0" x2="265.0" y2="115.0" stroke="#e0e0e0" stroke-width="0.5" fill="none"/>
<text x="41.0" y="118.0" font-family="sans-serif" font-size="8" font-weight="normal" fill="#333333" text-anchor="end">8273</text>
<line x1="45.0" y1="75.0" x2="265.0" y2="75.0" stroke="#e0e0e0" stroke-width="0.5" fill="none"/>
<text x="41.0" y="78.0" font-family="sans-serif" font-size="8" font-weight="normal" fill="#333333" text-anchor="end">13506</text>
<line x1="45.0" y1="35.0" x2="265.0" y2="35.0" stroke="#e0e0e0" stroke-width="0.5" fill="none"/>
<text x="41.0" y="38.0" font-family="sans-serif" font-size="8" font-weight="normal" fill="#333333" text-anchor="end">18738</text>
<text x="155.0" y="181.0" font-family="sans-serif" font-size="9" font-weight="normal" fill="#333333" text-anchor="middle">Position (in)</text>
<text x="15.0" y="95.0" font-family="sans-serif" font-size="9" font-weight="normal" fill="#333333" text-anchor="middle" transform="rotate(-90,15.0,95.0)">Load (lbs)</text>
<polygon points="55.0,125.9 55.2,109.3 55.8,86.6 56.8,62.6 58.3,41.9 60.1,41.5 62.3,43.2 64.9,40.5 67.9,40.9 71.2,42.5 74.9,41.0 78.9,42.6 83.2,45.3 87.8,43.6 92.7,46.4 97.8,43.8 103.2,45.9 108.7,46.7 114.5,48.1 120.5,45.4 126.5,48.4 132.7,49.5 139.0,50.0 145.4,49.1 151.8,50.1 158.2,50.6 164.6,51.2 171.0,48.9 177.3,53.9 183.5,54.8 189.5,55.9 195.5,54.0 201.3,53.7 206.8,56.4 212.2,58.2 217.3,58.7 222.2,56.6 226.8,56.9 231.1,57.7 235.1,60.2 238.8,59.0 242.1,59.5 245.1,59.7 247.7,58.8 249.9,60.1 251.7,59.5 253.2,60.7 254.2,60.5 254.8,59.9 255.0,63.6 255.0,61.6 254.8,83.5 254.2,105.4 253.2,126.3 251.7,144.7 249.9,148.6 247.7,145.2 245.1,149.5 242.1,146.9 238.8,145.7 235.1,144.6 231.1,144.0 226.8,143.4 222.2,144.9 217.3,144.6 212.2,141.8 206.8,143.1 201.3,144.4 195.5,143.6 189.5,142.7 183.5,139.6 177.3,139.6 171.0,138.0 164.6,139.3 158.2,137.6 151.8,136.2 145.4,137.2 139.0,135.2 132.7,136.5 126.5,135.4 120.5,134.8 114.5,135.6 108.7,132.1 103.2,133.2 97.8,131.8 92.7,130.5 87.8,130.1 83.2,129.2 78.9,130.1 74.9,130.3 71.2,129.3 67.9,131.8 64.9,131.1 62.3,130.6 60.1,129.8 58.3,127.2 56.8,129.3 55.8,128.3 55.2,125.3 55.0,128.2" stroke="#1a3a5c" stroke-width="2.0" fill="none"/>
</svg>