<svg xmlns="http://www.w3.org/2000/svg" width="280" height="200" viewBox="0 0 280 200">
<rect width="280" height="200" fill="#ffffff"/>
<text x="140.0" y="18.0" font-family="sans-serif" font-size="13" font-weight="bold" fill="#f57f17" text-anchor="middle">Delayed TV Closure</text>
<text x="140.0" y="30.0" font-family="sans-serif" font-size="8" font-weight="normal" fill="#f57f17" text-anchor="middle">[Tier 2 — Common Field Failures]</text>
<rect x="45.0" y="35.0" width="220.0" height="120.0" stroke="#666666" stroke-width="1.0" fill="none"/>
<line x1="45.0" y1="35.0" x2="45.0" y2="155.0" stroke="#e0e0e0" stroke-width="0.5" fill="none"/>
<text x="45.0" y="169.0" font-family="sans-serif" font-size="8" font-weight="normal" fill="#333333" text-anchor="middle">-6</text>
<line x1="118.3" y1="35.0" x2="118.3" y2="155.0" stroke="#e0e0e0" stroke-width="0.5" fill="none"/>
<text x="118.3" y="169.0" font-family="sans-serif" font-size="8" font-weight="normal" fill="#333333" text-anchor="middle">36</text>
<line x1="191.7" y1="35.0" x2="191.7" y2="155.0" stroke="#e0e0e0" stroke-width="0.5" fill="none"/>
<text x="191.7" y="169.0" font-family="sans-serif" font-size="8" font-weight="normal" fill="#333333" text-anchor="middle">78</text>
<line x1="265.0" y1="35.0" x2="265.0" y2="155.0" stroke="#e0e0e0" stroke-width="0.5" fill="none"/>
<text x="265.0" y="169.0" font-family="sans-serif" font-size="8" font-weight="normal" fill="#333333" text-anchor="middle">120</text>
<line x1="45.0" y1="155.0" x2="265.0" y2="155.0" stroke="#e0e0e0" stroke-width="0.5" fill="none"/>
<text x="41.0" y="158.0" font-family="sans-serif" font-size="8" font-weight="normal" fill="#333333" text-anchor="end">4325</text>
<line x1="45.0" y1="115.0" x2="265.0" y2="115.0" stroke="#e0e0e0" stroke-width="0.5" fill="none"/>
<text x="41.0" y="118.0" font-family="sans-serif" font-size="8" font-weight="normal" fill="#333333" text-anchor="end">8796</text>
<line x1="45.0" y1="75.0" x2="265.0" y2="75.0" stroke="#e0e0e0" stroke-width="0.5" fill="none"/>
<text x="41.0" y="78.0" font-family="sans-serif" font-size="8" font-weight="normal" fill="#333333" text-anchor="end">13267</text>
<line x1="45.0" y1="35.0" x2="265.0" y2="35.0" stroke="#e0e0e0" stroke-width="0.5" fill="none"/>
<text x="41.0" y="38.0" font-family="sans-serif" font-size="8" font-weight="normal" fill="#333333" text-anchor="end">17739</text>
<text x="155.0" y="181.0" font-family="sans-serif" font-size="9" font-weight="normal" fill="#333333" text-anchor="middle">Position (in)</text>
<text x="15.0" y="95.0" font-family="sans-serif" font-size="9" font-weight="normal" fill="#333333" text-anchor="middle" transform="rotate(-90,15.0,95.0)">Load (lbs)</text>
<polygon points="55.0,146.1 55.2,134.9 55.8,126.2 56.8,119.4 58.3,114.1 60.1,110.0 62.3,106.8 64.9,104.3 67.9,102.3 71.2,100.8 74.9,99.6 78.9,98.7 83.2,98.0 87.8,44.0 92.7,46.7 97.8,43.0 103.2,44.9 108.7,45.2 114.5,46.2 120.5,42.3 126.5,45.1 132.7,45.7 139.0,45.5 145.4,43.7 151.8,44.1 158.2,44.0 164.6,43.9 171.0,40.5 177.3,45.6 183.5,45.8 189.5,46.4 195.5,43.5 201.3,42.5 206.8,45.0 212.2,46.5 217.3,46.5 222.2,43.5 226.8,43.3 231.1,43.7 235.1,46.1 238.8,44.3 242.1,44.6 245.1,44.4 247.7,43.0 249.9,44.3 251.7,43.4 253.2,44.7 254.2,44.2 254.8,43.5 255.0,47.7 255.0,45.4 254.8,71.1 254.2,96.8 253.2,121.4 251.7,143.1 249.9,147.9 247.7,144.2 245.1,149.5 242.1,146.8 238.8,145.8 235.1,144.9 231.1,144.7 226.8,144.5 222.2,146.8 217.3,147.1 212.2,144.4 206.8,146.5 201.3,148.7 195.5,148.4 189.5,148.0 183.5,145.1 177.3,145.8 171.0,144.7 164.6,147.0 158.2,145.8 151.8,144.9 145.4,146.8 139.0,145.2 132.7,147.5 126.5,146.9 120.5,146.9 114.5,148.5 108.7,145.1 103.2,147.1 97.8,146.1 92.7,145.2 87.8,145.2 83.2,144.8 78.9,146.3 74.9,147.0 71.2,146.3 67.9,149.5 64.9,149.1 62.3,148.8 60.1,148.1 58.3,145.3 56.8,148.0 55.8,146.9 55.2,143.5 55.0,146.8" stroke="#1a3a5c" stroke-width="2.0" fill="none"/>
</svg>