<svg xmlns="http://www.w3.org/2000/svg" width="280" height="200" viewBox="0 0 280 200">
<rect width="280" height="200" fill="#ffffff"/>
<text x="140.0" y="18.0" font-family="sans-serif" font-size="13" font-weight="bold" fill="#c62828" text-anchor="middle">Excessive Vibration</text>
<text x="140.0" y="30.0" font-family="sans-serif" font-size="8" font-weight="normal" fill="#c62828" text-anchor="middle">[Tier 3 — Mechanical &amp; Environmental]</text>
<rect x="45.0" y="35.0" width="220.0" height="120.0" stroke="#666666" stroke-width="1.0" fill="none"/>
<line x1="45.0" y1="35.0" x2="45.0" y2="155.0" stroke="#e0e0e0" stroke-width="0.5" fill="none"/>
<text x="45.0" y="169.0" font-family="sans-serif" font-size="8" font-weight="normal" fill="#333333" text-anchor="middle">-6</text>
<line x1="118.3" y1="35.0" x2="118.3" y2="155.0" stroke="#e0e0e0" stroke-width="0.5" fill="none"/>
<text x="118.3" y="169.0" font-family="sans-serif" font-size="8" font-weight="normal" fill="#333333" text-anchor="middle">36</text>
<line x1="191.7" y1="35.0" x2="191.7" y2="155.0" stroke="#e0e0e0" stroke-width="0.5" fill="none"/>
<text x="191.7" y="169.0" font-family="sans-serif" font-size="8" font-weight="normal" fill="#333333" text-anchor="middle">78</text>
<line x1="265.0" y1="35.0" x2="265.0" y2="155.0" stroke="#e0e0e0" stroke-width="0.5" fill="none"/>
<text x="265.0" y="169.0" font-family="sans-serif" font-size="8" font-weight="normal" fill="#333333" text-anchor="middle">120</text>
<line x1="45.0" y1="155.0" x2="265.0" y2="155.0" stroke="#e0e0e0" stroke-width="0.5" fill="none"/>
<text x="41.0" y="158.0" font-family="sans-serif" font-size="8" font-weight="normal" fill="#333333" text-anchor="end">2579</text>
<line x1="45.0" y1="115.0" x2="265.0" y2="115.0" stroke="#e0e0e0" stroke-width="0.5" fill="none"/>
<text x="41.0" y="118.0" font-family="sans-serif" font-size="8" font-weight="normal" fill="#333333" text-anchor="end">8170</text>
<line x1="45.0" y1="75.0" x2="265.0" y2="75.0" stroke="#e0e0e0" stroke-width="0.5" fill="none"/>
<text x="41.0" y="78.0" font-family="sans-serif" font-size="8" font-weight="normal" fill="#333333" text-anchor="end">13761</text>
<line x1="45.0" y1="35.0" x2="265.0" y2="35.0" stroke="#e0e0e0" stroke-width="0.5" fill="none"/>
<text x="41.0" y="38.0" font-family="sans-serif" font-size="8" font-weight="normal" fill="#333333" text-anchor="end">19353</text>
<text x="155.0" y="181.0" font-family="sans-serif" font-size="9" font-weight="normal" fill="#333333" text-anchor="middle">Position (in)</text>
<text x="15.0" y="95.0" font-family="sans-serif" font-size="9" font-weight="normal" fill="#333333" text-anchor="middle" transform="rotate(-90,15.0,95.0)">Load (lbs)</text>
<polygon points="55.0,134.6 55.2,108.5 55.8,82.8 56.8,62.0 58.3,47.8 60.1,56.1 62.3,64.6 64.9,67.1 67.9,65.6 71.2,59.6 74.9,50.0 78.9,43.3 83.2,41.5 87.8,43.2 92.7,51.5 97.8,58.7 103.2,66.1 108.7,68.0 114.5,64.7 120.5,55.3 126.5,47.9 132.7,42.3 139.0,41.5 145.4,45.5 151.8,53.9 158.2,62.1 164.6,67.1 171.0,65.3 177.3,61.7 183.5,53.3 189.5,45.6 195.5,40.5 201.3,41.5 206.8,49.0 212.2,58.3 217.3,65.6 222.2,67.4 226.8,64.8 231.1,57.8 235.1,50.1 238.8,42.6 242.1,40.8 245.1,44.3 247.7,51.5 249.9,60.6 251.7,66.2 253.2,67.6 254.2,62.8 254.8,54.3 255.0,47.7 255.0,41.6 254.8,62.3 254.2,88.2 253.2,116.6 251.7,143.4 249.9,149.5 247.7,146.7 245.1,142.5 242.1,132.7 238.8,124.9 235.1,121.4 231.1,123.7 226.8,130.7 222.2,140.3 217.3,147.2 212.2,148.3 206.8,145.6 201.3,138.9 195.5,130.1 189.5,123.9 183.5,121.7 177.3,126.5 171.0,134.2 164.6,143.5 158.2,148.2 151.8,147.7 145.4,143.1 139.0,134.0 132.7,126.9 126.5,122.4 120.5,123.6 114.5,130.5 108.7,137.8 103.2,146.1 97.8,149.0 92.7,146.3 87.8,139.4 83.2,130.5 78.9,124.2 74.9,122.2 71.2,125.3 67.9,134.1 64.9,142.6 62.3,148.7 60.1,149.5 58.3,144.1 56.8,137.1 55.8,128.2 55.2,121.5 55.0,122.8" stroke="#1a3a5c" stroke-width="2.0" fill="none"/>
</svg>