<svg xmlns="http://www.w3.org/2000/svg" width="280" height="200" viewBox="0 0 280 200">
<rect width="280" height="200" fill="#ffffff"/>
<text x="140.0" y="18.0" font-family="sans-serif" font-size="13" font-weight="bold" fill="#c62828" text-anchor="middle">Excessive Friction</text>
<text x="140.0" y="30.0" font-family="sans-serif" font-size="8" font-weight="normal" fill="#c62828" text-anchor="middle">[Tier 3 — Mechanical &amp; Environmental]</text>
<rect x="45.0" y="35.0" width="220.0" height="120.0" stroke="#666666" stroke-width="1.0" fill="none"/>
<line x1="45.0" y1="35.0" x2="45.0" y2="155.0" stroke="#e0e0e0" stroke-width="0.5" fill="none"/>
<text x="45.0" y="169.0" font-family="sans-serif" font-size="8" font-weight="normal" fill="#333333" text-anchor="middle">-6</text>
<line x1="118.3" y1="35.0" x2="118.3" y2="155.0" stroke="#e0e0e0" stroke-width="0.5" fill="none"/>
<text x="118.3" y="169.0" font-family="sans-serif" font-size="8" font-weight="normal" fill="#333333" text-anchor="middle">36</text>
<line x1="191.7" y1="35.0" x2="191.7" y2="155.0" stroke="#e0e0e0" stroke-width="0.5" fill="none"/>
<text x="191.7" y="169.0" font-family="sans-serif" font-size="8" font-weight="normal" fill="#333333" text-anchor="middle">78</text>
<line x1="265.0" y1="35.0" x2="265.0" y2="155.0" stroke="#e0e0e0" stroke-width="0.5" fill="none"/>
<text x="265.0" y="169.0" font-family="sans-serif" font-size="8" font-weight="normal" fill="#333333" text-anchor="middle">120</text>
<line x1="45.0" y1="155.0" x2="265.0" y2="155.0" stroke="#e0e0e0" stroke-width="0.5" fill="none"/>
<text x="41.0" y="158.0" font-family="sans-serif" font-size="8" font-weight="normal" fill="#333333" text-anchor="end">703</text>
<line x1="45.0" y1="115.0" x2="265.0" y2="115.0" stroke="#e0e0e0" stroke-width="0.5" fill="none"/>
<text x="41.0" y="118.0" font-family="sans-serif" font-size="8" font-weight="normal" fill="#333333" text-anchor="end">7589</text>
<line x1="45.0" y1="75.0" x2="265.0" y2="75.0" stroke="#e0e0e0" stroke-width="0.5" fill="none"/>
<text x="41.0" y="78.0" font-family="sans-serif" font-size="8" font-weight="normal" fill="#333333" text-anchor="end">14474</text>
<line x1="45.0" y1="35.0" x2="265.0" y2="35.0" stroke="#e0e0e0" stroke-width="0.5" fill="none"/>
<text x="41.0" y="38.0" font-family="sans-serif" font-size="8" font-weight="normal" fill="#333333" text-anchor="end">21360</text>
<text x="155.0" y="181.0" font-family="sans-serif" font-size="9" font-weight="normal" fill="#333333" text-anchor="middle">Position (in)</text>
<text x="15.0" y="95.0" font-family="sans-serif" font-size="9" font-weight="normal" fill="#333333" text-anchor="middle" transform="rotate(-90,15.0,95.0)">Load (lbs)</text>
<polygon points="55.0,107.8 55.2,95.2 55.8,77.9 56.8,59.6 58.3,43.7 60.1,43.3 62.3,44.4 64.9,42.1 67.9,42.2 71.2,43.2 74.9,41.8 78.9,42.7 83.2,44.4 87.8,42.8 92.7,44.5 97.8,42.1 103.2,43.3 108.7,43.5 114.5,44.2 120.5,41.7 126.5,43.5 132.7,43.8 139.0,43.7 145.4,42.6 151.8,42.8 158.2,42.7 164.6,42.7 171.0,40.5 177.3,43.8 183.5,43.9 189.5,44.3 195.5,42.5 201.3,41.8 206.8,43.4 212.2,44.4 217.3,44.4 222.2,42.4 226.8,42.3 231.1,42.6 235.1,44.1 238.8,43.0 242.1,43.1 245.1,43.0 247.7,42.1 249.9,43.0 251.7,42.4 253.2,43.2 254.2,42.9 254.8,42.4 255.0,45.2 255.0,81.9 254.8,98.6 254.2,115.3 253.2,131.2 251.7,145.4 249.9,148.5 247.7,146.1 245.1,149.5 242.1,147.8 238.8,147.1 235.1,146.6 231.1,146.4 226.8,146.3 222.2,147.8 217.3,147.9 212.2,146.2 206.8,147.6 201.3,149.0 195.5,148.8 189.5,148.5 183.5,146.7 177.3,147.1 171.0,146.4 164.6,147.9 158.2,147.1 151.8,146.5 145.4,147.7 139.0,146.7 132.7,148.2 126.5,147.8 120.5,147.8 114.5,148.9 108.7,146.7 103.2,147.9 97.8,147.3 92.7,146.7 87.8,146.7 83.2,146.4 78.9,147.5 74.9,147.9 71.2,147.4 67.9,149.5 64.9,149.2 62.3,149.1 60.1,148.6 58.3,146.8 56.8,148.5 55.8,147.8 55.2,145.6 55.0,147.8" stroke="#1a3a5c" stroke-width="2.0" fill="none"/>
</svg>