<svg xmlns="http://www.w3.org/2000/svg" width="280" height="200" viewBox="0 0 280 200">
<rect width="280" height="200" fill="#ffffff"/>
<text x="140.0" y="18.0" font-family="sans-serif" font-size="13" font-weight="bold" fill="#2e7d32" text-anchor="middle">Gas Interference</text>
<text x="140.0" y="30.0" font-family="sans-serif" font-size="8" font-weight="normal" fill="#2e7d32" text-anchor="middle">[Tier 1 — Core Conditions]</text>
<rect x="45.0" y="35.0" width="220.0" height="120.0" stroke="#666666" stroke-width="1.0" fill="none"/>
<line x1="45.0" y1="35.0" x2="45.0" y2="155.0" stroke="#e0e0e0" stroke-width="0.5" fill="none"/>
<text x="45.0" y="169.0" font-family="sans-serif" font-size="8" font-weight="normal" fill="#333333" text-anchor="middle">-6</text>
<line x1="118.3" y1="35.0" x2="118.3" y2="155.0" stroke="#e0e0e0" stroke-width="0.5" fill="none"/>
<text x="118.3" y="169.0" font-family="sans-serif" font-size="8" font-weight="normal" fill="#333333" text-anchor="middle">36</text>
<line x1="191.7" y1="35.0" x2="191.7" y2="155.0" stroke="#e0e0e0" stroke-width="0.5" fill="none"/>
<text x="191.7" y="169.0" font-family="sans-serif" font-size="8" font-weight="normal" fill="#333333" text-anchor="middle">78</text>
<line x1="265.0" y1="35.0" x2="265.0" y2="155.0" stroke="#e0e0e0" stroke-width="0.5" fill="none"/>
<text x="265.0" y="169.0" font-family="sans-serif" font-size="8" font-weight="normal" fill="#333333" text-anchor="middle">120</text>
<line x1="45.0" y1="155.0" x2="265.0" y2="155.0" stroke="#e0e0e0" stroke-width="0.5" fill="none"/>
<text x="41.0" y="158.0" font-family="sans-serif" font-size="8" font-weight="normal" fill="#333333" text-anchor="end">-1558</text>
<line x1="45.0" y1="115.0" x2="265.0" y2="115.0" stroke="#e0e0e0" stroke-width="0.5" fill="none"/>
<text x="41.0" y="118.0" font-family="sans-serif" font-size="8" font-weight="normal" fill="#333333" text-anchor="end">4298</text>
<line x1="45.0" y1="75.0" x2="265.0" y2="75.0" stroke="#e0e0e0" stroke-width="0.5" fill="none"/>
<text x="41.0" y="78.0" font-family="sans-serif" font-size="8" font-weight="normal" fill="#333333" text-anchor="end">10154</text>
<line x1="45.0" y1="35.0" x2="265.0" y2="35.0" stroke="#e0e0e0" stroke-width="0.5" fill="none"/>
<text x="41.0" y="38.0" font-family="sans-serif" font-size="8" font-weight="normal" fill="#333333" text-anchor="end">16011</text>
<text x="155.0" y="181.0" font-family="sans-serif" font-size="9" font-weight="normal" fill="#333333" text-anchor="middle">Position (in)</text>
<text x="15.0" y="95.0" font-family="sans-serif" font-size="9" font-weight="normal" fill="#333333" text-anchor="middle" transform="rotate(-90,15.0,95.0)">Load (lbs)</text>
<polygon points="55.0,133.2 55.2,115.8 55.8,92.0 56.8,66.8 58.3,44.9 60.1,44.4 62.3,45.9 64.9,42.7 67.9,42.9 71.2,44.2 74.9,42.3 78.9,43.5 83.2,45.9 87.8,43.7 92.7,46.1 97.8,42.7 103.2,44.4 108.7,44.7 114.5,45.6 120.5,42.1 126.5,44.6 132.7,45.1 139.0,45.0 145.4,43.4 151.8,43.7 158.2,43.6 164.6,43.6 171.0,40.5 177.3,45.1 183.5,45.3 189.5,45.8 195.5,43.2 201.3,42.3 206.8,44.5 212.2,45.9 217.3,45.8 222.2,43.2 226.8,43.0 231.1,43.4 235.1,45.5 238.8,43.9 242.1,44.1 245.1,43.9 247.7,42.8 249.9,43.9 251.7,43.1 253.2,44.2 254.2,43.8 254.8,43.2 255.0,47.0 255.0,44.9 254.8,68.7 254.2,92.5 253.2,115.4 251.7,135.7 249.9,140.8 247.7,138.3 245.1,143.9 242.1,142.2 238.8,142.1 235.1,142.0 231.1,142.5 226.8,143.0 222.2,145.6 217.3,146.4 212.2,144.5 206.8,146.9 201.3,149.3 195.5,149.4 189.5,149.4 183.5,147.1 177.3,147.9 171.0,147.1 164.6,149.3 158.2,148.2 151.8,147.4 145.4,149.0 139.0,147.5 132.7,149.4 126.5,148.6 120.5,148.4 114.5,149.5 108.7,146.1 103.2,147.4 97.8,146.1 92.7,144.7 87.8,144.2 83.2,143.2 78.9,143.9 74.9,143.8 71.2,142.5 67.9,144.7 64.9,143.5 62.3,142.4 60.1,141.0 58.3,137.7 56.8,139.2 55.8,137.4 55.2,133.5 55.0,135.6" stroke="#1a3a5c" stroke-width="2.0" fill="none"/>
</svg>