<svg xmlns="http://www.w3.org/2000/svg" width="280" height="200" viewBox="0 0 280 200">
<rect width="280" height="200" fill="#ffffff"/>
<text x="140.0" y="18.0" font-family="sans-serif" font-size="13" font-weight="bold" fill="#f57f17" text-anchor="middle">Gas Lock</text>
<text x="140.0" y="30.0" font-family="sans-serif" font-size="8" font-weight="normal" fill="#f57f17" text-anchor="middle">[Tier 2 — Common Field Failures]</text>
<rect x="45.0" y="35.0" width="220.0" height="120.0" stroke="#666666" stroke-width="1.0" fill="none"/>
<line x1="45.0" y1="35.0" x2="45.0" y2="155.0" stroke="#e0e0e0" stroke-width="0.5" fill="none"/>
<text x="45.0" y="169.0" font-family="sans-serif" font-size="8" font-weight="normal" fill="#333333" text-anchor="middle">-6</text>
<line x1="118.3" y1="35.0" x2="118.3" y2="155.0" stroke="#e0e0e0" stroke-width="0.5" fill="none"/>
<text x="118.3" y="169.0" font-family="sans-serif" font-size="8" font-weight="normal" fill="#333333" text-anchor="middle">35</text>
<line x1="191.7" y1="35.0" x2="191.7" y2="155.0" stroke="#e0e0e0" stroke-width="0.5" fill="none"/>
<text x="191.7" y="169.0" font-family="sans-serif" font-size="8" font-weight="normal" fill="#333333" text-anchor="middle">76</text>
<line x1="265.0" y1="35.0" x2="265.0" y2="155.0" stroke="#e0e0e0" stroke-width="0.5" fill="none"/>
<text x="265.0" y="169.0" font-family="sans-serif" font-size="8" font-weight="normal" fill="#333333" text-anchor="middle">116</text>
<line x1="45.0" y1="155.0" x2="265.0" y2="155.0" stroke="#e0e0e0" stroke-width="0.5" fill="none"/>
<text x="41.0" y="158.0" font-family="sans-serif" font-size="8" font-weight="normal" fill="#333333" text-anchor="end">858</text>
<line x1="45.0" y1="115.0" x2="265.0" y2="115.0" stroke="#e0e0e0" stroke-width="0.5" fill="none"/>
<text x="41.0" y="118.0" font-family="sans-serif" font-size="8" font-weight="normal" fill="#333333" text-anchor="end">1564</text>
<line x1="45.0" y1="75.0" x2="265.0" y2="75.0" stroke="#e0e0e0" stroke-width="0.5" fill="none"/>
<text x="41.0" y="78.0" font-family="sans-serif" font-size="8" font-weight="normal" fill="#333333" text-anchor="end">2271</text>
<line x1="45.0" y1="35.0" x2="265.0" y2="35.0" stroke="#e0e0e0" stroke-width="0.5" fill="none"/>
<text x="41.0" y="38.0" font-family="sans-serif" font-size="8" font-weight="normal" fill="#333333" text-anchor="end">2977</text>
<text x="155.0" y="181.0" font-family="sans-serif" font-size="9" font-weight="normal" fill="#333333" text-anchor="middle">Position (in)</text>
<text x="15.0" y="95.0" font-family="sans-serif" font-size="9" font-weight="normal" fill="#333333" text-anchor="middle" transform="rotate(-90,15.0,95.0)">Load (lbs)</text>
<polygon points="55.0,94.6 55.2,99.5 55.8,94.5 56.8,87.2 58.2,85.3 60.0,81.4 62.2,80.7 64.7,72.8 67.6,70.2 70.9,69.5 74.5,63.8 78.4,63.1 82.6,64.5 87.2,58.7 92.0,60.4 97.0,53.2 102.3,54.0 107.8,52.8 113.5,52.8 119.3,46.1 125.3,48.9 131.4,48.9 137.7,48.0 143.9,45.0 150.3,45.2 156.6,45.0 163.0,45.2 169.3,40.7 175.5,48.4 181.7,49.5 187.7,51.3 193.7,48.4 199.4,48.3 205.0,53.4 210.4,57.1 215.6,59.0 220.5,56.8 225.2,58.8 229.6,61.7 233.7,67.6 237.4,67.6 240.8,70.7 243.9,73.2 246.7,74.3 249.0,79.2 251.0,80.9 252.6,85.8 253.8,88.4 254.6,90.6 255.0,99.8 255.0,99.8 254.6,103.4 253.8,107.1 252.6,109.3 251.0,107.4 249.0,117.2 246.7,115.0 243.9,125.4 240.8,124.4 237.4,125.7 233.7,127.1 229.6,129.3 225.2,131.4 220.5,136.8 215.6,139.2 210.4,137.3 205.0,142.0 199.4,146.6 193.7,147.5 187.7,148.1 181.7,145.0 175.5,146.8 169.3,145.8 163.0,149.3 156.6,147.8 150.3,146.5 143.9,148.8 137.7,146.2 131.4,148.7 125.3,147.0 119.3,146.0 113.5,147.1 107.8,140.9 102.3,141.9 97.0,138.8 92.0,135.5 87.2,133.5 82.6,130.6 78.4,130.3 74.5,128.7 70.9,125.1 67.6,126.8 64.7,123.3 62.2,120.0 60.0,116.0 58.2,108.9 56.8,109.5 55.8,104.8 55.2,96.8 55.0,98.3" stroke="#1a3a5c" stroke-width="2.0" fill="none"/>
</svg>