<svg xmlns="http://www.w3.org/2000/svg" width="280" height="200" viewBox="0 0 280 200">
<rect width="280" height="200" fill="#ffffff"/>
<text x="140.0" y="18.0" font-family="sans-serif" font-size="13" font-weight="bold" fill="#c62828" text-anchor="middle">Paraffin Restriction</text>
<text x="140.0" y="30.0" font-family="sans-serif" font-size="8" font-weight="normal" fill="#c62828" text-anchor="middle">[Tier 3 — Mechanical &amp; Environmental]</text>
<rect x="45.0" y="35.0" width="220.0" height="120.0" stroke="#666666" stroke-width="1.0" fill="none"/>
<line x1="45.0" y1="35.0" x2="45.0" y2="155.0" stroke="#e0e0e0" stroke-width="0.5" fill="none"/>
<text x="45.0" y="169.0" font-family="sans-serif" font-size="8" font-weight="normal" fill="#333333" text-anchor="middle">-6</text>
<line x1="118.3" y1="35.0" x2="118.3" y2="155.0" stroke="#e0e0e0" stroke-width="0.5" fill="none"/>
<text x="118.3" y="169.0" font-family="sans-serif" font-size="8" font-weight="normal" fill="#333333" text-anchor="middle">36</text>
<line x1="191.7" y1="35.0" x2="191.7" y2="155.0" stroke="#e0e0e0" stroke-width="0.5" fill="none"/>
<text x="191.7" y="169.0" font-family="sans-serif" font-size="8" font-weight="normal" fill="#333333" text-anchor="middle">78</text>
<line x1="265.0" y1="35.0" x2="265.0" y2="155.0" stroke="#e0e0e0" stroke-width="0.5" fill="none"/>
<text x="265.0" y="169.0" font-family="sans-serif" font-size="8" font-weight="normal" fill="#333333" text-anchor="middle">120</text>
<line x1="45.0" y1="155.0" x2="265.0" y2="155.0" stroke="#e0e0e0" stroke-width="0.5" fill="none"/>
<text x="41.0" y="158.0" font-family="sans-serif" font-size="8" font-weight="normal" fill="#333333" text-anchor="end">3340</text>
<line x1="45.0" y1="115.0" x2="265.0" y2="115.0" stroke="#e0e0e0" stroke-width="0.5" fill="none"/>
<text x="41.0" y="118.0" font-family="sans-serif" font-size="8" font-weight="normal" fill="#333333" text-anchor="end">7448</text>
<line x1="45.0" y1="75.0" x2="265.0" y2="75.0" stroke="#e0e0e0" stroke-width="0.5" fill="none"/>
<text x="41.0" y="78.0" font-family="sans-serif" font-size="8" font-weight="normal" fill="#333333" text-anchor="end">11555</text>
<line x1="45.0" y1="35.0" x2="265.0" y2="35.0" stroke="#e0e0e0" stroke-width="0.5" fill="none"/>
<text x="41.0" y="38.0" font-family="sans-serif" font-size="8" font-weight="normal" fill="#333333" text-anchor="end">15663</text>
<text x="155.0" y="181.0" font-family="sans-serif" font-size="9" font-weight="normal" fill="#333333" text-anchor="middle">Position (in)</text>
<text x="15.0" y="95.0" font-family="sans-serif" font-size="9" font-weight="normal" fill="#333333" text-anchor="middle" transform="rotate(-90,15.0,95.0)">Load (lbs)</text>
<polygon points="55.0,118.0 55.2,103.5 55.8,83.6 56.8,62.4 58.3,44.2 60.1,43.7 62.3,45.0 64.9,42.4 67.9,42.5 71.2,43.6 74.9,42.0 78.9,43.0 83.2,45.0 87.8,43.1 92.7,45.2 97.8,42.4 103.2,43.8 108.7,44.0 114.5,44.7 120.5,41.8 126.5,43.9 132.7,44.3 139.0,44.2 145.4,42.9 151.8,43.1 158.2,43.1 164.6,43.0 171.0,40.5 177.3,44.3 183.5,44.5 189.5,44.9 195.5,42.8 201.3,42.0 206.8,43.9 212.2,45.0 217.3,44.9 222.2,42.7 226.8,42.6 231.1,42.9 235.1,44.7 238.8,43.3 242.1,43.5 245.1,43.4 247.7,51.5 249.9,61.6 251.7,70.0 253.2,61.8 254.2,52.4 254.8,42.7 255.0,45.9 255.0,57.3 254.8,76.5 254.2,95.7 253.2,114.0 251.7,130.3 249.9,133.9 247.7,131.1 245.1,135.1 242.1,133.1 238.8,132.3 235.1,131.7 231.1,131.5 226.8,133.9 222.2,138.1 217.3,140.8 212.2,141.3 206.8,145.4 201.3,149.5 195.5,146.8 189.5,144.0 183.5,139.3 177.3,137.4 171.0,134.0 164.6,133.2 158.2,132.3 151.8,131.6 145.4,133.0 139.0,131.9 132.7,133.6 126.5,133.1 120.5,133.2 114.5,134.4 108.7,131.8 103.2,133.3 97.8,132.6 92.7,131.8 87.8,131.9 83.2,131.6 78.9,132.7 74.9,133.2 71.2,132.7 67.9,135.1 64.9,134.8 62.3,134.6 60.1,134.1 58.3,132.0 56.8,133.9 55.8,133.1 55.2,130.6 55.0,133.1" stroke="#1a3a5c" stroke-width="2.0" fill="none"/>
</svg>