<svg xmlns="http://www.w3.org/2000/svg" width="280" height="200" viewBox="0 0 280 200">
<rect width="280" height="200" fill="#ffffff"/>
<text x="140.0" y="18.0" font-family="sans-serif" font-size="13" font-weight="bold" fill="#f57f17" text-anchor="middle">Stuck Pump</text>
<text x="140.0" y="30.0" font-family="sans-serif" font-size="8" font-weight="normal" fill="#f57f17" text-anchor="middle">[Tier 2 — Common Field Failures]</text>
<rect x="45.0" y="35.0" width="220.0" height="120.0" stroke="#666666" stroke-width="1.0" fill="none"/>
<line x1="45.0" y1="35.0" x2="45.0" y2="155.0" stroke="#e0e0e0" stroke-width="0.5" fill="none"/>
<text x="45.0" y="169.0" font-family="sans-serif" font-size="8" font-weight="normal" fill="#333333" text-anchor="middle">-1</text>
<line x1="118.3" y1="35.0" x2="118.3" y2="155.0" stroke="#e0e0e0" stroke-width="0.5" fill="none"/>
<text x="118.3" y="169.0" font-family="sans-serif" font-size="8" font-weight="normal" fill="#333333" text-anchor="middle">2</text>
<line x1="191.7" y1="35.0" x2="191.7" y2="155.0" stroke="#e0e0e0" stroke-width="0.5" fill="none"/>
<text x="191.7" y="169.0" font-family="sans-serif" font-size="8" font-weight="normal" fill="#333333" text-anchor="middle">6</text>
<line x1="265.0" y1="35.0" x2="265.0" y2="155.0" stroke="#e0e0e0" stroke-width="0.5" fill="none"/>
<text x="265.0" y="169.0" font-family="sans-serif" font-size="8" font-weight="normal" fill="#333333" text-anchor="middle">9</text>
<line x1="45.0" y1="155.0" x2="265.0" y2="155.0" stroke="#e0e0e0" stroke-width="0.5" fill="none"/>
<text x="41.0" y="158.0" font-family="sans-serif" font-size="8" font-weight="normal" fill="#333333" text-anchor="end">8993</text>
<line x1="45.0" y1="115.0" x2="265.0" y2="115.0" stroke="#e0e0e0" stroke-width="0.5" fill="none"/>
<text x="41.0" y="118.0" font-family="sans-serif" font-size="8" font-weight="normal" fill="#333333" text-anchor="end">10486</text>
<line x1="45.0" y1="75.0" x2="265.0" y2="75.0" stroke="#e0e0e0" stroke-width="0.5" fill="none"/>
<text x="41.0" y="78.0" font-family="sans-serif" font-size="8" font-weight="normal" fill="#333333" text-anchor="end">11980</text>
<line x1="45.0" y1="35.0" x2="265.0" y2="35.0" stroke="#e0e0e0" stroke-width="0.5" fill="none"/>
<text x="41.0" y="38.0" font-family="sans-serif" font-size="8" font-weight="normal" fill="#333333" text-anchor="end">13474</text>
<text x="155.0" y="181.0" font-family="sans-serif" font-size="9" font-weight="normal" fill="#333333" text-anchor="middle">Position (in)</text>
<text x="15.0" y="95.0" font-family="sans-serif" font-size="9" font-weight="normal" fill="#333333" text-anchor="middle" transform="rotate(-90,15.0,95.0)">Load (lbs)</text>
<polygon points="66.6,94.3 66.8,106.7 67.3,100.2 68.2,89.6 69.4,89.0 71.0,84.5 72.9,86.1 75.2,74.0 77.7,71.9 80.6,73.1 83.8,64.9 87.3,66.0 91.0,70.9 95.0,62.2 99.3,67.3 103.7,55.6 108.4,58.9 113.3,58.1 118.3,59.4 123.5,48.0 128.8,54.4 134.2,55.1 139.7,54.1 145.2,48.9 150.8,49.5 156.4,49.2 162.0,49.3 167.6,40.5 173.1,54.6 178.6,55.9 183.9,58.4 189.2,51.9 194.3,50.4 199.2,58.5 204.0,64.0 208.6,65.6 212.9,59.6 217.1,61.2 220.9,64.5 224.5,73.3 227.9,70.9 230.9,74.1 233.6,76.2 236.0,75.5 238.1,81.7 239.9,82.2 241.3,88.4 242.3,90.2 243.1,91.4 243.4,105.6 243.4,102.5 243.1,106.4 242.3,110.3 241.3,111.3 239.9,104.8 238.1,120.3 236.0,113.3 233.6,130.3 230.9,125.7 227.9,125.6 224.5,125.8 220.9,127.4 217.1,129.2 212.9,137.4 208.6,139.9 204.0,134.6 199.2,141.8 194.3,149.0 189.2,149.5 183.9,149.5 178.6,142.8 173.1,145.4 167.6,143.0 162.0,149.3 156.4,146.3 150.8,143.8 145.2,148.6 139.7,144.0 134.2,149.4 128.8,147.0 123.5,146.1 118.3,149.3 113.3,138.9 108.4,142.5 103.7,138.2 99.3,133.9 95.0,132.1 91.0,128.8 87.3,130.6 83.8,130.0 80.6,125.6 77.7,131.6 75.2,127.6 72.9,124.2 71.0,119.6 69.4,109.2 68.2,113.2 67.3,107.4 66.8,95.4 66.6,101.2" stroke="#1a3a5c" stroke-width="2.0" fill="none"/>
</svg>