<svg xmlns="http://www.w3.org/2000/svg" width="280" height="200" viewBox="0 0 280 200">
<rect width="280" height="200" fill="#ffffff"/>
<text x="140.0" y="18.0" font-family="sans-serif" font-size="13" font-weight="bold" fill="#2e7d32" text-anchor="middle">Traveling Valve Leak</text>
<text x="140.0" y="30.0" font-family="sans-serif" font-size="8" font-weight="normal" fill="#2e7d32" text-anchor="middle">[Tier 1 — Core Conditions]</text>
<rect x="45.0" y="35.0" width="220.0" height="120.0" stroke="#666666" stroke-width="1.0" fill="none"/>
<line x1="45.0" y1="35.0" x2="45.0" y2="155.0" stroke="#e0e0e0" stroke-width="0.5" fill="none"/>
<text x="45.0" y="169.0" font-family="sans-serif" font-size="8" font-weight="normal" fill="#333333" text-anchor="middle">-6</text>
<line x1="118.3" y1="35.0" x2="118.3" y2="155.0" stroke="#e0e0e0" stroke-width="0.5" fill="none"/>
<text x="118.3" y="169.0" font-family="sans-serif" font-size="8" font-weight="normal" fill="#333333" text-anchor="middle">36</text>
<line x1="191.7" y1="35.0" x2="191.7" y2="155.0" stroke="#e0e0e0" stroke-width="0.5" fill="none"/>
<text x="191.7" y="169.0" font-family="sans-serif" font-size="8" font-weight="normal" fill="#333333" text-anchor="middle">78</text>
<line x1="265.0" y1="35.0" x2="265.0" y2="155.0" stroke="#e0e0e0" stroke-width="0.5" fill="none"/>
<text x="265.0" y="169.0" font-family="sans-serif" font-size="8" font-weight="normal" fill="#333333" text-anchor="middle">120</text>
<line x1="45.0" y1="155.0" x2="265.0" y2="155.0" stroke="#e0e0e0" stroke-width="0.5" fill="none"/>
<text x="41.0" y="158.0" font-family="sans-serif" font-size="8" font-weight="normal" fill="#333333" text-anchor="end">4353</text>
<line x1="45.0" y1="115.0" x2="265.0" y2="115.0" stroke="#e0e0e0" stroke-width="0.5" fill="none"/>
<text x="41.0" y="118.0" font-family="sans-serif" font-size="8" font-weight="normal" fill="#333333" text-anchor="end">8619</text>
<line x1="45.0" y1="75.0" x2="265.0" y2="75.0" stroke="#e0e0e0" stroke-width="0.5" fill="none"/>
<text x="41.0" y="78.0" font-family="sans-serif" font-size="8" font-weight="normal" fill="#333333" text-anchor="end">12886</text>
<line x1="45.0" y1="35.0" x2="265.0" y2="35.0" stroke="#e0e0e0" stroke-width="0.5" fill="none"/>
<text x="41.0" y="38.0" font-family="sans-serif" font-size="8" font-weight="normal" fill="#333333" text-anchor="end">17153</text>
<text x="155.0" y="181.0" font-family="sans-serif" font-size="9" font-weight="normal" fill="#333333" text-anchor="middle">Position (in)</text>
<text x="15.0" y="95.0" font-family="sans-serif" font-size="9" font-weight="normal" fill="#333333" text-anchor="middle" transform="rotate(-90,15.0,95.0)">Load (lbs)</text>
<polygon points="55.0,144.0 55.2,124.5 55.8,97.4 56.8,68.7 58.3,44.0 60.1,44.3 62.3,47.0 64.9,44.2 67.9,45.3 71.2,47.7 74.9,46.4 78.9,48.7 83.2,52.4 87.8,50.7 92.7,54.4 97.8,51.4 103.2,54.3 108.7,55.5 114.5,57.4 120.5,54.3 126.5,58.1 132.7,59.6 139.0,60.3 145.4,59.3 151.8,60.6 158.2,61.4 164.6,62.2 171.0,59.5 177.3,65.8 183.5,66.9 189.5,68.5 195.5,66.4 201.3,66.2 206.8,69.7 212.2,72.1 217.3,73.0 222.2,70.8 226.8,71.5 231.1,72.8 235.1,76.3 238.8,75.3 242.1,76.4 245.1,77.1 247.7,76.6 249.9,78.9 251.7,78.8 253.2,81.0 254.2,81.4 254.8,81.6 255.0,86.9 255.0,40.5 254.8,67.3 254.2,94.2 253.2,120.0 251.7,142.8 249.9,147.8 247.7,143.9 245.1,149.5 242.1,146.7 238.8,145.6 235.1,144.7 231.1,144.5 226.8,144.3 222.2,146.7 217.3,146.9 212.2,144.1 206.8,146.4 201.3,148.7 195.5,148.4 189.5,147.9 183.5,144.9 177.3,145.7 171.0,144.5 164.6,146.9 158.2,145.6 151.8,144.6 145.4,146.6 139.0,145.0 132.7,147.4 126.5,146.7 120.5,146.8 114.5,148.5 108.7,144.9 103.2,147.0 97.8,145.9 92.7,144.9 87.8,145.0 83.2,144.5 78.9,146.2 74.9,146.9 71.2,146.1 67.9,149.5 64.9,149.0 62.3,148.8 60.1,148.1 58.3,145.1 56.8,147.9 55.8,146.8 55.2,143.2 55.0,146.7" stroke="#1a3a5c" stroke-width="2.0" fill="none"/>
</svg>