<svg xmlns="http://www.w3.org/2000/svg" width="280" height="200" viewBox="0 0 280 200">
<rect width="280" height="200" fill="#ffffff"/>
<text x="140.0" y="18.0" font-family="sans-serif" font-size="13" font-weight="bold" fill="#f57f17" text-anchor="middle">Worn Barrel</text>
<text x="140.0" y="30.0" font-family="sans-serif" font-size="8" font-weight="normal" fill="#f57f17" text-anchor="middle">[Tier 2 — Common Field Failures]</text>
<rect x="45.0" y="35.0" width="220.0" height="120.0" stroke="#666666" stroke-width="1.0" fill="none"/>
<line x1="45.0" y1="35.0" x2="45.0" y2="155.0" stroke="#e0e0e0" stroke-width="0.5" fill="none"/>
<text x="45.0" y="169.0" font-family="sans-serif" font-size="8" font-weight="normal" fill="#333333" text-anchor="middle">-6</text>
<line x1="118.3" y1="35.0" x2="118.3" y2="155.0" stroke="#e0e0e0" stroke-width="0.5" fill="none"/>
<text x="118.3" y="169.0" font-family="sans-serif" font-size="8" font-weight="normal" fill="#333333" text-anchor="middle">36</text>
<line x1="191.7" y1="35.0" x2="191.7" y2="155.0" stroke="#e0e0e0" stroke-width="0.5" fill="none"/>
<text x="191.7" y="169.0" font-family="sans-serif" font-size="8" font-weight="normal" fill="#333333" text-anchor="middle">78</text>
<line x1="265.0" y1="35.0" x2="265.0" y2="155.0" stroke="#e0e0e0" stroke-width="0.5" fill="none"/>
<text x="265.0" y="169.0" font-family="sans-serif" font-size="8" font-weight="normal" fill="#333333" text-anchor="middle">120</text>
<line x1="45.0" y1="155.0" x2="265.0" y2="155.0" stroke="#e0e0e0" stroke-width="0.5" fill="none"/>
<text x="41.0" y="158.0" font-family="sans-serif" font-size="8" font-weight="normal" fill="#333333" text-anchor="end">4342</text>
<line x1="45.0" y1="115.0" x2="265.0" y2="115.0" stroke="#e0e0e0" stroke-width="0.5" fill="none"/>
<text x="41.0" y="118.0" font-family="sans-serif" font-size="8" font-weight="normal" fill="#333333" text-anchor="end">8684</text>
<line x1="45.0" y1="75.0" x2="265.0" y2="75.0" stroke="#e0e0e0" stroke-width="0.5" fill="none"/>
<text x="41.0" y="78.0" font-family="sans-serif" font-size="8" font-weight="normal" fill="#333333" text-anchor="end">13026</text>
<line x1="45.0" y1="35.0" x2="265.0" y2="35.0" stroke="#e0e0e0" stroke-width="0.5" fill="none"/>
<text x="41.0" y="38.0" font-family="sans-serif" font-size="8" font-weight="normal" fill="#333333" text-anchor="end">17367</text>
<text x="155.0" y="181.0" font-family="sans-serif" font-size="9" font-weight="normal" fill="#333333" text-anchor="middle">Position (in)</text>
<text x="15.0" y="95.0" font-family="sans-serif" font-size="9" font-weight="normal" fill="#333333" text-anchor="middle" transform="rotate(-90,15.0,95.0)">Load (lbs)</text>
<polygon points="55.0,144.1 55.2,124.0 55.8,96.6 56.8,67.6 58.3,42.5 60.1,42.0 62.3,43.9 64.9,40.5 67.9,40.9 71.2,42.6 74.9,40.6 78.9,42.2 83.2,45.3 87.8,43.1 92.7,46.2 97.8,42.7 103.2,45.0 108.7,45.7 114.5,47.2 120.5,43.7 126.5,47.1 132.7,48.2 139.0,48.6 145.4,47.3 151.8,48.2 158.2,48.8 164.6,49.4 171.0,46.5 177.3,52.5 183.5,53.5 189.5,54.8 195.5,52.6 201.3,52.4 206.8,55.8 212.2,58.2 217.3,59.0 222.2,56.8 226.8,57.6 231.1,58.9 235.1,62.4 238.8,61.6 242.1,62.9 245.1,63.7 247.7,63.4 249.9,65.9 251.7,66.1 253.2,68.5 254.2,69.2 254.8,69.7 255.0,75.3 255.0,42.3 254.8,68.7 254.2,95.2 253.2,120.5 251.7,142.9 249.9,147.8 247.7,144.0 245.1,149.5 242.1,146.7 238.8,145.7 235.1,144.8 231.1,144.5 226.8,144.4 222.2,146.8 217.3,147.0 212.2,144.2 206.8,146.4 201.3,148.7 195.5,148.4 189.5,147.9 183.5,145.0 177.3,145.7 171.0,144.6 164.6,146.9 158.2,145.7 151.8,144.7 145.4,146.7 139.0,145.1 132.7,147.4 126.5,146.8 120.5,146.8 114.5,148.5 108.7,145.0 103.2,147.0 97.8,146.0 92.7,145.0 87.8,145.1 83.2,144.6 78.9,146.2 74.9,146.9 71.2,146.2 67.9,149.5 64.9,149.0 62.3,148.8 60.1,148.1 58.3,145.2 56.8,147.9 55.8,146.8 55.2,143.3 55.0,146.8" stroke="#1a3a5c" stroke-width="2.0" fill="none"/>
</svg>