<?xml version="1.0" encoding="us-ascii" standalone="no"?><svg xmlns="http://www.w3.org/2000/svg" xmlns:xlink="http://www.w3.org/1999/xlink" contentStyleType="text/css" height="3768px" preserveAspectRatio="none" style="width:2379px;height:3768px;background:#FFFFFF;" version="1.1" viewBox="0 0 2379 3768" width="2379px" zoomAndPan="magnify"><defs/><g><rect fill="#FF6347" height="135.6563" id="_title" rx="22.5" ry="22.5" style="stroke:#FF0000;stroke-width:6.0;" width="312" x="1029" y="45"/><text fill="#000000" font-family="sans-serif" font-size="42" font-weight="bold" lengthAdjust="spacing" textLength="270" x="1044" y="103.5996">AQWA Model</text><text fill="#000000" font-family="sans-serif" font-size="42" font-weight="bold" lengthAdjust="spacing" textLength="129" x="1120.5" y="156.4277">Decks</text><path d="M507,228.6563 L507,356.7656 L1368,356.7656 L1368,258.6563 L1338,228.6563 L507,228.6563 " fill="#FEFFDD" style="stroke:#181818;stroke-width:1.5;"/><path d="M1338,228.6563 L1338,258.6563 L1368,258.6563 L1338,228.6563 " fill="#FEFFDD" style="stroke:#181818;stroke-width:1.5;"/><text fill="#000000" font-family="sans-serif" font-size="39" lengthAdjust="spacing" textLength="693" x="525" y="284.1416">Objective: modular file management and</text><text fill="#000000" font-family="sans-serif" font-size="39" lengthAdjust="spacing" textLength="798" x="525" y="333.1963">analysis for easy updates/maintenance/reruns</text><path d="M664.5,416.7656 L664.5,495.8203 L1210.5,495.8203 L1210.5,446.7656 L1180.5,416.7656 L664.5,416.7656 " fill="#FEFFDD" style="stroke:#181818;stroke-width:1.5;"/><path d="M1180.5,416.7656 L1180.5,446.7656 L1210.5,446.7656 L1180.5,416.7656 " fill="#FEFFDD" style="stroke:#181818;stroke-width:1.5;"/><text fill="#000000" font-family="sans-serif" font-size="39" lengthAdjust="spacing" textLength="483" x="682.5" y="472.251">All files in ascii (.dat) format</text><ellipse cx="447" cy="362.2383" fill="#222222" rx="30" ry="30" style="stroke:#222222;stroke-width:3.0;"/><rect fill="none" height="601.5586" style="stroke:#000000;stroke-width:4.5;" width="1551" x="246" y="555.8203"/><path d="M750,555.8203 L750,587.6484 L720,617.6484 L246,617.6484 " fill="none" style="stroke:#000000;stroke-width:4.5;"/><text fill="#000000" font-family="sans-serif" font-size="42" lengthAdjust="spacing" textLength="474" x="255" y="602.4199">Deck 0: Preliminary Deck</text><path d="M1452,847.043 L1452,926.0977 L1737,926.0977 L1737,877.043 L1707,847.043 L1452,847.043 " fill="#FEFFDD" style="stroke:#181818;stroke-width:1.5;"/><path d="M1707,847.043 L1707,877.043 L1737,877.043 L1707,847.043 " fill="#FEFFDD" style="stroke:#181818;stroke-width:1.5;"/><text fill="#000000" font-family="sans-serif" font-size="39" lengthAdjust="spacing" textLength="210" x="1470" y="902.5283">General and</text><rect fill="#F1F1F1" height="105.2813" rx="37.5" ry="37.5" style="stroke:#181818;stroke-width:1.5;" width="261" x="316.5" y="668.6484"/><text fill="#000000" font-family="sans-serif" font-size="36" lengthAdjust="spacing" textLength="201" x="346.5" y="736.0195">General Info</text><path d="M678,847.043 L678,874.5703 L618,886.5703 L678,898.5703 L678,926.0977 A0,0 0 0 0 678,926.0977 L1422,926.0977 A0,0 0 0 0 1422,926.0977 L1422,877.043 L1392,847.043 L678,847.043 A0,0 0 0 0 678,847.043 " fill="#FEFFDD" style="stroke:#181818;stroke-width:1.5;"/><path d="M1392,847.043 L1392,877.043 L1422,877.043 L1392,847.043 " fill="#FEFFDD" style="stroke:#181818;stroke-width:1.5;"/><text fill="#000000" font-family="sans-serif" font-size="39" lengthAdjust="spacing" textLength="681" x="696" y="902.5283">For running pre and post python scripts</text><rect fill="#F1F1F1" height="105.2813" rx="37.5" ry="37.5" style="stroke:#181818;stroke-width:1.5;" width="342" x="276" y="833.9297"/><text fill="#000000" font-family="sans-serif" font-size="36" lengthAdjust="spacing" textLength="282" x="306" y="901.3008">Analysis Settings</text><path d="M642,1029.2109 L642,1056.7383 L582,1068.7383 L642,1080.7383 L642,1108.2656 A0,0 0 0 0 642,1108.2656 L1068,1108.2656 A0,0 0 0 0 1068,1108.2656 L1068,1059.2109 L1038,1029.2109 L642,1029.2109 A0,0 0 0 0 642,1029.2109 " fill="#FEFFDD" style="stroke:#181818;stroke-width:1.5;"/><path d="M1038,1029.2109 L1038,1059.2109 L1068,1059.2109 L1038,1029.2109 " fill="#FEFFDD" style="stroke:#181818;stroke-width:1.5;"/><text fill="#000000" font-family="sans-serif" font-size="39" lengthAdjust="spacing" textLength="363" x="660" y="1084.6963">For analysis settings</text><rect fill="#F1F1F1" height="105.2813" rx="37.5" ry="37.5" style="stroke:#181818;stroke-width:1.5;" width="270" x="312" y="1016.0977"/><text fill="#000000" font-family="sans-serif" font-size="36" lengthAdjust="spacing" textLength="210" x="342" y="1083.4688">Restart Card</text><rect fill="none" height="794.9531" style="stroke:#000000;stroke-width:4.5;" width="2133" x="213" y="1187.3789"/><path d="M792,1187.3789 L792,1219.207 L762,1249.207 L213,1249.207 " fill="none" style="stroke:#000000;stroke-width:4.5;"/><text fill="#000000" font-family="sans-serif" font-size="42" lengthAdjust="spacing" textLength="549" x="222" y="1233.9785">Deck 1: Coordinate Positions</text><path d="M1095,1559.2148 L1095,1687.3242 L2286,1687.3242 L2286,1589.2148 L2256,1559.2148 L1095,1559.2148 " fill="#FEFFDD" style="stroke:#181818;stroke-width:1.5;"/><path d="M2256,1559.2148 L2256,1589.2148 L2286,1589.2148 L2256,1559.2148 " fill="#FEFFDD" style="stroke:#181818;stroke-width:1.5;"/><text fill="#000000" font-family="sans-serif" font-size="39" lengthAdjust="spacing" textLength="342" x="1113" y="1614.7002">Mesh, Mesh sizing,</text><text fill="#000000" font-family="sans-serif" font-size="39" lengthAdjust="spacing" textLength="1128" x="1113" y="1663.7549">These parameters may be changed later if unconvergence occurs</text><rect fill="#F1F1F1" height="105.2813" rx="37.5" ry="37.5" style="stroke:#181818;stroke-width:1.5;" width="243" x="325.5" y="1300.207"/><text fill="#000000" font-family="sans-serif" font-size="36" lengthAdjust="spacing" textLength="183" x="355.5" y="1367.5781">Coordinate</text><rect fill="#F1F1F1" height="105.2813" rx="37.5" ry="37.5" style="stroke:#181818;stroke-width:1.5;" width="408" x="243" y="1465.4883"/><text fill="#000000" font-family="sans-serif" font-size="36" lengthAdjust="spacing" textLength="348" x="273" y="1532.8594">Coordinate Strtucture</text><rect fill="#F1F1F1" height="105.2813" rx="37.5" ry="37.5" style="stroke:#181818;stroke-width:1.5;" width="357" x="268.5" y="1675.7695"/><text fill="#000000" font-family="sans-serif" font-size="36" lengthAdjust="spacing" textLength="297" x="298.5" y="1743.1406">Coordinate  Offset</text><path d="M633,1854.1641 L633,1881.6914 L573,1893.6914 L633,1905.6914 L633,1933.2188 A0,0 0 0 0 633,1933.2188 L1065,1933.2188 A0,0 0 0 0 1065,1933.2188 L1065,1884.1641 L1035,1854.1641 L633,1854.1641 A0,0 0 0 0 633,1854.1641 " fill="#FEFFDD" style="stroke:#181818;stroke-width:1.5;"/><path d="M1035,1854.1641 L1035,1884.1641 L1065,1884.1641 L1035,1854.1641 " fill="#FEFFDD" style="stroke:#181818;stroke-width:1.5;"/><text fill="#000000" font-family="sans-serif" font-size="39" lengthAdjust="spacing" textLength="369" x="651" y="1909.6494">5 digit Node numbers</text><rect fill="#F1F1F1" height="105.2813" rx="37.5" ry="37.5" style="stroke:#181818;stroke-width:1.5;" width="252" x="321" y="1841.0508"/><text fill="#000000" font-family="sans-serif" font-size="36" lengthAdjust="spacing" textLength="192" x="351" y="1908.4219">NOD5 Card</text><rect fill="none" height="1125.5156" style="stroke:#000000;stroke-width:4.5;" width="1608" x="33" y="2012.332"/><path d="M741,2012.332 L741,2044.1602 L711,2074.1602 L33,2074.1602 " fill="none" style="stroke:#000000;stroke-width:4.5;"/><text fill="#000000" font-family="sans-serif" font-size="42" lengthAdjust="spacing" textLength="678" x="42" y="2058.9316">Deck 2 : (ELM*) - Element Topology</text><path d="M861,2524.9219 L861,2702.0859 L1581,2702.0859 L1581,2554.9219 L1551,2524.9219 L861,2524.9219 " fill="#FEFFDD" style="stroke:#181818;stroke-width:1.5;"/><path d="M1551,2524.9219 L1551,2554.9219 L1581,2554.9219 L1551,2524.9219 " fill="#FEFFDD" style="stroke:#181818;stroke-width:1.5;"/><text fill="#000000" font-family="sans-serif" font-size="39" lengthAdjust="spacing" textLength="657" x="879" y="2580.4072">Point mass, hydrodynamic interaction</text><text fill="#000000" font-family="sans-serif" font-size="39" lengthAdjust="spacing" textLength="225" x="879" y="2629.4619">Fix Structure</text><text fill="#000000" font-family="sans-serif" font-size="39" lengthAdjust="spacing" textLength="360" x="879" y="2678.5166">Waterline height etc.</text><rect fill="#F1F1F1" height="105.2813" rx="37.5" ry="37.5" style="stroke:#181818;stroke-width:1.5;" width="357" x="268.5" y="2125.1602"/><text fill="#000000" font-family="sans-serif" font-size="36" lengthAdjust="spacing" textLength="297" x="298.5" y="2192.5313">Element Topology</text><rect fill="#F1F1F1" height="105.2813" rx="37.5" ry="37.5" style="stroke:#181818;stroke-width:1.5;" width="588" x="153" y="2290.4414"/><text fill="#000000" font-family="sans-serif" font-size="36" lengthAdjust="spacing" textLength="528" x="183" y="2357.8125">HYDI - Hydrodynamic Interaction</text><rect fill="#F1F1F1" height="105.2813" rx="37.5" ry="37.5" style="stroke:#181818;stroke-width:1.5;" width="366" x="264" y="2455.7227"/><text fill="#000000" font-family="sans-serif" font-size="36" lengthAdjust="spacing" textLength="306" x="294" y="2523.0938">FIXD - FIx structure</text><rect fill="#F1F1F1" height="105.2813" rx="37.5" ry="37.5" style="stroke:#181818;stroke-width:1.5;" width="687" x="103.5" y="2666.0039"/><text fill="#000000" font-family="sans-serif" font-size="36" lengthAdjust="spacing" textLength="627" x="133.5" y="2733.375">VLID - Suppression of standing waves</text><rect fill="#F1F1F1" height="105.2813" rx="37.5" ry="37.5" style="stroke:#181818;stroke-width:1.5;" width="768" x="63" y="2831.2852"/><text fill="#000000" font-family="sans-serif" font-size="36" lengthAdjust="spacing" textLength="708" x="93" y="2898.6563">ILID - Suppression of irrelgular frequencies</text><rect fill="#F1F1F1" height="105.2813" rx="37.5" ry="37.5" style="stroke:#181818;stroke-width:1.5;" width="453" x="220.5" y="2996.5664"/><text fill="#000000" font-family="sans-serif" font-size="36" lengthAdjust="spacing" textLength="393" x="250.5" y="3063.9375">ZLWL - Waterline height</text><rect fill="none" height="364.9922" style="stroke:#000000;stroke-width:4.5;" width="1173" x="250.5" y="3167.8477"/><path d="M964.5,3167.8477 L964.5,3199.6758 L934.5,3229.6758 L250.5,3229.6758 " fill="none" style="stroke:#000000;stroke-width:4.5;"/><text fill="#000000" font-family="sans-serif" font-size="42" lengthAdjust="spacing" textLength="684" x="259.5" y="3214.4473">Deck 3 (MATE) - Material Properties</text><path d="M643.5,3289.6758 L643.5,3466.8398 L1363.5,3466.8398 L1363.5,3319.6758 L1333.5,3289.6758 L643.5,3289.6758 " fill="#FEFFDD" style="stroke:#181818;stroke-width:1.5;"/><path d="M1333.5,3289.6758 L1333.5,3319.6758 L1363.5,3319.6758 L1333.5,3289.6758 " fill="#FEFFDD" style="stroke:#181818;stroke-width:1.5;"/><text fill="#000000" font-family="sans-serif" font-size="39" lengthAdjust="spacing" textLength="657" x="661.5" y="3345.1611">Point mass, hydrodynamic interaction</text><text fill="#000000" font-family="sans-serif" font-size="39" lengthAdjust="spacing" textLength="225" x="661.5" y="3394.2158">Fix Structure</text><text fill="#000000" font-family="sans-serif" font-size="39" lengthAdjust="spacing" textLength="360" x="661.5" y="3443.2705">Waterline height etc.</text><rect fill="#F1F1F1" height="105.2813" rx="37.5" ry="37.5" style="stroke:#181818;stroke-width:1.5;" width="333" x="280.5" y="3325.6172"/><text fill="#000000" font-family="sans-serif" font-size="36" lengthAdjust="spacing" textLength="273" x="310.5" y="3392.9883">Material Property</text><ellipse cx="447" cy="3625.8398" fill="none" rx="33" ry="33" style="stroke:#222222;stroke-width:3.0;"/><ellipse cx="447" cy="3625.8398" fill="#222222" rx="18" ry="18" style="stroke:#222222;stroke-width:3.0;"/><line style="stroke:#181818;stroke-width:3.0;" x1="447" x2="447" y1="773.9297" y2="833.9297"/><polygon fill="#181818" points="435,803.9297,447,833.9297,459,803.9297,447,815.9297" style="stroke:#181818;stroke-width:3.0;"/><line style="stroke:#181818;stroke-width:3.0;" x1="447" x2="447" y1="939.2109" y2="1016.0977"/><polygon fill="#181818" points="435,986.0977,447,1016.0977,459,986.0977,447,998.0977" style="stroke:#181818;stroke-width:3.0;"/><line style="stroke:#181818;stroke-width:3.0;" x1="447" x2="447" y1="392.2383" y2="668.6484"/><polygon fill="#181818" points="435,638.6484,447,668.6484,459,638.6484,447,650.6484" style="stroke:#181818;stroke-width:3.0;"/><line style="stroke:#181818;stroke-width:3.0;" x1="447" x2="447" y1="1405.4883" y2="1465.4883"/><polygon fill="#181818" points="435,1435.4883,447,1465.4883,459,1435.4883,447,1447.4883" style="stroke:#181818;stroke-width:3.0;"/><line style="stroke:#181818;stroke-width:3.0;" x1="447" x2="447" y1="1570.7695" y2="1675.7695"/><polygon fill="#181818" points="435,1645.7695,447,1675.7695,459,1645.7695,447,1657.7695" style="stroke:#181818;stroke-width:3.0;"/><line style="stroke:#181818;stroke-width:3.0;" x1="447" x2="447" y1="1781.0508" y2="1841.0508"/><polygon fill="#181818" points="435,1811.0508,447,1841.0508,459,1811.0508,447,1823.0508" style="stroke:#181818;stroke-width:3.0;"/><line style="stroke:#181818;stroke-width:3.0;" x1="447" x2="447" y1="1121.3789" y2="1300.207"/><polygon fill="#181818" points="435,1270.207,447,1300.207,459,1270.207,447,1282.207" style="stroke:#181818;stroke-width:3.0;"/><line style="stroke:#181818;stroke-width:3.0;" x1="447" x2="447" y1="2230.4414" y2="2290.4414"/><polygon fill="#181818" points="435,2260.4414,447,2290.4414,459,2260.4414,447,2272.4414" style="stroke:#181818;stroke-width:3.0;"/><line style="stroke:#181818;stroke-width:3.0;" x1="447" x2="447" y1="2395.7227" y2="2455.7227"/><polygon fill="#181818" points="435,2425.7227,447,2455.7227,459,2425.7227,447,2437.7227" style="stroke:#181818;stroke-width:3.0;"/><line style="stroke:#181818;stroke-width:3.0;" x1="447" x2="447" y1="2561.0039" y2="2666.0039"/><polygon fill="#181818" points="435,2636.0039,447,2666.0039,459,2636.0039,447,2648.0039" style="stroke:#181818;stroke-width:3.0;"/><line style="stroke:#181818;stroke-width:3.0;" x1="447" x2="447" y1="2771.2852" y2="2831.2852"/><polygon fill="#181818" points="435,2801.2852,447,2831.2852,459,2801.2852,447,2813.2852" style="stroke:#181818;stroke-width:3.0;"/><line style="stroke:#181818;stroke-width:3.0;" x1="447" x2="447" y1="2936.5664" y2="2996.5664"/><polygon fill="#181818" points="435,2966.5664,447,2996.5664,459,2966.5664,447,2978.5664" style="stroke:#181818;stroke-width:3.0;"/><line style="stroke:#181818;stroke-width:3.0;" x1="447" x2="447" y1="1946.332" y2="2125.1602"/><polygon fill="#181818" points="435,2095.1602,447,2125.1602,459,2095.1602,447,2107.1602" style="stroke:#181818;stroke-width:3.0;"/><line style="stroke:#181818;stroke-width:3.0;" x1="447" x2="447" y1="3101.8477" y2="3325.6172"/><polygon fill="#181818" points="435,3295.6172,447,3325.6172,459,3295.6172,447,3307.6172" style="stroke:#181818;stroke-width:3.0;"/><line style="stroke:#181818;stroke-width:3.0;" x1="447" x2="447" y1="3430.8984" y2="3592.8398"/><polygon fill="#181818" points="435,3562.8398,447,3592.8398,459,3562.8398,447,3574.8398" style="stroke:#181818;stroke-width:3.0;"/><text fill="#888888" font-family="sans-serif" font-size="30" lengthAdjust="spacing" textLength="288" x="1041" y="3686.9824">2024.04.12 at 09:08</text><text fill="#888888" font-family="sans-serif" font-size="30" lengthAdjust="spacing" textLength="282" x="1044" y="3724.7168">aqwa_dat_file.puml</text><!--SRC=[rLN1Rjf04BtxAqP8KKYLaYPHBd2Ya1GaQ6Y2chRgPMEFxItshZkpJkDM_VVEca18WAOSkmSaTjxupRotiykXoX1E0vvfKoXIEJZjCdnhAKAwigM9UfOC4XoVRSPCKntE33B3oMP0psQMW31Q2wjmbj2SmaEcDbVE1a4TXEw7cowCROGPV3Lz36SS1EmKkI00MSOw1D99wkg_VbtUViFGwJjiGswZCbC4iPOlvSge17Cq3fI9O8cNxQnYpH0BEIgke2mYvP2FSgMDGwDCY4U4L1gkar2oFU_M2hfPLbCoQ0EAGwsXsP9F7dWAQMx3LqGFwLTR0mtV9BnfmuGmqxasYYhmUmtujMJOGhnOxr2iKjdJFjT9_Meli4CJsyxZTdUXoZKwfqt2dNybl_0sbyP84XI4TH65PGT5vL9fa4FIXUFDTItvhx1s6NgAefsebtRoG-7RYNvlrlwu3JqhPrQa5wQ9vJh8E-W_HauFwrzW_LEAE8Grp3H5HgZd01qIo_ciu1OXJ9L9C89Co0bq3AK9hRb3Ib3E8TWmB8bVClMn_iwcJRXsvChGbRGb3fTnBFgj1DzVzizsC-CC8fre1-zbUC6K-ItIxbwSG1kQvwFngmDu3UVPV7odjf2R8gbsS6HYPPH5OkP3IAk8R5GPbUiG_8IJ2Ztb-d7IzrwfkL1hqHjlKAODGegU4z25hPUCUTx2YiA3p_sXD3bOhMxuMDqAycBugI_8Y-4zyAAybV37qT27hyj2ne_PYsbZGSeW-fdyeUvmPPhRmurmJNBz9FFRa_1xAOTFFqdxChePITfp5Jf_S_CKckFkzDnxEVPvMkwT2Ta21ORy7zhvl0lnSz6_l5As28BOIWO5U_v5QJOgMQtnk1L5-w0Sx0y6xJnl70Hx_hcG3h1v47YQXwm_]--></g></svg>