<?xml version="1.0" encoding="us-ascii" standalone="no"?><svg xmlns="http://www.w3.org/2000/svg" xmlns:xlink="http://www.w3.org/1999/xlink" contentStyleType="text/css" height="512px" preserveAspectRatio="none" style="width:271px;height:512px;background:#FFFFFF;" version="1.1" viewBox="0 0 271 512" width="271px" zoomAndPan="magnify"><defs/><g><rect fill="none" height="27.6094" id="_title" rx="7" ry="7" style="stroke:#000000;stroke-width:1.0;" width="178" x="45" y="15"/><text fill="#000000" font-family="sans-serif" font-size="14" font-weight="bold" lengthAdjust="spacing" textLength="168" x="50" y="34.5332">plate buckling structure</text><ellipse cx="145.25" cy="58.6094" fill="#222222" rx="10" ry="10" style="stroke:#222222;stroke-width:1.0;"/><rect fill="#F1F1F1" height="35.0938" rx="12.5" ry="12.5" style="stroke:#181818;stroke-width:0.5;" width="125" x="82.75" y="88.6094"/><text fill="#000000" font-family="sans-serif" font-size="12" lengthAdjust="spacing" textLength="105" x="92.75" y="111.0664">Input - Dimensions</text><rect fill="#F1F1F1" height="35.0938" rx="12.5" ry="12.5" style="stroke:#181818;stroke-width:0.5;" width="92" x="99.25" y="143.7031"/><text fill="#000000" font-family="sans-serif" font-size="12" lengthAdjust="spacing" textLength="72" x="109.25" y="166.1602">Input - Loads</text><rect fill="#F1F1F1" height="35.0938" rx="12.5" ry="12.5" style="stroke:#181818;stroke-width:0.5;" width="128" x="81.25" y="198.7969"/><text fill="#000000" font-family="sans-serif" font-size="12" lengthAdjust="spacing" textLength="108" x="91.25" y="221.2539">Calculation - Stress</text><rect fill="#F1F1F1" height="35.0938" rx="12.5" ry="12.5" style="stroke:#181818;stroke-width:0.5;" width="112" x="89.25" y="253.8906"/><text fill="#000000" font-family="sans-serif" font-size="12" lengthAdjust="spacing" textLength="92" x="99.25" y="276.3477">Buckling Checks</text><polygon fill="#F1F1F1" points="117.75,308.9844,172.75,308.9844,184.75,320.9844,172.75,332.9844,117.75,332.9844,105.75,320.9844,117.75,308.9844" style="stroke:#181818;stroke-width:0.5;"/><text fill="#000000" font-family="sans-serif" font-size="11" lengthAdjust="spacing" textLength="55" x="117.75" y="325.4854">Acceptable</text><text fill="#000000" font-family="sans-serif" font-size="11" lengthAdjust="spacing" textLength="20" x="85.75" y="318.5674">Yes</text><text fill="#000000" font-family="sans-serif" font-size="11" lengthAdjust="spacing" textLength="13" x="184.75" y="318.5674">No</text><rect fill="#F1F1F1" height="35.0938" rx="12.5" ry="12.5" style="stroke:#181818;stroke-width:0.5;" width="134" x="11" y="342.9844"/><text fill="#000000" font-family="sans-serif" font-size="12" lengthAdjust="spacing" textLength="114" x="21" y="365.4414">Proceed to Next Step</text><rect fill="#F1F1F1" height="35.0938" rx="12.5" ry="12.5" style="stroke:#181818;stroke-width:0.5;" width="95" x="165" y="342.9844"/><text fill="#000000" font-family="sans-serif" font-size="12" lengthAdjust="spacing" textLength="75" x="175" y="365.4414">Revise Inputs</text><polygon fill="#F1F1F1" points="145.25,384.0781,157.25,396.0781,145.25,408.0781,133.25,396.0781,145.25,384.0781" style="stroke:#181818;stroke-width:0.5;"/><ellipse cx="145.25" cy="439.0781" fill="none" rx="11" ry="11" style="stroke:#222222;stroke-width:1.0;"/><ellipse cx="145.25" cy="439.0781" fill="#222222" rx="6" ry="6" style="stroke:#222222;stroke-width:1.0;"/><line style="stroke:#181818;stroke-width:1.0;" x1="145.25" x2="145.25" y1="68.6094" y2="88.6094"/><polygon fill="#181818" points="141.25,78.6094,145.25,88.6094,149.25,78.6094,145.25,82.6094" style="stroke:#181818;stroke-width:1.0;"/><line style="stroke:#181818;stroke-width:1.0;" x1="145.25" x2="145.25" y1="123.7031" y2="143.7031"/><polygon fill="#181818" points="141.25,133.7031,145.25,143.7031,149.25,133.7031,145.25,137.7031" style="stroke:#181818;stroke-width:1.0;"/><line style="stroke:#181818;stroke-width:1.0;" x1="145.25" x2="145.25" y1="178.7969" y2="198.7969"/><polygon fill="#181818" points="141.25,188.7969,145.25,198.7969,149.25,188.7969,145.25,192.7969" style="stroke:#181818;stroke-width:1.0;"/><line style="stroke:#181818;stroke-width:1.0;" x1="145.25" x2="145.25" y1="233.8906" y2="253.8906"/><polygon fill="#181818" points="141.25,243.8906,145.25,253.8906,149.25,243.8906,145.25,247.8906" style="stroke:#181818;stroke-width:1.0;"/><line style="stroke:#181818;stroke-width:1.0;" x1="105.75" x2="78" y1="320.9844" y2="320.9844"/><line style="stroke:#181818;stroke-width:1.0;" x1="78" x2="78" y1="320.9844" y2="342.9844"/><polygon fill="#181818" points="74,332.9844,78,342.9844,82,332.9844,78,336.9844" style="stroke:#181818;stroke-width:1.0;"/><line style="stroke:#181818;stroke-width:1.0;" x1="184.75" x2="212.5" y1="320.9844" y2="320.9844"/><line style="stroke:#181818;stroke-width:1.0;" x1="212.5" x2="212.5" y1="320.9844" y2="342.9844"/><polygon fill="#181818" points="208.5,332.9844,212.5,342.9844,216.5,332.9844,212.5,336.9844" style="stroke:#181818;stroke-width:1.0;"/><line style="stroke:#181818;stroke-width:1.0;" x1="78" x2="78" y1="378.0781" y2="396.0781"/><line style="stroke:#181818;stroke-width:1.0;" x1="78" x2="133.25" y1="396.0781" y2="396.0781"/><polygon fill="#181818" points="123.25,392.0781,133.25,396.0781,123.25,400.0781,127.25,396.0781" style="stroke:#181818;stroke-width:1.0;"/><line style="stroke:#181818;stroke-width:1.0;" x1="212.5" x2="212.5" y1="378.0781" y2="396.0781"/><line style="stroke:#181818;stroke-width:1.0;" x1="212.5" x2="157.25" y1="396.0781" y2="396.0781"/><polygon fill="#181818" points="167.25,392.0781,157.25,396.0781,167.25,400.0781,163.25,396.0781" style="stroke:#181818;stroke-width:1.0;"/><line style="stroke:#181818;stroke-width:1.0;" x1="145.25" x2="145.25" y1="288.9844" y2="308.9844"/><polygon fill="#181818" points="141.25,298.9844,145.25,308.9844,149.25,298.9844,145.25,302.9844" style="stroke:#181818;stroke-width:1.0;"/><line style="stroke:#181818;stroke-width:1.0;" x1="145.25" x2="145.25" y1="408.0781" y2="428.0781"/><polygon fill="#181818" points="141.25,418.0781,145.25,428.0781,149.25,418.0781,145.25,422.0781" style="stroke:#181818;stroke-width:1.0;"/><text fill="#888888" font-family="sans-serif" font-size="10" lengthAdjust="spacing" textLength="3" x="132.5" y="459.459">&#160;</text><text fill="#888888" font-family="sans-serif" font-size="10" lengthAdjust="spacing" textLength="3" x="132.5" y="472.0371">&#160;</text><text fill="#888888" font-family="sans-serif" font-size="10" lengthAdjust="spacing" textLength="96" x="86" y="484.6152">2024.06.12 at 11:12</text><text fill="#888888" font-family="sans-serif" font-size="10" lengthAdjust="spacing" textLength="97" x="85.5" y="497.1934">plate_buckling.puml</text><!--SRC=[ROzFQm8n4CNl-HI38Be71Q6d5GfrFLYeKcmlFSParWsRpIoJsVxvzfsrbXxgd2Rl_VBoajkGUiks0maISKFiaOyq95yH9sHOtPbyYtbjWciJvWohsq15aHXEqRhs7w3QcNyU6Q6F9WWQS_6WZrOGJeDhOqXdoCA3au7Lps9PZ2aVKpy8B60REamvKChhF_69h1_FbOrkq2YrLNqHrgegRtvpgmPTgue9DSmVdCDUx2bY0T9WCg2pk7z31SQrV6PoY1w4u82VeddOhmt6Z5VqG5VoYEyX8rpgZF6OVAZ7xjGROseYGTPbwlMNyycNpdA_Nte_0oims-tAhfiKPbg7YCbsE2_61BZU-mO0]--></g></svg>