<svg xmlns="http://www.w3.org/2000/svg" width="800" height="400" viewBox="0 0 800 400">
<rect width="800" height="400" fill="#ffffff"/>
<text x="400.0" y="20.0" font-family="sans-serif" font-size="14" fill="#333333" text-anchor="middle">Body Plan - generic_barge</text>
<line x1="60.0" y1="60.0" x2="60.0" y2="340.0" stroke="#e0e0e0" stroke-width="0.5" fill="none"/>
<text x="60.0" y="358.0" font-family="sans-serif" font-size="9" fill="#333333" text-anchor="middle">-13.5</text>
<line x1="230.0" y1="60.0" x2="230.0" y2="340.0" stroke="#e0e0e0" stroke-width="0.5" fill="none"/>
<text x="230.0" y="358.0" font-family="sans-serif" font-size="9" fill="#333333" text-anchor="middle">-6.8</text>
<line x1="400.0" y1="60.0" x2="400.0" y2="340.0" stroke="#e0e0e0" stroke-width="0.5" fill="none"/>
<text x="400.0" y="358.0" font-family="sans-serif" font-size="9" fill="#333333" text-anchor="middle">0.0</text>
<line x1="570.0" y1="60.0" x2="570.0" y2="340.0" stroke="#e0e0e0" stroke-width="0.5" fill="none"/>
<text x="570.0" y="358.0" font-family="sans-serif" font-size="9" fill="#333333" text-anchor="middle">6.8</text>
<line x1="740.0" y1="60.0" x2="740.0" y2="340.0" stroke="#e0e0e0" stroke-width="0.5" fill="none"/>
<text x="740.0" y="358.0" font-family="sans-serif" font-size="9" fill="#333333" text-anchor="middle">13.5</text>
<line x1="60.0" y1="340.0" x2="740.0" y2="340.0" stroke="#e0e0e0" stroke-width="0.5" fill="none"/>
<text x="52.0" y="343.0" font-family="sans-serif" font-size="9" fill="#333333" text-anchor="end">0.0</text>
<line x1="60.0" y1="270.0" x2="740.0" y2="270.0" stroke="#e0e0e0" stroke-width="0.5" fill="none"/>
<text x="52.0" y="273.0" font-family="sans-serif" font-size="9" fill="#333333" text-anchor="end">1.9</text>
<line x1="60.0" y1="200.0" x2="740.0" y2="200.0" stroke="#e0e0e0" stroke-width="0.5" fill="none"/>
<text x="52.0" y="203.0" font-family="sans-serif" font-size="9" fill="#333333" text-anchor="end">3.8</text>
<line x1="60.0" y1="130.0" x2="740.0" y2="130.0" stroke="#e0e0e0" stroke-width="0.5" fill="none"/>
<text x="52.0" y="133.0" font-family="sans-serif" font-size="9" fill="#333333" text-anchor="end">5.6</text>
<line x1="60.0" y1="60.0" x2="740.0" y2="60.0" stroke="#e0e0e0" stroke-width="0.5" fill="none"/>
<text x="52.0" y="63.0" font-family="sans-serif" font-size="9" fill="#333333" text-anchor="end">7.5</text>
<text x="400.0" y="375.0" font-family="sans-serif" font-size="11" fill="#333333" text-anchor="middle">Half-breadth (y) (m)</text>
<text x="20.0" y="200.0" font-family="sans-serif" font-size="11" fill="#333333" text-anchor="middle" transform="rotate(-90,20.0,200.0)">Height (z) (m)</text>
<rect x="60.0" y="60.0" width="680.0" height="280.0" stroke="#666666" stroke-width="1.0" fill="none"/>
<line x1="400.0" y1="60.0" x2="400.0" y2="340.0" stroke="#8899aa" stroke-width="0.5" fill="none" stroke-dasharray="4,3"/>
<line x1="60.0" y1="116.0" x2="740.0" y2="116.0" stroke="#00bcd4" stroke-width="1.0" fill="none" stroke-dasharray="8,4"/>
<text x="745.0" y="120.0" font-family="sans-serif" font-size="10" fill="#00bcd4" text-anchor="start">WL</text>
<polyline points="60.0,340.0 60.0,265.3 97.8,190.7 123.0,116.0 148.1,60.0" stroke="#1a3a5c" stroke-width="1.5" fill="none"/>
<polyline points="60.0,340.0 60.0,265.3 60.0,190.7 60.0,116.0 60.0,60.0" stroke="#1a3a5c" stroke-width="1.5" fill="none"/>
<polyline points="740.0,340.0 740.0,265.3 740.0,190.7 740.0,116.0 740.0,60.0" stroke="#1a3a5c" stroke-width="1.5" fill="none"/>
<polyline points="740.0,340.0 740.0,265.3 740.0,190.7 740.0,116.0 740.0,60.0" stroke="#1a3a5c" stroke-width="1.5" fill="none"/>
<polyline points="740.0,340.0 740.0,265.3 702.2,190.7 677.0,116.0 651.9,60.0" stroke="#1a3a5c" stroke-width="1.5" fill="none"/>
</svg>