<svg xmlns="http://www.w3.org/2000/svg" width="800" height="400" viewBox="0 0 800 400">
<rect width="800" height="400" fill="#ffffff"/>
<text x="400.0" y="20.0" font-family="sans-serif" font-size="14" fill="#333333" text-anchor="middle">Plan View - generic_barge</text>
<line x1="60.0" y1="60.0" x2="60.0" y2="340.0" stroke="#e0e0e0" stroke-width="0.5" fill="none"/>
<text x="60.0" y="358.0" font-family="sans-serif" font-size="9" fill="#333333" text-anchor="middle">0.0</text>
<line x1="196.0" y1="60.0" x2="196.0" y2="340.0" stroke="#e0e0e0" stroke-width="0.5" fill="none"/>
<text x="196.0" y="358.0" font-family="sans-serif" font-size="9" fill="#333333" text-anchor="middle">18.0</text>
<line x1="332.0" y1="60.0" x2="332.0" y2="340.0" stroke="#e0e0e0" stroke-width="0.5" fill="none"/>
<text x="332.0" y="358.0" font-family="sans-serif" font-size="9" fill="#333333" text-anchor="middle">36.0</text>
<line x1="468.0" y1="60.0" x2="468.0" y2="340.0" stroke="#e0e0e0" stroke-width="0.5" fill="none"/>
<text x="468.0" y="358.0" font-family="sans-serif" font-size="9" fill="#333333" text-anchor="middle">54.0</text>
<line x1="604.0" y1="60.0" x2="604.0" y2="340.0" stroke="#e0e0e0" stroke-width="0.5" fill="none"/>
<text x="604.0" y="358.0" font-family="sans-serif" font-size="9" fill="#333333" text-anchor="middle">72.0</text>
<line x1="740.0" y1="60.0" x2="740.0" y2="340.0" stroke="#e0e0e0" stroke-width="0.5" fill="none"/>
<text x="740.0" y="358.0" font-family="sans-serif" font-size="9" fill="#333333" text-anchor="middle">90.0</text>
<line x1="60.0" y1="340.0" x2="740.0" y2="340.0" stroke="#e0e0e0" stroke-width="0.5" fill="none"/>
<text x="52.0" y="343.0" font-family="sans-serif" font-size="9" fill="#333333" text-anchor="end">-13.5</text>
<line x1="60.0" y1="270.0" x2="740.0" y2="270.0" stroke="#e0e0e0" stroke-width="0.5" fill="none"/>
<text x="52.0" y="273.0" font-family="sans-serif" font-size="9" fill="#333333" text-anchor="end">-6.8</text>
<line x1="60.0" y1="200.0" x2="740.0" y2="200.0" stroke="#e0e0e0" stroke-width="0.5" fill="none"/>
<text x="52.0" y="203.0" font-family="sans-serif" font-size="9" fill="#333333" text-anchor="end">0.0</text>
<line x1="60.0" y1="130.0" x2="740.0" y2="130.0" stroke="#e0e0e0" stroke-width="0.5" fill="none"/>
<text x="52.0" y="133.0" font-family="sans-serif" font-size="9" fill="#333333" text-anchor="end">6.8</text>
<line x1="60.0" y1="60.0" x2="740.0" y2="60.0" stroke="#e0e0e0" stroke-width="0.5" fill="none"/>
<text x="52.0" y="63.0" font-family="sans-serif" font-size="9" fill="#333333" text-anchor="end">13.5</text>
<text x="400.0" y="375.0" font-family="sans-serif" font-size="11" fill="#333333" text-anchor="middle">Length (x) (m)</text>
<text x="20.0" y="200.0" font-family="sans-serif" font-size="11" fill="#333333" text-anchor="middle" transform="rotate(-90,20.0,200.0)">Half-breadth (y) (m)</text>
<rect x="60.0" y="60.0" width="680.0" height="280.0" stroke="#666666" stroke-width="1.0" fill="none"/>
<polygon points="60.0,85.9 230.0,60.0 400.0,60.0 570.0,60.0 740.0,85.9 740.0,314.1 570.0,340.0 400.0,340.0 230.0,340.0 60.0,314.1" stroke="#1a3a5c" stroke-width="2.0" fill="none"/>
<line x1="60.0" y1="200.0" x2="740.0" y2="200.0" stroke="#8899aa" stroke-width="0.5" fill="none" stroke-dasharray="4,3"/>
<text x="745.0" y="204.0" font-family="sans-serif" font-size="10" fill="#8899aa" text-anchor="start">CL</text>
</svg>