<svg xmlns="http://www.w3.org/2000/svg" width="800" height="400" viewBox="0 0 800 400">
<rect width="800" height="400" fill="#ffffff"/>
<text x="400.0" y="20.0" font-family="sans-serif" font-size="14" fill="#333333" text-anchor="middle">Body Plan - generic_tanker</text>
<line x1="60.0" y1="60.0" x2="60.0" y2="340.0" stroke="#e0e0e0" stroke-width="0.5" fill="none"/>
<text x="60.0" y="358.0" font-family="sans-serif" font-size="9" fill="#333333" text-anchor="middle">-18.5</text>
<line x1="230.0" y1="60.0" x2="230.0" y2="340.0" stroke="#e0e0e0" stroke-width="0.5" fill="none"/>
<text x="230.0" y="358.0" font-family="sans-serif" font-size="9" fill="#333333" text-anchor="middle">-9.2</text>
<line x1="400.0" y1="60.0" x2="400.0" y2="340.0" stroke="#e0e0e0" stroke-width="0.5" fill="none"/>
<text x="400.0" y="358.0" font-family="sans-serif" font-size="9" fill="#333333" text-anchor="middle">0.0</text>
<line x1="570.0" y1="60.0" x2="570.0" y2="340.0" stroke="#e0e0e0" stroke-width="0.5" fill="none"/>
<text x="570.0" y="358.0" font-family="sans-serif" font-size="9" fill="#333333" text-anchor="middle">9.2</text>
<line x1="740.0" y1="60.0" x2="740.0" y2="340.0" stroke="#e0e0e0" stroke-width="0.5" fill="none"/>
<text x="740.0" y="358.0" font-family="sans-serif" font-size="9" fill="#333333" text-anchor="middle">18.5</text>
<line x1="60.0" y1="340.0" x2="740.0" y2="340.0" stroke="#e0e0e0" stroke-width="0.5" fill="none"/>
<text x="52.0" y="343.0" font-family="sans-serif" font-size="9" fill="#333333" text-anchor="end">0.0</text>
<line x1="60.0" y1="270.0" x2="740.0" y2="270.0" stroke="#e0e0e0" stroke-width="0.5" fill="none"/>
<text x="52.0" y="273.0" font-family="sans-serif" font-size="9" fill="#333333" text-anchor="end">5.2</text>
<line x1="60.0" y1="200.0" x2="740.0" y2="200.0" stroke="#e0e0e0" stroke-width="0.5" fill="none"/>
<text x="52.0" y="203.0" font-family="sans-serif" font-size="9" fill="#333333" text-anchor="end">10.5</text>
<line x1="60.0" y1="130.0" x2="740.0" y2="130.0" stroke="#e0e0e0" stroke-width="0.5" fill="none"/>
<text x="52.0" y="133.0" font-family="sans-serif" font-size="9" fill="#333333" text-anchor="end">15.8</text>
<line x1="60.0" y1="60.0" x2="740.0" y2="60.0" stroke="#e0e0e0" stroke-width="0.5" fill="none"/>
<text x="52.0" y="63.0" font-family="sans-serif" font-size="9" fill="#333333" text-anchor="end">21.0</text>
<text x="400.0" y="375.0" font-family="sans-serif" font-size="11" fill="#333333" text-anchor="middle">Half-breadth (y) (m)</text>
<text x="20.0" y="200.0" font-family="sans-serif" font-size="11" fill="#333333" text-anchor="middle" transform="rotate(-90,20.0,200.0)">Height (z) (m)</text>
<rect x="60.0" y="60.0" width="680.0" height="280.0" stroke="#666666" stroke-width="1.0" fill="none"/>
<line x1="400.0" y1="60.0" x2="400.0" y2="340.0" stroke="#8899aa" stroke-width="0.5" fill="none" stroke-dasharray="4,3"/>
<line x1="60.0" y1="140.0" x2="740.0" y2="140.0" stroke="#00bcd4" stroke-width="1.0" fill="none" stroke-dasharray="8,4"/>
<text x="745.0" y="144.0" font-family="sans-serif" font-size="10" fill="#00bcd4" text-anchor="start">WL</text>
<polyline points="400.0,340.0 344.9,306.7 280.5,273.3 234.6,240.0 197.8,206.7 170.3,173.3 142.7,140.0" stroke="#1a3a5c" stroke-width="1.5" fill="none"/>
<polyline points="363.2,340.0 298.9,306.7 234.6,273.3 197.8,240.0 170.3,206.7 151.9,173.3 133.5,140.0" stroke="#1a3a5c" stroke-width="1.5" fill="none"/>
<polyline points="308.1,340.0 243.8,306.7 179.5,273.3 133.5,240.0 105.9,206.7 87.6,173.3 87.6,140.0" stroke="#1a3a5c" stroke-width="1.5" fill="none"/>
<polyline points="253.0,340.0 179.5,306.7 124.3,273.3 96.8,240.0 78.4,206.7 69.2,173.3 69.2,140.0" stroke="#1a3a5c" stroke-width="1.5" fill="none"/>
<polyline points="216.2,340.0 142.7,306.7 96.8,273.3 78.4,240.0 69.2,206.7 60.0,173.3 60.0,140.0" stroke="#1a3a5c" stroke-width="1.5" fill="none"/>
<polyline points="593.0,340.0 666.5,306.7 712.4,273.3 730.8,240.0 740.0,206.7 740.0,173.3 740.0,140.0" stroke="#1a3a5c" stroke-width="1.5" fill="none"/>
<polyline points="583.8,340.0 657.3,306.7 703.2,273.3 721.6,240.0 730.8,206.7 740.0,173.3 740.0,140.0" stroke="#1a3a5c" stroke-width="1.5" fill="none"/>
<polyline points="528.6,340.0 593.0,306.7 648.1,273.3 675.7,240.0 694.1,206.7 703.2,173.3 703.2,140.0" stroke="#1a3a5c" stroke-width="1.5" fill="none"/>
<polyline points="473.5,340.0 528.6,306.7 583.8,273.3 620.5,240.0 638.9,206.7 648.1,173.3 648.1,140.0" stroke="#1a3a5c" stroke-width="1.5" fill="none"/>
<polyline points="427.6,340.0 464.3,306.7 510.3,273.3 547.0,240.0 574.6,206.7 583.8,173.3 583.8,140.0" stroke="#1a3a5c" stroke-width="1.5" fill="none"/>
<polyline points="400.0,340.0 409.2,306.7 427.6,273.3 445.9,240.0 464.3,206.7 482.7,173.3 491.9,140.0" stroke="#1a3a5c" stroke-width="1.5" fill="none"/>
</svg>