<?xml version="1.0" encoding="utf-8" standalone="no"?>
<!DOCTYPE svg PUBLIC "-//W3C//DTD SVG 1.1//EN"
  "http://www.w3.org/Graphics/SVG/1.1/DTD/svg11.dtd">
<!-- Created with matplotlib (http://matplotlib.org/) -->
<svg height="345pt" version="1.1" viewBox="0 0 460 345" width="460pt" xmlns="http://www.w3.org/2000/svg" xmlns:xlink="http://www.w3.org/1999/xlink">
 <defs>
  <style type="text/css">
*{stroke-linecap:butt;stroke-linejoin:round;}
  </style>
 </defs>
 <g id="figure_1">
  <g id="patch_1">
   <path d="M 0 345.6 
L 460.8 345.6 
L 460.8 0 
L 0 0 
z
" style="fill:#ffffff;"/>
  </g>
  <g id="axes_1">
   <g id="patch_2">
    <path d="M 57.6 162.432 
L 414.72 162.432 
L 414.72 41.472 
L 57.6 41.472 
z
" style="fill:#ffffff;"/>
   </g>
   <g id="matplotlib.axis_1">
    <g id="xtick_1">
     <g id="line2d_1">
      <path clip-path="url(#pbd96193e33)" d="M 57.6 162.432 
L 57.6 41.472 
" style="fill:none;stroke:#b0b0b0;stroke-linecap:square;stroke-width:0.8;"/>
     </g>
     <g id="line2d_2">
      <defs>
       <path d="M 0 0 
L 0 3.5 
" id="me37e8c7109" style="stroke:#000000;stroke-width:0.8;"/>
      </defs>
      <g>
       <use style="stroke:#000000;stroke-width:0.8;" x="57.6" xlink:href="#me37e8c7109" y="162.432"/>
      </g>
     </g>
     <g id="text_1">
      <!-- 0 -->
      <defs>
       <path d="M 31.78125 66.40625 
Q 24.171875 66.40625 20.328125 58.90625 
Q 16.5 51.421875 16.5 36.375 
Q 16.5 21.390625 20.328125 13.890625 
Q 24.171875 6.390625 31.78125 6.390625 
Q 39.453125 6.390625 43.28125 13.890625 
Q 47.125 21.390625 47.125 36.375 
Q 47.125 51.421875 43.28125 58.90625 
Q 39.453125 66.40625 31.78125 66.40625 
z
M 31.78125 74.21875 
Q 44.046875 74.21875 50.515625 64.515625 
Q 56.984375 54.828125 56.984375 36.375 
Q 56.984375 17.96875 50.515625 8.265625 
Q 44.046875 -1.421875 31.78125 -1.421875 
Q 19.53125 -1.421875 13.0625 8.265625 
Q 6.59375 17.96875 6.59375 36.375 
Q 6.59375 54.828125 13.0625 64.515625 
Q 19.53125 74.21875 31.78125 74.21875 
z
" id="DejaVuSans-30"/>
      </defs>
      <g transform="translate(54.41875 177.030437)scale(0.1 -0.1)">
       <use xlink:href="#DejaVuSans-30"/>
      </g>
     </g>
    </g>
    <g id="xtick_2">
     <g id="line2d_3">
      <path clip-path="url(#pbd96193e33)" d="M 129.024 162.432 
L 129.024 41.472 
" style="fill:none;stroke:#b0b0b0;stroke-linecap:square;stroke-width:0.8;"/>
     </g>
     <g id="line2d_4">
      <g>
       <use style="stroke:#000000;stroke-width:0.8;" x="129.024" xlink:href="#me37e8c7109" y="162.432"/>
      </g>
     </g>
     <g id="text_2">
      <!-- 5 -->
      <defs>
       <path d="M 10.796875 72.90625 
L 49.515625 72.90625 
L 49.515625 64.59375 
L 19.828125 64.59375 
L 19.828125 46.734375 
Q 21.96875 47.46875 24.109375 47.828125 
Q 26.265625 48.1875 28.421875 48.1875 
Q 40.625 48.1875 47.75 41.5 
Q 54.890625 34.8125 54.890625 23.390625 
Q 54.890625 11.625 47.5625 5.09375 
Q 40.234375 -1.421875 26.90625 -1.421875 
Q 22.3125 -1.421875 17.546875 -0.640625 
Q 12.796875 0.140625 7.71875 1.703125 
L 7.71875 11.625 
Q 12.109375 9.234375 16.796875 8.0625 
Q 21.484375 6.890625 26.703125 6.890625 
Q 35.15625 6.890625 40.078125 11.328125 
Q 45.015625 15.765625 45.015625 23.390625 
Q 45.015625 31 40.078125 35.4375 
Q 35.15625 39.890625 26.703125 39.890625 
Q 22.75 39.890625 18.8125 39.015625 
Q 14.890625 38.140625 10.796875 36.28125 
z
" id="DejaVuSans-35"/>
      </defs>
      <g transform="translate(125.84275 177.030437)scale(0.1 -0.1)">
       <use xlink:href="#DejaVuSans-35"/>
      </g>
     </g>
    </g>
    <g id="xtick_3">
     <g id="line2d_5">
      <path clip-path="url(#pbd96193e33)" d="M 200.448 162.432 
L 200.448 41.472 
" style="fill:none;stroke:#b0b0b0;stroke-linecap:square;stroke-width:0.8;"/>
     </g>
     <g id="line2d_6">
      <g>
       <use style="stroke:#000000;stroke-width:0.8;" x="200.448" xlink:href="#me37e8c7109" y="162.432"/>
      </g>
     </g>
     <g id="text_3">
      <!-- 10 -->
      <defs>
       <path d="M 12.40625 8.296875 
L 28.515625 8.296875 
L 28.515625 63.921875 
L 10.984375 60.40625 
L 10.984375 69.390625 
L 28.421875 72.90625 
L 38.28125 72.90625 
L 38.28125 8.296875 
L 54.390625 8.296875 
L 54.390625 0 
L 12.40625 0 
z
" id="DejaVuSans-31"/>
      </defs>
      <g transform="translate(194.0855 177.030437)scale(0.1 -0.1)">
       <use xlink:href="#DejaVuSans-31"/>
       <use x="63.623047" xlink:href="#DejaVuSans-30"/>
      </g>
     </g>
    </g>
    <g id="xtick_4">
     <g id="line2d_7">
      <path clip-path="url(#pbd96193e33)" d="M 271.872 162.432 
L 271.872 41.472 
" style="fill:none;stroke:#b0b0b0;stroke-linecap:square;stroke-width:0.8;"/>
     </g>
     <g id="line2d_8">
      <g>
       <use style="stroke:#000000;stroke-width:0.8;" x="271.872" xlink:href="#me37e8c7109" y="162.432"/>
      </g>
     </g>
     <g id="text_4">
      <!-- 15 -->
      <g transform="translate(265.5095 177.030437)scale(0.1 -0.1)">
       <use xlink:href="#DejaVuSans-31"/>
       <use x="63.623047" xlink:href="#DejaVuSans-35"/>
      </g>
     </g>
    </g>
    <g id="xtick_5">
     <g id="line2d_9">
      <path clip-path="url(#pbd96193e33)" d="M 343.296 162.432 
L 343.296 41.472 
" style="fill:none;stroke:#b0b0b0;stroke-linecap:square;stroke-width:0.8;"/>
     </g>
     <g id="line2d_10">
      <g>
       <use style="stroke:#000000;stroke-width:0.8;" x="343.296" xlink:href="#me37e8c7109" y="162.432"/>
      </g>
     </g>
     <g id="text_5">
      <!-- 20 -->
      <defs>
       <path d="M 19.1875 8.296875 
L 53.609375 8.296875 
L 53.609375 0 
L 7.328125 0 
L 7.328125 8.296875 
Q 12.9375 14.109375 22.625 23.890625 
Q 32.328125 33.6875 34.8125 36.53125 
Q 39.546875 41.84375 41.421875 45.53125 
Q 43.3125 49.21875 43.3125 52.78125 
Q 43.3125 58.59375 39.234375 62.25 
Q 35.15625 65.921875 28.609375 65.921875 
Q 23.96875 65.921875 18.8125 64.3125 
Q 13.671875 62.703125 7.8125 59.421875 
L 7.8125 69.390625 
Q 13.765625 71.78125 18.9375 73 
Q 24.125 74.21875 28.421875 74.21875 
Q 39.75 74.21875 46.484375 68.546875 
Q 53.21875 62.890625 53.21875 53.421875 
Q 53.21875 48.921875 51.53125 44.890625 
Q 49.859375 40.875 45.40625 35.40625 
Q 44.1875 33.984375 37.640625 27.21875 
Q 31.109375 20.453125 19.1875 8.296875 
z
" id="DejaVuSans-32"/>
      </defs>
      <g transform="translate(336.9335 177.030437)scale(0.1 -0.1)">
       <use xlink:href="#DejaVuSans-32"/>
       <use x="63.623047" xlink:href="#DejaVuSans-30"/>
      </g>
     </g>
    </g>
    <g id="xtick_6">
     <g id="line2d_11">
      <path clip-path="url(#pbd96193e33)" d="M 414.72 162.432 
L 414.72 41.472 
" style="fill:none;stroke:#b0b0b0;stroke-linecap:square;stroke-width:0.8;"/>
     </g>
     <g id="line2d_12">
      <g>
       <use style="stroke:#000000;stroke-width:0.8;" x="414.72" xlink:href="#me37e8c7109" y="162.432"/>
      </g>
     </g>
     <g id="text_6">
      <!-- 25 -->
      <g transform="translate(408.3575 177.030437)scale(0.1 -0.1)">
       <use xlink:href="#DejaVuSans-32"/>
       <use x="63.623047" xlink:href="#DejaVuSans-35"/>
      </g>
     </g>
    </g>
    <g id="text_7">
     <!-- Time period (s) -->
     <defs>
      <path d="M -0.296875 72.90625 
L 61.375 72.90625 
L 61.375 64.59375 
L 35.5 64.59375 
L 35.5 0 
L 25.59375 0 
L 25.59375 64.59375 
L -0.296875 64.59375 
z
" id="DejaVuSans-54"/>
      <path d="M 9.421875 54.6875 
L 18.40625 54.6875 
L 18.40625 0 
L 9.421875 0 
z
M 9.421875 75.984375 
L 18.40625 75.984375 
L 18.40625 64.59375 
L 9.421875 64.59375 
z
" id="DejaVuSans-69"/>
      <path d="M 52 44.1875 
Q 55.375 50.25 60.0625 53.125 
Q 64.75 56 71.09375 56 
Q 79.640625 56 84.28125 50.015625 
Q 88.921875 44.046875 88.921875 33.015625 
L 88.921875 0 
L 79.890625 0 
L 79.890625 32.71875 
Q 79.890625 40.578125 77.09375 44.375 
Q 74.3125 48.1875 68.609375 48.1875 
Q 61.625 48.1875 57.5625 43.546875 
Q 53.515625 38.921875 53.515625 30.90625 
L 53.515625 0 
L 44.484375 0 
L 44.484375 32.71875 
Q 44.484375 40.625 41.703125 44.40625 
Q 38.921875 48.1875 33.109375 48.1875 
Q 26.21875 48.1875 22.15625 43.53125 
Q 18.109375 38.875 18.109375 30.90625 
L 18.109375 0 
L 9.078125 0 
L 9.078125 54.6875 
L 18.109375 54.6875 
L 18.109375 46.1875 
Q 21.1875 51.21875 25.484375 53.609375 
Q 29.78125 56 35.6875 56 
Q 41.65625 56 45.828125 52.96875 
Q 50 49.953125 52 44.1875 
z
" id="DejaVuSans-6d"/>
      <path d="M 56.203125 29.59375 
L 56.203125 25.203125 
L 14.890625 25.203125 
Q 15.484375 15.921875 20.484375 11.0625 
Q 25.484375 6.203125 34.421875 6.203125 
Q 39.59375 6.203125 44.453125 7.46875 
Q 49.3125 8.734375 54.109375 11.28125 
L 54.109375 2.78125 
Q 49.265625 0.734375 44.1875 -0.34375 
Q 39.109375 -1.421875 33.890625 -1.421875 
Q 20.796875 -1.421875 13.15625 6.1875 
Q 5.515625 13.8125 5.515625 26.8125 
Q 5.515625 40.234375 12.765625 48.109375 
Q 20.015625 56 32.328125 56 
Q 43.359375 56 49.78125 48.890625 
Q 56.203125 41.796875 56.203125 29.59375 
z
M 47.21875 32.234375 
Q 47.125 39.59375 43.09375 43.984375 
Q 39.0625 48.390625 32.421875 48.390625 
Q 24.90625 48.390625 20.390625 44.140625 
Q 15.875 39.890625 15.1875 32.171875 
z
" id="DejaVuSans-65"/>
      <path id="DejaVuSans-20"/>
      <path d="M 18.109375 8.203125 
L 18.109375 -20.796875 
L 9.078125 -20.796875 
L 9.078125 54.6875 
L 18.109375 54.6875 
L 18.109375 46.390625 
Q 20.953125 51.265625 25.265625 53.625 
Q 29.59375 56 35.59375 56 
Q 45.5625 56 51.78125 48.09375 
Q 58.015625 40.1875 58.015625 27.296875 
Q 58.015625 14.40625 51.78125 6.484375 
Q 45.5625 -1.421875 35.59375 -1.421875 
Q 29.59375 -1.421875 25.265625 0.953125 
Q 20.953125 3.328125 18.109375 8.203125 
z
M 48.6875 27.296875 
Q 48.6875 37.203125 44.609375 42.84375 
Q 40.53125 48.484375 33.40625 48.484375 
Q 26.265625 48.484375 22.1875 42.84375 
Q 18.109375 37.203125 18.109375 27.296875 
Q 18.109375 17.390625 22.1875 11.75 
Q 26.265625 6.109375 33.40625 6.109375 
Q 40.53125 6.109375 44.609375 11.75 
Q 48.6875 17.390625 48.6875 27.296875 
z
" id="DejaVuSans-70"/>
      <path d="M 41.109375 46.296875 
Q 39.59375 47.171875 37.8125 47.578125 
Q 36.03125 48 33.890625 48 
Q 26.265625 48 22.1875 43.046875 
Q 18.109375 38.09375 18.109375 28.8125 
L 18.109375 0 
L 9.078125 0 
L 9.078125 54.6875 
L 18.109375 54.6875 
L 18.109375 46.1875 
Q 20.953125 51.171875 25.484375 53.578125 
Q 30.03125 56 36.53125 56 
Q 37.453125 56 38.578125 55.875 
Q 39.703125 55.765625 41.0625 55.515625 
z
" id="DejaVuSans-72"/>
      <path d="M 30.609375 48.390625 
Q 23.390625 48.390625 19.1875 42.75 
Q 14.984375 37.109375 14.984375 27.296875 
Q 14.984375 17.484375 19.15625 11.84375 
Q 23.34375 6.203125 30.609375 6.203125 
Q 37.796875 6.203125 41.984375 11.859375 
Q 46.1875 17.53125 46.1875 27.296875 
Q 46.1875 37.015625 41.984375 42.703125 
Q 37.796875 48.390625 30.609375 48.390625 
z
M 30.609375 56 
Q 42.328125 56 49.015625 48.375 
Q 55.71875 40.765625 55.71875 27.296875 
Q 55.71875 13.875 49.015625 6.21875 
Q 42.328125 -1.421875 30.609375 -1.421875 
Q 18.84375 -1.421875 12.171875 6.21875 
Q 5.515625 13.875 5.515625 27.296875 
Q 5.515625 40.765625 12.171875 48.375 
Q 18.84375 56 30.609375 56 
z
" id="DejaVuSans-6f"/>
      <path d="M 45.40625 46.390625 
L 45.40625 75.984375 
L 54.390625 75.984375 
L 54.390625 0 
L 45.40625 0 
L 45.40625 8.203125 
Q 42.578125 3.328125 38.25 0.953125 
Q 33.9375 -1.421875 27.875 -1.421875 
Q 17.96875 -1.421875 11.734375 6.484375 
Q 5.515625 14.40625 5.515625 27.296875 
Q 5.515625 40.1875 11.734375 48.09375 
Q 17.96875 56 27.875 56 
Q 33.9375 56 38.25 53.625 
Q 42.578125 51.265625 45.40625 46.390625 
z
M 14.796875 27.296875 
Q 14.796875 17.390625 18.875 11.75 
Q 22.953125 6.109375 30.078125 6.109375 
Q 37.203125 6.109375 41.296875 11.75 
Q 45.40625 17.390625 45.40625 27.296875 
Q 45.40625 37.203125 41.296875 42.84375 
Q 37.203125 48.484375 30.078125 48.484375 
Q 22.953125 48.484375 18.875 42.84375 
Q 14.796875 37.203125 14.796875 27.296875 
z
" id="DejaVuSans-64"/>
      <path d="M 31 75.875 
Q 24.46875 64.65625 21.28125 53.65625 
Q 18.109375 42.671875 18.109375 31.390625 
Q 18.109375 20.125 21.3125 9.0625 
Q 24.515625 -2 31 -13.1875 
L 23.1875 -13.1875 
Q 15.875 -1.703125 12.234375 9.375 
Q 8.59375 20.453125 8.59375 31.390625 
Q 8.59375 42.28125 12.203125 53.3125 
Q 15.828125 64.359375 23.1875 75.875 
z
" id="DejaVuSans-28"/>
      <path d="M 44.28125 53.078125 
L 44.28125 44.578125 
Q 40.484375 46.53125 36.375 47.5 
Q 32.28125 48.484375 27.875 48.484375 
Q 21.1875 48.484375 17.84375 46.4375 
Q 14.5 44.390625 14.5 40.28125 
Q 14.5 37.15625 16.890625 35.375 
Q 19.28125 33.59375 26.515625 31.984375 
L 29.59375 31.296875 
Q 39.15625 29.25 43.1875 25.515625 
Q 47.21875 21.78125 47.21875 15.09375 
Q 47.21875 7.46875 41.1875 3.015625 
Q 35.15625 -1.421875 24.609375 -1.421875 
Q 20.21875 -1.421875 15.453125 -0.5625 
Q 10.6875 0.296875 5.421875 2 
L 5.421875 11.28125 
Q 10.40625 8.6875 15.234375 7.390625 
Q 20.0625 6.109375 24.8125 6.109375 
Q 31.15625 6.109375 34.5625 8.28125 
Q 37.984375 10.453125 37.984375 14.40625 
Q 37.984375 18.0625 35.515625 20.015625 
Q 33.0625 21.96875 24.703125 23.78125 
L 21.578125 24.515625 
Q 13.234375 26.265625 9.515625 29.90625 
Q 5.8125 33.546875 5.8125 39.890625 
Q 5.8125 47.609375 11.28125 51.796875 
Q 16.75 56 26.8125 56 
Q 31.78125 56 36.171875 55.265625 
Q 40.578125 54.546875 44.28125 53.078125 
z
" id="DejaVuSans-73"/>
      <path d="M 8.015625 75.875 
L 15.828125 75.875 
Q 23.140625 64.359375 26.78125 53.3125 
Q 30.421875 42.28125 30.421875 31.390625 
Q 30.421875 20.453125 26.78125 9.375 
Q 23.140625 -1.703125 15.828125 -13.1875 
L 8.015625 -13.1875 
Q 14.5 -2 17.703125 9.0625 
Q 20.90625 20.125 20.90625 31.390625 
Q 20.90625 42.671875 17.703125 53.65625 
Q 14.5 64.65625 8.015625 75.875 
z
" id="DejaVuSans-29"/>
     </defs>
     <g transform="translate(198.159219 190.708562)scale(0.1 -0.1)">
      <use xlink:href="#DejaVuSans-54"/>
      <use x="61.037109" xlink:href="#DejaVuSans-69"/>
      <use x="88.820312" xlink:href="#DejaVuSans-6d"/>
      <use x="186.232422" xlink:href="#DejaVuSans-65"/>
      <use x="247.755859" xlink:href="#DejaVuSans-20"/>
      <use x="279.542969" xlink:href="#DejaVuSans-70"/>
      <use x="343.019531" xlink:href="#DejaVuSans-65"/>
      <use x="404.542969" xlink:href="#DejaVuSans-72"/>
      <use x="445.65625" xlink:href="#DejaVuSans-69"/>
      <use x="473.439453" xlink:href="#DejaVuSans-6f"/>
      <use x="534.621094" xlink:href="#DejaVuSans-64"/>
      <use x="598.097656" xlink:href="#DejaVuSans-20"/>
      <use x="629.884766" xlink:href="#DejaVuSans-28"/>
      <use x="668.898438" xlink:href="#DejaVuSans-73"/>
      <use x="720.998047" xlink:href="#DejaVuSans-29"/>
     </g>
    </g>
   </g>
   <g id="matplotlib.axis_2">
    <g id="ytick_1">
     <g id="line2d_13">
      <path clip-path="url(#pbd96193e33)" d="M 57.6 156.93385 
L 414.72 156.93385 
" style="fill:none;stroke:#b0b0b0;stroke-linecap:square;stroke-width:0.8;"/>
     </g>
     <g id="line2d_14">
      <defs>
       <path d="M 0 0 
L -3.5 0 
" id="m4f27b218fb" style="stroke:#000000;stroke-width:0.8;"/>
      </defs>
      <g>
       <use style="stroke:#000000;stroke-width:0.8;" x="57.6" xlink:href="#m4f27b218fb" y="156.93385"/>
      </g>
     </g>
     <g id="text_8">
      <!-- 0 -->
      <g transform="translate(44.2375 160.733069)scale(0.1 -0.1)">
       <use xlink:href="#DejaVuSans-30"/>
      </g>
     </g>
    </g>
    <g id="ytick_2">
     <g id="line2d_15">
      <path clip-path="url(#pbd96193e33)" d="M 57.6 127.293262 
L 414.72 127.293262 
" style="fill:none;stroke:#b0b0b0;stroke-linecap:square;stroke-width:0.8;"/>
     </g>
     <g id="line2d_16">
      <g>
       <use style="stroke:#000000;stroke-width:0.8;" x="57.6" xlink:href="#m4f27b218fb" y="127.293262"/>
      </g>
     </g>
     <g id="text_9">
      <!-- 2 -->
      <g transform="translate(44.2375 131.092481)scale(0.1 -0.1)">
       <use xlink:href="#DejaVuSans-32"/>
      </g>
     </g>
    </g>
    <g id="ytick_3">
     <g id="line2d_17">
      <path clip-path="url(#pbd96193e33)" d="M 57.6 97.652674 
L 414.72 97.652674 
" style="fill:none;stroke:#b0b0b0;stroke-linecap:square;stroke-width:0.8;"/>
     </g>
     <g id="line2d_18">
      <g>
       <use style="stroke:#000000;stroke-width:0.8;" x="57.6" xlink:href="#m4f27b218fb" y="97.652674"/>
      </g>
     </g>
     <g id="text_10">
      <!-- 4 -->
      <defs>
       <path d="M 37.796875 64.3125 
L 12.890625 25.390625 
L 37.796875 25.390625 
z
M 35.203125 72.90625 
L 47.609375 72.90625 
L 47.609375 25.390625 
L 58.015625 25.390625 
L 58.015625 17.1875 
L 47.609375 17.1875 
L 47.609375 0 
L 37.796875 0 
L 37.796875 17.1875 
L 4.890625 17.1875 
L 4.890625 26.703125 
z
" id="DejaVuSans-34"/>
      </defs>
      <g transform="translate(44.2375 101.451893)scale(0.1 -0.1)">
       <use xlink:href="#DejaVuSans-34"/>
      </g>
     </g>
    </g>
    <g id="ytick_4">
     <g id="line2d_19">
      <path clip-path="url(#pbd96193e33)" d="M 57.6 68.012086 
L 414.72 68.012086 
" style="fill:none;stroke:#b0b0b0;stroke-linecap:square;stroke-width:0.8;"/>
     </g>
     <g id="line2d_20">
      <g>
       <use style="stroke:#000000;stroke-width:0.8;" x="57.6" xlink:href="#m4f27b218fb" y="68.012086"/>
      </g>
     </g>
     <g id="text_11">
      <!-- 6 -->
      <defs>
       <path d="M 33.015625 40.375 
Q 26.375 40.375 22.484375 35.828125 
Q 18.609375 31.296875 18.609375 23.390625 
Q 18.609375 15.53125 22.484375 10.953125 
Q 26.375 6.390625 33.015625 6.390625 
Q 39.65625 6.390625 43.53125 10.953125 
Q 47.40625 15.53125 47.40625 23.390625 
Q 47.40625 31.296875 43.53125 35.828125 
Q 39.65625 40.375 33.015625 40.375 
z
M 52.59375 71.296875 
L 52.59375 62.3125 
Q 48.875 64.0625 45.09375 64.984375 
Q 41.3125 65.921875 37.59375 65.921875 
Q 27.828125 65.921875 22.671875 59.328125 
Q 17.53125 52.734375 16.796875 39.40625 
Q 19.671875 43.65625 24.015625 45.921875 
Q 28.375 48.1875 33.59375 48.1875 
Q 44.578125 48.1875 50.953125 41.515625 
Q 57.328125 34.859375 57.328125 23.390625 
Q 57.328125 12.15625 50.6875 5.359375 
Q 44.046875 -1.421875 33.015625 -1.421875 
Q 20.359375 -1.421875 13.671875 8.265625 
Q 6.984375 17.96875 6.984375 36.375 
Q 6.984375 53.65625 15.1875 63.9375 
Q 23.390625 74.21875 37.203125 74.21875 
Q 40.921875 74.21875 44.703125 73.484375 
Q 48.484375 72.75 52.59375 71.296875 
z
" id="DejaVuSans-36"/>
      </defs>
      <g transform="translate(44.2375 71.811305)scale(0.1 -0.1)">
       <use xlink:href="#DejaVuSans-36"/>
      </g>
     </g>
    </g>
    <g id="text_12">
     <!-- Amplitude (m/m or deg/m) -->
     <defs>
      <path d="M 34.1875 63.1875 
L 20.796875 26.90625 
L 47.609375 26.90625 
z
M 28.609375 72.90625 
L 39.796875 72.90625 
L 67.578125 0 
L 57.328125 0 
L 50.6875 18.703125 
L 17.828125 18.703125 
L 11.1875 0 
L 0.78125 0 
z
" id="DejaVuSans-41"/>
      <path d="M 9.421875 75.984375 
L 18.40625 75.984375 
L 18.40625 0 
L 9.421875 0 
z
" id="DejaVuSans-6c"/>
      <path d="M 18.3125 70.21875 
L 18.3125 54.6875 
L 36.8125 54.6875 
L 36.8125 47.703125 
L 18.3125 47.703125 
L 18.3125 18.015625 
Q 18.3125 11.328125 20.140625 9.421875 
Q 21.96875 7.515625 27.59375 7.515625 
L 36.8125 7.515625 
L 36.8125 0 
L 27.59375 0 
Q 17.1875 0 13.234375 3.875 
Q 9.28125 7.765625 9.28125 18.015625 
L 9.28125 47.703125 
L 2.6875 47.703125 
L 2.6875 54.6875 
L 9.28125 54.6875 
L 9.28125 70.21875 
z
" id="DejaVuSans-74"/>
      <path d="M 8.5 21.578125 
L 8.5 54.6875 
L 17.484375 54.6875 
L 17.484375 21.921875 
Q 17.484375 14.15625 20.5 10.265625 
Q 23.53125 6.390625 29.59375 6.390625 
Q 36.859375 6.390625 41.078125 11.03125 
Q 45.3125 15.671875 45.3125 23.6875 
L 45.3125 54.6875 
L 54.296875 54.6875 
L 54.296875 0 
L 45.3125 0 
L 45.3125 8.40625 
Q 42.046875 3.421875 37.71875 1 
Q 33.40625 -1.421875 27.6875 -1.421875 
Q 18.265625 -1.421875 13.375 4.4375 
Q 8.5 10.296875 8.5 21.578125 
z
M 31.109375 56 
z
" id="DejaVuSans-75"/>
      <path d="M 25.390625 72.90625 
L 33.6875 72.90625 
L 8.296875 -9.28125 
L 0 -9.28125 
z
" id="DejaVuSans-2f"/>
      <path d="M 45.40625 27.984375 
Q 45.40625 37.75 41.375 43.109375 
Q 37.359375 48.484375 30.078125 48.484375 
Q 22.859375 48.484375 18.828125 43.109375 
Q 14.796875 37.75 14.796875 27.984375 
Q 14.796875 18.265625 18.828125 12.890625 
Q 22.859375 7.515625 30.078125 7.515625 
Q 37.359375 7.515625 41.375 12.890625 
Q 45.40625 18.265625 45.40625 27.984375 
z
M 54.390625 6.78125 
Q 54.390625 -7.171875 48.1875 -13.984375 
Q 42 -20.796875 29.203125 -20.796875 
Q 24.46875 -20.796875 20.265625 -20.09375 
Q 16.0625 -19.390625 12.109375 -17.921875 
L 12.109375 -9.1875 
Q 16.0625 -11.328125 19.921875 -12.34375 
Q 23.78125 -13.375 27.78125 -13.375 
Q 36.625 -13.375 41.015625 -8.765625 
Q 45.40625 -4.15625 45.40625 5.171875 
L 45.40625 9.625 
Q 42.625 4.78125 38.28125 2.390625 
Q 33.9375 0 27.875 0 
Q 17.828125 0 11.671875 7.65625 
Q 5.515625 15.328125 5.515625 27.984375 
Q 5.515625 40.671875 11.671875 48.328125 
Q 17.828125 56 27.875 56 
Q 33.9375 56 38.28125 53.609375 
Q 42.625 51.21875 45.40625 46.390625 
L 45.40625 54.6875 
L 54.390625 54.6875 
z
" id="DejaVuSans-67"/>
     </defs>
     <g transform="translate(38.157812 168.762938)rotate(-90)scale(0.1 -0.1)">
      <use xlink:href="#DejaVuSans-41"/>
      <use x="68.408203" xlink:href="#DejaVuSans-6d"/>
      <use x="165.820312" xlink:href="#DejaVuSans-70"/>
      <use x="229.296875" xlink:href="#DejaVuSans-6c"/>
      <use x="257.080078" xlink:href="#DejaVuSans-69"/>
      <use x="284.863281" xlink:href="#DejaVuSans-74"/>
      <use x="324.072266" xlink:href="#DejaVuSans-75"/>
      <use x="387.451172" xlink:href="#DejaVuSans-64"/>
      <use x="450.927734" xlink:href="#DejaVuSans-65"/>
      <use x="512.451172" xlink:href="#DejaVuSans-20"/>
      <use x="544.238281" xlink:href="#DejaVuSans-28"/>
      <use x="583.251953" xlink:href="#DejaVuSans-6d"/>
      <use x="680.664062" xlink:href="#DejaVuSans-2f"/>
      <use x="714.355469" xlink:href="#DejaVuSans-6d"/>
      <use x="811.767578" xlink:href="#DejaVuSans-20"/>
      <use x="843.554688" xlink:href="#DejaVuSans-6f"/>
      <use x="904.736328" xlink:href="#DejaVuSans-72"/>
      <use x="945.849609" xlink:href="#DejaVuSans-20"/>
      <use x="977.636719" xlink:href="#DejaVuSans-64"/>
      <use x="1041.113281" xlink:href="#DejaVuSans-65"/>
      <use x="1102.636719" xlink:href="#DejaVuSans-67"/>
      <use x="1166.113281" xlink:href="#DejaVuSans-2f"/>
      <use x="1199.804688" xlink:href="#DejaVuSans-6d"/>
      <use x="1297.216797" xlink:href="#DejaVuSans-29"/>
     </g>
    </g>
   </g>
   <g id="line2d_21">
    <path clip-path="url(#pbd96193e33)" d="M 102.482842 156.929256 
L 105.954048 156.929401 
L 107.296819 156.928043 
L 108.711014 156.925137 
L 110.210918 156.921826 
L 111.796531 156.916969 
L 113.482138 156.910523 
L 115.282022 156.902505 
L 117.196186 156.890901 
L 119.238912 156.875858 
L 121.438771 156.857066 
L 123.795763 156.832123 
L 126.324173 156.798481 
L 129.066854 156.757637 
L 132.023808 156.709471 
L 135.237888 156.647225 
L 138.751949 156.561119 
L 142.59456 156.426551 
L 146.822861 156.228552 
L 151.479706 155.935703 
L 156.665088 155.497171 
L 162.450432 154.841224 
L 168.964301 153.836408 
L 176.320973 152.256565 
L 184.73472 149.726741 
L 194.419814 145.821593 
L 205.733376 141.194698 
L 208.161792 140.438863 
L 210.733056 139.81641 
L 213.447168 139.342161 
L 216.16128 139.001294 
L 220.44672 138.734529 
L 223.446528 138.704888 
L 226.589184 138.749349 
L 229.874688 138.867912 
L 233.30304 139.045755 
L 252.301824 140.127636 
L 276.014592 141.016854 
L 306.15552 141.580025 
L 313.29792 141.668947 
L 320.868864 141.787509 
L 328.725504 141.994994 
L 330.43968 142.009814 
L 337.153536 141.980173 
L 346.15296 141.935712 
L 356.723712 141.935712 
L 367.151616 141.950533 
L 378.150912 141.980173 
L 390.007296 141.994994 
L 402.863616 142.024634 
L 416.577024 142.039454 
L 461.8 142.061832 
" style="fill:none;stroke:#0000ff;stroke-linecap:square;stroke-width:1.5;"/>
   </g>
   <g id="line2d_22">
    <path clip-path="url(#pbd96193e33)" d="M 102.482842 156.932022 
L 105.954048 156.927879 
L 107.296819 156.925657 
L 108.711014 156.923447 
L 110.210918 156.920759 
L 111.796531 156.918081 
L 113.482138 156.915117 
L 115.282022 156.911027 
L 117.196186 156.907692 
L 119.238912 156.904906 
L 121.438771 156.907173 
L 123.795763 156.913309 
L 126.324173 156.914598 
L 129.066854 156.909856 
L 132.023808 156.903483 
L 135.237888 156.898592 
L 138.751949 156.894472 
L 142.59456 156.890871 
L 146.822861 156.88558 
L 151.479706 156.880452 
L 156.665088 156.866136 
L 162.450432 156.851686 
L 168.964301 156.830908 
L 176.320973 156.80186 
L 184.73472 156.773939 
L 194.419814 156.741186 
L 205.733376 156.726959 
L 208.161792 156.730515 
L 210.733056 156.736295 
L 213.447168 156.743854 
L 216.16128 156.752598 
L 220.44672 156.766825 
L 223.446528 156.776458 
L 226.589184 156.786032 
L 229.874688 156.795339 
L 233.30304 156.804365 
L 252.301824 156.844676 
L 276.014592 156.87485 
L 306.15552 156.894057 
L 313.29792 156.896992 
L 320.868864 156.899822 
L 328.725504 156.902579 
L 330.43968 156.903009 
L 337.153536 156.904313 
L 346.15296 156.906091 
L 356.723712 156.908181 
L 367.151616 156.910019 
L 378.150912 156.911768 
L 390.007296 156.913442 
L 402.863616 156.915043 
L 416.577024 156.916555 
L 461.8 156.919836 
" style="fill:none;stroke:#008000;stroke-linecap:square;stroke-width:1.5;"/>
   </g>
   <g id="line2d_23">
    <path clip-path="url(#pbd96193e33)" d="M 102.482842 156.773198 
L 105.954048 156.699541 
L 107.296819 156.668418 
L 108.711014 156.637444 
L 110.210918 156.598022 
L 111.796531 156.546892 
L 113.482138 156.48272 
L 115.282022 156.409063 
L 117.196186 156.326811 
L 119.238912 156.241297 
L 121.438771 156.141112 
L 123.795763 156.017066 
L 126.324173 155.86338 
L 129.066854 155.685981 
L 132.023808 155.483536 
L 135.237888 155.253228 
L 138.751949 154.998319 
L 142.59456 154.712288 
L 146.822861 154.389205 
L 151.479706 154.006842 
L 156.665088 153.566679 
L 162.450432 153.052415 
L 168.964301 152.462567 
L 176.320973 151.79269 
L 184.73472 151.051675 
L 194.419814 150.235077 
L 205.733376 149.362162 
L 208.161792 149.175426 
L 210.733056 148.984244 
L 213.447168 148.790098 
L 216.16128 148.591506 
L 220.44672 148.289172 
L 223.446528 148.086134 
L 226.589184 147.883096 
L 229.874688 147.68154 
L 233.30304 147.481466 
L 252.301824 146.522593 
L 276.014592 145.65116 
L 306.15552 144.984247 
L 313.29792 144.948678 
L 320.868864 145.03019 
L 328.725504 145.007959 
L 330.43968 144.868649 
L 337.153536 144.15431 
L 346.15296 143.811962 
L 356.723712 143.668205 
L 367.151616 143.564463 
L 378.150912 143.463685 
L 390.007296 143.365871 
L 402.863616 143.269539 
L 416.577024 143.176171 
L 461.8 142.973281 
" style="fill:none;stroke:#ff0000;stroke-linecap:square;stroke-width:1.5;"/>
   </g>
   <g id="line2d_24">
    <path clip-path="url(#pbd96193e33)" d="M 102.482842 156.908877 
L 105.954048 156.897379 
L 107.296819 156.890875 
L 108.711014 156.885619 
L 110.210918 156.881976 
L 111.796531 156.878664 
L 113.482138 156.873009 
L 115.282022 156.865944 
L 117.196186 156.858115 
L 119.238912 156.850761 
L 121.438771 156.84452 
L 123.795763 156.838322 
L 126.324173 156.83 
L 129.066854 156.821509 
L 132.023808 156.816244 
L 135.237888 156.811319 
L 138.751949 156.80529 
L 142.59456 156.793572 
L 146.822861 156.786439 
L 151.479706 156.777948 
L 156.665088 156.772004 
L 162.450432 156.768947 
L 168.964301 156.765211 
L 176.320973 156.767758 
L 184.73472 156.779306 
L 194.419814 156.781174 
L 205.733376 156.794421 
L 208.161792 156.798836 
L 210.733056 156.803337 
L 213.447168 156.807837 
L 216.16128 156.812083 
L 220.44672 156.817602 
L 223.446528 156.820744 
L 226.589184 156.823292 
L 229.874688 156.82533 
L 233.30304 156.827028 
L 252.301824 156.831613 
L 276.014592 156.827877 
L 306.15552 156.774551 
L 313.29792 156.734896 
L 320.868864 156.658304 
L 328.725504 156.555048 
L 330.43968 156.552925 
L 337.153536 156.648624 
L 346.15296 156.769626 
L 356.723712 156.833651 
L 367.151616 156.863838 
L 378.150912 156.882027 
L 390.007296 156.893923 
L 402.863616 156.902194 
L 416.577024 156.908197 
L 461.8 156.915664 
" style="fill:none;stroke:#ffa500;stroke-linecap:square;stroke-width:1.5;"/>
   </g>
   <g id="line2d_25">
    <path clip-path="url(#pbd96193e33)" d="M 102.482842 156.799431 
L 105.954048 156.73617 
L 107.296819 156.71112 
L 108.711014 156.688448 
L 110.210918 156.662719 
L 111.796531 156.624423 
L 113.482138 156.575598 
L 115.282022 156.527281 
L 117.196186 156.47905 
L 119.238912 156.43931 
L 121.438771 156.391334 
L 123.795763 156.332149 
L 126.324173 156.258698 
L 129.066854 156.170727 
L 132.023808 156.087002 
L 135.237888 156.032063 
L 138.751949 156.018477 
L 142.59456 156.018477 
L 146.822861 156.059235 
L 151.479706 156.127761 
L 156.665088 156.248254 
L 162.450432 156.423856 
L 168.964301 156.688533 
L 176.320973 156.717064 
L 184.73472 156.154084 
L 194.419814 155.368884 
L 205.733376 154.431433 
L 208.161792 154.231885 
L 210.733056 154.025544 
L 213.447168 153.809014 
L 216.16128 153.576349 
L 220.44672 153.187443 
L 223.446528 152.89364 
L 226.589184 152.566721 
L 229.874688 152.201591 
L 233.30304 151.794004 
L 252.301824 148.882302 
L 276.014592 142.990966 
L 306.15552 122.3144 
L 313.29792 109.458416 
L 320.868864 85.054124 
L 328.725504 49.347775 
L 330.43968 46.970182 
L 337.153536 69.217658 
L 346.15296 102.503957 
L 356.723712 121.142586 
L 367.151616 130.313302 
L 378.150912 136.078964 
L 390.007296 140.044449 
L 402.863616 142.931526 
L 416.577024 145.139291 
L 461.8 148.253179 
" style="fill:none;stroke:#000000;stroke-linecap:square;stroke-width:1.5;"/>
   </g>
   <g id="line2d_26">
    <path clip-path="url(#pbd96193e33)" d="M 102.482842 156.931656 
L 105.954048 156.928572 
L 107.296819 156.927575 
L 108.711014 156.926677 
L 110.210918 156.926173 
L 111.796531 156.926062 
L 113.482138 156.925476 
L 115.282022 156.924713 
L 117.196186 156.924789 
L 119.238912 156.924059 
L 121.438771 156.925624 
L 123.795763 156.924883 
L 126.324173 156.919525 
L 129.066854 156.9137 
L 132.023808 156.905769 
L 135.237888 156.898466 
L 138.751949 156.889728 
L 142.59456 156.881246 
L 146.822861 156.871073 
L 151.479706 156.859643 
L 156.665088 156.843926 
L 162.450432 156.827113 
L 168.964301 156.805545 
L 176.320973 156.772004 
L 184.73472 156.721395 
L 194.419814 156.652445 
L 205.733376 156.611686 
L 208.161792 156.616186 
L 210.733056 156.626121 
L 213.447168 156.640981 
L 216.16128 156.659747 
L 220.44672 156.692015 
L 223.446528 156.714262 
L 226.589184 156.73583 
L 229.874688 156.755955 
L 233.30304 156.774296 
L 252.301824 156.840784 
L 276.014592 156.880923 
L 306.15552 156.906414 
L 313.29792 156.910227 
L 320.868864 156.913971 
L 328.725504 156.918098 
L 330.43968 156.918744 
L 337.153536 156.91983 
L 346.15296 156.921087 
L 356.723712 156.922845 
L 367.151616 156.924373 
L 378.150912 156.925742 
L 390.007296 156.926951 
L 402.863616 156.928008 
L 416.577024 156.928926 
L 461.8 156.930442 
" style="fill:none;stroke:#9932cc;stroke-linecap:square;stroke-width:1.5;"/>
   </g>
   <g id="line2d_27">
    <path clip-path="url(#pbd96193e33)" d="M 102.482842 156.932524 
L 107.23968 156.93214 
L 108.653875 156.931772 
L 110.153779 156.93112 
L 111.739392 156.930367 
L 113.410714 156.929665 
L 115.210598 156.928645 
L 117.124762 156.926523 
L 119.153203 156.922484 
L 121.338778 156.916569 
L 123.69577 156.908863 
L 126.224179 156.898711 
L 128.952576 156.884602 
L 131.895245 156.866758 
L 135.109325 156.843372 
L 138.609101 156.811197 
L 142.437427 156.75986 
L 146.637158 156.683831 
L 151.294003 156.56764 
L 156.450816 156.388463 
L 162.20759 156.10747 
L 168.678605 155.665381 
L 176.006707 154.952377 
L 184.3776 153.756379 
L 194.005555 151.629667 
L 205.161984 147.517035 
L 218.446848 139.949793 
L 221.446656 138.141717 
L 224.446464 136.452204 
L 227.017728 135.26658 
L 230.160384 134.169878 
L 233.588736 133.562246 
L 236.731392 133.428864 
L 256.587264 136.333641 
L 281.442816 139.179138 
L 287.156736 139.579286 
L 293.156352 139.920152 
L 299.584512 140.216558 
L 306.15552 140.483324 
L 313.29792 140.720448 
L 320.868864 140.927932 
L 328.725504 141.135416 
L 337.153536 141.387361 
L 340.724736 141.476283 
L 346.15296 141.505924 
L 355.723776 141.535564 
L 367.151616 141.609666 
L 378.150912 141.683767 
L 390.007296 141.757869 
L 402.863616 141.81715 
L 416.577024 141.861611 
L 461.8 141.943662 
" style="fill:none;stroke:#0000ff;stroke-dasharray:9.6,2.4,1.5,2.4;stroke-dashoffset:0;stroke-width:1.5;"/>
   </g>
   <g id="line2d_28">
    <path clip-path="url(#pbd96193e33)" d="M 102.482842 156.930598 
L 107.23968 156.927748 
L 108.653875 156.926958 
L 110.153779 156.925973 
L 111.739392 156.924626 
L 113.410714 156.923095 
L 115.210598 156.921426 
L 117.124762 156.91963 
L 119.153203 156.918022 
L 121.338778 156.91737 
L 123.69577 156.920137 
L 126.224179 156.923726 
L 128.952576 156.918689 
L 131.895245 156.909945 
L 135.109325 156.90126 
L 138.609101 156.893776 
L 142.437427 156.885832 
L 146.637158 156.879504 
L 151.294003 156.873887 
L 156.450816 156.866818 
L 162.20759 156.859363 
L 168.678605 156.853731 
L 176.006707 156.840319 
L 184.3776 156.825128 
L 194.005555 156.806795 
L 205.161984 156.755265 
L 218.446848 156.694947 
L 221.446656 156.690649 
L 224.446464 156.690649 
L 227.017728 156.693316 
L 230.160384 156.699689 
L 233.588736 156.709174 
L 236.731392 156.720141 
L 256.587264 156.793783 
L 281.442816 156.847477 
L 287.156736 156.855021 
L 293.156352 156.861705 
L 299.584512 156.867648 
L 306.15552 156.872968 
L 313.29792 156.877755 
L 320.868864 156.882112 
L 328.725504 156.886188 
L 337.153536 156.8901 
L 340.724736 156.891479 
L 346.15296 156.893138 
L 355.723776 156.89588 
L 367.151616 156.898948 
L 378.150912 156.901616 
L 390.007296 156.904135 
L 402.863616 156.906521 
L 416.577024 156.908774 
L 461.8 156.913555 
" style="fill:none;stroke:#008000;stroke-dasharray:9.6,2.4,1.5,2.4;stroke-dashoffset:0;stroke-width:1.5;"/>
   </g>
   <g id="line2d_29">
    <path clip-path="url(#pbd96193e33)" d="M 102.482842 156.835265 
L 107.23968 156.766529 
L 108.653875 156.747262 
L 110.153779 156.724735 
L 111.739392 156.692131 
L 113.410714 156.647818 
L 115.210598 156.595651 
L 117.124762 156.539778 
L 119.153203 156.479904 
L 121.338778 156.410249 
L 123.69577 156.321772 
L 126.224179 156.2081 
L 128.952576 156.066714 
L 131.895245 155.898504 
L 135.109325 155.706285 
L 138.609101 155.492132 
L 142.437427 155.2473 
L 146.637158 154.955341 
L 151.294003 154.595207 
L 156.450816 154.171347 
L 162.20759 153.654119 
L 168.678605 153.058343 
L 176.006707 152.355861 
L 184.3776 151.582242 
L 194.005555 150.70488 
L 205.161984 149.814181 
L 218.446848 148.873092 
L 221.446656 148.677464 
L 224.446464 148.478872 
L 227.017728 148.317331 
L 230.160384 148.112811 
L 233.588736 147.906809 
L 236.731392 147.718591 
L 256.587264 146.721185 
L 281.442816 145.837896 
L 287.156736 145.680801 
L 293.156352 145.532598 
L 299.584512 145.400697 
L 306.15552 145.288063 
L 313.29792 145.209515 
L 320.868864 145.193213 
L 328.725504 145.286581 
L 337.153536 145.236192 
L 340.724736 144.787137 
L 346.15296 143.945344 
L 355.723776 143.562981 
L 367.151616 143.51111 
L 378.150912 143.459239 
L 390.007296 143.391065 
L 402.863616 143.312518 
L 416.577024 143.229524 
L 461.8 143.025142 
" style="fill:none;stroke:#ff0000;stroke-dasharray:9.6,2.4,1.5,2.4;stroke-dashoffset:0;stroke-width:1.5;"/>
   </g>
   <g id="line2d_30">
    <path clip-path="url(#pbd96193e33)" d="M 102.482842 156.917877 
L 107.23968 156.908325 
L 108.653875 156.903824 
L 110.153779 156.899833 
L 111.739392 156.895324 
L 113.410714 156.889482 
L 115.210598 156.88257 
L 117.124762 156.87548 
L 119.153203 156.869553 
L 121.338778 156.865265 
L 123.69577 156.862242 
L 126.224179 156.859312 
L 128.952576 156.854871 
L 131.895245 156.845539 
L 135.109325 156.825415 
L 138.609101 156.805035 
L 142.437427 156.791194 
L 146.637158 156.784401 
L 151.294003 156.775825 
L 156.450816 156.77039 
L 162.20759 156.768352 
L 168.678605 156.767673 
L 176.006707 156.76555 
L 184.3776 156.782448 
L 194.005555 156.783552 
L 205.161984 156.796119 
L 218.446848 156.822188 
L 221.446656 156.826094 
L 224.446464 156.829406 
L 227.017728 156.831698 
L 230.160384 156.834246 
L 233.588736 156.836538 
L 236.731392 156.838491 
L 256.587264 156.847407 
L 281.442816 156.850371 
L 287.156736 156.849004 
L 293.156352 156.846303 
L 299.584512 156.841463 
L 306.15552 156.833397 
L 313.29792 156.819725 
L 320.868864 156.795015 
L 328.725504 156.746614 
L 337.153536 156.662465 
L 340.724736 156.647859 
L 346.15296 156.697109 
L 355.723776 156.801299 
L 367.151616 156.856136 
L 378.150912 156.880719 
L 390.007296 156.895061 
L 402.863616 156.904232 
L 416.577024 156.910481 
L 461.8 156.917533 
" style="fill:none;stroke:#ffa500;stroke-dasharray:9.6,2.4,1.5,2.4;stroke-dashoffset:0;stroke-width:1.5;"/>
   </g>
   <g id="line2d_31">
    <path clip-path="url(#pbd96193e33)" d="M 102.482842 156.914685 
L 107.23968 156.893983 
L 108.653875 156.887071 
L 110.153779 156.880838 
L 111.739392 156.871837 
L 113.410714 156.858039 
L 115.210598 156.839935 
L 117.124762 156.820659 
L 119.153203 156.800365 
L 121.338778 156.778542 
L 123.69577 156.752898 
L 126.224179 156.723093 
L 128.952576 156.688533 
L 131.895245 156.649812 
L 135.109325 156.599204 
L 138.609101 156.551312 
L 142.437427 156.524479 
L 146.637158 156.522866 
L 151.294003 156.535263 
L 156.450816 156.58757 
L 162.20759 156.667644 
L 168.678605 156.803082 
L 176.006707 156.74084 
L 184.3776 156.367813 
L 194.005555 155.784963 
L 205.161984 154.909499 
L 218.446848 153.632392 
L 221.446656 153.33859 
L 224.446464 153.044787 
L 227.017728 152.812972 
L 230.160384 152.52851 
L 233.588736 152.244048 
L 236.731392 151.97572 
L 256.587264 149.744179 
L 281.442816 144.842092 
L 287.156736 143.152303 
L 293.156352 140.995486 
L 299.584512 138.125392 
L 306.15552 134.100467 
L 313.29792 128.046097 
L 320.868864 117.966802 
L 328.725504 98.920585 
L 337.153536 64.6323 
L 340.724736 56.140897 
L 346.15296 69.047829 
L 355.723776 103.624822 
L 367.151616 123.078626 
L 378.150912 132.24085 
L 390.007296 137.845176 
L 402.863616 141.62385 
L 416.577024 144.332608 
L 461.8 147.829855 
" style="fill:none;stroke:#000000;stroke-dasharray:9.6,2.4,1.5,2.4;stroke-dashoffset:0;stroke-width:1.5;"/>
   </g>
   <g id="line2d_32">
    <path clip-path="url(#pbd96193e33)" d="M 102.482842 156.93361 
L 107.23968 156.93305 
L 108.653875 156.932903 
L 110.153779 156.932826 
L 111.739392 156.932798 
L 113.410714 156.932729 
L 115.210598 156.932601 
L 117.124762 156.932275 
L 119.153203 156.931834 
L 121.338778 156.931258 
L 123.69577 156.930323 
L 126.224179 156.928443 
L 128.952576 156.925838 
L 131.895245 156.922106 
L 135.109325 156.917886 
L 138.609101 156.913148 
L 142.437427 156.907484 
L 146.637158 156.901846 
L 151.294003 156.895723 
L 156.450816 156.889058 
L 162.20759 156.883114 
L 168.678605 156.87694 
L 176.006707 156.867039 
L 184.3776 156.847577 
L 194.005555 156.810894 
L 205.161984 156.72114 
L 218.446848 156.56804 
L 221.446656 156.551312 
L 224.446464 156.550378 
L 227.017728 156.561332 
L 230.160384 156.587061 
L 233.588736 156.621111 
L 236.731392 156.654398 
L 256.587264 156.799261 
L 281.442816 156.86895 
L 287.156736 156.877891 
L 293.156352 156.885678 
L 299.584512 156.892454 
L 306.15552 156.898356 
L 313.29792 156.903493 
L 320.868864 156.908019 
L 328.725504 156.91218 
L 337.153536 156.916468 
L 340.724736 156.917954 
L 346.15296 156.919041 
L 355.723776 156.920501 
L 367.151616 156.922471 
L 378.150912 156.924153 
L 390.007296 156.92564 
L 402.863616 156.926932 
L 416.577024 156.928048 
L 461.8 156.929858 
" style="fill:none;stroke:#9932cc;stroke-dasharray:9.6,2.4,1.5,2.4;stroke-dashoffset:0;stroke-width:1.5;"/>
   </g>
   <g id="line2d_33">
    <path clip-path="url(#pbd96193e33)" d="M 102.482842 156.93357 
L 108.396749 156.933681 
L 109.868083 156.933317 
L 111.439411 156.932419 
L 113.110733 156.931038 
L 114.882048 156.929057 
L 116.767642 156.928618 
L 118.781798 156.931112 
L 120.938803 156.932595 
L 123.252941 156.929319 
L 125.752781 156.925134 
L 128.438323 156.920082 
L 131.352422 156.914198 
L 134.509363 156.906966 
L 137.952 156.896844 
L 141.723187 156.878615 
L 145.851494 156.848485 
L 150.42263 156.798985 
L 155.47945 156.719697 
L 161.121946 156.589574 
L 167.464397 156.383572 
L 174.621082 156.044336 
L 182.777702 155.485759 
L 192.162816 154.515178 
L 203.019264 152.69821 
L 215.875584 148.919035 
L 231.16032 140.009074 
L 234.588672 137.133937 
L 238.159872 134.021675 
L 241.87392 131.057617 
L 245.730816 128.834573 
L 249.73056 127.841613 
L 254.016 128.108378 
L 258.444288 129.2199 
L 263.015424 130.70193 
L 267.729408 132.24324 
L 272.871936 133.665988 
L 278.157312 134.925713 
L 309.01248 138.927193 
L 316.297728 139.416262 
L 323.868672 139.860871 
L 332.011008 140.29066 
L 340.724736 140.601886 
L 350.009856 140.779729 
L 356.723712 140.913112 
L 367.151616 141.090956 
L 378.150912 141.253979 
L 390.007296 141.402182 
L 402.863616 141.520744 
L 416.577024 141.624486 
L 461.8 141.781129 
" style="fill:none;stroke:#0000ff;stroke-dasharray:1.5,2.475;stroke-dashoffset:0;stroke-width:1.5;"/>
   </g>
   <g id="line2d_34">
    <path clip-path="url(#pbd96193e33)" d="M 102.482842 156.932174 
L 108.396749 156.928258 
L 109.868083 156.926521 
L 111.439411 156.923911 
L 113.110733 156.92008 
L 114.882048 156.915562 
L 116.767642 156.916391 
L 118.781798 156.923209 
L 120.938803 156.928768 
L 123.252941 156.932248 
L 125.752781 156.931101 
L 128.438323 156.928102 
L 131.352422 156.924686 
L 134.509363 156.921152 
L 137.952 156.918229 
L 141.723187 156.914331 
L 145.851494 156.912835 
L 150.42263 156.907158 
L 155.47945 156.903794 
L 161.121946 156.892116 
L 167.464397 156.887581 
L 174.621082 156.873531 
L 182.777702 156.861379 
L 192.162816 156.852931 
L 203.019264 156.826744 
L 215.875584 156.77216 
L 231.16032 156.658192 
L 234.588672 156.631812 
L 238.159872 156.612398 
L 241.87392 156.603061 
L 245.730816 156.606618 
L 249.73056 156.624106 
L 254.016 156.652264 
L 258.444288 156.685165 
L 263.015424 156.717474 
L 267.729408 156.746669 
L 272.871936 156.771716 
L 278.157312 156.792731 
L 309.01248 156.855465 
L 316.297728 156.862831 
L 323.868672 156.869322 
L 332.011008 156.875236 
L 340.724736 156.879889 
L 350.009856 156.883905 
L 356.723712 156.886706 
L 367.151616 156.890471 
L 378.150912 156.893983 
L 390.007296 156.897229 
L 402.863616 156.900267 
L 416.577024 156.903098 
L 461.8 156.90902 
" style="fill:none;stroke:#008000;stroke-dasharray:1.5,2.475;stroke-dashoffset:0;stroke-width:1.5;"/>
   </g>
   <g id="line2d_35">
    <path clip-path="url(#pbd96193e33)" d="M 102.482842 156.867025 
L 108.396749 156.807788 
L 109.868083 156.793798 
L 111.439411 156.772605 
L 113.110733 156.741779 
L 114.882048 156.704432 
L 116.767642 156.664417 
L 118.781798 156.622031 
L 120.938803 156.572827 
L 123.252941 156.509397 
L 125.752781 156.426699 
L 128.438323 156.322661 
L 131.352422 156.197578 
L 134.509363 156.049375 
L 137.952 155.876274 
L 141.723187 155.674421 
L 145.851494 155.428108 
L 150.42263 155.12281 
L 155.47945 154.752303 
L 161.121946 154.283981 
L 167.464397 153.732666 
L 174.621082 153.053897 
L 182.777702 152.29658 
L 192.162816 151.407362 
L 203.019264 150.47072 
L 215.875584 149.49258 
L 231.16032 148.464052 
L 234.588672 148.269906 
L 238.159872 148.080206 
L 241.87392 147.894953 
L 245.730816 147.706735 
L 249.73056 147.511107 
L 254.016 147.311033 
L 258.444288 147.110959 
L 263.015424 146.913849 
L 267.729408 146.722667 
L 272.871936 146.537414 
L 278.157312 146.361052 
L 309.01248 145.701549 
L 316.297728 145.688211 
L 323.868672 145.786025 
L 332.011008 145.743046 
L 340.724736 144.286211 
L 350.009856 143.794177 
L 356.723712 143.761573 
L 367.151616 143.727486 
L 378.150912 143.668205 
L 390.007296 143.589657 
L 402.863616 143.500735 
L 416.577024 143.407368 
L 461.8 143.178371 
" style="fill:none;stroke:#ff0000;stroke-dasharray:1.5,2.475;stroke-dashoffset:0;stroke-width:1.5;"/>
   </g>
   <g id="line2d_36">
    <path clip-path="url(#pbd96193e33)" d="M 102.482842 156.922531 
L 108.396749 156.913674 
L 109.868083 156.910346 
L 111.439411 156.906592 
L 113.110733 156.902211 
L 114.882048 156.897566 
L 116.767642 156.893405 
L 118.781798 156.890229 
L 120.938803 156.887801 
L 123.252941 156.884676 
L 125.752781 156.878885 
L 128.438323 156.870411 
L 131.352422 156.859915 
L 134.509363 156.848681 
L 137.952 156.836963 
L 141.723187 156.825075 
L 145.851494 156.813781 
L 150.42263 156.803337 
L 155.47945 156.795015 
L 161.121946 156.787798 
L 167.464397 156.788222 
L 174.621082 156.778457 
L 182.777702 156.792977 
L 192.162816 156.796119 
L 203.019264 156.799091 
L 215.875584 156.827622 
L 231.16032 156.845794 
L 234.588672 156.847322 
L 238.159872 156.848511 
L 241.87392 156.849692 
L 245.730816 156.851076 
L 249.73056 156.852757 
L 254.016 156.854608 
L 258.444288 156.856434 
L 263.015424 156.858039 
L 267.729408 156.859312 
L 272.871936 156.860144 
L 278.157312 156.860391 
L 309.01248 156.838576 
L 316.297728 156.81981 
L 323.868672 156.783127 
L 332.011008 156.717913 
L 340.724736 156.734047 
L 350.009856 156.820744 
L 356.723712 156.855075 
L 367.151616 156.88218 
L 378.150912 156.897091 
L 390.007296 156.906202 
L 402.863616 156.912205 
L 416.577024 156.916391 
L 461.8 156.921281 
" style="fill:none;stroke:#ffa500;stroke-dasharray:1.5,2.475;stroke-dashoffset:0;stroke-width:1.5;"/>
   </g>
   <g id="line2d_37">
    <path clip-path="url(#pbd96193e33)" d="M 102.482842 156.895588 
L 108.396749 156.876193 
L 109.868083 156.871166 
L 111.439411 156.863269 
L 113.110733 156.853937 
L 114.882048 156.845454 
L 116.767642 156.839086 
L 118.781798 156.834415 
L 120.938803 156.830594 
L 123.252941 156.827283 
L 125.752781 156.82499 
L 128.438323 156.824226 
L 131.352422 156.824056 
L 134.509363 156.822867 
L 137.952 156.817942 
L 141.723187 156.809111 
L 145.851494 156.787798 
L 150.42263 156.75587 
L 155.47945 156.698808 
L 161.121946 156.618055 
L 167.464397 156.48423 
L 174.621082 156.282304 
L 182.777702 155.967528 
L 192.162816 155.492859 
L 203.019264 154.783827 
L 215.875584 153.697776 
L 231.16032 151.909487 
L 234.588672 151.439063 
L 238.159872 150.942316 
L 241.87392 150.445569 
L 245.730816 149.975994 
L 249.73056 149.533592 
L 254.016 149.075056 
L 258.444288 148.5384 
L 263.015424 147.873523 
L 267.729408 147.041365 
L 272.871936 145.996923 
L 278.157312 144.70623 
L 309.01248 128.36877 
L 316.297728 118.688571 
L 323.868672 100.686797 
L 332.011008 67.774119 
L 340.724736 66.330581 
L 350.009856 101.000979 
L 356.723712 115.784511 
L 367.151616 127.969674 
L 378.150912 135.034522 
L 390.007296 139.594405 
L 402.863616 142.787173 
L 416.577024 145.156274 
L 461.8 148.333841 
" style="fill:none;stroke:#000000;stroke-dasharray:1.5,2.475;stroke-dashoffset:0;stroke-width:1.5;"/>
   </g>
   <g id="line2d_38">
    <path clip-path="url(#pbd96193e33)" d="M 102.482842 156.933655 
L 108.396749 156.933236 
L 109.868083 156.932785 
L 111.439411 156.932096 
L 113.110733 156.930987 
L 114.882048 156.929416 
L 116.767642 156.928876 
L 118.781798 156.930122 
L 120.938803 156.931302 
L 123.252941 156.932045 
L 125.752781 156.932386 
L 128.438323 156.932435 
L 131.352422 156.932085 
L 134.509363 156.931607 
L 137.952 156.930859 
L 141.723187 156.930107 
L 145.851494 156.929619 
L 150.42263 156.928647 
L 155.47945 156.92866 
L 161.121946 156.927965 
L 167.464397 156.928966 
L 174.621082 156.924552 
L 182.777702 156.916094 
L 192.162816 156.89507 
L 203.019264 156.85184 
L 215.875584 156.734302 
L 231.16032 156.35567 
L 234.588672 156.273983 
L 238.159872 156.228978 
L 241.87392 156.231101 
L 245.730816 156.277549 
L 249.73056 156.355585 
L 254.016 156.446783 
L 258.444288 156.535009 
L 263.015424 156.611601 
L 267.729408 156.674437 
L 272.871936 156.724707 
L 278.157312 156.764616 
L 309.01248 156.871769 
L 316.297728 156.882808 
L 323.868672 156.892174 
L 332.011008 156.900784 
L 340.724736 156.906618 
L 350.009856 156.910133 
L 356.723712 156.912732 
L 367.151616 156.916154 
L 378.150912 156.919092 
L 390.007296 156.92158 
L 402.863616 156.923677 
L 416.577024 156.925433 
L 461.8 156.928135 
" style="fill:none;stroke:#9932cc;stroke-dasharray:1.5,2.475;stroke-dashoffset:0;stroke-width:1.5;"/>
   </g>
   <g id="patch_3">
    <path d="M 57.6 162.432 
L 57.6 41.472 
" style="fill:none;stroke:#000000;stroke-linecap:square;stroke-linejoin:miter;stroke-width:0.8;"/>
   </g>
   <g id="patch_4">
    <path d="M 414.72 162.432 
L 414.72 41.472 
" style="fill:none;stroke:#000000;stroke-linecap:square;stroke-linejoin:miter;stroke-width:0.8;"/>
   </g>
   <g id="patch_5">
    <path d="M 57.6 162.432 
L 414.72 162.432 
" style="fill:none;stroke:#000000;stroke-linecap:square;stroke-linejoin:miter;stroke-width:0.8;"/>
   </g>
   <g id="patch_6">
    <path d="M 57.6 41.472 
L 414.72 41.472 
" style="fill:none;stroke:#000000;stroke-linecap:square;stroke-linejoin:miter;stroke-width:0.8;"/>
   </g>
   <g id="legend_1">
    <g id="patch_7">
     <path d="M 63.2 118.327 
L 316.9675 118.327 
Q 318.5675 118.327 318.5675 116.727 
L 318.5675 47.072 
Q 318.5675 45.472 316.9675 45.472 
L 63.2 45.472 
Q 61.6 45.472 61.6 47.072 
L 61.6 116.727 
Q 61.6 118.327 63.2 118.327 
z
" style="fill:#ffffff;opacity:0.8;stroke:#cccccc;stroke-linejoin:miter;"/>
    </g>
    <g id="line2d_39">
     <path d="M 64.8 51.95075 
L 80.8 51.95075 
" style="fill:none;stroke:#0000ff;stroke-linecap:square;stroke-width:1.5;"/>
    </g>
    <g id="line2d_40"/>
    <g id="text_13">
     <!-- Heave (Min) -->
     <defs>
      <path d="M 9.8125 72.90625 
L 19.671875 72.90625 
L 19.671875 43.015625 
L 55.515625 43.015625 
L 55.515625 72.90625 
L 65.375 72.90625 
L 65.375 0 
L 55.515625 0 
L 55.515625 34.71875 
L 19.671875 34.71875 
L 19.671875 0 
L 9.8125 0 
z
" id="DejaVuSans-48"/>
      <path d="M 34.28125 27.484375 
Q 23.390625 27.484375 19.1875 25 
Q 14.984375 22.515625 14.984375 16.5 
Q 14.984375 11.71875 18.140625 8.90625 
Q 21.296875 6.109375 26.703125 6.109375 
Q 34.1875 6.109375 38.703125 11.40625 
Q 43.21875 16.703125 43.21875 25.484375 
L 43.21875 27.484375 
z
M 52.203125 31.203125 
L 52.203125 0 
L 43.21875 0 
L 43.21875 8.296875 
Q 40.140625 3.328125 35.546875 0.953125 
Q 30.953125 -1.421875 24.3125 -1.421875 
Q 15.921875 -1.421875 10.953125 3.296875 
Q 6 8.015625 6 15.921875 
Q 6 25.140625 12.171875 29.828125 
Q 18.359375 34.515625 30.609375 34.515625 
L 43.21875 34.515625 
L 43.21875 35.40625 
Q 43.21875 41.609375 39.140625 45 
Q 35.0625 48.390625 27.6875 48.390625 
Q 23 48.390625 18.546875 47.265625 
Q 14.109375 46.140625 10.015625 43.890625 
L 10.015625 52.203125 
Q 14.9375 54.109375 19.578125 55.046875 
Q 24.21875 56 28.609375 56 
Q 40.484375 56 46.34375 49.84375 
Q 52.203125 43.703125 52.203125 31.203125 
z
" id="DejaVuSans-61"/>
      <path d="M 2.984375 54.6875 
L 12.5 54.6875 
L 29.59375 8.796875 
L 46.6875 54.6875 
L 56.203125 54.6875 
L 35.6875 0 
L 23.484375 0 
z
" id="DejaVuSans-76"/>
      <path d="M 9.8125 72.90625 
L 24.515625 72.90625 
L 43.109375 23.296875 
L 61.8125 72.90625 
L 76.515625 72.90625 
L 76.515625 0 
L 66.890625 0 
L 66.890625 64.015625 
L 48.09375 14.015625 
L 38.1875 14.015625 
L 19.390625 64.015625 
L 19.390625 0 
L 9.8125 0 
z
" id="DejaVuSans-4d"/>
      <path d="M 54.890625 33.015625 
L 54.890625 0 
L 45.90625 0 
L 45.90625 32.71875 
Q 45.90625 40.484375 42.875 44.328125 
Q 39.84375 48.1875 33.796875 48.1875 
Q 26.515625 48.1875 22.3125 43.546875 
Q 18.109375 38.921875 18.109375 30.90625 
L 18.109375 0 
L 9.078125 0 
L 9.078125 54.6875 
L 18.109375 54.6875 
L 18.109375 46.1875 
Q 21.34375 51.125 25.703125 53.5625 
Q 30.078125 56 35.796875 56 
Q 45.21875 56 50.046875 50.171875 
Q 54.890625 44.34375 54.890625 33.015625 
z
" id="DejaVuSans-6e"/>
     </defs>
     <g transform="translate(87.2 54.75075)scale(0.08 -0.08)">
      <use xlink:href="#DejaVuSans-48"/>
      <use x="75.195312" xlink:href="#DejaVuSans-65"/>
      <use x="136.71875" xlink:href="#DejaVuSans-61"/>
      <use x="197.998047" xlink:href="#DejaVuSans-76"/>
      <use x="257.177734" xlink:href="#DejaVuSans-65"/>
      <use x="318.701172" xlink:href="#DejaVuSans-20"/>
      <use x="350.488281" xlink:href="#DejaVuSans-28"/>
      <use x="389.501953" xlink:href="#DejaVuSans-4d"/>
      <use x="475.78125" xlink:href="#DejaVuSans-69"/>
      <use x="503.564453" xlink:href="#DejaVuSans-6e"/>
      <use x="566.943359" xlink:href="#DejaVuSans-29"/>
     </g>
    </g>
    <g id="line2d_41">
     <path d="M 64.8 63.69325 
L 80.8 63.69325 
" style="fill:none;stroke:#008000;stroke-linecap:square;stroke-width:1.5;"/>
    </g>
    <g id="line2d_42"/>
    <g id="text_14">
     <!-- Surge (Min) -->
     <defs>
      <path d="M 53.515625 70.515625 
L 53.515625 60.890625 
Q 47.90625 63.578125 42.921875 64.890625 
Q 37.9375 66.21875 33.296875 66.21875 
Q 25.25 66.21875 20.875 63.09375 
Q 16.5 59.96875 16.5 54.203125 
Q 16.5 49.359375 19.40625 46.890625 
Q 22.3125 44.4375 30.421875 42.921875 
L 36.375 41.703125 
Q 47.40625 39.59375 52.65625 34.296875 
Q 57.90625 29 57.90625 20.125 
Q 57.90625 9.515625 50.796875 4.046875 
Q 43.703125 -1.421875 29.984375 -1.421875 
Q 24.8125 -1.421875 18.96875 -0.25 
Q 13.140625 0.921875 6.890625 3.21875 
L 6.890625 13.375 
Q 12.890625 10.015625 18.65625 8.296875 
Q 24.421875 6.59375 29.984375 6.59375 
Q 38.421875 6.59375 43.015625 9.90625 
Q 47.609375 13.234375 47.609375 19.390625 
Q 47.609375 24.75 44.3125 27.78125 
Q 41.015625 30.8125 33.5 32.328125 
L 27.484375 33.5 
Q 16.453125 35.6875 11.515625 40.375 
Q 6.59375 45.0625 6.59375 53.421875 
Q 6.59375 63.09375 13.40625 68.65625 
Q 20.21875 74.21875 32.171875 74.21875 
Q 37.3125 74.21875 42.625 73.28125 
Q 47.953125 72.359375 53.515625 70.515625 
z
" id="DejaVuSans-53"/>
     </defs>
     <g transform="translate(87.2 66.49325)scale(0.08 -0.08)">
      <use xlink:href="#DejaVuSans-53"/>
      <use x="63.476562" xlink:href="#DejaVuSans-75"/>
      <use x="126.855469" xlink:href="#DejaVuSans-72"/>
      <use x="167.953125" xlink:href="#DejaVuSans-67"/>
      <use x="231.429688" xlink:href="#DejaVuSans-65"/>
      <use x="292.953125" xlink:href="#DejaVuSans-20"/>
      <use x="324.740234" xlink:href="#DejaVuSans-28"/>
      <use x="363.753906" xlink:href="#DejaVuSans-4d"/>
      <use x="450.033203" xlink:href="#DejaVuSans-69"/>
      <use x="477.816406" xlink:href="#DejaVuSans-6e"/>
      <use x="541.195312" xlink:href="#DejaVuSans-29"/>
     </g>
    </g>
    <g id="line2d_43">
     <path d="M 64.8 75.43575 
L 80.8 75.43575 
" style="fill:none;stroke:#ff0000;stroke-linecap:square;stroke-width:1.5;"/>
    </g>
    <g id="line2d_44"/>
    <g id="text_15">
     <!-- Sway (Min) -->
     <defs>
      <path d="M 4.203125 54.6875 
L 13.1875 54.6875 
L 24.421875 12.015625 
L 35.59375 54.6875 
L 46.1875 54.6875 
L 57.421875 12.015625 
L 68.609375 54.6875 
L 77.59375 54.6875 
L 63.28125 0 
L 52.6875 0 
L 40.921875 44.828125 
L 29.109375 0 
L 18.5 0 
z
" id="DejaVuSans-77"/>
      <path d="M 32.171875 -5.078125 
Q 28.375 -14.84375 24.75 -17.8125 
Q 21.140625 -20.796875 15.09375 -20.796875 
L 7.90625 -20.796875 
L 7.90625 -13.28125 
L 13.1875 -13.28125 
Q 16.890625 -13.28125 18.9375 -11.515625 
Q 21 -9.765625 23.484375 -3.21875 
L 25.09375 0.875 
L 2.984375 54.6875 
L 12.5 54.6875 
L 29.59375 11.921875 
L 46.6875 54.6875 
L 56.203125 54.6875 
z
" id="DejaVuSans-79"/>
     </defs>
     <g transform="translate(87.2 78.23575)scale(0.08 -0.08)">
      <use xlink:href="#DejaVuSans-53"/>
      <use x="63.476562" xlink:href="#DejaVuSans-77"/>
      <use x="145.263672" xlink:href="#DejaVuSans-61"/>
      <use x="206.542969" xlink:href="#DejaVuSans-79"/>
      <use x="265.722656" xlink:href="#DejaVuSans-20"/>
      <use x="297.509766" xlink:href="#DejaVuSans-28"/>
      <use x="336.523438" xlink:href="#DejaVuSans-4d"/>
      <use x="422.802734" xlink:href="#DejaVuSans-69"/>
      <use x="450.585938" xlink:href="#DejaVuSans-6e"/>
      <use x="513.964844" xlink:href="#DejaVuSans-29"/>
     </g>
    </g>
    <g id="line2d_45">
     <path d="M 64.8 87.17825 
L 80.8 87.17825 
" style="fill:none;stroke:#ffa500;stroke-linecap:square;stroke-width:1.5;"/>
    </g>
    <g id="line2d_46"/>
    <g id="text_16">
     <!-- Yaw (Min) -->
     <defs>
      <path d="M -0.203125 72.90625 
L 10.40625 72.90625 
L 30.609375 42.921875 
L 50.6875 72.90625 
L 61.28125 72.90625 
L 35.5 34.71875 
L 35.5 0 
L 25.59375 0 
L 25.59375 34.71875 
z
" id="DejaVuSans-59"/>
     </defs>
     <g transform="translate(87.2 89.97825)scale(0.08 -0.08)">
      <use xlink:href="#DejaVuSans-59"/>
      <use x="60.880859" xlink:href="#DejaVuSans-61"/>
      <use x="122.160156" xlink:href="#DejaVuSans-77"/>
      <use x="203.947266" xlink:href="#DejaVuSans-20"/>
      <use x="235.734375" xlink:href="#DejaVuSans-28"/>
      <use x="274.748047" xlink:href="#DejaVuSans-4d"/>
      <use x="361.027344" xlink:href="#DejaVuSans-69"/>
      <use x="388.810547" xlink:href="#DejaVuSans-6e"/>
      <use x="452.189453" xlink:href="#DejaVuSans-29"/>
     </g>
    </g>
    <g id="line2d_47">
     <path d="M 64.8 98.92075 
L 80.8 98.92075 
" style="fill:none;stroke:#000000;stroke-linecap:square;stroke-width:1.5;"/>
    </g>
    <g id="line2d_48"/>
    <g id="text_17">
     <!-- Roll (Min) -->
     <defs>
      <path d="M 44.390625 34.1875 
Q 47.5625 33.109375 50.5625 29.59375 
Q 53.5625 26.078125 56.59375 19.921875 
L 66.609375 0 
L 56 0 
L 46.6875 18.703125 
Q 43.0625 26.03125 39.671875 28.421875 
Q 36.28125 30.8125 30.421875 30.8125 
L 19.671875 30.8125 
L 19.671875 0 
L 9.8125 0 
L 9.8125 72.90625 
L 32.078125 72.90625 
Q 44.578125 72.90625 50.734375 67.671875 
Q 56.890625 62.453125 56.890625 51.90625 
Q 56.890625 45.015625 53.6875 40.46875 
Q 50.484375 35.9375 44.390625 34.1875 
z
M 19.671875 64.796875 
L 19.671875 38.921875 
L 32.078125 38.921875 
Q 39.203125 38.921875 42.84375 42.21875 
Q 46.484375 45.515625 46.484375 51.90625 
Q 46.484375 58.296875 42.84375 61.546875 
Q 39.203125 64.796875 32.078125 64.796875 
z
" id="DejaVuSans-52"/>
     </defs>
     <g transform="translate(87.2 101.72075)scale(0.08 -0.08)">
      <use xlink:href="#DejaVuSans-52"/>
      <use x="69.419922" xlink:href="#DejaVuSans-6f"/>
      <use x="130.601562" xlink:href="#DejaVuSans-6c"/>
      <use x="158.384766" xlink:href="#DejaVuSans-6c"/>
      <use x="186.167969" xlink:href="#DejaVuSans-20"/>
      <use x="217.955078" xlink:href="#DejaVuSans-28"/>
      <use x="256.96875" xlink:href="#DejaVuSans-4d"/>
      <use x="343.248047" xlink:href="#DejaVuSans-69"/>
      <use x="371.03125" xlink:href="#DejaVuSans-6e"/>
      <use x="434.410156" xlink:href="#DejaVuSans-29"/>
     </g>
    </g>
    <g id="line2d_49">
     <path d="M 64.8 110.66325 
L 80.8 110.66325 
" style="fill:none;stroke:#9932cc;stroke-linecap:square;stroke-width:1.5;"/>
    </g>
    <g id="line2d_50"/>
    <g id="text_18">
     <!-- Pitch (Min) -->
     <defs>
      <path d="M 19.671875 64.796875 
L 19.671875 37.40625 
L 32.078125 37.40625 
Q 38.96875 37.40625 42.71875 40.96875 
Q 46.484375 44.53125 46.484375 51.125 
Q 46.484375 57.671875 42.71875 61.234375 
Q 38.96875 64.796875 32.078125 64.796875 
z
M 9.8125 72.90625 
L 32.078125 72.90625 
Q 44.34375 72.90625 50.609375 67.359375 
Q 56.890625 61.8125 56.890625 51.125 
Q 56.890625 40.328125 50.609375 34.8125 
Q 44.34375 29.296875 32.078125 29.296875 
L 19.671875 29.296875 
L 19.671875 0 
L 9.8125 0 
z
" id="DejaVuSans-50"/>
      <path d="M 48.78125 52.59375 
L 48.78125 44.1875 
Q 44.96875 46.296875 41.140625 47.34375 
Q 37.3125 48.390625 33.40625 48.390625 
Q 24.65625 48.390625 19.8125 42.84375 
Q 14.984375 37.3125 14.984375 27.296875 
Q 14.984375 17.28125 19.8125 11.734375 
Q 24.65625 6.203125 33.40625 6.203125 
Q 37.3125 6.203125 41.140625 7.25 
Q 44.96875 8.296875 48.78125 10.40625 
L 48.78125 2.09375 
Q 45.015625 0.34375 40.984375 -0.53125 
Q 36.96875 -1.421875 32.421875 -1.421875 
Q 20.0625 -1.421875 12.78125 6.34375 
Q 5.515625 14.109375 5.515625 27.296875 
Q 5.515625 40.671875 12.859375 48.328125 
Q 20.21875 56 33.015625 56 
Q 37.15625 56 41.109375 55.140625 
Q 45.0625 54.296875 48.78125 52.59375 
z
" id="DejaVuSans-63"/>
      <path d="M 54.890625 33.015625 
L 54.890625 0 
L 45.90625 0 
L 45.90625 32.71875 
Q 45.90625 40.484375 42.875 44.328125 
Q 39.84375 48.1875 33.796875 48.1875 
Q 26.515625 48.1875 22.3125 43.546875 
Q 18.109375 38.921875 18.109375 30.90625 
L 18.109375 0 
L 9.078125 0 
L 9.078125 75.984375 
L 18.109375 75.984375 
L 18.109375 46.1875 
Q 21.34375 51.125 25.703125 53.5625 
Q 30.078125 56 35.796875 56 
Q 45.21875 56 50.046875 50.171875 
Q 54.890625 44.34375 54.890625 33.015625 
z
" id="DejaVuSans-68"/>
     </defs>
     <g transform="translate(87.2 113.46325)scale(0.08 -0.08)">
      <use xlink:href="#DejaVuSans-50"/>
      <use x="60.271484" xlink:href="#DejaVuSans-69"/>
      <use x="88.054688" xlink:href="#DejaVuSans-74"/>
      <use x="127.263672" xlink:href="#DejaVuSans-63"/>
      <use x="182.244141" xlink:href="#DejaVuSans-68"/>
      <use x="245.623047" xlink:href="#DejaVuSans-20"/>
      <use x="277.410156" xlink:href="#DejaVuSans-28"/>
      <use x="316.423828" xlink:href="#DejaVuSans-4d"/>
      <use x="402.703125" xlink:href="#DejaVuSans-69"/>
      <use x="430.486328" xlink:href="#DejaVuSans-6e"/>
      <use x="493.865234" xlink:href="#DejaVuSans-29"/>
     </g>
    </g>
    <g id="line2d_51">
     <path d="M 151.67875 51.95075 
L 167.67875 51.95075 
" style="fill:none;stroke:#0000ff;stroke-dasharray:9.6,2.4,1.5,2.4;stroke-dashoffset:0;stroke-width:1.5;"/>
    </g>
    <g id="line2d_52"/>
    <g id="text_19">
     <!-- Heave (50%) -->
     <defs>
      <path d="M 72.703125 32.078125 
Q 68.453125 32.078125 66.03125 28.46875 
Q 63.625 24.859375 63.625 18.40625 
Q 63.625 12.0625 66.03125 8.421875 
Q 68.453125 4.78125 72.703125 4.78125 
Q 76.859375 4.78125 79.265625 8.421875 
Q 81.6875 12.0625 81.6875 18.40625 
Q 81.6875 24.8125 79.265625 28.4375 
Q 76.859375 32.078125 72.703125 32.078125 
z
M 72.703125 38.28125 
Q 80.421875 38.28125 84.953125 32.90625 
Q 89.5 27.546875 89.5 18.40625 
Q 89.5 9.28125 84.9375 3.921875 
Q 80.375 -1.421875 72.703125 -1.421875 
Q 64.890625 -1.421875 60.34375 3.921875 
Q 55.8125 9.28125 55.8125 18.40625 
Q 55.8125 27.59375 60.375 32.9375 
Q 64.9375 38.28125 72.703125 38.28125 
z
M 22.3125 68.015625 
Q 18.109375 68.015625 15.6875 64.375 
Q 13.28125 60.75 13.28125 54.390625 
Q 13.28125 47.953125 15.671875 44.328125 
Q 18.0625 40.71875 22.3125 40.71875 
Q 26.5625 40.71875 28.96875 44.328125 
Q 31.390625 47.953125 31.390625 54.390625 
Q 31.390625 60.6875 28.953125 64.34375 
Q 26.515625 68.015625 22.3125 68.015625 
z
M 66.40625 74.21875 
L 74.21875 74.21875 
L 28.609375 -1.421875 
L 20.796875 -1.421875 
z
M 22.3125 74.21875 
Q 30.03125 74.21875 34.609375 68.875 
Q 39.203125 63.53125 39.203125 54.390625 
Q 39.203125 45.171875 34.640625 39.84375 
Q 30.078125 34.515625 22.3125 34.515625 
Q 14.546875 34.515625 10.03125 39.859375 
Q 5.515625 45.21875 5.515625 54.390625 
Q 5.515625 63.484375 10.046875 68.84375 
Q 14.59375 74.21875 22.3125 74.21875 
z
" id="DejaVuSans-25"/>
     </defs>
     <g transform="translate(174.07875 54.75075)scale(0.08 -0.08)">
      <use xlink:href="#DejaVuSans-48"/>
      <use x="75.195312" xlink:href="#DejaVuSans-65"/>
      <use x="136.71875" xlink:href="#DejaVuSans-61"/>
      <use x="197.998047" xlink:href="#DejaVuSans-76"/>
      <use x="257.177734" xlink:href="#DejaVuSans-65"/>
      <use x="318.701172" xlink:href="#DejaVuSans-20"/>
      <use x="350.488281" xlink:href="#DejaVuSans-28"/>
      <use x="389.501953" xlink:href="#DejaVuSans-35"/>
      <use x="453.125" xlink:href="#DejaVuSans-30"/>
      <use x="516.748047" xlink:href="#DejaVuSans-25"/>
      <use x="611.767578" xlink:href="#DejaVuSans-29"/>
     </g>
    </g>
    <g id="line2d_53">
     <path d="M 151.67875 63.69325 
L 167.67875 63.69325 
" style="fill:none;stroke:#008000;stroke-dasharray:9.6,2.4,1.5,2.4;stroke-dashoffset:0;stroke-width:1.5;"/>
    </g>
    <g id="line2d_54"/>
    <g id="text_20">
     <!-- Surge (50%) -->
     <g transform="translate(174.07875 66.49325)scale(0.08 -0.08)">
      <use xlink:href="#DejaVuSans-53"/>
      <use x="63.476562" xlink:href="#DejaVuSans-75"/>
      <use x="126.855469" xlink:href="#DejaVuSans-72"/>
      <use x="167.953125" xlink:href="#DejaVuSans-67"/>
      <use x="231.429688" xlink:href="#DejaVuSans-65"/>
      <use x="292.953125" xlink:href="#DejaVuSans-20"/>
      <use x="324.740234" xlink:href="#DejaVuSans-28"/>
      <use x="363.753906" xlink:href="#DejaVuSans-35"/>
      <use x="427.376953" xlink:href="#DejaVuSans-30"/>
      <use x="491" xlink:href="#DejaVuSans-25"/>
      <use x="586.019531" xlink:href="#DejaVuSans-29"/>
     </g>
    </g>
    <g id="line2d_55">
     <path d="M 151.67875 75.43575 
L 167.67875 75.43575 
" style="fill:none;stroke:#ff0000;stroke-dasharray:9.6,2.4,1.5,2.4;stroke-dashoffset:0;stroke-width:1.5;"/>
    </g>
    <g id="line2d_56"/>
    <g id="text_21">
     <!-- Sway (50%) -->
     <g transform="translate(174.07875 78.23575)scale(0.08 -0.08)">
      <use xlink:href="#DejaVuSans-53"/>
      <use x="63.476562" xlink:href="#DejaVuSans-77"/>
      <use x="145.263672" xlink:href="#DejaVuSans-61"/>
      <use x="206.542969" xlink:href="#DejaVuSans-79"/>
      <use x="265.722656" xlink:href="#DejaVuSans-20"/>
      <use x="297.509766" xlink:href="#DejaVuSans-28"/>
      <use x="336.523438" xlink:href="#DejaVuSans-35"/>
      <use x="400.146484" xlink:href="#DejaVuSans-30"/>
      <use x="463.769531" xlink:href="#DejaVuSans-25"/>
      <use x="558.789062" xlink:href="#DejaVuSans-29"/>
     </g>
    </g>
    <g id="line2d_57">
     <path d="M 151.67875 87.17825 
L 167.67875 87.17825 
" style="fill:none;stroke:#ffa500;stroke-dasharray:9.6,2.4,1.5,2.4;stroke-dashoffset:0;stroke-width:1.5;"/>
    </g>
    <g id="line2d_58"/>
    <g id="text_22">
     <!-- Yaw (50%) -->
     <g transform="translate(174.07875 89.97825)scale(0.08 -0.08)">
      <use xlink:href="#DejaVuSans-59"/>
      <use x="60.880859" xlink:href="#DejaVuSans-61"/>
      <use x="122.160156" xlink:href="#DejaVuSans-77"/>
      <use x="203.947266" xlink:href="#DejaVuSans-20"/>
      <use x="235.734375" xlink:href="#DejaVuSans-28"/>
      <use x="274.748047" xlink:href="#DejaVuSans-35"/>
      <use x="338.371094" xlink:href="#DejaVuSans-30"/>
      <use x="401.994141" xlink:href="#DejaVuSans-25"/>
      <use x="497.013672" xlink:href="#DejaVuSans-29"/>
     </g>
    </g>
    <g id="line2d_59">
     <path d="M 151.67875 98.92075 
L 167.67875 98.92075 
" style="fill:none;stroke:#000000;stroke-dasharray:9.6,2.4,1.5,2.4;stroke-dashoffset:0;stroke-width:1.5;"/>
    </g>
    <g id="line2d_60"/>
    <g id="text_23">
     <!-- Roll (50%) -->
     <g transform="translate(174.07875 101.72075)scale(0.08 -0.08)">
      <use xlink:href="#DejaVuSans-52"/>
      <use x="69.419922" xlink:href="#DejaVuSans-6f"/>
      <use x="130.601562" xlink:href="#DejaVuSans-6c"/>
      <use x="158.384766" xlink:href="#DejaVuSans-6c"/>
      <use x="186.167969" xlink:href="#DejaVuSans-20"/>
      <use x="217.955078" xlink:href="#DejaVuSans-28"/>
      <use x="256.96875" xlink:href="#DejaVuSans-35"/>
      <use x="320.591797" xlink:href="#DejaVuSans-30"/>
      <use x="384.214844" xlink:href="#DejaVuSans-25"/>
      <use x="479.234375" xlink:href="#DejaVuSans-29"/>
     </g>
    </g>
    <g id="line2d_61">
     <path d="M 151.67875 110.66325 
L 167.67875 110.66325 
" style="fill:none;stroke:#9932cc;stroke-dasharray:9.6,2.4,1.5,2.4;stroke-dashoffset:0;stroke-width:1.5;"/>
    </g>
    <g id="line2d_62"/>
    <g id="text_24">
     <!-- Pitch (50%) -->
     <g transform="translate(174.07875 113.46325)scale(0.08 -0.08)">
      <use xlink:href="#DejaVuSans-50"/>
      <use x="60.271484" xlink:href="#DejaVuSans-69"/>
      <use x="88.054688" xlink:href="#DejaVuSans-74"/>
      <use x="127.263672" xlink:href="#DejaVuSans-63"/>
      <use x="182.244141" xlink:href="#DejaVuSans-68"/>
      <use x="245.623047" xlink:href="#DejaVuSans-20"/>
      <use x="277.410156" xlink:href="#DejaVuSans-28"/>
      <use x="316.423828" xlink:href="#DejaVuSans-35"/>
      <use x="380.046875" xlink:href="#DejaVuSans-30"/>
      <use x="443.669922" xlink:href="#DejaVuSans-25"/>
      <use x="538.689453" xlink:href="#DejaVuSans-29"/>
     </g>
    </g>
    <g id="line2d_63">
     <path d="M 242.14375 51.95075 
L 258.14375 51.95075 
" style="fill:none;stroke:#0000ff;stroke-dasharray:1.5,2.475;stroke-dashoffset:0;stroke-width:1.5;"/>
    </g>
    <g id="line2d_64"/>
    <g id="text_25">
     <!-- Heave (Max) -->
     <defs>
      <path d="M 54.890625 54.6875 
L 35.109375 28.078125 
L 55.90625 0 
L 45.3125 0 
L 29.390625 21.484375 
L 13.484375 0 
L 2.875 0 
L 24.125 28.609375 
L 4.6875 54.6875 
L 15.28125 54.6875 
L 29.78125 35.203125 
L 44.28125 54.6875 
z
" id="DejaVuSans-78"/>
     </defs>
     <g transform="translate(264.54375 54.75075)scale(0.08 -0.08)">
      <use xlink:href="#DejaVuSans-48"/>
      <use x="75.195312" xlink:href="#DejaVuSans-65"/>
      <use x="136.71875" xlink:href="#DejaVuSans-61"/>
      <use x="197.998047" xlink:href="#DejaVuSans-76"/>
      <use x="257.177734" xlink:href="#DejaVuSans-65"/>
      <use x="318.701172" xlink:href="#DejaVuSans-20"/>
      <use x="350.488281" xlink:href="#DejaVuSans-28"/>
      <use x="389.501953" xlink:href="#DejaVuSans-4d"/>
      <use x="475.78125" xlink:href="#DejaVuSans-61"/>
      <use x="537.060547" xlink:href="#DejaVuSans-78"/>
      <use x="596.240234" xlink:href="#DejaVuSans-29"/>
     </g>
    </g>
    <g id="line2d_65">
     <path d="M 242.14375 63.69325 
L 258.14375 63.69325 
" style="fill:none;stroke:#008000;stroke-dasharray:1.5,2.475;stroke-dashoffset:0;stroke-width:1.5;"/>
    </g>
    <g id="line2d_66"/>
    <g id="text_26">
     <!-- Surge (Max) -->
     <g transform="translate(264.54375 66.49325)scale(0.08 -0.08)">
      <use xlink:href="#DejaVuSans-53"/>
      <use x="63.476562" xlink:href="#DejaVuSans-75"/>
      <use x="126.855469" xlink:href="#DejaVuSans-72"/>
      <use x="167.953125" xlink:href="#DejaVuSans-67"/>
      <use x="231.429688" xlink:href="#DejaVuSans-65"/>
      <use x="292.953125" xlink:href="#DejaVuSans-20"/>
      <use x="324.740234" xlink:href="#DejaVuSans-28"/>
      <use x="363.753906" xlink:href="#DejaVuSans-4d"/>
      <use x="450.033203" xlink:href="#DejaVuSans-61"/>
      <use x="511.3125" xlink:href="#DejaVuSans-78"/>
      <use x="570.492188" xlink:href="#DejaVuSans-29"/>
     </g>
    </g>
    <g id="line2d_67">
     <path d="M 242.14375 75.43575 
L 258.14375 75.43575 
" style="fill:none;stroke:#ff0000;stroke-dasharray:1.5,2.475;stroke-dashoffset:0;stroke-width:1.5;"/>
    </g>
    <g id="line2d_68"/>
    <g id="text_27">
     <!-- Sway (Max) -->
     <g transform="translate(264.54375 78.23575)scale(0.08 -0.08)">
      <use xlink:href="#DejaVuSans-53"/>
      <use x="63.476562" xlink:href="#DejaVuSans-77"/>
      <use x="145.263672" xlink:href="#DejaVuSans-61"/>
      <use x="206.542969" xlink:href="#DejaVuSans-79"/>
      <use x="265.722656" xlink:href="#DejaVuSans-20"/>
      <use x="297.509766" xlink:href="#DejaVuSans-28"/>
      <use x="336.523438" xlink:href="#DejaVuSans-4d"/>
      <use x="422.802734" xlink:href="#DejaVuSans-61"/>
      <use x="484.082031" xlink:href="#DejaVuSans-78"/>
      <use x="543.261719" xlink:href="#DejaVuSans-29"/>
     </g>
    </g>
    <g id="line2d_69">
     <path d="M 242.14375 87.17825 
L 258.14375 87.17825 
" style="fill:none;stroke:#ffa500;stroke-dasharray:1.5,2.475;stroke-dashoffset:0;stroke-width:1.5;"/>
    </g>
    <g id="line2d_70"/>
    <g id="text_28">
     <!-- Yaw (Max) -->
     <g transform="translate(264.54375 89.97825)scale(0.08 -0.08)">
      <use xlink:href="#DejaVuSans-59"/>
      <use x="60.880859" xlink:href="#DejaVuSans-61"/>
      <use x="122.160156" xlink:href="#DejaVuSans-77"/>
      <use x="203.947266" xlink:href="#DejaVuSans-20"/>
      <use x="235.734375" xlink:href="#DejaVuSans-28"/>
      <use x="274.748047" xlink:href="#DejaVuSans-4d"/>
      <use x="361.027344" xlink:href="#DejaVuSans-61"/>
      <use x="422.306641" xlink:href="#DejaVuSans-78"/>
      <use x="481.486328" xlink:href="#DejaVuSans-29"/>
     </g>
    </g>
    <g id="line2d_71">
     <path d="M 242.14375 98.92075 
L 258.14375 98.92075 
" style="fill:none;stroke:#000000;stroke-dasharray:1.5,2.475;stroke-dashoffset:0;stroke-width:1.5;"/>
    </g>
    <g id="line2d_72"/>
    <g id="text_29">
     <!-- Roll (Max) -->
     <g transform="translate(264.54375 101.72075)scale(0.08 -0.08)">
      <use xlink:href="#DejaVuSans-52"/>
      <use x="69.419922" xlink:href="#DejaVuSans-6f"/>
      <use x="130.601562" xlink:href="#DejaVuSans-6c"/>
      <use x="158.384766" xlink:href="#DejaVuSans-6c"/>
      <use x="186.167969" xlink:href="#DejaVuSans-20"/>
      <use x="217.955078" xlink:href="#DejaVuSans-28"/>
      <use x="256.96875" xlink:href="#DejaVuSans-4d"/>
      <use x="343.248047" xlink:href="#DejaVuSans-61"/>
      <use x="404.527344" xlink:href="#DejaVuSans-78"/>
      <use x="463.707031" xlink:href="#DejaVuSans-29"/>
     </g>
    </g>
    <g id="line2d_73">
     <path d="M 242.14375 110.66325 
L 258.14375 110.66325 
" style="fill:none;stroke:#9932cc;stroke-dasharray:1.5,2.475;stroke-dashoffset:0;stroke-width:1.5;"/>
    </g>
    <g id="line2d_74"/>
    <g id="text_30">
     <!-- Pitch (Max) -->
     <g transform="translate(264.54375 113.46325)scale(0.08 -0.08)">
      <use xlink:href="#DejaVuSans-50"/>
      <use x="60.271484" xlink:href="#DejaVuSans-69"/>
      <use x="88.054688" xlink:href="#DejaVuSans-74"/>
      <use x="127.263672" xlink:href="#DejaVuSans-63"/>
      <use x="182.244141" xlink:href="#DejaVuSans-68"/>
      <use x="245.623047" xlink:href="#DejaVuSans-20"/>
      <use x="277.410156" xlink:href="#DejaVuSans-28"/>
      <use x="316.423828" xlink:href="#DejaVuSans-4d"/>
      <use x="402.703125" xlink:href="#DejaVuSans-61"/>
      <use x="463.982422" xlink:href="#DejaVuSans-78"/>
      <use x="523.162109" xlink:href="#DejaVuSans-29"/>
     </g>
    </g>
   </g>
  </g>
  <g id="axes_2">
   <g id="patch_8">
    <path d="M 57.6 307.584 
L 414.72 307.584 
L 414.72 186.624 
L 57.6 186.624 
z
" style="fill:#ffffff;"/>
   </g>
   <g id="patch_9">
    <path clip-path="url(#p1b6db843bb)" d="M 94.74048 307.584 
L 106.16832 307.584 
L 106.16832 307.03394 
L 94.74048 307.03394 
z
" style="fill:#1f77b4;"/>
   </g>
   <g id="patch_10">
    <path clip-path="url(#p1b6db843bb)" d="M 123.31008 307.584 
L 134.73792 307.584 
L 134.73792 280.39944 
L 123.31008 280.39944 
z
" style="fill:#ff7f0e;"/>
   </g>
   <g id="patch_11">
    <path clip-path="url(#p1b6db843bb)" d="M 151.87968 307.584 
L 163.30752 307.584 
L 163.30752 192.384 
L 151.87968 192.384 
z
" style="fill:#2ca02c;"/>
   </g>
   <g id="patch_12">
    <path clip-path="url(#p1b6db843bb)" d="M 180.44928 307.584 
L 191.87712 307.584 
L 191.87712 238.160598 
L 180.44928 238.160598 
z
" style="fill:#d62728;"/>
   </g>
   <g id="patch_13">
    <path clip-path="url(#p1b6db843bb)" d="M 209.01888 307.584 
L 220.44672 307.584 
L 220.44672 267.250104 
L 209.01888 267.250104 
z
" style="fill:#9467bd;"/>
   </g>
   <g id="patch_14">
    <path clip-path="url(#p1b6db843bb)" d="M 237.58848 307.584 
L 249.01632 307.584 
L 249.01632 280.963976 
L 237.58848 280.963976 
z
" style="fill:#8c564b;"/>
   </g>
   <g id="patch_15">
    <path clip-path="url(#p1b6db843bb)" d="M 266.15808 307.584 
L 277.58592 307.584 
L 277.58592 298.267715 
L 266.15808 298.267715 
z
" style="fill:#e377c2;"/>
   </g>
   <g id="patch_16">
    <path clip-path="url(#p1b6db843bb)" d="M 294.72768 307.584 
L 306.15552 307.584 
L 306.15552 306.767595 
L 294.72768 306.767595 
z
" style="fill:#7f7f7f;"/>
   </g>
   <g id="patch_17">
    <path clip-path="url(#p1b6db843bb)" d="M 323.29728 307.584 
L 334.72512 307.584 
L 334.72512 307.523204 
L 323.29728 307.523204 
z
" style="fill:#bcbd22;"/>
   </g>
   <g id="matplotlib.axis_3">
    <g id="xtick_7">
     <g id="line2d_75">
      <path clip-path="url(#p1b6db843bb)" d="M 57.6 307.584 
L 57.6 186.624 
" style="fill:none;stroke:#b0b0b0;stroke-linecap:square;stroke-width:0.8;"/>
     </g>
     <g id="line2d_76">
      <g>
       <use style="stroke:#000000;stroke-width:0.8;" x="57.6" xlink:href="#me37e8c7109" y="307.584"/>
      </g>
     </g>
     <g id="text_31">
      <!-- 0 -->
      <g transform="translate(54.41875 322.182437)scale(0.1 -0.1)">
       <use xlink:href="#DejaVuSans-30"/>
      </g>
     </g>
    </g>
    <g id="xtick_8">
     <g id="line2d_77">
      <path clip-path="url(#p1b6db843bb)" d="M 129.024 307.584 
L 129.024 186.624 
" style="fill:none;stroke:#b0b0b0;stroke-linecap:square;stroke-width:0.8;"/>
     </g>
     <g id="line2d_78">
      <g>
       <use style="stroke:#000000;stroke-width:0.8;" x="129.024" xlink:href="#me37e8c7109" y="307.584"/>
      </g>
     </g>
     <g id="text_32">
      <!-- 5 -->
      <g transform="translate(125.84275 322.182437)scale(0.1 -0.1)">
       <use xlink:href="#DejaVuSans-35"/>
      </g>
     </g>
    </g>
    <g id="xtick_9">
     <g id="line2d_79">
      <path clip-path="url(#p1b6db843bb)" d="M 200.448 307.584 
L 200.448 186.624 
" style="fill:none;stroke:#b0b0b0;stroke-linecap:square;stroke-width:0.8;"/>
     </g>
     <g id="line2d_80">
      <g>
       <use style="stroke:#000000;stroke-width:0.8;" x="200.448" xlink:href="#me37e8c7109" y="307.584"/>
      </g>
     </g>
     <g id="text_33">
      <!-- 10 -->
      <g transform="translate(194.0855 322.182437)scale(0.1 -0.1)">
       <use xlink:href="#DejaVuSans-31"/>
       <use x="63.623047" xlink:href="#DejaVuSans-30"/>
      </g>
     </g>
    </g>
    <g id="xtick_10">
     <g id="line2d_81">
      <path clip-path="url(#p1b6db843bb)" d="M 271.872 307.584 
L 271.872 186.624 
" style="fill:none;stroke:#b0b0b0;stroke-linecap:square;stroke-width:0.8;"/>
     </g>
     <g id="line2d_82">
      <g>
       <use style="stroke:#000000;stroke-width:0.8;" x="271.872" xlink:href="#me37e8c7109" y="307.584"/>
      </g>
     </g>
     <g id="text_34">
      <!-- 15 -->
      <g transform="translate(265.5095 322.182437)scale(0.1 -0.1)">
       <use xlink:href="#DejaVuSans-31"/>
       <use x="63.623047" xlink:href="#DejaVuSans-35"/>
      </g>
     </g>
    </g>
    <g id="xtick_11">
     <g id="line2d_83">
      <path clip-path="url(#p1b6db843bb)" d="M 343.296 307.584 
L 343.296 186.624 
" style="fill:none;stroke:#b0b0b0;stroke-linecap:square;stroke-width:0.8;"/>
     </g>
     <g id="line2d_84">
      <g>
       <use style="stroke:#000000;stroke-width:0.8;" x="343.296" xlink:href="#me37e8c7109" y="307.584"/>
      </g>
     </g>
     <g id="text_35">
      <!-- 20 -->
      <g transform="translate(336.9335 322.182437)scale(0.1 -0.1)">
       <use xlink:href="#DejaVuSans-32"/>
       <use x="63.623047" xlink:href="#DejaVuSans-30"/>
      </g>
     </g>
    </g>
    <g id="xtick_12">
     <g id="line2d_85">
      <path clip-path="url(#p1b6db843bb)" d="M 414.72 307.584 
L 414.72 186.624 
" style="fill:none;stroke:#b0b0b0;stroke-linecap:square;stroke-width:0.8;"/>
     </g>
     <g id="line2d_86">
      <g>
       <use style="stroke:#000000;stroke-width:0.8;" x="414.72" xlink:href="#me37e8c7109" y="307.584"/>
      </g>
     </g>
     <g id="text_36">
      <!-- 25 -->
      <g transform="translate(408.3575 322.182437)scale(0.1 -0.1)">
       <use xlink:href="#DejaVuSans-32"/>
       <use x="63.623047" xlink:href="#DejaVuSans-35"/>
      </g>
     </g>
    </g>
    <g id="text_37">
     <!-- AvgerageTP -->
     <g transform="translate(206.094375 335.860562)scale(0.1 -0.1)">
      <use xlink:href="#DejaVuSans-41"/>
      <use x="68.330078" xlink:href="#DejaVuSans-76"/>
      <use x="127.509766" xlink:href="#DejaVuSans-67"/>
      <use x="190.986328" xlink:href="#DejaVuSans-65"/>
      <use x="252.509766" xlink:href="#DejaVuSans-72"/>
      <use x="293.623047" xlink:href="#DejaVuSans-61"/>
      <use x="354.902344" xlink:href="#DejaVuSans-67"/>
      <use x="418.378906" xlink:href="#DejaVuSans-65"/>
      <use x="479.902344" xlink:href="#DejaVuSans-54"/>
      <use x="540.986328" xlink:href="#DejaVuSans-50"/>
     </g>
    </g>
   </g>
   <g id="matplotlib.axis_4">
    <g id="ytick_5">
     <g id="line2d_87">
      <path clip-path="url(#p1b6db843bb)" d="M 57.6 307.584 
L 414.72 307.584 
" style="fill:none;stroke:#b0b0b0;stroke-linecap:square;stroke-width:0.8;"/>
     </g>
     <g id="line2d_88">
      <g>
       <use style="stroke:#000000;stroke-width:0.8;" x="57.6" xlink:href="#m4f27b218fb" y="307.584"/>
      </g>
     </g>
     <g id="text_38">
      <!-- 0 -->
      <g transform="translate(44.2375 311.383219)scale(0.1 -0.1)">
       <use xlink:href="#DejaVuSans-30"/>
      </g>
     </g>
    </g>
    <g id="ytick_6">
     <g id="line2d_89">
      <path clip-path="url(#p1b6db843bb)" d="M 57.6 278.633457 
L 414.72 278.633457 
" style="fill:none;stroke:#b0b0b0;stroke-linecap:square;stroke-width:0.8;"/>
     </g>
     <g id="line2d_90">
      <g>
       <use style="stroke:#000000;stroke-width:0.8;" x="57.6" xlink:href="#m4f27b218fb" y="278.633457"/>
      </g>
     </g>
     <g id="text_39">
      <!-- 10 -->
      <g transform="translate(37.875 282.432676)scale(0.1 -0.1)">
       <use xlink:href="#DejaVuSans-31"/>
       <use x="63.623047" xlink:href="#DejaVuSans-30"/>
      </g>
     </g>
    </g>
    <g id="ytick_7">
     <g id="line2d_91">
      <path clip-path="url(#p1b6db843bb)" d="M 57.6 249.682914 
L 414.72 249.682914 
" style="fill:none;stroke:#b0b0b0;stroke-linecap:square;stroke-width:0.8;"/>
     </g>
     <g id="line2d_92">
      <g>
       <use style="stroke:#000000;stroke-width:0.8;" x="57.6" xlink:href="#m4f27b218fb" y="249.682914"/>
      </g>
     </g>
     <g id="text_40">
      <!-- 20 -->
      <g transform="translate(37.875 253.482133)scale(0.1 -0.1)">
       <use xlink:href="#DejaVuSans-32"/>
       <use x="63.623047" xlink:href="#DejaVuSans-30"/>
      </g>
     </g>
    </g>
    <g id="ytick_8">
     <g id="line2d_93">
      <path clip-path="url(#p1b6db843bb)" d="M 57.6 220.732372 
L 414.72 220.732372 
" style="fill:none;stroke:#b0b0b0;stroke-linecap:square;stroke-width:0.8;"/>
     </g>
     <g id="line2d_94">
      <g>
       <use style="stroke:#000000;stroke-width:0.8;" x="57.6" xlink:href="#m4f27b218fb" y="220.732372"/>
      </g>
     </g>
     <g id="text_41">
      <!-- 30 -->
      <defs>
       <path d="M 40.578125 39.3125 
Q 47.65625 37.796875 51.625 33 
Q 55.609375 28.21875 55.609375 21.1875 
Q 55.609375 10.40625 48.1875 4.484375 
Q 40.765625 -1.421875 27.09375 -1.421875 
Q 22.515625 -1.421875 17.65625 -0.515625 
Q 12.796875 0.390625 7.625 2.203125 
L 7.625 11.71875 
Q 11.71875 9.328125 16.59375 8.109375 
Q 21.484375 6.890625 26.8125 6.890625 
Q 36.078125 6.890625 40.9375 10.546875 
Q 45.796875 14.203125 45.796875 21.1875 
Q 45.796875 27.640625 41.28125 31.265625 
Q 36.765625 34.90625 28.71875 34.90625 
L 20.21875 34.90625 
L 20.21875 43.015625 
L 29.109375 43.015625 
Q 36.375 43.015625 40.234375 45.921875 
Q 44.09375 48.828125 44.09375 54.296875 
Q 44.09375 59.90625 40.109375 62.90625 
Q 36.140625 65.921875 28.71875 65.921875 
Q 24.65625 65.921875 20.015625 65.03125 
Q 15.375 64.15625 9.8125 62.3125 
L 9.8125 71.09375 
Q 15.4375 72.65625 20.34375 73.4375 
Q 25.25 74.21875 29.59375 74.21875 
Q 40.828125 74.21875 47.359375 69.109375 
Q 53.90625 64.015625 53.90625 55.328125 
Q 53.90625 49.265625 50.4375 45.09375 
Q 46.96875 40.921875 40.578125 39.3125 
z
" id="DejaVuSans-33"/>
      </defs>
      <g transform="translate(37.875 224.53159)scale(0.1 -0.1)">
       <use xlink:href="#DejaVuSans-33"/>
       <use x="63.623047" xlink:href="#DejaVuSans-30"/>
      </g>
     </g>
    </g>
    <g id="ytick_9">
     <g id="line2d_95">
      <path clip-path="url(#p1b6db843bb)" d="M 57.6 191.781829 
L 414.72 191.781829 
" style="fill:none;stroke:#b0b0b0;stroke-linecap:square;stroke-width:0.8;"/>
     </g>
     <g id="line2d_96">
      <g>
       <use style="stroke:#000000;stroke-width:0.8;" x="57.6" xlink:href="#m4f27b218fb" y="191.781829"/>
      </g>
     </g>
     <g id="text_42">
      <!-- 40 -->
      <g transform="translate(37.875 195.581047)scale(0.1 -0.1)">
       <use xlink:href="#DejaVuSans-34"/>
       <use x="63.623047" xlink:href="#DejaVuSans-30"/>
      </g>
     </g>
    </g>
    <g id="text_43">
     <!-- SumPer -->
     <g transform="translate(31.795312 266.461812)rotate(-90)scale(0.1 -0.1)">
      <use xlink:href="#DejaVuSans-53"/>
      <use x="63.476562" xlink:href="#DejaVuSans-75"/>
      <use x="126.855469" xlink:href="#DejaVuSans-6d"/>
      <use x="224.267578" xlink:href="#DejaVuSans-50"/>
      <use x="284.523438" xlink:href="#DejaVuSans-65"/>
      <use x="346.046875" xlink:href="#DejaVuSans-72"/>
     </g>
    </g>
   </g>
   <g id="patch_18">
    <path d="M 57.6 307.584 
L 57.6 186.624 
" style="fill:none;stroke:#000000;stroke-linecap:square;stroke-linejoin:miter;stroke-width:0.8;"/>
   </g>
   <g id="patch_19">
    <path d="M 414.72 307.584 
L 414.72 186.624 
" style="fill:none;stroke:#000000;stroke-linecap:square;stroke-linejoin:miter;stroke-width:0.8;"/>
   </g>
   <g id="patch_20">
    <path d="M 57.6 307.584 
L 414.72 307.584 
" style="fill:none;stroke:#000000;stroke-linecap:square;stroke-linejoin:miter;stroke-width:0.8;"/>
   </g>
   <g id="patch_21">
    <path d="M 57.6 186.624 
L 414.72 186.624 
" style="fill:none;stroke:#000000;stroke-linecap:square;stroke-linejoin:miter;stroke-width:0.8;"/>
   </g>
   <g id="legend_2">
    <g id="patch_22">
     <path d="M 245.47875 228.2515 
L 409.12 228.2515 
Q 410.72 228.2515 410.72 226.6515 
L 410.72 192.224 
Q 410.72 190.624 409.12 190.624 
L 245.47875 190.624 
Q 243.87875 190.624 243.87875 192.224 
L 243.87875 226.6515 
Q 243.87875 228.2515 245.47875 228.2515 
z
" style="fill:#ffffff;opacity:0.8;stroke:#cccccc;stroke-linejoin:miter;"/>
    </g>
    <g id="patch_23">
     <path d="M 247.07875 199.90275 
L 263.07875 199.90275 
L 263.07875 194.30275 
L 247.07875 194.30275 
z
" style="fill:#1f77b4;"/>
    </g>
    <g id="text_44">
     <!-- Bin 1 -->
     <defs>
      <path d="M 19.671875 34.8125 
L 19.671875 8.109375 
L 35.5 8.109375 
Q 43.453125 8.109375 47.28125 11.40625 
Q 51.125 14.703125 51.125 21.484375 
Q 51.125 28.328125 47.28125 31.5625 
Q 43.453125 34.8125 35.5 34.8125 
z
M 19.671875 64.796875 
L 19.671875 42.828125 
L 34.28125 42.828125 
Q 41.5 42.828125 45.03125 45.53125 
Q 48.578125 48.25 48.578125 53.8125 
Q 48.578125 59.328125 45.03125 62.0625 
Q 41.5 64.796875 34.28125 64.796875 
z
M 9.8125 72.90625 
L 35.015625 72.90625 
Q 46.296875 72.90625 52.390625 68.21875 
Q 58.5 63.53125 58.5 54.890625 
Q 58.5 48.1875 55.375 44.234375 
Q 52.25 40.28125 46.1875 39.3125 
Q 53.46875 37.75 57.5 32.78125 
Q 61.53125 27.828125 61.53125 20.40625 
Q 61.53125 10.640625 54.890625 5.3125 
Q 48.25 0 35.984375 0 
L 9.8125 0 
z
" id="DejaVuSans-42"/>
     </defs>
     <g transform="translate(269.47875 199.90275)scale(0.08 -0.08)">
      <use xlink:href="#DejaVuSans-42"/>
      <use x="68.603516" xlink:href="#DejaVuSans-69"/>
      <use x="96.386719" xlink:href="#DejaVuSans-6e"/>
      <use x="159.765625" xlink:href="#DejaVuSans-20"/>
      <use x="191.552734" xlink:href="#DejaVuSans-31"/>
     </g>
    </g>
    <g id="patch_24">
     <path d="M 247.07875 211.64525 
L 263.07875 211.64525 
L 263.07875 206.04525 
L 247.07875 206.04525 
z
" style="fill:#ff7f0e;"/>
    </g>
    <g id="text_45">
     <!-- Bin 2 -->
     <g transform="translate(269.47875 211.64525)scale(0.08 -0.08)">
      <use xlink:href="#DejaVuSans-42"/>
      <use x="68.603516" xlink:href="#DejaVuSans-69"/>
      <use x="96.386719" xlink:href="#DejaVuSans-6e"/>
      <use x="159.765625" xlink:href="#DejaVuSans-20"/>
      <use x="191.552734" xlink:href="#DejaVuSans-32"/>
     </g>
    </g>
    <g id="patch_25">
     <path d="M 247.07875 223.38775 
L 263.07875 223.38775 
L 263.07875 217.78775 
L 247.07875 217.78775 
z
" style="fill:#2ca02c;"/>
    </g>
    <g id="text_46">
     <!-- Bin 3 -->
     <g transform="translate(269.47875 223.38775)scale(0.08 -0.08)">
      <use xlink:href="#DejaVuSans-42"/>
      <use x="68.603516" xlink:href="#DejaVuSans-69"/>
      <use x="96.386719" xlink:href="#DejaVuSans-6e"/>
      <use x="159.765625" xlink:href="#DejaVuSans-20"/>
      <use x="191.552734" xlink:href="#DejaVuSans-33"/>
     </g>
    </g>
    <g id="patch_26">
     <path d="M 305.8925 199.90275 
L 321.8925 199.90275 
L 321.8925 194.30275 
L 305.8925 194.30275 
z
" style="fill:#d62728;"/>
    </g>
    <g id="text_47">
     <!-- Bin 4 -->
     <g transform="translate(328.2925 199.90275)scale(0.08 -0.08)">
      <use xlink:href="#DejaVuSans-42"/>
      <use x="68.603516" xlink:href="#DejaVuSans-69"/>
      <use x="96.386719" xlink:href="#DejaVuSans-6e"/>
      <use x="159.765625" xlink:href="#DejaVuSans-20"/>
      <use x="191.552734" xlink:href="#DejaVuSans-34"/>
     </g>
    </g>
    <g id="patch_27">
     <path d="M 305.8925 211.64525 
L 321.8925 211.64525 
L 321.8925 206.04525 
L 305.8925 206.04525 
z
" style="fill:#9467bd;"/>
    </g>
    <g id="text_48">
     <!-- Bin 5 -->
     <g transform="translate(328.2925 211.64525)scale(0.08 -0.08)">
      <use xlink:href="#DejaVuSans-42"/>
      <use x="68.603516" xlink:href="#DejaVuSans-69"/>
      <use x="96.386719" xlink:href="#DejaVuSans-6e"/>
      <use x="159.765625" xlink:href="#DejaVuSans-20"/>
      <use x="191.552734" xlink:href="#DejaVuSans-35"/>
     </g>
    </g>
    <g id="patch_28">
     <path d="M 305.8925 223.38775 
L 321.8925 223.38775 
L 321.8925 217.78775 
L 305.8925 217.78775 
z
" style="fill:#8c564b;"/>
    </g>
    <g id="text_49">
     <!-- Bin 6 -->
     <g transform="translate(328.2925 223.38775)scale(0.08 -0.08)">
      <use xlink:href="#DejaVuSans-42"/>
      <use x="68.603516" xlink:href="#DejaVuSans-69"/>
      <use x="96.386719" xlink:href="#DejaVuSans-6e"/>
      <use x="159.765625" xlink:href="#DejaVuSans-20"/>
      <use x="191.552734" xlink:href="#DejaVuSans-36"/>
     </g>
    </g>
    <g id="patch_29">
     <path d="M 364.70625 199.90275 
L 380.70625 199.90275 
L 380.70625 194.30275 
L 364.70625 194.30275 
z
" style="fill:#e377c2;"/>
    </g>
    <g id="text_50">
     <!-- Bin 7 -->
     <defs>
      <path d="M 8.203125 72.90625 
L 55.078125 72.90625 
L 55.078125 68.703125 
L 28.609375 0 
L 18.3125 0 
L 43.21875 64.59375 
L 8.203125 64.59375 
z
" id="DejaVuSans-37"/>
     </defs>
     <g transform="translate(387.10625 199.90275)scale(0.08 -0.08)">
      <use xlink:href="#DejaVuSans-42"/>
      <use x="68.603516" xlink:href="#DejaVuSans-69"/>
      <use x="96.386719" xlink:href="#DejaVuSans-6e"/>
      <use x="159.765625" xlink:href="#DejaVuSans-20"/>
      <use x="191.552734" xlink:href="#DejaVuSans-37"/>
     </g>
    </g>
    <g id="patch_30">
     <path d="M 364.70625 211.64525 
L 380.70625 211.64525 
L 380.70625 206.04525 
L 364.70625 206.04525 
z
" style="fill:#7f7f7f;"/>
    </g>
    <g id="text_51">
     <!-- Bin 8 -->
     <defs>
      <path d="M 31.78125 34.625 
Q 24.75 34.625 20.71875 30.859375 
Q 16.703125 27.09375 16.703125 20.515625 
Q 16.703125 13.921875 20.71875 10.15625 
Q 24.75 6.390625 31.78125 6.390625 
Q 38.8125 6.390625 42.859375 10.171875 
Q 46.921875 13.96875 46.921875 20.515625 
Q 46.921875 27.09375 42.890625 30.859375 
Q 38.875 34.625 31.78125 34.625 
z
M 21.921875 38.8125 
Q 15.578125 40.375 12.03125 44.71875 
Q 8.5 49.078125 8.5 55.328125 
Q 8.5 64.0625 14.71875 69.140625 
Q 20.953125 74.21875 31.78125 74.21875 
Q 42.671875 74.21875 48.875 69.140625 
Q 55.078125 64.0625 55.078125 55.328125 
Q 55.078125 49.078125 51.53125 44.71875 
Q 48 40.375 41.703125 38.8125 
Q 48.828125 37.15625 52.796875 32.3125 
Q 56.78125 27.484375 56.78125 20.515625 
Q 56.78125 9.90625 50.3125 4.234375 
Q 43.84375 -1.421875 31.78125 -1.421875 
Q 19.734375 -1.421875 13.25 4.234375 
Q 6.78125 9.90625 6.78125 20.515625 
Q 6.78125 27.484375 10.78125 32.3125 
Q 14.796875 37.15625 21.921875 38.8125 
z
M 18.3125 54.390625 
Q 18.3125 48.734375 21.84375 45.5625 
Q 25.390625 42.390625 31.78125 42.390625 
Q 38.140625 42.390625 41.71875 45.5625 
Q 45.3125 48.734375 45.3125 54.390625 
Q 45.3125 60.0625 41.71875 63.234375 
Q 38.140625 66.40625 31.78125 66.40625 
Q 25.390625 66.40625 21.84375 63.234375 
Q 18.3125 60.0625 18.3125 54.390625 
z
" id="DejaVuSans-38"/>
     </defs>
     <g transform="translate(387.10625 211.64525)scale(0.08 -0.08)">
      <use xlink:href="#DejaVuSans-42"/>
      <use x="68.603516" xlink:href="#DejaVuSans-69"/>
      <use x="96.386719" xlink:href="#DejaVuSans-6e"/>
      <use x="159.765625" xlink:href="#DejaVuSans-20"/>
      <use x="191.552734" xlink:href="#DejaVuSans-38"/>
     </g>
    </g>
    <g id="patch_31">
     <path d="M 364.70625 223.38775 
L 380.70625 223.38775 
L 380.70625 217.78775 
L 364.70625 217.78775 
z
" style="fill:#bcbd22;"/>
    </g>
    <g id="text_52">
     <!-- Bin 8 -->
     <g transform="translate(387.10625 223.38775)scale(0.08 -0.08)">
      <use xlink:href="#DejaVuSans-42"/>
      <use x="68.603516" xlink:href="#DejaVuSans-69"/>
      <use x="96.386719" xlink:href="#DejaVuSans-6e"/>
      <use x="159.765625" xlink:href="#DejaVuSans-20"/>
      <use x="191.552734" xlink:href="#DejaVuSans-38"/>
     </g>
    </g>
   </g>
  </g>
  <g id="text_53">
   <!-- RAOs for Various Drafts, RAO Direction = 90 -->
   <defs>
    <path d="M 39.40625 66.21875 
Q 28.65625 66.21875 22.328125 58.203125 
Q 16.015625 50.203125 16.015625 36.375 
Q 16.015625 22.609375 22.328125 14.59375 
Q 28.65625 6.59375 39.40625 6.59375 
Q 50.140625 6.59375 56.421875 14.59375 
Q 62.703125 22.609375 62.703125 36.375 
Q 62.703125 50.203125 56.421875 58.203125 
Q 50.140625 66.21875 39.40625 66.21875 
z
M 39.40625 74.21875 
Q 54.734375 74.21875 63.90625 63.9375 
Q 73.09375 53.65625 73.09375 36.375 
Q 73.09375 19.140625 63.90625 8.859375 
Q 54.734375 -1.421875 39.40625 -1.421875 
Q 24.03125 -1.421875 14.8125 8.828125 
Q 5.609375 19.09375 5.609375 36.375 
Q 5.609375 53.65625 14.8125 63.9375 
Q 24.03125 74.21875 39.40625 74.21875 
z
" id="DejaVuSans-4f"/>
    <path d="M 37.109375 75.984375 
L 37.109375 68.5 
L 28.515625 68.5 
Q 23.6875 68.5 21.796875 66.546875 
Q 19.921875 64.59375 19.921875 59.515625 
L 19.921875 54.6875 
L 34.71875 54.6875 
L 34.71875 47.703125 
L 19.921875 47.703125 
L 19.921875 0 
L 10.890625 0 
L 10.890625 47.703125 
L 2.296875 47.703125 
L 2.296875 54.6875 
L 10.890625 54.6875 
L 10.890625 58.5 
Q 10.890625 67.625 15.140625 71.796875 
Q 19.390625 75.984375 28.609375 75.984375 
z
" id="DejaVuSans-66"/>
    <path d="M 28.609375 0 
L 0.78125 72.90625 
L 11.078125 72.90625 
L 34.1875 11.53125 
L 57.328125 72.90625 
L 67.578125 72.90625 
L 39.796875 0 
z
" id="DejaVuSans-56"/>
    <path d="M 19.671875 64.796875 
L 19.671875 8.109375 
L 31.59375 8.109375 
Q 46.6875 8.109375 53.6875 14.9375 
Q 60.6875 21.78125 60.6875 36.53125 
Q 60.6875 51.171875 53.6875 57.984375 
Q 46.6875 64.796875 31.59375 64.796875 
z
M 9.8125 72.90625 
L 30.078125 72.90625 
Q 51.265625 72.90625 61.171875 64.09375 
Q 71.09375 55.28125 71.09375 36.53125 
Q 71.09375 17.671875 61.125 8.828125 
Q 51.171875 0 30.078125 0 
L 9.8125 0 
z
" id="DejaVuSans-44"/>
    <path d="M 11.71875 12.40625 
L 22.015625 12.40625 
L 22.015625 4 
L 14.015625 -11.625 
L 7.71875 -11.625 
L 11.71875 4 
z
" id="DejaVuSans-2c"/>
    <path d="M 10.59375 45.40625 
L 73.1875 45.40625 
L 73.1875 37.203125 
L 10.59375 37.203125 
z
M 10.59375 25.484375 
L 73.1875 25.484375 
L 73.1875 17.1875 
L 10.59375 17.1875 
z
" id="DejaVuSans-3d"/>
    <path d="M 10.984375 1.515625 
L 10.984375 10.5 
Q 14.703125 8.734375 18.5 7.8125 
Q 22.3125 6.890625 25.984375 6.890625 
Q 35.75 6.890625 40.890625 13.453125 
Q 46.046875 20.015625 46.78125 33.40625 
Q 43.953125 29.203125 39.59375 26.953125 
Q 35.25 24.703125 29.984375 24.703125 
Q 19.046875 24.703125 12.671875 31.3125 
Q 6.296875 37.9375 6.296875 49.421875 
Q 6.296875 60.640625 12.9375 67.421875 
Q 19.578125 74.21875 30.609375 74.21875 
Q 43.265625 74.21875 49.921875 64.515625 
Q 56.59375 54.828125 56.59375 36.375 
Q 56.59375 19.140625 48.40625 8.859375 
Q 40.234375 -1.421875 26.421875 -1.421875 
Q 22.703125 -1.421875 18.890625 -0.6875 
Q 15.09375 0.046875 10.984375 1.515625 
z
M 30.609375 32.421875 
Q 37.25 32.421875 41.125 36.953125 
Q 45.015625 41.5 45.015625 49.421875 
Q 45.015625 57.28125 41.125 61.84375 
Q 37.25 66.40625 30.609375 66.40625 
Q 23.96875 66.40625 20.09375 61.84375 
Q 16.21875 57.28125 16.21875 49.421875 
Q 16.21875 41.5 20.09375 36.953125 
Q 23.96875 32.421875 30.609375 32.421875 
z
" id="DejaVuSans-39"/>
   </defs>
   <g transform="translate(74.79875 17.549812)scale(0.14 -0.14)">
    <use xlink:href="#DejaVuSans-52"/>
    <use x="69.419922" xlink:href="#DejaVuSans-41"/>
    <use x="137.8125" xlink:href="#DejaVuSans-4f"/>
    <use x="216.523438" xlink:href="#DejaVuSans-73"/>
    <use x="268.623047" xlink:href="#DejaVuSans-20"/>
    <use x="300.410156" xlink:href="#DejaVuSans-66"/>
    <use x="335.615234" xlink:href="#DejaVuSans-6f"/>
    <use x="396.796875" xlink:href="#DejaVuSans-72"/>
    <use x="437.910156" xlink:href="#DejaVuSans-20"/>
    <use x="469.697266" xlink:href="#DejaVuSans-56"/>
    <use x="537.996094" xlink:href="#DejaVuSans-61"/>
    <use x="599.275391" xlink:href="#DejaVuSans-72"/>
    <use x="640.388672" xlink:href="#DejaVuSans-69"/>
    <use x="668.171875" xlink:href="#DejaVuSans-6f"/>
    <use x="729.353516" xlink:href="#DejaVuSans-75"/>
    <use x="792.732422" xlink:href="#DejaVuSans-73"/>
    <use x="844.832031" xlink:href="#DejaVuSans-20"/>
    <use x="876.619141" xlink:href="#DejaVuSans-44"/>
    <use x="953.621094" xlink:href="#DejaVuSans-72"/>
    <use x="994.734375" xlink:href="#DejaVuSans-61"/>
    <use x="1056.013672" xlink:href="#DejaVuSans-66"/>
    <use x="1091.203125" xlink:href="#DejaVuSans-74"/>
    <use x="1130.412109" xlink:href="#DejaVuSans-73"/>
    <use x="1182.511719" xlink:href="#DejaVuSans-2c"/>
    <use x="1214.298828" xlink:href="#DejaVuSans-20"/>
    <use x="1246.085938" xlink:href="#DejaVuSans-52"/>
    <use x="1315.505859" xlink:href="#DejaVuSans-41"/>
    <use x="1383.898438" xlink:href="#DejaVuSans-4f"/>
    <use x="1462.609375" xlink:href="#DejaVuSans-20"/>
    <use x="1494.396484" xlink:href="#DejaVuSans-44"/>
    <use x="1571.398438" xlink:href="#DejaVuSans-69"/>
    <use x="1599.181641" xlink:href="#DejaVuSans-72"/>
    <use x="1640.263672" xlink:href="#DejaVuSans-65"/>
    <use x="1701.787109" xlink:href="#DejaVuSans-63"/>
    <use x="1756.767578" xlink:href="#DejaVuSans-74"/>
    <use x="1795.976562" xlink:href="#DejaVuSans-69"/>
    <use x="1823.759766" xlink:href="#DejaVuSans-6f"/>
    <use x="1884.941406" xlink:href="#DejaVuSans-6e"/>
    <use x="1948.320312" xlink:href="#DejaVuSans-20"/>
    <use x="1980.107422" xlink:href="#DejaVuSans-3d"/>
    <use x="2063.896484" xlink:href="#DejaVuSans-20"/>
    <use x="2095.683594" xlink:href="#DejaVuSans-39"/>
    <use x="2159.306641" xlink:href="#DejaVuSans-30"/>
   </g>
  </g>
 </g>
 <defs>
  <clipPath id="pbd96193e33">
   <rect height="120.96" width="357.12" x="57.6" y="41.472"/>
  </clipPath>
  <clipPath id="p1b6db843bb">
   <rect height="120.96" width="357.12" x="57.6" y="186.624"/>
  </clipPath>
 </defs>
</svg>
