  0
SECTION
  2
HEADER
  9
$ACADVER
  1
AC1009
  9
$INSBASE
 10
0.0
 20
0.0
 30
0.0
  9
$EXTMIN
 10
0.0
 20
0.0
 30
0.0
  9
$EXTMAX
 10
100.0
 20
100.0
 30
0.0
  9
$UNITMODE
 70
0
  9
$AUNITS
 70
0
  9
$ANGBASE
 50
0.0
  9
$ANGDIR
 70
0
  0
ENDSEC
  0
SECTION
  2
TABLES
  0
TABLE
  2
LTYPE
 70
19
  0
LTYPE
  2
CONTINUOUS
 70
0
  3
Solid
 72
65
 73
0
 40
0.0
  0
LTYPE
  2
CENTER
 70
0
  3
Center ____ _ ____ _ ____ _ ____ _ ____ _ ____
 72
65
 73
4
 40
2.0
 49
1.25
 49
-0.25
 49
0.25
 49
-0.25
  0
LTYPE
  2
CENTERX2
 70
0
  3
Center (2x) ________  __  ________  __  ________
 72
65
 73
4
 40
3.5
 49
2.5
 49
-0.25
 49
0.5
 49
-0.25
  0
LTYPE
  2
CENTER2
 70
0
  3
Center (.5x) ____ _ ____ _ ____ _ ____ _ ____
 72
65
 73
4
 40
1.0
 49
0.625
 49
-0.125
 49
0.125
 49
-0.125
  0
LTYPE
  2
DASHED
 70
0
  3
Dashed __ __ __ __ __ __ __ __ __ __ __ __ __ _
 72
65
 73
2
 40
0.6
 49
0.5
 49
-0.1
  0
LTYPE
  2
DASHEDX2
 70
0
  3
Dashed (2x) ____  ____  ____  ____  ____  ____
 72
65
 73
2
 40
1.2
 49
1.0
 49
-0.2
  0
LTYPE
  2
DASHED2
 70
0
  3
Dashed (.5x) _ _ _ _ _ _ _ _ _ _ _ _ _ _
 72
65
 73
2
 40
0.3
 49
0.25
 49
-0.05
  0
LTYPE
  2
PHANTOM
 70
0
  3
Phantom ______  __  __  ______  __  __  ______
 72
65
 73
6
 40
2.5
 49
1.25
 49
-0.25
 49
0.25
 49
-0.25
 49
0.25
 49
-0.25
  0
LTYPE
  2
PHANTOMX2
 70
0
  3
Phantom (2x)____________    ____    ____    ____________
 72
65
 73
6
 40
4.25
 49
2.5
 49
-0.25
 49
0.5
 49
-0.25
 49
0.5
 49
-0.25
  0
LTYPE
  2
PHANTOM2
 70
0
  3
Phantom (.5x) ___ _ _ ___ _ _ ___ _ _ ___ _ _ ___
 72
65
 73
6
 40
1.25
 49
0.625
 49
-0.125
 49
0.125
 49
-0.125
 49
0.125
 49
-0.125
  0
LTYPE
  2
DASHDOT
 70
0
  3
Dash dot __ . __ . __ . __ . __ . __ . __ . __
 72
65
 73
4
 40
1.4
 49
1.0
 49
-0.2
 49
0.0
 49
-0.2
  0
LTYPE
  2
DASHDOTX2
 70
0
  3
Dash dot (2x) ____  .  ____  .  ____  .  ____
 72
65
 73
4
 40
2.4
 49
2.0
 49
-0.2
 49
0.0
 49
-0.2
  0
LTYPE
  2
DASHDOT2
 70
0
  3
Dash dot (.5x) _ . _ . _ . _ . _ . _ . _ . _
 72
65
 73
4
 40
0.7
 49
0.5
 49
-0.1
 49
0.0
 49
-0.1
  0
LTYPE
  2
DOT
 70
0
  3
Dot .  .  .  .  .  .  .  .  .  .  .  .  .  .  .  .
 72
65
 73
2
 40
0.2
 49
0.0
 49
-0.2
  0
LTYPE
  2
DOTX2
 70
0
  3
Dot (2x) .    .    .    .    .    .    .    . 
 72
65
 73
2
 40
0.4
 49
0.0
 49
-0.4
  0
LTYPE
  2
DOT2
 70
0
  3
Dot (.5) . . . . . . . . . . . . . . . . . . . 
 72
65
 73
2
 40
0.1
 49
0.0
 49
-0.1
  0
LTYPE
  2
DIVIDE
 70
0
  3
Divide __ . . __ . . __ . . __ . . __ . . __
 72
65
 73
6
 40
1.6
 49
1.0
 49
-0.2
 49
0.0
 49
-0.2
 49
0.0
 49
-0.2
  0
LTYPE
  2
DIVIDEX2
 70
0
  3
Divide (2x) ____  . .  ____  . .  ____  . .  ____
 72
65
 73
6
 40
2.6
 49
2.0
 49
-0.2
 49
0.0
 49
-0.2
 49
0.0
 49
-0.2
  0
LTYPE
  2
DIVIDE2
 70
0
  3
Divide(.5x) _ . _ . _ . _ . _ . _ . _ . _
 72
65
 73
6
 40
0.8
 49
0.5
 49
-0.1
 49
0.0
 49
-0.1
 49
0.0
 49
-0.1
  0
ENDTAB
  0
TABLE
  2
LAYER
 70
6
  0
LAYER
  2
DIMENSIONS
 70
0
 62
1
  6
CONTINUOUS
  0
LAYER
  2
TABLEBACKGROUND
 70
0
 62
1
  6
CONTINUOUS
  0
LAYER
  2
TABLECONTENT
 70
0
 62
1
  6
CONTINUOUS
  0
LAYER
  2
TABLEGRID
 70
0
 62
1
  6
CONTINUOUS
  0
LAYER
  2
VIEWPORTS
 70
0
 62
7
  6
CONTINUOUS
  0
LAYER
  2
DEM_20px_m
 70
0
 62
1
  6
CONTINUOUS
  0
ENDTAB
  0
TABLE
  2
STYLE
 70
12
  0
STYLE
  2
STANDARD
 70
0
 40
0.0
 41
1.0
 42
1.0
 50
0.0
 71
0
  3
arial.ttf
  4

  0
STYLE
  2
ARIAL
 70
0
 40
0.0
 41
1.0
 42
1.0
 50
0.0
 71
0
  3
arial.ttf
  4

  0
STYLE
  2
ARIAL_BOLD
 70
0
 40
0.0
 41
1.0
 42
1.0
 50
0.0
 71
0
  3
arialbd.ttf
  4

  0
STYLE
  2
ARIAL_ITALIC
 70
0
 40
0.0
 41
1.0
 42
1.0
 50
0.0
 71
0
  3
ariali.ttf
  4

  0
STYLE
  2
ARIAL_BOLD_ITALIC
 70
0
 40
0.0
 41
1.0
 42
1.0
 50
0.0
 71
0
  3
arialbi.ttf
  4

  0
STYLE
  2
ARIAL_BLACK
 70
0
 40
0.0
 41
1.0
 42
1.0
 50
0.0
 71
0
  3
ariblk.ttf
  4

  0
STYLE
  2
ISOCPEUR
 70
0
 40
0.0
 41
1.0
 42
1.0
 50
0.0
 71
0
  3
isocpeur.ttf
  4

  0
STYLE
  2
ISOCPEUR_ITALIC
 70
0
 40
0.0
 41
1.0
 42
1.0
 50
0.0
 71
0
  3
isocpeui.ttf
  4

  0
STYLE
  2
TIMES
 70
0
 40
0.0
 41
1.0
 42
1.0
 50
0.0
 71
0
  3
times.ttf
  4

  0
STYLE
  2
TIMES_BOLD
 70
0
 40
0.0
 41
1.0
 42
1.0
 50
0.0
 71
0
  3
timesbd.ttf
  4

  0
STYLE
  2
TIMES_ITALIC
 70
0
 40
0.0
 41
1.0
 42
1.0
 50
0.0
 71
0
  3
timesi.ttf
  4

  0
STYLE
  2
TIMES_BOLD_ITALIC
 70
0
 40
0.0
 41
1.0
 42
1.0
 50
0.0
 71
0
  3
timesbi.ttf
  4

  0
ENDTAB
  0
TABLE
  2
VIEW
 70
0
  0
ENDTAB
  0
TABLE
  2
APPID
 70
1
  0
APPID
  2
DXFWRITE
 70
0
  0
ENDTAB
  0
TABLE
  2
VPORT
 70
0
  0
ENDTAB
  0
TABLE
  2
UCS
 70
0
  0
ENDTAB
  0
ENDSEC
  0
SECTION
  2
BLOCKS
  0
ENDSEC
  0
SECTION
  2
ENTITIES
  0
VIEWPORT
  8
VIEWPORTS
 67
1
 10
0.0
 20
0.0
 30
0.0
 40
1.0
 41
1.0
 68
1
 69
1
1001
ACAD
1000
MVIEW
1002
{
1070
16
1010
0.0
1020
0.0
1030
0.0
1010
0.0
1020
0.0
1030
0.0
1040
0.0
1040
1.0
1040
0.0
1040
0.0
1040
50.0
1040
0.0
1040
0.0
1070
0
1070
100
1070
1
1070
3
1070
0
1070
0
1070
0
1070
0
1040
0.0
1040
0.0
1040
0.0
1040
0.1
1040
0.1
1040
0.1
1040
0.1
1070
0
1002
{
1002
}
1002
}
  0
POLYLINE
 62
7
  8
DEM_20px_m
 66
1
 10
0.0
 20
0.0
 30
0.0
 70
8
  0
VERTEX
  8
DEM_20px_m
 10
229659.0902502267
 20
2070337.73563407
 30
29.543713
  0
VERTEX
  8
DEM_20px_m
 10
229655.75193567743
 20
2070357.7432027836
 30
28.550204
  0
VERTEX
  8
DEM_20px_m
 10
229652.41362112813
 20
2070377.7507714974
 30
27.556696
  0
VERTEX
  8
DEM_20px_m
 10
229649.07530657886
 20
2070397.7583402111
 30
27.581453
  0
VERTEX
  8
DEM_20px_m
 10
229645.73699202956
 20
2070417.7659089249
 30
25.427239
  0
VERTEX
  8
DEM_20px_m
 10
229642.3986774803
 20
2070437.7734776386
 30
25.0
  0
VERTEX
  8
DEM_20px_m
 10
229639.06036293102
 20
2070457.7810463523
 30
22.088519
  0
VERTEX
  8
DEM_20px_m
 10
229635.72204838172
 20
2070477.788615066
 30
20.0
  0
VERTEX
  8
DEM_20px_m
 10
229632.38373383245
 20
2070497.7961837798
 30
18.584329
  0
VERTEX
  8
DEM_20px_m
 10
229629.04541928315
 20
2070517.8037524936
 30
18.33949
  0
VERTEX
  8
DEM_20px_m
 10
229625.70710473388
 20
2070537.8113212073
 30
21.182966
  0
VERTEX
  8
DEM_20px_m
 10
229622.3687901846
 20
2070557.818889921
 30
15.0
  0
VERTEX
  8
DEM_20px_m
 10
229619.0304756353
 20
2070577.8264586348
 30
19.091094
  0
VERTEX
  8
DEM_20px_m
 10
229615.69216108604
 20
2070597.8340273486
 30
24.158224
  0
VERTEX
  8
DEM_20px_m
 10
229612.35384653675
 20
2070617.8415960623
 30
28.607072
  0
VERTEX
  8
DEM_20px_m
 10
229609.01553198748
 20
2070637.849164776
 30
33.247405
  0
VERTEX
  8
DEM_20px_m
 10
229605.6772174382
 20
2070657.8567334898
 30
34.185048
  0
VERTEX
  8
DEM_20px_m
 10
229602.3389028889
 20
2070677.8643022035
 30
28.549351
  0
VERTEX
  8
DEM_20px_m
 10
229599.00058833964
 20
2070697.8718709173
 30
31.452971
  0
VERTEX
  8
DEM_20px_m
 10
229595.66227379034
 20
2070717.879439631
 30
32.76146
  0
VERTEX
  8
DEM_20px_m
 10
229592.32395924107
 20
2070737.8870083448
 30
31.078595
  0
VERTEX
  8
DEM_20px_m
 10
229588.9856446918
 20
2070757.8945770585
 30
30.0
  0
VERTEX
  8
DEM_20px_m
 10
229585.6473301425
 20
2070777.9021457722
 30
30.739188
  0
VERTEX
  8
DEM_20px_m
 10
229582.30901559323
 20
2070797.909714486
 30
32.576865
  0
VERTEX
  8
DEM_20px_m
 10
229578.97070104393
 20
2070817.9172831997
 30
31.288532
  0
VERTEX
  8
DEM_20px_m
 10
229575.63238649466
 20
2070837.9248519135
 30
30.0
  0
VERTEX
  8
DEM_20px_m
 10
229572.2940719454
 20
2070857.9324206272
 30
30.0
  0
VERTEX
  8
DEM_20px_m
 10
229568.9557573961
 20
2070877.939989341
 30
30.169213
  0
VERTEX
  8
DEM_20px_m
 10
229565.61744284682
 20
2070897.9475580547
 30
30.414388
  0
VERTEX
  8
DEM_20px_m
 10
229562.27912829752
 20
2070917.9551267684
 30
29.078639
  0
VERTEX
  8
DEM_20px_m
 10
229558.94081374825
 20
2070937.9626954822
 30
28.893208
  0
VERTEX
  8
DEM_20px_m
 10
229555.60249919898
 20
2070957.970264196
 30
25.0
  0
VERTEX
  8
DEM_20px_m
 10
229552.26418464968
 20
2070977.9778329097
 30
25.0
  0
VERTEX
  8
DEM_20px_m
 10
229548.92587010041
 20
2070997.9854016234
 30
21.05381
  0
VERTEX
  8
DEM_20px_m
 10
229545.58755555112
 20
2071017.9929703372
 30
19.801923
  0
VERTEX
  8
DEM_20px_m
 10
229542.24924100185
 20
2071038.000539051
 30
16.618032
  0
VERTEX
  8
DEM_20px_m
 10
229538.91092645258
 20
2071058.0081077646
 30
15.0
  0
VERTEX
  8
DEM_20px_m
 10
229535.57261190328
 20
2071078.0156764784
 30
14.226303
  0
VERTEX
  8
DEM_20px_m
 10
229532.234297354
 20
2071098.0232451921
 30
11.081999
  0
VERTEX
  8
DEM_20px_m
 10
229528.8959828047
 20
2071118.0308139059
 30
10.065741
  0
VERTEX
  8
DEM_20px_m
 10
229525.55766825544
 20
2071138.0383826196
 30
10.0
  0
VERTEX
  8
DEM_20px_m
 10
229522.21935370617
 20
2071158.0459513334
 30
9.9221224
  0
VERTEX
  8
DEM_20px_m
 10
229518.88103915687
 20
2071178.053520047
 30
8.7735635
  0
VERTEX
  8
DEM_20px_m
 10
229515.5427246076
 20
2071198.0610887608
 30
7.6250046
  0
VERTEX
  8
DEM_20px_m
 10
229512.2044100583
 20
2071218.0686574746
 30
6.7113593
  0
VERTEX
  8
DEM_20px_m
 10
229508.86609550903
 20
2071238.0762261883
 30
5.7428929
  0
VERTEX
  8
DEM_20px_m
 10
229505.52778095976
 20
2071258.083794902
 30
5.1037826
  0
VERTEX
  8
DEM_20px_m
 10
229502.18946641046
 20
2071278.0913636158
 30
6.0784367
  0
VERTEX
  8
DEM_20px_m
 10
229498.8511518612
 20
2071298.0989323296
 30
5.0
  0
VERTEX
  8
DEM_20px_m
 10
229495.5128373119
 20
2071318.1065010433
 30
5.0
  0
VERTEX
  8
DEM_20px_m
 10
229492.17452276262
 20
2071338.114069757
 30
5.0
  0
VERTEX
  8
DEM_20px_m
 10
229488.83620821335
 20
2071358.1216384708
 30
5.0
  0
VERTEX
  8
DEM_20px_m
 10
229485.49789366405
 20
2071378.1292071845
 30
5.0
  0
VERTEX
  8
DEM_20px_m
 10
229482.15957911478
 20
2071398.1367758983
 30
5.0
  0
VERTEX
  8
DEM_20px_m
 10
229478.8212645655
 20
2071418.144344612
 30
5.0
  0
VERTEX
  8
DEM_20px_m
 10
229475.48295001622
 20
2071438.1519133258
 30
5.0
  0
VERTEX
  8
DEM_20px_m
 10
229472.14463546695
 20
2071458.1594820395
 30
5.0
  0
VERTEX
  8
DEM_20px_m
 10
229468.80632091765
 20
2071478.1670507533
 30
5.0
  0
VERTEX
  8
DEM_20px_m
 10
229465.46800636838
 20
2071498.174619467
 30
5.0
  0
VERTEX
  8
DEM_20px_m
 10
229462.12969181908
 20
2071518.1821881807
 30
5.0
  0
VERTEX
  8
DEM_20px_m
 10
229458.7913772698
 20
2071538.1897568945
 30
4.9419467
  0
VERTEX
  8
DEM_20px_m
 10
229455.45306272054
 20
2071558.1973256082
 30
4.4598818
  0
VERTEX
  8
DEM_20px_m
 10
229452.11474817124
 20
2071578.204894322
 30
3.9778168
  0
VERTEX
  8
DEM_20px_m
 10
229448.77643362197
 20
2071598.2124630357
 30
3.4957518
  0
VERTEX
  8
DEM_20px_m
 10
229445.43811907267
 20
2071618.2200317495
 30
3.0136869
  0
VERTEX
  8
DEM_20px_m
 10
229442.0998045234
 20
2071638.2276004632
 30
2.5930772
  0
VERTEX
  8
DEM_20px_m
 10
229438.7614899741
 20
2071658.235169177
 30
2.1110122
  0
VERTEX
  8
DEM_20px_m
 10
229435.42317542483
 20
2071678.2427378907
 30
1.6289473
  0
VERTEX
  8
DEM_20px_m
 10
229432.08486087556
 20
2071698.2503066044
 30
1.1468823
  0
VERTEX
  8
DEM_20px_m
 10
229428.74654632626
 20
2071718.2578753182
 30
0.66481736
  0
VERTEX
  8
DEM_20px_m
 10
229425.408231777
 20
2071738.265444032
 30
0.1827524
  0
VERTEX
  8
DEM_20px_m
 10
229422.0699172277
 20
2071758.2730127457
 30
-0.23785728
  0
VERTEX
  8
DEM_20px_m
 10
229418.73160267842
 20
2071778.2805814594
 30
-0.71992224
  0
VERTEX
  8
DEM_20px_m
 10
229415.39328812915
 20
2071798.2881501731
 30
-1.2019872
  0
VERTEX
  8
DEM_20px_m
 10
229412.05497357986
 20
2071818.295718887
 30
-1.6840522
  0
VERTEX
  8
DEM_20px_m
 10
229408.7166590306
 20
2071838.3032876006
 30
-2.1661171
  0
VERTEX
  8
DEM_20px_m
 10
229405.3783444813
 20
2071858.3108563144
 30
-2.6476833
  0
VERTEX
  8
DEM_20px_m
 10
229402.04002993202
 20
2071878.3184250281
 30
-2.9861497
  0
VERTEX
  8
DEM_20px_m
 10
229398.70171538275
 20
2071898.3259937419
 30
-3.423187
  0
VERTEX
  8
DEM_20px_m
 10
229395.36340083345
 20
2071918.3335624556
 30
-3.8583733
  0
VERTEX
  8
DEM_20px_m
 10
229392.02508628418
 20
2071938.3411311693
 30
-4.2925196
  0
VERTEX
  8
DEM_20px_m
 10
229388.68677173488
 20
2071958.348699883
 30
-4.6981568
  0
VERTEX
  8
DEM_20px_m
 10
229385.3484571856
 20
2071978.3562685968
 30
-5.0
  0
VERTEX
  8
DEM_20px_m
 10
229382.01014263634
 20
2071998.3638373106
 30
-5.0
  0
VERTEX
  8
DEM_20px_m
 10
229378.67182808704
 20
2072018.3714060243
 30
-5.0
  0
VERTEX
  8
DEM_20px_m
 10
229375.33351353777
 20
2072038.378974738
 30
-5.0
  0
VERTEX
  8
DEM_20px_m
 10
229371.99519898847
 20
2072058.3865434518
 30
-5.0
  0
VERTEX
  8
DEM_20px_m
 10
229368.6568844392
 20
2072078.3941121656
 30
-5.0
  0
VERTEX
  8
DEM_20px_m
 10
229365.31856988993
 20
2072098.4016808793
 30
-5.0
  0
VERTEX
  8
DEM_20px_m
 10
229361.98025534063
 20
2072118.409249593
 30
-5.0
  0
VERTEX
  8
DEM_20px_m
 10
229358.64194079136
 20
2072138.4168183068
 30
-5.0
  0
VERTEX
  8
DEM_20px_m
 10
229355.30362624206
 20
2072158.4243870205
 30
-5.0
  0
VERTEX
  8
DEM_20px_m
 10
229351.9653116928
 20
2072178.4319557343
 30
-5.1967182
  0
VERTEX
  8
DEM_20px_m
 10
229348.62699714352
 20
2072198.439524448
 30
-5.6606675
  0
VERTEX
  8
DEM_20px_m
 10
229345.28868259423
 20
2072218.4470931618
 30
-5.950207
  0
VERTEX
  8
DEM_20px_m
 10
229341.95036804496
 20
2072238.4546618755
 30
-6.5282364
  0
VERTEX
  8
DEM_20px_m
 10
229338.61205349566
 20
2072258.4622305892
 30
-6.8177759
  0
VERTEX
  8
DEM_20px_m
 10
229335.2737389464
 20
2072278.469799303
 30
-7.1073154
  0
VERTEX
  8
DEM_20px_m
 10
229331.93542439712
 20
2072298.4773680167
 30
-7.396855
  0
VERTEX
  8
DEM_20px_m
 10
229328.59710984782
 20
2072318.4849367305
 30
-7.6863945
  0
VERTEX
  8
DEM_20px_m
 10
229325.25879529855
 20
2072338.4925054442
 30
-7.9759341
  0
VERTEX
  8
DEM_20px_m
 10
229321.92048074925
 20
2072358.500074158
 30
-8.5539634
  0
VERTEX
  8
DEM_20px_m
 10
229318.58216619998
 20
2072378.5076428717
 30
-8.8435029
  0
VERTEX
  8
DEM_20px_m
 10
229315.2438516507
 20
2072398.5152115854
 30
-9.1330425
  0
VERTEX
  8
DEM_20px_m
 10
229311.9055371014
 20
2072418.5227802992
 30
-9.422582
  0
VERTEX
  8
DEM_20px_m
 10
229308.56722255214
 20
2072438.530349013
 30
-9.7121216
  0
VERTEX
  8
DEM_20px_m
 10
229305.22890800284
 20
2072458.5379177267
 30
-10.0
  0
VERTEX
  8
DEM_20px_m
 10
229301.89059345357
 20
2072478.5454864404
 30
-10.0
  0
VERTEX
  8
DEM_20px_m
 10
229298.5522789043
 20
2072498.5530551542
 30
-10.0
  0
VERTEX
  8
DEM_20px_m
 10
229295.213964355
 20
2072518.560623868
 30
-10.0
  0
VERTEX
  8
DEM_20px_m
 10
229291.87564980573
 20
2072538.5681925816
 30
-10.0
  0
VERTEX
  8
DEM_20px_m
 10
229288.53733525643
 20
2072558.5757612954
 30
-10.0
  0
VERTEX
  8
DEM_20px_m
 10
229285.19902070716
 20
2072578.5833300091
 30
-10.0
  0
VERTEX
  8
DEM_20px_m
 10
229281.8607061579
 20
2072598.5908987229
 30
-10.0
  0
VERTEX
  8
DEM_20px_m
 10
229278.5223916086
 20
2072618.5984674366
 30
-10.0
  0
VERTEX
  8
DEM_20px_m
 10
229275.18407705933
 20
2072638.6060361504
 30
-10.0
  0
VERTEX
  8
DEM_20px_m
 10
229271.84576251003
 20
2072658.613604864
 30
-10.0
  0
VERTEX
  8
DEM_20px_m
 10
229268.50744796076
 20
2072678.6211735778
 30
-10.0
  0
VERTEX
  8
DEM_20px_m
 10
229265.1691334115
 20
2072698.6287422916
 30
-10.0
  0
VERTEX
  8
DEM_20px_m
 10
229261.8308188622
 20
2072718.6363110053
 30
-10.0
  0
VERTEX
  8
DEM_20px_m
 10
229258.49250431292
 20
2072738.643879719
 30
-10.0
  0
VERTEX
  8
DEM_20px_m
 10
229255.15418976362
 20
2072758.6514484328
 30
-10.0
  0
VERTEX
  8
DEM_20px_m
 10
229251.81587521435
 20
2072778.6590171466
 30
-10.0
  0
VERTEX
  8
DEM_20px_m
 10
229248.47756066508
 20
2072798.6665858603
 30
-10.0
  0
VERTEX
  8
DEM_20px_m
 10
229245.13924611578
 20
2072818.674154574
 30
-10.0
  0
VERTEX
  8
DEM_20px_m
 10
229241.8009315665
 20
2072838.6817232878
 30
-10.0
  0
VERTEX
  8
DEM_20px_m
 10
229238.4626170172
 20
2072858.6892920015
 30
-10.0
  0
VERTEX
  8
DEM_20px_m
 10
229235.12430246794
 20
2072878.6968607153
 30
-10.0
  0
VERTEX
  8
DEM_20px_m
 10
229231.78598791867
 20
2072898.7044294293
 30
-10.0
  0
VERTEX
  8
DEM_20px_m
 10
229228.44767336937
 20
2072918.711998143
 30
-10.0
  0
VERTEX
  8
DEM_20px_m
 10
229225.1093588201
 20
2072938.7195668567
 30
-10.0
  0
VERTEX
  8
DEM_20px_m
 10
229221.7710442708
 20
2072958.7271355705
 30
-10.0
  0
VERTEX
  8
DEM_20px_m
 10
229218.43272972153
 20
2072978.7347042842
 30
-10.0
  0
VERTEX
  8
DEM_20px_m
 10
229215.09441517227
 20
2072998.742272998
 30
-10.150141
  0
VERTEX
  8
DEM_20px_m
 10
229211.75610062297
 20
2073018.7498417117
 30
-10.315272
  0
VERTEX
  8
DEM_20px_m
 10
229208.4177860737
 20
2073038.7574104255
 30
-10.480404
  0
VERTEX
  8
DEM_20px_m
 10
229205.0794715244
 20
2073058.7649791392
 30
-10.645535
  0
VERTEX
  8
DEM_20px_m
 10
229201.74115697513
 20
2073078.772547853
 30
-10.767086
  0
VERTEX
  8
DEM_20px_m
 10
229198.40284242586
 20
2073098.7801165667
 30
-10.932665
  0
VERTEX
  8
DEM_20px_m
 10
229195.06452787656
 20
2073118.7876852804
 30
-11.097784
  0
VERTEX
  8
DEM_20px_m
 10
229191.7262133273
 20
2073138.7952539942
 30
-11.262575
  0
VERTEX
  8
DEM_20px_m
 10
229188.387898778
 20
2073158.802822708
 30
-11.424379
  0
VERTEX
  8
DEM_20px_m
 10
229185.04958422872
 20
2073178.8103914217
 30
-11.585714
  0
VERTEX
  8
DEM_20px_m
 10
229181.71126967945
 20
2073198.8179601354
 30
-11.699775
  0
VERTEX
  8
DEM_20px_m
 10
229178.37295513015
 20
2073218.8255288491
 30
-11.85899
  0
VERTEX
  8
DEM_20px_m
 10
229175.03464058088
 20
2073238.833097563
 30
-12.014351
  0
VERTEX
  8
DEM_20px_m
 10
229171.69632603158
 20
2073258.8406662766
 30
-12.138836
  0
VERTEX
  8
DEM_20px_m
 10
229168.3580114823
 20
2073278.8482349904
 30
-12.263319
  0
VERTEX
  8
DEM_20px_m
 10
229165.01969693304
 20
2073298.8558037041
 30
-12.387803
  0
VERTEX
  8
DEM_20px_m
 10
229161.68138238374
 20
2073318.8633724179
 30
-12.475332
  0
VERTEX
  8
DEM_20px_m
 10
229158.34306783447
 20
2073338.8709411316
 30
-12.603066
  0
VERTEX
  8
DEM_20px_m
 10
229155.00475328517
 20
2073358.8785098454
 30
-12.735557
  0
VERTEX
  8
DEM_20px_m
 10
229151.6664387359
 20
2073378.886078559
 30
-12.866465
  0
VERTEX
  8
DEM_20px_m
 10
229148.32812418664
 20
2073398.8936472728
 30
-12.995785
  0
VERTEX
  8
DEM_20px_m
 10
229144.98980963734
 20
2073418.9012159866
 30
-13.125227
  0
VERTEX
  8
DEM_20px_m
 10
229141.65149508807
 20
2073438.9087847003
 30
-13.232754
  0
VERTEX
  8
DEM_20px_m
 10
229138.31318053877
 20
2073458.916353414
 30
-13.364253
  0
VERTEX
  8
DEM_20px_m
 10
229134.9748659895
 20
2073478.9239221278
 30
-13.495753
  0
VERTEX
  8
DEM_20px_m
 10
229131.63655144023
 20
2073498.9314908416
 30
-13.627186
  0
VERTEX
  8
DEM_20px_m
 10
229128.29823689093
 20
2073518.9390595553
 30
-13.758144
  0
VERTEX
  8
DEM_20px_m
 10
229124.95992234166
 20
2073538.946628269
 30
-13.889101
  0
VERTEX
  8
DEM_20px_m
 10
229121.62160779236
 20
2073558.9541969828
 30
-13.984362
  0
VERTEX
  8
DEM_20px_m
 10
229118.2832932431
 20
2073578.9617656965
 30
-14.130575
  0
VERTEX
  8
DEM_20px_m
 10
229114.94497869382
 20
2073598.9693344103
 30
-14.279332
  0
VERTEX
  8
DEM_20px_m
 10
229111.60666414452
 20
2073618.976903124
 30
-14.428089
  0
VERTEX
  8
DEM_20px_m
 10
229108.26834959525
 20
2073638.9844718378
 30
-14.576845
  0
VERTEX
  8
DEM_20px_m
 10
229104.93003504595
 20
2073658.9920405515
 30
-14.725245
  0
VERTEX
  8
DEM_20px_m
 10
229101.59172049668
 20
2073678.9996092652
 30
-14.845557
  0
VERTEX
  8
DEM_20px_m
 10
229098.2534059474
 20
2073699.007177979
 30
-14.996968
  0
VERTEX
  8
DEM_20px_m
 10
229094.9150913981
 20
2073719.0147466927
 30
-15.148379
  0
VERTEX
  8
DEM_20px_m
 10
229091.57677684884
 20
2073739.0223154065
 30
-15.304925
  0
VERTEX
  8
DEM_20px_m
 10
229088.23846229955
 20
2073759.0298841202
 30
-15.469688
  0
VERTEX
  8
DEM_20px_m
 10
229084.90014775028
 20
2073779.037452834
 30
-15.63445
  0
VERTEX
  8
DEM_20px_m
 10
229081.561833201
 20
2073799.0450215477
 30
-15.787178
  0
VERTEX
  8
DEM_20px_m
 10
229078.2235186517
 20
2073819.0525902614
 30
-15.958048
  0
VERTEX
  8
DEM_20px_m
 10
229074.88520410244
 20
2073839.0601589752
 30
-16.115084
  0
VERTEX
  8
DEM_20px_m
 10
229071.54688955314
 20
2073859.067727689
 30
-16.259875
  0
VERTEX
  8
DEM_20px_m
 10
229068.20857500387
 20
2073879.0752964027
 30
-16.408333
  0
VERTEX
  8
DEM_20px_m
 10
229064.8702604546
 20
2073899.0828651164
 30
-16.55679
  0
VERTEX
  8
DEM_20px_m
 10
229061.5319459053
 20
2073919.0904338302
 30
-16.683736
  0
VERTEX
  8
DEM_20px_m
 10
229058.19363135603
 20
2073939.098002544
 30
-16.826105
  0
VERTEX
  8
DEM_20px_m
 10
229054.85531680673
 20
2073959.1055712576
 30
-16.968473
  0
VERTEX
  8
DEM_20px_m
 10
229051.51700225746
 20
2073979.1131399714
 30
-17.110842
  0
VERTEX
  8
DEM_20px_m
 10
229048.1786877082
 20
2073999.1207086851
 30
-17.253211
  0
VERTEX
  8
DEM_20px_m
 10
229044.8403731589
 20
2074019.1282773989
 30
-17.395579
  0
VERTEX
  8
DEM_20px_m
 10
229041.50205860962
 20
2074039.1358461126
 30
-17.511951
  0
VERTEX
  8
DEM_20px_m
 10
229038.16374406032
 20
2074059.1434148264
 30
-17.65432
  0
VERTEX
  8
DEM_20px_m
 10
229034.82542951105
 20
2074079.15098354
 30
-17.796688
  0
VERTEX
  8
DEM_20px_m
 10
229031.48711496178
 20
2074099.1585522539
 30
-17.939057
  0
VERTEX
  8
DEM_20px_m
 10
229028.14880041248
 20
2074119.1661209676
 30
-18.050518
  0
VERTEX
  8
DEM_20px_m
 10
229024.8104858632
 20
2074139.1736896813
 30
-18.161584
  0
VERTEX
  8
DEM_20px_m
 10
229021.47217131392
 20
2074159.181258395
 30
-18.28113
  0
VERTEX
  8
DEM_20px_m
 10
229018.13385676465
 20
2074179.1888271088
 30
-18.391875
  0
VERTEX
  8
DEM_20px_m
 10
229014.79554221535
 20
2074199.1963958226
 30
-18.502619
  0
VERTEX
  8
DEM_20px_m
 10
229011.45722766608
 20
2074219.2039645363
 30
-18.610688
  0
VERTEX
  8
DEM_20px_m
 10
229008.1189131168
 20
2074239.21153325
 30
-18.705915
  0
VERTEX
  8
DEM_20px_m
 10
229004.7805985675
 20
2074259.2191019638
 30
-18.801142
  0
VERTEX
  8
DEM_20px_m
 10
229001.44228401824
 20
2074279.2266706775
 30
-18.828892
  0
VERTEX
  8
DEM_20px_m
 10
228998.10396946894
 20
2074299.2342393913
 30
-18.924119
  0
VERTEX
  8
DEM_20px_m
 10
228994.76565491967
 20
2074319.241808105
 30
-19.019346
  0
VERTEX
  8
DEM_20px_m
 10
228991.4273403704
 20
2074339.2493768188
 30
-19.114573
  0
VERTEX
  8
DEM_20px_m
 10
228988.0890258211
 20
2074359.2569455325
 30
-19.209799
  0
VERTEX
  8
DEM_20px_m
 10
228984.75071127183
 20
2074379.2645142463
 30
-19.305026
  0
VERTEX
  8
DEM_20px_m
 10
228981.41239672253
 20
2074399.27208296
 30
-19.323381
  0
VERTEX
  8
DEM_20px_m
 10
228978.07408217326
 20
2074419.2796516737
 30
-19.412599
  0
VERTEX
  8
DEM_20px_m
 10
228974.735767624
 20
2074439.2872203875
 30
-19.474723
  0
VERTEX
  8
DEM_20px_m
 10
228971.3974530747
 20
2074459.2947891012
 30
-19.507055
  0
VERTEX
  8
DEM_20px_m
 10
228968.05913852542
 20
2074479.302357815
 30
-19.55992
  0
VERTEX
  8
DEM_20px_m
 10
228964.72082397612
 20
2074499.3099265287
 30
-19.618808
  0
VERTEX
  8
DEM_20px_m
 10
228961.38250942685
 20
2074519.3174952425
 30
-19.576436
  0
VERTEX
  8
DEM_20px_m
 10
228958.04419487758
 20
2074539.3250639562
 30
-19.687639
  0
VERTEX
  8
DEM_20px_m
 10
228954.70588032829
 20
2074559.33263267
 30
-19.957314
  0
VERTEX
  8
DEM_20px_m
 10
228951.36756577902
 20
2074579.3402013837
 30
-20.0
  0
VERTEX
  8
DEM_20px_m
 10
228948.02925122972
 20
2074599.3477700974
 30
-20.0
  0
VERTEX
  8
DEM_20px_m
 10
228944.69093668045
 20
2074619.3553388112
 30
-20.022624
  0
VERTEX
  8
DEM_20px_m
 10
228941.35262213118
 20
2074639.362907525
 30
-20.0
  0
VERTEX
  8
DEM_20px_m
 10
228938.01430758188
 20
2074659.3704762387
 30
-20.00243
  0
VERTEX
  8
DEM_20px_m
 10
228934.6759930326
 20
2074679.3780449524
 30
-20.047154
  0
VERTEX
  8
DEM_20px_m
 10
228931.3376784833
 20
2074699.3856136661
 30
-20.088085
  0
VERTEX
  8
DEM_20px_m
 10
228927.99936393404
 20
2074719.39318238
 30
-20.11732
  0
VERTEX
  8
DEM_20px_m
 10
228924.66104938477
 20
2074739.4007510936
 30
-20.188194
  0
VERTEX
  8
DEM_20px_m
 10
228921.32273483547
 20
2074759.4083198074
 30
-20.20223
  0
VERTEX
  8
DEM_20px_m
 10
228917.9844202862
 20
2074779.4158885211
 30
-20.328148
  0
VERTEX
  8
DEM_20px_m
 10
228914.6461057369
 20
2074799.4234572349
 30
-20.458811
  0
VERTEX
  8
DEM_20px_m
 10
228911.30779118763
 20
2074819.4310259486
 30
-20.589718
  0
VERTEX
  8
DEM_20px_m
 10
228907.96947663836
 20
2074839.4385946624
 30
-20.720961
  0
VERTEX
  8
DEM_20px_m
 10
228904.63116208906
 20
2074859.446163376
 30
-20.86609
  0
VERTEX
  8
DEM_20px_m
 10
228901.2928475398
 20
2074879.4537320898
 30
-20.948573
  0
VERTEX
  8
DEM_20px_m
 10
228897.9545329905
 20
2074899.4613008036
 30
-21.08303
  0
VERTEX
  8
DEM_20px_m
 10
228894.61621844122
 20
2074919.4688695173
 30
-21.217486
  0
VERTEX
  8
DEM_20px_m
 10
228891.27790389195
 20
2074939.476438231
 30
-21.351943
  0
VERTEX
  8
DEM_20px_m
 10
228887.93958934266
 20
2074959.4840069448
 30
-21.48225
  0
VERTEX
  8
DEM_20px_m
 10
228884.6012747934
 20
2074979.4915756586
 30
-21.606873
  0
VERTEX
  8
DEM_20px_m
 10
228881.2629602441
 20
2074999.4991443723
 30
-21.683263
  0
VERTEX
  8
DEM_20px_m
 10
228877.92464569482
 20
2075019.506713086
 30
-21.808718
  0
VERTEX
  8
DEM_20px_m
 10
228874.58633114555
 20
2075039.5142817998
 30
-21.934174
  0
VERTEX
  8
DEM_20px_m
 10
228871.24801659625
 20
2075059.5218505135
 30
-22.028472
  0
VERTEX
  8
DEM_20px_m
 10
228867.90970204698
 20
2075079.5294192273
 30
-22.090675
  0
VERTEX
  8
DEM_20px_m
 10
228864.57138749768
 20
2075099.536987941
 30
-22.149066
  0
VERTEX
  8
DEM_20px_m
 10
228861.2330729484
 20
2075119.5445566548
 30
-22.160637
  0
VERTEX
  8
DEM_20px_m
 10
228857.89475839914
 20
2075139.5521253685
 30
-22.219028
  0
VERTEX
  8
DEM_20px_m
 10
228854.55644384984
 20
2075159.5596940822
 30
-22.277418
  0
VERTEX
  8
DEM_20px_m
 10
228851.21812930057
 20
2075179.567262796
 30
-22.335809
  0
VERTEX
  8
DEM_20px_m
 10
228847.87981475127
 20
2075199.5748315097
 30
-22.394199
  0
VERTEX
  8
DEM_20px_m
 10
228844.541500202
 20
2075219.5824002235
 30
-22.45259
  0
VERTEX
  8
DEM_20px_m
 10
228841.20318565273
 20
2075239.5899689372
 30
-22.464161
  0
VERTEX
  8
DEM_20px_m
 10
228837.86487110343
 20
2075259.597537651
 30
-22.522551
  0
VERTEX
  8
DEM_20px_m
 10
228834.52655655416
 20
2075279.6051063647
 30
-22.580942
  0
VERTEX
  8
DEM_20px_m
 10
228831.18824200486
 20
2075299.6126750784
 30
-22.639332
  0
VERTEX
  8
DEM_20px_m
 10
228827.8499274556
 20
2075319.6202437922
 30
-22.697723
  0
VERTEX
  8
DEM_20px_m
 10
228824.51161290632
 20
2075339.627812506
 30
-22.756113
  0
VERTEX
  8
DEM_20px_m
 10
228821.17329835703
 20
2075359.6353812197
 30
-22.772705
  0
VERTEX
  8
DEM_20px_m
 10
228817.83498380776
 20
2075379.6429499334
 30
-22.843824
  0
VERTEX
  8
DEM_20px_m
 10
228814.49666925846
 20
2075399.6505186472
 30
-22.914942
  0
VERTEX
  8
DEM_20px_m
 10
228811.1583547092
 20
2075419.658087361
 30
-22.986061
  0
VERTEX
  8
DEM_20px_m
 10
228814.52956617542
 20
2075399.6007208503
 30
-22.914942
  0
VERTEX
  8
DEM_20px_m
 10
228817.90077764165
 20
2075379.5433543397
 30
-22.843824
  0
VERTEX
  8
DEM_20px_m
 10
228821.2719891079
 20
2075359.4859878288
 30
-22.772705
  0
VERTEX
  8
DEM_20px_m
 10
228824.64320057412
 20
2075339.4286213182
 30
-22.756113
  0
VERTEX
  8
DEM_20px_m
 10
228828.01441204036
 20
2075319.3712548076
 30
-22.697723
  0
VERTEX
  8
DEM_20px_m
 10
228831.38562350662
 20
2075299.313888297
 30
-22.639332
  0
VERTEX
  8
DEM_20px_m
 10
228834.75683497285
 20
2075279.256521786
 30
-22.580942
  0
VERTEX
  8
DEM_20px_m
 10
228838.1280464391
 20
2075259.1991552755
 30
-22.522551
  0
VERTEX
  8
DEM_20px_m
 10
228841.49925790532
 20
2075239.1417887649
 30
-22.464161
  0
VERTEX
  8
DEM_20px_m
 10
228844.87046937156
 20
2075219.0844222542
 30
-22.45259
  0
VERTEX
  8
DEM_20px_m
 10
228848.2416808378
 20
2075199.0270557434
 30
-22.394199
  0
VERTEX
  8
DEM_20px_m
 10
228851.61289230402
 20
2075178.9696892328
 30
-22.335809
  0
VERTEX
  8
DEM_20px_m
 10
228854.98410377026
 20
2075158.9123227221
 30
-22.277418
  0
VERTEX
  8
DEM_20px_m
 10
228858.3553152365
 20
2075138.8549562115
 30
-22.219028
  0
VERTEX
  8
DEM_20px_m
 10
228861.72652670273
 20
2075118.7975897007
 30
-22.160637
  0
VERTEX
  8
DEM_20px_m
 10
228865.09773816896
 20
2075098.74022319
 30
-22.149066
  0
VERTEX
  8
DEM_20px_m
 10
228868.46894963522
 20
2075078.6828566794
 30
-22.090675
  0
VERTEX
  8
DEM_20px_m
 10
228871.84016110146
 20
2075058.6254901688
 30
-22.028472
  0
VERTEX
  8
DEM_20px_m
 10
228875.2113725677
 20
2075038.568123658
 30
-21.934174
  0
VERTEX
  8
DEM_20px_m
 10
228878.58258403392
 20
2075018.5107571473
 30
-21.808718
  0
VERTEX
  8
DEM_20px_m
 10
228881.95379550016
 20
2074998.4533906367
 30
-21.683263
  0
VERTEX
  8
DEM_20px_m
 10
228885.3250069664
 20
2074978.396024126
 30
-21.606873
  0
VERTEX
  8
DEM_20px_m
 10
228888.69621843263
 20
2074958.3386576152
 30
-21.48225
  0
VERTEX
  8
DEM_20px_m
 10
228892.06742989886
 20
2074938.2812911046
 30
-21.351943
  0
VERTEX
  8
DEM_20px_m
 10
228895.4386413651
 20
2074918.223924594
 30
-21.217486
  0
VERTEX
  8
DEM_20px_m
 10
228898.80985283133
 20
2074898.1665580834
 30
-21.08303
  0
VERTEX
  8
DEM_20px_m
 10
228902.18106429756
 20
2074878.1091915725
 30
-20.948573
  0
VERTEX
  8
DEM_20px_m
 10
228905.55227576382
 20
2074858.051825062
 30
-20.86609
  0
VERTEX
  8
DEM_20px_m
 10
228908.92348723006
 20
2074837.9944585513
 30
-20.720961
  0
VERTEX
  8
DEM_20px_m
 10
228912.2946986963
 20
2074817.9370920407
 30
-20.589718
  0
VERTEX
  8
DEM_20px_m
 10
228915.66591016253
 20
2074797.8797255298
 30
-20.458811
  0
VERTEX
  8
DEM_20px_m
 10
228919.03712162876
 20
2074777.8223590192
 30
-20.328148
  0
VERTEX
  8
DEM_20px_m
 10
228922.408333095
 20
2074757.7649925086
 30
-20.20223
  0
VERTEX
  8
DEM_20px_m
 10
228925.77954456123
 20
2074737.707625998
 30
-20.188194
  0
VERTEX
  8
DEM_20px_m
 10
228929.15075602746
 20
2074717.650259487
 30
-20.11732
  0
VERTEX
  8
DEM_20px_m
 10
228932.5219674937
 20
2074697.5928929765
 30
-20.088085
  0
VERTEX
  8
DEM_20px_m
 10
228935.89317895993
 20
2074677.5355264659
 30
-20.047154
  0
VERTEX
  8
DEM_20px_m
 10
228939.26439042616
 20
2074657.4781599552
 30
-20.00243
  0
VERTEX
  8
DEM_20px_m
 10
228942.63560189243
 20
2074637.4207934444
 30
-20.0
  0
VERTEX
  8
DEM_20px_m
 10
228946.00681335866
 20
2074617.3634269338
 30
-20.022624
  0
VERTEX
  8
DEM_20px_m
 10
228949.3780248249
 20
2074597.3060604231
 30
-20.0
  0
VERTEX
  8
DEM_20px_m
 10
228952.74923629113
 20
2074577.2486939125
 30
-20.0
  0
VERTEX
  8
DEM_20px_m
 10
228956.12044775736
 20
2074557.1913274017
 30
-19.957314
  0
VERTEX
  8
DEM_20px_m
 10
228959.4916592236
 20
2074537.133960891
 30
-19.687639
  0
VERTEX
  8
DEM_20px_m
 10
228962.86287068983
 20
2074517.0765943804
 30
-19.576436
  0
VERTEX
  8
DEM_20px_m
 10
228966.23408215606
 20
2074497.0192278698
 30
-19.618808
  0
VERTEX
  8
DEM_20px_m
 10
228969.6052936223
 20
2074476.961861359
 30
-19.55992
  0
VERTEX
  8
DEM_20px_m
 10
228972.97650508853
 20
2074456.9044948483
 30
-19.507055
  0
VERTEX
  8
DEM_20px_m
 10
228976.34771655477
 20
2074436.8471283377
 30
-19.474723
  0
VERTEX
  8
DEM_20px_m
 10
228979.71892802103
 20
2074416.789761827
 30
-19.412599
  0
VERTEX
  8
DEM_20px_m
 10
228983.09013948726
 20
2074396.7323953162
 30
-19.323381
  0
VERTEX
  8
DEM_20px_m
 10
228986.4613509535
 20
2074376.6750288056
 30
-19.305026
  0
VERTEX
  8
DEM_20px_m
 10
228989.83256241973
 20
2074356.617662295
 30
-19.209799
  0
VERTEX
  8
DEM_20px_m
 10
228993.20377388597
 20
2074336.5602957844
 30
-19.114573
  0
VERTEX
  8
DEM_20px_m
 10
228996.5749853522
 20
2074316.5029292735
 30
-19.019346
  0
VERTEX
  8
DEM_20px_m
 10
228999.94619681843
 20
2074296.445562763
 30
-18.924119
  0
VERTEX
  8
DEM_20px_m
 10
229003.31740828467
 20
2074276.3881962523
 30
-18.828892
  0
VERTEX
  8
DEM_20px_m
 10
229006.6886197509
 20
2074256.3308297417
 30
-18.801142
  0
VERTEX
  8
DEM_20px_m
 10
229010.05983121714
 20
2074236.2734632308
 30
-18.705915
  0
VERTEX
  8
DEM_20px_m
 10
229013.43104268337
 20
2074216.2160967202
 30
-18.610688
  0
VERTEX
  8
DEM_20px_m
 10
229016.80225414963
 20
2074196.1587302096
 30
-18.502619
  0
VERTEX
  8
DEM_20px_m
 10
229020.17346561587
 20
2074176.101363699
 30
-18.391875
  0
VERTEX
  8
DEM_20px_m
 10
229023.5446770821
 20
2074156.043997188
 30
-18.28113
  0
VERTEX
  8
DEM_20px_m
 10
229026.91588854833
 20
2074135.9866306775
 30
-18.161584
  0
VERTEX
  8
DEM_20px_m
 10
229030.28710001457
 20
2074115.9292641669
 30
-18.050518
  0
VERTEX
  8
DEM_20px_m
 10
229033.6583114808
 20
2074095.8718976562
 30
-17.939057
  0
VERTEX
  8
DEM_20px_m
 10
229037.02952294704
 20
2074075.8145311454
 30
-17.796688
  0
VERTEX
  8
DEM_20px_m
 10
229040.40073441327
 20
2074055.7571646348
 30
-17.65432
  0
VERTEX
  8
DEM_20px_m
 10
229043.7719458795
 20
2074035.6997981241
 30
-17.511951
  0
VERTEX
  8
DEM_20px_m
 10
229047.14315734574
 20
2074015.6424316135
 30
-17.395579
  0
VERTEX
  8
DEM_20px_m
 10
229050.51436881197
 20
2073995.5850651027
 30
-17.253211
  0
VERTEX
  8
DEM_20px_m
 10
229053.8855802782
 20
2073975.527698592
 30
-17.110842
  0
VERTEX
  8
DEM_20px_m
 10
229057.25679174447
 20
2073955.4703320814
 30
-16.968473
  0
VERTEX
  8
DEM_20px_m
 10
229060.6280032107
 20
2073935.4129655708
 30
-16.826105
  0
VERTEX
  8
DEM_20px_m
 10
229063.99921467694
 20
2073915.35559906
 30
-16.683736
  0
VERTEX
  8
DEM_20px_m
 10
229067.37042614317
 20
2073895.2982325493
 30
-16.55679
  0
VERTEX
  8
DEM_20px_m
 10
229070.7416376094
 20
2073875.2408660387
 30
-16.408333
  0
VERTEX
  8
DEM_20px_m
 10
229074.11284907564
 20
2073855.183499528
 30
-16.259875
  0
VERTEX
  8
DEM_20px_m
 10
229077.48406054187
 20
2073835.1261330172
 30
-16.115084
  0
VERTEX
  8
DEM_20px_m
 10
229080.8552720081
 20
2073815.0687665066
 30
-15.958048
  0
VERTEX
  8
DEM_20px_m
 10
229084.22648347434
 20
2073795.011399996
 30
-15.787178
  0
VERTEX
  8
DEM_20px_m
 10
229087.59769494057
 20
2073774.9540334854
 30
-15.63445
  0
VERTEX
  8
DEM_20px_m
 10
229090.9689064068
 20
2073754.8966669745
 30
-15.469688
  0
VERTEX
  8
DEM_20px_m
 10
229094.34011787307
 20
2073734.839300464
 30
-15.304925
  0
VERTEX
  8
DEM_20px_m
 10
229097.7113293393
 20
2073714.7819339533
 30
-15.148379
  0
VERTEX
  8
DEM_20px_m
 10
229101.08254080554
 20
2073694.7245674427
 30
-14.996968
  0
VERTEX
  8
DEM_20px_m
 10
229104.45375227177
 20
2073674.667200932
 30
-14.873205
  0
VERTEX
  8
DEM_20px_m
 10
229107.824963738
 20
2073654.6098344212
 30
-14.725245
  0
VERTEX
  8
DEM_20px_m
 10
229111.19617520424
 20
2073634.5524679106
 30
-14.576845
  0
VERTEX
  8
DEM_20px_m
 10
229114.56738667047
 20
2073614.4951014
 30
-14.428089
  0
VERTEX
  8
DEM_20px_m
 10
229117.9385981367
 20
2073594.4377348893
 30
-14.279332
  0
VERTEX
  8
DEM_20px_m
 10
229121.30980960294
 20
2073574.3803683785
 30
-14.130575
  0
VERTEX
  8
DEM_20px_m
 10
229124.68102106918
 20
2073554.3230018679
 30
-14.022426
  0
VERTEX
  8
DEM_20px_m
 10
229128.0522325354
 20
2073534.2656353572
 30
-13.889101
  0
VERTEX
  8
DEM_20px_m
 10
229131.42344400167
 20
2073514.2082688466
 30
-13.758144
  0
VERTEX
  8
DEM_20px_m
 10
229134.7946554679
 20
2073494.1509023358
 30
-13.627186
  0
VERTEX
  8
DEM_20px_m
 10
229138.16586693414
 20
2073474.0935358251
 30
-13.495753
  0
VERTEX
  8
DEM_20px_m
 10
229141.53707840038
 20
2073454.0361693145
 30
-13.364253
  0
VERTEX
  8
DEM_20px_m
 10
229144.9082898666
 20
2073433.978802804
 30
-13.258143
  0
VERTEX
  8
DEM_20px_m
 10
229148.27950133284
 20
2073413.921436293
 30
-13.125227
  0
VERTEX
  8
DEM_20px_m
 10
229151.65071279908
 20
2073393.8640697824
 30
-12.995785
  0
VERTEX
  8
DEM_20px_m
 10
229155.0219242653
 20
2073373.8067032718
 30
-12.866465
  0
VERTEX
  8
DEM_20px_m
 10
229158.39313573155
 20
2073353.7493367612
 30
-12.735557
  0
VERTEX
  8
DEM_20px_m
 10
229161.76434719778
 20
2073333.6919702503
 30
-12.603066
  0
VERTEX
  8
DEM_20px_m
 10
229165.135558664
 20
2073313.6346037397
 30
-12.512286
  0
VERTEX
  8
DEM_20px_m
 10
229168.50677013028
 20
2073293.577237229
 30
-12.387803
  0
VERTEX
  8
DEM_20px_m
 10
229171.8779815965
 20
2073273.5198707185
 30
-12.263319
  0
VERTEX
  8
DEM_20px_m
 10
229175.24919306274
 20
2073253.4625042076
 30
-12.138836
  0
VERTEX
  8
DEM_20px_m
 10
229178.62040452898
 20
2073233.405137697
 30
-12.014351
  0
VERTEX
  8
DEM_20px_m
 10
229181.9916159952
 20
2073213.3477711864
 30
-11.85899
  0
VERTEX
  8
DEM_20px_m
 10
229185.36282746145
 20
2073193.2904046758
 30
-11.747049
  0
VERTEX
  8
DEM_20px_m
 10
229188.73403892768
 20
2073173.233038165
 30
-11.585714
  0
VERTEX
  8
DEM_20px_m
 10
229192.1052503939
 20
2073153.1756716543
 30
-11.424379
  0
VERTEX
  8
DEM_20px_m
 10
229195.47646186015
 20
2073133.1183051437
 30
-11.262575
  0
VERTEX
  8
DEM_20px_m
 10
229198.84767332638
 20
2073113.060938633
 30
-11.097784
  0
VERTEX
  8
DEM_20px_m
 10
229202.21888479262
 20
2073093.0035721222
 30
-10.932665
  0
VERTEX
  8
DEM_20px_m
 10
229205.59009625888
 20
2073072.9462056116
 30
-10.809397
  0
VERTEX
  8
DEM_20px_m
 10
229208.9613077251
 20
2073052.888839101
 30
-10.645535
  0
VERTEX
  8
DEM_20px_m
 10
229212.33251919135
 20
2073032.8314725903
 30
-10.480404
  0
VERTEX
  8
DEM_20px_m
 10
229215.70373065758
 20
2073012.7741060795
 30
-10.315272
  0
VERTEX
  8
DEM_20px_m
 10
229219.0749421238
 20
2072992.7167395689
 30
-10.150141
  0
VERTEX
  8
DEM_20px_m
 10
229222.44615359005
 20
2072972.6593730582
 30
-10.0
  0
VERTEX
  8
DEM_20px_m
 10
229225.81736505628
 20
2072952.6020065476
 30
-10.0
  0
VERTEX
  8
DEM_20px_m
 10
229229.18857652252
 20
2072932.5446400368
 30
-10.0
  0
VERTEX
  8
DEM_20px_m
 10
229232.55978798875
 20
2072912.4872735261
 30
-10.0
  0
VERTEX
  8
DEM_20px_m
 10
229235.93099945498
 20
2072892.4299070155
 30
-10.0
  0
VERTEX
  8
DEM_20px_m
 10
229239.30221092122
 20
2072872.372540505
 30
-10.0
  0
VERTEX
  8
DEM_20px_m
 10
229242.67342238748
 20
2072852.315173994
 30
-10.0
  0
VERTEX
  8
DEM_20px_m
 10
229246.04463385371
 20
2072832.2578074834
 30
-10.0
  0
VERTEX
  8
DEM_20px_m
 10
229249.41584531995
 20
2072812.2004409728
 30
-10.0
  0
VERTEX
  8
DEM_20px_m
 10
229252.78705678618
 20
2072792.1430744622
 30
-10.0
  0
VERTEX
  8
DEM_20px_m
 10
229256.15826825242
 20
2072772.0857079513
 30
-10.0
  0
VERTEX
  8
DEM_20px_m
 10
229259.52947971865
 20
2072752.0283414407
 30
-10.0
  0
VERTEX
  8
DEM_20px_m
 10
229262.90069118488
 20
2072731.97097493
 30
-10.0
  0
VERTEX
  8
DEM_20px_m
 10
229266.27190265112
 20
2072711.9136084195
 30
-10.0
  0
VERTEX
  8
DEM_20px_m
 10
229269.64311411735
 20
2072691.8562419086
 30
-10.0
  0
VERTEX
  8
DEM_20px_m
 10
229273.0143255836
 20
2072671.798875398
 30
-10.0
  0
VERTEX
  8
DEM_20px_m
 10
229276.38553704982
 20
2072651.7415088874
 30
-10.0
  0
VERTEX
  8
DEM_20px_m
 10
229279.75674851608
 20
2072631.6841423768
 30
-10.0
  0
VERTEX
  8
DEM_20px_m
 10
229283.12795998232
 20
2072611.626775866
 30
-10.0
  0
VERTEX
  8
DEM_20px_m
 10
229286.49917144855
 20
2072591.5694093553
 30
-10.0
  0
VERTEX
  8
DEM_20px_m
 10
229289.87038291479
 20
2072571.5120428447
 30
-10.0
  0
VERTEX
  8
DEM_20px_m
 10
229293.24159438102
 20
2072551.454676334
 30
-10.0
  0
VERTEX
  8
DEM_20px_m
 10
229296.61280584725
 20
2072531.3973098232
 30
-10.0
  0
VERTEX
  8
DEM_20px_m
 10
229299.9840173135
 20
2072511.3399433126
 30
-10.0
  0
VERTEX
  8
DEM_20px_m
 10
229303.35522877972
 20
2072491.282576802
 30
-10.0
  0
VERTEX
  8
DEM_20px_m
 10
229306.72644024596
 20
2072471.2252102913
 30
-10.0
  0
VERTEX
  8
DEM_20px_m
 10
229310.0976517122
 20
2072451.1678437805
 30
-10.0
  0
VERTEX
  8
DEM_20px_m
 10
229313.46886317842
 20
2072431.1104772699
 30
-9.7121216
  0
VERTEX
  8
DEM_20px_m
 10
229316.8400746447
 20
2072411.0531107592
 30
-9.422582
  0
VERTEX
  8
DEM_20px_m
 10
229320.21128611092
 20
2072390.9957442486
 30
-9.1330425
  0
VERTEX
  8
DEM_20px_m
 10
229323.58249757715
 20
2072370.9383777378
 30
-8.8435029
  0
VERTEX
  8
DEM_20px_m
 10
229326.9537090434
 20
2072350.8810112271
 30
-8.2654736
  0
VERTEX
  8
DEM_20px_m
 10
229330.32492050962
 20
2072330.8236447165
 30
-7.9759341
  0
VERTEX
  8
DEM_20px_m
 10
229333.69613197586
 20
2072310.766278206
 30
-7.6863945
  0
VERTEX
  8
DEM_20px_m
 10
229337.0673434421
 20
2072290.708911695
 30
-7.396855
  0
VERTEX
  8
DEM_20px_m
 10
229340.43855490832
 20
2072270.6515451844
 30
-7.1073154
  0
VERTEX
  8
DEM_20px_m
 10
229343.80976637456
 20
2072250.5941786738
 30
-6.8177759
  0
VERTEX
  8
DEM_20px_m
 10
229347.1809778408
 20
2072230.5368121632
 30
-6.2397466
  0
VERTEX
  8
DEM_20px_m
 10
229350.55218930703
 20
2072210.4794456523
 30
-5.950207
  0
VERTEX
  8
DEM_20px_m
 10
229353.9234007733
 20
2072190.4220791417
 30
-5.6606675
  0
VERTEX
  8
DEM_20px_m
 10
229357.29461223952
 20
2072170.364712631
 30
-5.1967182
  0
VERTEX
  8
DEM_20px_m
 10
229360.66582370576
 20
2072150.3073461205
 30
-5.0
  0
VERTEX
  8
DEM_20px_m
 10
229364.037035172
 20
2072130.2499796096
 30
-5.0
  0
VERTEX
  8
DEM_20px_m
 10
229367.40824663822
 20
2072110.192613099
 30
-5.0
  0
VERTEX
  8
DEM_20px_m
 10
229370.77945810446
 20
2072090.1352465884
 30
-5.0
  0
VERTEX
  8
DEM_20px_m
 10
229374.1506695707
 20
2072070.0778800778
 30
-5.0
  0
VERTEX
  8
DEM_20px_m
 10
229377.52188103693
 20
2072050.020513567
 30
-5.0
  0
VERTEX
  8
DEM_20px_m
 10
229380.89309250316
 20
2072029.9631470563
 30
-5.0
  0
VERTEX
  8
DEM_20px_m
 10
229384.2643039694
 20
2072009.9057805457
 30
-5.0
  0
VERTEX
  8
DEM_20px_m
 10
229387.63551543563
 20
2071989.848414035
 30
-5.0
  0
VERTEX
  8
DEM_20px_m
 10
229391.0067269019
 20
2071969.7910475244
 30
-5.0
  0
VERTEX
  8
DEM_20px_m
 10
229394.37793836812
 20
2071949.7336810136
 30
-4.6981568
  0
VERTEX
  8
DEM_20px_m
 10
229397.74914983436
 20
2071929.676314503
 30
-4.2925196
  0
VERTEX
  8
DEM_20px_m
 10
229401.1203613006
 20
2071909.6189479923
 30
-3.8583733
  0
VERTEX
  8
DEM_20px_m
 10
229404.49157276683
 20
2071889.5615814817
 30
-3.6031566
  0
VERTEX
  8
DEM_20px_m
 10
229407.86278423306
 20
2071869.5042149709
 30
-3.1254199
  0
VERTEX
  8
DEM_20px_m
 10
229411.2339956993
 20
2071849.4468484602
 30
-2.6476833
  0
VERTEX
  8
DEM_20px_m
 10
229414.60520716553
 20
2071829.3894819496
 30
-2.1661171
  0
VERTEX
  8
DEM_20px_m
 10
229417.97641863176
 20
2071809.332115439
 30
-1.6840522
  0
VERTEX
  8
DEM_20px_m
 10
229421.347630098
 20
2071789.2747489281
 30
-1.2019872
  0
VERTEX
  8
DEM_20px_m
 10
229424.71884156423
 20
2071769.2173824175
 30
-0.78137752
  0
VERTEX
  8
DEM_20px_m
 10
229428.0900530305
 20
2071749.160015907
 30
-0.29931256
  0
VERTEX
  8
DEM_20px_m
 10
229431.46126449673
 20
2071729.1026493963
 30
0.1827524
  0
VERTEX
  8
DEM_20px_m
 10
229434.83247596296
 20
2071709.0452828854
 30
0.66481736
  0
VERTEX
  8
DEM_20px_m
 10
229438.2036874292
 20
2071688.9879163748
 30
1.1468823
  0
VERTEX
  8
DEM_20px_m
 10
229441.57489889543
 20
2071668.9305498642
 30
1.6289473
  0
VERTEX
  8
DEM_20px_m
 10
229444.94611036166
 20
2071648.8731833536
 30
2.049557
  0
VERTEX
  8
DEM_20px_m
 10
229448.3173218279
 20
2071628.8158168427
 30
2.5316219
  0
VERTEX
  8
DEM_20px_m
 10
229451.68853329413
 20
2071608.758450332
 30
3.0136869
  0
VERTEX
  8
DEM_20px_m
 10
229455.05974476036
 20
2071588.7010838215
 30
3.4957518
  0
VERTEX
  8
DEM_20px_m
 10
229458.4309562266
 20
2071568.6437173109
 30
3.9778168
  0
VERTEX
  8
DEM_20px_m
 10
229461.80216769283
 20
2071548.5863508
 30
4.4598818
  0
VERTEX
  8
DEM_20px_m
 10
229465.17337915907
 20
2071528.5289842894
 30
4.8804914
  0
VERTEX
  8
DEM_20px_m
 10
229468.54459062533
 20
2071508.4716177788
 30
5.0
  0
VERTEX
  8
DEM_20px_m
 10
229471.91580209156
 20
2071488.4142512681
 30
5.0
  0
VERTEX
  8
DEM_20px_m
 10
229475.2870135578
 20
2071468.3568847573
 30
5.0
  0
VERTEX
  8
DEM_20px_m
 10
229478.65822502403
 20
2071448.2995182467
 30
5.0
  0
VERTEX
  8
DEM_20px_m
 10
229482.02943649027
 20
2071428.242151736
 30
5.0
  0
VERTEX
  8
DEM_20px_m
 10
229485.4006479565
 20
2071408.1847852254
 30
5.0
  0
VERTEX
  8
DEM_20px_m
 10
229488.77185942273
 20
2071388.1274187146
 30
5.0
  0
VERTEX
  8
DEM_20px_m
 10
229492.14307088897
 20
2071368.070052204
 30
5.0
  0
VERTEX
  8
DEM_20px_m
 10
229495.5142823552
 20
2071348.0126856933
 30
5.0
  0
VERTEX
  8
DEM_20px_m
 10
229498.88549382144
 20
2071327.9553191827
 30
5.0
  0
VERTEX
  8
DEM_20px_m
 10
229502.25670528767
 20
2071307.8979526719
 30
5.0
  0
VERTEX
  8
DEM_20px_m
 10
229505.62791675393
 20
2071287.8405861612
 30
5.0
  0
VERTEX
  8
DEM_20px_m
 10
229508.99912822017
 20
2071267.7832196506
 30
5.0
  0
VERTEX
  8
DEM_20px_m
 10
229512.3703396864
 20
2071247.72585314
 30
5.1037826
  0
VERTEX
  8
DEM_20px_m
 10
229515.74155115263
 20
2071227.6684866291
 30
5.7428929
  0
VERTEX
  8
DEM_20px_m
 10
229519.11276261887
 20
2071207.6111201185
 30
6.7113593
  0
VERTEX
  8
DEM_20px_m
 10
229522.4839740851
 20
2071187.553753608
 30
7.6250046
  0
VERTEX
  8
DEM_20px_m
 10
229525.85518555134
 20
2071167.4963870973
 30
8.5831179
  0
VERTEX
  8
DEM_20px_m
 10
229529.22639701757
 20
2071147.4390205864
 30
10.0
  0
VERTEX
  8
DEM_20px_m
 10
229532.5976084838
 20
2071127.3816540758
 30
10.0
  0
VERTEX
  8
DEM_20px_m
 10
229535.96881995004
 20
2071107.3242875652
 30
10.065741
  0
VERTEX
  8
DEM_20px_m
 10
229539.34003141627
 20
2071087.2669210546
 30
11.081999
  0
VERTEX
  8
DEM_20px_m
 10
229542.71124288253
 20
2071067.2095545437
 30
14.226303
  0
VERTEX
  8
DEM_20px_m
 10
229546.08245434877
 20
2071047.152188033
 30
16.257805
  0
VERTEX
  8
DEM_20px_m
 10
229549.453665815
 20
2071027.0948215225
 30
16.628234
  0
VERTEX
  8
DEM_20px_m
 10
229552.82487728124
 20
2071007.0374550119
 30
19.801923
  0
VERTEX
  8
DEM_20px_m
 10
229556.19608874747
 20
2070986.980088501
 30
21.05381
  0
VERTEX
  8
DEM_20px_m
 10
229559.5673002137
 20
2070966.9227219904
 30
25.0
  0
VERTEX
  8
DEM_20px_m
 10
229562.93851167994
 20
2070946.8653554798
 30
25.0
  0
VERTEX
  8
DEM_20px_m
 10
229566.30972314617
 20
2070926.8079889691
 30
30.0
  0
VERTEX
  8
DEM_20px_m
 10
229569.6809346124
 20
2070906.7506224583
 30
30.075692
  0
VERTEX
  8
DEM_20px_m
 10
229573.05214607864
 20
2070886.6932559477
 30
30.414388
  0
VERTEX
  8
DEM_20px_m
 10
229576.42335754487
 20
2070866.635889437
 30
30.169213
  0
VERTEX
  8
DEM_20px_m
 10
229579.79456901114
 20
2070846.5785229264
 30
30.0
  0
VERTEX
  8
DEM_20px_m
 10
229583.16578047737
 20
2070826.5211564156
 30
30.0
  0
VERTEX
  8
DEM_20px_m
 10
229586.5369919436
 20
2070806.463789905
 30
30.0
  0
VERTEX
  8
DEM_20px_m
 10
229589.90820340984
 20
2070786.4064233943
 30
30.0
  0
VERTEX
  8
DEM_20px_m
 10
229593.27941487607
 20
2070766.3490568837
 30
30.739188
  0
VERTEX
  8
DEM_20px_m
 10
229596.6506263423
 20
2070746.2916903729
 30
30.0
  0
VERTEX
  8
DEM_20px_m
 10
229600.02183780854
 20
2070726.2343238622
 30
31.078595
  0
VERTEX
  8
DEM_20px_m
 10
229603.39304927477
 20
2070706.1769573516
 30
32.76146
  0
VERTEX
  8
DEM_20px_m
 10
229606.764260741
 20
2070686.119590841
 30
35.0
  0
VERTEX
  8
DEM_20px_m
 10
229610.13547220724
 20
2070666.0622243301
 30
35.0
  0
VERTEX
  8
DEM_20px_m
 10
229613.50668367348
 20
2070646.0048578195
 30
34.185048
  0
VERTEX
  8
DEM_20px_m
 10
229616.87789513974
 20
2070625.947491309
 30
33.247405
  0
VERTEX
  8
DEM_20px_m
 10
229620.24910660597
 20
2070605.8901247983
 30
28.607072
  0
VERTEX
  8
DEM_20px_m
 10
229623.6203180722
 20
2070585.8327582874
 30
24.158224
  0
VERTEX
  8
DEM_20px_m
 10
229626.99152953844
 20
2070565.7753917768
 30
30.339555
  0
VERTEX
  8
DEM_20px_m
 10
229630.36274100468
 20
2070545.7180252662
 30
24.277952
  0
VERTEX
  8
DEM_20px_m
 10
229633.7339524709
 20
2070525.6606587556
 30
21.182966
  0
VERTEX
  8
DEM_20px_m
 10
229637.10516393714
 20
2070505.6032922447
 30
18.33949
  0
VERTEX
  8
DEM_20px_m
 10
229640.47637540338
 20
2070485.545925734
 30
18.584329
  0
VERTEX
  8
DEM_20px_m
 10
229643.8475868696
 20
2070465.4885592235
 30
20.0
  0
VERTEX
  8
DEM_20px_m
 10
229647.21879833585
 20
2070445.4311927129
 30
24.885585
  0
VERTEX
  8
DEM_20px_m
 10
229650.59000980208
 20
2070425.373826202
 30
25.0
  0
VERTEX
  8
DEM_20px_m
 10
229653.96122126834
 20
2070405.3164596914
 30
25.427239
  0
VERTEX
  8
DEM_20px_m
 10
229657.33243273458
 20
2070385.2590931808
 30
27.581453
  0
VERTEX
  8
DEM_20px_m
 10
229660.7036442008
 20
2070365.2017266701
 30
27.556696
  0
VERTEX
  8
DEM_20px_m
 10
229664.07485566704
 20
2070345.1443601593
 30
28.550204
  0
VERTEX
  8
DEM_20px_m
 10
229667.44606713328
 20
2070325.0869936487
 30
30.0
  0
VERTEX
  8
DEM_20px_m
 10
229670.8172785995
 20
2070305.029627138
 30
30.0
  0
VERTEX
  8
DEM_20px_m
 10
229677.9954184817
 20
2070285.0102082975
 30
30.0
  0
VERTEX
  8
DEM_20px_m
 10
229685.17355836392
 20
2070264.990789457
 30
30.0
  0
VERTEX
  8
DEM_20px_m
 10
229692.35169824612
 20
2070244.9713706162
 30
30.0
  0
VERTEX
  8
DEM_20px_m
 10
229699.52983812834
 20
2070224.9519517757
 30
32.61806
  0
VERTEX
  8
DEM_20px_m
 10
229706.70797801053
 20
2070204.9325329352
 30
35.0
  0
VERTEX
  8
DEM_20px_m
 10
229713.88611789275
 20
2070184.9131140946
 30
37.472004
  0
VERTEX
  8
DEM_20px_m
 10
229721.06425777494
 20
2070164.893695254
 30
42.631284
  0
VERTEX
  8
DEM_20px_m
 10
229728.24239765713
 20
2070144.8742764133
 30
43.252267
  0
VERTEX
  8
DEM_20px_m
 10
229735.42053753935
 20
2070124.8548575728
 30
46.18648
  0
VERTEX
  8
DEM_20px_m
 10
229742.59867742154
 20
2070104.8354387323
 30
48.712986
  0
VERTEX
  8
DEM_20px_m
 10
229749.77681730376
 20
2070084.8160198918
 30
44.443123
  0
VERTEX
  8
DEM_20px_m
 10
229756.95495718595
 20
2070064.796601051
 30
44.809008
  0
VERTEX
  8
DEM_20px_m
 10
229764.13309706817
 20
2070044.7771822105
 30
46.61525
  0
VERTEX
  8
DEM_20px_m
 10
229771.31123695037
 20
2070024.75776337
 30
44.345246
  0
VERTEX
  8
DEM_20px_m
 10
229778.4893768326
 20
2070004.7383445294
 30
45.0
  0
VERTEX
  8
DEM_20px_m
 10
229785.66751671478
 20
2069984.7189256889
 30
45.0
  0
VERTEX
  8
DEM_20px_m
 10
229792.84565659697
 20
2069964.6995068481
 30
46.26646
  0
VERTEX
  8
DEM_20px_m
 10
229800.0237964792
 20
2069944.6800880076
 30
46.52549
  0
VERTEX
  8
DEM_20px_m
 10
229807.20193636138
 20
2069924.660669167
 30
47.194636
  0
VERTEX
  8
DEM_20px_m
 10
229814.3800762436
 20
2069904.6412503265
 30
50.0
  0
VERTEX
  8
DEM_20px_m
 10
229821.5582161258
 20
2069884.621831486
 30
50.0
  0
VERTEX
  8
DEM_20px_m
 10
229828.736356008
 20
2069864.6024126452
 30
51.041508
  0
VERTEX
  8
DEM_20px_m
 10
229835.9144958902
 20
2069844.5829938047
 30
51.647459
  0
VERTEX
  8
DEM_20px_m
 10
229843.0926357724
 20
2069824.5635749642
 30
52.392968
  0
VERTEX
  8
DEM_20px_m
 10
229850.27077565462
 20
2069804.5441561237
 30
48.44292
  0
VERTEX
  8
DEM_20px_m
 10
229857.4489155368
 20
2069784.5247372831
 30
45.390059
  0
VERTEX
  8
DEM_20px_m
 10
229864.62705541903
 20
2069764.5053184424
 30
42.617748
  0
VERTEX
  8
DEM_20px_m
 10
229871.80519530122
 20
2069744.4858996018
 30
45.592829
  0
VERTEX
  8
DEM_20px_m
 10
229878.98333518344
 20
2069724.4664807613
 30
51.398948
  0
VERTEX
  8
DEM_20px_m
 10
229886.16147506563
 20
2069704.4470619208
 30
55.0
  0
VERTEX
  8
DEM_20px_m
 10
229893.33961494785
 20
2069684.42764308
 30
55.0
  0
VERTEX
  8
DEM_20px_m
 10
229900.51775483004
 20
2069664.4082242395
 30
55.0
  0
VERTEX
  8
DEM_20px_m
 10
229907.69589471223
 20
2069644.388805399
 30
51.957326
  0
VERTEX
  8
DEM_20px_m
 10
229914.87403459445
 20
2069624.3693865584
 30
51.946028
  0
VERTEX
  8
DEM_20px_m
 10
229922.05217447664
 20
2069604.349967718
 30
52.393322
  0
VERTEX
  8
DEM_20px_m
 10
229929.23031435887
 20
2069584.3305488771
 30
43.75459
  0
VERTEX
  8
DEM_20px_m
 10
229936.40845424106
 20
2069564.3111300366
 30
41.036191
  0
VERTEX
  8
DEM_20px_m
 10
229943.58659412328
 20
2069544.291711196
 30
40.06071
  0
VERTEX
  8
DEM_20px_m
 10
229950.76473400547
 20
2069524.2722923555
 30
35.485447
  0
VERTEX
  8
DEM_20px_m
 10
229957.94287388766
 20
2069504.252873515
 30
35.613574
  0
VERTEX
  8
DEM_20px_m
 10
229965.12101376988
 20
2069484.2334546742
 30
35.0
  0
VERTEX
  8
DEM_20px_m
 10
229972.29915365207
 20
2069464.2140358337
 30
36.550283
  0
VERTEX
  8
DEM_20px_m
 10
229979.4772935343
 20
2069444.1946169932
 30
39.285068
  0
VERTEX
  8
DEM_20px_m
 10
229986.65543341648
 20
2069424.1751981527
 30
40.0
  0
VERTEX
  8
DEM_20px_m
 10
229993.8335732987
 20
2069404.155779312
 30
40.0
  0
VERTEX
  8
DEM_20px_m
 10
230001.0117131809
 20
2069384.1363604714
 30
39.37658
  0
VERTEX
  8
DEM_20px_m
 10
230008.18985306312
 20
2069364.1169416308
 30
35.456689
  0
VERTEX
  8
DEM_20px_m
 10
230015.3679929453
 20
2069344.0975227903
 30
35.341208
  0
VERTEX
  8
DEM_20px_m
 10
230022.5461328275
 20
2069324.0781039498
 30
36.689262
  0
VERTEX
  8
DEM_20px_m
 10
230029.72427270972
 20
2069304.058685109
 30
35.0
  0
VERTEX
  8
DEM_20px_m
 10
230036.9024125919
 20
2069284.0392662685
 30
32.975455
  0
VERTEX
  8
DEM_20px_m
 10
230044.08055247413
 20
2069264.019847428
 30
33.719835
  0
VERTEX
  8
DEM_20px_m
 10
230051.25869235632
 20
2069244.0004285874
 30
33.631214
  0
VERTEX
  8
DEM_20px_m
 10
230058.43683223854
 20
2069223.981009747
 30
35.518763
  0
VERTEX
  8
DEM_20px_m
 10
230065.61497212073
 20
2069203.9615909061
 30
39.060916
  0
VERTEX
  8
DEM_20px_m
 10
230072.79311200292
 20
2069183.9421720656
 30
40.0
  0
VERTEX
  8
DEM_20px_m
 10
230079.97125188514
 20
2069163.922753225
 30
40.0
  0
VERTEX
  8
DEM_20px_m
 10
230087.14939176734
 20
2069143.9033343846
 30
37.072701
  0
VERTEX
  8
DEM_20px_m
 10
230094.32753164956
 20
2069123.883915544
 30
39.462229
  0
VERTEX
  8
DEM_20px_m
 10
230101.50567153175
 20
2069103.8644967033
 30
40.0
  0
VERTEX
  8
DEM_20px_m
 10
230108.68381141397
 20
2069083.8450778627
 30
37.875917
  0
VERTEX
  8
DEM_20px_m
 10
230115.86195129616
 20
2069063.8256590222
 30
39.406973
  0
VERTEX
  8
DEM_20px_m
 10
230123.04009117838
 20
2069043.8062401817
 30
40.0
  0
VERTEX
  8
DEM_20px_m
 10
230130.21823106057
 20
2069023.786821341
 30
40.94505
  0
VERTEX
  8
DEM_20px_m
 10
230137.39637094276
 20
2069003.7674025004
 30
43.115758
  0
VERTEX
  8
DEM_20px_m
 10
230144.57451082498
 20
2068983.7479836599
 30
43.73217
  0
VERTEX
  8
DEM_20px_m
 10
230151.75265070717
 20
2068963.7285648193
 30
45.0
  0
VERTEX
  8
DEM_20px_m
 10
230158.9307905894
 20
2068943.7091459788
 30
45.0
  0
VERTEX
  8
DEM_20px_m
 10
230166.1089304716
 20
2068923.689727138
 30
45.0
  0
VERTEX
  8
DEM_20px_m
 10
230173.2870703538
 20
2068903.6703082975
 30
40.513981
  0
VERTEX
  8
DEM_20px_m
 10
230180.465210236
 20
2068883.650889457
 30
35.0
  0
SEQEND
  0
ENDSEC
  0
EOF
