  0
SECTION
  2
HEADER
  9
$ACADVER
  1
AC1009
  9
$INSBASE
 10
0.0
 20
0.0
 30
0.0
  9
$EXTMIN
 10
0.0
 20
0.0
 30
0.0
  9
$EXTMAX
 10
100.0
 20
100.0
 30
0.0
  9
$UNITMODE
 70
0
  9
$AUNITS
 70
0
  9
$ANGBASE
 50
0.0
  9
$ANGDIR
 70
0
  0
ENDSEC
  0
SECTION
  2
TABLES
  0
TABLE
  2
LTYPE
 70
19
  0
LTYPE
  2
CONTINUOUS
 70
0
  3
Solid
 72
65
 73
0
 40
0.0
  0
LTYPE
  2
CENTER
 70
0
  3
Center ____ _ ____ _ ____ _ ____ _ ____ _ ____
 72
65
 73
4
 40
2.0
 49
1.25
 49
-0.25
 49
0.25
 49
-0.25
  0
LTYPE
  2
CENTERX2
 70
0
  3
Center (2x) ________  __  ________  __  ________
 72
65
 73
4
 40
3.5
 49
2.5
 49
-0.25
 49
0.5
 49
-0.25
  0
LTYPE
  2
CENTER2
 70
0
  3
Center (.5x) ____ _ ____ _ ____ _ ____ _ ____
 72
65
 73
4
 40
1.0
 49
0.625
 49
-0.125
 49
0.125
 49
-0.125
  0
LTYPE
  2
DASHED
 70
0
  3
Dashed __ __ __ __ __ __ __ __ __ __ __ __ __ _
 72
65
 73
2
 40
0.6
 49
0.5
 49
-0.1
  0
LTYPE
  2
DASHEDX2
 70
0
  3
Dashed (2x) ____  ____  ____  ____  ____  ____
 72
65
 73
2
 40
1.2
 49
1.0
 49
-0.2
  0
LTYPE
  2
DASHED2
 70
0
  3
Dashed (.5x) _ _ _ _ _ _ _ _ _ _ _ _ _ _
 72
65
 73
2
 40
0.3
 49
0.25
 49
-0.05
  0
LTYPE
  2
PHANTOM
 70
0
  3
Phantom ______  __  __  ______  __  __  ______
 72
65
 73
6
 40
2.5
 49
1.25
 49
-0.25
 49
0.25
 49
-0.25
 49
0.25
 49
-0.25
  0
LTYPE
  2
PHANTOMX2
 70
0
  3
Phantom (2x)____________    ____    ____    ____________
 72
65
 73
6
 40
4.25
 49
2.5
 49
-0.25
 49
0.5
 49
-0.25
 49
0.5
 49
-0.25
  0
LTYPE
  2
PHANTOM2
 70
0
  3
Phantom (.5x) ___ _ _ ___ _ _ ___ _ _ ___ _ _ ___
 72
65
 73
6
 40
1.25
 49
0.625
 49
-0.125
 49
0.125
 49
-0.125
 49
0.125
 49
-0.125
  0
LTYPE
  2
DASHDOT
 70
0
  3
Dash dot __ . __ . __ . __ . __ . __ . __ . __
 72
65
 73
4
 40
1.4
 49
1.0
 49
-0.2
 49
0.0
 49
-0.2
  0
LTYPE
  2
DASHDOTX2
 70
0
  3
Dash dot (2x) ____  .  ____  .  ____  .  ____
 72
65
 73
4
 40
2.4
 49
2.0
 49
-0.2
 49
0.0
 49
-0.2
  0
LTYPE
  2
DASHDOT2
 70
0
  3
Dash dot (.5x) _ . _ . _ . _ . _ . _ . _ . _
 72
65
 73
4
 40
0.7
 49
0.5
 49
-0.1
 49
0.0
 49
-0.1
  0
LTYPE
  2
DOT
 70
0
  3
Dot .  .  .  .  .  .  .  .  .  .  .  .  .  .  .  .
 72
65
 73
2
 40
0.2
 49
0.0
 49
-0.2
  0
LTYPE
  2
DOTX2
 70
0
  3
Dot (2x) .    .    .    .    .    .    .    . 
 72
65
 73
2
 40
0.4
 49
0.0
 49
-0.4
  0
LTYPE
  2
DOT2
 70
0
  3
Dot (.5) . . . . . . . . . . . . . . . . . . . 
 72
65
 73
2
 40
0.1
 49
0.0
 49
-0.1
  0
LTYPE
  2
DIVIDE
 70
0
  3
Divide __ . . __ . . __ . . __ . . __ . . __
 72
65
 73
6
 40
1.6
 49
1.0
 49
-0.2
 49
0.0
 49
-0.2
 49
0.0
 49
-0.2
  0
LTYPE
  2
DIVIDEX2
 70
0
  3
Divide (2x) ____  . .  ____  . .  ____  . .  ____
 72
65
 73
6
 40
2.6
 49
2.0
 49
-0.2
 49
0.0
 49
-0.2
 49
0.0
 49
-0.2
  0
LTYPE
  2
DIVIDE2
 70
0
  3
Divide(.5x) _ . _ . _ . _ . _ . _ . _ . _
 72
65
 73
6
 40
0.8
 49
0.5
 49
-0.1
 49
0.0
 49
-0.1
 49
0.0
 49
-0.1
  0
ENDTAB
  0
TABLE
  2
LAYER
 70
6
  0
LAYER
  2
DIMENSIONS
 70
0
 62
1
  6
CONTINUOUS
  0
LAYER
  2
TABLEBACKGROUND
 70
0
 62
1
  6
CONTINUOUS
  0
LAYER
  2
TABLECONTENT
 70
0
 62
1
  6
CONTINUOUS
  0
LAYER
  2
TABLEGRID
 70
0
 62
1
  6
CONTINUOUS
  0
LAYER
  2
VIEWPORTS
 70
0
 62
7
  6
CONTINUOUS
  0
LAYER
  2
DEM_20px_m
 70
0
 62
1
  6
CONTINUOUS
  0
ENDTAB
  0
TABLE
  2
STYLE
 70
12
  0
STYLE
  2
STANDARD
 70
0
 40
0.0
 41
1.0
 42
1.0
 50
0.0
 71
0
  3
arial.ttf
  4

  0
STYLE
  2
ARIAL
 70
0
 40
0.0
 41
1.0
 42
1.0
 50
0.0
 71
0
  3
arial.ttf
  4

  0
STYLE
  2
ARIAL_BOLD
 70
0
 40
0.0
 41
1.0
 42
1.0
 50
0.0
 71
0
  3
arialbd.ttf
  4

  0
STYLE
  2
ARIAL_ITALIC
 70
0
 40
0.0
 41
1.0
 42
1.0
 50
0.0
 71
0
  3
ariali.ttf
  4

  0
STYLE
  2
ARIAL_BOLD_ITALIC
 70
0
 40
0.0
 41
1.0
 42
1.0
 50
0.0
 71
0
  3
arialbi.ttf
  4

  0
STYLE
  2
ARIAL_BLACK
 70
0
 40
0.0
 41
1.0
 42
1.0
 50
0.0
 71
0
  3
ariblk.ttf
  4

  0
STYLE
  2
ISOCPEUR
 70
0
 40
0.0
 41
1.0
 42
1.0
 50
0.0
 71
0
  3
isocpeur.ttf
  4

  0
STYLE
  2
ISOCPEUR_ITALIC
 70
0
 40
0.0
 41
1.0
 42
1.0
 50
0.0
 71
0
  3
isocpeui.ttf
  4

  0
STYLE
  2
TIMES
 70
0
 40
0.0
 41
1.0
 42
1.0
 50
0.0
 71
0
  3
times.ttf
  4

  0
STYLE
  2
TIMES_BOLD
 70
0
 40
0.0
 41
1.0
 42
1.0
 50
0.0
 71
0
  3
timesbd.ttf
  4

  0
STYLE
  2
TIMES_ITALIC
 70
0
 40
0.0
 41
1.0
 42
1.0
 50
0.0
 71
0
  3
timesi.ttf
  4

  0
STYLE
  2
TIMES_BOLD_ITALIC
 70
0
 40
0.0
 41
1.0
 42
1.0
 50
0.0
 71
0
  3
timesbi.ttf
  4

  0
ENDTAB
  0
TABLE
  2
VIEW
 70
0
  0
ENDTAB
  0
TABLE
  2
APPID
 70
1
  0
APPID
  2
DXFWRITE
 70
0
  0
ENDTAB
  0
TABLE
  2
VPORT
 70
0
  0
ENDTAB
  0
TABLE
  2
UCS
 70
0
  0
ENDTAB
  0
ENDSEC
  0
SECTION
  2
BLOCKS
  0
ENDSEC
  0
SECTION
  2
ENTITIES
  0
VIEWPORT
  8
VIEWPORTS
 67
1
 10
0.0
 20
0.0
 30
0.0
 40
1.0
 41
1.0
 68
1
 69
1
1001
ACAD
1000
MVIEW
1002
{
1070
16
1010
0.0
1020
0.0
1030
0.0
1010
0.0
1020
0.0
1030
0.0
1040
0.0
1040
1.0
1040
0.0
1040
0.0
1040
50.0
1040
0.0
1040
0.0
1070
0
1070
100
1070
1
1070
3
1070
0
1070
0
1070
0
1070
0
1040
0.0
1040
0.0
1040
0.0
1040
0.1
1040
0.1
1040
0.1
1040
0.1
1070
0
1002
{
1002
}
1002
}
  0
POLYLINE
 62
7
  8
DEM_20px_m
 66
1
 10
0.0
 20
0.0
 30
0.0
 70
8
  0
VERTEX
  8
DEM_20px_m
 10
262031.361
 20
2105379.862
 30
-1001.0593
  0
VERTEX
  8
DEM_20px_m
 10
262022.88632941176
 20
2105399.901147059
 30
-1001.4172
  0
VERTEX
  8
DEM_20px_m
 10
262014.41165882352
 20
2105419.9402941177
 30
-1002.5211
  0
VERTEX
  8
DEM_20px_m
 10
262005.9369882353
 20
2105439.9794411766
 30
-1003.6328
  0
VERTEX
  8
DEM_20px_m
 10
261997.46231764706
 20
2105460.0185882356
 30
-1003.8023
  0
VERTEX
  8
DEM_20px_m
 10
261988.98764705882
 20
2105480.057735294
 30
-1004.7391
  0
VERTEX
  8
DEM_20px_m
 10
261980.51297647058
 20
2105500.096882353
 30
-1005.2261
  0
VERTEX
  8
DEM_20px_m
 10
261972.03830588236
 20
2105520.136029412
 30
-1006.9539
  0
VERTEX
  8
DEM_20px_m
 10
261963.56363529412
 20
2105540.175176471
 30
-1008.1388
  0
VERTEX
  8
DEM_20px_m
 10
261955.08896470588
 20
2105560.2143235295
 30
-1009.8572
  0
VERTEX
  8
DEM_20px_m
 10
261946.61429411764
 20
2105580.2534705885
 30
-1010.4855
  0
VERTEX
  8
DEM_20px_m
 10
261938.13962352942
 20
2105600.2926176474
 30
-1010.7923
  0
VERTEX
  8
DEM_20px_m
 10
261929.66495294118
 20
2105620.331764706
 30
-1011.414
  0
VERTEX
  8
DEM_20px_m
 10
261921.19028235294
 20
2105640.370911765
 30
-1011.9277
  0
VERTEX
  8
DEM_20px_m
 10
261912.7156117647
 20
2105660.410058824
 30
-1012.6142
  0
VERTEX
  8
DEM_20px_m
 10
261904.24094117648
 20
2105680.4492058824
 30
-1012.9682
  0
VERTEX
  8
DEM_20px_m
 10
261895.76627058824
 20
2105700.4883529413
 30
-1013.9232
  0
VERTEX
  8
DEM_20px_m
 10
261887.2916
 20
2105720.5275000003
 30
-1014.8781
  0
VERTEX
  8
DEM_20px_m
 10
261878.81692941175
 20
2105740.566647059
 30
-1015.314
  0
VERTEX
  8
DEM_20px_m
 10
261870.34225882354
 20
2105760.605794118
 30
-1015.9775
  0
VERTEX
  8
DEM_20px_m
 10
261861.8675882353
 20
2105780.6449411768
 30
-1016.6004
  0
VERTEX
  8
DEM_20px_m
 10
261853.39291764706
 20
2105800.6840882353
 30
-1017.258
  0
VERTEX
  8
DEM_20px_m
 10
261844.9182470588
 20
2105820.723235294
 30
-1017.9081
  0
VERTEX
  8
DEM_20px_m
 10
261836.4435764706
 20
2105840.762382353
 30
-1018.2917
  0
VERTEX
  8
DEM_20px_m
 10
261827.96890588236
 20
2105860.801529412
 30
-1018.973
  0
VERTEX
  8
DEM_20px_m
 10
261819.4942352941
 20
2105880.8406764707
 30
-1019.6367
  0
VERTEX
  8
DEM_20px_m
 10
261811.01956470587
 20
2105900.8798235296
 30
-1020.0
  0
VERTEX
  8
DEM_20px_m
 10
261802.54489411766
 20
2105920.9189705886
 30
-1020.7498
  0
VERTEX
  8
DEM_20px_m
 10
261794.07022352942
 20
2105940.958117647
 30
-1021.3787
  0
VERTEX
  8
DEM_20px_m
 10
261785.59555294117
 20
2105960.997264706
 30
-1022.0401
  0
VERTEX
  8
DEM_20px_m
 10
261777.12088235293
 20
2105981.036411765
 30
-1022.913
  0
VERTEX
  8
DEM_20px_m
 10
261768.64621176472
 20
2106001.0755588235
 30
-1023.5682
  0
VERTEX
  8
DEM_20px_m
 10
261760.17154117647
 20
2106021.1147058825
 30
-1024.4378
  0
VERTEX
  8
DEM_20px_m
 10
261751.69687058823
 20
2106041.1538529415
 30
-1025.2223
  0
VERTEX
  8
DEM_20px_m
 10
261743.2222
 20
2106061.193
 30
-1027.1429
  0
VERTEX
  8
DEM_20px_m
 10
261734.74752941178
 20
2106081.232147059
 30
-1028.7327
  0
VERTEX
  8
DEM_20px_m
 10
261726.27285882353
 20
2106101.271294118
 30
-1030.1435
  0
VERTEX
  8
DEM_20px_m
 10
261717.7981882353
 20
2106121.3104411764
 30
-1031.0534
  0
VERTEX
  8
DEM_20px_m
 10
261709.32351764705
 20
2106141.3495882354
 30
-1031.9815
  0
VERTEX
  8
DEM_20px_m
 10
261700.84884705883
 20
2106161.3887352943
 30
-1032.6242
  0
VERTEX
  8
DEM_20px_m
 10
261692.3741764706
 20
2106181.4278823533
 30
-1033.414
  0
VERTEX
  8
DEM_20px_m
 10
261683.89950588235
 20
2106201.467029412
 30
-1034.1371
  0
VERTEX
  8
DEM_20px_m
 10
261675.4248352941
 20
2106221.506176471
 30
-1035.1919
  0
VERTEX
  8
DEM_20px_m
 10
261666.9501647059
 20
2106241.5453235297
 30
-1035.9552
  0
VERTEX
  8
DEM_20px_m
 10
261658.47549411765
 20
2106261.5844705882
 30
-1036.339
  0
VERTEX
  8
DEM_20px_m
 10
261650.0008235294
 20
2106281.623617647
 30
-1037.249
  0
VERTEX
  8
DEM_20px_m
 10
261641.52615294117
 20
2106301.662764706
 30
-1037.7455
  0
VERTEX
  8
DEM_20px_m
 10
261633.05148235295
 20
2106321.7019117647
 30
-1038.8599
  0
VERTEX
  8
DEM_20px_m
 10
261624.5768117647
 20
2106341.7410588237
 30
-1039.9801
  0
VERTEX
  8
DEM_20px_m
 10
261616.10214117647
 20
2106361.7802058826
 30
-1040.0936
  0
VERTEX
  8
DEM_20px_m
 10
261607.62747058822
 20
2106381.819352941
 30
-1041.0782
  0
VERTEX
  8
DEM_20px_m
 10
261599.1528
 20
2106401.8585
 30
-1041.0344
  0
VERTEX
  8
DEM_20px_m
 10
261590.67812941177
 20
2106421.897647059
 30
-1042.5695
  0
VERTEX
  8
DEM_20px_m
 10
261582.20345882353
 20
2106441.9367941176
 30
-1042.8822
  0
VERTEX
  8
DEM_20px_m
 10
261573.72878823528
 20
2106461.9759411765
 30
-1044.0417
  0
VERTEX
  8
DEM_20px_m
 10
261565.25411764707
 20
2106482.0150882355
 30
-1045.3958
  0
VERTEX
  8
DEM_20px_m
 10
261556.77944705883
 20
2106502.0542352945
 30
-1046.3949
  0
VERTEX
  8
DEM_20px_m
 10
261548.30477647058
 20
2106522.093382353
 30
-1047.9238
  0
VERTEX
  8
DEM_20px_m
 10
261539.83010588234
 20
2106542.132529412
 30
-1049.0011
  0
VERTEX
  8
DEM_20px_m
 10
261531.35543529413
 20
2106562.171676471
 30
-1050.3995
  0
VERTEX
  8
DEM_20px_m
 10
261522.8807647059
 20
2106582.2108235294
 30
-1050.961
  0
VERTEX
  8
DEM_20px_m
 10
261514.40609411764
 20
2106602.2499705884
 30
-1051.9185
  0
VERTEX
  8
DEM_20px_m
 10
261505.9314235294
 20
2106622.2891176473
 30
-1052.8855
  0
VERTEX
  8
DEM_20px_m
 10
261497.4567529412
 20
2106642.328264706
 30
-1053.1616
  0
VERTEX
  8
DEM_20px_m
 10
261488.98208235294
 20
2106662.367411765
 30
-1054.0308
  0
VERTEX
  8
DEM_20px_m
 10
261480.5074117647
 20
2106682.406558824
 30
-1054.3908
  0
VERTEX
  8
DEM_20px_m
 10
261472.03274117646
 20
2106702.4457058823
 30
-1055.3504
  0
VERTEX
  8
DEM_20px_m
 10
261463.55807058825
 20
2106722.4848529412
 30
-1055.8385
  0
VERTEX
  8
DEM_20px_m
 10
261455.0834
 20
2106742.524
 30
-1056.9451
  0
VERTEX
  8
DEM_20px_m
 10
261446.60872941176
 20
2106762.5631470587
 30
-1058.0688
  0
VERTEX
  8
DEM_20px_m
 10
261438.13405882352
 20
2106782.6022941177
 30
-1059.1816
  0
VERTEX
  8
DEM_20px_m
 10
261429.6593882353
 20
2106802.6414411766
 30
-1060.129
  0
VERTEX
  8
DEM_20px_m
 10
261421.18471764706
 20
2106822.6805882356
 30
-1060.7906
  0
VERTEX
  8
DEM_20px_m
 10
261412.71004705882
 20
2106842.719735294
 30
-1061.4888
  0
VERTEX
  8
DEM_20px_m
 10
261404.23537647058
 20
2106862.758882353
 30
-1061.7955
  0
VERTEX
  8
DEM_20px_m
 10
261395.76070588236
 20
2106882.798029412
 30
-1062.6952
  0
VERTEX
  8
DEM_20px_m
 10
261387.28603529412
 20
2106902.8371764706
 30
-1063.6092
  0
VERTEX
  8
DEM_20px_m
 10
261378.81136470588
 20
2106922.8763235295
 30
-1064.4461
  0
VERTEX
  8
DEM_20px_m
 10
261370.33669411764
 20
2106942.9154705885
 30
-1065.4228
  0
VERTEX
  8
DEM_20px_m
 10
261361.86202352942
 20
2106962.954617647
 30
-1066.0153
  0
VERTEX
  8
DEM_20px_m
 10
261353.38735294118
 20
2106982.993764706
 30
-1066.8756
  0
VERTEX
  8
DEM_20px_m
 10
261344.91268235294
 20
2107003.032911765
 30
-1067.7359
  0
VERTEX
  8
DEM_20px_m
 10
261336.4380117647
 20
2107023.0720588234
 30
-1068.6484
  0
VERTEX
  8
DEM_20px_m
 10
261327.96334117648
 20
2107043.1112058824
 30
-1069.5826
  0
VERTEX
  8
DEM_20px_m
 10
261319.48867058824
 20
2107063.1503529414
 30
-1070.4853
  0
VERTEX
  8
DEM_20px_m
 10
261311.014
 20
2107083.1895000003
 30
-1071.3129
  0
VERTEX
  8
DEM_20px_m
 10
261302.53932941175
 20
2107103.228647059
 30
-1072.1425
  0
VERTEX
  8
DEM_20px_m
 10
261294.0646588235
 20
2107123.267794118
 30
-1072.9526
  0
VERTEX
  8
DEM_20px_m
 10
261285.5899882353
 20
2107143.3069411768
 30
-1073.6776
  0
VERTEX
  8
DEM_20px_m
 10
261277.11531764705
 20
2107163.3460882353
 30
-1074.1477
  0
VERTEX
  8
DEM_20px_m
 10
261268.6406470588
 20
2107183.3852352942
 30
-1074.7026
  0
VERTEX
  8
DEM_20px_m
 10
261260.16597647057
 20
2107203.424382353
 30
-1075.0
  0
VERTEX
  8
DEM_20px_m
 10
261251.69130588236
 20
2107223.4635294117
 30
-1075.7302
  0
VERTEX
  8
DEM_20px_m
 10
261243.2166352941
 20
2107243.5026764707
 30
-1076.5381
  0
VERTEX
  8
DEM_20px_m
 10
261234.74196470587
 20
2107263.5418235296
 30
-1077.4048
  0
VERTEX
  8
DEM_20px_m
 10
261226.26729411763
 20
2107283.580970588
 30
-1078.2715
  0
VERTEX
  8
DEM_20px_m
 10
261217.7926235294
 20
2107303.620117647
 30
-1078.4692
  0
VERTEX
  8
DEM_20px_m
 10
261209.31795294117
 20
2107323.659264706
 30
-1079.1727
  0
VERTEX
  8
DEM_20px_m
 10
261200.84328235293
 20
2107343.6984117646
 30
-1079.4599
  0
VERTEX
  8
DEM_20px_m
 10
261192.3686117647
 20
2107363.7375588235
 30
-1080.3366
  0
VERTEX
  8
DEM_20px_m
 10
261183.89394117647
 20
2107383.7767058825
 30
-1081.0144
  0
VERTEX
  8
DEM_20px_m
 10
261175.41927058823
 20
2107403.8158529415
 30
-1081.973
  0
VERTEX
  8
DEM_20px_m
 10
261166.9446
 20
2107423.855
 30
-1082.9315
  0
VERTEX
  8
DEM_20px_m
 10
261158.46992941175
 20
2107443.894147059
 30
-1083.7371
  0
VERTEX
  8
DEM_20px_m
 10
261149.99525882353
 20
2107463.933294118
 30
-1084.8494
  0
VERTEX
  8
DEM_20px_m
 10
261141.5205882353
 20
2107483.9724411764
 30
-1085.4091
  0
VERTEX
  8
DEM_20px_m
 10
261133.04591764705
 20
2107504.0115882354
 30
-1086.3514
  0
VERTEX
  8
DEM_20px_m
 10
261124.5712470588
 20
2107524.0507352944
 30
-1087.2821
  0
VERTEX
  8
DEM_20px_m
 10
261116.0965764706
 20
2107544.089882353
 30
-1087.8584
  0
VERTEX
  8
DEM_20px_m
 10
261107.62190588235
 20
2107564.129029412
 30
-1088.7291
  0
VERTEX
  8
DEM_20px_m
 10
261099.1472352941
 20
2107584.168176471
 30
-1088.6251
  0
VERTEX
  8
DEM_20px_m
 10
261090.67256470586
 20
2107604.2073235293
 30
-1089.4175
  0
VERTEX
  8
DEM_20px_m
 10
261082.19789411765
 20
2107624.2464705883
 30
-1089.9483
  0
VERTEX
  8
DEM_20px_m
 10
261073.7232235294
 20
2107644.285617647
 30
-1090.6123
  0
VERTEX
  8
DEM_20px_m
 10
261065.24855294116
 20
2107664.3247647057
 30
-1091.3801
  0
VERTEX
  8
DEM_20px_m
 10
261056.77388235292
 20
2107684.3639117647
 30
-1091.5607
  0
VERTEX
  8
DEM_20px_m
 10
261048.2992117647
 20
2107704.4030588237
 30
-1092.5093
  0
VERTEX
  8
DEM_20px_m
 10
261039.82454117647
 20
2107724.4422058826
 30
-1092.6076
  0
VERTEX
  8
DEM_20px_m
 10
261031.34987058822
 20
2107744.481352941
 30
-1093.2922
  0
VERTEX
  8
DEM_20px_m
 10
261022.87519999998
 20
2107764.5205
 30
-1092.9495
  0
VERTEX
  8
DEM_20px_m
 10
261014.40052941177
 20
2107784.559647059
 30
-1093.7808
  0
VERTEX
  8
DEM_20px_m
 10
261005.92585882352
 20
2107804.5987941176
 30
-1094.8496
  0
VERTEX
  8
DEM_20px_m
 10
260997.45118823528
 20
2107824.6379411765
 30
-1094.6103
  0
VERTEX
  8
DEM_20px_m
 10
260988.97651764704
 20
2107844.6770882355
 30
-1095.249
  0
VERTEX
  8
DEM_20px_m
 10
260980.50184705883
 20
2107864.716235294
 30
-1094.9814
  0
VERTEX
  8
DEM_20px_m
 10
260972.02717647058
 20
2107884.755382353
 30
-1095.5961
  0
VERTEX
  8
DEM_20px_m
 10
260963.55250588234
 20
2107904.794529412
 30
-1095.4071
  0
VERTEX
  8
DEM_20px_m
 10
260955.0778352941
 20
2107924.8336764704
 30
-1096.3136
  0
VERTEX
  8
DEM_20px_m
 10
260946.60316470588
 20
2107944.8728235294
 30
-1097.1032
  0
VERTEX
  8
DEM_20px_m
 10
260938.12849411764
 20
2107964.9119705884
 30
-1097.3149
  0
VERTEX
  8
DEM_20px_m
 10
260929.6538235294
 20
2107984.951117647
 30
-1098.2336
  0
VERTEX
  8
DEM_20px_m
 10
260921.17915294116
 20
2108004.990264706
 30
-1098.1778
  0
VERTEX
  8
DEM_20px_m
 10
260912.70448235294
 20
2108025.029411765
 30
-1099.0451
  0
VERTEX
  8
DEM_20px_m
 10
260904.2298117647
 20
2108045.068558824
 30
-1098.6259
  0
VERTEX
  8
DEM_20px_m
 10
260895.75514117646
 20
2108065.1077058823
 30
-1099.5769
  0
VERTEX
  8
DEM_20px_m
 10
260887.28047058822
 20
2108085.1468529413
 30
-1100.5553
  0
VERTEX
  8
DEM_20px_m
 10
260878.8058
 20
2108105.186
 30
-1100.9827
  0
VERTEX
  8
DEM_20px_m
 10
260870.33112941176
 20
2108125.2251470587
 30
-1101.8609
  0
VERTEX
  8
DEM_20px_m
 10
260861.85645882352
 20
2108145.2642941177
 30
-1101.7945
  0
VERTEX
  8
DEM_20px_m
 10
260853.38178823527
 20
2108165.3034411767
 30
-1102.2835
  0
VERTEX
  8
DEM_20px_m
 10
260844.90711764706
 20
2108185.342588235
 30
-1103.2585
  0
VERTEX
  8
DEM_20px_m
 10
260836.43244705882
 20
2108205.381735294
 30
-1102.4681
  0
VERTEX
  8
DEM_20px_m
 10
260827.95777647058
 20
2108225.420882353
 30
-1103.0227
  0
VERTEX
  8
DEM_20px_m
 10
260819.48310588233
 20
2108245.4600294116
 30
-1102.2146
  0
VERTEX
  8
DEM_20px_m
 10
260811.00843529412
 20
2108265.4991764706
 30
-1103.098
  0
VERTEX
  8
DEM_20px_m
 10
260802.53376470588
 20
2108285.5383235295
 30
-1102.9393
  0
VERTEX
  8
DEM_20px_m
 10
260794.05909411763
 20
2108305.577470588
 30
-1103.6212
  0
VERTEX
  8
DEM_20px_m
 10
260785.5844235294
 20
2108325.616617647
 30
-1103.9636
  0
VERTEX
  8
DEM_20px_m
 10
260777.10975294118
 20
2108345.655764706
 30
-1103.2686
  0
VERTEX
  8
DEM_20px_m
 10
260768.63508235294
 20
2108365.694911765
 30
-1103.5881
  0
VERTEX
  8
DEM_20px_m
 10
260760.1604117647
 20
2108385.7340588234
 30
-1103.2412
  0
VERTEX
  8
DEM_20px_m
 10
260751.68574117645
 20
2108405.7732058824
 30
-1103.7528
  0
VERTEX
  8
DEM_20px_m
 10
260743.21107058824
 20
2108425.8123529414
 30
-1103.4538
  0
VERTEX
  8
DEM_20px_m
 10
260734.7364
 20
2108445.8515
 30
-1103.9189
  0
VERTEX
  8
DEM_20px_m
 10
260726.26172941175
 20
2108465.890647059
 30
-1104.274
  0
VERTEX
  8
DEM_20px_m
 10
260717.7870588235
 20
2108485.929794118
 30
-1103.7723
  0
VERTEX
  8
DEM_20px_m
 10
260709.3123882353
 20
2108505.9689411763
 30
-1104.3593
  0
VERTEX
  8
DEM_20px_m
 10
260700.83771764705
 20
2108526.0080882353
 30
-1104.122
  0
VERTEX
  8
DEM_20px_m
 10
260692.3630470588
 20
2108546.0472352942
 30
-1104.8619
  0
VERTEX
  8
DEM_20px_m
 10
260683.88837647057
 20
2108566.0863823527
 30
-1105.0597
  0
VERTEX
  8
DEM_20px_m
 10
260675.41370588235
 20
2108586.1255294117
 30
-1106.1767
  0
VERTEX
  8
DEM_20px_m
 10
260666.9390352941
 20
2108606.1646764707
 30
-1107.2922
  0
VERTEX
  8
DEM_20px_m
 10
260658.46436470587
 20
2108626.203823529
 30
-1107.7169
  0
VERTEX
  8
DEM_20px_m
 10
260649.98969411763
 20
2108646.242970588
 30
-1108.8022
  0
VERTEX
  8
DEM_20px_m
 10
260641.5150235294
 20
2108666.282117647
 30
-1109.1155
  0
VERTEX
  8
DEM_20px_m
 10
260633.04035294117
 20
2108686.321264706
 30
-1110.2185
  0
VERTEX
  8
DEM_20px_m
 10
260624.56568235293
 20
2108706.3604117646
 30
-1111.592
  0
VERTEX
  8
DEM_20px_m
 10
260616.09101176469
 20
2108726.3995588236
 30
-1112.1889
  0
VERTEX
  8
DEM_20px_m
 10
260607.61634117647
 20
2108746.4387058825
 30
-1113.6276
  0
VERTEX
  8
DEM_20px_m
 10
260599.14167058823
 20
2108766.477852941
 30
-1114.8027
  0
VERTEX
  8
DEM_20px_m
 10
260590.667
 20
2108786.517
 30
-1116.7178
  0
SEQEND
  0
ENDSEC
  0
EOF
