<svg xmlns="http://www.w3.org/2000/svg" xmlns:xlink="http://www.w3.org/1999/xlink" contentStyleType="text/css" height="5592px" preserveAspectRatio="none" style="width:2613px;height:5592px;background:#FFFFFF;" version="1.1" viewBox="0 0 2613 5592" width="2613px" zoomAndPan="magnify"><defs/><g><rect fill="#FF6347" height="135.6563" id="_title" rx="22.5" ry="22.5" style="stroke:#FF0000;stroke-width:6.0;" width="303" x="1151.688" y="45"/><text fill="#000000" font-family="sans-serif" font-size="42" font-weight="bold" lengthAdjust="spacing" textLength="261.3311" x="1166.688" y="103.5996">AQWA RAOs</text><text fill="#000000" font-family="sans-serif" font-size="42" font-weight="bold" lengthAdjust="spacing" textLength="207.7441" x="1199.3159" y="156.4277">Procedure</text><path d="M476.2119,198.6563 L476.2119,275.2383 L416.2119,287.2383 L476.2119,299.2383 L476.2119,375.8203 A0,0 0 0 0 476.2119,375.8203 L1438.7637,375.8203 A0,0 0 0 0 1438.7637,375.8203 L1438.7637,228.6563 L1408.7637,198.6563 L476.2119,198.6563 A0,0 0 0 0 476.2119,198.6563 " fill="#FEFFDD" style="stroke:#181818;stroke-width:1.5;"/><path d="M1408.7637,198.6563 L1408.7637,228.6563 L1438.7637,228.6563 L1408.7637,198.6563 " fill="#FEFFDD" style="stroke:#181818;stroke-width:1.5;"/><text fill="#000000" font-family="sans-serif" font-size="39" lengthAdjust="spacing" textLength="899.5518" x="494.2119" y="254.1416">Objective: To run and automate RAO runs in AQWA</text><text fill="#000000" font-family="sans-serif" font-size="39" lengthAdjust="spacing" textLength="112.7153" x="494.2119" y="303.1963">Notes:</text><text fill="#000000" font-family="sans-serif" font-size="39" lengthAdjust="spacing" textLength="500.6206" x="505.0474" y="352.251">- All files in ascii (.dat) format</text><ellipse cx="386.2119" cy="287.2383" fill="#222222" rx="30" ry="30" style="stroke:#222222;stroke-width:3.0;"/><rect fill="none" height="717.9141" style="stroke:#000000;stroke-width:4.5;" width="1983.8101" x="178.1514" y="405.8203"/><path d="M392.5371,405.8203 L392.5371,437.6484 L362.5371,467.6484 L178.1514,467.6484 " fill="none" style="stroke:#000000;stroke-width:4.5;"/><text fill="#000000" font-family="sans-serif" font-size="42" lengthAdjust="spacing" textLength="184.3857" x="187.1514" y="452.4199">Geometry</text><path d="M1523.0493,615.293 L1523.0493,988.6758 L2101.9614,988.6758 L2101.9614,645.293 L2071.9614,615.293 L1523.0493,615.293 " fill="#FEFFDD" style="stroke:#181818;stroke-width:1.5;"/><path d="M2071.9614,615.293 L2071.9614,645.293 L2101.9614,645.293 L2071.9614,615.293 " fill="#FEFFDD" style="stroke:#181818;stroke-width:1.5;"/><text fill="#000000" font-family="sans-serif" font-size="39" lengthAdjust="spacing" textLength="179.8799" x="1541.0493" y="670.7783">Programs:</text><text fill="#000000" font-family="sans-serif" font-size="39" lengthAdjust="spacing" textLength="125.7217" x="1551.8848" y="719.833">- Rhino</text><text fill="#000000" font-family="sans-serif" font-size="39" lengthAdjust="spacing" textLength="234.0762" x="1551.8848" y="768.8877">- SpaceClaim</text><text fill="#000000" font-family="sans-serif" font-size="39" lengthAdjust="spacing" textLength="221.0698" x="1551.8848" y="817.9424">- Workbench</text><text fill="#000000" font-family="sans-serif" font-size="39" lengthAdjust="spacing" textLength="127.9116" x="1541.0493" y="866.9971">Output:</text><text fill="#000000" font-family="sans-serif" font-size="39" lengthAdjust="spacing" textLength="244.9307" x="1551.8848" y="916.0518">- keyname.ext</text><text fill="#000000" font-family="sans-serif" font-size="39" lengthAdjust="spacing" textLength="483.4058" x="1573.5557" y="965.1064">- ext can be iges, scdoc etc.</text><path d="M624.2725,516.2344 L624.2725,568.2891 L564.2725,580.2891 L624.2725,592.2891 L624.2725,644.3438 A0,0 0 0 0 624.2725,644.3438 L1268.3306,644.3438 A0,0 0 0 0 1268.3306,644.3438 L1268.3306,546.2344 L1238.3306,516.2344 L624.2725,516.2344 A0,0 0 0 0 624.2725,516.2344 " fill="#FEFFDD" style="stroke:#181818;stroke-width:1.5;"/><path d="M1238.3306,516.2344 L1238.3306,546.2344 L1268.3306,546.2344 L1238.3306,516.2344 " fill="#FEFFDD" style="stroke:#181818;stroke-width:1.5;"/><text fill="#000000" font-family="sans-serif" font-size="39" lengthAdjust="spacing" textLength="474.7603" x="642.2725" y="571.7197">All surfaces should connect</text><text fill="#000000" font-family="sans-serif" font-size="39" lengthAdjust="spacing" textLength="581.0581" x="642.2725" y="620.7744">Should not have gaps or overlaps</text><rect fill="#F1F1F1" height="105.2813" rx="37.5" ry="37.5" style="stroke:#181818;stroke-width:1.5;" width="356.1211" x="208.1514" y="527.6484"/><text fill="#000000" font-family="sans-serif" font-size="36" lengthAdjust="spacing" textLength="296.1211" x="238.1514" y="595.0195">Prepare Geometry</text><path d="M593.2822,762.457 L593.2822,789.9844 L533.2822,801.9844 L593.2822,813.9844 L593.2822,841.5117 A0,0 0 0 0 593.2822,841.5117 L1493.0493,841.5117 A0,0 0 0 0 1493.0493,841.5117 L1493.0493,792.457 L1463.0493,762.457 L593.2822,762.457 A0,0 0 0 0 593.2822,762.457 " fill="#FEFFDD" style="stroke:#181818;stroke-width:1.5;"/><path d="M1463.0493,762.457 L1463.0493,792.457 L1493.0493,792.457 L1463.0493,762.457 " fill="#FEFFDD" style="stroke:#181818;stroke-width:1.5;"/><text fill="#000000" font-family="sans-serif" font-size="39" lengthAdjust="spacing" textLength="836.7671" x="611.2822" y="817.9424">Combine discrete hull faces into a single surface</text><rect fill="#F1F1F1" height="105.2813" rx="37.5" ry="37.5" style="stroke:#181818;stroke-width:1.5;" width="294.1406" x="239.1416" y="749.3438"/><text fill="#000000" font-family="sans-serif" font-size="36" lengthAdjust="spacing" textLength="234.1406" x="269.1416" y="816.7148">Single Surface</text><path d="M587.2793,959.625 L587.2793,1011.6797 L527.2793,1023.6797 L587.2793,1035.6797 L587.2793,1087.7344 A0,0 0 0 0 587.2793,1087.7344 L1425.2329,1087.7344 A0,0 0 0 0 1425.2329,1087.7344 L1425.2329,989.625 L1395.2329,959.625 L587.2793,959.625 A0,0 0 0 0 587.2793,959.625 " fill="#FEFFDD" style="stroke:#181818;stroke-width:1.5;"/><path d="M1395.2329,959.625 L1395.2329,989.625 L1425.2329,989.625 L1395.2329,959.625 " fill="#FEFFDD" style="stroke:#181818;stroke-width:1.5;"/><text fill="#000000" font-family="sans-serif" font-size="39" lengthAdjust="spacing" textLength="643.8237" x="605.2793" y="1015.1104">Approximate location (including draft)</text><text fill="#000000" font-family="sans-serif" font-size="39" lengthAdjust="spacing" textLength="774.9536" x="605.2793" y="1064.165">Geometry should be in water (i.e. below z=0)</text><rect fill="#F1F1F1" height="105.2813" rx="37.5" ry="37.5" style="stroke:#181818;stroke-width:1.5;" width="282.1348" x="245.1445" y="971.0391"/><text fill="#000000" font-family="sans-serif" font-size="36" lengthAdjust="spacing" textLength="222.1348" x="275.1445" y="1038.4102">Start Location</text><rect fill="none" height="969.1875" style="stroke:#000000;stroke-width:4.5;" width="2432.2354" x="150.1406" y="1153.7344"/><path d="M849.9873,1153.7344 L849.9873,1185.5625 L819.9873,1215.5625 L150.1406,1215.5625 " fill="none" style="stroke:#000000;stroke-width:4.5;"/><text fill="#000000" font-family="sans-serif" font-size="42" lengthAdjust="spacing" textLength="669.8467" x="159.1406" y="1200.334">Get Preliminary AQWA Mesh Model</text><path d="M1700.7803,1529.8125 L1700.7803,1805.0859 L2522.376,1805.0859 L2522.376,1559.8125 L2492.376,1529.8125 L1700.7803,1529.8125 " fill="#FEFFDD" style="stroke:#181818;stroke-width:1.5;"/><path d="M2492.376,1529.8125 L2492.376,1559.8125 L2522.376,1559.8125 L2492.376,1529.8125 " fill="#FEFFDD" style="stroke:#181818;stroke-width:1.5;"/><text fill="#000000" font-family="sans-serif" font-size="39" lengthAdjust="spacing" textLength="758.5957" x="1718.7803" y="1585.2979">Objective: To create mesh model for AQWA</text><text fill="#000000" font-family="sans-serif" font-size="39" lengthAdjust="spacing" textLength="179.8799" x="1718.7803" y="1634.3525">Programs:</text><text fill="#000000" font-family="sans-serif" font-size="39" lengthAdjust="spacing" textLength="221.0698" x="1729.6157" y="1683.4072">- Workbench</text><text fill="#000000" font-family="sans-serif" font-size="39" lengthAdjust="spacing" textLength="127.9116" x="1718.7803" y="1732.4619">Output:</text><text fill="#000000" font-family="sans-serif" font-size="39" lengthAdjust="spacing" textLength="331.6333" x="1729.6157" y="1781.5166">- WB_keyname.dat</text><path d="M621.2578,1279.6758 L621.2578,1307.2031 L561.2578,1319.2031 L621.2578,1331.2031 L621.2578,1358.7305 A0,0 0 0 0 621.2578,1358.7305 L1139.5371,1358.7305 A0,0 0 0 0 1139.5371,1358.7305 L1139.5371,1309.6758 L1109.5371,1279.6758 L621.2578,1279.6758 A0,0 0 0 0 621.2578,1279.6758 " fill="#FEFFDD" style="stroke:#181818;stroke-width:1.5;"/><path d="M1109.5371,1279.6758 L1109.5371,1309.6758 L1139.5371,1309.6758 L1109.5371,1279.6758 " fill="#FEFFDD" style="stroke:#181818;stroke-width:1.5;"/><text fill="#000000" font-family="sans-serif" font-size="39" lengthAdjust="spacing" textLength="455.2793" x="639.2578" y="1335.1611">Supress Unwanted bodies</text><rect fill="#F1F1F1" height="105.2813" rx="37.5" ry="37.5" style="stroke:#181818;stroke-width:1.5;" width="350.0918" x="211.166" y="1266.5625"/><text fill="#000000" font-family="sans-serif" font-size="36" lengthAdjust="spacing" textLength="290.0918" x="241.166" y="1333.9336">ANSYS Geometry</text><path d="M652.2832,1401.8438 L652.2832,1502.9531 L592.2832,1514.9531 L652.2832,1526.9531 L652.2832,1628.0625 A0,0 0 0 0 652.2832,1628.0625 L1395.9741,1628.0625 A0,0 0 0 0 1395.9741,1628.0625 L1395.9741,1431.8438 L1365.9741,1401.8438 L652.2832,1401.8438 A0,0 0 0 0 652.2832,1401.8438 " fill="#FEFFDD" style="stroke:#181818;stroke-width:1.5;"/><path d="M1365.9741,1401.8438 L1365.9741,1431.8438 L1395.9741,1431.8438 L1365.9741,1401.8438 " fill="#FEFFDD" style="stroke:#181818;stroke-width:1.5;"/><text fill="#000000" font-family="sans-serif" font-size="39" lengthAdjust="spacing" textLength="305.6777" x="670.2832" y="1457.3291">- Add internal Lid.</text><text fill="#000000" font-family="sans-serif" font-size="39" lengthAdjust="spacing" textLength="574.374" x="691.9541" y="1506.3838">- Mesh size is program controlled</text><text fill="#000000" font-family="sans-serif" font-size="39" lengthAdjust="spacing" textLength="585.1523" x="670.2832" y="1555.4385">- Ignore Modelling Errors (GOON)</text><text fill="#000000" font-family="sans-serif" font-size="39" lengthAdjust="spacing" textLength="680.6909" x="670.2832" y="1604.4932">- Add point mass and intertia properties</text><rect fill="#F1F1F1" height="105.2813" rx="37.5" ry="37.5" style="stroke:#181818;stroke-width:1.5;" width="412.1426" x="180.1406" y="1462.3125"/><text fill="#000000" font-family="sans-serif" font-size="36" lengthAdjust="spacing" textLength="352.1426" x="210.1406" y="1529.6836">RAO analysis Options</text><path d="M619.2979,1733.0625 L619.2979,1809.6445 L559.2979,1821.6445 L619.2979,1833.6445 L619.2979,1910.2266 A0,0 0 0 0 619.2979,1910.2266 L1670.7803,1910.2266 A0,0 0 0 0 1670.7803,1910.2266 L1670.7803,1763.0625 L1640.7803,1733.0625 L619.2979,1733.0625 A0,0 0 0 0 619.2979,1733.0625 " fill="#FEFFDD" style="stroke:#181818;stroke-width:1.5;"/><path d="M1640.7803,1733.0625 L1640.7803,1763.0625 L1670.7803,1763.0625 L1640.7803,1733.0625 " fill="#FEFFDD" style="stroke:#181818;stroke-width:1.5;"/><text fill="#000000" font-family="sans-serif" font-size="39" lengthAdjust="spacing" textLength="351.1904" x="637.2979" y="1788.5479">Based on mesh size</text><text fill="#000000" font-family="sans-serif" font-size="39" lengthAdjust="spacing" textLength="988.4824" x="637.2979" y="1837.6025">Check RAO frequency range covers analysis frequencies</text><text fill="#000000" font-family="sans-serif" font-size="39" lengthAdjust="spacing" textLength="384.8013" x="637.2979" y="1886.6572">No of Frequencies = 5</text><rect fill="#F1F1F1" height="150.5625" rx="37.5" ry="37.5" style="stroke:#181818;stroke-width:1.5;" width="346.1719" x="213.126" y="1746.3633"/><text fill="#000000" font-family="sans-serif" font-size="36" lengthAdjust="spacing" textLength="250.1016" x="243.126" y="1813.7344">Adjust Mesh for</text><text fill="#000000" font-family="sans-serif" font-size="36" lengthAdjust="spacing" textLength="286.1719" x="243.126" y="1859.0156">Frequency Range</text><path d="M581.2412,1958.8125 L581.2412,2010.8672 L521.2412,2022.8672 L581.2412,2034.8672 L581.2412,2086.9219 A0,0 0 0 0 581.2412,2086.9219 L1199.1724,2086.9219 A0,0 0 0 0 1199.1724,2086.9219 L1199.1724,1988.8125 L1169.1724,1958.8125 L581.2412,1958.8125 A0,0 0 0 0 581.2412,1958.8125 " fill="#FEFFDD" style="stroke:#181818;stroke-width:1.5;"/><path d="M1169.1724,1958.8125 L1169.1724,1988.8125 L1199.1724,1988.8125 L1169.1724,1958.8125 " fill="#FEFFDD" style="stroke:#181818;stroke-width:1.5;"/><text fill="#000000" font-family="sans-serif" font-size="39" lengthAdjust="spacing" textLength="344.6587" x="599.2412" y="2014.2979">Get Analysis.dat file</text><text fill="#000000" font-family="sans-serif" font-size="39" lengthAdjust="spacing" textLength="554.9312" x="599.2412" y="2063.3525">Rename to F_keyname_WB.dat</text><rect fill="#F1F1F1" height="105.2813" rx="37.5" ry="37.5" style="stroke:#181818;stroke-width:1.5;" width="270.0586" x="251.1826" y="1970.2266"/><text fill="#000000" font-family="sans-serif" font-size="36" lengthAdjust="spacing" textLength="210.0586" x="281.1826" y="2037.5977">AQWA Solve</text><rect fill="none" height="849.6094" style="stroke:#000000;stroke-width:4.5;" width="2149.1001" x="33" y="2152.9219"/><path d="M420.123,2152.9219 L420.123,2184.75 L390.123,2214.75 L33,2214.75 " fill="none" style="stroke:#000000;stroke-width:4.5;"/><text fill="#000000" font-family="sans-serif" font-size="42" lengthAdjust="spacing" textLength="357.123" x="42" y="2199.5215">Prepare Deck Files</text><path d="M1402.4033,2471.5898 L1402.4033,2746.8633 L2122.1001,2746.8633 L2122.1001,2501.5898 L2092.1001,2471.5898 L1402.4033,2471.5898 " fill="#FEFFDD" style="stroke:#181818;stroke-width:1.5;"/><path d="M2092.1001,2471.5898 L2092.1001,2501.5898 L2122.1001,2501.5898 L2092.1001,2471.5898 " fill="#FEFFDD" style="stroke:#181818;stroke-width:1.5;"/><text fill="#000000" font-family="sans-serif" font-size="39" lengthAdjust="spacing" textLength="656.6968" x="1420.4033" y="2527.0752">Objective: To simple model for AQWA</text><text fill="#000000" font-family="sans-serif" font-size="39" lengthAdjust="spacing" textLength="179.8799" x="1420.4033" y="2576.1299">Programs:</text><text fill="#000000" font-family="sans-serif" font-size="39" lengthAdjust="spacing" textLength="221.0698" x="1431.2388" y="2625.1846">- Workbench</text><text fill="#000000" font-family="sans-serif" font-size="39" lengthAdjust="spacing" textLength="127.9116" x="1420.4033" y="2674.2393">Output:</text><text fill="#000000" font-family="sans-serif" font-size="39" lengthAdjust="spacing" textLength="409.6714" x="1431.2388" y="2723.2939">- F_keyname_SIMP.dat</text><path d="M634.2656,2263.3359 L634.2656,2315.3906 L574.2656,2327.3906 L634.2656,2339.3906 L634.2656,2391.4453 A0,0 0 0 0 634.2656,2391.4453 L1042.0195,2391.4453 A0,0 0 0 0 1042.0195,2391.4453 L1042.0195,2293.3359 L1012.0195,2263.3359 L634.2656,2263.3359 A0,0 0 0 0 634.2656,2263.3359 " fill="#FEFFDD" style="stroke:#181818;stroke-width:1.5;"/><path d="M1012.0195,2263.3359 L1012.0195,2293.3359 L1042.0195,2293.3359 L1012.0195,2263.3359 " fill="#FEFFDD" style="stroke:#181818;stroke-width:1.5;"/><text fill="#000000" font-family="sans-serif" font-size="39" lengthAdjust="spacing" textLength="344.7539" x="652.2656" y="2318.8213">au_engine; file_split</text><text fill="#000000" font-family="sans-serif" font-size="39" lengthAdjust="spacing" textLength="344.6587" x="652.2656" y="2367.876">output: *.DECK files</text><rect fill="#F1F1F1" height="105.2813" rx="37.5" ry="37.5" style="stroke:#181818;stroke-width:1.5;" width="376.1074" x="198.1582" y="2274.75"/><text fill="#000000" font-family="sans-serif" font-size="36" lengthAdjust="spacing" textLength="306.1055" x="238.1602" y="2342.1211">Prepare Deck Files</text><path d="M637.2627,2440.0313 L637.2627,2492.0859 L577.2627,2504.0859 L637.2627,2516.0859 L637.2627,2568.1406 A0,0 0 0 0 637.2627,2568.1406 L1372.4033,2568.1406 A0,0 0 0 0 1372.4033,2568.1406 L1372.4033,2470.0313 L1342.4033,2440.0313 L637.2627,2440.0313 A0,0 0 0 0 637.2627,2440.0313 " fill="#FEFFDD" style="stroke:#181818;stroke-width:1.5;"/><path d="M1342.4033,2440.0313 L1342.4033,2470.0313 L1372.4033,2470.0313 L1342.4033,2440.0313 " fill="#FEFFDD" style="stroke:#181818;stroke-width:1.5;"/><text fill="#000000" font-family="sans-serif" font-size="39" lengthAdjust="spacing" textLength="672.1406" x="655.2627" y="2495.5166">au_engine; file_edit, concatenate array</text><text fill="#000000" font-family="sans-serif" font-size="39" lengthAdjust="spacing" textLength="344.6587" x="655.2627" y="2544.5713">output: *.DECK files</text><rect fill="#F1F1F1" height="105.2813" rx="37.5" ry="37.5" style="stroke:#181818;stroke-width:1.5;" width="382.1016" x="195.1611" y="2451.4453"/><text fill="#000000" font-family="sans-serif" font-size="36" lengthAdjust="spacing" textLength="322.1016" x="225.1611" y="2518.8164">Combine Deck Files</text><path d="M769.4238,2673.1406 L769.4238,2725.1953 L709.4238,2737.1953 L769.4238,2749.1953 L769.4238,2801.25 A0,0 0 0 0 769.4238,2801.25 L1292.0068,2801.25 A0,0 0 0 0 1292.0068,2801.25 L1292.0068,2703.1406 L1262.0068,2673.1406 L769.4238,2673.1406 A0,0 0 0 0 769.4238,2673.1406 " fill="#FEFFDD" style="stroke:#181818;stroke-width:1.5;"/><path d="M1262.0068,2673.1406 L1262.0068,2703.1406 L1292.0068,2703.1406 L1262.0068,2673.1406 " fill="#FEFFDD" style="stroke:#181818;stroke-width:1.5;"/><text fill="#000000" font-family="sans-serif" font-size="39" lengthAdjust="spacing" textLength="177.7852" x="787.4238" y="2728.626">CoG node</text><text fill="#000000" font-family="sans-serif" font-size="39" lengthAdjust="spacing" textLength="459.583" x="787.4238" y="2777.6807">Additional nodes for RAOs</text><rect fill="#F1F1F1" height="105.2813" rx="37.5" ry="37.5" style="stroke:#181818;stroke-width:1.5;" width="646.4238" x="63" y="2684.5547"/><text fill="#000000" font-family="sans-serif" font-size="36" lengthAdjust="spacing" textLength="586.4238" x="93" y="2751.9258">Add CoG node and additional Nodes</text><path d="M735.3486,2874.3633 L735.3486,2901.8906 L675.3486,2913.8906 L735.3486,2925.8906 L735.3486,2953.418 A0,0 0 0 0 735.3486,2953.418 L874.1968,2953.418 A0,0 0 0 0 874.1968,2953.418 L874.1968,2904.3633 L844.1968,2874.3633 L735.3486,2874.3633 A0,0 0 0 0 735.3486,2874.3633 " fill="#FEFFDD" style="stroke:#181818;stroke-width:1.5;"/><path d="M844.1968,2874.3633 L844.1968,2904.3633 L874.1968,2904.3633 L844.1968,2874.3633 " fill="#FEFFDD" style="stroke:#181818;stroke-width:1.5;"/><text fill="#000000" font-family="sans-serif" font-size="39" lengthAdjust="spacing" textLength="75.8481" x="753.3486" y="2929.8486">TBA</text><rect fill="#F1F1F1" height="105.2813" rx="37.5" ry="37.5" style="stroke:#181818;stroke-width:1.5;" width="578.2734" x="97.0752" y="2861.25"/><text fill="#000000" font-family="sans-serif" font-size="36" lengthAdjust="spacing" textLength="518.2734" x="127.0752" y="2928.6211">Add mass and intertia properties</text><rect fill="none" height="665.6133" style="stroke:#000000;stroke-width:4.5;" width="2015.1035" x="139.1543" y="3032.5313"/><path d="M540.2227,3032.5313 L540.2227,3064.3594 L510.2227,3094.3594 L139.1543,3094.3594 " fill="none" style="stroke:#000000;stroke-width:4.5;"/><text fill="#000000" font-family="sans-serif" font-size="42" lengthAdjust="spacing" textLength="371.0684" x="148.1543" y="3079.1309">AQWA Hydrostatics</text><path d="M1272.6621,3310.6406 L1272.6621,3487.8047 L2094.2578,3487.8047 L2094.2578,3340.6406 L2064.2578,3310.6406 L1272.6621,3310.6406 " fill="#FEFFDD" style="stroke:#181818;stroke-width:1.5;"/><path d="M2064.2578,3310.6406 L2064.2578,3340.6406 L2094.2578,3340.6406 L2064.2578,3310.6406 " fill="#FEFFDD" style="stroke:#181818;stroke-width:1.5;"/><text fill="#000000" font-family="sans-serif" font-size="39" lengthAdjust="spacing" textLength="758.5957" x="1290.6621" y="3366.126">Objective: To create mesh model for AQWA</text><text fill="#000000" font-family="sans-serif" font-size="39" lengthAdjust="spacing" textLength="179.8799" x="1290.6621" y="3415.1807">Programs:</text><text fill="#000000" font-family="sans-serif" font-size="39" lengthAdjust="spacing" textLength="221.0698" x="1301.4976" y="3464.2354">- Workbench</text><path d="M625.2656,3158.4727 L625.2656,3186 L565.2656,3198 L625.2656,3210 L625.2656,3237.5273 A0,0 0 0 0 625.2656,3237.5273 L764.1138,3237.5273 A0,0 0 0 0 764.1138,3237.5273 L764.1138,3188.4727 L734.1138,3158.4727 L625.2656,3158.4727 A0,0 0 0 0 625.2656,3158.4727 " fill="#FEFFDD" style="stroke:#181818;stroke-width:1.5;"/><path d="M734.1138,3158.4727 L734.1138,3188.4727 L764.1138,3188.4727 L734.1138,3158.4727 " fill="#FEFFDD" style="stroke:#181818;stroke-width:1.5;"/><text fill="#000000" font-family="sans-serif" font-size="39" lengthAdjust="spacing" textLength="75.8481" x="643.2656" y="3213.958">TBA</text><rect fill="#F1F1F1" height="105.2813" rx="37.5" ry="37.5" style="stroke:#181818;stroke-width:1.5;" width="358.1074" x="207.1582" y="3145.3594"/><text fill="#000000" font-family="sans-serif" font-size="36" lengthAdjust="spacing" textLength="298.1074" x="237.1582" y="3212.7305">Solve Hydrostatics</text><path d="M663.2695,3359.6953 L663.2695,3387.2227 L603.2695,3399.2227 L663.2695,3411.2227 L663.2695,3438.75 A0,0 0 0 0 663.2695,3438.75 L1149.0044,3438.75 A0,0 0 0 0 1149.0044,3438.75 L1149.0044,3389.6953 L1119.0044,3359.6953 L663.2695,3359.6953 A0,0 0 0 0 663.2695,3359.6953 " fill="#FEFFDD" style="stroke:#181818;stroke-width:1.5;"/><path d="M1119.0044,3359.6953 L1119.0044,3389.6953 L1149.0044,3389.6953 L1119.0044,3359.6953 " fill="#FEFFDD" style="stroke:#181818;stroke-width:1.5;"/><text fill="#000000" font-family="sans-serif" font-size="39" lengthAdjust="spacing" textLength="422.7349" x="681.2695" y="3415.1807">Equal to displaced mass</text><rect fill="#F1F1F1" height="105.2813" rx="37.5" ry="37.5" style="stroke:#181818;stroke-width:1.5;" width="434.1152" x="169.1543" y="3346.582"/><text fill="#000000" font-family="sans-serif" font-size="36" lengthAdjust="spacing" textLength="374.1152" x="199.1543" y="3413.9531">Correct Mass Definition</text><path d="M657.2754,3569.9766 L657.2754,3597.5039 L597.2754,3609.5039 L657.2754,3621.5039 L657.2754,3649.0313 A0,0 0 0 0 657.2754,3649.0313 L1242.6621,3649.0313 A0,0 0 0 0 1242.6621,3649.0313 L1242.6621,3599.9766 L1212.6621,3569.9766 L657.2754,3569.9766 A0,0 0 0 0 657.2754,3569.9766 " fill="#FEFFDD" style="stroke:#181818;stroke-width:1.5;"/><path d="M1212.6621,3569.9766 L1212.6621,3599.9766 L1242.6621,3599.9766 L1212.6621,3569.9766 " fill="#FEFFDD" style="stroke:#181818;stroke-width:1.5;"/><text fill="#000000" font-family="sans-serif" font-size="39" lengthAdjust="spacing" textLength="522.3867" x="675.2754" y="3625.4619">Ensure CoG is inline with CoB</text><rect fill="#F1F1F1" height="105.2813" rx="37.5" ry="37.5" style="stroke:#181818;stroke-width:1.5;" width="422.127" x="175.1484" y="3556.8633"/><text fill="#000000" font-family="sans-serif" font-size="36" lengthAdjust="spacing" textLength="362.127" x="205.1484" y="3624.2344">Correct CoG Definition</text><rect fill="none" height="512.1563" style="stroke:#000000;stroke-width:4.5;" width="2327.4961" x="77.0947" y="3728.1445"/><path d="M415.1836,3728.1445 L415.1836,3759.9727 L385.1836,3789.9727 L77.0947,3789.9727 " fill="none" style="stroke:#000000;stroke-width:4.5;"/><text fill="#000000" font-family="sans-serif" font-size="42" lengthAdjust="spacing" textLength="308.0889" x="86.0947" y="3774.7441">AQWA Damping</text><path d="M1427.3994,3849.9727 L1427.3994,4174.3008 L2344.5908,4174.3008 L2344.5908,3879.9727 L2314.5908,3849.9727 L1427.3994,3849.9727 " fill="#FEFFDD" style="stroke:#181818;stroke-width:1.5;"/><path d="M2314.5908,3849.9727 L2314.5908,3879.9727 L2344.5908,3879.9727 L2314.5908,3849.9727 " fill="#FEFFDD" style="stroke:#181818;stroke-width:1.5;"/><text fill="#000000" font-family="sans-serif" font-size="39" lengthAdjust="spacing" textLength="854.1914" x="1445.3994" y="3905.458">Objective: Define appropriate additional damping:</text><text fill="#000000" font-family="sans-serif" font-size="39" lengthAdjust="spacing" textLength="179.8799" x="1445.3994" y="3954.5127">Programs:</text><text fill="#000000" font-family="sans-serif" font-size="39" lengthAdjust="spacing" textLength="221.0698" x="1456.2349" y="4003.5674">- Workbench</text><text fill="#000000" font-family="sans-serif" font-size="39" lengthAdjust="spacing" textLength="190.7344" x="1456.2349" y="4052.6221">- Damping:</text><text fill="#000000" font-family="sans-serif" font-size="39" lengthAdjust="spacing" textLength="329.4624" x="1477.9058" y="4101.6768">- percent: AQR/LIS</text><text fill="#000000" font-family="sans-serif" font-size="39" lengthAdjust="spacing" textLength="346.8296" x="1477.9058" y="4150.7314">- absolute: AQR/LIS</text><path d="M725.3291,3849.9727 L725.3291,4000.1367 L665.3291,4012.1367 L725.3291,4024.1367 L725.3291,4174.3008 A0,0 0 0 0 725.3291,4174.3008 L1397.3994,4174.3008 A0,0 0 0 0 1397.3994,4174.3008 L1397.3994,3879.9727 L1367.3994,3849.9727 L725.3291,3849.9727 A0,0 0 0 0 725.3291,3849.9727 " fill="#FEFFDD" style="stroke:#181818;stroke-width:1.5;"/><path d="M1367.3994,3849.9727 L1367.3994,3879.9727 L1397.3994,3879.9727 L1367.3994,3849.9727 " fill="#FEFFDD" style="stroke:#181818;stroke-width:1.5;"/><text fill="#000000" font-family="sans-serif" font-size="39" lengthAdjust="spacing" textLength="609.0703" x="743.3291" y="3905.458">For Typical ship-shaped structures:</text><text fill="#000000" font-family="sans-serif" font-size="39" lengthAdjust="spacing" textLength="190.7344" x="786.6709" y="3954.5127">- Roll: 10%</text><text fill="#000000" font-family="sans-serif" font-size="39" lengthAdjust="spacing" textLength="188.5635" x="786.6709" y="4003.5674">- Pitch: 8%</text><text fill="#000000" font-family="sans-serif" font-size="39" lengthAdjust="spacing" textLength="314.2471" x="743.3291" y="4052.6221">For TLP or SPAR:</text><text fill="#000000" font-family="sans-serif" font-size="39" lengthAdjust="spacing" textLength="169.0444" x="786.6709" y="4101.6768">- Roll: 5%</text><text fill="#000000" font-family="sans-serif" font-size="39" lengthAdjust="spacing" textLength="188.5635" x="786.6709" y="4150.7314">- Pitch: 5%</text><rect fill="#F1F1F1" height="105.2813" rx="37.5" ry="37.5" style="stroke:#181818;stroke-width:1.5;" width="558.2344" x="107.0947" y="3959.4961"/><text fill="#000000" font-family="sans-serif" font-size="36" lengthAdjust="spacing" textLength="498.2344" x="137.0947" y="4026.8672">Define ROll and Pitch Damping</text><rect fill="none" height="315.9375" style="stroke:#000000;stroke-width:4.5;" width="1614.0542" x="245.1855" y="4270.3008"/><path d="M945.0938,4270.3008 L945.0938,4302.1289 L915.0938,4332.1289 L245.1855,4332.1289 " fill="none" style="stroke:#000000;stroke-width:4.5;"/><text fill="#000000" font-family="sans-serif" font-size="42" lengthAdjust="spacing" textLength="669.9082" x="254.1855" y="4316.9004">AQWA Frequency - Comprehensive</text><path d="M1307.1064,4392.1289 L1307.1064,4520.2383 L1799.2397,4520.2383 L1799.2397,4422.1289 L1769.2397,4392.1289 L1307.1064,4392.1289 " fill="#FEFFDD" style="stroke:#181818;stroke-width:1.5;"/><path d="M1769.2397,4392.1289 L1769.2397,4422.1289 L1799.2397,4422.1289 L1769.2397,4392.1289 " fill="#FEFFDD" style="stroke:#181818;stroke-width:1.5;"/><text fill="#000000" font-family="sans-serif" font-size="39" lengthAdjust="spacing" textLength="179.8799" x="1325.1064" y="4447.6143">Programs:</text><text fill="#000000" font-family="sans-serif" font-size="39" lengthAdjust="spacing" textLength="418.2979" x="1335.9419" y="4496.6689">- AQWA Command Line</text><path d="M557.2383,4392.1289 L557.2383,4444.1836 L497.2383,4456.1836 L557.2383,4468.1836 L557.2383,4520.2383 A0,0 0 0 0 557.2383,4520.2383 L1277.1064,4520.2383 A0,0 0 0 0 1277.1064,4520.2383 L1277.1064,4422.1289 L1247.1064,4392.1289 L557.2383,4392.1289 A0,0 0 0 0 557.2383,4392.1289 " fill="#FEFFDD" style="stroke:#181818;stroke-width:1.5;"/><path d="M1247.1064,4392.1289 L1247.1064,4422.1289 L1277.1064,4422.1289 L1247.1064,4392.1289 " fill="#FEFFDD" style="stroke:#181818;stroke-width:1.5;"/><text fill="#000000" font-family="sans-serif" font-size="39" lengthAdjust="spacing" textLength="656.8682" x="575.2383" y="4447.6143">Frequency resolution to identify peaks</text><text fill="#000000" font-family="sans-serif" font-size="39" lengthAdjust="spacing" textLength="578.8872" x="575.2383" y="4496.6689">Frequency definition around peak</text><rect fill="#F1F1F1" height="105.2813" rx="37.5" ry="37.5" style="stroke:#181818;stroke-width:1.5;" width="222.0527" x="275.1855" y="4403.543"/><text fill="#000000" font-family="sans-serif" font-size="36" lengthAdjust="spacing" textLength="162.0527" x="305.1855" y="4470.9141">Mesh size</text><rect fill="none" height="740.7422" style="stroke:#000000;stroke-width:4.5;" width="1541.4097" x="176.165" y="4616.2383"/><path d="M577.2744,4616.2383 L577.2744,4648.0664 L547.2744,4678.0664 L176.165,4678.0664 " fill="none" style="stroke:#000000;stroke-width:4.5;"/><text fill="#000000" font-family="sans-serif" font-size="42" lengthAdjust="spacing" textLength="371.1094" x="185.165" y="4662.8379">AQWA Postprocess</text><path d="M1223.8652,4886.1797 L1223.8652,5161.4531 L1657.5747,5161.4531 L1657.5747,4916.1797 L1627.5747,4886.1797 L1223.8652,4886.1797 " fill="#FEFFDD" style="stroke:#181818;stroke-width:1.5;"/><path d="M1627.5747,4886.1797 L1627.5747,4916.1797 L1657.5747,4916.1797 L1627.5747,4886.1797 " fill="#FEFFDD" style="stroke:#181818;stroke-width:1.5;"/><text fill="#000000" font-family="sans-serif" font-size="39" lengthAdjust="spacing" textLength="179.8799" x="1241.8652" y="4941.665">Programs:</text><text fill="#000000" font-family="sans-serif" font-size="39" lengthAdjust="spacing" textLength="359.874" x="1252.7007" y="4990.7197">- python digitalmodel</text><text fill="#000000" font-family="sans-serif" font-size="39" lengthAdjust="spacing" textLength="127.9116" x="1252.7007" y="5039.7744">Output:</text><text fill="#000000" font-family="sans-serif" font-size="39" lengthAdjust="spacing" textLength="205.8354" x="1263.5361" y="5088.8291">- RAOs.xlsx</text><text fill="#000000" font-family="sans-serif" font-size="39" lengthAdjust="spacing" textLength="99.728" x="1263.5361" y="5137.8838">- .png</text><path d="M502.2188,4726.6523 L502.2188,4778.707 L442.2188,4790.707 L502.2188,4802.707 L502.2188,4854.7617 A0,0 0 0 0 502.2188,4854.7617 L1193.8652,4854.7617 A0,0 0 0 0 1193.8652,4854.7617 L1193.8652,4756.6523 L1163.8652,4726.6523 L502.2188,4726.6523 A0,0 0 0 0 502.2188,4726.6523 " fill="#FEFFDD" style="stroke:#181818;stroke-width:1.5;"/><path d="M1163.8652,4726.6523 L1163.8652,4756.6523 L1193.8652,4756.6523 L1163.8652,4726.6523 " fill="#FEFFDD" style="stroke:#181818;stroke-width:1.5;"/><text fill="#000000" font-family="sans-serif" font-size="39" lengthAdjust="spacing" textLength="355.4751" x="520.2188" y="4782.1377">Model: Basic checks</text><text fill="#000000" font-family="sans-serif" font-size="39" lengthAdjust="spacing" textLength="628.6465" x="520.2188" y="4831.1924">RAOs: Amplitude and Phase checks</text><rect fill="#F1F1F1" height="105.2813" rx="37.5" ry="37.5" style="stroke:#181818;stroke-width:1.5;" width="112.0137" x="330.2051" y="4738.0664"/><text fill="#000000" font-family="sans-serif" font-size="36" lengthAdjust="spacing" textLength="52.0137" x="360.2051" y="4805.4375">QA</text><path d="M551.2354,4959.7617 L551.2354,5011.8164 L491.2354,5023.8164 L551.2354,5035.8164 L551.2354,5087.8711 A0,0 0 0 0 551.2354,5087.8711 L1180.021,5087.8711 A0,0 0 0 0 1180.021,5087.8711 L1180.021,4989.7617 L1150.021,4959.7617 L551.2354,4959.7617 A0,0 0 0 0 551.2354,4959.7617 " fill="#FEFFDD" style="stroke:#181818;stroke-width:1.5;"/><path d="M1150.021,4959.7617 L1150.021,4989.7617 L1180.021,4989.7617 L1150.021,4959.7617 " fill="#FEFFDD" style="stroke:#181818;stroke-width:1.5;"/><text fill="#000000" font-family="sans-serif" font-size="39" lengthAdjust="spacing" textLength="565.7856" x="569.2354" y="5015.2471">DOF 1, 2, 3 (Headings 0, 45, 90)</text><text fill="#000000" font-family="sans-serif" font-size="39" lengthAdjust="spacing" textLength="565.7856" x="569.2354" y="5064.3018">DOF 4, 5, 6 (Headings 0, 45, 90)</text><rect fill="#F1F1F1" height="105.2813" rx="37.5" ry="37.5" style="stroke:#181818;stroke-width:1.5;" width="210.0469" x="281.1885" y="4971.1758"/><text fill="#000000" font-family="sans-serif" font-size="36" lengthAdjust="spacing" textLength="150.0469" x="311.1885" y="5038.5469">RAO Plot</text><path d="M626.2588,5192.8711 L626.2588,5244.9258 L566.2588,5256.9258 L626.2588,5268.9258 L626.2588,5320.9805 A0,0 0 0 0 626.2588,5320.9805 L710.9487,5320.9805 A0,0 0 0 0 710.9487,5320.9805 L710.9487,5222.8711 L680.9487,5192.8711 L626.2588,5192.8711 A0,0 0 0 0 626.2588,5192.8711 " fill="#FEFFDD" style="stroke:#181818;stroke-width:1.5;"/><path d="M680.9487,5192.8711 L680.9487,5222.8711 L710.9487,5222.8711 L680.9487,5192.8711 " fill="#FEFFDD" style="stroke:#181818;stroke-width:1.5;"/><text fill="#000000" font-family="sans-serif" font-size="39" lengthAdjust="spacing" textLength="21.6899" x="644.2588" y="5248.3564">?</text><text fill="#000000" font-family="sans-serif" font-size="39" lengthAdjust="spacing" textLength="21.6899" x="644.2588" y="5297.4111">?</text><rect fill="#F1F1F1" height="105.2813" rx="37.5" ry="37.5" style="stroke:#181818;stroke-width:1.5;" width="360.0938" x="206.165" y="5204.2852"/><text fill="#000000" font-family="sans-serif" font-size="36" lengthAdjust="spacing" textLength="300.0938" x="236.165" y="5271.6563">RAOs Comparison</text><ellipse cx="386.2119" cy="5449.9805" fill="none" rx="33" ry="33" style="stroke:#222222;stroke-width:3.0;"/><ellipse cx="386.2119" cy="5449.9805" fill="#222222" rx="18" ry="18" style="stroke:#222222;stroke-width:3.0;"/><line style="stroke:#181818;stroke-width:3.0;" x1="386.2119" x2="386.2119" y1="632.9297" y2="749.3438"/><polygon fill="#181818" points="374.2119,719.3438,386.2119,749.3438,398.2119,719.3438,386.2119,731.3438" style="stroke:#181818;stroke-width:3.0;"/><line style="stroke:#181818;stroke-width:3.0;" x1="386.2119" x2="386.2119" y1="854.625" y2="971.0391"/><polygon fill="#181818" points="374.2119,941.0391,386.2119,971.0391,398.2119,941.0391,386.2119,953.0391" style="stroke:#181818;stroke-width:3.0;"/><line style="stroke:#181818;stroke-width:3.0;" x1="386.2119" x2="386.2119" y1="317.2383" y2="527.6484"/><polygon fill="#181818" points="374.2119,497.6484,386.2119,527.6484,398.2119,497.6484,386.2119,509.6484" style="stroke:#181818;stroke-width:3.0;"/><line style="stroke:#181818;stroke-width:3.0;" x1="386.2119" x2="386.2119" y1="1371.8438" y2="1462.3125"/><polygon fill="#181818" points="374.2119,1432.3125,386.2119,1462.3125,398.2119,1432.3125,386.2119,1444.3125" style="stroke:#181818;stroke-width:3.0;"/><line style="stroke:#181818;stroke-width:3.0;" x1="386.2119" x2="386.2119" y1="1567.5938" y2="1746.3633"/><polygon fill="#181818" points="374.2119,1716.3633,386.2119,1746.3633,398.2119,1716.3633,386.2119,1728.3633" style="stroke:#181818;stroke-width:3.0;"/><line style="stroke:#181818;stroke-width:3.0;" x1="386.2119" x2="386.2119" y1="1896.9258" y2="1970.2266"/><polygon fill="#181818" points="374.2119,1940.2266,386.2119,1970.2266,398.2119,1940.2266,386.2119,1952.2266" style="stroke:#181818;stroke-width:3.0;"/><line style="stroke:#181818;stroke-width:3.0;" x1="386.2119" x2="386.2119" y1="1076.3203" y2="1266.5625"/><polygon fill="#181818" points="374.2119,1236.5625,386.2119,1266.5625,398.2119,1236.5625,386.2119,1248.5625" style="stroke:#181818;stroke-width:3.0;"/><line style="stroke:#181818;stroke-width:3.0;" x1="386.2119" x2="386.2119" y1="2380.0313" y2="2451.4453"/><polygon fill="#181818" points="374.2119,2421.4453,386.2119,2451.4453,398.2119,2421.4453,386.2119,2433.4453" style="stroke:#181818;stroke-width:3.0;"/><line style="stroke:#181818;stroke-width:3.0;" x1="386.2119" x2="386.2119" y1="2556.7266" y2="2684.5547"/><polygon fill="#181818" points="374.2119,2654.5547,386.2119,2684.5547,398.2119,2654.5547,386.2119,2666.5547" style="stroke:#181818;stroke-width:3.0;"/><line style="stroke:#181818;stroke-width:3.0;" x1="386.2119" x2="386.2119" y1="2789.8359" y2="2861.25"/><polygon fill="#181818" points="374.2119,2831.25,386.2119,2861.25,398.2119,2831.25,386.2119,2843.25" style="stroke:#181818;stroke-width:3.0;"/><line style="stroke:#181818;stroke-width:3.0;" x1="386.2119" x2="386.2119" y1="2075.5078" y2="2274.75"/><polygon fill="#181818" points="374.2119,2244.75,386.2119,2274.75,398.2119,2244.75,386.2119,2256.75" style="stroke:#181818;stroke-width:3.0;"/><line style="stroke:#181818;stroke-width:3.0;" x1="386.2119" x2="386.2119" y1="3250.6406" y2="3346.582"/><polygon fill="#181818" points="374.2119,3316.582,386.2119,3346.582,398.2119,3316.582,386.2119,3328.582" style="stroke:#181818;stroke-width:3.0;"/><line style="stroke:#181818;stroke-width:3.0;" x1="386.2119" x2="386.2119" y1="3451.8633" y2="3556.8633"/><polygon fill="#181818" points="374.2119,3526.8633,386.2119,3556.8633,398.2119,3526.8633,386.2119,3538.8633" style="stroke:#181818;stroke-width:3.0;"/><line style="stroke:#181818;stroke-width:3.0;" x1="386.2119" x2="386.2119" y1="2966.5313" y2="3145.3594"/><polygon fill="#181818" points="374.2119,3115.3594,386.2119,3145.3594,398.2119,3115.3594,386.2119,3127.3594" style="stroke:#181818;stroke-width:3.0;"/><line style="stroke:#181818;stroke-width:3.0;" x1="386.2119" x2="386.2119" y1="3662.1445" y2="3959.4961"/><polygon fill="#181818" points="374.2119,3929.4961,386.2119,3959.4961,398.2119,3929.4961,386.2119,3941.4961" style="stroke:#181818;stroke-width:3.0;"/><line style="stroke:#181818;stroke-width:3.0;" x1="386.2119" x2="386.2119" y1="4064.7773" y2="4403.543"/><polygon fill="#181818" points="374.2119,4373.543,386.2119,4403.543,398.2119,4373.543,386.2119,4385.543" style="stroke:#181818;stroke-width:3.0;"/><line style="stroke:#181818;stroke-width:3.0;" x1="386.2119" x2="386.2119" y1="4843.3477" y2="4971.1758"/><polygon fill="#181818" points="374.2119,4941.1758,386.2119,4971.1758,398.2119,4941.1758,386.2119,4953.1758" style="stroke:#181818;stroke-width:3.0;"/><line style="stroke:#181818;stroke-width:3.0;" x1="386.2119" x2="386.2119" y1="5076.457" y2="5204.2852"/><polygon fill="#181818" points="374.2119,5174.2852,386.2119,5204.2852,398.2119,5174.2852,386.2119,5186.2852" style="stroke:#181818;stroke-width:3.0;"/><line style="stroke:#181818;stroke-width:3.0;" x1="386.2119" x2="386.2119" y1="4508.8242" y2="4738.0664"/><polygon fill="#181818" points="374.2119,4708.0664,386.2119,4738.0664,398.2119,4708.0664,386.2119,4720.0664" style="stroke:#181818;stroke-width:3.0;"/><line style="stroke:#181818;stroke-width:3.0;" x1="386.2119" x2="386.2119" y1="5309.5664" y2="5416.9805"/><polygon fill="#181818" points="374.2119,5386.9805,386.2119,5416.9805,398.2119,5386.9805,386.2119,5398.9805" style="stroke:#181818;stroke-width:3.0;"/><text fill="#888888" font-family="sans-serif" font-size="30" lengthAdjust="spacing" textLength="266.9092" x="1169.7334" y="5511.123">2024.08.27 at 05:13</text><text fill="#888888" font-family="sans-serif" font-size="30" lengthAdjust="spacing" textLength="220.1221" x="1193.127" y="5548.8574">aqwa_raos.puml</text><!--SRC=[pLZhJnj74F_klsA4X88huv87LUiegWo440MmiLEXIfNGSZlsRRotUzdT0vog_tjdrg-GE_0PKQdt2NOUEu_VFDO-4HhXTSDFbCc54na45JGUM2VH3MnXvA5r1XsytA_c-PogP6BGUtXLpN1ejNNWK9R88fcCtUmAPlbiCn5ien69qBsuxCAWs_Fmb-axcw0i73OQFWWN6WsWpzY0uDGu3V5V_dhNNp09wWOxf0rSOK0O2Q88h1fP7HzwK2RgNygTaohVMVuBkz3L6aPAO-GLFb4ATjfIX2QCh2DbaHT9ELiniuTS8zELDR3r0Ms6mKstuE-LqcgJ5n_vEARGV6_5off1geoj8WnpaU2X5YghebvQDxb6awGbOgy8UH4wK2KrmQaH6RRnhcnbP2029CB0DO8Qes-1JwHD04FIlYTmFppyTVeEAKm8Ym2zhHiUpeSlt8ZSzU1JMsW9YJM6qbtY7Sx8f0rISOCm5ha70fYzGQVfxtL63fKP4mA7i-jgctXeisjb4AJoYKDYImi6KRHOcM11W9zfdZkorWx6EfpQH32gweSgpvszKn7nUYuCEyeakf1qFqWdHg5P4bkaP15Tpgw1MzBYIBgDRJhHzXQ-lTjhFcBvFnN540ZTg5McZ23ziRBFqATmPYNg3MhaVdbJaDd5Z3Lbh8bBytvTrogkfrN9vS7Leb2a2EjIsJqV_ZdS7FN38dVSMlymjy84fAHOgN0jWBdF2IFqr2iFlPpJu6lVIRrFIWOiEb81fqgsAm90R365NdqZd7Z8Pn7ccWpEQatjlYpnSMmi5NzCksOeldVEEWyx7tgzy-O3bkIMR85CK1YucKV3WX9yOyv_hGz7LtufV9ZPIn1P4euTVYqeyLCO23EkN-W7mbCg2DhP8WBbNf1YCedpPhIynF4b523gGdwLdWNzHpzcOmdiQ6acSS0xs7_0s-_SvVeQMdrJtoCkqUxS8ePp77qbhW4ot84wsV42-rUN1slWN-u7Ynbmn24wvXdxv1RWLPPJF_rFgxzAQEN_yEDPlqu3WBBNjRCZYYiqOnejRsDUhdokLPdBpflLJ-sZzuUVPilBEgiM8-iPZ4AfGelBdmOEuOJaX7DY-YncSXiuj1_eME9ievCoWedwqpcT-Grcz4nBUMYkD3BTHpJn-bd7jiUQKstJFXzqDogZMEOdK-aixSH19Vv_EaYh5XjkJlTiVwOepK7j77a7PvoL8nmfepRQdzv_BGW5rELeaSirxMcp1DUzbY7sb5iDROKOfHNlYvhhybQ5b8uE7WL65IwEH9RJW7qQ9ABrL6YyH-PEnLfUbOUSgUuyLvibuj53AYEL2Yb1GosZUp7u-VJZi9fBN7khYu3LR1NvcdivwD6IphNRLo595wRKJjinFrodkQ9dD2tEAj_rgSW9CJwu8WcKKL_f5R_fQ4lgmCkzxGVeqPuE_BfTVUTfdvyqmtvtyFW5-slq_q0lTPtglhDQdNRvtKDRQeh64tgUwyKRRo7D6QVcb1ArBftBRRH-wbQR6KRii7jKzaeIsjHeIi0J4_-8c5nMESqw_XqZIcpUnFlK1NF-YSFxvmfVFWqfwPTgh8BGiQcNsHv-tZ1wQFQrxxI_gwIsSpDUbv6BRkrKn1T1XnThbK32ktCvxcmG5NV6oqyntmFwAQtYLG8FF8hwseRQHXtrZk5b2rwru3NidA3WnxE7lHQysM_1RtlDIe4tBI3gB-i5gYtqiPg4Ktw3qV7xcfDoJVjWyqPZPEdGDRPfVSMThIbzxREpjfGlW5u0BqvEEbcsrMniyuh6k-vEiy6QvbB_0W00]--></g></svg>