<svg xmlns="http://www.w3.org/2000/svg" xmlns:xlink="http://www.w3.org/1999/xlink" contentStyleType="text/css" height="3366px" preserveAspectRatio="none" style="width:2385px;height:3366px;background:#FFFFFF;" version="1.1" viewBox="0 0 2385 3366" width="2385px" zoomAndPan="magnify"><defs/><g><rect fill="#FF6347" height="135.6563" id="_title" rx="22.5" ry="22.5" style="stroke:#FF0000;stroke-width:6.0;" width="303" x="1037.9209" y="45"/><text fill="#000000" font-family="sans-serif" font-size="42" font-weight="bold" lengthAdjust="spacing" textLength="261.3311" x="1052.9209" y="103.5996">AQWA RAOs</text><text fill="#000000" font-family="sans-serif" font-size="42" font-weight="bold" lengthAdjust="spacing" textLength="207.7441" x="1085.5488" y="156.4277">Procedure</text><path d="M370.0576,198.6563 L370.0576,275.2383 L310.0576,287.2383 L370.0576,299.2383 L370.0576,375.8203 A0,0 0 0 0 370.0576,375.8203 L1332.6094,375.8203 A0,0 0 0 0 1332.6094,375.8203 L1332.6094,228.6563 L1302.6094,198.6563 L370.0576,198.6563 A0,0 0 0 0 370.0576,198.6563 " fill="#FEFFDD" style="stroke:#181818;stroke-width:1.5;"/><path d="M1302.6094,198.6563 L1302.6094,228.6563 L1332.6094,228.6563 L1302.6094,198.6563 " fill="#FEFFDD" style="stroke:#181818;stroke-width:1.5;"/><text fill="#000000" font-family="sans-serif" font-size="39" lengthAdjust="spacing" textLength="899.5518" x="388.0576" y="254.1416">Objective: To run and automate RAO runs in AQWA</text><text fill="#000000" font-family="sans-serif" font-size="39" lengthAdjust="spacing" textLength="112.7153" x="388.0576" y="303.1963">Notes:</text><text fill="#000000" font-family="sans-serif" font-size="39" lengthAdjust="spacing" textLength="500.6206" x="398.8931" y="352.251">- All files in ascii (.dat) format</text><ellipse cx="280.0576" cy="287.2383" fill="#222222" rx="30" ry="30" style="stroke:#222222;stroke-width:3.0;"/><rect fill="none" height="717.9141" style="stroke:#000000;stroke-width:4.5;" width="1712.8096" x="71.9971" y="405.8203"/><path d="M286.3828,405.8203 L286.3828,437.6484 L256.3828,467.6484 L71.9971,467.6484 " fill="none" style="stroke:#000000;stroke-width:4.5;"/><text fill="#000000" font-family="sans-serif" font-size="42" lengthAdjust="spacing" textLength="184.3857" x="80.9971" y="452.4199">Geometry</text><path d="M1416.895,688.875 L1416.895,915.0938 L1724.8066,915.0938 L1724.8066,718.875 L1694.8066,688.875 L1416.895,688.875 " fill="#FEFFDD" style="stroke:#181818;stroke-width:1.5;"/><path d="M1694.8066,688.875 L1694.8066,718.875 L1724.8066,718.875 L1694.8066,688.875 " fill="#FEFFDD" style="stroke:#181818;stroke-width:1.5;"/><text fill="#000000" font-family="sans-serif" font-size="39" lengthAdjust="spacing" textLength="179.8799" x="1434.895" y="744.3604">Programs:</text><text fill="#000000" font-family="sans-serif" font-size="39" lengthAdjust="spacing" textLength="125.7217" x="1445.7305" y="793.415">- Rhino</text><text fill="#000000" font-family="sans-serif" font-size="39" lengthAdjust="spacing" textLength="234.0762" x="1445.7305" y="842.4697">- SpaceClaim</text><text fill="#000000" font-family="sans-serif" font-size="39" lengthAdjust="spacing" textLength="221.0698" x="1445.7305" y="891.5244">- Workbench</text><path d="M518.1182,516.2344 L518.1182,568.2891 L458.1182,580.2891 L518.1182,592.2891 L518.1182,644.3438 A0,0 0 0 0 518.1182,644.3438 L1162.1763,644.3438 A0,0 0 0 0 1162.1763,644.3438 L1162.1763,546.2344 L1132.1763,516.2344 L518.1182,516.2344 A0,0 0 0 0 518.1182,516.2344 " fill="#FEFFDD" style="stroke:#181818;stroke-width:1.5;"/><path d="M1132.1763,516.2344 L1132.1763,546.2344 L1162.1763,546.2344 L1132.1763,516.2344 " fill="#FEFFDD" style="stroke:#181818;stroke-width:1.5;"/><text fill="#000000" font-family="sans-serif" font-size="39" lengthAdjust="spacing" textLength="474.7603" x="536.1182" y="571.7197">All surfaces should connect</text><text fill="#000000" font-family="sans-serif" font-size="39" lengthAdjust="spacing" textLength="581.0581" x="536.1182" y="620.7744">Should not have gaps or overlaps</text><rect fill="#F1F1F1" height="105.2813" rx="37.5" ry="37.5" style="stroke:#181818;stroke-width:1.5;" width="356.1211" x="101.9971" y="527.6484"/><text fill="#000000" font-family="sans-serif" font-size="36" lengthAdjust="spacing" textLength="296.1211" x="131.9971" y="595.0195">Prepare Geometry</text><path d="M487.1279,762.457 L487.1279,789.9844 L427.1279,801.9844 L487.1279,813.9844 L487.1279,841.5117 A0,0 0 0 0 487.1279,841.5117 L1386.895,841.5117 A0,0 0 0 0 1386.895,841.5117 L1386.895,792.457 L1356.895,762.457 L487.1279,762.457 A0,0 0 0 0 487.1279,762.457 " fill="#FEFFDD" style="stroke:#181818;stroke-width:1.5;"/><path d="M1356.895,762.457 L1356.895,792.457 L1386.895,792.457 L1356.895,762.457 " fill="#FEFFDD" style="stroke:#181818;stroke-width:1.5;"/><text fill="#000000" font-family="sans-serif" font-size="39" lengthAdjust="spacing" textLength="836.7671" x="505.1279" y="817.9424">Combine discrete hull faces into a single surface</text><rect fill="#F1F1F1" height="105.2813" rx="37.5" ry="37.5" style="stroke:#181818;stroke-width:1.5;" width="294.1406" x="132.9873" y="749.3438"/><text fill="#000000" font-family="sans-serif" font-size="36" lengthAdjust="spacing" textLength="234.1406" x="162.9873" y="816.7148">Single Surface</text><path d="M481.125,959.625 L481.125,1011.6797 L421.125,1023.6797 L481.125,1035.6797 L481.125,1087.7344 A0,0 0 0 0 481.125,1087.7344 L1319.0786,1087.7344 A0,0 0 0 0 1319.0786,1087.7344 L1319.0786,989.625 L1289.0786,959.625 L481.125,959.625 A0,0 0 0 0 481.125,959.625 " fill="#FEFFDD" style="stroke:#181818;stroke-width:1.5;"/><path d="M1289.0786,959.625 L1289.0786,989.625 L1319.0786,989.625 L1289.0786,959.625 " fill="#FEFFDD" style="stroke:#181818;stroke-width:1.5;"/><text fill="#000000" font-family="sans-serif" font-size="39" lengthAdjust="spacing" textLength="643.8237" x="499.125" y="1015.1104">Approximate location (including draft)</text><text fill="#000000" font-family="sans-serif" font-size="39" lengthAdjust="spacing" textLength="774.9536" x="499.125" y="1064.165">Geometry should be in water (i.e. below z=0)</text><rect fill="#F1F1F1" height="105.2813" rx="37.5" ry="37.5" style="stroke:#181818;stroke-width:1.5;" width="282.1348" x="138.9902" y="971.0391"/><text fill="#000000" font-family="sans-serif" font-size="36" lengthAdjust="spacing" textLength="222.1348" x="168.9902" y="1038.4102">Start Location</text><rect fill="none" height="364.9922" style="stroke:#000000;stroke-width:4.5;" width="2277.8701" x="76.9717" y="1153.7344"/><path d="M611.1152,1153.7344 L611.1152,1185.5625 L581.1152,1215.5625 L76.9717,1215.5625 " fill="none" style="stroke:#000000;stroke-width:4.5;"/><text fill="#000000" font-family="sans-serif" font-size="42" lengthAdjust="spacing" textLength="504.1436" x="85.9717" y="1200.334">AQWA Frequency - Simple</text><path d="M1473.2461,1275.5625 L1473.2461,1452.7266 L2294.8418,1452.7266 L2294.8418,1305.5625 L2264.8418,1275.5625 L1473.2461,1275.5625 " fill="#FEFFDD" style="stroke:#181818;stroke-width:1.5;"/><path d="M2264.8418,1275.5625 L2264.8418,1305.5625 L2294.8418,1305.5625 L2264.8418,1275.5625 " fill="#FEFFDD" style="stroke:#181818;stroke-width:1.5;"/><text fill="#000000" font-family="sans-serif" font-size="39" lengthAdjust="spacing" textLength="758.5957" x="1491.2461" y="1331.0479">Objective: To create mesh model for AQWA</text><text fill="#000000" font-family="sans-serif" font-size="39" lengthAdjust="spacing" textLength="179.8799" x="1491.2461" y="1380.1025">Programs:</text><text fill="#000000" font-family="sans-serif" font-size="39" lengthAdjust="spacing" textLength="221.0698" x="1502.0815" y="1429.1572">- Workbench</text><path d="M513.1436,1275.5625 L513.1436,1352.1445 L453.1436,1364.1445 L513.1436,1376.1445 L513.1436,1452.7266 A0,0 0 0 0 513.1436,1452.7266 L1443.2461,1452.7266 A0,0 0 0 0 1443.2461,1452.7266 L1443.2461,1305.5625 L1413.2461,1275.5625 L513.1436,1275.5625 A0,0 0 0 0 513.1436,1275.5625 " fill="#FEFFDD" style="stroke:#181818;stroke-width:1.5;"/><path d="M1413.2461,1275.5625 L1413.2461,1305.5625 L1443.2461,1305.5625 L1413.2461,1275.5625 " fill="#FEFFDD" style="stroke:#181818;stroke-width:1.5;"/><text fill="#000000" font-family="sans-serif" font-size="39" lengthAdjust="spacing" textLength="351.1904" x="531.1436" y="1331.0479">Based on mesh size</text><text fill="#000000" font-family="sans-serif" font-size="39" lengthAdjust="spacing" textLength="867.1025" x="531.1436" y="1380.1025">RAO frequency range covers analysis frequencies</text><text fill="#000000" font-family="sans-serif" font-size="39" lengthAdjust="spacing" textLength="384.8013" x="531.1436" y="1429.1572">No of Frequencies = 5</text><rect fill="#F1F1F1" height="105.2813" rx="37.5" ry="37.5" style="stroke:#181818;stroke-width:1.5;" width="346.1719" x="106.9717" y="1311.5039"/><text fill="#000000" font-family="sans-serif" font-size="36" lengthAdjust="spacing" textLength="286.1719" x="136.9717" y="1378.875">Frequency Range</text><rect fill="none" height="464.3906" style="stroke:#000000;stroke-width:4.5;" width="2015.1035" x="33" y="1548.7266"/><path d="M434.0684,1548.7266 L434.0684,1580.5547 L404.0684,1610.5547 L33,1610.5547 " fill="none" style="stroke:#000000;stroke-width:4.5;"/><text fill="#000000" font-family="sans-serif" font-size="42" lengthAdjust="spacing" textLength="371.0684" x="42" y="1595.3262">AQWA Hydrostatics</text><path d="M1166.5078,1730.7539 L1166.5078,1907.918 L1988.1035,1907.918 L1988.1035,1760.7539 L1958.1035,1730.7539 L1166.5078,1730.7539 " fill="#FEFFDD" style="stroke:#181818;stroke-width:1.5;"/><path d="M1958.1035,1730.7539 L1958.1035,1760.7539 L1988.1035,1760.7539 L1958.1035,1730.7539 " fill="#FEFFDD" style="stroke:#181818;stroke-width:1.5;"/><text fill="#000000" font-family="sans-serif" font-size="39" lengthAdjust="spacing" textLength="758.5957" x="1184.5078" y="1786.2393">Objective: To create mesh model for AQWA</text><text fill="#000000" font-family="sans-serif" font-size="39" lengthAdjust="spacing" textLength="179.8799" x="1184.5078" y="1835.2939">Programs:</text><text fill="#000000" font-family="sans-serif" font-size="39" lengthAdjust="spacing" textLength="221.0698" x="1195.3433" y="1884.3486">- Workbench</text><path d="M557.1152,1674.668 L557.1152,1702.1953 L497.1152,1714.1953 L557.1152,1726.1953 L557.1152,1753.7227 A0,0 0 0 0 557.1152,1753.7227 L1042.8501,1753.7227 A0,0 0 0 0 1042.8501,1753.7227 L1042.8501,1704.668 L1012.8501,1674.668 L557.1152,1674.668 A0,0 0 0 0 557.1152,1674.668 " fill="#FEFFDD" style="stroke:#181818;stroke-width:1.5;"/><path d="M1012.8501,1674.668 L1012.8501,1704.668 L1042.8501,1704.668 L1012.8501,1674.668 " fill="#FEFFDD" style="stroke:#181818;stroke-width:1.5;"/><text fill="#000000" font-family="sans-serif" font-size="39" lengthAdjust="spacing" textLength="422.7349" x="575.1152" y="1730.1533">Equal to displaced mass</text><rect fill="#F1F1F1" height="105.2813" rx="37.5" ry="37.5" style="stroke:#181818;stroke-width:1.5;" width="434.1152" x="63" y="1661.5547"/><text fill="#000000" font-family="sans-serif" font-size="36" lengthAdjust="spacing" textLength="374.1152" x="93" y="1728.9258">Correct Mass Definition</text><path d="M551.1211,1884.9492 L551.1211,1912.4766 L491.1211,1924.4766 L551.1211,1936.4766 L551.1211,1964.0039 A0,0 0 0 0 551.1211,1964.0039 L1136.5078,1964.0039 A0,0 0 0 0 1136.5078,1964.0039 L1136.5078,1914.9492 L1106.5078,1884.9492 L551.1211,1884.9492 A0,0 0 0 0 551.1211,1884.9492 " fill="#FEFFDD" style="stroke:#181818;stroke-width:1.5;"/><path d="M1106.5078,1884.9492 L1106.5078,1914.9492 L1136.5078,1914.9492 L1106.5078,1884.9492 " fill="#FEFFDD" style="stroke:#181818;stroke-width:1.5;"/><text fill="#000000" font-family="sans-serif" font-size="39" lengthAdjust="spacing" textLength="522.3867" x="569.1211" y="1940.4346">Ensure CoG is inline with CoB</text><rect fill="#F1F1F1" height="105.2813" rx="37.5" ry="37.5" style="stroke:#181818;stroke-width:1.5;" width="422.127" x="68.9941" y="1871.8359"/><text fill="#000000" font-family="sans-serif" font-size="36" lengthAdjust="spacing" textLength="362.127" x="98.9941" y="1939.207">Correct CoG Definition</text><rect fill="none" height="315.9375" style="stroke:#000000;stroke-width:4.5;" width="1614.0542" x="139.0313" y="2043.1172"/><path d="M838.9395,2043.1172 L838.9395,2074.9453 L808.9395,2104.9453 L139.0313,2104.9453 " fill="none" style="stroke:#000000;stroke-width:4.5;"/><text fill="#000000" font-family="sans-serif" font-size="42" lengthAdjust="spacing" textLength="669.9082" x="148.0313" y="2089.7168">AQWA Frequency - Comprehensive</text><path d="M1200.9521,2164.9453 L1200.9521,2293.0547 L1693.0854,2293.0547 L1693.0854,2194.9453 L1663.0854,2164.9453 L1200.9521,2164.9453 " fill="#FEFFDD" style="stroke:#181818;stroke-width:1.5;"/><path d="M1663.0854,2164.9453 L1663.0854,2194.9453 L1693.0854,2194.9453 L1663.0854,2164.9453 " fill="#FEFFDD" style="stroke:#181818;stroke-width:1.5;"/><text fill="#000000" font-family="sans-serif" font-size="39" lengthAdjust="spacing" textLength="179.8799" x="1218.9521" y="2220.4307">Programs:</text><text fill="#000000" font-family="sans-serif" font-size="39" lengthAdjust="spacing" textLength="418.2979" x="1229.7876" y="2269.4854">- AQWA Command Line</text><path d="M451.084,2164.9453 L451.084,2217 L391.084,2229 L451.084,2241 L451.084,2293.0547 A0,0 0 0 0 451.084,2293.0547 L1170.9521,2293.0547 A0,0 0 0 0 1170.9521,2293.0547 L1170.9521,2194.9453 L1140.9521,2164.9453 L451.084,2164.9453 A0,0 0 0 0 451.084,2164.9453 " fill="#FEFFDD" style="stroke:#181818;stroke-width:1.5;"/><path d="M1140.9521,2164.9453 L1140.9521,2194.9453 L1170.9521,2194.9453 L1140.9521,2164.9453 " fill="#FEFFDD" style="stroke:#181818;stroke-width:1.5;"/><text fill="#000000" font-family="sans-serif" font-size="39" lengthAdjust="spacing" textLength="656.8682" x="469.084" y="2220.4307">Frequency resolution to identify peaks</text><text fill="#000000" font-family="sans-serif" font-size="39" lengthAdjust="spacing" textLength="578.8872" x="469.084" y="2269.4854">Frequency definition around peak</text><rect fill="#F1F1F1" height="105.2813" rx="37.5" ry="37.5" style="stroke:#181818;stroke-width:1.5;" width="222.0527" x="169.0313" y="2176.3594"/><text fill="#000000" font-family="sans-serif" font-size="36" lengthAdjust="spacing" textLength="162.0527" x="199.0313" y="2243.7305">Mesh size</text><rect fill="none" height="740.7422" style="stroke:#000000;stroke-width:4.5;" width="1541.4097" x="70.0107" y="2389.0547"/><path d="M471.1201,2389.0547 L471.1201,2420.8828 L441.1201,2450.8828 L70.0107,2450.8828 " fill="none" style="stroke:#000000;stroke-width:4.5;"/><text fill="#000000" font-family="sans-serif" font-size="42" lengthAdjust="spacing" textLength="371.1094" x="79.0107" y="2435.6543">AQWA Postprocess</text><path d="M1117.7109,2658.9961 L1117.7109,2934.2695 L1551.4204,2934.2695 L1551.4204,2688.9961 L1521.4204,2658.9961 L1117.7109,2658.9961 " fill="#FEFFDD" style="stroke:#181818;stroke-width:1.5;"/><path d="M1521.4204,2658.9961 L1521.4204,2688.9961 L1551.4204,2688.9961 L1521.4204,2658.9961 " fill="#FEFFDD" style="stroke:#181818;stroke-width:1.5;"/><text fill="#000000" font-family="sans-serif" font-size="39" lengthAdjust="spacing" textLength="179.8799" x="1135.7109" y="2714.4814">Programs:</text><text fill="#000000" font-family="sans-serif" font-size="39" lengthAdjust="spacing" textLength="359.874" x="1146.5464" y="2763.5361">- python digitalmodel</text><text fill="#000000" font-family="sans-serif" font-size="39" lengthAdjust="spacing" textLength="127.9116" x="1146.5464" y="2812.5908">Output:</text><text fill="#000000" font-family="sans-serif" font-size="39" lengthAdjust="spacing" textLength="205.8354" x="1157.3818" y="2861.6455">- RAOs.xlsx</text><text fill="#000000" font-family="sans-serif" font-size="39" lengthAdjust="spacing" textLength="99.728" x="1157.3818" y="2910.7002">- .png</text><path d="M396.0645,2499.4688 L396.0645,2551.5234 L336.0645,2563.5234 L396.0645,2575.5234 L396.0645,2627.5781 A0,0 0 0 0 396.0645,2627.5781 L1087.7109,2627.5781 A0,0 0 0 0 1087.7109,2627.5781 L1087.7109,2529.4688 L1057.7109,2499.4688 L396.0645,2499.4688 A0,0 0 0 0 396.0645,2499.4688 " fill="#FEFFDD" style="stroke:#181818;stroke-width:1.5;"/><path d="M1057.7109,2499.4688 L1057.7109,2529.4688 L1087.7109,2529.4688 L1057.7109,2499.4688 " fill="#FEFFDD" style="stroke:#181818;stroke-width:1.5;"/><text fill="#000000" font-family="sans-serif" font-size="39" lengthAdjust="spacing" textLength="355.4751" x="414.0645" y="2554.9541">Model: Basic checks</text><text fill="#000000" font-family="sans-serif" font-size="39" lengthAdjust="spacing" textLength="628.6465" x="414.0645" y="2604.0088">RAOs: Amplitude and Phase checks</text><rect fill="#F1F1F1" height="105.2813" rx="37.5" ry="37.5" style="stroke:#181818;stroke-width:1.5;" width="112.0137" x="224.0508" y="2510.8828"/><text fill="#000000" font-family="sans-serif" font-size="36" lengthAdjust="spacing" textLength="52.0137" x="254.0508" y="2578.2539">QA</text><path d="M445.0811,2732.5781 L445.0811,2784.6328 L385.0811,2796.6328 L445.0811,2808.6328 L445.0811,2860.6875 A0,0 0 0 0 445.0811,2860.6875 L1073.8667,2860.6875 A0,0 0 0 0 1073.8667,2860.6875 L1073.8667,2762.5781 L1043.8667,2732.5781 L445.0811,2732.5781 A0,0 0 0 0 445.0811,2732.5781 " fill="#FEFFDD" style="stroke:#181818;stroke-width:1.5;"/><path d="M1043.8667,2732.5781 L1043.8667,2762.5781 L1073.8667,2762.5781 L1043.8667,2732.5781 " fill="#FEFFDD" style="stroke:#181818;stroke-width:1.5;"/><text fill="#000000" font-family="sans-serif" font-size="39" lengthAdjust="spacing" textLength="565.7856" x="463.0811" y="2788.0635">DOF 1, 2, 3 (Headings 0, 45, 90)</text><text fill="#000000" font-family="sans-serif" font-size="39" lengthAdjust="spacing" textLength="565.7856" x="463.0811" y="2837.1182">DOF 4, 5, 6 (Headings 0, 45, 90)</text><rect fill="#F1F1F1" height="105.2813" rx="37.5" ry="37.5" style="stroke:#181818;stroke-width:1.5;" width="210.0469" x="175.0342" y="2743.9922"/><text fill="#000000" font-family="sans-serif" font-size="36" lengthAdjust="spacing" textLength="150.0469" x="205.0342" y="2811.3633">RAO Plot</text><path d="M520.1045,2965.6875 L520.1045,3017.7422 L460.1045,3029.7422 L520.1045,3041.7422 L520.1045,3093.7969 A0,0 0 0 0 520.1045,3093.7969 L604.7944,3093.7969 A0,0 0 0 0 604.7944,3093.7969 L604.7944,2995.6875 L574.7944,2965.6875 L520.1045,2965.6875 A0,0 0 0 0 520.1045,2965.6875 " fill="#FEFFDD" style="stroke:#181818;stroke-width:1.5;"/><path d="M574.7944,2965.6875 L574.7944,2995.6875 L604.7944,2995.6875 L574.7944,2965.6875 " fill="#FEFFDD" style="stroke:#181818;stroke-width:1.5;"/><text fill="#000000" font-family="sans-serif" font-size="39" lengthAdjust="spacing" textLength="21.6899" x="538.1045" y="3021.1729">?</text><text fill="#000000" font-family="sans-serif" font-size="39" lengthAdjust="spacing" textLength="21.6899" x="538.1045" y="3070.2275">?</text><rect fill="#F1F1F1" height="105.2813" rx="37.5" ry="37.5" style="stroke:#181818;stroke-width:1.5;" width="360.0938" x="100.0107" y="2977.1016"/><text fill="#000000" font-family="sans-serif" font-size="36" lengthAdjust="spacing" textLength="300.0938" x="130.0107" y="3044.4727">RAOs Comparison</text><ellipse cx="280.0576" cy="3222.7969" fill="none" rx="33" ry="33" style="stroke:#222222;stroke-width:3.0;"/><ellipse cx="280.0576" cy="3222.7969" fill="#222222" rx="18" ry="18" style="stroke:#222222;stroke-width:3.0;"/><line style="stroke:#181818;stroke-width:3.0;" x1="280.0576" x2="280.0576" y1="632.9297" y2="749.3438"/><polygon fill="#181818" points="268.0576,719.3438,280.0576,749.3438,292.0576,719.3438,280.0576,731.3438" style="stroke:#181818;stroke-width:3.0;"/><line style="stroke:#181818;stroke-width:3.0;" x1="280.0576" x2="280.0576" y1="854.625" y2="971.0391"/><polygon fill="#181818" points="268.0576,941.0391,280.0576,971.0391,292.0576,941.0391,280.0576,953.0391" style="stroke:#181818;stroke-width:3.0;"/><line style="stroke:#181818;stroke-width:3.0;" x1="280.0576" x2="280.0576" y1="317.2383" y2="527.6484"/><polygon fill="#181818" points="268.0576,497.6484,280.0576,527.6484,292.0576,497.6484,280.0576,509.6484" style="stroke:#181818;stroke-width:3.0;"/><line style="stroke:#181818;stroke-width:3.0;" x1="280.0576" x2="280.0576" y1="1076.3203" y2="1311.5039"/><polygon fill="#181818" points="268.0576,1281.5039,280.0576,1311.5039,292.0576,1281.5039,280.0576,1293.5039" style="stroke:#181818;stroke-width:3.0;"/><line style="stroke:#181818;stroke-width:3.0;" x1="280.0576" x2="280.0576" y1="1766.8359" y2="1871.8359"/><polygon fill="#181818" points="268.0576,1841.8359,280.0576,1871.8359,292.0576,1841.8359,280.0576,1853.8359" style="stroke:#181818;stroke-width:3.0;"/><line style="stroke:#181818;stroke-width:3.0;" x1="280.0576" x2="280.0576" y1="1416.7852" y2="1661.5547"/><polygon fill="#181818" points="268.0576,1631.5547,280.0576,1661.5547,292.0576,1631.5547,280.0576,1643.5547" style="stroke:#181818;stroke-width:3.0;"/><line style="stroke:#181818;stroke-width:3.0;" x1="280.0576" x2="280.0576" y1="1977.1172" y2="2176.3594"/><polygon fill="#181818" points="268.0576,2146.3594,280.0576,2176.3594,292.0576,2146.3594,280.0576,2158.3594" style="stroke:#181818;stroke-width:3.0;"/><line style="stroke:#181818;stroke-width:3.0;" x1="280.0576" x2="280.0576" y1="2616.1641" y2="2743.9922"/><polygon fill="#181818" points="268.0576,2713.9922,280.0576,2743.9922,292.0576,2713.9922,280.0576,2725.9922" style="stroke:#181818;stroke-width:3.0;"/><line style="stroke:#181818;stroke-width:3.0;" x1="280.0576" x2="280.0576" y1="2849.2734" y2="2977.1016"/><polygon fill="#181818" points="268.0576,2947.1016,280.0576,2977.1016,292.0576,2947.1016,280.0576,2959.1016" style="stroke:#181818;stroke-width:3.0;"/><line style="stroke:#181818;stroke-width:3.0;" x1="280.0576" x2="280.0576" y1="2281.6406" y2="2510.8828"/><polygon fill="#181818" points="268.0576,2480.8828,280.0576,2510.8828,292.0576,2480.8828,280.0576,2492.8828" style="stroke:#181818;stroke-width:3.0;"/><line style="stroke:#181818;stroke-width:3.0;" x1="280.0576" x2="280.0576" y1="3082.3828" y2="3189.7969"/><polygon fill="#181818" points="268.0576,3159.7969,280.0576,3189.7969,292.0576,3159.7969,280.0576,3171.7969" style="stroke:#181818;stroke-width:3.0;"/><text fill="#888888" font-family="sans-serif" font-size="30" lengthAdjust="spacing" textLength="266.9092" x="1055.9663" y="3283.9395">2024.08.01 at 00:12</text><text fill="#888888" font-family="sans-serif" font-size="30" lengthAdjust="spacing" textLength="220.1221" x="1079.3599" y="3321.6738">aqwa_raos.puml</text><!--SRC=[rLPBJnin4BxlhnWX8H8fZMWfbPeALI5zS20aXKfSUZ7hsUmqNdjhUu5GzRztx91Gj2koQRdKfrtFpEVFyxHBXK8uIDoST2ciAC2JLtXih4HxRYejHyPgjF3oi5ddQqxfNADpyAfPOMIKiM1HriGYdS_iyeYWyjKKmfiaYK8OVhaSmlbmuk2RdbgJegmi9edpmlea0LxQU0HBizp7tx0cLzynzNID0qO3MsaGMeAeV83601Ss7P2E-6kxCuPoW_Kll82XKf2HmgWhN4e4dRuKlWkPiGmMTP710uib7xuQKoUZOUSpcWAzNUp0pmVGPighnNUSiMl-PF70vZmdRPe45wL8SQG45KtIIsFdLwZJ_97mCUkm1bEBp1vXnVjTMzR1JQwo6RDmu79JAGcfqPgZKDEzM8eP3N9nZJ0JfGEEkxb6g_Xx4yaBqZDEZ8lbSQqfZannHHf1aaijibfUXTX6ngIz0G5kYNn_aOqyGWh2gKb527PxLvMbDRSK4r7T6qE7TAegoUU3j2BptPhPAYGhxrvXoCWRHh5itSS-xoXp0tT7-zqdcF-gvMWii4yMVrIS8OkGIrIK2hT8sSVLniuDLolGvL0OYIfKokCoQvNhhPFsWVkvqBFs2N4i74fW5qIgZkwmfX8QHRQ6jm6Uqvhpr7534MhXoAtbXAvcVsR0P6ldiWOSmU7sqJbPI6kuutbAtVyJ5nuObi-7iU2Xy04pqhHLeNpyKGa5N9XSiQNYWfHGC5JROqVcyr-TghdyCLfJQ0mgz8mRyZbl7VzRON47AYtcg1t7vBb6GZo5aOimuKwPx2R_Z5VPtjeb3tUmw8ogulKuBYHHUyeMKAAOkoVCv3eC8EAWZnRREtFAHL26Du1pp-M-Sk5pnfSq8ozKh8kwsgJoPUK7K9U4cSnla_wjShUDqdwfPviYycNOEXJZG70GMXUbaEQODlWz41h0a9iu-KfYVFfCSsvsJGODT4BJcohZMvFwCFa4BtlmgWS7q3b14SQOW_qUl3ximTlzRgF1wnwmzCrcWsQ6BbQJiEIsgEtt6tPgISZFJ5CcIMPuqoQx_Ex3piw2Ltyyxakv1yB3tid9e2XskibkU2TgKM2dcmIaUwlV]--></g></svg>