<svg xmlns="http://www.w3.org/2000/svg" xmlns:xlink="http://www.w3.org/1999/xlink" contentStyleType="text/css" height="4959px" preserveAspectRatio="none" style="width:2580px;height:4959px;background:#FFFFFF;" version="1.1" viewBox="0 0 2580 4959" width="2580px" zoomAndPan="magnify"><defs/><g><rect fill="#FF6347" height="135.6563" id="_title" rx="22.5" ry="22.5" style="stroke:#FF0000;stroke-width:6.0;" width="303" x="1134.6504" y="45"/><text fill="#000000" font-family="sans-serif" font-size="42" font-weight="bold" lengthAdjust="spacing" textLength="261.3311" x="1149.6504" y="103.5996">AQWA RAOs</text><text fill="#000000" font-family="sans-serif" font-size="42" font-weight="bold" lengthAdjust="spacing" textLength="207.7441" x="1182.2783" y="156.4277">Procedure</text><path d="M442.1367,198.6563 L442.1367,275.2383 L382.1367,287.2383 L442.1367,299.2383 L442.1367,375.8203 A0,0 0 0 0 442.1367,375.8203 L1404.6885,375.8203 A0,0 0 0 0 1404.6885,375.8203 L1404.6885,228.6563 L1374.6885,198.6563 L442.1367,198.6563 A0,0 0 0 0 442.1367,198.6563 " fill="#FEFFDD" style="stroke:#181818;stroke-width:1.5;"/><path d="M1374.6885,198.6563 L1374.6885,228.6563 L1404.6885,228.6563 L1374.6885,198.6563 " fill="#FEFFDD" style="stroke:#181818;stroke-width:1.5;"/><text fill="#000000" font-family="sans-serif" font-size="39" lengthAdjust="spacing" textLength="899.5518" x="460.1367" y="254.1416">Objective: To run and automate RAO runs in AQWA</text><text fill="#000000" font-family="sans-serif" font-size="39" lengthAdjust="spacing" textLength="112.7153" x="460.1367" y="303.1963">Notes:</text><text fill="#000000" font-family="sans-serif" font-size="39" lengthAdjust="spacing" textLength="500.6206" x="470.9722" y="352.251">- All files in ascii (.dat) format</text><ellipse cx="352.1367" cy="287.2383" fill="#222222" rx="30" ry="30" style="stroke:#222222;stroke-width:3.0;"/><rect fill="none" height="717.9141" style="stroke:#000000;stroke-width:4.5;" width="1712.8096" x="144.0762" y="405.8203"/><path d="M358.4619,405.8203 L358.4619,437.6484 L328.4619,467.6484 L144.0762,467.6484 " fill="none" style="stroke:#000000;stroke-width:4.5;"/><text fill="#000000" font-family="sans-serif" font-size="42" lengthAdjust="spacing" textLength="184.3857" x="153.0762" y="452.4199">Geometry</text><path d="M1488.9741,688.875 L1488.9741,915.0938 L1796.8857,915.0938 L1796.8857,718.875 L1766.8857,688.875 L1488.9741,688.875 " fill="#FEFFDD" style="stroke:#181818;stroke-width:1.5;"/><path d="M1766.8857,688.875 L1766.8857,718.875 L1796.8857,718.875 L1766.8857,688.875 " fill="#FEFFDD" style="stroke:#181818;stroke-width:1.5;"/><text fill="#000000" font-family="sans-serif" font-size="39" lengthAdjust="spacing" textLength="179.8799" x="1506.9741" y="744.3604">Programs:</text><text fill="#000000" font-family="sans-serif" font-size="39" lengthAdjust="spacing" textLength="125.7217" x="1517.8096" y="793.415">- Rhino</text><text fill="#000000" font-family="sans-serif" font-size="39" lengthAdjust="spacing" textLength="234.0762" x="1517.8096" y="842.4697">- SpaceClaim</text><text fill="#000000" font-family="sans-serif" font-size="39" lengthAdjust="spacing" textLength="221.0698" x="1517.8096" y="891.5244">- Workbench</text><path d="M590.1973,516.2344 L590.1973,568.2891 L530.1973,580.2891 L590.1973,592.2891 L590.1973,644.3438 A0,0 0 0 0 590.1973,644.3438 L1234.2554,644.3438 A0,0 0 0 0 1234.2554,644.3438 L1234.2554,546.2344 L1204.2554,516.2344 L590.1973,516.2344 A0,0 0 0 0 590.1973,516.2344 " fill="#FEFFDD" style="stroke:#181818;stroke-width:1.5;"/><path d="M1204.2554,516.2344 L1204.2554,546.2344 L1234.2554,546.2344 L1204.2554,516.2344 " fill="#FEFFDD" style="stroke:#181818;stroke-width:1.5;"/><text fill="#000000" font-family="sans-serif" font-size="39" lengthAdjust="spacing" textLength="474.7603" x="608.1973" y="571.7197">All surfaces should connect</text><text fill="#000000" font-family="sans-serif" font-size="39" lengthAdjust="spacing" textLength="581.0581" x="608.1973" y="620.7744">Should not have gaps or overlaps</text><rect fill="#F1F1F1" height="105.2813" rx="37.5" ry="37.5" style="stroke:#181818;stroke-width:1.5;" width="356.1211" x="174.0762" y="527.6484"/><text fill="#000000" font-family="sans-serif" font-size="36" lengthAdjust="spacing" textLength="296.1211" x="204.0762" y="595.0195">Prepare Geometry</text><path d="M559.207,762.457 L559.207,789.9844 L499.207,801.9844 L559.207,813.9844 L559.207,841.5117 A0,0 0 0 0 559.207,841.5117 L1458.9741,841.5117 A0,0 0 0 0 1458.9741,841.5117 L1458.9741,792.457 L1428.9741,762.457 L559.207,762.457 A0,0 0 0 0 559.207,762.457 " fill="#FEFFDD" style="stroke:#181818;stroke-width:1.5;"/><path d="M1428.9741,762.457 L1428.9741,792.457 L1458.9741,792.457 L1428.9741,762.457 " fill="#FEFFDD" style="stroke:#181818;stroke-width:1.5;"/><text fill="#000000" font-family="sans-serif" font-size="39" lengthAdjust="spacing" textLength="836.7671" x="577.207" y="817.9424">Combine discrete hull faces into a single surface</text><rect fill="#F1F1F1" height="105.2813" rx="37.5" ry="37.5" style="stroke:#181818;stroke-width:1.5;" width="294.1406" x="205.0664" y="749.3438"/><text fill="#000000" font-family="sans-serif" font-size="36" lengthAdjust="spacing" textLength="234.1406" x="235.0664" y="816.7148">Single Surface</text><path d="M553.2041,959.625 L553.2041,1011.6797 L493.2041,1023.6797 L553.2041,1035.6797 L553.2041,1087.7344 A0,0 0 0 0 553.2041,1087.7344 L1391.1577,1087.7344 A0,0 0 0 0 1391.1577,1087.7344 L1391.1577,989.625 L1361.1577,959.625 L553.2041,959.625 A0,0 0 0 0 553.2041,959.625 " fill="#FEFFDD" style="stroke:#181818;stroke-width:1.5;"/><path d="M1361.1577,959.625 L1361.1577,989.625 L1391.1577,989.625 L1361.1577,959.625 " fill="#FEFFDD" style="stroke:#181818;stroke-width:1.5;"/><text fill="#000000" font-family="sans-serif" font-size="39" lengthAdjust="spacing" textLength="643.8237" x="571.2041" y="1015.1104">Approximate location (including draft)</text><text fill="#000000" font-family="sans-serif" font-size="39" lengthAdjust="spacing" textLength="774.9536" x="571.2041" y="1064.165">Geometry should be in water (i.e. below z=0)</text><rect fill="#F1F1F1" height="105.2813" rx="37.5" ry="37.5" style="stroke:#181818;stroke-width:1.5;" width="282.1348" x="211.0693" y="971.0391"/><text fill="#000000" font-family="sans-serif" font-size="36" lengthAdjust="spacing" textLength="222.1348" x="241.0693" y="1038.4102">Start Location</text><rect fill="none" height="762.0234" style="stroke:#000000;stroke-width:4.5;" width="2401.21" x="147.0908" y="1153.7344"/><path d="M846.9375,1153.7344 L846.9375,1185.5625 L816.9375,1215.5625 L147.0908,1215.5625 " fill="none" style="stroke:#000000;stroke-width:4.5;"/><text fill="#000000" font-family="sans-serif" font-size="42" lengthAdjust="spacing" textLength="669.8467" x="156.0908" y="1200.334">Get Preliminary AQWA Mesh Model</text><path d="M1666.7051,1431.8438 L1666.7051,1707.1172 L2488.3008,1707.1172 L2488.3008,1461.8438 L2458.3008,1431.8438 L1666.7051,1431.8438 " fill="#FEFFDD" style="stroke:#181818;stroke-width:1.5;"/><path d="M2458.3008,1431.8438 L2458.3008,1461.8438 L2488.3008,1461.8438 L2458.3008,1431.8438 " fill="#FEFFDD" style="stroke:#181818;stroke-width:1.5;"/><text fill="#000000" font-family="sans-serif" font-size="39" lengthAdjust="spacing" textLength="758.5957" x="1684.7051" y="1487.3291">Objective: To create mesh model for AQWA</text><text fill="#000000" font-family="sans-serif" font-size="39" lengthAdjust="spacing" textLength="179.8799" x="1684.7051" y="1536.3838">Programs:</text><text fill="#000000" font-family="sans-serif" font-size="39" lengthAdjust="spacing" textLength="221.0698" x="1695.5405" y="1585.4385">- Workbench</text><text fill="#000000" font-family="sans-serif" font-size="39" lengthAdjust="spacing" textLength="127.9116" x="1684.7051" y="1634.4932">Output:</text><text fill="#000000" font-family="sans-serif" font-size="39" lengthAdjust="spacing" textLength="377.146" x="1695.5405" y="1683.5479">- F_keyname_WB.dat</text><path d="M587.1826,1279.6758 L587.1826,1307.2031 L527.1826,1319.2031 L587.1826,1331.2031 L587.1826,1358.7305 A0,0 0 0 0 587.1826,1358.7305 L1105.4619,1358.7305 A0,0 0 0 0 1105.4619,1358.7305 L1105.4619,1309.6758 L1075.4619,1279.6758 L587.1826,1279.6758 A0,0 0 0 0 587.1826,1279.6758 " fill="#FEFFDD" style="stroke:#181818;stroke-width:1.5;"/><path d="M1075.4619,1279.6758 L1075.4619,1309.6758 L1105.4619,1309.6758 L1075.4619,1279.6758 " fill="#FEFFDD" style="stroke:#181818;stroke-width:1.5;"/><text fill="#000000" font-family="sans-serif" font-size="39" lengthAdjust="spacing" textLength="455.2793" x="605.1826" y="1335.1611">Supress Unwanted bodies</text><rect fill="#F1F1F1" height="105.2813" rx="37.5" ry="37.5" style="stroke:#181818;stroke-width:1.5;" width="350.0918" x="177.0908" y="1266.5625"/><text fill="#000000" font-family="sans-serif" font-size="36" lengthAdjust="spacing" textLength="290.0918" x="207.0908" y="1333.9336">ANSYS Geometry</text><path d="M585.2227,1469.4844 L585.2227,1546.0664 L525.2227,1558.0664 L585.2227,1570.0664 L585.2227,1646.6484 A0,0 0 0 0 585.2227,1646.6484 L1636.7051,1646.6484 A0,0 0 0 0 1636.7051,1646.6484 L1636.7051,1499.4844 L1606.7051,1469.4844 L585.2227,1469.4844 A0,0 0 0 0 585.2227,1469.4844 " fill="#FEFFDD" style="stroke:#181818;stroke-width:1.5;"/><path d="M1606.7051,1469.4844 L1606.7051,1499.4844 L1636.7051,1499.4844 L1606.7051,1469.4844 " fill="#FEFFDD" style="stroke:#181818;stroke-width:1.5;"/><text fill="#000000" font-family="sans-serif" font-size="39" lengthAdjust="spacing" textLength="351.1904" x="603.2227" y="1524.9697">Based on mesh size</text><text fill="#000000" font-family="sans-serif" font-size="39" lengthAdjust="spacing" textLength="988.4824" x="603.2227" y="1574.0244">Check RAO frequency range covers analysis frequencies</text><text fill="#000000" font-family="sans-serif" font-size="39" lengthAdjust="spacing" textLength="384.8013" x="603.2227" y="1623.0791">No of Frequencies = 5</text><rect fill="#F1F1F1" height="150.5625" rx="37.5" ry="37.5" style="stroke:#181818;stroke-width:1.5;" width="346.1719" x="179.0508" y="1482.7852"/><text fill="#000000" font-family="sans-serif" font-size="36" lengthAdjust="spacing" textLength="250.1016" x="209.0508" y="1550.1563">Adjust Mesh for</text><text fill="#000000" font-family="sans-serif" font-size="36" lengthAdjust="spacing" textLength="286.1719" x="209.0508" y="1595.4375">Frequency Range</text><path d="M547.166,1751.6484 L547.166,1803.7031 L487.166,1815.7031 L547.166,1827.7031 L547.166,1879.7578 A0,0 0 0 0 547.166,1879.7578 L1165.0972,1879.7578 A0,0 0 0 0 1165.0972,1879.7578 L1165.0972,1781.6484 L1135.0972,1751.6484 L547.166,1751.6484 A0,0 0 0 0 547.166,1751.6484 " fill="#FEFFDD" style="stroke:#181818;stroke-width:1.5;"/><path d="M1135.0972,1751.6484 L1135.0972,1781.6484 L1165.0972,1781.6484 L1135.0972,1751.6484 " fill="#FEFFDD" style="stroke:#181818;stroke-width:1.5;"/><text fill="#000000" font-family="sans-serif" font-size="39" lengthAdjust="spacing" textLength="344.6587" x="565.166" y="1807.1338">Get Analysis.dat file</text><text fill="#000000" font-family="sans-serif" font-size="39" lengthAdjust="spacing" textLength="554.9312" x="565.166" y="1856.1885">Rename to F_keyname_WB.dat</text><rect fill="#F1F1F1" height="105.2813" rx="37.5" ry="37.5" style="stroke:#181818;stroke-width:1.5;" width="270.0586" x="217.1074" y="1763.0625"/><text fill="#000000" font-family="sans-serif" font-size="36" lengthAdjust="spacing" textLength="210.0586" x="247.1074" y="1830.4336">AQWA Solve</text><rect fill="none" height="483.2461" style="stroke:#000000;stroke-width:4.5;" width="1971.1831" x="33" y="1945.7578"/><path d="M660.5771,1945.7578 L660.5771,1977.5859 L630.5771,2007.5859 L33,2007.5859 " fill="none" style="stroke:#000000;stroke-width:4.5;"/><text fill="#000000" font-family="sans-serif" font-size="42" lengthAdjust="spacing" textLength="597.5771" x="42" y="1992.3574">Prepare Hydrodynamic Analysis</text><path d="M1224.4863,2087.7305 L1224.4863,2363.0039 L1944.1831,2363.0039 L1944.1831,2117.7305 L1914.1831,2087.7305 L1224.4863,2087.7305 " fill="#FEFFDD" style="stroke:#181818;stroke-width:1.5;"/><path d="M1914.1831,2087.7305 L1914.1831,2117.7305 L1944.1831,2117.7305 L1914.1831,2087.7305 " fill="#FEFFDD" style="stroke:#181818;stroke-width:1.5;"/><text fill="#000000" font-family="sans-serif" font-size="39" lengthAdjust="spacing" textLength="656.6968" x="1242.4863" y="2143.2158">Objective: To simple model for AQWA</text><text fill="#000000" font-family="sans-serif" font-size="39" lengthAdjust="spacing" textLength="179.8799" x="1242.4863" y="2192.2705">Programs:</text><text fill="#000000" font-family="sans-serif" font-size="39" lengthAdjust="spacing" textLength="221.0698" x="1253.3218" y="2241.3252">- Workbench</text><text fill="#000000" font-family="sans-serif" font-size="39" lengthAdjust="spacing" textLength="127.9116" x="1242.4863" y="2290.3799">Output:</text><text fill="#000000" font-family="sans-serif" font-size="39" lengthAdjust="spacing" textLength="409.6714" x="1253.3218" y="2339.4346">- F_keyname_SIMP.dat</text><path d="M676.207,2080.6992 L676.207,2108.2266 L616.207,2120.2266 L676.207,2132.2266 L676.207,2159.7539 A0,0 0 0 0 676.207,2159.7539 L1194.4863,2159.7539 A0,0 0 0 0 1194.4863,2159.7539 L1194.4863,2110.6992 L1164.4863,2080.6992 L676.207,2080.6992 A0,0 0 0 0 676.207,2080.6992 " fill="#FEFFDD" style="stroke:#181818;stroke-width:1.5;"/><path d="M1164.4863,2080.6992 L1164.4863,2110.6992 L1194.4863,2110.6992 L1164.4863,2080.6992 " fill="#FEFFDD" style="stroke:#181818;stroke-width:1.5;"/><text fill="#000000" font-family="sans-serif" font-size="39" lengthAdjust="spacing" textLength="455.2793" x="694.207" y="2136.1846">Supress Unwanted bodies</text><rect fill="#F1F1F1" height="105.2813" rx="37.5" ry="37.5" style="stroke:#181818;stroke-width:1.5;" width="528.1406" x="88.0664" y="2067.5859"/><text fill="#000000" font-family="sans-serif" font-size="36" lengthAdjust="spacing" textLength="468.1406" x="118.0664" y="2134.957">Get Geometry &amp; Mesh Decks</text><path d="M701.2734,2290.9805 L701.2734,2318.5078 L641.2734,2330.5078 L701.2734,2342.5078 L701.2734,2370.0352 A0,0 0 0 0 701.2734,2370.0352 L840.1216,2370.0352 A0,0 0 0 0 840.1216,2370.0352 L840.1216,2320.9805 L810.1216,2290.9805 L701.2734,2290.9805 A0,0 0 0 0 701.2734,2290.9805 " fill="#FEFFDD" style="stroke:#181818;stroke-width:1.5;"/><path d="M810.1216,2290.9805 L810.1216,2320.9805 L840.1216,2320.9805 L810.1216,2290.9805 " fill="#FEFFDD" style="stroke:#181818;stroke-width:1.5;"/><text fill="#000000" font-family="sans-serif" font-size="39" lengthAdjust="spacing" textLength="75.8481" x="719.2734" y="2346.4658">TBA</text><rect fill="#F1F1F1" height="105.2813" rx="37.5" ry="37.5" style="stroke:#181818;stroke-width:1.5;" width="578.2734" x="63" y="2277.8672"/><text fill="#000000" font-family="sans-serif" font-size="36" lengthAdjust="spacing" textLength="518.2734" x="93" y="2345.2383">Add mass and intertia properties</text><rect fill="none" height="665.6133" style="stroke:#000000;stroke-width:4.5;" width="2015.1035" x="105.0791" y="2459.0039"/><path d="M506.1475,2459.0039 L506.1475,2490.832 L476.1475,2520.832 L105.0791,2520.832 " fill="none" style="stroke:#000000;stroke-width:4.5;"/><text fill="#000000" font-family="sans-serif" font-size="42" lengthAdjust="spacing" textLength="371.0684" x="114.0791" y="2505.6035">AQWA Hydrostatics</text><path d="M1238.5869,2737.1133 L1238.5869,2914.2773 L2060.1826,2914.2773 L2060.1826,2767.1133 L2030.1826,2737.1133 L1238.5869,2737.1133 " fill="#FEFFDD" style="stroke:#181818;stroke-width:1.5;"/><path d="M2030.1826,2737.1133 L2030.1826,2767.1133 L2060.1826,2767.1133 L2030.1826,2737.1133 " fill="#FEFFDD" style="stroke:#181818;stroke-width:1.5;"/><text fill="#000000" font-family="sans-serif" font-size="39" lengthAdjust="spacing" textLength="758.5957" x="1256.5869" y="2792.5986">Objective: To create mesh model for AQWA</text><text fill="#000000" font-family="sans-serif" font-size="39" lengthAdjust="spacing" textLength="179.8799" x="1256.5869" y="2841.6533">Programs:</text><text fill="#000000" font-family="sans-serif" font-size="39" lengthAdjust="spacing" textLength="221.0698" x="1267.4224" y="2890.708">- Workbench</text><path d="M591.1904,2584.9453 L591.1904,2612.4727 L531.1904,2624.4727 L591.1904,2636.4727 L591.1904,2664 A0,0 0 0 0 591.1904,2664 L730.0386,2664 A0,0 0 0 0 730.0386,2664 L730.0386,2614.9453 L700.0386,2584.9453 L591.1904,2584.9453 A0,0 0 0 0 591.1904,2584.9453 " fill="#FEFFDD" style="stroke:#181818;stroke-width:1.5;"/><path d="M700.0386,2584.9453 L700.0386,2614.9453 L730.0386,2614.9453 L700.0386,2584.9453 " fill="#FEFFDD" style="stroke:#181818;stroke-width:1.5;"/><text fill="#000000" font-family="sans-serif" font-size="39" lengthAdjust="spacing" textLength="75.8481" x="609.1904" y="2640.4307">TBA</text><rect fill="#F1F1F1" height="105.2813" rx="37.5" ry="37.5" style="stroke:#181818;stroke-width:1.5;" width="358.1074" x="173.083" y="2571.832"/><text fill="#000000" font-family="sans-serif" font-size="36" lengthAdjust="spacing" textLength="298.1074" x="203.083" y="2639.2031">Solve Hydrostatics</text><path d="M629.1943,2786.168 L629.1943,2813.6953 L569.1943,2825.6953 L629.1943,2837.6953 L629.1943,2865.2227 A0,0 0 0 0 629.1943,2865.2227 L1114.9292,2865.2227 A0,0 0 0 0 1114.9292,2865.2227 L1114.9292,2816.168 L1084.9292,2786.168 L629.1943,2786.168 A0,0 0 0 0 629.1943,2786.168 " fill="#FEFFDD" style="stroke:#181818;stroke-width:1.5;"/><path d="M1084.9292,2786.168 L1084.9292,2816.168 L1114.9292,2816.168 L1084.9292,2786.168 " fill="#FEFFDD" style="stroke:#181818;stroke-width:1.5;"/><text fill="#000000" font-family="sans-serif" font-size="39" lengthAdjust="spacing" textLength="422.7349" x="647.1943" y="2841.6533">Equal to displaced mass</text><rect fill="#F1F1F1" height="105.2813" rx="37.5" ry="37.5" style="stroke:#181818;stroke-width:1.5;" width="434.1152" x="135.0791" y="2773.0547"/><text fill="#000000" font-family="sans-serif" font-size="36" lengthAdjust="spacing" textLength="374.1152" x="165.0791" y="2840.4258">Correct Mass Definition</text><path d="M623.2002,2996.4492 L623.2002,3023.9766 L563.2002,3035.9766 L623.2002,3047.9766 L623.2002,3075.5039 A0,0 0 0 0 623.2002,3075.5039 L1208.5869,3075.5039 A0,0 0 0 0 1208.5869,3075.5039 L1208.5869,3026.4492 L1178.5869,2996.4492 L623.2002,2996.4492 A0,0 0 0 0 623.2002,2996.4492 " fill="#FEFFDD" style="stroke:#181818;stroke-width:1.5;"/><path d="M1178.5869,2996.4492 L1178.5869,3026.4492 L1208.5869,3026.4492 L1178.5869,2996.4492 " fill="#FEFFDD" style="stroke:#181818;stroke-width:1.5;"/><text fill="#000000" font-family="sans-serif" font-size="39" lengthAdjust="spacing" textLength="522.3867" x="641.2002" y="3051.9346">Ensure CoG is inline with CoB</text><rect fill="#F1F1F1" height="105.2813" rx="37.5" ry="37.5" style="stroke:#181818;stroke-width:1.5;" width="422.127" x="141.0732" y="2983.3359"/><text fill="#000000" font-family="sans-serif" font-size="36" lengthAdjust="spacing" textLength="362.127" x="171.0732" y="3050.707">Correct CoG Definition</text><rect fill="none" height="452.1563" style="stroke:#000000;stroke-width:4.5;" width="2327.4961" x="43.0195" y="3154.6172"/><path d="M381.1084,3154.6172 L381.1084,3186.4453 L351.1084,3216.4453 L43.0195,3216.4453 " fill="none" style="stroke:#000000;stroke-width:4.5;"/><text fill="#000000" font-family="sans-serif" font-size="42" lengthAdjust="spacing" textLength="308.0889" x="52.0195" y="3201.2168">AQWA Damping</text><path d="M1393.3242,3320.0273 L1393.3242,3497.1914 L2310.5156,3497.1914 L2310.5156,3350.0273 L2280.5156,3320.0273 L1393.3242,3320.0273 " fill="#FEFFDD" style="stroke:#181818;stroke-width:1.5;"/><path d="M2280.5156,3320.0273 L2280.5156,3350.0273 L2310.5156,3350.0273 L2280.5156,3320.0273 " fill="#FEFFDD" style="stroke:#181818;stroke-width:1.5;"/><text fill="#000000" font-family="sans-serif" font-size="39" lengthAdjust="spacing" textLength="854.1914" x="1411.3242" y="3375.5127">Objective: Define appropriate additional damping:</text><text fill="#000000" font-family="sans-serif" font-size="39" lengthAdjust="spacing" textLength="179.8799" x="1411.3242" y="3424.5674">Programs:</text><text fill="#000000" font-family="sans-serif" font-size="39" lengthAdjust="spacing" textLength="221.0698" x="1422.1597" y="3473.6221">- Workbench</text><path d="M691.2539,3246.4453 L691.2539,3396.6094 L631.2539,3408.6094 L691.2539,3420.6094 L691.2539,3570.7734 A0,0 0 0 0 691.2539,3570.7734 L1363.3242,3570.7734 A0,0 0 0 0 1363.3242,3570.7734 L1363.3242,3276.4453 L1333.3242,3246.4453 L691.2539,3246.4453 A0,0 0 0 0 691.2539,3246.4453 " fill="#FEFFDD" style="stroke:#181818;stroke-width:1.5;"/><path d="M1333.3242,3246.4453 L1333.3242,3276.4453 L1363.3242,3276.4453 L1333.3242,3246.4453 " fill="#FEFFDD" style="stroke:#181818;stroke-width:1.5;"/><text fill="#000000" font-family="sans-serif" font-size="39" lengthAdjust="spacing" textLength="609.0703" x="709.2539" y="3301.9307">For Typical ship-shaped structures:</text><text fill="#000000" font-family="sans-serif" font-size="39" lengthAdjust="spacing" textLength="190.7344" x="752.5957" y="3350.9854">- Roll: 10%</text><text fill="#000000" font-family="sans-serif" font-size="39" lengthAdjust="spacing" textLength="188.5635" x="752.5957" y="3400.04">- Pitch: 8%</text><text fill="#000000" font-family="sans-serif" font-size="39" lengthAdjust="spacing" textLength="314.2471" x="709.2539" y="3449.0947">For TLP or SPAR:</text><text fill="#000000" font-family="sans-serif" font-size="39" lengthAdjust="spacing" textLength="169.0444" x="752.5957" y="3498.1494">- Roll: 5%</text><text fill="#000000" font-family="sans-serif" font-size="39" lengthAdjust="spacing" textLength="188.5635" x="752.5957" y="3547.2041">- Pitch: 5%</text><rect fill="#F1F1F1" height="105.2813" rx="37.5" ry="37.5" style="stroke:#181818;stroke-width:1.5;" width="558.2344" x="73.0195" y="3355.9688"/><text fill="#000000" font-family="sans-serif" font-size="36" lengthAdjust="spacing" textLength="498.2344" x="103.0195" y="3423.3398">Define ROll and Pitch Damping</text><rect fill="none" height="315.9375" style="stroke:#000000;stroke-width:4.5;" width="1614.0542" x="211.1104" y="3636.7734"/><path d="M911.0186,3636.7734 L911.0186,3668.6016 L881.0186,3698.6016 L211.1104,3698.6016 " fill="none" style="stroke:#000000;stroke-width:4.5;"/><text fill="#000000" font-family="sans-serif" font-size="42" lengthAdjust="spacing" textLength="669.9082" x="220.1104" y="3683.373">AQWA Frequency - Comprehensive</text><path d="M1273.0313,3758.6016 L1273.0313,3886.7109 L1765.1646,3886.7109 L1765.1646,3788.6016 L1735.1646,3758.6016 L1273.0313,3758.6016 " fill="#FEFFDD" style="stroke:#181818;stroke-width:1.5;"/><path d="M1735.1646,3758.6016 L1735.1646,3788.6016 L1765.1646,3788.6016 L1735.1646,3758.6016 " fill="#FEFFDD" style="stroke:#181818;stroke-width:1.5;"/><text fill="#000000" font-family="sans-serif" font-size="39" lengthAdjust="spacing" textLength="179.8799" x="1291.0313" y="3814.0869">Programs:</text><text fill="#000000" font-family="sans-serif" font-size="39" lengthAdjust="spacing" textLength="418.2979" x="1301.8667" y="3863.1416">- AQWA Command Line</text><path d="M523.1631,3758.6016 L523.1631,3810.6563 L463.1631,3822.6563 L523.1631,3834.6563 L523.1631,3886.7109 A0,0 0 0 0 523.1631,3886.7109 L1243.0313,3886.7109 A0,0 0 0 0 1243.0313,3886.7109 L1243.0313,3788.6016 L1213.0313,3758.6016 L523.1631,3758.6016 A0,0 0 0 0 523.1631,3758.6016 " fill="#FEFFDD" style="stroke:#181818;stroke-width:1.5;"/><path d="M1213.0313,3758.6016 L1213.0313,3788.6016 L1243.0313,3788.6016 L1213.0313,3758.6016 " fill="#FEFFDD" style="stroke:#181818;stroke-width:1.5;"/><text fill="#000000" font-family="sans-serif" font-size="39" lengthAdjust="spacing" textLength="656.8682" x="541.1631" y="3814.0869">Frequency resolution to identify peaks</text><text fill="#000000" font-family="sans-serif" font-size="39" lengthAdjust="spacing" textLength="578.8872" x="541.1631" y="3863.1416">Frequency definition around peak</text><rect fill="#F1F1F1" height="105.2813" rx="37.5" ry="37.5" style="stroke:#181818;stroke-width:1.5;" width="222.0527" x="241.1104" y="3770.0156"/><text fill="#000000" font-family="sans-serif" font-size="36" lengthAdjust="spacing" textLength="162.0527" x="271.1104" y="3837.3867">Mesh size</text><rect fill="none" height="740.7422" style="stroke:#000000;stroke-width:4.5;" width="1541.4097" x="142.0898" y="3982.7109"/><path d="M543.1992,3982.7109 L543.1992,4014.5391 L513.1992,4044.5391 L142.0898,4044.5391 " fill="none" style="stroke:#000000;stroke-width:4.5;"/><text fill="#000000" font-family="sans-serif" font-size="42" lengthAdjust="spacing" textLength="371.1094" x="151.0898" y="4029.3105">AQWA Postprocess</text><path d="M1189.79,4252.6523 L1189.79,4527.9258 L1623.4995,4527.9258 L1623.4995,4282.6523 L1593.4995,4252.6523 L1189.79,4252.6523 " fill="#FEFFDD" style="stroke:#181818;stroke-width:1.5;"/><path d="M1593.4995,4252.6523 L1593.4995,4282.6523 L1623.4995,4282.6523 L1593.4995,4252.6523 " fill="#FEFFDD" style="stroke:#181818;stroke-width:1.5;"/><text fill="#000000" font-family="sans-serif" font-size="39" lengthAdjust="spacing" textLength="179.8799" x="1207.79" y="4308.1377">Programs:</text><text fill="#000000" font-family="sans-serif" font-size="39" lengthAdjust="spacing" textLength="359.874" x="1218.6255" y="4357.1924">- python digitalmodel</text><text fill="#000000" font-family="sans-serif" font-size="39" lengthAdjust="spacing" textLength="127.9116" x="1218.6255" y="4406.2471">Output:</text><text fill="#000000" font-family="sans-serif" font-size="39" lengthAdjust="spacing" textLength="205.8354" x="1229.4609" y="4455.3018">- RAOs.xlsx</text><text fill="#000000" font-family="sans-serif" font-size="39" lengthAdjust="spacing" textLength="99.728" x="1229.4609" y="4504.3564">- .png</text><path d="M468.1436,4093.125 L468.1436,4145.1797 L408.1436,4157.1797 L468.1436,4169.1797 L468.1436,4221.2344 A0,0 0 0 0 468.1436,4221.2344 L1159.79,4221.2344 A0,0 0 0 0 1159.79,4221.2344 L1159.79,4123.125 L1129.79,4093.125 L468.1436,4093.125 A0,0 0 0 0 468.1436,4093.125 " fill="#FEFFDD" style="stroke:#181818;stroke-width:1.5;"/><path d="M1129.79,4093.125 L1129.79,4123.125 L1159.79,4123.125 L1129.79,4093.125 " fill="#FEFFDD" style="stroke:#181818;stroke-width:1.5;"/><text fill="#000000" font-family="sans-serif" font-size="39" lengthAdjust="spacing" textLength="355.4751" x="486.1436" y="4148.6104">Model: Basic checks</text><text fill="#000000" font-family="sans-serif" font-size="39" lengthAdjust="spacing" textLength="628.6465" x="486.1436" y="4197.665">RAOs: Amplitude and Phase checks</text><rect fill="#F1F1F1" height="105.2813" rx="37.5" ry="37.5" style="stroke:#181818;stroke-width:1.5;" width="112.0137" x="296.1299" y="4104.5391"/><text fill="#000000" font-family="sans-serif" font-size="36" lengthAdjust="spacing" textLength="52.0137" x="326.1299" y="4171.9102">QA</text><path d="M517.1602,4326.2344 L517.1602,4378.2891 L457.1602,4390.2891 L517.1602,4402.2891 L517.1602,4454.3438 A0,0 0 0 0 517.1602,4454.3438 L1145.9458,4454.3438 A0,0 0 0 0 1145.9458,4454.3438 L1145.9458,4356.2344 L1115.9458,4326.2344 L517.1602,4326.2344 A0,0 0 0 0 517.1602,4326.2344 " fill="#FEFFDD" style="stroke:#181818;stroke-width:1.5;"/><path d="M1115.9458,4326.2344 L1115.9458,4356.2344 L1145.9458,4356.2344 L1115.9458,4326.2344 " fill="#FEFFDD" style="stroke:#181818;stroke-width:1.5;"/><text fill="#000000" font-family="sans-serif" font-size="39" lengthAdjust="spacing" textLength="565.7856" x="535.1602" y="4381.7197">DOF 1, 2, 3 (Headings 0, 45, 90)</text><text fill="#000000" font-family="sans-serif" font-size="39" lengthAdjust="spacing" textLength="565.7856" x="535.1602" y="4430.7744">DOF 4, 5, 6 (Headings 0, 45, 90)</text><rect fill="#F1F1F1" height="105.2813" rx="37.5" ry="37.5" style="stroke:#181818;stroke-width:1.5;" width="210.0469" x="247.1133" y="4337.6484"/><text fill="#000000" font-family="sans-serif" font-size="36" lengthAdjust="spacing" textLength="150.0469" x="277.1133" y="4405.0195">RAO Plot</text><path d="M592.1836,4559.3438 L592.1836,4611.3984 L532.1836,4623.3984 L592.1836,4635.3984 L592.1836,4687.4531 A0,0 0 0 0 592.1836,4687.4531 L676.8735,4687.4531 A0,0 0 0 0 676.8735,4687.4531 L676.8735,4589.3438 L646.8735,4559.3438 L592.1836,4559.3438 A0,0 0 0 0 592.1836,4559.3438 " fill="#FEFFDD" style="stroke:#181818;stroke-width:1.5;"/><path d="M646.8735,4559.3438 L646.8735,4589.3438 L676.8735,4589.3438 L646.8735,4559.3438 " fill="#FEFFDD" style="stroke:#181818;stroke-width:1.5;"/><text fill="#000000" font-family="sans-serif" font-size="39" lengthAdjust="spacing" textLength="21.6899" x="610.1836" y="4614.8291">?</text><text fill="#000000" font-family="sans-serif" font-size="39" lengthAdjust="spacing" textLength="21.6899" x="610.1836" y="4663.8838">?</text><rect fill="#F1F1F1" height="105.2813" rx="37.5" ry="37.5" style="stroke:#181818;stroke-width:1.5;" width="360.0938" x="172.0898" y="4570.7578"/><text fill="#000000" font-family="sans-serif" font-size="36" lengthAdjust="spacing" textLength="300.0938" x="202.0898" y="4638.1289">RAOs Comparison</text><ellipse cx="352.1367" cy="4816.4531" fill="none" rx="33" ry="33" style="stroke:#222222;stroke-width:3.0;"/><ellipse cx="352.1367" cy="4816.4531" fill="#222222" rx="18" ry="18" style="stroke:#222222;stroke-width:3.0;"/><line style="stroke:#181818;stroke-width:3.0;" x1="352.1367" x2="352.1367" y1="632.9297" y2="749.3438"/><polygon fill="#181818" points="340.1367,719.3438,352.1367,749.3438,364.1367,719.3438,352.1367,731.3438" style="stroke:#181818;stroke-width:3.0;"/><line style="stroke:#181818;stroke-width:3.0;" x1="352.1367" x2="352.1367" y1="854.625" y2="971.0391"/><polygon fill="#181818" points="340.1367,941.0391,352.1367,971.0391,364.1367,941.0391,352.1367,953.0391" style="stroke:#181818;stroke-width:3.0;"/><line style="stroke:#181818;stroke-width:3.0;" x1="352.1367" x2="352.1367" y1="317.2383" y2="527.6484"/><polygon fill="#181818" points="340.1367,497.6484,352.1367,527.6484,364.1367,497.6484,352.1367,509.6484" style="stroke:#181818;stroke-width:3.0;"/><line style="stroke:#181818;stroke-width:3.0;" x1="352.1367" x2="352.1367" y1="1371.8438" y2="1482.7852"/><polygon fill="#181818" points="340.1367,1452.7852,352.1367,1482.7852,364.1367,1452.7852,352.1367,1464.7852" style="stroke:#181818;stroke-width:3.0;"/><line style="stroke:#181818;stroke-width:3.0;" x1="352.1367" x2="352.1367" y1="1633.3477" y2="1763.0625"/><polygon fill="#181818" points="340.1367,1733.0625,352.1367,1763.0625,364.1367,1733.0625,352.1367,1745.0625" style="stroke:#181818;stroke-width:3.0;"/><line style="stroke:#181818;stroke-width:3.0;" x1="352.1367" x2="352.1367" y1="1076.3203" y2="1266.5625"/><polygon fill="#181818" points="340.1367,1236.5625,352.1367,1266.5625,364.1367,1236.5625,352.1367,1248.5625" style="stroke:#181818;stroke-width:3.0;"/><line style="stroke:#181818;stroke-width:3.0;" x1="352.1367" x2="352.1367" y1="2172.8672" y2="2277.8672"/><polygon fill="#181818" points="340.1367,2247.8672,352.1367,2277.8672,364.1367,2247.8672,352.1367,2259.8672" style="stroke:#181818;stroke-width:3.0;"/><line style="stroke:#181818;stroke-width:3.0;" x1="352.1367" x2="352.1367" y1="1868.3438" y2="2067.5859"/><polygon fill="#181818" points="340.1367,2037.5859,352.1367,2067.5859,364.1367,2037.5859,352.1367,2049.5859" style="stroke:#181818;stroke-width:3.0;"/><line style="stroke:#181818;stroke-width:3.0;" x1="352.1367" x2="352.1367" y1="2677.1133" y2="2773.0547"/><polygon fill="#181818" points="340.1367,2743.0547,352.1367,2773.0547,364.1367,2743.0547,352.1367,2755.0547" style="stroke:#181818;stroke-width:3.0;"/><line style="stroke:#181818;stroke-width:3.0;" x1="352.1367" x2="352.1367" y1="2878.3359" y2="2983.3359"/><polygon fill="#181818" points="340.1367,2953.3359,352.1367,2983.3359,364.1367,2953.3359,352.1367,2965.3359" style="stroke:#181818;stroke-width:3.0;"/><line style="stroke:#181818;stroke-width:3.0;" x1="352.1367" x2="352.1367" y1="2383.1484" y2="2571.832"/><polygon fill="#181818" points="340.1367,2541.832,352.1367,2571.832,364.1367,2541.832,352.1367,2553.832" style="stroke:#181818;stroke-width:3.0;"/><line style="stroke:#181818;stroke-width:3.0;" x1="352.1367" x2="352.1367" y1="3088.6172" y2="3355.9688"/><polygon fill="#181818" points="340.1367,3325.9688,352.1367,3355.9688,364.1367,3325.9688,352.1367,3337.9688" style="stroke:#181818;stroke-width:3.0;"/><line style="stroke:#181818;stroke-width:3.0;" x1="352.1367" x2="352.1367" y1="3461.25" y2="3770.0156"/><polygon fill="#181818" points="340.1367,3740.0156,352.1367,3770.0156,364.1367,3740.0156,352.1367,3752.0156" style="stroke:#181818;stroke-width:3.0;"/><line style="stroke:#181818;stroke-width:3.0;" x1="352.1367" x2="352.1367" y1="4209.8203" y2="4337.6484"/><polygon fill="#181818" points="340.1367,4307.6484,352.1367,4337.6484,364.1367,4307.6484,352.1367,4319.6484" style="stroke:#181818;stroke-width:3.0;"/><line style="stroke:#181818;stroke-width:3.0;" x1="352.1367" x2="352.1367" y1="4442.9297" y2="4570.7578"/><polygon fill="#181818" points="340.1367,4540.7578,352.1367,4570.7578,364.1367,4540.7578,352.1367,4552.7578" style="stroke:#181818;stroke-width:3.0;"/><line style="stroke:#181818;stroke-width:3.0;" x1="352.1367" x2="352.1367" y1="3875.2969" y2="4104.5391"/><polygon fill="#181818" points="340.1367,4074.5391,352.1367,4104.5391,364.1367,4074.5391,352.1367,4086.5391" style="stroke:#181818;stroke-width:3.0;"/><line style="stroke:#181818;stroke-width:3.0;" x1="352.1367" x2="352.1367" y1="4676.0391" y2="4783.4531"/><polygon fill="#181818" points="340.1367,4753.4531,352.1367,4783.4531,364.1367,4753.4531,352.1367,4765.4531" style="stroke:#181818;stroke-width:3.0;"/><text fill="#888888" font-family="sans-serif" font-size="30" lengthAdjust="spacing" textLength="266.9092" x="1152.6958" y="4877.5957">2024.08.03 at 21:29</text><text fill="#888888" font-family="sans-serif" font-size="30" lengthAdjust="spacing" textLength="220.1221" x="1176.0894" y="4915.3301">aqwa_raos.puml</text><!--SRC=[pLTjJnj74Fv-lsA4H8CbOq4IgjPLL1rGGYKS79iALQeKBRTZtyPxkvVTFS2f-jyxiuTDYI_uZ43gVR9lTcQUdNdcvNmcDCARnC-KAOKJ1GGLD1vQ9z6DR6NaaNK67UmVD9-vo5KsC-Wzl6u-S6IrTU1GheX5DfkwsWKVkR2523P9eX3IZvSfZD9p3t-PeRCPoifXalWWN4WIeCVOWE3KD0_nBp_dLvyn2-eQ-sGDN6L060cY2cmQsHo_zA1CjB_K-q2cV7_v5tOXrHecIcCyAtoc5Epqf0WTc5X7nk9P9EECeiP3LoFeoXhOUe-smE3cM_3tlT5co8k7xZYbqFmNnJsQKQwCRHACIv7XaHQgQ99UMZUxGfFb3uGFKVFJ7peaz0WBtB-qHSrXyfMR40eFFhULbf1POoWBAsV7jPYiGIwk4QQYz41vjzVeDFrU1tAip9I8CQxTjOPuP8ihPH2ayfb3EfPNdDk8M9bWGO2lBTzTP2qEfY2SsKnmijk7gYoTlLMHYFfE6NQKoNGboJz89oQXiwAsICaYkbV8ZBmXAuwqUzYZDzhUmDTtUvr7aF_JmD50f4Ej2cK4sOy5Dq2Vmy1Ar1jGzs7LKP3vYWLRAjWILyp3Scl5-MRoHdzLAAlGXoQjaqypd1jHuAVBGwxNTSbCFup_76_E-t5LEkvvVvWROG9IMgnKk9R2gVnS-L17cQAo59mu_5BHNUSm4cRQdjk7mfDlocQCjbTVSPN-EMQpsFacIoUEdL2TKk5vwf12pxtoI_ctzwWR9DZ94YQTW7TmiFQspAYnrTVjByIaJEy0SVfY3ruvDKBEC53jRf3krGfOTBtJkNHMiXcLBRq_cVzU5IKranUb_kFC7_y-6BRXFWTxsLv-g5bvJ6pnBry64WhXVPpEr8EHKYA0scF9lx2z_ul3TAECHqR6TDCU4LJc_wTThcdgS1qzmFvCKOhMQSbpT3iOS5QESQACscYu_VQb4feBagPigMc8rWbkw_R8ld-ILqCZ6wEsuc6kUSxVg93JgyD7YT74YsDHb3I8dqQ9Y1v1y90ldM9k22cZUGgCh4ttNuWRTyv7vxJOS4aDLSZonNrQH_E4T_1vgUYBW9ODLUxwN9IKI1zSbGKAT1FAUZsrMlTXVs_xE_A8fmy_RJVxF1lo6ZWUfgF77HoiiV-DVAKPDBU3-zcxoxiYDRGSZQUaFjVo7hsGvO9JSqQ9MfVEmMAOjq_T_MX7RtKLhqVLg2IQe2PpA57C_2DgSbby8E8dMTJOlBSEgJcL_BNc_NE5hvo7dEnBDLL1wDXhLuzzVoLazj1NPEzM-zj6QQyqqtKP-PYsJaLSdlkycT4oaV7ojHft1jI7bFO45Ig9TStcjCirAJJ0uMrkg6re3Uhu_0Jsk_2w2szWvnG5Vt1usEl2suCk_BpNQLHusmMI_hXUeHcXZzKadF8RTFHVrxnPhMaVR9aa4qilNR9DMm_kRCtfwGq6FIbV0UsGhqvF-qMnrKcsUPla5Mcdax2bEwr_0G00]--></g></svg>