<?xml version="1.0" encoding="us-ascii" standalone="no"?><svg xmlns="http://www.w3.org/2000/svg" xmlns:xlink="http://www.w3.org/1999/xlink" contentStyleType="text/css" height="3744px" preserveAspectRatio="none" style="width:2358px;height:3744px;background:#FFFFFF;" version="1.1" viewBox="0 0 2358 3744" width="2358px" zoomAndPan="magnify"><defs/><g><rect fill="#FF6347" height="135.6563" id="_title" rx="22.5" ry="22.5" style="stroke:#FF0000;stroke-width:6.0;" width="519" x="915" y="45"/><text fill="#000000" font-family="sans-serif" font-size="42" font-weight="bold" lengthAdjust="spacing" textLength="126" x="1105.5" y="103.5996">AQWA</text><text fill="#000000" font-family="sans-serif" font-size="42" font-weight="bold" lengthAdjust="spacing" textLength="489" x="930" y="156.4277">Workflow Development</text><path d="M366,198.6563 L366,275.2383 L306,287.2383 L366,299.2383 L366,375.8203 A0,0 0 0 0 366,375.8203 L1053,375.8203 A0,0 0 0 0 1053,375.8203 L1053,228.6563 L1023,198.6563 L366,198.6563 A0,0 0 0 0 366,198.6563 " fill="#FEFFDD" style="stroke:#181818;stroke-width:1.5;"/><path d="M1023,198.6563 L1023,228.6563 L1053,228.6563 L1023,198.6563 " fill="#FEFFDD" style="stroke:#181818;stroke-width:1.5;"/><text fill="#000000" font-family="sans-serif" font-size="39" lengthAdjust="spacing" textLength="624" x="384" y="254.1416">Objective: Workflow for development</text><text fill="#000000" font-family="sans-serif" font-size="39" lengthAdjust="spacing" textLength="306" x="384" y="303.1963">- software access</text><text fill="#000000" font-family="sans-serif" font-size="39" lengthAdjust="spacing" textLength="342" x="384" y="352.251">- working guidelines</text><ellipse cx="276" cy="287.2383" fill="#222222" rx="30" ry="30" style="stroke:#222222;stroke-width:3.0;"/><rect fill="none" height="530.7422" style="stroke:#000000;stroke-width:4.5;" width="1026" x="114" y="405.8203"/><path d="M570,405.8203 L570,437.6484 L540,467.6484 L114,467.6484 " fill="none" style="stroke:#000000;stroke-width:4.5;"/><text fill="#000000" font-family="sans-serif" font-size="42" lengthAdjust="spacing" textLength="426" x="123" y="452.4199">Preprocess: Geometry</text><path d="M435,516.2344 L435,568.2891 L375,580.2891 L435,592.2891 L435,644.3438 A0,0 0 0 0 435,644.3438 L1044,644.3438 A0,0 0 0 0 1044,644.3438 L1044,546.2344 L1014,516.2344 L435,516.2344 A0,0 0 0 0 435,516.2344 " fill="#FEFFDD" style="stroke:#181818;stroke-width:1.5;"/><path d="M1014,516.2344 L1014,546.2344 L1044,546.2344 L1014,516.2344 " fill="#FEFFDD" style="stroke:#181818;stroke-width:1.5;"/><text fill="#000000" font-family="sans-serif" font-size="39" lengthAdjust="spacing" textLength="534" x="453" y="571.7197">define geometry format directly</text><text fill="#000000" font-family="sans-serif" font-size="39" lengthAdjust="spacing" textLength="354" x="453" y="620.7744">i.e. nodes, elements</text><rect fill="#F1F1F1" height="105.2813" rx="37.5" ry="37.5" style="stroke:#181818;stroke-width:1.5;" width="198" x="177" y="527.6484"/><text fill="#000000" font-family="sans-serif" font-size="36" lengthAdjust="spacing" textLength="138" x="207" y="595.0195">.dat files</text><path d="M468,674.3438 L468,775.4531 L408,787.4531 L468,799.4531 L468,900.5625 A0,0 0 0 0 468,900.5625 L1110,900.5625 A0,0 0 0 0 1110,900.5625 L1110,704.3438 L1080,674.3438 L468,674.3438 A0,0 0 0 0 468,674.3438 " fill="#FEFFDD" style="stroke:#181818;stroke-width:1.5;"/><path d="M1080,674.3438 L1080,704.3438 L1110,704.3438 L1080,674.3438 " fill="#FEFFDD" style="stroke:#181818;stroke-width:1.5;"/><text fill="#000000" font-family="sans-serif" font-size="39" lengthAdjust="spacing" textLength="537" x="498" y="729.8291">Prepare geometry from scratch</text><text fill="#000000" font-family="sans-serif" font-size="39" lengthAdjust="spacing" textLength="258" x="486" y="778.8838">- good features</text><text fill="#000000" font-family="sans-serif" font-size="39" lengthAdjust="spacing" textLength="579" x="486" y="827.9385">- learning takes time and practice</text><text fill="#000000" font-family="sans-serif" font-size="39" lengthAdjust="spacing" textLength="12" x="486" y="876.9932">-</text><text fill="#000000" font-family="sans-serif" font-size="39" font-weight="bold" lengthAdjust="spacing" textLength="147" x="510" y="876.9932">License</text><text fill="#000000" font-family="sans-serif" font-size="39" lengthAdjust="spacing" textLength="210" x="669" y="876.9932">dependency</text><rect fill="#F1F1F1" height="105.2813" rx="37.5" ry="37.5" style="stroke:#181818;stroke-width:1.5;" width="264" x="144" y="734.8125"/><text fill="#000000" font-family="sans-serif" font-size="36" lengthAdjust="spacing" textLength="204" x="174" y="802.1836">SpaceClaim</text><rect fill="none" height="561.2109" style="stroke:#000000;stroke-width:4.5;" width="1410" x="100.5" y="966.5625"/><path d="M607.5,966.5625 L607.5,998.3906 L577.5,1028.3906 L100.5,1028.3906 " fill="none" style="stroke:#000000;stroke-width:4.5;"/><text fill="#000000" font-family="sans-serif" font-size="42" lengthAdjust="spacing" textLength="477" x="109.5" y="1013.1621">Preprocess: Model Setup</text><path d="M481.5,1058.3906 L481.5,1134.9727 L421.5,1146.9727 L481.5,1158.9727 L481.5,1235.5547 A0,0 0 0 0 481.5,1235.5547 L937.5,1235.5547 A0,0 0 0 0 937.5,1235.5547 L937.5,1088.3906 L907.5,1058.3906 L481.5,1058.3906 A0,0 0 0 0 481.5,1058.3906 " fill="#FEFFDD" style="stroke:#181818;stroke-width:1.5;"/><path d="M907.5,1058.3906 L907.5,1088.3906 L937.5,1088.3906 L907.5,1058.3906 " fill="#FEFFDD" style="stroke:#181818;stroke-width:1.5;"/><text fill="#000000" font-family="sans-serif" font-size="39" lengthAdjust="spacing" textLength="318" x="511.5" y="1113.876">- visual and helpful</text><text fill="#000000" font-family="sans-serif" font-size="39" lengthAdjust="spacing" textLength="342" x="511.5" y="1162.9307">- Manual operations</text><text fill="#000000" font-family="sans-serif" font-size="39" lengthAdjust="spacing" textLength="12" x="499.5" y="1211.9854">-</text><text fill="#000000" font-family="sans-serif" font-size="39" font-weight="bold" lengthAdjust="spacing" textLength="147" x="523.5" y="1211.9854">License</text><text fill="#000000" font-family="sans-serif" font-size="39" lengthAdjust="spacing" textLength="210" x="682.5" y="1211.9854">dependency</text><rect fill="#F1F1F1" height="105.2813" rx="37.5" ry="37.5" style="stroke:#181818;stroke-width:1.5;" width="291" x="130.5" y="1094.332"/><text fill="#000000" font-family="sans-serif" font-size="36" lengthAdjust="spacing" textLength="231" x="160.5" y="1161.7031">Workbench UI</text><path d="M439.5,1265.5547 L439.5,1366.6641 L379.5,1378.6641 L439.5,1390.6641 L439.5,1491.7734 A0,0 0 0 0 439.5,1491.7734 L1480.5,1491.7734 A0,0 0 0 0 1480.5,1491.7734 L1480.5,1295.5547 L1450.5,1265.5547 L439.5,1265.5547 A0,0 0 0 0 439.5,1265.5547 " fill="#FEFFDD" style="stroke:#181818;stroke-width:1.5;"/><path d="M1450.5,1265.5547 L1450.5,1295.5547 L1480.5,1295.5547 L1450.5,1265.5547 " fill="#FEFFDD" style="stroke:#181818;stroke-width:1.5;"/><text fill="#000000" font-family="sans-serif" font-size="39" lengthAdjust="spacing" textLength="312" x="457.5" y="1321.04">- Stringent format:</text><text fill="#000000" font-family="sans-serif" font-size="39" lengthAdjust="spacing" textLength="930" x="505.5" y="1370.0947">- i.e. Reference manual provides examples and format</text><text fill="#000000" font-family="sans-serif" font-size="39" lengthAdjust="spacing" textLength="966" x="457.5" y="1419.1494">- Programming (Python, Fortran etc.) or MS DOS Batch</text><text fill="#000000" font-family="sans-serif" font-size="39" lengthAdjust="spacing" textLength="381" x="457.5" y="1468.2041">- License independent</text><rect fill="#F1F1F1" height="105.2813" rx="37.5" ry="37.5" style="stroke:#181818;stroke-width:1.5;" width="207" x="172.5" y="1326.0234"/><text fill="#000000" font-family="sans-serif" font-size="36" lengthAdjust="spacing" textLength="138" x="211.5" y="1393.3945">.dat files</text><rect fill="none" height="403.1016" style="stroke:#000000;stroke-width:4.5;" width="885" x="126" y="1557.7734"/><path d="M234,1557.7734 L234,1589.6016 L204,1619.6016 L126,1619.6016 " fill="none" style="stroke:#000000;stroke-width:4.5;"/><text fill="#000000" font-family="sans-serif" font-size="42" lengthAdjust="spacing" textLength="78" x="135" y="1604.373">Run</text><path d="M456,1649.6016 L456,1775.2383 L396,1787.2383 L456,1799.2383 L456,1924.875 A0,0 0 0 0 456,1924.875 L981,1924.875 A0,0 0 0 0 981,1924.875 L981,1679.6016 L951,1649.6016 L456,1649.6016 A0,0 0 0 0 456,1649.6016 " fill="#FEFFDD" style="stroke:#181818;stroke-width:1.5;"/><path d="M951,1649.6016 L951,1679.6016 L981,1679.6016 L951,1649.6016 " fill="#FEFFDD" style="stroke:#181818;stroke-width:1.5;"/><text fill="#000000" font-family="sans-serif" font-size="39" lengthAdjust="spacing" textLength="105" x="474" y="1705.0869">Tools:</text><text fill="#000000" font-family="sans-serif" font-size="39" lengthAdjust="spacing" textLength="222" x="474" y="1754.1416">- Workbench</text><text fill="#000000" font-family="sans-serif" font-size="39" lengthAdjust="spacing" textLength="462" x="474" y="1803.1963">- AQWA.exe with .dat files</text><text fill="#000000" font-family="sans-serif" font-size="39" lengthAdjust="spacing" textLength="186" x="474" y="1852.251">- Batch file</text><text fill="#000000" font-family="sans-serif" font-size="39" lengthAdjust="spacing" textLength="12" x="474" y="1901.3057">-</text><text fill="#000000" font-family="sans-serif" font-size="39" font-weight="bold" lengthAdjust="spacing" textLength="147" x="498" y="1901.3057">License</text><text fill="#000000" font-family="sans-serif" font-size="39" lengthAdjust="spacing" textLength="210" x="657" y="1901.3057">dependency</text><rect fill="#F1F1F1" height="105.2813" rx="37.5" ry="37.5" style="stroke:#181818;stroke-width:1.5;" width="240" x="156" y="1734.5977"/><text fill="#000000" font-family="sans-serif" font-size="36" lengthAdjust="spacing" textLength="180" x="186" y="1801.9688">Run AQWA</text><rect fill="none" height="1518.2578" style="stroke:#000000;stroke-width:4.5;" width="2292" x="33" y="1990.875"/><path d="M297,1990.875 L297,2022.7031 L267,2052.7031 L33,2052.7031 " fill="none" style="stroke:#000000;stroke-width:4.5;"/><text fill="#000000" font-family="sans-serif" font-size="42" lengthAdjust="spacing" textLength="234" x="42" y="2037.4746">Postprocess</text><path d="M1560,2689.3359 L1560,2866.5 L2265,2866.5 L2265,2719.3359 L2235,2689.3359 L1560,2689.3359 " fill="#FEFFDD" style="stroke:#181818;stroke-width:1.5;"/><path d="M2235,2689.3359 L2235,2719.3359 L2265,2719.3359 L2235,2689.3359 " fill="#FEFFDD" style="stroke:#181818;stroke-width:1.5;"/><text fill="#000000" font-family="sans-serif" font-size="39" lengthAdjust="spacing" textLength="105" x="1578" y="2744.8213">Tools:</text><text fill="#000000" font-family="sans-serif" font-size="39" lengthAdjust="spacing" textLength="180" x="1590" y="2793.876">- MS DOS</text><text fill="#000000" font-family="sans-serif" font-size="39" lengthAdjust="spacing" textLength="630" x="1590" y="2842.9307">- Programming (Python) for .LIS files</text><path d="M478.5,2082.7031 L478.5,2183.8125 L418.5,2195.8125 L478.5,2207.8125 L478.5,2308.9219 A0,0 0 0 0 478.5,2308.9219 L1048.5,2308.9219 A0,0 0 0 0 1048.5,2308.9219 L1048.5,2112.7031 L1018.5,2082.7031 L478.5,2082.7031 A0,0 0 0 0 478.5,2082.7031 " fill="#FEFFDD" style="stroke:#181818;stroke-width:1.5;"/><path d="M1018.5,2082.7031 L1018.5,2112.7031 L1048.5,2112.7031 L1018.5,2082.7031 " fill="#FEFFDD" style="stroke:#181818;stroke-width:1.5;"/><text fill="#000000" font-family="sans-serif" font-size="39" lengthAdjust="spacing" textLength="105" x="496.5" y="2138.1885">Tools:</text><text fill="#000000" font-family="sans-serif" font-size="39" lengthAdjust="spacing" textLength="456" x="508.5" y="2187.2432">- AQWAReader (.csv files)</text><text fill="#000000" font-family="sans-serif" font-size="39" lengthAdjust="spacing" textLength="387" x="544.5" y="2236.2979">- Pros: Official support</text><text fill="#000000" font-family="sans-serif" font-size="39" lengthAdjust="spacing" textLength="459" x="544.5" y="2285.3525">- Cons: Too many csv files</text><rect fill="#F1F1F1" height="105.2813" rx="37.5" ry="37.5" style="stroke:#181818;stroke-width:1.5;" width="285" x="133.5" y="2143.1719"/><text fill="#000000" font-family="sans-serif" font-size="36" lengthAdjust="spacing" textLength="225" x="163.5" y="2210.543">AQWAReader</text><path d="M549,2338.9219 L549,2538.1406 L489,2550.1406 L549,2562.1406 L549,2761.3594 A0,0 0 0 0 549,2761.3594 L1530,2761.3594 A0,0 0 0 0 1530,2761.3594 L1530,2368.9219 L1500,2338.9219 L549,2338.9219 A0,0 0 0 0 549,2338.9219 " fill="#FEFFDD" style="stroke:#181818;stroke-width:1.5;"/><path d="M1500,2338.9219 L1500,2368.9219 L1530,2368.9219 L1500,2338.9219 " fill="#FEFFDD" style="stroke:#181818;stroke-width:1.5;"/><text fill="#000000" font-family="sans-serif" font-size="39" lengthAdjust="spacing" textLength="633" x="567" y="2394.4072">Reading/Programming from .LIS files</text><text fill="#000000" font-family="sans-serif" font-size="39" lengthAdjust="spacing" textLength="93" x="567" y="2443.4619">Pros:</text><text fill="#000000" font-family="sans-serif" font-size="39" lengthAdjust="spacing" textLength="870" x="603" y="2492.5166">- Programming to get single shot at complete data</text><text fill="#000000" font-family="sans-serif" font-size="39" lengthAdjust="spacing" textLength="102" x="567" y="2541.5713">Cons:</text><text fill="#000000" font-family="sans-serif" font-size="39" lengthAdjust="spacing" textLength="639" x="603" y="2590.626">- multiple tables for single set of data</text><text fill="#000000" font-family="sans-serif" font-size="39" lengthAdjust="spacing" textLength="396" x="651" y="2639.6807">- Headers are repeated</text><text fill="#000000" font-family="sans-serif" font-size="39" lengthAdjust="spacing" textLength="717" x="651" y="2688.7354">- White Space between sets of each data</text><text fill="#000000" font-family="sans-serif" font-size="39" lengthAdjust="spacing" textLength="438" x="603" y="2737.79">- file format may change?</text><rect fill="#F1F1F1" height="105.2813" rx="37.5" ry="37.5" style="stroke:#181818;stroke-width:1.5;" width="426" x="63" y="2497.5"/><text fill="#000000" font-family="sans-serif" font-size="36" lengthAdjust="spacing" textLength="366" x="93" y="2564.8711">AQWA output file (.LIS)</text><path d="M534,2879.4727 L534,2907 L474,2919 L534,2931 L534,2958.5273 A0,0 0 0 0 534,2958.5273 L1206,2958.5273 A0,0 0 0 0 1206,2958.5273 L1206,2909.4727 L1176,2879.4727 L534,2879.4727 A0,0 0 0 0 534,2879.4727 " fill="#FEFFDD" style="stroke:#181818;stroke-width:1.5;"/><path d="M1176,2879.4727 L1176,2909.4727 L1206,2909.4727 L1176,2879.4727 " fill="#FEFFDD" style="stroke:#181818;stroke-width:1.5;"/><text fill="#000000" font-family="sans-serif" font-size="39" lengthAdjust="spacing" textLength="609" x="552" y="2934.958">Manual operations to extract &amp; plot</text><rect fill="#F1F1F1" height="105.2813" rx="37.5" ry="37.5" style="stroke:#181818;stroke-width:1.5;" width="396" x="78" y="2866.3594"/><text fill="#000000" font-family="sans-serif" font-size="36" lengthAdjust="spacing" textLength="336" x="108" y="2933.7305">AQL - Excel Interface</text><path d="M492,3001.6406 L492,3225.3867 L432,3237.3867 L492,3249.3867 L492,3473.1328 A0,0 0 0 0 492,3473.1328 L1359,3473.1328 A0,0 0 0 0 1359,3473.1328 L1359,3031.6406 L1329,3001.6406 L492,3001.6406 A0,0 0 0 0 492,3001.6406 " fill="#FEFFDD" style="stroke:#181818;stroke-width:1.5;"/><path d="M1329,3001.6406 L1329,3031.6406 L1359,3031.6406 L1329,3001.6406 " fill="#FEFFDD" style="stroke:#181818;stroke-width:1.5;"/><text fill="#000000" font-family="sans-serif" font-size="39" lengthAdjust="spacing" textLength="609" x="510" y="3057.126">Manual operations to extract &amp; plot</text><text fill="#000000" font-family="sans-serif" font-size="39" lengthAdjust="spacing" textLength="93" x="510" y="3106.1807">Pros:</text><text fill="#000000" font-family="sans-serif" font-size="39" lengthAdjust="spacing" textLength="666" x="546" y="3155.2354">- Good/killer graphics and 3D plots etc</text><text fill="#000000" font-family="sans-serif" font-size="39" lengthAdjust="spacing" textLength="102" x="510" y="3204.29">Cons:</text><text fill="#000000" font-family="sans-serif" font-size="39" lengthAdjust="spacing" textLength="150" x="546" y="3253.3447">- Limited</text><text fill="#000000" font-family="sans-serif" font-size="39" lengthAdjust="spacing" textLength="396" x="594" y="3302.3994">- Headers are repeated</text><text fill="#000000" font-family="sans-serif" font-size="39" lengthAdjust="spacing" textLength="717" x="594" y="3351.4541">- White Space between sets of each data</text><text fill="#000000" font-family="sans-serif" font-size="39" lengthAdjust="spacing" textLength="438" x="546" y="3400.5088">- file format may change?</text><text fill="#000000" font-family="sans-serif" font-size="39" lengthAdjust="spacing" textLength="768" x="546" y="3449.5635">- Many manual operations to extract outputs</text><rect fill="#F1F1F1" height="105.2813" rx="37.5" ry="37.5" style="stroke:#181818;stroke-width:1.5;" width="312" x="120" y="3184.7461"/><text fill="#000000" font-family="sans-serif" font-size="36" lengthAdjust="spacing" textLength="252" x="150" y="3252.1172">Workbench - UI</text><ellipse cx="276" cy="3602.1328" fill="none" rx="33" ry="33" style="stroke:#222222;stroke-width:3.0;"/><ellipse cx="276" cy="3602.1328" fill="#222222" rx="18" ry="18" style="stroke:#222222;stroke-width:3.0;"/><line style="stroke:#181818;stroke-width:3.0;" x1="276" x2="276" y1="632.9297" y2="734.8125"/><polygon fill="#181818" points="264,704.8125,276,734.8125,288,704.8125,276,716.8125" style="stroke:#181818;stroke-width:3.0;"/><line style="stroke:#181818;stroke-width:3.0;" x1="276" x2="276" y1="317.2383" y2="527.6484"/><polygon fill="#181818" points="264,497.6484,276,527.6484,288,497.6484,276,509.6484" style="stroke:#181818;stroke-width:3.0;"/><line style="stroke:#181818;stroke-width:3.0;" x1="276" x2="276" y1="1199.6133" y2="1326.0234"/><polygon fill="#181818" points="264,1296.0234,276,1326.0234,288,1296.0234,276,1308.0234" style="stroke:#181818;stroke-width:3.0;"/><line style="stroke:#181818;stroke-width:3.0;" x1="276" x2="276" y1="840.0938" y2="1094.332"/><polygon fill="#181818" points="264,1064.332,276,1094.332,288,1064.332,276,1076.332" style="stroke:#181818;stroke-width:3.0;"/><line style="stroke:#181818;stroke-width:3.0;" x1="276" x2="276" y1="1431.3047" y2="1734.5977"/><polygon fill="#181818" points="264,1704.5977,276,1734.5977,288,1704.5977,276,1716.5977" style="stroke:#181818;stroke-width:3.0;"/><line style="stroke:#181818;stroke-width:3.0;" x1="276" x2="276" y1="2248.4531" y2="2497.5"/><polygon fill="#181818" points="264,2467.5,276,2497.5,288,2467.5,276,2479.5" style="stroke:#181818;stroke-width:3.0;"/><line style="stroke:#181818;stroke-width:3.0;" x1="276" x2="276" y1="2602.7813" y2="2866.3594"/><polygon fill="#181818" points="264,2836.3594,276,2866.3594,288,2836.3594,276,2848.3594" style="stroke:#181818;stroke-width:3.0;"/><line style="stroke:#181818;stroke-width:3.0;" x1="276" x2="276" y1="2971.6406" y2="3184.7461"/><polygon fill="#181818" points="264,3154.7461,276,3184.7461,288,3154.7461,276,3166.7461" style="stroke:#181818;stroke-width:3.0;"/><line style="stroke:#181818;stroke-width:3.0;" x1="276" x2="276" y1="1839.8789" y2="2143.1719"/><polygon fill="#181818" points="264,2113.1719,276,2143.1719,288,2113.1719,276,2125.1719" style="stroke:#181818;stroke-width:3.0;"/><line style="stroke:#181818;stroke-width:3.0;" x1="276" x2="276" y1="3290.0273" y2="3569.1328"/><polygon fill="#181818" points="264,3539.1328,276,3569.1328,288,3539.1328,276,3551.1328" style="stroke:#181818;stroke-width:3.0;"/><text fill="#888888" font-family="sans-serif" font-size="30" lengthAdjust="spacing" textLength="288" x="1030.5" y="3663.2754">2024.06.12 at 15:43</text><text fill="#888888" font-family="sans-serif" font-size="30" lengthAdjust="spacing" textLength="495" x="927" y="3701.0098">aqwa_workflow_development.puml</text><!--SRC=[pLR1Rjiu4BthAmO1siP1hMAts8jpMBJ9RXCWHh9nYbnwOQIHnPeY1PAoOnJzzpvIjcCxikEWbzN5jZYSUVFcpOnT9XJJnyHDfAw55HLvwHL_DZPdUsiQdPyPgzdI7tzrszoLCfjeTex-x3OuCyfOifm_EnRPP6pR4C7apbJ2coI9X_Jfl_jFz4tV6pifb9dHEKzPcRfYxPF4UM7nGNYqyKnMZaiVVuRd-k4xPrvEUK2hwmK2v6ikbhPzSgRmCs6PH9OXZRMJ6IvBFQPn8tDM4ad6GzPvZDh6Hq80B8scenlBjJN1oO2-iAdOs_aH_KXMBWTfBZmLKh4xNRtSaKHuSYuGbSOBNo49K4IvjCXFpMd3MAQSmb7ExZsnuf2bsp3On1tnZ6gHyPaIiZe83uKC0rLFYAofo6LM-ApSCEtJs9YS2XQ-iUospXGBgmErNapOGGuLw0UysWeKBkCjyvEJAxpKZazEm4cDH5Xdypt9_TnRco58KZHYtzIRvGbgUO3hahvU7aP8dwRIDK95z2MhkcZKjiLGw61XQWPD0ED-Dxk8bLwffJwDl0NbaCL2HuDDeD4cYkYM2xR0m5IrqC7S52tWY1z5LIDYJBVriXNanfenEhmAnJs-cVlIwFVqhx7U2atiixH7wCJXYCwlH_Gvo8QsF2p88AcNPFXNLVgsqQ6gAwBmEmwJqoVoTb1qPunoWoquAqrilGykKtvacabVhXLZownDCPoyhkelwjauln3qUhRxjDgTuLAaiI9T9nqLxSLncbvTZZfoxj1guEgM1PR1wUyZVN96nsdcfYs4tdFJ9Nfq_7LHo4n2oQwfQuXnX_4PcdCGGWVXpsdb_93yo3I-RbeH01YuwHsMRCW5t7vOvpcErHtyjYab-mlb3MQq9uVlWEDAuma2pKpeNi20MiLctxMvTtYj6kKbRc5KFuJE3vLVkaK4KqHdEmYzY7N2kC3Em036Ci3VW6xJ-r82M5n8zC1-ngn301SYi40FTORfjtml5cCbKBHIOCZz_NB9hd3vdySCc-1IUxO50XzMi6VpFB3DZpxiBdfBjJB-fUXFYwP_yAfvRTYTElc2nVnX8fL21q4mDVx0jGFzutdquiASFb0TLx92sNBwVzT_jOVdoutMpMBRmcx_kd7Ur4bI6BopoHkWukEZEPvqE4pp_5teitSN5uEgEkebRm8wBIe-xYKSLsQyzGi0]--></g></svg>