<?xml version="1.0" encoding="us-ascii" standalone="no"?><svg xmlns="http://www.w3.org/2000/svg" xmlns:xlink="http://www.w3.org/1999/xlink" contentStyleType="text/css" height="3237px" preserveAspectRatio="none" style="width:2085px;height:3237px;background:#FFFFFF;" version="1.1" viewBox="0 0 2085 3237" width="2085px" zoomAndPan="magnify"><defs/><g><rect fill="#FF6347" height="135.6563" id="_title" rx="22.5" ry="22.5" style="stroke:#FF0000;stroke-width:6.0;" width="381" x="847.5" y="45"/><text fill="#000000" font-family="sans-serif" font-size="42" font-weight="bold" lengthAdjust="spacing" textLength="339" x="862.5" y="103.5996">AQWA Highlevel</text><text fill="#000000" font-family="sans-serif" font-size="42" font-weight="bold" lengthAdjust="spacing" textLength="195" x="940.5" y="156.4277">Workflow</text><path d="M366,198.6563 L366,275.2383 L306,287.2383 L366,299.2383 L366,375.8203 A0,0 0 0 0 366,375.8203 L1251,375.8203 A0,0 0 0 0 1251,375.8203 L1251,228.6563 L1221,198.6563 L366,198.6563 A0,0 0 0 0 366,198.6563 " fill="#FEFFDD" style="stroke:#181818;stroke-width:1.5;"/><path d="M1221,198.6563 L1221,228.6563 L1251,228.6563 L1221,198.6563 " fill="#FEFFDD" style="stroke:#181818;stroke-width:1.5;"/><text fill="#000000" font-family="sans-serif" font-size="39" lengthAdjust="spacing" textLength="822" x="384" y="254.1416">Objective: Provide high-level workflow as follows</text><text fill="#000000" font-family="sans-serif" font-size="39" lengthAdjust="spacing" textLength="306" x="384" y="303.1963">- software access</text><text fill="#000000" font-family="sans-serif" font-size="39" lengthAdjust="spacing" textLength="342" x="384" y="352.251">- working guidelines</text><ellipse cx="276" cy="287.2383" fill="#222222" rx="30" ry="30" style="stroke:#222222;stroke-width:3.0;"/><rect fill="none" height="512.1563" style="stroke:#000000;stroke-width:4.5;" width="1011" x="114" y="405.8203"/><path d="M570,405.8203 L570,437.6484 L540,467.6484 L114,467.6484 " fill="none" style="stroke:#000000;stroke-width:4.5;"/><text fill="#000000" font-family="sans-serif" font-size="42" lengthAdjust="spacing" textLength="426" x="123" y="452.4199">Preprocess: Geometry</text><path d="M435,497.6484 L435,574.2305 L375,586.2305 L435,598.2305 L435,674.8125 A0,0 0 0 0 435,674.8125 L1044,674.8125 A0,0 0 0 0 1044,674.8125 L1044,527.6484 L1014,497.6484 L435,497.6484 A0,0 0 0 0 435,497.6484 " fill="#FEFFDD" style="stroke:#181818;stroke-width:1.5;"/><path d="M1014,497.6484 L1014,527.6484 L1044,527.6484 L1014,497.6484 " fill="#FEFFDD" style="stroke:#181818;stroke-width:1.5;"/><text fill="#000000" font-family="sans-serif" font-size="39" lengthAdjust="spacing" textLength="312" x="453" y="553.1338">- No License Req.</text><text fill="#000000" font-family="sans-serif" font-size="39" lengthAdjust="spacing" textLength="534" x="453" y="602.1885">define geometry format directly</text><text fill="#000000" font-family="sans-serif" font-size="39" lengthAdjust="spacing" textLength="354" x="453" y="651.2432">i.e. nodes, elements</text><rect fill="#F1F1F1" height="105.2813" rx="37.5" ry="37.5" style="stroke:#181818;stroke-width:1.5;" width="198" x="177" y="533.5898"/><text fill="#000000" font-family="sans-serif" font-size="36" lengthAdjust="spacing" textLength="138" x="207" y="600.9609">.dat files</text><path d="M468,704.8125 L468,781.3945 L408,793.3945 L468,805.3945 L468,881.9766 A0,0 0 0 0 468,881.9766 L1095,881.9766 A0,0 0 0 0 1095,881.9766 L1095,734.8125 L1065,704.8125 L468,704.8125 A0,0 0 0 0 468,704.8125 " fill="#FEFFDD" style="stroke:#181818;stroke-width:1.5;"/><path d="M1065,704.8125 L1065,734.8125 L1095,734.8125 L1065,704.8125 " fill="#FEFFDD" style="stroke:#181818;stroke-width:1.5;"/><text fill="#000000" font-family="sans-serif" font-size="39" lengthAdjust="spacing" textLength="12" x="486" y="760.2979">-</text><text fill="#000000" font-family="sans-serif" font-size="39" font-weight="bold" lengthAdjust="spacing" textLength="147" x="510" y="760.2979">License</text><text fill="#000000" font-family="sans-serif" font-size="39" lengthAdjust="spacing" textLength="81" x="669" y="760.2979">Req.</text><text fill="#000000" font-family="sans-serif" font-size="39" lengthAdjust="spacing" textLength="552" x="498" y="809.3525">Import from various software (or)</text><text fill="#000000" font-family="sans-serif" font-size="39" lengthAdjust="spacing" textLength="537" x="498" y="858.4072">Prepare geometry from scratch</text><rect fill="#F1F1F1" height="105.2813" rx="37.5" ry="37.5" style="stroke:#181818;stroke-width:1.5;" width="264" x="144" y="740.7539"/><text fill="#000000" font-family="sans-serif" font-size="36" lengthAdjust="spacing" textLength="204" x="174" y="808.125">SpaceClaim</text><rect fill="none" height="610.2656" style="stroke:#000000;stroke-width:4.5;" width="975" x="100.5" y="947.9766"/><path d="M607.5,947.9766 L607.5,979.8047 L577.5,1009.8047 L100.5,1009.8047 " fill="none" style="stroke:#000000;stroke-width:4.5;"/><text fill="#000000" font-family="sans-serif" font-size="42" lengthAdjust="spacing" textLength="477" x="109.5" y="994.5762">Preprocess: Model Setup</text><path d="M439.5,1039.8047 L439.5,1165.4414 L379.5,1177.4414 L439.5,1189.4414 L439.5,1315.0781 A0,0 0 0 0 439.5,1315.0781 L1045.5,1315.0781 A0,0 0 0 0 1045.5,1315.0781 L1045.5,1069.8047 L1015.5,1039.8047 L439.5,1039.8047 A0,0 0 0 0 439.5,1039.8047 " fill="#FEFFDD" style="stroke:#181818;stroke-width:1.5;"/><path d="M1015.5,1039.8047 L1015.5,1069.8047 L1045.5,1069.8047 L1015.5,1039.8047 " fill="#FEFFDD" style="stroke:#181818;stroke-width:1.5;"/><text fill="#000000" font-family="sans-serif" font-size="39" lengthAdjust="spacing" textLength="312" x="457.5" y="1095.29">- No License Req.</text><text fill="#000000" font-family="sans-serif" font-size="39" lengthAdjust="spacing" textLength="543" x="457.5" y="1144.3447">- Manual. Note Stringent format</text><text fill="#000000" font-family="sans-serif" font-size="39" lengthAdjust="spacing" textLength="255" x="457.5" y="1193.3994">- Programming</text><text fill="#000000" font-family="sans-serif" font-size="39" lengthAdjust="spacing" textLength="408" x="481.5" y="1242.4541">- assetutilities au_*.yml</text><text fill="#000000" font-family="sans-serif" font-size="39" lengthAdjust="spacing" textLength="276" x="481.5" y="1291.5088">- run_prep_*.bat</text><rect fill="#F1F1F1" height="105.2813" rx="37.5" ry="37.5" style="stroke:#181818;stroke-width:1.5;" width="207" x="172.5" y="1124.8008"/><text fill="#000000" font-family="sans-serif" font-size="36" lengthAdjust="spacing" textLength="138" x="211.5" y="1192.1719">.dat files</text><path d="M481.5,1345.0781 L481.5,1421.6602 L421.5,1433.6602 L481.5,1445.6602 L481.5,1522.2422 A0,0 0 0 0 481.5,1522.2422 L886.5,1522.2422 A0,0 0 0 0 886.5,1522.2422 L886.5,1375.0781 L856.5,1345.0781 L481.5,1345.0781 A0,0 0 0 0 481.5,1345.0781 " fill="#FEFFDD" style="stroke:#181818;stroke-width:1.5;"/><path d="M856.5,1345.0781 L856.5,1375.0781 L886.5,1375.0781 L856.5,1345.0781 " fill="#FEFFDD" style="stroke:#181818;stroke-width:1.5;"/><text fill="#000000" font-family="sans-serif" font-size="39" lengthAdjust="spacing" textLength="12" x="499.5" y="1400.5635">-</text><text fill="#000000" font-family="sans-serif" font-size="39" font-weight="bold" lengthAdjust="spacing" textLength="147" x="523.5" y="1400.5635">License</text><text fill="#000000" font-family="sans-serif" font-size="39" lengthAdjust="spacing" textLength="81" x="682.5" y="1400.5635">Req.</text><text fill="#000000" font-family="sans-serif" font-size="39" lengthAdjust="spacing" textLength="318" x="499.5" y="1449.6182">- visual and helpful</text><text fill="#000000" font-family="sans-serif" font-size="39" lengthAdjust="spacing" textLength="342" x="499.5" y="1498.6729">- Manual operations</text><rect fill="#F1F1F1" height="105.2813" rx="37.5" ry="37.5" style="stroke:#181818;stroke-width:1.5;" width="291" x="130.5" y="1381.0195"/><text fill="#000000" font-family="sans-serif" font-size="36" lengthAdjust="spacing" textLength="231" x="160.5" y="1448.3906">Workbench UI</text><rect fill="none" height="452.1563" style="stroke:#000000;stroke-width:4.5;" width="1125" x="126" y="1588.2422"/><path d="M234,1588.2422 L234,1620.0703 L204,1650.0703 L126,1650.0703 " fill="none" style="stroke:#000000;stroke-width:4.5;"/><text fill="#000000" font-family="sans-serif" font-size="42" lengthAdjust="spacing" textLength="78" x="135" y="1634.8418">Run</text><path d="M456,1680.0703 L456,1830.2344 L396,1842.2344 L456,1854.2344 L456,2004.3984 A0,0 0 0 0 456,2004.3984 L1221,2004.3984 A0,0 0 0 0 1221,2004.3984 L1221,1710.0703 L1191,1680.0703 L456,1680.0703 A0,0 0 0 0 456,1680.0703 " fill="#FEFFDD" style="stroke:#181818;stroke-width:1.5;"/><path d="M1191,1680.0703 L1191,1710.0703 L1221,1710.0703 L1191,1680.0703 " fill="#FEFFDD" style="stroke:#181818;stroke-width:1.5;"/><text fill="#000000" font-family="sans-serif" font-size="39" lengthAdjust="spacing" textLength="105" x="474" y="1735.5557">Tools:</text><text fill="#000000" font-family="sans-serif" font-size="39" lengthAdjust="spacing" textLength="12" x="474" y="1784.6104">-</text><text fill="#000000" font-family="sans-serif" font-size="39" font-weight="bold" lengthAdjust="spacing" textLength="147" x="498" y="1784.6104">License</text><text fill="#000000" font-family="sans-serif" font-size="39" lengthAdjust="spacing" textLength="81" x="657" y="1784.6104">Req.</text><text fill="#000000" font-family="sans-serif" font-size="39" lengthAdjust="spacing" textLength="222" x="474" y="1833.665">- Workbench</text><text fill="#000000" font-family="sans-serif" font-size="39" lengthAdjust="spacing" textLength="462" x="474" y="1882.7197">- AQWA.exe with .dat files</text><text fill="#000000" font-family="sans-serif" font-size="39" lengthAdjust="spacing" textLength="393" x="486" y="1931.7744">- Batch (run_aqwa.bat)</text><text fill="#000000" font-family="sans-serif" font-size="39" lengthAdjust="spacing" textLength="690" x="486" y="1980.8291">- External force batch (run_aqwa_ef.bat)</text><rect fill="#F1F1F1" height="105.2813" rx="37.5" ry="37.5" style="stroke:#181818;stroke-width:1.5;" width="240" x="156" y="1789.5938"/><text fill="#000000" font-family="sans-serif" font-size="36" lengthAdjust="spacing" textLength="180" x="186" y="1856.9648">Run AQWA</text><rect fill="none" height="929.6016" style="stroke:#000000;stroke-width:4.5;" width="2019" x="33" y="2070.3984"/><path d="M297,2070.3984 L297,2102.2266 L267,2132.2266 L33,2132.2266 " fill="none" style="stroke:#000000;stroke-width:4.5;"/><text fill="#000000" font-family="sans-serif" font-size="42" lengthAdjust="spacing" textLength="234" x="42" y="2116.998">Postprocess</text><path d="M1287,2474.5313 L1287,2651.6953 L1992,2651.6953 L1992,2504.5313 L1962,2474.5313 L1287,2474.5313 " fill="#FEFFDD" style="stroke:#181818;stroke-width:1.5;"/><path d="M1962,2474.5313 L1962,2504.5313 L1992,2504.5313 L1962,2474.5313 " fill="#FEFFDD" style="stroke:#181818;stroke-width:1.5;"/><text fill="#000000" font-family="sans-serif" font-size="39" lengthAdjust="spacing" textLength="105" x="1305" y="2530.0166">Tools:</text><text fill="#000000" font-family="sans-serif" font-size="39" lengthAdjust="spacing" textLength="180" x="1317" y="2579.0713">- MS DOS</text><text fill="#000000" font-family="sans-serif" font-size="39" lengthAdjust="spacing" textLength="630" x="1317" y="2628.126">- Programming (Python) for .LIS files</text><path d="M478.5,2162.2266 L478.5,2238.8086 L418.5,2250.8086 L478.5,2262.8086 L478.5,2339.3906 A0,0 0 0 0 478.5,2339.3906 L997.5,2339.3906 A0,0 0 0 0 997.5,2339.3906 L997.5,2192.2266 L967.5,2162.2266 L478.5,2162.2266 A0,0 0 0 0 478.5,2162.2266 " fill="#FEFFDD" style="stroke:#181818;stroke-width:1.5;"/><path d="M967.5,2162.2266 L967.5,2192.2266 L997.5,2192.2266 L967.5,2162.2266 " fill="#FEFFDD" style="stroke:#181818;stroke-width:1.5;"/><text fill="#000000" font-family="sans-serif" font-size="39" lengthAdjust="spacing" textLength="456" x="496.5" y="2217.7119">- AQWAReader (.csv files)</text><text fill="#000000" font-family="sans-serif" font-size="39" lengthAdjust="spacing" textLength="315" x="496.5" y="2266.7666">- run_post_dm.bat</text><text fill="#000000" font-family="sans-serif" font-size="39" lengthAdjust="spacing" textLength="189" x="496.5" y="2315.8213">- aqr_*.yml</text><rect fill="#F1F1F1" height="105.2813" rx="37.5" ry="37.5" style="stroke:#181818;stroke-width:1.5;" width="285" x="133.5" y="2198.168"/><text fill="#000000" font-family="sans-serif" font-size="36" lengthAdjust="spacing" textLength="225" x="163.5" y="2265.5391">AQWAReader</text><path d="M549,2369.3906 L549,2445.9727 L489,2457.9727 L549,2469.9727 L549,2546.5547 A0,0 0 0 0 549,2546.5547 L1257,2546.5547 A0,0 0 0 0 1257,2546.5547 L1257,2399.3906 L1227,2369.3906 L549,2369.3906 A0,0 0 0 0 549,2369.3906 " fill="#FEFFDD" style="stroke:#181818;stroke-width:1.5;"/><path d="M1227,2369.3906 L1227,2399.3906 L1257,2399.3906 L1227,2369.3906 " fill="#FEFFDD" style="stroke:#181818;stroke-width:1.5;"/><text fill="#000000" font-family="sans-serif" font-size="39" lengthAdjust="spacing" textLength="633" x="579" y="2424.876">Reading/Programming from .LIS files</text><text fill="#000000" font-family="sans-serif" font-size="39" lengthAdjust="spacing" textLength="315" x="567" y="2473.9307">- run_post_dm.bat</text><text fill="#000000" font-family="sans-serif" font-size="39" lengthAdjust="spacing" textLength="174" x="567" y="2522.9854">- lis_*.yml</text><rect fill="#F1F1F1" height="105.2813" rx="37.5" ry="37.5" style="stroke:#181818;stroke-width:1.5;" width="426" x="63" y="2405.332"/><text fill="#000000" font-family="sans-serif" font-size="36" lengthAdjust="spacing" textLength="366" x="93" y="2472.7031">AQWA output file (.LIS)</text><path d="M534,2664.668 L534,2692.1953 L474,2704.1953 L534,2716.1953 L534,2743.7227 A0,0 0 0 0 534,2743.7227 L687,2743.7227 A0,0 0 0 0 687,2743.7227 L687,2694.668 L657,2664.668 L534,2664.668 A0,0 0 0 0 534,2664.668 " fill="#FEFFDD" style="stroke:#181818;stroke-width:1.5;"/><path d="M657,2664.668 L657,2694.668 L687,2694.668 L657,2664.668 " fill="#FEFFDD" style="stroke:#181818;stroke-width:1.5;"/><text fill="#000000" font-family="sans-serif" font-size="39" lengthAdjust="spacing" textLength="90" x="552" y="2720.1533">None</text><rect fill="#F1F1F1" height="105.2813" rx="37.5" ry="37.5" style="stroke:#181818;stroke-width:1.5;" width="396" x="78" y="2651.5547"/><text fill="#000000" font-family="sans-serif" font-size="36" lengthAdjust="spacing" textLength="336" x="108" y="2718.9258">AQL - Excel Interface</text><path d="M492,2786.8359 L492,2863.418 L432,2875.418 L492,2887.418 L492,2964 A0,0 0 0 0 492,2964 L1221,2964 A0,0 0 0 0 1221,2964 L1221,2816.8359 L1191,2786.8359 L492,2786.8359 A0,0 0 0 0 492,2786.8359 " fill="#FEFFDD" style="stroke:#181818;stroke-width:1.5;"/><path d="M1191,2786.8359 L1191,2816.8359 L1221,2816.8359 L1191,2786.8359 " fill="#FEFFDD" style="stroke:#181818;stroke-width:1.5;"/><text fill="#000000" font-family="sans-serif" font-size="39" lengthAdjust="spacing" textLength="333" x="510" y="2842.3213">- Dummy geometry</text><text fill="#000000" font-family="sans-serif" font-size="39" lengthAdjust="spacing" textLength="249" x="510" y="2891.376">- Find process</text><text fill="#000000" font-family="sans-serif" font-size="39" lengthAdjust="spacing" textLength="666" x="510" y="2940.4307">- Do this manually until its use is clear</text><rect fill="#F1F1F1" height="105.2813" rx="37.5" ry="37.5" style="stroke:#181818;stroke-width:1.5;" width="312" x="120" y="2822.7773"/><text fill="#000000" font-family="sans-serif" font-size="36" lengthAdjust="spacing" textLength="252" x="150" y="2890.1484">Workbench - UI</text><ellipse cx="276" cy="3093" fill="none" rx="33" ry="33" style="stroke:#222222;stroke-width:3.0;"/><ellipse cx="276" cy="3093" fill="#222222" rx="18" ry="18" style="stroke:#222222;stroke-width:3.0;"/><line style="stroke:#181818;stroke-width:3.0;" x1="276" x2="276" y1="638.8711" y2="740.7539"/><polygon fill="#181818" points="264,710.7539,276,740.7539,288,710.7539,276,722.7539" style="stroke:#181818;stroke-width:3.0;"/><line style="stroke:#181818;stroke-width:3.0;" x1="276" x2="276" y1="317.2383" y2="533.5898"/><polygon fill="#181818" points="264,503.5898,276,533.5898,288,503.5898,276,515.5898" style="stroke:#181818;stroke-width:3.0;"/><line style="stroke:#181818;stroke-width:3.0;" x1="276" x2="276" y1="1230.082" y2="1381.0195"/><polygon fill="#181818" points="264,1351.0195,276,1381.0195,288,1351.0195,276,1363.0195" style="stroke:#181818;stroke-width:3.0;"/><line style="stroke:#181818;stroke-width:3.0;" x1="276" x2="276" y1="846.0352" y2="1124.8008"/><polygon fill="#181818" points="264,1094.8008,276,1124.8008,288,1094.8008,276,1106.8008" style="stroke:#181818;stroke-width:3.0;"/><line style="stroke:#181818;stroke-width:3.0;" x1="276" x2="276" y1="1486.3008" y2="1789.5938"/><polygon fill="#181818" points="264,1759.5938,276,1789.5938,288,1759.5938,276,1771.5938" style="stroke:#181818;stroke-width:3.0;"/><line style="stroke:#181818;stroke-width:3.0;" x1="276" x2="276" y1="2303.4492" y2="2405.332"/><polygon fill="#181818" points="264,2375.332,276,2405.332,288,2375.332,276,2387.332" style="stroke:#181818;stroke-width:3.0;"/><line style="stroke:#181818;stroke-width:3.0;" x1="276" x2="276" y1="2510.6133" y2="2651.5547"/><polygon fill="#181818" points="264,2621.5547,276,2651.5547,288,2621.5547,276,2633.5547" style="stroke:#181818;stroke-width:3.0;"/><line style="stroke:#181818;stroke-width:3.0;" x1="276" x2="276" y1="2756.8359" y2="2822.7773"/><polygon fill="#181818" points="264,2792.7773,276,2822.7773,288,2792.7773,276,2804.7773" style="stroke:#181818;stroke-width:3.0;"/><line style="stroke:#181818;stroke-width:3.0;" x1="276" x2="276" y1="1894.875" y2="2198.168"/><polygon fill="#181818" points="264,2168.168,276,2198.168,288,2168.168,276,2180.168" style="stroke:#181818;stroke-width:3.0;"/><line style="stroke:#181818;stroke-width:3.0;" x1="276" x2="276" y1="2928.0586" y2="3060"/><polygon fill="#181818" points="264,3030,276,3060,288,3030,276,3042" style="stroke:#181818;stroke-width:3.0;"/><text fill="#888888" font-family="sans-serif" font-size="30" lengthAdjust="spacing" textLength="288" x="894" y="3154.1426">2024.06.12 at 16:01</text><text fill="#888888" font-family="sans-serif" font-size="30" lengthAdjust="spacing" textLength="441" x="817.5" y="3191.877">aqwa_highlevel_workflow.puml</text><!--SRC=[hLLBRzf04BxxLuoGeW0ghjgg5tBAessGaZI5LBbKGijwZBVimzbTGr3L_zvPGm638KIAJ-2PsVaUisF7cKJu5Bc9q3cpJ84NNkA5iGdQlYbqScciHWiVFjVdF6I2JpGw1n_h4owDD1Oi9ZjXnYTZksWHKXwCOjv4KHc4yn-Fvt0jnfd4AKhufH-DdQJIpAB8UMPz504zsdW4Irc-_1kUxwFVoBsOOXVkhPcA126ZXCxYdDdo560EKYFfbrjLTi2PrC-OHM2S4wMDIAWJUWpZWWwKWWYNGTH9YM61XiWHU64qDEujvjQ4Gxhm3Or2R-SD-1EjZkp62VEG2edkRFLo3wK5X3i3DuAZTWXzV8ehqGHJmWJZPIUYPabCI8GbBUGSAiaYnfZQ9EZU0KfKgBsh95HPbMW7EUDuAPbGHw9jjvTWs-rTkD1JkR54tne5KsQ5ATnQ_AQnhMfwK3D4rln2eUEMUPuTWFxte2-t98640VeYhre3R-fD1swPBfYCAOlA1zxI897cIvEsScbcntH5L1YsgWWKPCuHMYyaiK47h1YsuxcIEtcsqCESc59ujDMXnjjmiqQeUGO_Us_XRWUcmX5XODGhGvcdXQnL14oEP24PurvbOh_GmR0L0VfVxekpDQazo1-CaQxxEZ8hURRUXuunFYFCXCysHYRQCkCY32aqWoViQSQ28wtjd2_F7gqcHMWcECAeMZB4j5hrufGRvvTZlYdK0M7sYFFVhW5SVH_KHJR7jNa_zvdHhK02uflUe4QFcl4BElQHqQVYoE5R5q0pvcwwQDEAQku0wJ1CrCube9lqP6lkpXvqO0gV5mjxgIKnQnq55G9AKkRzfahbwjgZpakefN37ehuffuhJWkjfcgsKrlTncE-CnkCtHkVudN5LA3LVhV2ju5T1NPOZkrrdm6V2WIft1dtC2aqR48HtKD2-fGYNoEpX3UAyoQCeDVJEHYTqLx7PcDCJtzx6IN8AT7bFhw-xIZLQqKamHZE5pLOK3bfM_GC0]--></g></svg>