<?xml version="1.0" encoding="us-ascii" standalone="no"?><svg xmlns="http://www.w3.org/2000/svg" xmlns:xlink="http://www.w3.org/1999/xlink" contentStyleType="text/css" height="3318px" preserveAspectRatio="none" style="width:1320px;height:3318px;background:#FFFFFF;" version="1.1" viewBox="0 0 1320 3318" width="1320px" zoomAndPan="magnify"><defs/><g><rect fill="#FF6347" height="135.6563" id="_title" rx="22.5" ry="22.5" style="stroke:#FF0000;stroke-width:6.0;" width="381" x="465" y="45"/><text fill="#000000" font-family="sans-serif" font-size="42" font-weight="bold" lengthAdjust="spacing" textLength="339" x="480" y="103.5996">AQWA Highlevel</text><text fill="#000000" font-family="sans-serif" font-size="42" font-weight="bold" lengthAdjust="spacing" textLength="195" x="558" y="156.4277">Workflow</text><path d="M366,198.6563 L366,275.2383 L306,287.2383 L366,299.2383 L366,375.8203 A0,0 0 0 0 366,375.8203 L1251,375.8203 A0,0 0 0 0 1251,375.8203 L1251,228.6563 L1221,198.6563 L366,198.6563 A0,0 0 0 0 366,198.6563 " fill="#FEFFDD" style="stroke:#181818;stroke-width:1.5;"/><path d="M1221,198.6563 L1221,228.6563 L1251,228.6563 L1221,198.6563 " fill="#FEFFDD" style="stroke:#181818;stroke-width:1.5;"/><text fill="#000000" font-family="sans-serif" font-size="39" lengthAdjust="spacing" textLength="822" x="384" y="254.1416">Objective: Provide high-level workflow as follows</text><text fill="#000000" font-family="sans-serif" font-size="39" lengthAdjust="spacing" textLength="306" x="384" y="303.1963">- software access</text><text fill="#000000" font-family="sans-serif" font-size="39" lengthAdjust="spacing" textLength="342" x="384" y="352.251">- working guidelines</text><ellipse cx="276" cy="287.2383" fill="#222222" rx="30" ry="30" style="stroke:#222222;stroke-width:3.0;"/><rect fill="none" height="512.1563" style="stroke:#000000;stroke-width:4.5;" width="1011" x="114" y="405.8203"/><path d="M570,405.8203 L570,437.6484 L540,467.6484 L114,467.6484 " fill="none" style="stroke:#000000;stroke-width:4.5;"/><text fill="#000000" font-family="sans-serif" font-size="42" lengthAdjust="spacing" textLength="426" x="123" y="452.4199">Preprocess: Geometry</text><path d="M435,497.6484 L435,574.2305 L375,586.2305 L435,598.2305 L435,674.8125 A0,0 0 0 0 435,674.8125 L1044,674.8125 A0,0 0 0 0 1044,674.8125 L1044,527.6484 L1014,497.6484 L435,497.6484 A0,0 0 0 0 435,497.6484 " fill="#FEFFDD" style="stroke:#181818;stroke-width:1.5;"/><path d="M1014,497.6484 L1014,527.6484 L1044,527.6484 L1014,497.6484 " fill="#FEFFDD" style="stroke:#181818;stroke-width:1.5;"/><text fill="#000000" font-family="sans-serif" font-size="39" lengthAdjust="spacing" textLength="312" x="453" y="553.1338">- No License Req.</text><text fill="#000000" font-family="sans-serif" font-size="39" lengthAdjust="spacing" textLength="534" x="453" y="602.1885">define geometry format directly</text><text fill="#000000" font-family="sans-serif" font-size="39" lengthAdjust="spacing" textLength="354" x="453" y="651.2432">i.e. nodes, elements</text><rect fill="#F1F1F1" height="105.2813" rx="37.5" ry="37.5" style="stroke:#181818;stroke-width:1.5;" width="198" x="177" y="533.5898"/><text fill="#000000" font-family="sans-serif" font-size="36" lengthAdjust="spacing" textLength="138" x="207" y="600.9609">.dat files</text><path d="M468,704.8125 L468,781.3945 L408,793.3945 L468,805.3945 L468,881.9766 A0,0 0 0 0 468,881.9766 L1095,881.9766 A0,0 0 0 0 1095,881.9766 L1095,734.8125 L1065,704.8125 L468,704.8125 A0,0 0 0 0 468,704.8125 " fill="#FEFFDD" style="stroke:#181818;stroke-width:1.5;"/><path d="M1065,704.8125 L1065,734.8125 L1095,734.8125 L1065,704.8125 " fill="#FEFFDD" style="stroke:#181818;stroke-width:1.5;"/><text fill="#000000" font-family="sans-serif" font-size="39" lengthAdjust="spacing" textLength="12" x="486" y="760.2979">-</text><text fill="#000000" font-family="sans-serif" font-size="39" font-weight="bold" lengthAdjust="spacing" textLength="147" x="510" y="760.2979">License</text><text fill="#000000" font-family="sans-serif" font-size="39" lengthAdjust="spacing" textLength="81" x="669" y="760.2979">Req.</text><text fill="#000000" font-family="sans-serif" font-size="39" lengthAdjust="spacing" textLength="552" x="498" y="809.3525">Import from various software (or)</text><text fill="#000000" font-family="sans-serif" font-size="39" lengthAdjust="spacing" textLength="537" x="498" y="858.4072">Prepare geometry from scratch</text><rect fill="#F1F1F1" height="105.2813" rx="37.5" ry="37.5" style="stroke:#181818;stroke-width:1.5;" width="264" x="144" y="740.7539"/><text fill="#000000" font-family="sans-serif" font-size="36" lengthAdjust="spacing" textLength="204" x="174" y="808.125">SpaceClaim</text><rect fill="none" height="610.2656" style="stroke:#000000;stroke-width:4.5;" width="975" x="100.5" y="947.9766"/><path d="M607.5,947.9766 L607.5,979.8047 L577.5,1009.8047 L100.5,1009.8047 " fill="none" style="stroke:#000000;stroke-width:4.5;"/><text fill="#000000" font-family="sans-serif" font-size="42" lengthAdjust="spacing" textLength="477" x="109.5" y="994.5762">Preprocess: Model Setup</text><path d="M439.5,1039.8047 L439.5,1165.4414 L379.5,1177.4414 L439.5,1189.4414 L439.5,1315.0781 A0,0 0 0 0 439.5,1315.0781 L1045.5,1315.0781 A0,0 0 0 0 1045.5,1315.0781 L1045.5,1069.8047 L1015.5,1039.8047 L439.5,1039.8047 A0,0 0 0 0 439.5,1039.8047 " fill="#FEFFDD" style="stroke:#181818;stroke-width:1.5;"/><path d="M1015.5,1039.8047 L1015.5,1069.8047 L1045.5,1069.8047 L1015.5,1039.8047 " fill="#FEFFDD" style="stroke:#181818;stroke-width:1.5;"/><text fill="#000000" font-family="sans-serif" font-size="39" lengthAdjust="spacing" textLength="312" x="457.5" y="1095.29">- No License Req.</text><text fill="#000000" font-family="sans-serif" font-size="39" lengthAdjust="spacing" textLength="543" x="457.5" y="1144.3447">- Manual. Note Stringent format</text><text fill="#000000" font-family="sans-serif" font-size="39" lengthAdjust="spacing" textLength="255" x="457.5" y="1193.3994">- Programming</text><text fill="#000000" font-family="sans-serif" font-size="39" lengthAdjust="spacing" textLength="408" x="481.5" y="1242.4541">- assetutilities au_*.yml</text><text fill="#000000" font-family="sans-serif" font-size="39" lengthAdjust="spacing" textLength="276" x="481.5" y="1291.5088">- run_prep_*.bat</text><rect fill="#F1F1F1" height="105.2813" rx="37.5" ry="37.5" style="stroke:#181818;stroke-width:1.5;" width="207" x="172.5" y="1124.8008"/><text fill="#000000" font-family="sans-serif" font-size="36" lengthAdjust="spacing" textLength="138" x="211.5" y="1192.1719">.dat files</text><path d="M481.5,1345.0781 L481.5,1421.6602 L421.5,1433.6602 L481.5,1445.6602 L481.5,1522.2422 A0,0 0 0 0 481.5,1522.2422 L886.5,1522.2422 A0,0 0 0 0 886.5,1522.2422 L886.5,1375.0781 L856.5,1345.0781 L481.5,1345.0781 A0,0 0 0 0 481.5,1345.0781 " fill="#FEFFDD" style="stroke:#181818;stroke-width:1.5;"/><path d="M856.5,1345.0781 L856.5,1375.0781 L886.5,1375.0781 L856.5,1345.0781 " fill="#FEFFDD" style="stroke:#181818;stroke-width:1.5;"/><text fill="#000000" font-family="sans-serif" font-size="39" lengthAdjust="spacing" textLength="12" x="499.5" y="1400.5635">-</text><text fill="#000000" font-family="sans-serif" font-size="39" font-weight="bold" lengthAdjust="spacing" textLength="147" x="523.5" y="1400.5635">License</text><text fill="#000000" font-family="sans-serif" font-size="39" lengthAdjust="spacing" textLength="81" x="682.5" y="1400.5635">Req.</text><text fill="#000000" font-family="sans-serif" font-size="39" lengthAdjust="spacing" textLength="318" x="499.5" y="1449.6182">- visual and helpful</text><text fill="#000000" font-family="sans-serif" font-size="39" lengthAdjust="spacing" textLength="342" x="499.5" y="1498.6729">- Manual operations</text><rect fill="#F1F1F1" height="105.2813" rx="37.5" ry="37.5" style="stroke:#181818;stroke-width:1.5;" width="291" x="130.5" y="1381.0195"/><text fill="#000000" font-family="sans-serif" font-size="36" lengthAdjust="spacing" textLength="231" x="160.5" y="1448.3906">Workbench UI</text><rect fill="none" height="579.7969" style="stroke:#000000;stroke-width:4.5;" width="967.5" x="100.5" y="1588.2422"/><path d="M346.5,1588.2422 L346.5,1620.0703 L316.5,1650.0703 L100.5,1650.0703 " fill="none" style="stroke:#000000;stroke-width:4.5;"/><text fill="#000000" font-family="sans-serif" font-size="42" lengthAdjust="spacing" textLength="216" x="109.5" y="1634.8418">Run AQWA</text><path d="M481.5,1698.6563 L481.5,1750.7109 L421.5,1762.7109 L481.5,1774.7109 L481.5,1826.7656 A0,0 0 0 0 481.5,1826.7656 L808.5,1826.7656 A0,0 0 0 0 808.5,1826.7656 L808.5,1728.6563 L778.5,1698.6563 L481.5,1698.6563 A0,0 0 0 0 481.5,1698.6563 " fill="#FEFFDD" style="stroke:#181818;stroke-width:1.5;"/><path d="M778.5,1698.6563 L778.5,1728.6563 L808.5,1728.6563 L778.5,1698.6563 " fill="#FEFFDD" style="stroke:#181818;stroke-width:1.5;"/><text fill="#000000" font-family="sans-serif" font-size="39" lengthAdjust="spacing" textLength="105" x="499.5" y="1754.1416">Tools:</text><text fill="#000000" font-family="sans-serif" font-size="39" lengthAdjust="spacing" textLength="12" x="499.5" y="1803.1963">-</text><text fill="#000000" font-family="sans-serif" font-size="39" font-weight="bold" lengthAdjust="spacing" textLength="147" x="523.5" y="1803.1963">License</text><text fill="#000000" font-family="sans-serif" font-size="39" lengthAdjust="spacing" textLength="81" x="682.5" y="1803.1963">Req.</text><rect fill="#F1F1F1" height="105.2813" rx="37.5" ry="37.5" style="stroke:#181818;stroke-width:1.5;" width="291" x="130.5" y="1710.0703"/><text fill="#000000" font-family="sans-serif" font-size="36" lengthAdjust="spacing" textLength="231" x="160.5" y="1777.4414">Workbench UI</text><path d="M462,1856.7656 L462,1982.4023 L402,1994.4023 L462,2006.4023 L462,2132.0391 A0,0 0 0 0 462,2132.0391 L1038,2132.0391 A0,0 0 0 0 1038,2132.0391 L1038,1886.7656 L1008,1856.7656 L462,1856.7656 A0,0 0 0 0 462,1856.7656 " fill="#FEFFDD" style="stroke:#181818;stroke-width:1.5;"/><path d="M1008,1856.7656 L1008,1886.7656 L1038,1886.7656 L1008,1856.7656 " fill="#FEFFDD" style="stroke:#181818;stroke-width:1.5;"/><text fill="#000000" font-family="sans-serif" font-size="39" lengthAdjust="spacing" textLength="105" x="480" y="1912.251">Tools:</text><text fill="#000000" font-family="sans-serif" font-size="39" lengthAdjust="spacing" textLength="12" x="480" y="1961.3057">-</text><text fill="#000000" font-family="sans-serif" font-size="39" font-weight="bold" lengthAdjust="spacing" textLength="147" x="504" y="1961.3057">License</text><text fill="#000000" font-family="sans-serif" font-size="39" lengthAdjust="spacing" textLength="81" x="663" y="1961.3057">Req.</text><text fill="#000000" font-family="sans-serif" font-size="39" lengthAdjust="spacing" textLength="462" x="480" y="2010.3604">- AQWA.exe with .dat files</text><text fill="#000000" font-family="sans-serif" font-size="39" lengthAdjust="spacing" textLength="381" x="492" y="2059.415">- Batch :run_aqwa.bat</text><text fill="#000000" font-family="sans-serif" font-size="39" lengthAdjust="spacing" textLength="501" x="492" y="2108.4697">- EF batch : run_aqwa_ef.bat</text><rect fill="#F1F1F1" height="105.2813" rx="37.5" ry="37.5" style="stroke:#181818;stroke-width:1.5;" width="252" x="150" y="1941.7617"/><text fill="#000000" font-family="sans-serif" font-size="36" lengthAdjust="spacing" textLength="192" x="180" y="2009.1328">Batch Mode</text><rect fill="none" height="884.6016" style="stroke:#000000;stroke-width:4.5;" width="1254" x="33" y="2198.0391"/><path d="M297,2198.0391 L297,2229.8672 L267,2259.8672 L33,2259.8672 " fill="none" style="stroke:#000000;stroke-width:4.5;"/><text fill="#000000" font-family="sans-serif" font-size="42" lengthAdjust="spacing" textLength="234" x="42" y="2244.6387">Postprocess</text><path d="M478.5,2289.8672 L478.5,2366.4492 L418.5,2378.4492 L478.5,2390.4492 L478.5,2467.0313 A0,0 0 0 0 478.5,2467.0313 L997.5,2467.0313 A0,0 0 0 0 997.5,2467.0313 L997.5,2319.8672 L967.5,2289.8672 L478.5,2289.8672 A0,0 0 0 0 478.5,2289.8672 " fill="#FEFFDD" style="stroke:#181818;stroke-width:1.5;"/><path d="M967.5,2289.8672 L967.5,2319.8672 L997.5,2319.8672 L967.5,2289.8672 " fill="#FEFFDD" style="stroke:#181818;stroke-width:1.5;"/><text fill="#000000" font-family="sans-serif" font-size="39" lengthAdjust="spacing" textLength="456" x="496.5" y="2345.3525">- AQWAReader (.csv files)</text><text fill="#000000" font-family="sans-serif" font-size="39" lengthAdjust="spacing" textLength="315" x="496.5" y="2394.4072">- run_post_dm.bat</text><text fill="#000000" font-family="sans-serif" font-size="39" lengthAdjust="spacing" textLength="189" x="496.5" y="2443.4619">- aqr_*.yml</text><rect fill="#F1F1F1" height="105.2813" rx="37.5" ry="37.5" style="stroke:#181818;stroke-width:1.5;" width="285" x="133.5" y="2325.8086"/><text fill="#000000" font-family="sans-serif" font-size="36" lengthAdjust="spacing" textLength="225" x="163.5" y="2393.1797">AQWAReader</text><path d="M549,2497.0313 L549,2573.6133 L489,2585.6133 L549,2597.6133 L549,2674.1953 A0,0 0 0 0 549,2674.1953 L1257,2674.1953 A0,0 0 0 0 1257,2674.1953 L1257,2527.0313 L1227,2497.0313 L549,2497.0313 A0,0 0 0 0 549,2497.0313 " fill="#FEFFDD" style="stroke:#181818;stroke-width:1.5;"/><path d="M1227,2497.0313 L1227,2527.0313 L1257,2527.0313 L1227,2497.0313 " fill="#FEFFDD" style="stroke:#181818;stroke-width:1.5;"/><text fill="#000000" font-family="sans-serif" font-size="39" lengthAdjust="spacing" textLength="633" x="579" y="2552.5166">Reading/Programming from .LIS files</text><text fill="#000000" font-family="sans-serif" font-size="39" lengthAdjust="spacing" textLength="315" x="567" y="2601.5713">- run_post_dm.bat</text><text fill="#000000" font-family="sans-serif" font-size="39" lengthAdjust="spacing" textLength="174" x="567" y="2650.626">- lis_*.yml</text><rect fill="#F1F1F1" height="105.2813" rx="37.5" ry="37.5" style="stroke:#181818;stroke-width:1.5;" width="426" x="63" y="2532.9727"/><text fill="#000000" font-family="sans-serif" font-size="36" lengthAdjust="spacing" textLength="366" x="93" y="2600.3438">AQWA output file (.LIS)</text><path d="M534,2747.3086 L534,2774.8359 L474,2786.8359 L534,2798.8359 L534,2826.3633 A0,0 0 0 0 534,2826.3633 L687,2826.3633 A0,0 0 0 0 687,2826.3633 L687,2777.3086 L657,2747.3086 L534,2747.3086 A0,0 0 0 0 534,2747.3086 " fill="#FEFFDD" style="stroke:#181818;stroke-width:1.5;"/><path d="M657,2747.3086 L657,2777.3086 L687,2777.3086 L657,2747.3086 " fill="#FEFFDD" style="stroke:#181818;stroke-width:1.5;"/><text fill="#000000" font-family="sans-serif" font-size="39" lengthAdjust="spacing" textLength="90" x="552" y="2802.7939">None</text><rect fill="#F1F1F1" height="105.2813" rx="37.5" ry="37.5" style="stroke:#181818;stroke-width:1.5;" width="396" x="78" y="2734.1953"/><text fill="#000000" font-family="sans-serif" font-size="36" lengthAdjust="spacing" textLength="336" x="108" y="2801.5664">AQL - Excel Interface</text><path d="M492,2869.4766 L492,2946.0586 L432,2958.0586 L492,2970.0586 L492,3046.6406 A0,0 0 0 0 492,3046.6406 L888,3046.6406 A0,0 0 0 0 888,3046.6406 L888,2899.4766 L858,2869.4766 L492,2869.4766 A0,0 0 0 0 492,2869.4766 " fill="#FEFFDD" style="stroke:#181818;stroke-width:1.5;"/><path d="M858,2869.4766 L858,2899.4766 L888,2899.4766 L858,2869.4766 " fill="#FEFFDD" style="stroke:#181818;stroke-width:1.5;"/><text fill="#000000" font-family="sans-serif" font-size="39" lengthAdjust="spacing" textLength="333" x="510" y="2924.9619">- Dummy geometry</text><text fill="#000000" font-family="sans-serif" font-size="39" lengthAdjust="spacing" textLength="12" x="510" y="2974.0166">-</text><text fill="#000000" font-family="sans-serif" font-size="39" font-weight="bold" lengthAdjust="spacing" textLength="309" x="534" y="2974.0166">Prepare process</text><text fill="#000000" font-family="sans-serif" font-size="39" lengthAdjust="spacing" textLength="300" x="510" y="3023.0713">- Manual process</text><rect fill="#F1F1F1" height="105.2813" rx="37.5" ry="37.5" style="stroke:#181818;stroke-width:1.5;" width="312" x="120" y="2905.418"/><text fill="#000000" font-family="sans-serif" font-size="36" lengthAdjust="spacing" textLength="252" x="150" y="2972.7891">Workbench - UI</text><ellipse cx="276" cy="3175.6406" fill="none" rx="33" ry="33" style="stroke:#222222;stroke-width:3.0;"/><ellipse cx="276" cy="3175.6406" fill="#222222" rx="18" ry="18" style="stroke:#222222;stroke-width:3.0;"/><line style="stroke:#181818;stroke-width:3.0;" x1="276" x2="276" y1="638.8711" y2="740.7539"/><polygon fill="#181818" points="264,710.7539,276,740.7539,288,710.7539,276,722.7539" style="stroke:#181818;stroke-width:3.0;"/><line style="stroke:#181818;stroke-width:3.0;" x1="276" x2="276" y1="317.2383" y2="533.5898"/><polygon fill="#181818" points="264,503.5898,276,533.5898,288,503.5898,276,515.5898" style="stroke:#181818;stroke-width:3.0;"/><line style="stroke:#181818;stroke-width:3.0;" x1="276" x2="276" y1="1230.082" y2="1381.0195"/><polygon fill="#181818" points="264,1351.0195,276,1381.0195,288,1351.0195,276,1363.0195" style="stroke:#181818;stroke-width:3.0;"/><line style="stroke:#181818;stroke-width:3.0;" x1="276" x2="276" y1="846.0352" y2="1124.8008"/><polygon fill="#181818" points="264,1094.8008,276,1124.8008,288,1094.8008,276,1106.8008" style="stroke:#181818;stroke-width:3.0;"/><line style="stroke:#181818;stroke-width:3.0;" x1="276" x2="276" y1="1815.3516" y2="1941.7617"/><polygon fill="#181818" points="264,1911.7617,276,1941.7617,288,1911.7617,276,1923.7617" style="stroke:#181818;stroke-width:3.0;"/><line style="stroke:#181818;stroke-width:3.0;" x1="276" x2="276" y1="1486.3008" y2="1710.0703"/><polygon fill="#181818" points="264,1680.0703,276,1710.0703,288,1680.0703,276,1692.0703" style="stroke:#181818;stroke-width:3.0;"/><line style="stroke:#181818;stroke-width:3.0;" x1="276" x2="276" y1="2431.0898" y2="2532.9727"/><polygon fill="#181818" points="264,2502.9727,276,2532.9727,288,2502.9727,276,2514.9727" style="stroke:#181818;stroke-width:3.0;"/><line style="stroke:#181818;stroke-width:3.0;" x1="276" x2="276" y1="2638.2539" y2="2734.1953"/><polygon fill="#181818" points="264,2704.1953,276,2734.1953,288,2704.1953,276,2716.1953" style="stroke:#181818;stroke-width:3.0;"/><line style="stroke:#181818;stroke-width:3.0;" x1="276" x2="276" y1="2839.4766" y2="2905.418"/><polygon fill="#181818" points="264,2875.418,276,2905.418,288,2875.418,276,2887.418" style="stroke:#181818;stroke-width:3.0;"/><line style="stroke:#181818;stroke-width:3.0;" x1="276" x2="276" y1="2047.043" y2="2325.8086"/><polygon fill="#181818" points="264,2295.8086,276,2325.8086,288,2295.8086,276,2307.8086" style="stroke:#181818;stroke-width:3.0;"/><line style="stroke:#181818;stroke-width:3.0;" x1="276" x2="276" y1="3010.6992" y2="3142.6406"/><polygon fill="#181818" points="264,3112.6406,276,3142.6406,288,3112.6406,276,3124.6406" style="stroke:#181818;stroke-width:3.0;"/><text fill="#888888" font-family="sans-serif" font-size="30" lengthAdjust="spacing" textLength="288" x="511.5" y="3236.7832">2024.06.12 at 16:06</text><text fill="#888888" font-family="sans-serif" font-size="30" lengthAdjust="spacing" textLength="441" x="435" y="3274.5176">aqwa_highlevel_workflow.puml</text><!--SRC=[hLLDRzf04BtlhnWXHG5KNBLLB_IKf1z12caAgNAfX1Px35lsmzbTGr3L_zvPso4nE8ahnIVml9rvRzxCsiLS8dnWRYLqnYrNu8MNU6fiWdPYSfsS6QlHmhkFpPZhfOXN6fs3zys0CoED1Ol9GPZ7guKjImJ8jL7S6yQA89pyk3c1Sx5OIboZX5_wnjXLAis6CUUvzOm1FTfu14ieN_mDp_VvRuozMECGhgnPYmHXIO11cMTJPG7k83MIVhdToG4ua_eDjmWyZadIeqWu9_G25Zabb8845q7KIS6XP4FYYBmm6ZfN5ZDhGf8XV4EZqDjj1_wmNSfXb70FgP3eFkrUFY6ff71fu4B4g1t216-ZMZJ1b3Z1egf4qYmr4n9XgHTo2pMmY32YCWcwDu0I5MhlQe2wgeBjDECndaakL4ks_Nv5jjy_f0iZbHbBygrHiEPMcDmzDBzhRAyE3zqCaGTzuQ2BBVVnyXdgVv_rPKmja315dsTrQ-1LlHd0cEkSouXGT7pgBGqIzRmoQGzBCxkW5L5XsEfDe21tZjXw8KaDEk3vh1zjbJp0sLpFCb9AuVbUXGPlmsRDKSTB-3bw3NS7i1QE10EdMakKMPhBnew0oP0i96FSVvauoNLnFmJNNb3nX89hOwGRjXNLqBFJC7d51BrohJ8Sr4LuXx0HVlbe7DcUqIMDOV2RtsxuWTi4-V8LvYKAxc4pJ6l85vV6E5zjJNrH0iq9ShhbMyxDmm7eHh5Rbwfwh65ygUOiKGUAQ0bkRSFODtXKV49CxhEyx1wLl1XDUwseGc19E_ZsyJuMjqx8qM36IwobS6rPNmJNxcAwcqRQeqtfvct7-T9eRB_iW_Rh_ZbNQhkxVGz6-VvwhcQats_UzYhy_AexRpB6KaFlB3kYmSTkPqjFD1v7IN8Cj0d7v-T3fJezTXHiq5nXjyT2ekhKFm00]--></g></svg>