<?xml version="1.0" encoding="us-ascii" standalone="no"?><svg xmlns="http://www.w3.org/2000/svg" xmlns:xlink="http://www.w3.org/1999/xlink" contentStyleType="text/css" height="3771px" preserveAspectRatio="none" style="width:1335px;height:3771px;background:#FFFFFF;" version="1.1" viewBox="0 0 1335 3771" width="1335px" zoomAndPan="magnify"><defs/><g><rect fill="#FF6347" height="135.6563" id="_title" rx="22.5" ry="22.5" style="stroke:#FF0000;stroke-width:6.0;" width="381" x="472.5" y="45"/><text fill="#000000" font-family="sans-serif" font-size="42" font-weight="bold" lengthAdjust="spacing" textLength="339" x="487.5" y="103.5996">AQWA Highlevel</text><text fill="#000000" font-family="sans-serif" font-size="42" font-weight="bold" lengthAdjust="spacing" textLength="195" x="565.5" y="156.4277">Workflow</text><path d="M366,198.6563 L366,397.875 L306,409.875 L366,421.875 L366,621.0938 A0,0 0 0 0 366,621.0938 L1299,621.0938 A0,0 0 0 0 1299,621.0938 L1299,228.6563 L1269,198.6563 L366,198.6563 A0,0 0 0 0 366,198.6563 " fill="#FEFFDD" style="stroke:#181818;stroke-width:1.5;"/><path d="M1269,198.6563 L1269,228.6563 L1299,228.6563 L1269,198.6563 " fill="#FEFFDD" style="stroke:#181818;stroke-width:1.5;"/><text fill="#000000" font-family="sans-serif" font-size="39" lengthAdjust="spacing" textLength="822" x="432" y="254.1416">Objective: Provide high-level workflow as follows</text><text fill="#000000" font-family="sans-serif" font-size="39" lengthAdjust="spacing" textLength="306" x="432" y="303.1963">- software access</text><text fill="#000000" font-family="sans-serif" font-size="39" lengthAdjust="spacing" textLength="342" x="432" y="352.251">- working guidelines</text><text fill="#000000" font-family="sans-serif" font-size="39" lengthAdjust="spacing" textLength="354" x="384" y="401.3057">Running all batches:</text><text fill="#000000" font-family="sans-serif" font-size="39" lengthAdjust="spacing" textLength="675" x="384" y="450.3604">- Goto command miniconda powershell</text><text fill="#000000" font-family="sans-serif" font-size="39" lengthAdjust="spacing" textLength="444" x="384" y="499.415">- change to relevant folder</text><text fill="#000000" font-family="sans-serif" font-size="39" lengthAdjust="spacing" textLength="204" x="384" y="548.4697">- run_all.bat</text><text fill="#000000" font-family="sans-serif" font-size="39" lengthAdjust="spacing" textLength="561" x="384" y="597.5244">- temp.bat (run specific batches)</text><ellipse cx="276" cy="409.875" fill="#222222" rx="30" ry="30" style="stroke:#222222;stroke-width:3.0;"/><rect fill="none" height="719.3203" style="stroke:#000000;stroke-width:4.5;" width="1011" x="114" y="651.0938"/><path d="M570,651.0938 L570,682.9219 L540,712.9219 L114,712.9219 " fill="none" style="stroke:#000000;stroke-width:4.5;"/><text fill="#000000" font-family="sans-serif" font-size="42" lengthAdjust="spacing" textLength="426" x="123" y="697.6934">Preprocess: Geometry</text><path d="M435,742.9219 L435,819.5039 L375,831.5039 L435,843.5039 L435,920.0859 A0,0 0 0 0 435,920.0859 L1044,920.0859 A0,0 0 0 0 1044,920.0859 L1044,772.9219 L1014,742.9219 L435,742.9219 A0,0 0 0 0 435,742.9219 " fill="#FEFFDD" style="stroke:#181818;stroke-width:1.5;"/><path d="M1014,742.9219 L1014,772.9219 L1044,772.9219 L1014,742.9219 " fill="#FEFFDD" style="stroke:#181818;stroke-width:1.5;"/><text fill="#000000" font-family="sans-serif" font-size="39" lengthAdjust="spacing" textLength="312" x="453" y="798.4072">- No License Req.</text><text fill="#000000" font-family="sans-serif" font-size="39" lengthAdjust="spacing" textLength="534" x="453" y="847.4619">define geometry format directly</text><text fill="#000000" font-family="sans-serif" font-size="39" lengthAdjust="spacing" textLength="354" x="453" y="896.5166">i.e. nodes, elements</text><rect fill="#F1F1F1" height="105.2813" rx="37.5" ry="37.5" style="stroke:#181818;stroke-width:1.5;" width="198" x="177" y="778.8633"/><text fill="#000000" font-family="sans-serif" font-size="36" lengthAdjust="spacing" textLength="138" x="207" y="846.2344">.dat files</text><path d="M468,950.0859 L468,1026.668 L408,1038.668 L468,1050.668 L468,1127.25 A0,0 0 0 0 468,1127.25 L1095,1127.25 A0,0 0 0 0 1095,1127.25 L1095,980.0859 L1065,950.0859 L468,950.0859 A0,0 0 0 0 468,950.0859 " fill="#FEFFDD" style="stroke:#181818;stroke-width:1.5;"/><path d="M1065,950.0859 L1065,980.0859 L1095,980.0859 L1065,950.0859 " fill="#FEFFDD" style="stroke:#181818;stroke-width:1.5;"/><text fill="#000000" font-family="sans-serif" font-size="39" lengthAdjust="spacing" textLength="12" x="486" y="1005.5713">-</text><text fill="#000000" font-family="sans-serif" font-size="39" font-weight="bold" lengthAdjust="spacing" textLength="147" x="510" y="1005.5713">License</text><text fill="#000000" font-family="sans-serif" font-size="39" lengthAdjust="spacing" textLength="81" x="669" y="1005.5713">Req.</text><text fill="#000000" font-family="sans-serif" font-size="39" lengthAdjust="spacing" textLength="552" x="498" y="1054.626">Import from various software (or)</text><text fill="#000000" font-family="sans-serif" font-size="39" lengthAdjust="spacing" textLength="537" x="498" y="1103.6807">Prepare geometry from scratch</text><rect fill="#F1F1F1" height="105.2813" rx="37.5" ry="37.5" style="stroke:#181818;stroke-width:1.5;" width="264" x="144" y="986.0273"/><text fill="#000000" font-family="sans-serif" font-size="36" lengthAdjust="spacing" textLength="204" x="174" y="1053.3984">SpaceClaim</text><path d="M441,1157.25 L441,1233.832 L381,1245.832 L441,1257.832 L441,1334.4141 A0,0 0 0 0 441,1334.4141 L1068,1334.4141 A0,0 0 0 0 1068,1334.4141 L1068,1187.25 L1038,1157.25 L441,1157.25 A0,0 0 0 0 441,1157.25 " fill="#FEFFDD" style="stroke:#181818;stroke-width:1.5;"/><path d="M1038,1157.25 L1038,1187.25 L1068,1187.25 L1038,1157.25 " fill="#FEFFDD" style="stroke:#181818;stroke-width:1.5;"/><text fill="#000000" font-family="sans-serif" font-size="39" lengthAdjust="spacing" textLength="312" x="459" y="1212.7354">- No License Req.</text><text fill="#000000" font-family="sans-serif" font-size="39" lengthAdjust="spacing" textLength="552" x="471" y="1261.79">Import from various software (or)</text><text fill="#000000" font-family="sans-serif" font-size="39" lengthAdjust="spacing" textLength="537" x="471" y="1310.8447">Prepare geometry from scratch</text><rect fill="#F1F1F1" height="105.2813" rx="37.5" ry="37.5" style="stroke:#181818;stroke-width:1.5;" width="210" x="171" y="1193.1914"/><text fill="#000000" font-family="sans-serif" font-size="36" lengthAdjust="spacing" textLength="150" x="201" y="1260.5625">FreeCAD</text><rect fill="none" height="610.2656" style="stroke:#000000;stroke-width:4.5;" width="975" x="100.5" y="1400.4141"/><path d="M607.5,1400.4141 L607.5,1432.2422 L577.5,1462.2422 L100.5,1462.2422 " fill="none" style="stroke:#000000;stroke-width:4.5;"/><text fill="#000000" font-family="sans-serif" font-size="42" lengthAdjust="spacing" textLength="477" x="109.5" y="1447.0137">Preprocess: Model Setup</text><path d="M439.5,1492.2422 L439.5,1617.8789 L379.5,1629.8789 L439.5,1641.8789 L439.5,1767.5156 A0,0 0 0 0 439.5,1767.5156 L1045.5,1767.5156 A0,0 0 0 0 1045.5,1767.5156 L1045.5,1522.2422 L1015.5,1492.2422 L439.5,1492.2422 A0,0 0 0 0 439.5,1492.2422 " fill="#FEFFDD" style="stroke:#181818;stroke-width:1.5;"/><path d="M1015.5,1492.2422 L1015.5,1522.2422 L1045.5,1522.2422 L1015.5,1492.2422 " fill="#FEFFDD" style="stroke:#181818;stroke-width:1.5;"/><text fill="#000000" font-family="sans-serif" font-size="39" lengthAdjust="spacing" textLength="312" x="457.5" y="1547.7275">- No License Req.</text><text fill="#000000" font-family="sans-serif" font-size="39" lengthAdjust="spacing" textLength="543" x="457.5" y="1596.7822">- Manual. Note Stringent format</text><text fill="#000000" font-family="sans-serif" font-size="39" lengthAdjust="spacing" textLength="255" x="457.5" y="1645.8369">- Programming</text><text fill="#000000" font-family="sans-serif" font-size="39" lengthAdjust="spacing" textLength="408" x="481.5" y="1694.8916">- assetutilities au_*.yml</text><text fill="#000000" font-family="sans-serif" font-size="39" lengthAdjust="spacing" textLength="276" x="481.5" y="1743.9463">- run_prep_*.bat</text><rect fill="#F1F1F1" height="105.2813" rx="37.5" ry="37.5" style="stroke:#181818;stroke-width:1.5;" width="207" x="172.5" y="1577.2383"/><text fill="#000000" font-family="sans-serif" font-size="36" lengthAdjust="spacing" textLength="138" x="211.5" y="1644.6094">.dat files</text><path d="M481.5,1797.5156 L481.5,1874.0977 L421.5,1886.0977 L481.5,1898.0977 L481.5,1974.6797 A0,0 0 0 0 481.5,1974.6797 L886.5,1974.6797 A0,0 0 0 0 886.5,1974.6797 L886.5,1827.5156 L856.5,1797.5156 L481.5,1797.5156 A0,0 0 0 0 481.5,1797.5156 " fill="#FEFFDD" style="stroke:#181818;stroke-width:1.5;"/><path d="M856.5,1797.5156 L856.5,1827.5156 L886.5,1827.5156 L856.5,1797.5156 " fill="#FEFFDD" style="stroke:#181818;stroke-width:1.5;"/><text fill="#000000" font-family="sans-serif" font-size="39" lengthAdjust="spacing" textLength="12" x="499.5" y="1853.001">-</text><text fill="#000000" font-family="sans-serif" font-size="39" font-weight="bold" lengthAdjust="spacing" textLength="147" x="523.5" y="1853.001">License</text><text fill="#000000" font-family="sans-serif" font-size="39" lengthAdjust="spacing" textLength="81" x="682.5" y="1853.001">Req.</text><text fill="#000000" font-family="sans-serif" font-size="39" lengthAdjust="spacing" textLength="318" x="499.5" y="1902.0557">- visual and helpful</text><text fill="#000000" font-family="sans-serif" font-size="39" lengthAdjust="spacing" textLength="342" x="499.5" y="1951.1104">- Manual operations</text><rect fill="#F1F1F1" height="105.2813" rx="37.5" ry="37.5" style="stroke:#181818;stroke-width:1.5;" width="291" x="130.5" y="1833.457"/><text fill="#000000" font-family="sans-serif" font-size="36" lengthAdjust="spacing" textLength="231" x="160.5" y="1900.8281">Workbench UI</text><rect fill="none" height="579.7969" style="stroke:#000000;stroke-width:4.5;" width="967.5" x="100.5" y="2040.6797"/><path d="M346.5,2040.6797 L346.5,2072.5078 L316.5,2102.5078 L100.5,2102.5078 " fill="none" style="stroke:#000000;stroke-width:4.5;"/><text fill="#000000" font-family="sans-serif" font-size="42" lengthAdjust="spacing" textLength="216" x="109.5" y="2087.2793">Run AQWA</text><path d="M481.5,2151.0938 L481.5,2203.1484 L421.5,2215.1484 L481.5,2227.1484 L481.5,2279.2031 A0,0 0 0 0 481.5,2279.2031 L808.5,2279.2031 A0,0 0 0 0 808.5,2279.2031 L808.5,2181.0938 L778.5,2151.0938 L481.5,2151.0938 A0,0 0 0 0 481.5,2151.0938 " fill="#FEFFDD" style="stroke:#181818;stroke-width:1.5;"/><path d="M778.5,2151.0938 L778.5,2181.0938 L808.5,2181.0938 L778.5,2151.0938 " fill="#FEFFDD" style="stroke:#181818;stroke-width:1.5;"/><text fill="#000000" font-family="sans-serif" font-size="39" lengthAdjust="spacing" textLength="105" x="499.5" y="2206.5791">Tools:</text><text fill="#000000" font-family="sans-serif" font-size="39" lengthAdjust="spacing" textLength="12" x="499.5" y="2255.6338">-</text><text fill="#000000" font-family="sans-serif" font-size="39" font-weight="bold" lengthAdjust="spacing" textLength="147" x="523.5" y="2255.6338">License</text><text fill="#000000" font-family="sans-serif" font-size="39" lengthAdjust="spacing" textLength="81" x="682.5" y="2255.6338">Req.</text><rect fill="#F1F1F1" height="105.2813" rx="37.5" ry="37.5" style="stroke:#181818;stroke-width:1.5;" width="291" x="130.5" y="2162.5078"/><text fill="#000000" font-family="sans-serif" font-size="36" lengthAdjust="spacing" textLength="231" x="160.5" y="2229.8789">Workbench UI</text><path d="M462,2309.2031 L462,2434.8398 L402,2446.8398 L462,2458.8398 L462,2584.4766 A0,0 0 0 0 462,2584.4766 L1038,2584.4766 A0,0 0 0 0 1038,2584.4766 L1038,2339.2031 L1008,2309.2031 L462,2309.2031 A0,0 0 0 0 462,2309.2031 " fill="#FEFFDD" style="stroke:#181818;stroke-width:1.5;"/><path d="M1008,2309.2031 L1008,2339.2031 L1038,2339.2031 L1008,2309.2031 " fill="#FEFFDD" style="stroke:#181818;stroke-width:1.5;"/><text fill="#000000" font-family="sans-serif" font-size="39" lengthAdjust="spacing" textLength="105" x="480" y="2364.6885">Tools:</text><text fill="#000000" font-family="sans-serif" font-size="39" lengthAdjust="spacing" textLength="12" x="480" y="2413.7432">-</text><text fill="#000000" font-family="sans-serif" font-size="39" font-weight="bold" lengthAdjust="spacing" textLength="147" x="504" y="2413.7432">License</text><text fill="#000000" font-family="sans-serif" font-size="39" lengthAdjust="spacing" textLength="81" x="663" y="2413.7432">Req.</text><text fill="#000000" font-family="sans-serif" font-size="39" lengthAdjust="spacing" textLength="462" x="480" y="2462.7979">- AQWA.exe with .dat files</text><text fill="#000000" font-family="sans-serif" font-size="39" lengthAdjust="spacing" textLength="381" x="492" y="2511.8525">- Batch :run_aqwa.bat</text><text fill="#000000" font-family="sans-serif" font-size="39" lengthAdjust="spacing" textLength="501" x="492" y="2560.9072">- EF batch : run_aqwa_ef.bat</text><rect fill="#F1F1F1" height="105.2813" rx="37.5" ry="37.5" style="stroke:#181818;stroke-width:1.5;" width="252" x="150" y="2394.1992"/><text fill="#000000" font-family="sans-serif" font-size="36" lengthAdjust="spacing" textLength="192" x="180" y="2461.5703">Batch Mode</text><rect fill="none" height="884.6016" style="stroke:#000000;stroke-width:4.5;" width="1254" x="33" y="2650.4766"/><path d="M297,2650.4766 L297,2682.3047 L267,2712.3047 L33,2712.3047 " fill="none" style="stroke:#000000;stroke-width:4.5;"/><text fill="#000000" font-family="sans-serif" font-size="42" lengthAdjust="spacing" textLength="234" x="42" y="2697.0762">Postprocess</text><path d="M478.5,2742.3047 L478.5,2818.8867 L418.5,2830.8867 L478.5,2842.8867 L478.5,2919.4688 A0,0 0 0 0 478.5,2919.4688 L997.5,2919.4688 A0,0 0 0 0 997.5,2919.4688 L997.5,2772.3047 L967.5,2742.3047 L478.5,2742.3047 A0,0 0 0 0 478.5,2742.3047 " fill="#FEFFDD" style="stroke:#181818;stroke-width:1.5;"/><path d="M967.5,2742.3047 L967.5,2772.3047 L997.5,2772.3047 L967.5,2742.3047 " fill="#FEFFDD" style="stroke:#181818;stroke-width:1.5;"/><text fill="#000000" font-family="sans-serif" font-size="39" lengthAdjust="spacing" textLength="456" x="496.5" y="2797.79">- AQWAReader (.csv files)</text><text fill="#000000" font-family="sans-serif" font-size="39" lengthAdjust="spacing" textLength="315" x="496.5" y="2846.8447">- run_post_dm.bat</text><text fill="#000000" font-family="sans-serif" font-size="39" lengthAdjust="spacing" textLength="189" x="496.5" y="2895.8994">- aqr_*.yml</text><rect fill="#F1F1F1" height="105.2813" rx="37.5" ry="37.5" style="stroke:#181818;stroke-width:1.5;" width="285" x="133.5" y="2778.2461"/><text fill="#000000" font-family="sans-serif" font-size="36" lengthAdjust="spacing" textLength="225" x="163.5" y="2845.6172">AQWAReader</text><path d="M549,2949.4688 L549,3026.0508 L489,3038.0508 L549,3050.0508 L549,3126.6328 A0,0 0 0 0 549,3126.6328 L1257,3126.6328 A0,0 0 0 0 1257,3126.6328 L1257,2979.4688 L1227,2949.4688 L549,2949.4688 A0,0 0 0 0 549,2949.4688 " fill="#FEFFDD" style="stroke:#181818;stroke-width:1.5;"/><path d="M1227,2949.4688 L1227,2979.4688 L1257,2979.4688 L1227,2949.4688 " fill="#FEFFDD" style="stroke:#181818;stroke-width:1.5;"/><text fill="#000000" font-family="sans-serif" font-size="39" lengthAdjust="spacing" textLength="633" x="579" y="3004.9541">Reading/Programming from .LIS files</text><text fill="#000000" font-family="sans-serif" font-size="39" lengthAdjust="spacing" textLength="315" x="567" y="3054.0088">- run_post_dm.bat</text><text fill="#000000" font-family="sans-serif" font-size="39" lengthAdjust="spacing" textLength="174" x="567" y="3103.0635">- lis_*.yml</text><rect fill="#F1F1F1" height="105.2813" rx="37.5" ry="37.5" style="stroke:#181818;stroke-width:1.5;" width="426" x="63" y="2985.4102"/><text fill="#000000" font-family="sans-serif" font-size="36" lengthAdjust="spacing" textLength="366" x="93" y="3052.7813">AQWA output file (.LIS)</text><path d="M534,3199.7461 L534,3227.2734 L474,3239.2734 L534,3251.2734 L534,3278.8008 A0,0 0 0 0 534,3278.8008 L687,3278.8008 A0,0 0 0 0 687,3278.8008 L687,3229.7461 L657,3199.7461 L534,3199.7461 A0,0 0 0 0 534,3199.7461 " fill="#FEFFDD" style="stroke:#181818;stroke-width:1.5;"/><path d="M657,3199.7461 L657,3229.7461 L687,3229.7461 L657,3199.7461 " fill="#FEFFDD" style="stroke:#181818;stroke-width:1.5;"/><text fill="#000000" font-family="sans-serif" font-size="39" lengthAdjust="spacing" textLength="90" x="552" y="3255.2314">None</text><rect fill="#F1F1F1" height="105.2813" rx="37.5" ry="37.5" style="stroke:#181818;stroke-width:1.5;" width="396" x="78" y="3186.6328"/><text fill="#000000" font-family="sans-serif" font-size="36" lengthAdjust="spacing" textLength="336" x="108" y="3254.0039">AQL - Excel Interface</text><path d="M492,3321.9141 L492,3398.4961 L432,3410.4961 L492,3422.4961 L492,3499.0781 A0,0 0 0 0 492,3499.0781 L888,3499.0781 A0,0 0 0 0 888,3499.0781 L888,3351.9141 L858,3321.9141 L492,3321.9141 A0,0 0 0 0 492,3321.9141 " fill="#FEFFDD" style="stroke:#181818;stroke-width:1.5;"/><path d="M858,3321.9141 L858,3351.9141 L888,3351.9141 L858,3321.9141 " fill="#FEFFDD" style="stroke:#181818;stroke-width:1.5;"/><text fill="#000000" font-family="sans-serif" font-size="39" lengthAdjust="spacing" textLength="333" x="510" y="3377.3994">- Dummy geometry</text><text fill="#000000" font-family="sans-serif" font-size="39" lengthAdjust="spacing" textLength="12" x="510" y="3426.4541">-</text><text fill="#000000" font-family="sans-serif" font-size="39" font-weight="bold" lengthAdjust="spacing" textLength="309" x="534" y="3426.4541">Prepare process</text><text fill="#000000" font-family="sans-serif" font-size="39" lengthAdjust="spacing" textLength="300" x="510" y="3475.5088">- Manual process</text><rect fill="#F1F1F1" height="105.2813" rx="37.5" ry="37.5" style="stroke:#181818;stroke-width:1.5;" width="312" x="120" y="3357.8555"/><text fill="#000000" font-family="sans-serif" font-size="36" lengthAdjust="spacing" textLength="252" x="150" y="3425.2266">Workbench - UI</text><ellipse cx="276" cy="3628.0781" fill="none" rx="33" ry="33" style="stroke:#222222;stroke-width:3.0;"/><ellipse cx="276" cy="3628.0781" fill="#222222" rx="18" ry="18" style="stroke:#222222;stroke-width:3.0;"/><line style="stroke:#181818;stroke-width:3.0;" x1="276" x2="276" y1="884.1445" y2="986.0273"/><polygon fill="#181818" points="264,956.0273,276,986.0273,288,956.0273,276,968.0273" style="stroke:#181818;stroke-width:3.0;"/><line style="stroke:#181818;stroke-width:3.0;" x1="276" x2="276" y1="1091.3086" y2="1193.1914"/><polygon fill="#181818" points="264,1163.1914,276,1193.1914,288,1163.1914,276,1175.1914" style="stroke:#181818;stroke-width:3.0;"/><line style="stroke:#181818;stroke-width:3.0;" x1="276" x2="276" y1="439.875" y2="778.8633"/><polygon fill="#181818" points="264,748.8633,276,778.8633,288,748.8633,276,760.8633" style="stroke:#181818;stroke-width:3.0;"/><line style="stroke:#181818;stroke-width:3.0;" x1="276" x2="276" y1="1682.5195" y2="1833.457"/><polygon fill="#181818" points="264,1803.457,276,1833.457,288,1803.457,276,1815.457" style="stroke:#181818;stroke-width:3.0;"/><line style="stroke:#181818;stroke-width:3.0;" x1="276" x2="276" y1="1298.4727" y2="1577.2383"/><polygon fill="#181818" points="264,1547.2383,276,1577.2383,288,1547.2383,276,1559.2383" style="stroke:#181818;stroke-width:3.0;"/><line style="stroke:#181818;stroke-width:3.0;" x1="276" x2="276" y1="2267.7891" y2="2394.1992"/><polygon fill="#181818" points="264,2364.1992,276,2394.1992,288,2364.1992,276,2376.1992" style="stroke:#181818;stroke-width:3.0;"/><line style="stroke:#181818;stroke-width:3.0;" x1="276" x2="276" y1="1938.7383" y2="2162.5078"/><polygon fill="#181818" points="264,2132.5078,276,2162.5078,288,2132.5078,276,2144.5078" style="stroke:#181818;stroke-width:3.0;"/><line style="stroke:#181818;stroke-width:3.0;" x1="276" x2="276" y1="2883.5273" y2="2985.4102"/><polygon fill="#181818" points="264,2955.4102,276,2985.4102,288,2955.4102,276,2967.4102" style="stroke:#181818;stroke-width:3.0;"/><line style="stroke:#181818;stroke-width:3.0;" x1="276" x2="276" y1="3090.6914" y2="3186.6328"/><polygon fill="#181818" points="264,3156.6328,276,3186.6328,288,3156.6328,276,3168.6328" style="stroke:#181818;stroke-width:3.0;"/><line style="stroke:#181818;stroke-width:3.0;" x1="276" x2="276" y1="3291.9141" y2="3357.8555"/><polygon fill="#181818" points="264,3327.8555,276,3357.8555,288,3327.8555,276,3339.8555" style="stroke:#181818;stroke-width:3.0;"/><line style="stroke:#181818;stroke-width:3.0;" x1="276" x2="276" y1="2499.4805" y2="2778.2461"/><polygon fill="#181818" points="264,2748.2461,276,2778.2461,288,2748.2461,276,2760.2461" style="stroke:#181818;stroke-width:3.0;"/><line style="stroke:#181818;stroke-width:3.0;" x1="276" x2="276" y1="3463.1367" y2="3595.0781"/><polygon fill="#181818" points="264,3565.0781,276,3595.0781,288,3565.0781,276,3577.0781" style="stroke:#181818;stroke-width:3.0;"/><text fill="#888888" font-family="sans-serif" font-size="30" lengthAdjust="spacing" textLength="288" x="519" y="3689.2207">2024.06.13 at 10:51</text><text fill="#888888" font-family="sans-serif" font-size="30" lengthAdjust="spacing" textLength="441" x="442.5" y="3726.9551">aqwa_highlevel_workflow.puml</text><!--SRC=[lLNRRjim37ttLn05YYR1uc4Rzf8zzR9UWBRhsWvz6H0eCfrebKHNafC6m_vzbErUtBXj1XJpKs8UYUUGXxINGYDyIlorieLmma1GGUCEkGpTEPKssoLdqS67pzsOovcIrnQzXu_TW5tIvC1XjX8MydhgwXGHSab614gIAWZRtw-suL1DPnhdgE6dlI9tdMjQ98aFmeKa0Nui1GJ7g53zZS-toI-KGSrn16UEvYf3c35WMD-pQ6u1uI4dpR_y_SaXUCh3GZW48ILBUXI9vvITmhJa2xLYmLNmlBGslXPQmqG4EKC_IkeJ1nG891aZR0P6MIN9PW8AMg3pCzIwmScPi5C41ZjaZiA6I8mBryHTQSTyVShNDsy2cYB-XHx7m1SeLQxaNVv-XK9E6ejJbuchpbLLP67Zp67XAAeRmG6ImU2M6_0xkTSwIZE-EbSQ_PVxby_KkkPpId2i95gFS8utQIkQOSx5WccJYQKvxZ9aod6Jz19QO9LYocaozE-0Qs7G1jy2j5LLR2yA8N5N2sNMP3iOD6G7WrMwS6GASYpVaO6vS8fA_-2A7hb-6nwh6ICF-k91BrtinMlKzntYxlRU6rJvVz7-ywATJhXp6Yumb4NRKV2cbXh2YR2bq2cZ-FX5S3o1M8rDzDOJBE-0AQyS4wUqNGGE2k-PRL2QrQ07KOu7wTBe5LoSmOALSdZo94D7N-Eccg2LC_Xnz1Qc7C9SUHOCSPFmvYZoKdTM1AX0RY4tnlzJ4tcBLVisTkqL5Syek2JIpUPRGrH7pNQYyoe7lN6kEXpLfNYBi51XziYEoPD6rpH6rSwzMOYLRZFawtwzQTdMTx0nvYtagqD3FZHJqnwKIFCS1I__DNtpS01wgVJpMbK_wR0lvnndPaKH3y6Dwx1zHu-gJpALeIZhwd7AuwEB_bfK8RBa6Np_U1whhHFlw6Z6QworykkoFevTkvMycuviG9Vp1sCzpgTaSVrX7wu_xdkbCSlxxRjYvRlrt7XaCEYUzYRyygZxG4MIvCJlNBB9niVUnfAVzEGapR8ju4dOEZmS6RFHJpPZ6wmmsEidyQBcr5y0]--></g></svg>