<svg xmlns="http://www.w3.org/2000/svg" xmlns:xlink="http://www.w3.org/1999/xlink" contentStyleType="text/css" height="3849px" preserveAspectRatio="none" style="width:2448px;height:3849px;background:#FFFFFF;" version="1.1" viewBox="0 0 2448 3849" width="2448px" zoomAndPan="magnify"><defs/><g><rect fill="#FF6347" height="135.6563" id="_title" rx="22.5" ry="22.5" style="stroke:#FF0000;stroke-width:6.0;" width="303" x="1068.9507" y="45"/><text fill="#000000" font-family="sans-serif" font-size="42" font-weight="bold" lengthAdjust="spacing" textLength="261.3311" x="1083.9507" y="103.5996">AQWA RAOs</text><text fill="#000000" font-family="sans-serif" font-size="42" font-weight="bold" lengthAdjust="spacing" textLength="207.7441" x="1116.5786" y="156.4277">Procedure</text><path d="M432.1172,198.6563 L432.1172,275.2383 L372.1172,287.2383 L432.1172,299.2383 L432.1172,375.8203 A0,0 0 0 0 432.1172,375.8203 L1394.6689,375.8203 A0,0 0 0 0 1394.6689,375.8203 L1394.6689,228.6563 L1364.6689,198.6563 L432.1172,198.6563 A0,0 0 0 0 432.1172,198.6563 " fill="#FEFFDD" style="stroke:#181818;stroke-width:1.5;"/><path d="M1364.6689,198.6563 L1364.6689,228.6563 L1394.6689,228.6563 L1364.6689,198.6563 " fill="#FEFFDD" style="stroke:#181818;stroke-width:1.5;"/><text fill="#000000" font-family="sans-serif" font-size="39" lengthAdjust="spacing" textLength="899.5518" x="450.1172" y="254.1416">Objective: To run and automate RAO runs in AQWA</text><text fill="#000000" font-family="sans-serif" font-size="39" lengthAdjust="spacing" textLength="112.7153" x="450.1172" y="303.1963">Notes:</text><text fill="#000000" font-family="sans-serif" font-size="39" lengthAdjust="spacing" textLength="500.6206" x="460.9526" y="352.251">- All files in ascii (.dat) format</text><ellipse cx="342.1172" cy="287.2383" fill="#222222" rx="30" ry="30" style="stroke:#222222;stroke-width:3.0;"/><rect fill="none" height="717.9141" style="stroke:#000000;stroke-width:4.5;" width="1712.8096" x="134.0566" y="405.8203"/><path d="M348.4424,405.8203 L348.4424,437.6484 L318.4424,467.6484 L134.0566,467.6484 " fill="none" style="stroke:#000000;stroke-width:4.5;"/><text fill="#000000" font-family="sans-serif" font-size="42" lengthAdjust="spacing" textLength="184.3857" x="143.0566" y="452.4199">Geometry</text><path d="M1478.9546,688.875 L1478.9546,915.0938 L1786.8662,915.0938 L1786.8662,718.875 L1756.8662,688.875 L1478.9546,688.875 " fill="#FEFFDD" style="stroke:#181818;stroke-width:1.5;"/><path d="M1756.8662,688.875 L1756.8662,718.875 L1786.8662,718.875 L1756.8662,688.875 " fill="#FEFFDD" style="stroke:#181818;stroke-width:1.5;"/><text fill="#000000" font-family="sans-serif" font-size="39" lengthAdjust="spacing" textLength="179.8799" x="1496.9546" y="744.3604">Programs:</text><text fill="#000000" font-family="sans-serif" font-size="39" lengthAdjust="spacing" textLength="125.7217" x="1507.79" y="793.415">- Rhino</text><text fill="#000000" font-family="sans-serif" font-size="39" lengthAdjust="spacing" textLength="234.0762" x="1507.79" y="842.4697">- SpaceClaim</text><text fill="#000000" font-family="sans-serif" font-size="39" lengthAdjust="spacing" textLength="221.0698" x="1507.79" y="891.5244">- Workbench</text><path d="M580.1777,516.2344 L580.1777,568.2891 L520.1777,580.2891 L580.1777,592.2891 L580.1777,644.3438 A0,0 0 0 0 580.1777,644.3438 L1224.2358,644.3438 A0,0 0 0 0 1224.2358,644.3438 L1224.2358,546.2344 L1194.2358,516.2344 L580.1777,516.2344 A0,0 0 0 0 580.1777,516.2344 " fill="#FEFFDD" style="stroke:#181818;stroke-width:1.5;"/><path d="M1194.2358,516.2344 L1194.2358,546.2344 L1224.2358,546.2344 L1194.2358,516.2344 " fill="#FEFFDD" style="stroke:#181818;stroke-width:1.5;"/><text fill="#000000" font-family="sans-serif" font-size="39" lengthAdjust="spacing" textLength="474.7603" x="598.1777" y="571.7197">All surfaces should connect</text><text fill="#000000" font-family="sans-serif" font-size="39" lengthAdjust="spacing" textLength="581.0581" x="598.1777" y="620.7744">Should not have gaps or overlaps</text><rect fill="#F1F1F1" height="105.2813" rx="37.5" ry="37.5" style="stroke:#181818;stroke-width:1.5;" width="356.1211" x="164.0566" y="527.6484"/><text fill="#000000" font-family="sans-serif" font-size="36" lengthAdjust="spacing" textLength="296.1211" x="194.0566" y="595.0195">Prepare Geometry</text><path d="M549.1875,762.457 L549.1875,789.9844 L489.1875,801.9844 L549.1875,813.9844 L549.1875,841.5117 A0,0 0 0 0 549.1875,841.5117 L1448.9546,841.5117 A0,0 0 0 0 1448.9546,841.5117 L1448.9546,792.457 L1418.9546,762.457 L549.1875,762.457 A0,0 0 0 0 549.1875,762.457 " fill="#FEFFDD" style="stroke:#181818;stroke-width:1.5;"/><path d="M1418.9546,762.457 L1418.9546,792.457 L1448.9546,792.457 L1418.9546,762.457 " fill="#FEFFDD" style="stroke:#181818;stroke-width:1.5;"/><text fill="#000000" font-family="sans-serif" font-size="39" lengthAdjust="spacing" textLength="836.7671" x="567.1875" y="817.9424">Combine discrete hull faces into a single surface</text><rect fill="#F1F1F1" height="105.2813" rx="37.5" ry="37.5" style="stroke:#181818;stroke-width:1.5;" width="294.1406" x="195.0469" y="749.3438"/><text fill="#000000" font-family="sans-serif" font-size="36" lengthAdjust="spacing" textLength="234.1406" x="225.0469" y="816.7148">Single Surface</text><path d="M543.1846,959.625 L543.1846,1011.6797 L483.1846,1023.6797 L543.1846,1035.6797 L543.1846,1087.7344 A0,0 0 0 0 543.1846,1087.7344 L1381.1382,1087.7344 A0,0 0 0 0 1381.1382,1087.7344 L1381.1382,989.625 L1351.1382,959.625 L543.1846,959.625 A0,0 0 0 0 543.1846,959.625 " fill="#FEFFDD" style="stroke:#181818;stroke-width:1.5;"/><path d="M1351.1382,959.625 L1351.1382,989.625 L1381.1382,989.625 L1351.1382,959.625 " fill="#FEFFDD" style="stroke:#181818;stroke-width:1.5;"/><text fill="#000000" font-family="sans-serif" font-size="39" lengthAdjust="spacing" textLength="643.8237" x="561.1846" y="1015.1104">Approximate location (including draft)</text><text fill="#000000" font-family="sans-serif" font-size="39" lengthAdjust="spacing" textLength="774.9536" x="561.1846" y="1064.165">Geometry should be in water (i.e. below z=0)</text><rect fill="#F1F1F1" height="105.2813" rx="37.5" ry="37.5" style="stroke:#181818;stroke-width:1.5;" width="282.1348" x="201.0498" y="971.0391"/><text fill="#000000" font-family="sans-serif" font-size="36" lengthAdjust="spacing" textLength="222.1348" x="231.0498" y="1038.4102">Start Location</text><rect fill="none" height="364.9922" style="stroke:#000000;stroke-width:4.5;" width="2277.8701" x="139.0313" y="1153.7344"/><path d="M673.1748,1153.7344 L673.1748,1185.5625 L643.1748,1215.5625 L139.0313,1215.5625 " fill="none" style="stroke:#000000;stroke-width:4.5;"/><text fill="#000000" font-family="sans-serif" font-size="42" lengthAdjust="spacing" textLength="504.1436" x="148.0313" y="1200.334">AQWA Frequency - Simple</text><path d="M1535.3057,1275.5625 L1535.3057,1452.7266 L2356.9014,1452.7266 L2356.9014,1305.5625 L2326.9014,1275.5625 L1535.3057,1275.5625 " fill="#FEFFDD" style="stroke:#181818;stroke-width:1.5;"/><path d="M2326.9014,1275.5625 L2326.9014,1305.5625 L2356.9014,1305.5625 L2326.9014,1275.5625 " fill="#FEFFDD" style="stroke:#181818;stroke-width:1.5;"/><text fill="#000000" font-family="sans-serif" font-size="39" lengthAdjust="spacing" textLength="758.5957" x="1553.3057" y="1331.0479">Objective: To create mesh model for AQWA</text><text fill="#000000" font-family="sans-serif" font-size="39" lengthAdjust="spacing" textLength="179.8799" x="1553.3057" y="1380.1025">Programs:</text><text fill="#000000" font-family="sans-serif" font-size="39" lengthAdjust="spacing" textLength="221.0698" x="1564.1411" y="1429.1572">- Workbench</text><path d="M575.2031,1275.5625 L575.2031,1352.1445 L515.2031,1364.1445 L575.2031,1376.1445 L575.2031,1452.7266 A0,0 0 0 0 575.2031,1452.7266 L1505.3057,1452.7266 A0,0 0 0 0 1505.3057,1452.7266 L1505.3057,1305.5625 L1475.3057,1275.5625 L575.2031,1275.5625 A0,0 0 0 0 575.2031,1275.5625 " fill="#FEFFDD" style="stroke:#181818;stroke-width:1.5;"/><path d="M1475.3057,1275.5625 L1475.3057,1305.5625 L1505.3057,1305.5625 L1475.3057,1275.5625 " fill="#FEFFDD" style="stroke:#181818;stroke-width:1.5;"/><text fill="#000000" font-family="sans-serif" font-size="39" lengthAdjust="spacing" textLength="351.1904" x="593.2031" y="1331.0479">Based on mesh size</text><text fill="#000000" font-family="sans-serif" font-size="39" lengthAdjust="spacing" textLength="867.1025" x="593.2031" y="1380.1025">RAO frequency range covers analysis frequencies</text><text fill="#000000" font-family="sans-serif" font-size="39" lengthAdjust="spacing" textLength="384.8013" x="593.2031" y="1429.1572">No of Frequencies = 5</text><rect fill="#F1F1F1" height="105.2813" rx="37.5" ry="37.5" style="stroke:#181818;stroke-width:1.5;" width="346.1719" x="169.0313" y="1311.5039"/><text fill="#000000" font-family="sans-serif" font-size="36" lengthAdjust="spacing" textLength="286.1719" x="199.0313" y="1378.875">Frequency Range</text><rect fill="none" height="452.1563" style="stroke:#000000;stroke-width:4.5;" width="2327.4961" x="33" y="1548.7266"/><path d="M371.0889,1548.7266 L371.0889,1580.5547 L341.0889,1610.5547 L33,1610.5547 " fill="none" style="stroke:#000000;stroke-width:4.5;"/><text fill="#000000" font-family="sans-serif" font-size="42" lengthAdjust="spacing" textLength="308.0889" x="42" y="1595.3262">AQWA Damping</text><path d="M1383.3047,1714.1367 L1383.3047,1891.3008 L2300.4961,1891.3008 L2300.4961,1744.1367 L2270.4961,1714.1367 L1383.3047,1714.1367 " fill="#FEFFDD" style="stroke:#181818;stroke-width:1.5;"/><path d="M2270.4961,1714.1367 L2270.4961,1744.1367 L2300.4961,1744.1367 L2270.4961,1714.1367 " fill="#FEFFDD" style="stroke:#181818;stroke-width:1.5;"/><text fill="#000000" font-family="sans-serif" font-size="39" lengthAdjust="spacing" textLength="854.1914" x="1401.3047" y="1769.6221">Objective: Define appropriate additional damping:</text><text fill="#000000" font-family="sans-serif" font-size="39" lengthAdjust="spacing" textLength="179.8799" x="1401.3047" y="1818.6768">Programs:</text><text fill="#000000" font-family="sans-serif" font-size="39" lengthAdjust="spacing" textLength="221.0698" x="1412.1401" y="1867.7314">- Workbench</text><path d="M681.2344,1640.5547 L681.2344,1790.7188 L621.2344,1802.7188 L681.2344,1814.7188 L681.2344,1964.8828 A0,0 0 0 0 681.2344,1964.8828 L1353.3047,1964.8828 A0,0 0 0 0 1353.3047,1964.8828 L1353.3047,1670.5547 L1323.3047,1640.5547 L681.2344,1640.5547 A0,0 0 0 0 681.2344,1640.5547 " fill="#FEFFDD" style="stroke:#181818;stroke-width:1.5;"/><path d="M1323.3047,1640.5547 L1323.3047,1670.5547 L1353.3047,1670.5547 L1323.3047,1640.5547 " fill="#FEFFDD" style="stroke:#181818;stroke-width:1.5;"/><text fill="#000000" font-family="sans-serif" font-size="39" lengthAdjust="spacing" textLength="609.0703" x="699.2344" y="1696.04">For Typical ship-shaped structures:</text><text fill="#000000" font-family="sans-serif" font-size="39" lengthAdjust="spacing" textLength="190.7344" x="742.5762" y="1745.0947">- Roll: 10%</text><text fill="#000000" font-family="sans-serif" font-size="39" lengthAdjust="spacing" textLength="188.5635" x="742.5762" y="1794.1494">- Pitch: 8%</text><text fill="#000000" font-family="sans-serif" font-size="39" lengthAdjust="spacing" textLength="314.2471" x="699.2344" y="1843.2041">For TLP or SPAR:</text><text fill="#000000" font-family="sans-serif" font-size="39" lengthAdjust="spacing" textLength="169.0444" x="742.5762" y="1892.2588">- Roll: 5%</text><text fill="#000000" font-family="sans-serif" font-size="39" lengthAdjust="spacing" textLength="188.5635" x="742.5762" y="1941.3135">- Pitch: 5%</text><rect fill="#F1F1F1" height="105.2813" rx="37.5" ry="37.5" style="stroke:#181818;stroke-width:1.5;" width="558.2344" x="63" y="1750.0781"/><text fill="#000000" font-family="sans-serif" font-size="36" lengthAdjust="spacing" textLength="498.2344" x="93" y="1817.4492">Define ROll and Pitch Damping</text><rect fill="none" height="464.3906" style="stroke:#000000;stroke-width:4.5;" width="2015.1035" x="95.0596" y="2030.8828"/><path d="M496.1279,2030.8828 L496.1279,2062.7109 L466.1279,2092.7109 L95.0596,2092.7109 " fill="none" style="stroke:#000000;stroke-width:4.5;"/><text fill="#000000" font-family="sans-serif" font-size="42" lengthAdjust="spacing" textLength="371.0684" x="104.0596" y="2077.4824">AQWA Hydrostatics</text><path d="M1228.5674,2212.9102 L1228.5674,2390.0742 L2050.1631,2390.0742 L2050.1631,2242.9102 L2020.1631,2212.9102 L1228.5674,2212.9102 " fill="#FEFFDD" style="stroke:#181818;stroke-width:1.5;"/><path d="M2020.1631,2212.9102 L2020.1631,2242.9102 L2050.1631,2242.9102 L2020.1631,2212.9102 " fill="#FEFFDD" style="stroke:#181818;stroke-width:1.5;"/><text fill="#000000" font-family="sans-serif" font-size="39" lengthAdjust="spacing" textLength="758.5957" x="1246.5674" y="2268.3955">Objective: To create mesh model for AQWA</text><text fill="#000000" font-family="sans-serif" font-size="39" lengthAdjust="spacing" textLength="179.8799" x="1246.5674" y="2317.4502">Programs:</text><text fill="#000000" font-family="sans-serif" font-size="39" lengthAdjust="spacing" textLength="221.0698" x="1257.4028" y="2366.5049">- Workbench</text><path d="M619.1748,2156.8242 L619.1748,2184.3516 L559.1748,2196.3516 L619.1748,2208.3516 L619.1748,2235.8789 A0,0 0 0 0 619.1748,2235.8789 L1104.9097,2235.8789 A0,0 0 0 0 1104.9097,2235.8789 L1104.9097,2186.8242 L1074.9097,2156.8242 L619.1748,2156.8242 A0,0 0 0 0 619.1748,2156.8242 " fill="#FEFFDD" style="stroke:#181818;stroke-width:1.5;"/><path d="M1074.9097,2156.8242 L1074.9097,2186.8242 L1104.9097,2186.8242 L1074.9097,2156.8242 " fill="#FEFFDD" style="stroke:#181818;stroke-width:1.5;"/><text fill="#000000" font-family="sans-serif" font-size="39" lengthAdjust="spacing" textLength="422.7349" x="637.1748" y="2212.3096">Equal to displaced mass</text><rect fill="#F1F1F1" height="105.2813" rx="37.5" ry="37.5" style="stroke:#181818;stroke-width:1.5;" width="434.1152" x="125.0596" y="2143.7109"/><text fill="#000000" font-family="sans-serif" font-size="36" lengthAdjust="spacing" textLength="374.1152" x="155.0596" y="2211.082">Correct Mass Definition</text><path d="M613.1807,2367.1055 L613.1807,2394.6328 L553.1807,2406.6328 L613.1807,2418.6328 L613.1807,2446.1602 A0,0 0 0 0 613.1807,2446.1602 L1198.5674,2446.1602 A0,0 0 0 0 1198.5674,2446.1602 L1198.5674,2397.1055 L1168.5674,2367.1055 L613.1807,2367.1055 A0,0 0 0 0 613.1807,2367.1055 " fill="#FEFFDD" style="stroke:#181818;stroke-width:1.5;"/><path d="M1168.5674,2367.1055 L1168.5674,2397.1055 L1198.5674,2397.1055 L1168.5674,2367.1055 " fill="#FEFFDD" style="stroke:#181818;stroke-width:1.5;"/><text fill="#000000" font-family="sans-serif" font-size="39" lengthAdjust="spacing" textLength="522.3867" x="631.1807" y="2422.5908">Ensure CoG is inline with CoB</text><rect fill="#F1F1F1" height="105.2813" rx="37.5" ry="37.5" style="stroke:#181818;stroke-width:1.5;" width="422.127" x="131.0537" y="2353.9922"/><text fill="#000000" font-family="sans-serif" font-size="36" lengthAdjust="spacing" textLength="362.127" x="161.0537" y="2421.3633">Correct CoG Definition</text><rect fill="none" height="315.9375" style="stroke:#000000;stroke-width:4.5;" width="1614.0542" x="201.0908" y="2525.2734"/><path d="M900.999,2525.2734 L900.999,2557.1016 L870.999,2587.1016 L201.0908,2587.1016 " fill="none" style="stroke:#000000;stroke-width:4.5;"/><text fill="#000000" font-family="sans-serif" font-size="42" lengthAdjust="spacing" textLength="669.9082" x="210.0908" y="2571.873">AQWA Frequency - Comprehensive</text><path d="M1263.0117,2647.1016 L1263.0117,2775.2109 L1755.145,2775.2109 L1755.145,2677.1016 L1725.145,2647.1016 L1263.0117,2647.1016 " fill="#FEFFDD" style="stroke:#181818;stroke-width:1.5;"/><path d="M1725.145,2647.1016 L1725.145,2677.1016 L1755.145,2677.1016 L1725.145,2647.1016 " fill="#FEFFDD" style="stroke:#181818;stroke-width:1.5;"/><text fill="#000000" font-family="sans-serif" font-size="39" lengthAdjust="spacing" textLength="179.8799" x="1281.0117" y="2702.5869">Programs:</text><text fill="#000000" font-family="sans-serif" font-size="39" lengthAdjust="spacing" textLength="418.2979" x="1291.8472" y="2751.6416">- AQWA Command Line</text><path d="M513.1436,2647.1016 L513.1436,2699.1563 L453.1436,2711.1563 L513.1436,2723.1563 L513.1436,2775.2109 A0,0 0 0 0 513.1436,2775.2109 L1233.0117,2775.2109 A0,0 0 0 0 1233.0117,2775.2109 L1233.0117,2677.1016 L1203.0117,2647.1016 L513.1436,2647.1016 A0,0 0 0 0 513.1436,2647.1016 " fill="#FEFFDD" style="stroke:#181818;stroke-width:1.5;"/><path d="M1203.0117,2647.1016 L1203.0117,2677.1016 L1233.0117,2677.1016 L1203.0117,2647.1016 " fill="#FEFFDD" style="stroke:#181818;stroke-width:1.5;"/><text fill="#000000" font-family="sans-serif" font-size="39" lengthAdjust="spacing" textLength="656.8682" x="531.1436" y="2702.5869">Frequency resolution to identify peaks</text><text fill="#000000" font-family="sans-serif" font-size="39" lengthAdjust="spacing" textLength="578.8872" x="531.1436" y="2751.6416">Frequency definition around peak</text><rect fill="#F1F1F1" height="105.2813" rx="37.5" ry="37.5" style="stroke:#181818;stroke-width:1.5;" width="222.0527" x="231.0908" y="2658.5156"/><text fill="#000000" font-family="sans-serif" font-size="36" lengthAdjust="spacing" textLength="162.0527" x="261.0908" y="2725.8867">Mesh size</text><rect fill="none" height="740.7422" style="stroke:#000000;stroke-width:4.5;" width="1541.4097" x="132.0703" y="2871.2109"/><path d="M533.1797,2871.2109 L533.1797,2903.0391 L503.1797,2933.0391 L132.0703,2933.0391 " fill="none" style="stroke:#000000;stroke-width:4.5;"/><text fill="#000000" font-family="sans-serif" font-size="42" lengthAdjust="spacing" textLength="371.1094" x="141.0703" y="2917.8105">AQWA Postprocess</text><path d="M1179.7705,3141.1523 L1179.7705,3416.4258 L1613.48,3416.4258 L1613.48,3171.1523 L1583.48,3141.1523 L1179.7705,3141.1523 " fill="#FEFFDD" style="stroke:#181818;stroke-width:1.5;"/><path d="M1583.48,3141.1523 L1583.48,3171.1523 L1613.48,3171.1523 L1583.48,3141.1523 " fill="#FEFFDD" style="stroke:#181818;stroke-width:1.5;"/><text fill="#000000" font-family="sans-serif" font-size="39" lengthAdjust="spacing" textLength="179.8799" x="1197.7705" y="3196.6377">Programs:</text><text fill="#000000" font-family="sans-serif" font-size="39" lengthAdjust="spacing" textLength="359.874" x="1208.606" y="3245.6924">- python digitalmodel</text><text fill="#000000" font-family="sans-serif" font-size="39" lengthAdjust="spacing" textLength="127.9116" x="1208.606" y="3294.7471">Output:</text><text fill="#000000" font-family="sans-serif" font-size="39" lengthAdjust="spacing" textLength="205.8354" x="1219.4414" y="3343.8018">- RAOs.xlsx</text><text fill="#000000" font-family="sans-serif" font-size="39" lengthAdjust="spacing" textLength="99.728" x="1219.4414" y="3392.8564">- .png</text><path d="M458.124,2981.625 L458.124,3033.6797 L398.124,3045.6797 L458.124,3057.6797 L458.124,3109.7344 A0,0 0 0 0 458.124,3109.7344 L1149.7705,3109.7344 A0,0 0 0 0 1149.7705,3109.7344 L1149.7705,3011.625 L1119.7705,2981.625 L458.124,2981.625 A0,0 0 0 0 458.124,2981.625 " fill="#FEFFDD" style="stroke:#181818;stroke-width:1.5;"/><path d="M1119.7705,2981.625 L1119.7705,3011.625 L1149.7705,3011.625 L1119.7705,2981.625 " fill="#FEFFDD" style="stroke:#181818;stroke-width:1.5;"/><text fill="#000000" font-family="sans-serif" font-size="39" lengthAdjust="spacing" textLength="355.4751" x="476.124" y="3037.1104">Model: Basic checks</text><text fill="#000000" font-family="sans-serif" font-size="39" lengthAdjust="spacing" textLength="628.6465" x="476.124" y="3086.165">RAOs: Amplitude and Phase checks</text><rect fill="#F1F1F1" height="105.2813" rx="37.5" ry="37.5" style="stroke:#181818;stroke-width:1.5;" width="112.0137" x="286.1104" y="2993.0391"/><text fill="#000000" font-family="sans-serif" font-size="36" lengthAdjust="spacing" textLength="52.0137" x="316.1104" y="3060.4102">QA</text><path d="M507.1406,3214.7344 L507.1406,3266.7891 L447.1406,3278.7891 L507.1406,3290.7891 L507.1406,3342.8438 A0,0 0 0 0 507.1406,3342.8438 L1135.9263,3342.8438 A0,0 0 0 0 1135.9263,3342.8438 L1135.9263,3244.7344 L1105.9263,3214.7344 L507.1406,3214.7344 A0,0 0 0 0 507.1406,3214.7344 " fill="#FEFFDD" style="stroke:#181818;stroke-width:1.5;"/><path d="M1105.9263,3214.7344 L1105.9263,3244.7344 L1135.9263,3244.7344 L1105.9263,3214.7344 " fill="#FEFFDD" style="stroke:#181818;stroke-width:1.5;"/><text fill="#000000" font-family="sans-serif" font-size="39" lengthAdjust="spacing" textLength="565.7856" x="525.1406" y="3270.2197">DOF 1, 2, 3 (Headings 0, 45, 90)</text><text fill="#000000" font-family="sans-serif" font-size="39" lengthAdjust="spacing" textLength="565.7856" x="525.1406" y="3319.2744">DOF 4, 5, 6 (Headings 0, 45, 90)</text><rect fill="#F1F1F1" height="105.2813" rx="37.5" ry="37.5" style="stroke:#181818;stroke-width:1.5;" width="210.0469" x="237.0938" y="3226.1484"/><text fill="#000000" font-family="sans-serif" font-size="36" lengthAdjust="spacing" textLength="150.0469" x="267.0938" y="3293.5195">RAO Plot</text><path d="M582.1641,3447.8438 L582.1641,3499.8984 L522.1641,3511.8984 L582.1641,3523.8984 L582.1641,3575.9531 A0,0 0 0 0 582.1641,3575.9531 L666.854,3575.9531 A0,0 0 0 0 666.854,3575.9531 L666.854,3477.8438 L636.854,3447.8438 L582.1641,3447.8438 A0,0 0 0 0 582.1641,3447.8438 " fill="#FEFFDD" style="stroke:#181818;stroke-width:1.5;"/><path d="M636.854,3447.8438 L636.854,3477.8438 L666.854,3477.8438 L636.854,3447.8438 " fill="#FEFFDD" style="stroke:#181818;stroke-width:1.5;"/><text fill="#000000" font-family="sans-serif" font-size="39" lengthAdjust="spacing" textLength="21.6899" x="600.1641" y="3503.3291">?</text><text fill="#000000" font-family="sans-serif" font-size="39" lengthAdjust="spacing" textLength="21.6899" x="600.1641" y="3552.3838">?</text><rect fill="#F1F1F1" height="105.2813" rx="37.5" ry="37.5" style="stroke:#181818;stroke-width:1.5;" width="360.0938" x="162.0703" y="3459.2578"/><text fill="#000000" font-family="sans-serif" font-size="36" lengthAdjust="spacing" textLength="300.0938" x="192.0703" y="3526.6289">RAOs Comparison</text><ellipse cx="342.1172" cy="3704.9531" fill="none" rx="33" ry="33" style="stroke:#222222;stroke-width:3.0;"/><ellipse cx="342.1172" cy="3704.9531" fill="#222222" rx="18" ry="18" style="stroke:#222222;stroke-width:3.0;"/><line style="stroke:#181818;stroke-width:3.0;" x1="342.1172" x2="342.1172" y1="632.9297" y2="749.3438"/><polygon fill="#181818" points="330.1172,719.3438,342.1172,749.3438,354.1172,719.3438,342.1172,731.3438" style="stroke:#181818;stroke-width:3.0;"/><line style="stroke:#181818;stroke-width:3.0;" x1="342.1172" x2="342.1172" y1="854.625" y2="971.0391"/><polygon fill="#181818" points="330.1172,941.0391,342.1172,971.0391,354.1172,941.0391,342.1172,953.0391" style="stroke:#181818;stroke-width:3.0;"/><line style="stroke:#181818;stroke-width:3.0;" x1="342.1172" x2="342.1172" y1="317.2383" y2="527.6484"/><polygon fill="#181818" points="330.1172,497.6484,342.1172,527.6484,354.1172,497.6484,342.1172,509.6484" style="stroke:#181818;stroke-width:3.0;"/><line style="stroke:#181818;stroke-width:3.0;" x1="342.1172" x2="342.1172" y1="1076.3203" y2="1311.5039"/><polygon fill="#181818" points="330.1172,1281.5039,342.1172,1311.5039,354.1172,1281.5039,342.1172,1293.5039" style="stroke:#181818;stroke-width:3.0;"/><line style="stroke:#181818;stroke-width:3.0;" x1="342.1172" x2="342.1172" y1="1416.7852" y2="1750.0781"/><polygon fill="#181818" points="330.1172,1720.0781,342.1172,1750.0781,354.1172,1720.0781,342.1172,1732.0781" style="stroke:#181818;stroke-width:3.0;"/><line style="stroke:#181818;stroke-width:3.0;" x1="342.1172" x2="342.1172" y1="2248.9922" y2="2353.9922"/><polygon fill="#181818" points="330.1172,2323.9922,342.1172,2353.9922,354.1172,2323.9922,342.1172,2335.9922" style="stroke:#181818;stroke-width:3.0;"/><line style="stroke:#181818;stroke-width:3.0;" x1="342.1172" x2="342.1172" y1="1855.3594" y2="2143.7109"/><polygon fill="#181818" points="330.1172,2113.7109,342.1172,2143.7109,354.1172,2113.7109,342.1172,2125.7109" style="stroke:#181818;stroke-width:3.0;"/><line style="stroke:#181818;stroke-width:3.0;" x1="342.1172" x2="342.1172" y1="2459.2734" y2="2658.5156"/><polygon fill="#181818" points="330.1172,2628.5156,342.1172,2658.5156,354.1172,2628.5156,342.1172,2640.5156" style="stroke:#181818;stroke-width:3.0;"/><line style="stroke:#181818;stroke-width:3.0;" x1="342.1172" x2="342.1172" y1="3098.3203" y2="3226.1484"/><polygon fill="#181818" points="330.1172,3196.1484,342.1172,3226.1484,354.1172,3196.1484,342.1172,3208.1484" style="stroke:#181818;stroke-width:3.0;"/><line style="stroke:#181818;stroke-width:3.0;" x1="342.1172" x2="342.1172" y1="3331.4297" y2="3459.2578"/><polygon fill="#181818" points="330.1172,3429.2578,342.1172,3459.2578,354.1172,3429.2578,342.1172,3441.2578" style="stroke:#181818;stroke-width:3.0;"/><line style="stroke:#181818;stroke-width:3.0;" x1="342.1172" x2="342.1172" y1="2763.7969" y2="2993.0391"/><polygon fill="#181818" points="330.1172,2963.0391,342.1172,2993.0391,354.1172,2963.0391,342.1172,2975.0391" style="stroke:#181818;stroke-width:3.0;"/><line style="stroke:#181818;stroke-width:3.0;" x1="342.1172" x2="342.1172" y1="3564.5391" y2="3671.9531"/><polygon fill="#181818" points="330.1172,3641.9531,342.1172,3671.9531,354.1172,3641.9531,342.1172,3653.9531" style="stroke:#181818;stroke-width:3.0;"/><text fill="#888888" font-family="sans-serif" font-size="30" lengthAdjust="spacing" textLength="266.9092" x="1086.9961" y="3766.0957">2024.08.01 at 21:28</text><text fill="#888888" font-family="sans-serif" font-size="30" lengthAdjust="spacing" textLength="220.1221" x="1110.3896" y="3803.8301">aqwa_raos.puml</text><!--SRC=[rLTDRnit4BtlhnWOC281Yc0dST5k4HIoNCS7ArAa0BdqGYz7sgcu94DoRIj1_tk7b2NNrTPQfUcXF4cScSV7-UJwGYY4rvbVahR2YGe21ONdnabqKrDhEJHEeuFJisQTZoKLIutUmwjcXQ5Hne53kICMnNBXraT4bO-c4i5aMHB2uCEd0Km7Om-_wOap1ShQOPRv85p8Ck2bJK1mj2X3-XlN-EPtB0BTOiveu6eDGaiGTOZG6E7YfWVI2NzhzvwXVBxz2ozXe1JCIM7I5RuWWavVYj25kN4CbdIHmIEBDH- -6bCde-7e7PeAWriTmTT7q6RAcyLtNB1h_ihYaSsq96sQ13Ch2XmgGLMJz9DnonlKHVb4-9HrNFd48RD7sF3-kIthw2PVkpcpyE1BKoi9XT6Qex2ZErkB6GrASOkm4DO3nztSebFyUn_96Ua59yPiVLnhYaDJtP16aEGBXwnMrZ6sYJ7fO420NoC_N6GlZvY2S6qA4OFTtbNMEdDFAH7LWp5qI1Ugbdm-I2VceRjZjWd9nhit63FoZb4SM_UnpplAtC6NjoVTPvZ_iPEZgS0k7NwkEKDMCPUeiWeFIDcdrSREZLUhq9TG6OagLihJCckLwwsJzf7xLEX5-uGu5nubi0iILKzVS4SbDehv5jv5U4vhpbFF3KMebIU_bHFw7Vlt1inywrpMWBTmTdXqBaHbEJM-BIGNE8zfBsBQMKSnDaBA12yKo3Lq_X_5vk7mwPXBBRRW2OMYtDodTQGkurHOMU8PnUbFzgKlXUNO-U3g8l0yQ6AvRfX6gHnEJux_GPxuvF3ZSVEPrvFOc6QJmVJv0yxsuFzDtYheLolf38-vG8N__nGZln8SdmyZmI-157qwg3l- -hdc87CtvZPj5NTX2HL3jJrsQDvzqwcQUpucQuhJGCMalQDGyjRvl-kcF7QimnArvvXyhtT0EeMHgrXJrqnsdtz6cnRNlkOUsnvwe-fqFOuBITI1vYkmA9R-6JEv3GE8zBfB5eSxSy95OEF3p_llvJwx2YNZIrfG42hLnQxQk0ws3ZbaZMNF3zB-lVBtZTA-rOjz4VamQ1sAKIIOntb51HGb5Wr-ZuHo6F3afb1BN3VRaYTSaq43dJZf9ig4rgGknfTmseDNFNWDdIiKyUtYuQG7RyvwyDD9jz7WJGzO-iD-WsQ6FbMJSEGFgErVzkpi925_MnYRPNF3couxviS-TevMlFgZKL_A5o02lBYwoglgg9iTnuy3BIhiTBE8z63r9m00]--></g></svg>