<svg xmlns="http://www.w3.org/2000/svg" xmlns:xlink="http://www.w3.org/1999/xlink" contentStyleType="text/css" height="5400px" preserveAspectRatio="none" style="width:2580px;height:5400px;background:#FFFFFF;" version="1.1" viewBox="0 0 2580 5400" width="2580px" zoomAndPan="magnify"><defs/><g><rect fill="#FF6347" height="135.6563" id="_title" rx="22.5" ry="22.5" style="stroke:#FF0000;stroke-width:6.0;" width="303" x="1134.6504" y="45"/><text fill="#000000" font-family="sans-serif" font-size="42" font-weight="bold" lengthAdjust="spacing" textLength="261.3311" x="1149.6504" y="103.5996">AQWA RAOs</text><text fill="#000000" font-family="sans-serif" font-size="42" font-weight="bold" lengthAdjust="spacing" textLength="207.7441" x="1182.2783" y="156.4277">Procedure</text><path d="M442.1367,198.6563 L442.1367,275.2383 L382.1367,287.2383 L442.1367,299.2383 L442.1367,375.8203 A0,0 0 0 0 442.1367,375.8203 L1404.6885,375.8203 A0,0 0 0 0 1404.6885,375.8203 L1404.6885,228.6563 L1374.6885,198.6563 L442.1367,198.6563 A0,0 0 0 0 442.1367,198.6563 " fill="#FEFFDD" style="stroke:#181818;stroke-width:1.5;"/><path d="M1374.6885,198.6563 L1374.6885,228.6563 L1404.6885,228.6563 L1374.6885,198.6563 " fill="#FEFFDD" style="stroke:#181818;stroke-width:1.5;"/><text fill="#000000" font-family="sans-serif" font-size="39" lengthAdjust="spacing" textLength="899.5518" x="460.1367" y="254.1416">Objective: To run and automate RAO runs in AQWA</text><text fill="#000000" font-family="sans-serif" font-size="39" lengthAdjust="spacing" textLength="112.7153" x="460.1367" y="303.1963">Notes:</text><text fill="#000000" font-family="sans-serif" font-size="39" lengthAdjust="spacing" textLength="500.6206" x="470.9722" y="352.251">- All files in ascii (.dat) format</text><ellipse cx="352.1367" cy="287.2383" fill="#222222" rx="30" ry="30" style="stroke:#222222;stroke-width:3.0;"/><rect fill="none" height="717.9141" style="stroke:#000000;stroke-width:4.5;" width="1983.8101" x="144.0762" y="405.8203"/><path d="M358.4619,405.8203 L358.4619,437.6484 L328.4619,467.6484 L144.0762,467.6484 " fill="none" style="stroke:#000000;stroke-width:4.5;"/><text fill="#000000" font-family="sans-serif" font-size="42" lengthAdjust="spacing" textLength="184.3857" x="153.0762" y="452.4199">Geometry</text><path d="M1488.9741,615.293 L1488.9741,988.6758 L2067.8862,988.6758 L2067.8862,645.293 L2037.8862,615.293 L1488.9741,615.293 " fill="#FEFFDD" style="stroke:#181818;stroke-width:1.5;"/><path d="M2037.8862,615.293 L2037.8862,645.293 L2067.8862,645.293 L2037.8862,615.293 " fill="#FEFFDD" style="stroke:#181818;stroke-width:1.5;"/><text fill="#000000" font-family="sans-serif" font-size="39" lengthAdjust="spacing" textLength="179.8799" x="1506.9741" y="670.7783">Programs:</text><text fill="#000000" font-family="sans-serif" font-size="39" lengthAdjust="spacing" textLength="125.7217" x="1517.8096" y="719.833">- Rhino</text><text fill="#000000" font-family="sans-serif" font-size="39" lengthAdjust="spacing" textLength="234.0762" x="1517.8096" y="768.8877">- SpaceClaim</text><text fill="#000000" font-family="sans-serif" font-size="39" lengthAdjust="spacing" textLength="221.0698" x="1517.8096" y="817.9424">- Workbench</text><text fill="#000000" font-family="sans-serif" font-size="39" lengthAdjust="spacing" textLength="127.9116" x="1506.9741" y="866.9971">Output:</text><text fill="#000000" font-family="sans-serif" font-size="39" lengthAdjust="spacing" textLength="244.9307" x="1517.8096" y="916.0518">- keyname.ext</text><text fill="#000000" font-family="sans-serif" font-size="39" lengthAdjust="spacing" textLength="483.4058" x="1539.4805" y="965.1064">- ext can be iges, scdoc etc.</text><path d="M590.1973,516.2344 L590.1973,568.2891 L530.1973,580.2891 L590.1973,592.2891 L590.1973,644.3438 A0,0 0 0 0 590.1973,644.3438 L1234.2554,644.3438 A0,0 0 0 0 1234.2554,644.3438 L1234.2554,546.2344 L1204.2554,516.2344 L590.1973,516.2344 A0,0 0 0 0 590.1973,516.2344 " fill="#FEFFDD" style="stroke:#181818;stroke-width:1.5;"/><path d="M1204.2554,516.2344 L1204.2554,546.2344 L1234.2554,546.2344 L1204.2554,516.2344 " fill="#FEFFDD" style="stroke:#181818;stroke-width:1.5;"/><text fill="#000000" font-family="sans-serif" font-size="39" lengthAdjust="spacing" textLength="474.7603" x="608.1973" y="571.7197">All surfaces should connect</text><text fill="#000000" font-family="sans-serif" font-size="39" lengthAdjust="spacing" textLength="581.0581" x="608.1973" y="620.7744">Should not have gaps or overlaps</text><rect fill="#F1F1F1" height="105.2813" rx="37.5" ry="37.5" style="stroke:#181818;stroke-width:1.5;" width="356.1211" x="174.0762" y="527.6484"/><text fill="#000000" font-family="sans-serif" font-size="36" lengthAdjust="spacing" textLength="296.1211" x="204.0762" y="595.0195">Prepare Geometry</text><path d="M559.207,762.457 L559.207,789.9844 L499.207,801.9844 L559.207,813.9844 L559.207,841.5117 A0,0 0 0 0 559.207,841.5117 L1458.9741,841.5117 A0,0 0 0 0 1458.9741,841.5117 L1458.9741,792.457 L1428.9741,762.457 L559.207,762.457 A0,0 0 0 0 559.207,762.457 " fill="#FEFFDD" style="stroke:#181818;stroke-width:1.5;"/><path d="M1428.9741,762.457 L1428.9741,792.457 L1458.9741,792.457 L1428.9741,762.457 " fill="#FEFFDD" style="stroke:#181818;stroke-width:1.5;"/><text fill="#000000" font-family="sans-serif" font-size="39" lengthAdjust="spacing" textLength="836.7671" x="577.207" y="817.9424">Combine discrete hull faces into a single surface</text><rect fill="#F1F1F1" height="105.2813" rx="37.5" ry="37.5" style="stroke:#181818;stroke-width:1.5;" width="294.1406" x="205.0664" y="749.3438"/><text fill="#000000" font-family="sans-serif" font-size="36" lengthAdjust="spacing" textLength="234.1406" x="235.0664" y="816.7148">Single Surface</text><path d="M553.2041,959.625 L553.2041,1011.6797 L493.2041,1023.6797 L553.2041,1035.6797 L553.2041,1087.7344 A0,0 0 0 0 553.2041,1087.7344 L1391.1577,1087.7344 A0,0 0 0 0 1391.1577,1087.7344 L1391.1577,989.625 L1361.1577,959.625 L553.2041,959.625 A0,0 0 0 0 553.2041,959.625 " fill="#FEFFDD" style="stroke:#181818;stroke-width:1.5;"/><path d="M1361.1577,959.625 L1361.1577,989.625 L1391.1577,989.625 L1361.1577,959.625 " fill="#FEFFDD" style="stroke:#181818;stroke-width:1.5;"/><text fill="#000000" font-family="sans-serif" font-size="39" lengthAdjust="spacing" textLength="643.8237" x="571.2041" y="1015.1104">Approximate location (including draft)</text><text fill="#000000" font-family="sans-serif" font-size="39" lengthAdjust="spacing" textLength="774.9536" x="571.2041" y="1064.165">Geometry should be in water (i.e. below z=0)</text><rect fill="#F1F1F1" height="105.2813" rx="37.5" ry="37.5" style="stroke:#181818;stroke-width:1.5;" width="282.1348" x="211.0693" y="971.0391"/><text fill="#000000" font-family="sans-serif" font-size="36" lengthAdjust="spacing" textLength="222.1348" x="241.0693" y="1038.4102">Start Location</text><rect fill="none" height="969.1875" style="stroke:#000000;stroke-width:4.5;" width="2432.2354" x="116.0654" y="1153.7344"/><path d="M815.9121,1153.7344 L815.9121,1185.5625 L785.9121,1215.5625 L116.0654,1215.5625 " fill="none" style="stroke:#000000;stroke-width:4.5;"/><text fill="#000000" font-family="sans-serif" font-size="42" lengthAdjust="spacing" textLength="669.8467" x="125.0654" y="1200.334">Get Preliminary AQWA Mesh Model</text><path d="M1666.7051,1529.8125 L1666.7051,1805.0859 L2488.3008,1805.0859 L2488.3008,1559.8125 L2458.3008,1529.8125 L1666.7051,1529.8125 " fill="#FEFFDD" style="stroke:#181818;stroke-width:1.5;"/><path d="M2458.3008,1529.8125 L2458.3008,1559.8125 L2488.3008,1559.8125 L2458.3008,1529.8125 " fill="#FEFFDD" style="stroke:#181818;stroke-width:1.5;"/><text fill="#000000" font-family="sans-serif" font-size="39" lengthAdjust="spacing" textLength="758.5957" x="1684.7051" y="1585.2979">Objective: To create mesh model for AQWA</text><text fill="#000000" font-family="sans-serif" font-size="39" lengthAdjust="spacing" textLength="179.8799" x="1684.7051" y="1634.3525">Programs:</text><text fill="#000000" font-family="sans-serif" font-size="39" lengthAdjust="spacing" textLength="221.0698" x="1695.5405" y="1683.4072">- Workbench</text><text fill="#000000" font-family="sans-serif" font-size="39" lengthAdjust="spacing" textLength="127.9116" x="1684.7051" y="1732.4619">Output:</text><text fill="#000000" font-family="sans-serif" font-size="39" lengthAdjust="spacing" textLength="331.6333" x="1695.5405" y="1781.5166">- WB_keyname.dat</text><path d="M587.1826,1279.6758 L587.1826,1307.2031 L527.1826,1319.2031 L587.1826,1331.2031 L587.1826,1358.7305 A0,0 0 0 0 587.1826,1358.7305 L1105.4619,1358.7305 A0,0 0 0 0 1105.4619,1358.7305 L1105.4619,1309.6758 L1075.4619,1279.6758 L587.1826,1279.6758 A0,0 0 0 0 587.1826,1279.6758 " fill="#FEFFDD" style="stroke:#181818;stroke-width:1.5;"/><path d="M1075.4619,1279.6758 L1075.4619,1309.6758 L1105.4619,1309.6758 L1075.4619,1279.6758 " fill="#FEFFDD" style="stroke:#181818;stroke-width:1.5;"/><text fill="#000000" font-family="sans-serif" font-size="39" lengthAdjust="spacing" textLength="455.2793" x="605.1826" y="1335.1611">Supress Unwanted bodies</text><rect fill="#F1F1F1" height="105.2813" rx="37.5" ry="37.5" style="stroke:#181818;stroke-width:1.5;" width="350.0918" x="177.0908" y="1266.5625"/><text fill="#000000" font-family="sans-serif" font-size="36" lengthAdjust="spacing" textLength="290.0918" x="207.0908" y="1333.9336">ANSYS Geometry</text><path d="M618.208,1401.8438 L618.208,1502.9531 L558.208,1514.9531 L618.208,1526.9531 L618.208,1628.0625 A0,0 0 0 0 618.208,1628.0625 L1361.8989,1628.0625 A0,0 0 0 0 1361.8989,1628.0625 L1361.8989,1431.8438 L1331.8989,1401.8438 L618.208,1401.8438 A0,0 0 0 0 618.208,1401.8438 " fill="#FEFFDD" style="stroke:#181818;stroke-width:1.5;"/><path d="M1331.8989,1401.8438 L1331.8989,1431.8438 L1361.8989,1431.8438 L1331.8989,1401.8438 " fill="#FEFFDD" style="stroke:#181818;stroke-width:1.5;"/><text fill="#000000" font-family="sans-serif" font-size="39" lengthAdjust="spacing" textLength="305.6777" x="636.208" y="1457.3291">- Add internal Lid.</text><text fill="#000000" font-family="sans-serif" font-size="39" lengthAdjust="spacing" textLength="574.374" x="657.8789" y="1506.3838">- Mesh size is program controlled</text><text fill="#000000" font-family="sans-serif" font-size="39" lengthAdjust="spacing" textLength="585.1523" x="636.208" y="1555.4385">- Ignore Modelling Errors (GOON)</text><text fill="#000000" font-family="sans-serif" font-size="39" lengthAdjust="spacing" textLength="680.6909" x="636.208" y="1604.4932">- Add point mass and intertia properties</text><rect fill="#F1F1F1" height="105.2813" rx="37.5" ry="37.5" style="stroke:#181818;stroke-width:1.5;" width="412.1426" x="146.0654" y="1462.3125"/><text fill="#000000" font-family="sans-serif" font-size="36" lengthAdjust="spacing" textLength="352.1426" x="176.0654" y="1529.6836">RAO analysis Options</text><path d="M585.2227,1733.0625 L585.2227,1809.6445 L525.2227,1821.6445 L585.2227,1833.6445 L585.2227,1910.2266 A0,0 0 0 0 585.2227,1910.2266 L1636.7051,1910.2266 A0,0 0 0 0 1636.7051,1910.2266 L1636.7051,1763.0625 L1606.7051,1733.0625 L585.2227,1733.0625 A0,0 0 0 0 585.2227,1733.0625 " fill="#FEFFDD" style="stroke:#181818;stroke-width:1.5;"/><path d="M1606.7051,1733.0625 L1606.7051,1763.0625 L1636.7051,1763.0625 L1606.7051,1733.0625 " fill="#FEFFDD" style="stroke:#181818;stroke-width:1.5;"/><text fill="#000000" font-family="sans-serif" font-size="39" lengthAdjust="spacing" textLength="351.1904" x="603.2227" y="1788.5479">Based on mesh size</text><text fill="#000000" font-family="sans-serif" font-size="39" lengthAdjust="spacing" textLength="988.4824" x="603.2227" y="1837.6025">Check RAO frequency range covers analysis frequencies</text><text fill="#000000" font-family="sans-serif" font-size="39" lengthAdjust="spacing" textLength="384.8013" x="603.2227" y="1886.6572">No of Frequencies = 5</text><rect fill="#F1F1F1" height="150.5625" rx="37.5" ry="37.5" style="stroke:#181818;stroke-width:1.5;" width="346.1719" x="179.0508" y="1746.3633"/><text fill="#000000" font-family="sans-serif" font-size="36" lengthAdjust="spacing" textLength="250.1016" x="209.0508" y="1813.7344">Adjust Mesh for</text><text fill="#000000" font-family="sans-serif" font-size="36" lengthAdjust="spacing" textLength="286.1719" x="209.0508" y="1859.0156">Frequency Range</text><path d="M547.166,1958.8125 L547.166,2010.8672 L487.166,2022.8672 L547.166,2034.8672 L547.166,2086.9219 A0,0 0 0 0 547.166,2086.9219 L1165.0972,2086.9219 A0,0 0 0 0 1165.0972,2086.9219 L1165.0972,1988.8125 L1135.0972,1958.8125 L547.166,1958.8125 A0,0 0 0 0 547.166,1958.8125 " fill="#FEFFDD" style="stroke:#181818;stroke-width:1.5;"/><path d="M1135.0972,1958.8125 L1135.0972,1988.8125 L1165.0972,1988.8125 L1135.0972,1958.8125 " fill="#FEFFDD" style="stroke:#181818;stroke-width:1.5;"/><text fill="#000000" font-family="sans-serif" font-size="39" lengthAdjust="spacing" textLength="344.6587" x="565.166" y="2014.2979">Get Analysis.dat file</text><text fill="#000000" font-family="sans-serif" font-size="39" lengthAdjust="spacing" textLength="554.9312" x="565.166" y="2063.3525">Rename to F_keyname_WB.dat</text><rect fill="#F1F1F1" height="105.2813" rx="37.5" ry="37.5" style="stroke:#181818;stroke-width:1.5;" width="270.0586" x="217.1074" y="1970.2266"/><text fill="#000000" font-family="sans-serif" font-size="36" lengthAdjust="spacing" textLength="210.0586" x="247.1074" y="2037.5977">AQWA Solve</text><rect fill="none" height="717.9141" style="stroke:#000000;stroke-width:4.5;" width="2115.0249" x="33" y="2152.9219"/><path d="M562.5088,2152.9219 L562.5088,2184.75 L532.5088,2214.75 L33,2214.75 " fill="none" style="stroke:#000000;stroke-width:4.5;"/><text fill="#000000" font-family="sans-serif" font-size="42" lengthAdjust="spacing" textLength="499.5088" x="42" y="2199.5215">Prepare RAO Analysis File</text><path d="M1368.3281,2411.4492 L1368.3281,2686.7227 L2088.0249,2686.7227 L2088.0249,2441.4492 L2058.0249,2411.4492 L1368.3281,2411.4492 " fill="#FEFFDD" style="stroke:#181818;stroke-width:1.5;"/><path d="M2058.0249,2411.4492 L2058.0249,2441.4492 L2088.0249,2441.4492 L2058.0249,2411.4492 " fill="#FEFFDD" style="stroke:#181818;stroke-width:1.5;"/><text fill="#000000" font-family="sans-serif" font-size="39" lengthAdjust="spacing" textLength="656.6968" x="1386.3281" y="2466.9346">Objective: To simple model for AQWA</text><text fill="#000000" font-family="sans-serif" font-size="39" lengthAdjust="spacing" textLength="179.8799" x="1386.3281" y="2515.9893">Programs:</text><text fill="#000000" font-family="sans-serif" font-size="39" lengthAdjust="spacing" textLength="221.0698" x="1397.1636" y="2565.0439">- Workbench</text><text fill="#000000" font-family="sans-serif" font-size="39" lengthAdjust="spacing" textLength="127.9116" x="1386.3281" y="2614.0986">Output:</text><text fill="#000000" font-family="sans-serif" font-size="39" lengthAdjust="spacing" textLength="409.6714" x="1397.1636" y="2663.1533">- F_keyname_SIMP.dat</text><path d="M600.1904,2263.3359 L600.1904,2315.3906 L540.1904,2327.3906 L600.1904,2339.3906 L600.1904,2391.4453 A0,0 0 0 0 600.1904,2391.4453 L1007.9443,2391.4453 A0,0 0 0 0 1007.9443,2391.4453 L1007.9443,2293.3359 L977.9443,2263.3359 L600.1904,2263.3359 A0,0 0 0 0 600.1904,2263.3359 " fill="#FEFFDD" style="stroke:#181818;stroke-width:1.5;"/><path d="M977.9443,2263.3359 L977.9443,2293.3359 L1007.9443,2293.3359 L977.9443,2263.3359 " fill="#FEFFDD" style="stroke:#181818;stroke-width:1.5;"/><text fill="#000000" font-family="sans-serif" font-size="39" lengthAdjust="spacing" textLength="344.7539" x="618.1904" y="2318.8213">au_engine; file_split</text><text fill="#000000" font-family="sans-serif" font-size="39" lengthAdjust="spacing" textLength="344.6587" x="618.1904" y="2367.876">output: *.DECK files</text><rect fill="#F1F1F1" height="105.2813" rx="37.5" ry="37.5" style="stroke:#181818;stroke-width:1.5;" width="376.1074" x="164.083" y="2274.75"/><text fill="#000000" font-family="sans-serif" font-size="36" lengthAdjust="spacing" textLength="306.1055" x="204.085" y="2342.1211">Prepare Deck Files</text><path d="M603.1875,2496.4453 L603.1875,2548.5 L543.1875,2560.5 L603.1875,2572.5 L603.1875,2624.5547 A0,0 0 0 0 603.1875,2624.5547 L1338.3281,2624.5547 A0,0 0 0 0 1338.3281,2624.5547 L1338.3281,2526.4453 L1308.3281,2496.4453 L603.1875,2496.4453 A0,0 0 0 0 603.1875,2496.4453 " fill="#FEFFDD" style="stroke:#181818;stroke-width:1.5;"/><path d="M1308.3281,2496.4453 L1308.3281,2526.4453 L1338.3281,2526.4453 L1308.3281,2496.4453 " fill="#FEFFDD" style="stroke:#181818;stroke-width:1.5;"/><text fill="#000000" font-family="sans-serif" font-size="39" lengthAdjust="spacing" textLength="672.1406" x="621.1875" y="2551.9307">au_engine; file_edit, concatenate array</text><text fill="#000000" font-family="sans-serif" font-size="39" lengthAdjust="spacing" textLength="344.6587" x="621.1875" y="2600.9854">output: *.DECK files</text><rect fill="#F1F1F1" height="105.2813" rx="37.5" ry="37.5" style="stroke:#181818;stroke-width:1.5;" width="382.1016" x="161.0859" y="2507.8594"/><text fill="#000000" font-family="sans-serif" font-size="36" lengthAdjust="spacing" textLength="322.1016" x="191.0859" y="2575.2305">Combine Deck Files</text><path d="M701.2734,2742.668 L701.2734,2770.1953 L641.2734,2782.1953 L701.2734,2794.1953 L701.2734,2821.7227 A0,0 0 0 0 701.2734,2821.7227 L840.1216,2821.7227 A0,0 0 0 0 840.1216,2821.7227 L840.1216,2772.668 L810.1216,2742.668 L701.2734,2742.668 A0,0 0 0 0 701.2734,2742.668 " fill="#FEFFDD" style="stroke:#181818;stroke-width:1.5;"/><path d="M810.1216,2742.668 L810.1216,2772.668 L840.1216,2772.668 L810.1216,2742.668 " fill="#FEFFDD" style="stroke:#181818;stroke-width:1.5;"/><text fill="#000000" font-family="sans-serif" font-size="39" lengthAdjust="spacing" textLength="75.8481" x="719.2734" y="2798.1533">TBA</text><rect fill="#F1F1F1" height="105.2813" rx="37.5" ry="37.5" style="stroke:#181818;stroke-width:1.5;" width="578.2734" x="63" y="2729.5547"/><text fill="#000000" font-family="sans-serif" font-size="36" lengthAdjust="spacing" textLength="518.2734" x="93" y="2796.9258">Add mass and intertia properties</text><rect fill="none" height="665.6133" style="stroke:#000000;stroke-width:4.5;" width="2015.1035" x="105.0791" y="2900.8359"/><path d="M506.1475,2900.8359 L506.1475,2932.6641 L476.1475,2962.6641 L105.0791,2962.6641 " fill="none" style="stroke:#000000;stroke-width:4.5;"/><text fill="#000000" font-family="sans-serif" font-size="42" lengthAdjust="spacing" textLength="371.0684" x="114.0791" y="2947.4355">AQWA Hydrostatics</text><path d="M1238.5869,3178.9453 L1238.5869,3356.1094 L2060.1826,3356.1094 L2060.1826,3208.9453 L2030.1826,3178.9453 L1238.5869,3178.9453 " fill="#FEFFDD" style="stroke:#181818;stroke-width:1.5;"/><path d="M2030.1826,3178.9453 L2030.1826,3208.9453 L2060.1826,3208.9453 L2030.1826,3178.9453 " fill="#FEFFDD" style="stroke:#181818;stroke-width:1.5;"/><text fill="#000000" font-family="sans-serif" font-size="39" lengthAdjust="spacing" textLength="758.5957" x="1256.5869" y="3234.4307">Objective: To create mesh model for AQWA</text><text fill="#000000" font-family="sans-serif" font-size="39" lengthAdjust="spacing" textLength="179.8799" x="1256.5869" y="3283.4854">Programs:</text><text fill="#000000" font-family="sans-serif" font-size="39" lengthAdjust="spacing" textLength="221.0698" x="1267.4224" y="3332.54">- Workbench</text><path d="M591.1904,3026.7773 L591.1904,3054.3047 L531.1904,3066.3047 L591.1904,3078.3047 L591.1904,3105.832 A0,0 0 0 0 591.1904,3105.832 L730.0386,3105.832 A0,0 0 0 0 730.0386,3105.832 L730.0386,3056.7773 L700.0386,3026.7773 L591.1904,3026.7773 A0,0 0 0 0 591.1904,3026.7773 " fill="#FEFFDD" style="stroke:#181818;stroke-width:1.5;"/><path d="M700.0386,3026.7773 L700.0386,3056.7773 L730.0386,3056.7773 L700.0386,3026.7773 " fill="#FEFFDD" style="stroke:#181818;stroke-width:1.5;"/><text fill="#000000" font-family="sans-serif" font-size="39" lengthAdjust="spacing" textLength="75.8481" x="609.1904" y="3082.2627">TBA</text><rect fill="#F1F1F1" height="105.2813" rx="37.5" ry="37.5" style="stroke:#181818;stroke-width:1.5;" width="358.1074" x="173.083" y="3013.6641"/><text fill="#000000" font-family="sans-serif" font-size="36" lengthAdjust="spacing" textLength="298.1074" x="203.083" y="3081.0352">Solve Hydrostatics</text><path d="M629.1943,3228 L629.1943,3255.5273 L569.1943,3267.5273 L629.1943,3279.5273 L629.1943,3307.0547 A0,0 0 0 0 629.1943,3307.0547 L1114.9292,3307.0547 A0,0 0 0 0 1114.9292,3307.0547 L1114.9292,3258 L1084.9292,3228 L629.1943,3228 A0,0 0 0 0 629.1943,3228 " fill="#FEFFDD" style="stroke:#181818;stroke-width:1.5;"/><path d="M1084.9292,3228 L1084.9292,3258 L1114.9292,3258 L1084.9292,3228 " fill="#FEFFDD" style="stroke:#181818;stroke-width:1.5;"/><text fill="#000000" font-family="sans-serif" font-size="39" lengthAdjust="spacing" textLength="422.7349" x="647.1943" y="3283.4854">Equal to displaced mass</text><rect fill="#F1F1F1" height="105.2813" rx="37.5" ry="37.5" style="stroke:#181818;stroke-width:1.5;" width="434.1152" x="135.0791" y="3214.8867"/><text fill="#000000" font-family="sans-serif" font-size="36" lengthAdjust="spacing" textLength="374.1152" x="165.0791" y="3282.2578">Correct Mass Definition</text><path d="M623.2002,3438.2813 L623.2002,3465.8086 L563.2002,3477.8086 L623.2002,3489.8086 L623.2002,3517.3359 A0,0 0 0 0 623.2002,3517.3359 L1208.5869,3517.3359 A0,0 0 0 0 1208.5869,3517.3359 L1208.5869,3468.2813 L1178.5869,3438.2813 L623.2002,3438.2813 A0,0 0 0 0 623.2002,3438.2813 " fill="#FEFFDD" style="stroke:#181818;stroke-width:1.5;"/><path d="M1178.5869,3438.2813 L1178.5869,3468.2813 L1208.5869,3468.2813 L1178.5869,3438.2813 " fill="#FEFFDD" style="stroke:#181818;stroke-width:1.5;"/><text fill="#000000" font-family="sans-serif" font-size="39" lengthAdjust="spacing" textLength="522.3867" x="641.2002" y="3493.7666">Ensure CoG is inline with CoB</text><rect fill="#F1F1F1" height="105.2813" rx="37.5" ry="37.5" style="stroke:#181818;stroke-width:1.5;" width="422.127" x="141.0732" y="3425.168"/><text fill="#000000" font-family="sans-serif" font-size="36" lengthAdjust="spacing" textLength="362.127" x="171.0732" y="3492.5391">Correct CoG Definition</text><rect fill="none" height="452.1563" style="stroke:#000000;stroke-width:4.5;" width="2327.4961" x="43.0195" y="3596.4492"/><path d="M381.1084,3596.4492 L381.1084,3628.2773 L351.1084,3658.2773 L43.0195,3658.2773 " fill="none" style="stroke:#000000;stroke-width:4.5;"/><text fill="#000000" font-family="sans-serif" font-size="42" lengthAdjust="spacing" textLength="308.0889" x="52.0195" y="3643.0488">AQWA Damping</text><path d="M1393.3242,3761.8594 L1393.3242,3939.0234 L2310.5156,3939.0234 L2310.5156,3791.8594 L2280.5156,3761.8594 L1393.3242,3761.8594 " fill="#FEFFDD" style="stroke:#181818;stroke-width:1.5;"/><path d="M2280.5156,3761.8594 L2280.5156,3791.8594 L2310.5156,3791.8594 L2280.5156,3761.8594 " fill="#FEFFDD" style="stroke:#181818;stroke-width:1.5;"/><text fill="#000000" font-family="sans-serif" font-size="39" lengthAdjust="spacing" textLength="854.1914" x="1411.3242" y="3817.3447">Objective: Define appropriate additional damping:</text><text fill="#000000" font-family="sans-serif" font-size="39" lengthAdjust="spacing" textLength="179.8799" x="1411.3242" y="3866.3994">Programs:</text><text fill="#000000" font-family="sans-serif" font-size="39" lengthAdjust="spacing" textLength="221.0698" x="1422.1597" y="3915.4541">- Workbench</text><path d="M691.2539,3688.2773 L691.2539,3838.4414 L631.2539,3850.4414 L691.2539,3862.4414 L691.2539,4012.6055 A0,0 0 0 0 691.2539,4012.6055 L1363.3242,4012.6055 A0,0 0 0 0 1363.3242,4012.6055 L1363.3242,3718.2773 L1333.3242,3688.2773 L691.2539,3688.2773 A0,0 0 0 0 691.2539,3688.2773 " fill="#FEFFDD" style="stroke:#181818;stroke-width:1.5;"/><path d="M1333.3242,3688.2773 L1333.3242,3718.2773 L1363.3242,3718.2773 L1333.3242,3688.2773 " fill="#FEFFDD" style="stroke:#181818;stroke-width:1.5;"/><text fill="#000000" font-family="sans-serif" font-size="39" lengthAdjust="spacing" textLength="609.0703" x="709.2539" y="3743.7627">For Typical ship-shaped structures:</text><text fill="#000000" font-family="sans-serif" font-size="39" lengthAdjust="spacing" textLength="190.7344" x="752.5957" y="3792.8174">- Roll: 10%</text><text fill="#000000" font-family="sans-serif" font-size="39" lengthAdjust="spacing" textLength="188.5635" x="752.5957" y="3841.8721">- Pitch: 8%</text><text fill="#000000" font-family="sans-serif" font-size="39" lengthAdjust="spacing" textLength="314.2471" x="709.2539" y="3890.9268">For TLP or SPAR:</text><text fill="#000000" font-family="sans-serif" font-size="39" lengthAdjust="spacing" textLength="169.0444" x="752.5957" y="3939.9814">- Roll: 5%</text><text fill="#000000" font-family="sans-serif" font-size="39" lengthAdjust="spacing" textLength="188.5635" x="752.5957" y="3989.0361">- Pitch: 5%</text><rect fill="#F1F1F1" height="105.2813" rx="37.5" ry="37.5" style="stroke:#181818;stroke-width:1.5;" width="558.2344" x="73.0195" y="3797.8008"/><text fill="#000000" font-family="sans-serif" font-size="36" lengthAdjust="spacing" textLength="498.2344" x="103.0195" y="3865.1719">Define ROll and Pitch Damping</text><rect fill="none" height="315.9375" style="stroke:#000000;stroke-width:4.5;" width="1614.0542" x="211.1104" y="4078.6055"/><path d="M911.0186,4078.6055 L911.0186,4110.4336 L881.0186,4140.4336 L211.1104,4140.4336 " fill="none" style="stroke:#000000;stroke-width:4.5;"/><text fill="#000000" font-family="sans-serif" font-size="42" lengthAdjust="spacing" textLength="669.9082" x="220.1104" y="4125.2051">AQWA Frequency - Comprehensive</text><path d="M1273.0313,4200.4336 L1273.0313,4328.543 L1765.1646,4328.543 L1765.1646,4230.4336 L1735.1646,4200.4336 L1273.0313,4200.4336 " fill="#FEFFDD" style="stroke:#181818;stroke-width:1.5;"/><path d="M1735.1646,4200.4336 L1735.1646,4230.4336 L1765.1646,4230.4336 L1735.1646,4200.4336 " fill="#FEFFDD" style="stroke:#181818;stroke-width:1.5;"/><text fill="#000000" font-family="sans-serif" font-size="39" lengthAdjust="spacing" textLength="179.8799" x="1291.0313" y="4255.9189">Programs:</text><text fill="#000000" font-family="sans-serif" font-size="39" lengthAdjust="spacing" textLength="418.2979" x="1301.8667" y="4304.9736">- AQWA Command Line</text><path d="M523.1631,4200.4336 L523.1631,4252.4883 L463.1631,4264.4883 L523.1631,4276.4883 L523.1631,4328.543 A0,0 0 0 0 523.1631,4328.543 L1243.0313,4328.543 A0,0 0 0 0 1243.0313,4328.543 L1243.0313,4230.4336 L1213.0313,4200.4336 L523.1631,4200.4336 A0,0 0 0 0 523.1631,4200.4336 " fill="#FEFFDD" style="stroke:#181818;stroke-width:1.5;"/><path d="M1213.0313,4200.4336 L1213.0313,4230.4336 L1243.0313,4230.4336 L1213.0313,4200.4336 " fill="#FEFFDD" style="stroke:#181818;stroke-width:1.5;"/><text fill="#000000" font-family="sans-serif" font-size="39" lengthAdjust="spacing" textLength="656.8682" x="541.1631" y="4255.9189">Frequency resolution to identify peaks</text><text fill="#000000" font-family="sans-serif" font-size="39" lengthAdjust="spacing" textLength="578.8872" x="541.1631" y="4304.9736">Frequency definition around peak</text><rect fill="#F1F1F1" height="105.2813" rx="37.5" ry="37.5" style="stroke:#181818;stroke-width:1.5;" width="222.0527" x="241.1104" y="4211.8477"/><text fill="#000000" font-family="sans-serif" font-size="36" lengthAdjust="spacing" textLength="162.0527" x="271.1104" y="4279.2188">Mesh size</text><rect fill="none" height="740.7422" style="stroke:#000000;stroke-width:4.5;" width="1541.4097" x="142.0898" y="4424.543"/><path d="M543.1992,4424.543 L543.1992,4456.3711 L513.1992,4486.3711 L142.0898,4486.3711 " fill="none" style="stroke:#000000;stroke-width:4.5;"/><text fill="#000000" font-family="sans-serif" font-size="42" lengthAdjust="spacing" textLength="371.1094" x="151.0898" y="4471.1426">AQWA Postprocess</text><path d="M1189.79,4694.4844 L1189.79,4969.7578 L1623.4995,4969.7578 L1623.4995,4724.4844 L1593.4995,4694.4844 L1189.79,4694.4844 " fill="#FEFFDD" style="stroke:#181818;stroke-width:1.5;"/><path d="M1593.4995,4694.4844 L1593.4995,4724.4844 L1623.4995,4724.4844 L1593.4995,4694.4844 " fill="#FEFFDD" style="stroke:#181818;stroke-width:1.5;"/><text fill="#000000" font-family="sans-serif" font-size="39" lengthAdjust="spacing" textLength="179.8799" x="1207.79" y="4749.9697">Programs:</text><text fill="#000000" font-family="sans-serif" font-size="39" lengthAdjust="spacing" textLength="359.874" x="1218.6255" y="4799.0244">- python digitalmodel</text><text fill="#000000" font-family="sans-serif" font-size="39" lengthAdjust="spacing" textLength="127.9116" x="1218.6255" y="4848.0791">Output:</text><text fill="#000000" font-family="sans-serif" font-size="39" lengthAdjust="spacing" textLength="205.8354" x="1229.4609" y="4897.1338">- RAOs.xlsx</text><text fill="#000000" font-family="sans-serif" font-size="39" lengthAdjust="spacing" textLength="99.728" x="1229.4609" y="4946.1885">- .png</text><path d="M468.1436,4534.957 L468.1436,4587.0117 L408.1436,4599.0117 L468.1436,4611.0117 L468.1436,4663.0664 A0,0 0 0 0 468.1436,4663.0664 L1159.79,4663.0664 A0,0 0 0 0 1159.79,4663.0664 L1159.79,4564.957 L1129.79,4534.957 L468.1436,4534.957 A0,0 0 0 0 468.1436,4534.957 " fill="#FEFFDD" style="stroke:#181818;stroke-width:1.5;"/><path d="M1129.79,4534.957 L1129.79,4564.957 L1159.79,4564.957 L1129.79,4534.957 " fill="#FEFFDD" style="stroke:#181818;stroke-width:1.5;"/><text fill="#000000" font-family="sans-serif" font-size="39" lengthAdjust="spacing" textLength="355.4751" x="486.1436" y="4590.4424">Model: Basic checks</text><text fill="#000000" font-family="sans-serif" font-size="39" lengthAdjust="spacing" textLength="628.6465" x="486.1436" y="4639.4971">RAOs: Amplitude and Phase checks</text><rect fill="#F1F1F1" height="105.2813" rx="37.5" ry="37.5" style="stroke:#181818;stroke-width:1.5;" width="112.0137" x="296.1299" y="4546.3711"/><text fill="#000000" font-family="sans-serif" font-size="36" lengthAdjust="spacing" textLength="52.0137" x="326.1299" y="4613.7422">QA</text><path d="M517.1602,4768.0664 L517.1602,4820.1211 L457.1602,4832.1211 L517.1602,4844.1211 L517.1602,4896.1758 A0,0 0 0 0 517.1602,4896.1758 L1145.9458,4896.1758 A0,0 0 0 0 1145.9458,4896.1758 L1145.9458,4798.0664 L1115.9458,4768.0664 L517.1602,4768.0664 A0,0 0 0 0 517.1602,4768.0664 " fill="#FEFFDD" style="stroke:#181818;stroke-width:1.5;"/><path d="M1115.9458,4768.0664 L1115.9458,4798.0664 L1145.9458,4798.0664 L1115.9458,4768.0664 " fill="#FEFFDD" style="stroke:#181818;stroke-width:1.5;"/><text fill="#000000" font-family="sans-serif" font-size="39" lengthAdjust="spacing" textLength="565.7856" x="535.1602" y="4823.5518">DOF 1, 2, 3 (Headings 0, 45, 90)</text><text fill="#000000" font-family="sans-serif" font-size="39" lengthAdjust="spacing" textLength="565.7856" x="535.1602" y="4872.6064">DOF 4, 5, 6 (Headings 0, 45, 90)</text><rect fill="#F1F1F1" height="105.2813" rx="37.5" ry="37.5" style="stroke:#181818;stroke-width:1.5;" width="210.0469" x="247.1133" y="4779.4805"/><text fill="#000000" font-family="sans-serif" font-size="36" lengthAdjust="spacing" textLength="150.0469" x="277.1133" y="4846.8516">RAO Plot</text><path d="M592.1836,5001.1758 L592.1836,5053.2305 L532.1836,5065.2305 L592.1836,5077.2305 L592.1836,5129.2852 A0,0 0 0 0 592.1836,5129.2852 L676.8735,5129.2852 A0,0 0 0 0 676.8735,5129.2852 L676.8735,5031.1758 L646.8735,5001.1758 L592.1836,5001.1758 A0,0 0 0 0 592.1836,5001.1758 " fill="#FEFFDD" style="stroke:#181818;stroke-width:1.5;"/><path d="M646.8735,5001.1758 L646.8735,5031.1758 L676.8735,5031.1758 L646.8735,5001.1758 " fill="#FEFFDD" style="stroke:#181818;stroke-width:1.5;"/><text fill="#000000" font-family="sans-serif" font-size="39" lengthAdjust="spacing" textLength="21.6899" x="610.1836" y="5056.6611">?</text><text fill="#000000" font-family="sans-serif" font-size="39" lengthAdjust="spacing" textLength="21.6899" x="610.1836" y="5105.7158">?</text><rect fill="#F1F1F1" height="105.2813" rx="37.5" ry="37.5" style="stroke:#181818;stroke-width:1.5;" width="360.0938" x="172.0898" y="5012.5898"/><text fill="#000000" font-family="sans-serif" font-size="36" lengthAdjust="spacing" textLength="300.0938" x="202.0898" y="5079.9609">RAOs Comparison</text><ellipse cx="352.1367" cy="5258.2852" fill="none" rx="33" ry="33" style="stroke:#222222;stroke-width:3.0;"/><ellipse cx="352.1367" cy="5258.2852" fill="#222222" rx="18" ry="18" style="stroke:#222222;stroke-width:3.0;"/><line style="stroke:#181818;stroke-width:3.0;" x1="352.1367" x2="352.1367" y1="632.9297" y2="749.3438"/><polygon fill="#181818" points="340.1367,719.3438,352.1367,749.3438,364.1367,719.3438,352.1367,731.3438" style="stroke:#181818;stroke-width:3.0;"/><line style="stroke:#181818;stroke-width:3.0;" x1="352.1367" x2="352.1367" y1="854.625" y2="971.0391"/><polygon fill="#181818" points="340.1367,941.0391,352.1367,971.0391,364.1367,941.0391,352.1367,953.0391" style="stroke:#181818;stroke-width:3.0;"/><line style="stroke:#181818;stroke-width:3.0;" x1="352.1367" x2="352.1367" y1="317.2383" y2="527.6484"/><polygon fill="#181818" points="340.1367,497.6484,352.1367,527.6484,364.1367,497.6484,352.1367,509.6484" style="stroke:#181818;stroke-width:3.0;"/><line style="stroke:#181818;stroke-width:3.0;" x1="352.1367" x2="352.1367" y1="1371.8438" y2="1462.3125"/><polygon fill="#181818" points="340.1367,1432.3125,352.1367,1462.3125,364.1367,1432.3125,352.1367,1444.3125" style="stroke:#181818;stroke-width:3.0;"/><line style="stroke:#181818;stroke-width:3.0;" x1="352.1367" x2="352.1367" y1="1567.5938" y2="1746.3633"/><polygon fill="#181818" points="340.1367,1716.3633,352.1367,1746.3633,364.1367,1716.3633,352.1367,1728.3633" style="stroke:#181818;stroke-width:3.0;"/><line style="stroke:#181818;stroke-width:3.0;" x1="352.1367" x2="352.1367" y1="1896.9258" y2="1970.2266"/><polygon fill="#181818" points="340.1367,1940.2266,352.1367,1970.2266,364.1367,1940.2266,352.1367,1952.2266" style="stroke:#181818;stroke-width:3.0;"/><line style="stroke:#181818;stroke-width:3.0;" x1="352.1367" x2="352.1367" y1="1076.3203" y2="1266.5625"/><polygon fill="#181818" points="340.1367,1236.5625,352.1367,1266.5625,364.1367,1236.5625,352.1367,1248.5625" style="stroke:#181818;stroke-width:3.0;"/><line style="stroke:#181818;stroke-width:3.0;" x1="352.1367" x2="352.1367" y1="2380.0313" y2="2507.8594"/><polygon fill="#181818" points="340.1367,2477.8594,352.1367,2507.8594,364.1367,2477.8594,352.1367,2489.8594" style="stroke:#181818;stroke-width:3.0;"/><line style="stroke:#181818;stroke-width:3.0;" x1="352.1367" x2="352.1367" y1="2613.1406" y2="2729.5547"/><polygon fill="#181818" points="340.1367,2699.5547,352.1367,2729.5547,364.1367,2699.5547,352.1367,2711.5547" style="stroke:#181818;stroke-width:3.0;"/><line style="stroke:#181818;stroke-width:3.0;" x1="352.1367" x2="352.1367" y1="2075.5078" y2="2274.75"/><polygon fill="#181818" points="340.1367,2244.75,352.1367,2274.75,364.1367,2244.75,352.1367,2256.75" style="stroke:#181818;stroke-width:3.0;"/><line style="stroke:#181818;stroke-width:3.0;" x1="352.1367" x2="352.1367" y1="3118.9453" y2="3214.8867"/><polygon fill="#181818" points="340.1367,3184.8867,352.1367,3214.8867,364.1367,3184.8867,352.1367,3196.8867" style="stroke:#181818;stroke-width:3.0;"/><line style="stroke:#181818;stroke-width:3.0;" x1="352.1367" x2="352.1367" y1="3320.168" y2="3425.168"/><polygon fill="#181818" points="340.1367,3395.168,352.1367,3425.168,364.1367,3395.168,352.1367,3407.168" style="stroke:#181818;stroke-width:3.0;"/><line style="stroke:#181818;stroke-width:3.0;" x1="352.1367" x2="352.1367" y1="2834.8359" y2="3013.6641"/><polygon fill="#181818" points="340.1367,2983.6641,352.1367,3013.6641,364.1367,2983.6641,352.1367,2995.6641" style="stroke:#181818;stroke-width:3.0;"/><line style="stroke:#181818;stroke-width:3.0;" x1="352.1367" x2="352.1367" y1="3530.4492" y2="3797.8008"/><polygon fill="#181818" points="340.1367,3767.8008,352.1367,3797.8008,364.1367,3767.8008,352.1367,3779.8008" style="stroke:#181818;stroke-width:3.0;"/><line style="stroke:#181818;stroke-width:3.0;" x1="352.1367" x2="352.1367" y1="3903.082" y2="4211.8477"/><polygon fill="#181818" points="340.1367,4181.8477,352.1367,4211.8477,364.1367,4181.8477,352.1367,4193.8477" style="stroke:#181818;stroke-width:3.0;"/><line style="stroke:#181818;stroke-width:3.0;" x1="352.1367" x2="352.1367" y1="4651.6523" y2="4779.4805"/><polygon fill="#181818" points="340.1367,4749.4805,352.1367,4779.4805,364.1367,4749.4805,352.1367,4761.4805" style="stroke:#181818;stroke-width:3.0;"/><line style="stroke:#181818;stroke-width:3.0;" x1="352.1367" x2="352.1367" y1="4884.7617" y2="5012.5898"/><polygon fill="#181818" points="340.1367,4982.5898,352.1367,5012.5898,364.1367,4982.5898,352.1367,4994.5898" style="stroke:#181818;stroke-width:3.0;"/><line style="stroke:#181818;stroke-width:3.0;" x1="352.1367" x2="352.1367" y1="4317.1289" y2="4546.3711"/><polygon fill="#181818" points="340.1367,4516.3711,352.1367,4546.3711,364.1367,4516.3711,352.1367,4528.3711" style="stroke:#181818;stroke-width:3.0;"/><line style="stroke:#181818;stroke-width:3.0;" x1="352.1367" x2="352.1367" y1="5117.8711" y2="5225.2852"/><polygon fill="#181818" points="340.1367,5195.2852,352.1367,5225.2852,364.1367,5195.2852,352.1367,5207.2852" style="stroke:#181818;stroke-width:3.0;"/><text fill="#888888" font-family="sans-serif" font-size="30" lengthAdjust="spacing" textLength="266.9092" x="1152.6958" y="5319.4277">2024.08.08 at 20:09</text><text fill="#888888" font-family="sans-serif" font-size="30" lengthAdjust="spacing" textLength="220.1221" x="1176.0894" y="5357.1621">aqwa_raos.puml</text><!--SRC=[pLTHRnit37xtho0218q7rqYxPjXS58EJD4snf7Rj3i600O5oedsgTT9LqYLnX_ttaJgVq_GkyIL8WTsJBOdaH_8ZHVb4Q8IVEtwXJ2wSo22ee77VEebkOWiZ3wmpwE35NlEPJwbA5WQzXvVD1mwijWuSojgsI1PpLvhW8vzi9eBjTE8c33-U3M4o77dusuoTJL0M3ZiT7uGBdGxGPsn0S6gUXlYNlz75Pqo2kiG1QGDN6116WYW2gqPMnuiUb8dwrt8VI9KVhF_2SnXg3JEbCPuLFb4ATlfIX2xCh2DbyIoISaPHuY7N2Bgo1hRUeSqmkEKM_7EZj1bozP6FSmhDjoXkq4nIPMpJnZGN2HveeRActJFh5XTeahIsEIf2NeG1D4ajS6b4XdsyhgEC1sW34c7W0a7DqVV09z8cW27ftnAu7Hx-1cE752Q4Aa2lsuQ7y-4BDoDtFVZK5bf2OesXTDVEJijjqWQfk4IOYzm34SnUejFqUnF8gJ9pOk2qDDSQue7DBfH1aCed3kbOMZ298c9bWWK1ljIyScGZ3kOwdDX4CAlQXohFdRrMaV5w9GmxoYIwa6GVf1EpqAs9LIcfeilPDN15MXn9zx5FAzfUmTStkzrxaF_RK0o1s8rQPSe8qXyh-nHz2gTMedv0ZTmkRmeokvYnfemrSMdUhkjMnVMuAZdRFwyAHOgmAPN33zE_fWzd_RJ87RVMFysLC04fALOgt4XWxdF22BtqoiCevpJurZQfzqd9X4L7Ak14oNv30EXOJA5NNuad7l8omboJmLcjgTtN9TxFZQNYZsdNJCMtpbddOUVTQFIXUmUIt18Mo0I5WPjv11QKO8iv_zeSZg7yNFXGuYMAh3UE77ufAF5Bc0WpRr_e-y9JAeZQMHM1UYz8CLd4-sQsDkBO20M8kf2_IK-r_xqVvRK4ThQ6IIVW3UpTuUqtxd9zJQs-REyHb-XmXOZf7A- -sga9Cjs1EjbHnVtpi_qDzA_tW-eEuEXKHk6833ww4tYLvTHMVsWJQ1Aw2SFq_UcuJH-0olb3vWSxtRumHN6EPautpEkOddEVQrK_PLSzwwV-uTk3FyePPXEgwkPw0b0eLUXn5w1xX-X2Si8viNmIcDmDxki3hK5_sXy-YB6neewNqbaQFuDA_F_qpcgQ8RWFtCB-H55Q4SSvyWvEEIk7E5D6FMXKUVkbe2k66WhDJBccaQXCS5kp1_RTewmQ6i0mIYiUpJHp_qg5b9RsxoL64oyEHPRJNVOuIaJqL2CyikLEnNgHCggdmCXIzU07SMDbV3AYCPLBQgn2abR-j8xc4J_TbhcYXoIDZYf_xbEHKo9zS4KIAD1DACjN3Sq90tYnktt7ViGpW5-tcssUZ7ceduw7a_iDx6tG_zr-hHaqjuERuU4vJ_uqfwLeF2NrgTvyqGffpZWr9vIeJUbSpsFjKtSpcw2tkeZkKJKgYIQesH9o50j_ZvXS5n-rUNx9Huc7zzOnDQUS7_dUFrNuycL8IRzKSnM4ZhssVkpk0P_PCnpv_hNsrusx_TpCDsNaux1rAk9CFE3HKYMGyFHOZpi36i0mutk_a5ZMR4h3Q9F07S-2iRQXDQZ3qH6ywC7B7lmCEySe-FdeORS7h_PwyDjkjr7WLGzezvVD0iq8VQmcuPH_G4V_VSDAlQPzi7cdCxEqw3hRDBdXpjQIllxfQL_APq0pyBFZuq6MRNKxspoTy9Ytq-smffNKVm00]--></g></svg>