<?xml version="1.0" encoding="us-ascii" standalone="no"?><svg xmlns="http://www.w3.org/2000/svg" xmlns:xlink="http://www.w3.org/1999/xlink" contentStyleType="text/css" height="3795px" preserveAspectRatio="none" style="width:2358px;height:3795px;background:#FFFFFF;" version="1.1" viewBox="0 0 2358 3795" width="2358px" zoomAndPan="magnify"><defs/><g><rect fill="#FF6347" height="135.6563" id="_title" rx="22.5" ry="22.5" style="stroke:#FF0000;stroke-width:6.0;" width="381" x="984" y="45"/><text fill="#000000" font-family="sans-serif" font-size="42" font-weight="bold" lengthAdjust="spacing" textLength="339" x="999" y="103.5996">AQWA Highlevel</text><text fill="#000000" font-family="sans-serif" font-size="42" font-weight="bold" lengthAdjust="spacing" textLength="195" x="1077" y="156.4277">Workflow</text><path d="M366,198.6563 L366,299.7656 L306,311.7656 L366,323.7656 L366,424.875 A0,0 0 0 0 366,424.875 L1251,424.875 A0,0 0 0 0 1251,424.875 L1251,228.6563 L1221,198.6563 L366,198.6563 A0,0 0 0 0 366,198.6563 " fill="#FEFFDD" style="stroke:#181818;stroke-width:1.5;"/><path d="M1221,198.6563 L1221,228.6563 L1251,228.6563 L1221,198.6563 " fill="#FEFFDD" style="stroke:#181818;stroke-width:1.5;"/><text fill="#000000" font-family="sans-serif" font-size="39" font-weight="bold" lengthAdjust="spacing" textLength="294" x="384" y="254.1416">(IN PROGRESS)</text><text fill="#000000" font-family="sans-serif" font-size="39" lengthAdjust="spacing" textLength="822" x="384" y="303.1963">Objective: Provide high-level workflow as follows</text><text fill="#000000" font-family="sans-serif" font-size="39" lengthAdjust="spacing" textLength="306" x="384" y="352.251">- software access</text><text fill="#000000" font-family="sans-serif" font-size="39" lengthAdjust="spacing" textLength="342" x="384" y="401.3057">- working guidelines</text><ellipse cx="276" cy="311.7656" fill="#222222" rx="30" ry="30" style="stroke:#222222;stroke-width:3.0;"/><rect fill="none" height="530.7422" style="stroke:#000000;stroke-width:4.5;" width="1026" x="114" y="454.875"/><path d="M570,454.875 L570,486.7031 L540,516.7031 L114,516.7031 " fill="none" style="stroke:#000000;stroke-width:4.5;"/><text fill="#000000" font-family="sans-serif" font-size="42" lengthAdjust="spacing" textLength="426" x="123" y="501.4746">Preprocess: Geometry</text><path d="M435,565.2891 L435,617.3438 L375,629.3438 L435,641.3438 L435,693.3984 A0,0 0 0 0 435,693.3984 L1044,693.3984 A0,0 0 0 0 1044,693.3984 L1044,595.2891 L1014,565.2891 L435,565.2891 A0,0 0 0 0 435,565.2891 " fill="#FEFFDD" style="stroke:#181818;stroke-width:1.5;"/><path d="M1014,565.2891 L1014,595.2891 L1044,595.2891 L1014,565.2891 " fill="#FEFFDD" style="stroke:#181818;stroke-width:1.5;"/><text fill="#000000" font-family="sans-serif" font-size="39" lengthAdjust="spacing" textLength="534" x="453" y="620.7744">define geometry format directly</text><text fill="#000000" font-family="sans-serif" font-size="39" lengthAdjust="spacing" textLength="354" x="453" y="669.8291">i.e. nodes, elements</text><rect fill="#F1F1F1" height="105.2813" rx="37.5" ry="37.5" style="stroke:#181818;stroke-width:1.5;" width="198" x="177" y="576.7031"/><text fill="#000000" font-family="sans-serif" font-size="36" lengthAdjust="spacing" textLength="138" x="207" y="644.0742">.dat files</text><path d="M468,723.3984 L468,824.5078 L408,836.5078 L468,848.5078 L468,949.6172 A0,0 0 0 0 468,949.6172 L1110,949.6172 A0,0 0 0 0 1110,949.6172 L1110,753.3984 L1080,723.3984 L468,723.3984 A0,0 0 0 0 468,723.3984 " fill="#FEFFDD" style="stroke:#181818;stroke-width:1.5;"/><path d="M1080,723.3984 L1080,753.3984 L1110,753.3984 L1080,723.3984 " fill="#FEFFDD" style="stroke:#181818;stroke-width:1.5;"/><text fill="#000000" font-family="sans-serif" font-size="39" lengthAdjust="spacing" textLength="537" x="498" y="778.8838">Prepare geometry from scratch</text><text fill="#000000" font-family="sans-serif" font-size="39" lengthAdjust="spacing" textLength="258" x="486" y="827.9385">- good features</text><text fill="#000000" font-family="sans-serif" font-size="39" lengthAdjust="spacing" textLength="579" x="486" y="876.9932">- learning takes time and practice</text><text fill="#000000" font-family="sans-serif" font-size="39" lengthAdjust="spacing" textLength="12" x="486" y="926.0479">-</text><text fill="#000000" font-family="sans-serif" font-size="39" font-weight="bold" lengthAdjust="spacing" textLength="147" x="510" y="926.0479">License</text><text fill="#000000" font-family="sans-serif" font-size="39" lengthAdjust="spacing" textLength="210" x="669" y="926.0479">dependency</text><rect fill="#F1F1F1" height="105.2813" rx="37.5" ry="37.5" style="stroke:#181818;stroke-width:1.5;" width="264" x="144" y="783.8672"/><text fill="#000000" font-family="sans-serif" font-size="36" lengthAdjust="spacing" textLength="204" x="174" y="851.2383">SpaceClaim</text><rect fill="none" height="561.2109" style="stroke:#000000;stroke-width:4.5;" width="1410" x="100.5" y="1015.6172"/><path d="M607.5,1015.6172 L607.5,1047.4453 L577.5,1077.4453 L100.5,1077.4453 " fill="none" style="stroke:#000000;stroke-width:4.5;"/><text fill="#000000" font-family="sans-serif" font-size="42" lengthAdjust="spacing" textLength="477" x="109.5" y="1062.2168">Preprocess: Model Setup</text><path d="M439.5,1107.4453 L439.5,1208.5547 L379.5,1220.5547 L439.5,1232.5547 L439.5,1333.6641 A0,0 0 0 0 439.5,1333.6641 L1480.5,1333.6641 A0,0 0 0 0 1480.5,1333.6641 L1480.5,1137.4453 L1450.5,1107.4453 L439.5,1107.4453 A0,0 0 0 0 439.5,1107.4453 " fill="#FEFFDD" style="stroke:#181818;stroke-width:1.5;"/><path d="M1450.5,1107.4453 L1450.5,1137.4453 L1480.5,1137.4453 L1450.5,1107.4453 " fill="#FEFFDD" style="stroke:#181818;stroke-width:1.5;"/><text fill="#000000" font-family="sans-serif" font-size="39" lengthAdjust="spacing" textLength="312" x="457.5" y="1162.9307">- Stringent format:</text><text fill="#000000" font-family="sans-serif" font-size="39" lengthAdjust="spacing" textLength="930" x="505.5" y="1211.9854">- i.e. Reference manual provides examples and format</text><text fill="#000000" font-family="sans-serif" font-size="39" lengthAdjust="spacing" textLength="966" x="457.5" y="1261.04">- Programming (Python, Fortran etc.) or MS DOS Batch</text><text fill="#000000" font-family="sans-serif" font-size="39" lengthAdjust="spacing" textLength="381" x="457.5" y="1310.0947">- License independent</text><rect fill="#F1F1F1" height="105.2813" rx="37.5" ry="37.5" style="stroke:#181818;stroke-width:1.5;" width="207" x="172.5" y="1167.9141"/><text fill="#000000" font-family="sans-serif" font-size="36" lengthAdjust="spacing" textLength="138" x="211.5" y="1235.2852">.dat files</text><path d="M481.5,1363.6641 L481.5,1440.2461 L421.5,1452.2461 L481.5,1464.2461 L481.5,1540.8281 A0,0 0 0 0 481.5,1540.8281 L937.5,1540.8281 A0,0 0 0 0 937.5,1540.8281 L937.5,1393.6641 L907.5,1363.6641 L481.5,1363.6641 A0,0 0 0 0 481.5,1363.6641 " fill="#FEFFDD" style="stroke:#181818;stroke-width:1.5;"/><path d="M907.5,1363.6641 L907.5,1393.6641 L937.5,1393.6641 L907.5,1363.6641 " fill="#FEFFDD" style="stroke:#181818;stroke-width:1.5;"/><text fill="#000000" font-family="sans-serif" font-size="39" lengthAdjust="spacing" textLength="318" x="511.5" y="1419.1494">- visual and helpful</text><text fill="#000000" font-family="sans-serif" font-size="39" lengthAdjust="spacing" textLength="342" x="511.5" y="1468.2041">- Manual operations</text><text fill="#000000" font-family="sans-serif" font-size="39" lengthAdjust="spacing" textLength="12" x="499.5" y="1517.2588">-</text><text fill="#000000" font-family="sans-serif" font-size="39" font-weight="bold" lengthAdjust="spacing" textLength="147" x="523.5" y="1517.2588">License</text><text fill="#000000" font-family="sans-serif" font-size="39" lengthAdjust="spacing" textLength="210" x="682.5" y="1517.2588">dependency</text><rect fill="#F1F1F1" height="105.2813" rx="37.5" ry="37.5" style="stroke:#181818;stroke-width:1.5;" width="291" x="130.5" y="1399.6055"/><text fill="#000000" font-family="sans-serif" font-size="36" lengthAdjust="spacing" textLength="231" x="160.5" y="1466.9766">Workbench UI</text><rect fill="none" height="403.1016" style="stroke:#000000;stroke-width:4.5;" width="885" x="126" y="1606.8281"/><path d="M234,1606.8281 L234,1638.6563 L204,1668.6563 L126,1668.6563 " fill="none" style="stroke:#000000;stroke-width:4.5;"/><text fill="#000000" font-family="sans-serif" font-size="42" lengthAdjust="spacing" textLength="78" x="135" y="1653.4277">Run</text><path d="M456,1698.6563 L456,1824.293 L396,1836.293 L456,1848.293 L456,1973.9297 A0,0 0 0 0 456,1973.9297 L981,1973.9297 A0,0 0 0 0 981,1973.9297 L981,1728.6563 L951,1698.6563 L456,1698.6563 A0,0 0 0 0 456,1698.6563 " fill="#FEFFDD" style="stroke:#181818;stroke-width:1.5;"/><path d="M951,1698.6563 L951,1728.6563 L981,1728.6563 L951,1698.6563 " fill="#FEFFDD" style="stroke:#181818;stroke-width:1.5;"/><text fill="#000000" font-family="sans-serif" font-size="39" lengthAdjust="spacing" textLength="105" x="474" y="1754.1416">Tools:</text><text fill="#000000" font-family="sans-serif" font-size="39" lengthAdjust="spacing" textLength="222" x="474" y="1803.1963">- Workbench</text><text fill="#000000" font-family="sans-serif" font-size="39" lengthAdjust="spacing" textLength="462" x="474" y="1852.251">- AQWA.exe with .dat files</text><text fill="#000000" font-family="sans-serif" font-size="39" lengthAdjust="spacing" textLength="186" x="474" y="1901.3057">- Batch file</text><text fill="#000000" font-family="sans-serif" font-size="39" lengthAdjust="spacing" textLength="12" x="474" y="1950.3604">-</text><text fill="#000000" font-family="sans-serif" font-size="39" font-weight="bold" lengthAdjust="spacing" textLength="147" x="498" y="1950.3604">License</text><text fill="#000000" font-family="sans-serif" font-size="39" lengthAdjust="spacing" textLength="210" x="657" y="1950.3604">dependency</text><rect fill="#F1F1F1" height="105.2813" rx="37.5" ry="37.5" style="stroke:#181818;stroke-width:1.5;" width="240" x="156" y="1783.6523"/><text fill="#000000" font-family="sans-serif" font-size="36" lengthAdjust="spacing" textLength="180" x="186" y="1851.0234">Run AQWA</text><rect fill="none" height="1518.2578" style="stroke:#000000;stroke-width:4.5;" width="2292" x="33" y="2039.9297"/><path d="M297,2039.9297 L297,2071.7578 L267,2101.7578 L33,2101.7578 " fill="none" style="stroke:#000000;stroke-width:4.5;"/><text fill="#000000" font-family="sans-serif" font-size="42" lengthAdjust="spacing" textLength="234" x="42" y="2086.5293">Postprocess</text><path d="M1560,2738.3906 L1560,2915.5547 L2265,2915.5547 L2265,2768.3906 L2235,2738.3906 L1560,2738.3906 " fill="#FEFFDD" style="stroke:#181818;stroke-width:1.5;"/><path d="M2235,2738.3906 L2235,2768.3906 L2265,2768.3906 L2235,2738.3906 " fill="#FEFFDD" style="stroke:#181818;stroke-width:1.5;"/><text fill="#000000" font-family="sans-serif" font-size="39" lengthAdjust="spacing" textLength="105" x="1578" y="2793.876">Tools:</text><text fill="#000000" font-family="sans-serif" font-size="39" lengthAdjust="spacing" textLength="180" x="1590" y="2842.9307">- MS DOS</text><text fill="#000000" font-family="sans-serif" font-size="39" lengthAdjust="spacing" textLength="630" x="1590" y="2891.9854">- Programming (Python) for .LIS files</text><path d="M478.5,2131.7578 L478.5,2232.8672 L418.5,2244.8672 L478.5,2256.8672 L478.5,2357.9766 A0,0 0 0 0 478.5,2357.9766 L1048.5,2357.9766 A0,0 0 0 0 1048.5,2357.9766 L1048.5,2161.7578 L1018.5,2131.7578 L478.5,2131.7578 A0,0 0 0 0 478.5,2131.7578 " fill="#FEFFDD" style="stroke:#181818;stroke-width:1.5;"/><path d="M1018.5,2131.7578 L1018.5,2161.7578 L1048.5,2161.7578 L1018.5,2131.7578 " fill="#FEFFDD" style="stroke:#181818;stroke-width:1.5;"/><text fill="#000000" font-family="sans-serif" font-size="39" lengthAdjust="spacing" textLength="105" x="496.5" y="2187.2432">Tools:</text><text fill="#000000" font-family="sans-serif" font-size="39" lengthAdjust="spacing" textLength="456" x="508.5" y="2236.2979">- AQWAReader (.csv files)</text><text fill="#000000" font-family="sans-serif" font-size="39" lengthAdjust="spacing" textLength="387" x="544.5" y="2285.3525">- Pros: Official support</text><text fill="#000000" font-family="sans-serif" font-size="39" lengthAdjust="spacing" textLength="459" x="544.5" y="2334.4072">- Cons: Too many csv files</text><rect fill="#F1F1F1" height="105.2813" rx="37.5" ry="37.5" style="stroke:#181818;stroke-width:1.5;" width="285" x="133.5" y="2192.2266"/><text fill="#000000" font-family="sans-serif" font-size="36" lengthAdjust="spacing" textLength="225" x="163.5" y="2259.5977">AQWAReader</text><path d="M549,2387.9766 L549,2587.1953 L489,2599.1953 L549,2611.1953 L549,2810.4141 A0,0 0 0 0 549,2810.4141 L1530,2810.4141 A0,0 0 0 0 1530,2810.4141 L1530,2417.9766 L1500,2387.9766 L549,2387.9766 A0,0 0 0 0 549,2387.9766 " fill="#FEFFDD" style="stroke:#181818;stroke-width:1.5;"/><path d="M1500,2387.9766 L1500,2417.9766 L1530,2417.9766 L1500,2387.9766 " fill="#FEFFDD" style="stroke:#181818;stroke-width:1.5;"/><text fill="#000000" font-family="sans-serif" font-size="39" lengthAdjust="spacing" textLength="633" x="567" y="2443.4619">Reading/Programming from .LIS files</text><text fill="#000000" font-family="sans-serif" font-size="39" lengthAdjust="spacing" textLength="93" x="567" y="2492.5166">Pros:</text><text fill="#000000" font-family="sans-serif" font-size="39" lengthAdjust="spacing" textLength="870" x="603" y="2541.5713">- Programming to get single shot at complete data</text><text fill="#000000" font-family="sans-serif" font-size="39" lengthAdjust="spacing" textLength="102" x="567" y="2590.626">Cons:</text><text fill="#000000" font-family="sans-serif" font-size="39" lengthAdjust="spacing" textLength="639" x="603" y="2639.6807">- multiple tables for single set of data</text><text fill="#000000" font-family="sans-serif" font-size="39" lengthAdjust="spacing" textLength="396" x="651" y="2688.7354">- Headers are repeated</text><text fill="#000000" font-family="sans-serif" font-size="39" lengthAdjust="spacing" textLength="717" x="651" y="2737.79">- White Space between sets of each data</text><text fill="#000000" font-family="sans-serif" font-size="39" lengthAdjust="spacing" textLength="438" x="603" y="2786.8447">- file format may change?</text><rect fill="#F1F1F1" height="105.2813" rx="37.5" ry="37.5" style="stroke:#181818;stroke-width:1.5;" width="426" x="63" y="2546.5547"/><text fill="#000000" font-family="sans-serif" font-size="36" lengthAdjust="spacing" textLength="366" x="93" y="2613.9258">AQWA output file (.LIS)</text><path d="M534,2928.5273 L534,2956.0547 L474,2968.0547 L534,2980.0547 L534,3007.582 A0,0 0 0 0 534,3007.582 L1206,3007.582 A0,0 0 0 0 1206,3007.582 L1206,2958.5273 L1176,2928.5273 L534,2928.5273 A0,0 0 0 0 534,2928.5273 " fill="#FEFFDD" style="stroke:#181818;stroke-width:1.5;"/><path d="M1176,2928.5273 L1176,2958.5273 L1206,2958.5273 L1176,2928.5273 " fill="#FEFFDD" style="stroke:#181818;stroke-width:1.5;"/><text fill="#000000" font-family="sans-serif" font-size="39" lengthAdjust="spacing" textLength="609" x="552" y="2984.0127">Manual operations to extract &amp; plot</text><rect fill="#F1F1F1" height="105.2813" rx="37.5" ry="37.5" style="stroke:#181818;stroke-width:1.5;" width="396" x="78" y="2915.4141"/><text fill="#000000" font-family="sans-serif" font-size="36" lengthAdjust="spacing" textLength="336" x="108" y="2982.7852">AQL - Excel Interface</text><path d="M492,3050.6953 L492,3274.4414 L432,3286.4414 L492,3298.4414 L492,3522.1875 A0,0 0 0 0 492,3522.1875 L1359,3522.1875 A0,0 0 0 0 1359,3522.1875 L1359,3080.6953 L1329,3050.6953 L492,3050.6953 A0,0 0 0 0 492,3050.6953 " fill="#FEFFDD" style="stroke:#181818;stroke-width:1.5;"/><path d="M1329,3050.6953 L1329,3080.6953 L1359,3080.6953 L1329,3050.6953 " fill="#FEFFDD" style="stroke:#181818;stroke-width:1.5;"/><text fill="#000000" font-family="sans-serif" font-size="39" lengthAdjust="spacing" textLength="609" x="510" y="3106.1807">Manual operations to extract &amp; plot</text><text fill="#000000" font-family="sans-serif" font-size="39" lengthAdjust="spacing" textLength="93" x="510" y="3155.2354">Pros:</text><text fill="#000000" font-family="sans-serif" font-size="39" lengthAdjust="spacing" textLength="666" x="546" y="3204.29">- Good/killer graphics and 3D plots etc</text><text fill="#000000" font-family="sans-serif" font-size="39" lengthAdjust="spacing" textLength="102" x="510" y="3253.3447">Cons:</text><text fill="#000000" font-family="sans-serif" font-size="39" lengthAdjust="spacing" textLength="150" x="546" y="3302.3994">- Limited</text><text fill="#000000" font-family="sans-serif" font-size="39" lengthAdjust="spacing" textLength="396" x="594" y="3351.4541">- Headers are repeated</text><text fill="#000000" font-family="sans-serif" font-size="39" lengthAdjust="spacing" textLength="717" x="594" y="3400.5088">- White Space between sets of each data</text><text fill="#000000" font-family="sans-serif" font-size="39" lengthAdjust="spacing" textLength="438" x="546" y="3449.5635">- file format may change?</text><text fill="#000000" font-family="sans-serif" font-size="39" lengthAdjust="spacing" textLength="768" x="546" y="3498.6182">- Many manual operations to extract outputs</text><rect fill="#F1F1F1" height="105.2813" rx="37.5" ry="37.5" style="stroke:#181818;stroke-width:1.5;" width="312" x="120" y="3233.8008"/><text fill="#000000" font-family="sans-serif" font-size="36" lengthAdjust="spacing" textLength="252" x="150" y="3301.1719">Workbench - UI</text><ellipse cx="276" cy="3651.1875" fill="none" rx="33" ry="33" style="stroke:#222222;stroke-width:3.0;"/><ellipse cx="276" cy="3651.1875" fill="#222222" rx="18" ry="18" style="stroke:#222222;stroke-width:3.0;"/><line style="stroke:#181818;stroke-width:3.0;" x1="276" x2="276" y1="681.9844" y2="783.8672"/><polygon fill="#181818" points="264,753.8672,276,783.8672,288,753.8672,276,765.8672" style="stroke:#181818;stroke-width:3.0;"/><line style="stroke:#181818;stroke-width:3.0;" x1="276" x2="276" y1="341.7656" y2="576.7031"/><polygon fill="#181818" points="264,546.7031,276,576.7031,288,546.7031,276,558.7031" style="stroke:#181818;stroke-width:3.0;"/><line style="stroke:#181818;stroke-width:3.0;" x1="276" x2="276" y1="1273.1953" y2="1399.6055"/><polygon fill="#181818" points="264,1369.6055,276,1399.6055,288,1369.6055,276,1381.6055" style="stroke:#181818;stroke-width:3.0;"/><line style="stroke:#181818;stroke-width:3.0;" x1="276" x2="276" y1="889.1484" y2="1167.9141"/><polygon fill="#181818" points="264,1137.9141,276,1167.9141,288,1137.9141,276,1149.9141" style="stroke:#181818;stroke-width:3.0;"/><line style="stroke:#181818;stroke-width:3.0;" x1="276" x2="276" y1="1504.8867" y2="1783.6523"/><polygon fill="#181818" points="264,1753.6523,276,1783.6523,288,1753.6523,276,1765.6523" style="stroke:#181818;stroke-width:3.0;"/><line style="stroke:#181818;stroke-width:3.0;" x1="276" x2="276" y1="2297.5078" y2="2546.5547"/><polygon fill="#181818" points="264,2516.5547,276,2546.5547,288,2516.5547,276,2528.5547" style="stroke:#181818;stroke-width:3.0;"/><line style="stroke:#181818;stroke-width:3.0;" x1="276" x2="276" y1="2651.8359" y2="2915.4141"/><polygon fill="#181818" points="264,2885.4141,276,2915.4141,288,2885.4141,276,2897.4141" style="stroke:#181818;stroke-width:3.0;"/><line style="stroke:#181818;stroke-width:3.0;" x1="276" x2="276" y1="3020.6953" y2="3233.8008"/><polygon fill="#181818" points="264,3203.8008,276,3233.8008,288,3203.8008,276,3215.8008" style="stroke:#181818;stroke-width:3.0;"/><line style="stroke:#181818;stroke-width:3.0;" x1="276" x2="276" y1="1888.9336" y2="2192.2266"/><polygon fill="#181818" points="264,2162.2266,276,2192.2266,288,2162.2266,276,2174.2266" style="stroke:#181818;stroke-width:3.0;"/><line style="stroke:#181818;stroke-width:3.0;" x1="276" x2="276" y1="3339.082" y2="3618.1875"/><polygon fill="#181818" points="264,3588.1875,276,3618.1875,288,3588.1875,276,3600.1875" style="stroke:#181818;stroke-width:3.0;"/><text fill="#888888" font-family="sans-serif" font-size="30" lengthAdjust="spacing" textLength="288" x="1030.5" y="3712.3301">2024.05.22 at 10:57</text><text fill="#888888" font-family="sans-serif" font-size="30" lengthAdjust="spacing" textLength="282" x="1033.5" y="3750.0645">aqwa_general.puml</text><!--SRC=[pLPDRzj64BtpLmmCf964I44Rz28VYiH9R0DMx4ekVEbbJGx5ZPQxnEvIiX3al_VjKf8jcP9bj8Vo975dP-QzDnzqgL1C7n8taxeILfJafLVyoTYCxTZKEZipLhEbNtzljxajP3hJx1pzrcvmPfInP3bxTYpIsTGs8OB9hIc5DqaI3-dZdtSVwK9E2yLpLlItlZDsbYkpI1BdXVL9GdYqyKmMLZx-3K-lrxdyHZVZw_Fnbycas-jjJgxlltFgvPo7T6FDN6PC1QxscmYBbNyIZdAZyCjjRlR9cTmlX6KIQGgmJqx2FQcdDAtXK4bG4GzPPp6x9a_01YnfD9tSMAwi2Kw6TCwcP6-N9_GZsRWS3ZBXAPUAtUdcvHwmuSauHrIQhdmXUGiYAPCMQDMIjepbW0TmbB5xHwouPEtTbi5stZ6VIILIFbD2baVbGm5XeEen8sjASgaLFYssJFiqDIQZd8MlBRkTCyN2wa2j5pDsA9eIz2EzoWh8cFAEUQztXPVQSQy7JYe0OPqk3u3xUL2R4KXID65VLzloq2lrwTF4My00rIjjXjjyHPiep9XpjiYQgHIw5WfGOvqwuWTHLeWO2MYyx0H1IK_HMsKWh7Epz8NHx-YhiTuAJUpJGPVGPAC9VRwUqASW1UruMD57Kg_fyo-LHcZAUoHSq5-NnnL7d-RI1MW1IC6gockrQp5gm9kAKJ8Gnj5_B_Mura7M3HByZpFdz17T7WYtnYWttCbeGyJE- -1om0zC2-cB9vMpOzRe4KvUX_J5WZREhohwATf30hKZN2iJowVjfANykg5GQN1rEMd1t59CWQin2-oCqt-VwQCpwWnIDszIw3utNMUFbh_ESvbAL9whgmgTiyVu31Kv3A53bovfu_mOV6HgNzLD4I0nSDCz3cp00cxVF-KvpjKz_3QGaiD2UOCXxSdXDz9nXV640arD63L80zKgjbklmTxYjQoLbxY5MNqVnbHGVkqM4KmUdUqXz2BgXDc6fO49Z6s0huLsqxj28h6uaUYU_O9PXm0kH6217ceDqs_uNct6Ka2qGc0Y__6oP5Uu_EKXnIgur9vjZi372VPyY85jVl1XUT4lL2dpYkdQFtg-lZRitZevnsP-FvDAeODGC1M-yvhjy-5pzEB2KZcoEgva2Tao-d_hlra-o_NwRMUnQM5tUDquRweaoGtUsUGDikBEoHBFO3GQPDdRq6TlBow6PNdIJTw4xBGekTDDEExtUEiV]--></g></svg>