<?xml version="1.0" encoding="us-ascii" standalone="no"?><svg xmlns="http://www.w3.org/2000/svg" xmlns:xlink="http://www.w3.org/1999/xlink" contentStyleType="text/css" height="3876px" preserveAspectRatio="none" style="width:1821px;height:3876px;background:#FFFFFF;" version="1.1" viewBox="0 0 1821 3876" width="1821px" zoomAndPan="magnify"><defs/><g><rect fill="#FF6347" height="135.6563" id="_title" rx="22.5" ry="22.5" style="stroke:#FF0000;stroke-width:6.0;" width="546" x="633" y="45"/><text fill="#000000" font-family="sans-serif" font-size="42" font-weight="bold" lengthAdjust="spacing" textLength="504" x="648" y="103.5996">Modular Model Building</text><text fill="#000000" font-family="sans-serif" font-size="42" font-weight="bold" lengthAdjust="spacing" textLength="126" x="849" y="156.4277">AQWA</text><path d="M366,228.6563 L366,405.8203 L1227,405.8203 L1227,258.6563 L1197,228.6563 L366,228.6563 " fill="#FEFFDD" style="stroke:#181818;stroke-width:1.5;"/><path d="M1197,228.6563 L1197,258.6563 L1227,258.6563 L1197,228.6563 " fill="#FEFFDD" style="stroke:#181818;stroke-width:1.5;"/><text fill="#000000" font-family="sans-serif" font-size="39" font-weight="bold" lengthAdjust="spacing" textLength="294" x="384" y="284.1416">(IN PROGRESS)</text><text fill="#000000" font-family="sans-serif" font-size="39" lengthAdjust="spacing" textLength="693" x="384" y="333.1963">Objective: modular file management and</text><text fill="#000000" font-family="sans-serif" font-size="39" lengthAdjust="spacing" textLength="798" x="384" y="382.251">analysis for easy updates/maintenance/reruns</text><path d="M523.5,465.8203 L523.5,544.875 L1069.5,544.875 L1069.5,495.8203 L1039.5,465.8203 L523.5,465.8203 " fill="#FEFFDD" style="stroke:#181818;stroke-width:1.5;"/><path d="M1039.5,465.8203 L1039.5,495.8203 L1069.5,495.8203 L1039.5,465.8203 " fill="#FEFFDD" style="stroke:#181818;stroke-width:1.5;"/><text fill="#000000" font-family="sans-serif" font-size="39" lengthAdjust="spacing" textLength="483" x="541.5" y="521.3057">All files in ascii (.dat) format</text><ellipse cx="306" cy="386.7656" fill="#222222" rx="30" ry="30" style="stroke:#222222;stroke-width:3.0;"/><rect fill="none" height="274.5234" style="stroke:#000000;stroke-width:4.5;" width="1713" x="75" y="604.875"/><path d="M492,604.875 L492,636.7031 L462,666.7031 L75,666.7031 " fill="none" style="stroke:#000000;stroke-width:4.5;"/><text fill="#000000" font-family="sans-serif" font-size="42" lengthAdjust="spacing" textLength="387" x="84" y="651.4746">Analysis Parameters</text><path d="M567,715.2891 L567,767.3438 L507,779.3438 L567,791.3438 L567,843.3984 A0,0 0 0 0 567,843.3984 L1758,843.3984 A0,0 0 0 0 1758,843.3984 L1758,745.2891 L1728,715.2891 L567,715.2891 A0,0 0 0 0 567,715.2891 " fill="#FEFFDD" style="stroke:#181818;stroke-width:1.5;"/><path d="M1728,715.2891 L1728,745.2891 L1758,745.2891 L1728,715.2891 " fill="#FEFFDD" style="stroke:#181818;stroke-width:1.5;"/><text fill="#000000" font-family="sans-serif" font-size="39" lengthAdjust="spacing" textLength="546" x="585" y="770.7744">Simulation time, time step, etc.</text><text fill="#000000" font-family="sans-serif" font-size="39" lengthAdjust="spacing" textLength="1128" x="585" y="819.8291">These parameters may be changed later if unconvergence occurs</text><rect fill="#F1F1F1" height="105.2813" rx="37.5" ry="37.5" style="stroke:#181818;stroke-width:1.5;" width="402" x="105" y="726.7031"/><text fill="#000000" font-family="sans-serif" font-size="36" lengthAdjust="spacing" textLength="342" x="135" y="794.0742">Analysis Parameters</text><rect fill="none" height="596.0859" style="stroke:#000000;stroke-width:4.5;" width="1495.5" x="39" y="909.3984"/><path d="M147,909.3984 L147,941.2266 L117,971.2266 L39,971.2266 " fill="none" style="stroke:#000000;stroke-width:4.5;"/><text fill="#000000" font-family="sans-serif" font-size="42" lengthAdjust="spacing" textLength="78" x="48" y="955.998">field</text><path d="M516,1035.3398 L516,1062.8672 L456,1074.8672 L516,1086.8672 L516,1114.3945 A0,0 0 0 0 516,1114.3945 L1191,1114.3945 A0,0 0 0 0 1191,1114.3945 L1191,1065.3398 L1161,1035.3398 L516,1035.3398 A0,0 0 0 0 516,1035.3398 " fill="#FEFFDD" style="stroke:#181818;stroke-width:1.5;"/><path d="M1161,1035.3398 L1161,1065.3398 L1191,1065.3398 L1161,1035.3398 " fill="#FEFFDD" style="stroke:#181818;stroke-width:1.5;"/><text fill="#000000" font-family="sans-serif" font-size="39" lengthAdjust="spacing" textLength="612" x="534" y="1090.8252">North Direction per alignment sheet</text><rect fill="#F1F1F1" height="105.2813" rx="37.5" ry="37.5" style="stroke:#181818;stroke-width:1.5;" width="300" x="156" y="1022.2266"/><text fill="#000000" font-family="sans-serif" font-size="36" lengthAdjust="spacing" textLength="240" x="186" y="1089.5977">N-S Directions</text><path d="M603,1176.0938 L603,1228.1484 L543,1240.1484 L603,1252.1484 L603,1304.2031 A0,0 0 0 0 603,1304.2031 L1311,1304.2031 A0,0 0 0 0 1311,1304.2031 L1311,1206.0938 L1281,1176.0938 L603,1176.0938 A0,0 0 0 0 603,1176.0938 " fill="#FEFFDD" style="stroke:#181818;stroke-width:1.5;"/><path d="M1281,1176.0938 L1281,1206.0938 L1311,1206.0938 L1281,1176.0938 " fill="#FEFFDD" style="stroke:#181818;stroke-width:1.5;"/><text fill="#000000" font-family="sans-serif" font-size="39" lengthAdjust="spacing" textLength="201" x="621" y="1231.5791">water depth</text><text fill="#000000" font-family="sans-serif" font-size="39" lengthAdjust="spacing" textLength="645" x="621" y="1280.6338">seabed profile/bathymetry (3D profile)</text><rect fill="#F1F1F1" height="105.2813" rx="37.5" ry="37.5" style="stroke:#181818;stroke-width:1.5;" width="474" x="69" y="1187.5078"/><text fill="#000000" font-family="sans-serif" font-size="36" lengthAdjust="spacing" textLength="414" x="99" y="1254.8789">Seabed and Water Depth</text><path d="M499.5,1377.3164 L499.5,1404.8438 L439.5,1416.8438 L499.5,1428.8438 L499.5,1456.3711 A0,0 0 0 0 499.5,1456.3711 L1504.5,1456.3711 A0,0 0 0 0 1504.5,1456.3711 L1504.5,1407.3164 L1474.5,1377.3164 L499.5,1377.3164 A0,0 0 0 0 499.5,1377.3164 " fill="#FEFFDD" style="stroke:#181818;stroke-width:1.5;"/><path d="M1474.5,1377.3164 L1474.5,1407.3164 L1504.5,1407.3164 L1474.5,1377.3164 " fill="#FEFFDD" style="stroke:#181818;stroke-width:1.5;"/><text fill="#000000" font-family="sans-serif" font-size="39" lengthAdjust="spacing" textLength="942" x="517.5" y="1432.8018">Define project data in files i.e waves, current, wind etc.</text><rect fill="#F1F1F1" height="105.2813" rx="37.5" ry="37.5" style="stroke:#181818;stroke-width:1.5;" width="267" x="172.5" y="1364.2031"/><text fill="#000000" font-family="sans-serif" font-size="36" lengthAdjust="spacing" textLength="207" x="202.5" y="1431.5742">Environment</text><rect fill="none" height="688.4414" style="stroke:#000000;stroke-width:4.5;" width="1509" x="114" y="1535.4844"/><path d="M372,1535.4844 L372,1567.3125 L342,1597.3125 L114,1597.3125 " fill="none" style="stroke:#000000;stroke-width:4.5;"/><text fill="#000000" font-family="sans-serif" font-size="42" lengthAdjust="spacing" textLength="228" x="123" y="1582.084">Vessel Data</text><path d="M981,1813.5938 L981,1990.7578 L1563,1990.7578 L1563,1843.5938 L1533,1813.5938 L981,1813.5938 " fill="#FEFFDD" style="stroke:#181818;stroke-width:1.5;"/><path d="M1533,1813.5938 L1533,1843.5938 L1563,1843.5938 L1533,1813.5938 " fill="#FEFFDD" style="stroke:#181818;stroke-width:1.5;"/><text fill="#000000" font-family="sans-serif" font-size="39" lengthAdjust="spacing" textLength="282" x="999" y="1869.0791">Add Host vessel</text><text fill="#000000" font-family="sans-serif" font-size="39" lengthAdjust="spacing" textLength="432" x="999" y="1918.1338">Add installation vessel(s)</text><text fill="#000000" font-family="sans-serif" font-size="39" lengthAdjust="spacing" textLength="519" x="999" y="1967.1885">Repeat process for all vessels</text><path d="M496.5,1661.4258 L496.5,1688.9531 L436.5,1700.9531 L496.5,1712.9531 L496.5,1740.4805 A0,0 0 0 0 496.5,1740.4805 L772.5,1740.4805 A0,0 0 0 0 772.5,1740.4805 L772.5,1691.4258 L742.5,1661.4258 L496.5,1661.4258 A0,0 0 0 0 496.5,1661.4258 " fill="#FEFFDD" style="stroke:#181818;stroke-width:1.5;"/><path d="M742.5,1661.4258 L742.5,1691.4258 L772.5,1691.4258 L742.5,1661.4258 " fill="#FEFFDD" style="stroke:#181818;stroke-width:1.5;"/><text fill="#000000" font-family="sans-serif" font-size="39" lengthAdjust="spacing" textLength="213" x="514.5" y="1716.9111">Vessel Data</text><rect fill="#F1F1F1" height="105.2813" rx="37.5" ry="37.5" style="stroke:#181818;stroke-width:1.5;" width="261" x="175.5" y="1648.3125"/><text fill="#000000" font-family="sans-serif" font-size="36" lengthAdjust="spacing" textLength="201" x="205.5" y="1715.6836">Vessel Data</text><path d="M525,1826.707 L525,1878.7617 L465,1890.7617 L525,1902.7617 L525,1954.8164 A0,0 0 0 0 525,1954.8164 L951,1954.8164 A0,0 0 0 0 951,1954.8164 L951,1856.707 L921,1826.707 L525,1826.707 A0,0 0 0 0 525,1826.707 " fill="#FEFFDD" style="stroke:#181818;stroke-width:1.5;"/><path d="M921,1826.707 L921,1856.707 L951,1856.707 L921,1826.707 " fill="#FEFFDD" style="stroke:#181818;stroke-width:1.5;"/><text fill="#000000" font-family="sans-serif" font-size="39" lengthAdjust="spacing" textLength="81" x="543" y="1882.1924">Draft</text><text fill="#000000" font-family="sans-serif" font-size="39" lengthAdjust="spacing" textLength="363" x="543" y="1931.2471">Type of solution, etc.</text><rect fill="#F1F1F1" height="105.2813" rx="37.5" ry="37.5" style="stroke:#181818;stroke-width:1.5;" width="318" x="147" y="1838.1211"/><text fill="#000000" font-family="sans-serif" font-size="36" lengthAdjust="spacing" textLength="258" x="177" y="1905.4922">Vessel Settings</text><path d="M528,2059.8164 L528,2111.8711 L468,2123.8711 L528,2135.8711 L528,2187.9258 A0,0 0 0 0 528,2187.9258 L942,2187.9258 A0,0 0 0 0 942,2187.9258 L942,2089.8164 L912,2059.8164 L528,2059.8164 A0,0 0 0 0 528,2059.8164 " fill="#FEFFDD" style="stroke:#181818;stroke-width:1.5;"/><path d="M912,2059.8164 L912,2089.8164 L942,2089.8164 L912,2059.8164 " fill="#FEFFDD" style="stroke:#181818;stroke-width:1.5;"/><text fill="#000000" font-family="sans-serif" font-size="39" lengthAdjust="spacing" textLength="309" x="546" y="2115.3018">Location of vessel</text><text fill="#000000" font-family="sans-serif" font-size="39" lengthAdjust="spacing" textLength="351" x="546" y="2164.3564">Orientation of vessel</text><rect fill="#F1F1F1" height="105.2813" rx="37.5" ry="37.5" style="stroke:#181818;stroke-width:1.5;" width="324" x="144" y="2071.2305"/><text fill="#000000" font-family="sans-serif" font-size="36" lengthAdjust="spacing" textLength="264" x="174" y="2138.6016">Vessel Location</text><rect fill="none" height="470.2734" style="stroke:#000000;stroke-width:4.5;" width="1071" x="33" y="2253.9258"/><path d="M540,2253.9258 L540,2285.7539 L510,2315.7539 L33,2315.7539 " fill="none" style="stroke:#000000;stroke-width:4.5;"/><text fill="#000000" font-family="sans-serif" font-size="42" lengthAdjust="spacing" textLength="477" x="42" y="2300.5254">Structure - Vessel Assets</text><path d="M609,2345.7539 L609,2422.3359 L549,2434.3359 L609,2446.3359 L609,2522.918 A0,0 0 0 0 609,2522.918 L1074,2522.918 A0,0 0 0 0 1074,2522.918 L1074,2375.7539 L1044,2345.7539 L609,2345.7539 A0,0 0 0 0 609,2345.7539 " fill="#FEFFDD" style="stroke:#181818;stroke-width:1.5;"/><path d="M1044,2345.7539 L1044,2375.7539 L1074,2375.7539 L1044,2345.7539 " fill="#FEFFDD" style="stroke:#181818;stroke-width:1.5;"/><text fill="#000000" font-family="sans-serif" font-size="39" lengthAdjust="spacing" textLength="246" x="627" y="2401.2393">examples are:</text><text fill="#000000" font-family="sans-serif" font-size="39" lengthAdjust="spacing" textLength="390" x="639" y="2450.2939">Add additional weights</text><text fill="#000000" font-family="sans-serif" font-size="39" lengthAdjust="spacing" textLength="252" x="639" y="2499.3486">structures etc.</text><rect fill="#F1F1F1" height="105.2813" rx="37.5" ry="37.5" style="stroke:#181818;stroke-width:1.5;" width="486" x="63" y="2381.6953"/><text fill="#000000" font-family="sans-serif" font-size="36" lengthAdjust="spacing" textLength="426" x="93" y="2449.0664">Basic Structure properties</text><path d="M510,2596.0313 L510,2623.5586 L450,2635.5586 L510,2647.5586 L510,2675.0859 A0,0 0 0 0 510,2675.0859 L732,2675.0859 A0,0 0 0 0 732,2675.0859 L732,2626.0313 L702,2596.0313 L510,2596.0313 A0,0 0 0 0 510,2596.0313 " fill="#FEFFDD" style="stroke:#181818;stroke-width:1.5;"/><path d="M702,2596.0313 L702,2626.0313 L732,2626.0313 L702,2596.0313 " fill="#FEFFDD" style="stroke:#181818;stroke-width:1.5;"/><text fill="#000000" font-family="sans-serif" font-size="39" lengthAdjust="spacing" textLength="159" x="528" y="2651.5166">Moorings</text><rect fill="#F1F1F1" height="105.2813" rx="37.5" ry="37.5" style="stroke:#181818;stroke-width:1.5;" width="288" x="162" y="2582.918"/><text fill="#000000" font-family="sans-serif" font-size="36" lengthAdjust="spacing" textLength="228" x="192" y="2650.2891">Interface Data</text><rect fill="none" height="1010.625" style="stroke:#000000;stroke-width:4.5;" width="1179" x="61.5" y="2754.1992"/><path d="M430.5,2754.1992 L430.5,2786.0273 L400.5,2816.0273 L61.5,2816.0273 " fill="none" style="stroke:#000000;stroke-width:4.5;"/><text fill="#000000" font-family="sans-serif" font-size="42" lengthAdjust="spacing" textLength="339" x="70.5" y="2800.7988">Structure - Assets</text><path d="M133.5,2867.0273 L118.5,3010.2305 L133.5,3153.4336 M478.5,2867.0273 L493.5,3010.2305 L478.5,3153.4336 " fill="#F1F1F1" style="stroke:#181818;stroke-width:1.5;"/><text fill="#000000" font-family="sans-serif" font-size="36" lengthAdjust="spacing" textLength="279" x="148.5" y="2934.3984">Basic Structures:</text><text fill="#000000" font-family="sans-serif" font-size="36" lengthAdjust="spacing" textLength="255" x="184.5" y="2979.6797">- jumpers/arms</text><text fill="#000000" font-family="sans-serif" font-size="36" lengthAdjust="spacing" textLength="279" x="184.5" y="3024.9609">- other structures</text><text fill="#000000" font-family="sans-serif" font-size="36" lengthAdjust="spacing" textLength="9" x="148.5" y="3070.2422">&#160;</text><text fill="#000000" font-family="sans-serif" font-size="36" lengthAdjust="spacing" textLength="9" x="148.5" y="3115.5234">&#160;</text><rect fill="none" height="419.3906" style="stroke:#000000;stroke-width:4.5;" width="1119" x="91.5" y="3183.4336"/><path d="M643.5,3183.4336 L643.5,3215.2617 L613.5,3245.2617 L91.5,3245.2617 " fill="none" style="stroke:#000000;stroke-width:4.5;"/><text fill="#000000" font-family="sans-serif" font-size="42" lengthAdjust="spacing" textLength="522" x="100.5" y="3230.0332">Stucture Interface to Vessel</text><path d="M550.5,3309.375 L550.5,3336.9023 L490.5,3348.9023 L550.5,3360.9023 L550.5,3388.4297 A0,0 0 0 0 550.5,3388.4297 L1180.5,3388.4297 A0,0 0 0 0 1180.5,3388.4297 L1180.5,3339.375 L1150.5,3309.375 L550.5,3309.375 A0,0 0 0 0 550.5,3309.375 " fill="#FEFFDD" style="stroke:#181818;stroke-width:1.5;"/><path d="M1150.5,3309.375 L1150.5,3339.375 L1180.5,3339.375 L1150.5,3309.375 " fill="#FEFFDD" style="stroke:#181818;stroke-width:1.5;"/><text fill="#000000" font-family="sans-serif" font-size="39" lengthAdjust="spacing" textLength="567" x="568.5" y="3364.8604">Rigging, Chutes, Tensioners etc.</text><rect fill="#F1F1F1" height="105.2813" rx="37.5" ry="37.5" style="stroke:#181818;stroke-width:1.5;" width="369" x="121.5" y="3296.2617"/><text fill="#000000" font-family="sans-serif" font-size="36" lengthAdjust="spacing" textLength="309" x="151.5" y="3363.6328">Structure to Vessel</text><path d="M526.5,3474.6563 L526.5,3502.1836 L466.5,3514.1836 L526.5,3526.1836 L526.5,3553.7109 A0,0 0 0 0 526.5,3553.7109 L901.5,3553.7109 A0,0 0 0 0 901.5,3553.7109 L901.5,3504.6563 L871.5,3474.6563 L526.5,3474.6563 A0,0 0 0 0 526.5,3474.6563 " fill="#FEFFDD" style="stroke:#181818;stroke-width:1.5;"/><path d="M871.5,3474.6563 L871.5,3504.6563 L901.5,3504.6563 L871.5,3474.6563 " fill="#FEFFDD" style="stroke:#181818;stroke-width:1.5;"/><text fill="#000000" font-family="sans-serif" font-size="39" lengthAdjust="spacing" textLength="312" x="544.5" y="3530.1416">For modelling etc.</text><rect fill="#F1F1F1" height="105.2813" rx="37.5" ry="37.5" style="stroke:#181818;stroke-width:1.5;" width="321" x="145.5" y="3461.543"/><text fill="#000000" font-family="sans-serif" font-size="36" lengthAdjust="spacing" textLength="261" x="175.5" y="3528.9141">Other interfaces</text><ellipse cx="306" cy="3695.8242" fill="none" rx="33" ry="33" style="stroke:#222222;stroke-width:3.0;"/><ellipse cx="306" cy="3695.8242" fill="#222222" rx="18" ry="18" style="stroke:#222222;stroke-width:3.0;"/><line style="stroke:#181818;stroke-width:3.0;" x1="306" x2="306" y1="416.7656" y2="726.7031"/><polygon fill="#181818" points="294,696.7031,306,726.7031,318,696.7031,306,708.7031" style="stroke:#181818;stroke-width:3.0;"/><line style="stroke:#181818;stroke-width:3.0;" x1="306" x2="306" y1="1127.5078" y2="1187.5078"/><polygon fill="#181818" points="294,1157.5078,306,1187.5078,318,1157.5078,306,1169.5078" style="stroke:#181818;stroke-width:3.0;"/><line style="stroke:#181818;stroke-width:3.0;" x1="306" x2="306" y1="1292.7891" y2="1364.2031"/><polygon fill="#181818" points="294,1334.2031,306,1364.2031,318,1334.2031,306,1346.2031" style="stroke:#181818;stroke-width:3.0;"/><line style="stroke:#181818;stroke-width:3.0;" x1="306" x2="306" y1="831.9844" y2="1022.2266"/><polygon fill="#181818" points="294,992.2266,306,1022.2266,318,992.2266,306,1004.2266" style="stroke:#181818;stroke-width:3.0;"/><line style="stroke:#181818;stroke-width:3.0;" x1="306" x2="306" y1="1753.5938" y2="1838.1211"/><polygon fill="#181818" points="294,1808.1211,306,1838.1211,318,1808.1211,306,1820.1211" style="stroke:#181818;stroke-width:3.0;"/><line style="stroke:#181818;stroke-width:3.0;" x1="306" x2="306" y1="1943.4023" y2="2071.2305"/><polygon fill="#181818" points="294,2041.2305,306,2071.2305,318,2041.2305,306,2053.2305" style="stroke:#181818;stroke-width:3.0;"/><line style="stroke:#181818;stroke-width:3.0;" x1="306" x2="306" y1="1469.4844" y2="1648.3125"/><polygon fill="#181818" points="294,1618.3125,306,1648.3125,318,1618.3125,306,1630.3125" style="stroke:#181818;stroke-width:3.0;"/><line style="stroke:#181818;stroke-width:3.0;" x1="306" x2="306" y1="2486.9766" y2="2582.918"/><polygon fill="#181818" points="294,2552.918,306,2582.918,318,2552.918,306,2564.918" style="stroke:#181818;stroke-width:3.0;"/><line style="stroke:#181818;stroke-width:3.0;" x1="306" x2="306" y1="2176.5117" y2="2381.6953"/><polygon fill="#181818" points="294,2351.6953,306,2381.6953,318,2351.6953,306,2363.6953" style="stroke:#181818;stroke-width:3.0;"/><line style="stroke:#181818;stroke-width:3.0;" x1="306" x2="306" y1="3401.543" y2="3461.543"/><polygon fill="#181818" points="294,3431.543,306,3461.543,318,3431.543,306,3443.543" style="stroke:#181818;stroke-width:3.0;"/><line style="stroke:#181818;stroke-width:3.0;" x1="306" x2="306" y1="3153.4336" y2="3296.2617"/><polygon fill="#181818" points="294,3266.2617,306,3296.2617,318,3266.2617,306,3278.2617" style="stroke:#181818;stroke-width:3.0;"/><line style="stroke:#181818;stroke-width:3.0;" x1="306" x2="306" y1="3566.8242" y2="3662.8242"/><polygon fill="#181818" points="294,3632.8242,306,3662.8242,318,3632.8242,306,3644.8242" style="stroke:#181818;stroke-width:3.0;"/><line style="stroke:#181818;stroke-width:3.0;" x1="306" x2="306" y1="2688.1992" y2="2867.0273"/><polygon fill="#181818" points="294,2837.0273,306,2867.0273,318,2837.0273,306,2849.0273" style="stroke:#181818;stroke-width:3.0;"/><text fill="#888888" font-family="sans-serif" font-size="30" lengthAdjust="spacing" textLength="288" x="762" y="3792.9668">2024.04.30 at 11:13</text><text fill="#888888" font-family="sans-serif" font-size="30" lengthAdjust="spacing" textLength="327" x="742.5" y="3830.7012">modular_analysis.puml</text><!--SRC=[bLPBRzf04BxxLuoGeW0YeBRgXPv8I9j89Ka1DPTU5k_OtiJUjNRNfAZgV-_injWGGt3tOCJEwvjl7hO9MOhmAJ3FGkPCimoii2bUAirHprKX-PNI4ZLy-7nOPvc8y5cYCV3niCALIfK6ZRmXPk5ph5z3E9MbofXLGU25C5EyI9bslvZ2PI5IBcGCloHCVZnEWi1OfcqG01sfB88MSMBzNtVw_Uxj7JpCxx_DhnUBNhzVIUvNJnXQiSOnP6M8I52yZ4aMOuRI0fCSAdswJZT668W88ZApWIBdpA8PPKn8YvB944SQTI6DDqAoTeYEOfkagGzfG4XW9XG2kaDosNCXY883NeWrOaKe2Pt95i-3On8jQjE1Fq7bVNn0uKibFG9fUnOY8qPy82io7FWd68lv0D26muR1Ca63a5UHYCODh132XCaOEP0pwXqHGI539TUeOoIwG8LXeSsUj_s4_pRoZWIcV3_Jkui5J8LsvLIoVP9tIjkaDeIS4B9KnD8NtoI8zXraFl82sOgoSutow3ESOcwJrWXUl0rtDWsPUNMTQ-LwPBHYDjaGjte3tK_JxNNl5C1hkHPQ-OnQevfY92Iw46v2W3gIkGujMtM817kDPW1KEar-1_0YA72ZBKuLyYVj2fheARclodbeIZY76sKihBt-thsGDFrfsQYlygwfEPbZZiowH4AtbzpWadQfU6X8FMKxk5fJjcDpgYAbwWAjfJtMlbkdcaNDs-KcfocAmAYqS2mCJjLX5yDt5NhgMcFO6hY8RyfHhLKjg2VUqphL5mkhYz0M6k5Yo-k4dlRDUhjaHeHGArELQO2jmFQKuc-MvQwfcSPnG-exZ77kOR4KNj0vCKqziyLWMf5_IoyB7J7QVl_LOZEbj6kO8-wtPBx7PatZCHPDJSC5F1KPCMf6J6TcvrhPX9PMdVJnEfQ1wuIjAYkwXw66MCbRip8NSKoi3E0gAQnRIakKXiAxLr2ROjpxPCGMOVlU-KhB97EV9Adx6Zcz_8nLUH14YkvqSEO-7BgT3PtXR3Ra_1neJvtVt8ophDCBpjogbVGcxVO2vwYq-WS0]--></g></svg>