<?xml version="1.0" encoding="us-ascii" standalone="no"?><svg xmlns="http://www.w3.org/2000/svg" xmlns:xlink="http://www.w3.org/1999/xlink" contentStyleType="text/css" height="2910px" preserveAspectRatio="none" style="width:2280px;height:2910px;background:#FFFFFF;" version="1.1" viewBox="0 0 2280 2910" width="2280px" zoomAndPan="magnify"><defs/><g><rect fill="#FF6347" height="135.6563" id="_title" rx="22.5" ry="22.5" style="stroke:#FF0000;stroke-width:6.0;" width="444" x="913.5" y="45"/><text fill="#000000" font-family="sans-serif" font-size="42" font-weight="bold" lengthAdjust="spacing" textLength="246" x="1006.5" y="103.5996">AQWA Runs</text><text fill="#000000" font-family="sans-serif" font-size="42" font-weight="bold" lengthAdjust="spacing" textLength="414" x="928.5" y="156.4277">Automation Options</text><path d="M343.5,228.6563 L343.5,356.7656 L1204.5,356.7656 L1204.5,258.6563 L1174.5,228.6563 L343.5,228.6563 " fill="#FEFFDD" style="stroke:#181818;stroke-width:1.5;"/><path d="M1174.5,228.6563 L1174.5,258.6563 L1204.5,258.6563 L1174.5,228.6563 " fill="#FEFFDD" style="stroke:#181818;stroke-width:1.5;"/><text fill="#000000" font-family="sans-serif" font-size="39" lengthAdjust="spacing" textLength="693" x="361.5" y="284.1416">Objective: modular file management and</text><text fill="#000000" font-family="sans-serif" font-size="39" lengthAdjust="spacing" textLength="798" x="361.5" y="333.1963">analysis for easy updates/maintenance/reruns</text><path d="M315,416.7656 L315,495.8203 L1233,495.8203 L1233,446.7656 L1203,416.7656 L315,416.7656 " fill="#FEFFDD" style="stroke:#181818;stroke-width:1.5;"/><path d="M1203,416.7656 L1203,446.7656 L1233,446.7656 L1203,416.7656 " fill="#FEFFDD" style="stroke:#181818;stroke-width:1.5;"/><text fill="#000000" font-family="sans-serif" font-size="39" lengthAdjust="spacing" textLength="855" x="333" y="472.251">All files in ascii (.dat) format as much as possible</text><ellipse cx="255" cy="362.2383" fill="#222222" rx="30" ry="30" style="stroke:#222222;stroke-width:3.0;"/><rect fill="none" height="665.6133" style="stroke:#000000;stroke-width:4.5;" width="1218" x="33" y="555.8203"/><path d="M417,555.8203 L417,587.6484 L387,617.6484 L33,617.6484 " fill="none" style="stroke:#000000;stroke-width:4.5;"/><text fill="#000000" font-family="sans-serif" font-size="42" lengthAdjust="spacing" textLength="354" x="42" y="602.4199">Preprocess: Model</text><path d="M477,833.9297 L477,1011.0938 L1191,1011.0938 L1191,863.9297 L1161,833.9297 L477,833.9297 " fill="#FEFFDD" style="stroke:#181818;stroke-width:1.5;"/><path d="M1161,833.9297 L1161,863.9297 L1191,863.9297 L1161,833.9297 " fill="#FEFFDD" style="stroke:#181818;stroke-width:1.5;"/><text fill="#000000" font-family="sans-serif" font-size="39" lengthAdjust="spacing" textLength="105" x="495" y="889.415">Tools:</text><text fill="#000000" font-family="sans-serif" font-size="39" lengthAdjust="spacing" textLength="639" x="507" y="938.4697">- Programming (Python, Fortran etc.)</text><text fill="#000000" font-family="sans-serif" font-size="39" lengthAdjust="spacing" textLength="180" x="507" y="987.5244">- MS DOS</text><rect fill="#F1F1F1" height="105.2813" rx="37.5" ry="37.5" style="stroke:#181818;stroke-width:1.5;" width="219" x="145.5" y="668.6484"/><text fill="#000000" font-family="sans-serif" font-size="36" lengthAdjust="spacing" textLength="159" x="175.5" y="736.0195">Geometry</text><rect fill="#F1F1F1" height="105.2813" rx="37.5" ry="37.5" style="stroke:#181818;stroke-width:1.5;" width="348" x="81" y="869.8711"/><text fill="#000000" font-family="sans-serif" font-size="36" lengthAdjust="spacing" textLength="288" x="111" y="937.2422">Mass Distribution</text><rect fill="#F1F1F1" height="105.2813" rx="37.5" ry="37.5" style="stroke:#181818;stroke-width:1.5;" width="384" x="63" y="1080.1523"/><text fill="#000000" font-family="sans-serif" font-size="36" lengthAdjust="spacing" textLength="324" x="93" y="1147.5234">Damping correction</text><rect fill="none" height="414.0469" style="stroke:#000000;stroke-width:4.5;" width="897" x="105" y="1251.4336"/><path d="M213,1251.4336 L213,1283.2617 L183,1313.2617 L105,1313.2617 " fill="none" style="stroke:#000000;stroke-width:4.5;"/><text fill="#000000" font-family="sans-serif" font-size="42" lengthAdjust="spacing" textLength="78" x="114" y="1298.0332">Run</text><path d="M405,1373.2617 L405,1599.4805 L942,1599.4805 L942,1403.2617 L912,1373.2617 L405,1373.2617 " fill="#FEFFDD" style="stroke:#181818;stroke-width:1.5;"/><path d="M912,1373.2617 L912,1403.2617 L942,1403.2617 L912,1373.2617 " fill="#FEFFDD" style="stroke:#181818;stroke-width:1.5;"/><text fill="#000000" font-family="sans-serif" font-size="39" lengthAdjust="spacing" textLength="105" x="423" y="1428.7471">Tools:</text><text fill="#000000" font-family="sans-serif" font-size="39" lengthAdjust="spacing" textLength="222" x="435" y="1477.8018">- Workbench</text><text fill="#000000" font-family="sans-serif" font-size="39" lengthAdjust="spacing" textLength="462" x="435" y="1526.8564">- AQWA.exe with .dat files</text><text fill="#000000" font-family="sans-serif" font-size="39" lengthAdjust="spacing" textLength="180" x="435" y="1575.9111">- MS DOS</text><rect fill="#F1F1F1" height="105.2813" rx="37.5" ry="37.5" style="stroke:#181818;stroke-width:1.5;" width="240" x="135" y="1433.7305"/><text fill="#000000" font-family="sans-serif" font-size="36" lengthAdjust="spacing" textLength="180" x="165" y="1501.1016">Run AQWA</text><rect fill="none" height="979.5938" style="stroke:#000000;stroke-width:4.5;" width="2166" x="81" y="1695.4805"/><path d="M345,1695.4805 L345,1727.3086 L315,1757.3086 L81,1757.3086 " fill="none" style="stroke:#000000;stroke-width:4.5;"/><text fill="#000000" font-family="sans-serif" font-size="42" lengthAdjust="spacing" textLength="234" x="90" y="1742.0801">Postprocess</text><path d="M1482,2124.6094 L1482,2301.7734 L2187,2301.7734 L2187,2154.6094 L2157,2124.6094 L1482,2124.6094 " fill="#FEFFDD" style="stroke:#181818;stroke-width:1.5;"/><path d="M2157,2124.6094 L2157,2154.6094 L2187,2154.6094 L2157,2124.6094 " fill="#FEFFDD" style="stroke:#181818;stroke-width:1.5;"/><text fill="#000000" font-family="sans-serif" font-size="39" lengthAdjust="spacing" textLength="105" x="1500" y="2180.0947">Tools:</text><text fill="#000000" font-family="sans-serif" font-size="39" lengthAdjust="spacing" textLength="180" x="1512" y="2229.1494">- MS DOS</text><text fill="#000000" font-family="sans-serif" font-size="39" lengthAdjust="spacing" textLength="630" x="1512" y="2278.2041">- Programming (Python) for .LIS files</text><path d="M457.5,1787.3086 L457.5,1986.5273 L397.5,1998.5273 L457.5,2010.5273 L457.5,2209.7461 A0,0 0 0 0 457.5,2209.7461 L1255.5,2209.7461 A0,0 0 0 0 1255.5,2209.7461 L1255.5,1817.3086 L1225.5,1787.3086 L457.5,1787.3086 A0,0 0 0 0 457.5,1787.3086 " fill="#FEFFDD" style="stroke:#181818;stroke-width:1.5;"/><path d="M1225.5,1787.3086 L1225.5,1817.3086 L1255.5,1817.3086 L1225.5,1787.3086 " fill="#FEFFDD" style="stroke:#181818;stroke-width:1.5;"/><text fill="#000000" font-family="sans-serif" font-size="39" lengthAdjust="spacing" textLength="105" x="475.5" y="1842.7939">Tools:</text><text fill="#000000" font-family="sans-serif" font-size="39" lengthAdjust="spacing" textLength="456" x="487.5" y="1891.8486">- AQWAReader (.csv files)</text><text fill="#000000" font-family="sans-serif" font-size="39" lengthAdjust="spacing" textLength="387" x="523.5" y="1940.9033">- Pros: Official support</text><text fill="#000000" font-family="sans-serif" font-size="39" lengthAdjust="spacing" textLength="459" x="523.5" y="1989.958">- Cons: Too many csv files</text><text fill="#000000" font-family="sans-serif" font-size="39" lengthAdjust="spacing" textLength="504" x="487.5" y="2039.0127">- Programming from .LIS files</text><text fill="#000000" font-family="sans-serif" font-size="39" lengthAdjust="spacing" textLength="126" x="523.5" y="2088.0674">- Cons:</text><text fill="#000000" font-family="sans-serif" font-size="39" lengthAdjust="spacing" textLength="639" x="571.5" y="2137.1221">- multiple tables for single set of data</text><text fill="#000000" font-family="sans-serif" font-size="39" lengthAdjust="spacing" textLength="438" x="571.5" y="2186.1768">- file format may change?</text><rect fill="#F1F1F1" height="105.2813" rx="37.5" ry="37.5" style="stroke:#181818;stroke-width:1.5;" width="285" x="112.5" y="1945.8867"/><text fill="#000000" font-family="sans-serif" font-size="36" lengthAdjust="spacing" textLength="225" x="142.5" y="2013.2578">AQWAReader</text><path d="M459,2314.7461 L459,2464.9102 L399,2476.9102 L459,2488.9102 L459,2639.0742 A0,0 0 0 0 459,2639.0742 L1452,2639.0742 A0,0 0 0 0 1452,2639.0742 L1452,2344.7461 L1422,2314.7461 L459,2314.7461 A0,0 0 0 0 459,2314.7461 " fill="#FEFFDD" style="stroke:#181818;stroke-width:1.5;"/><path d="M1422,2314.7461 L1422,2344.7461 L1452,2344.7461 L1422,2314.7461 " fill="#FEFFDD" style="stroke:#181818;stroke-width:1.5;"/><text fill="#000000" font-family="sans-serif" font-size="39" lengthAdjust="spacing" textLength="480" x="477" y="2370.2314">Programming from .LIS files</text><text fill="#000000" font-family="sans-serif" font-size="39" lengthAdjust="spacing" textLength="93" x="489" y="2419.2861">Pros:</text><text fill="#000000" font-family="sans-serif" font-size="39" lengthAdjust="spacing" textLength="870" x="525" y="2468.3408">- Porgramming to get single shot at complete data</text><text fill="#000000" font-family="sans-serif" font-size="39" lengthAdjust="spacing" textLength="102" x="489" y="2517.3955">Cons:</text><text fill="#000000" font-family="sans-serif" font-size="39" lengthAdjust="spacing" textLength="639" x="525" y="2566.4502">- multiple tables for single set of data</text><text fill="#000000" font-family="sans-serif" font-size="39" lengthAdjust="spacing" textLength="438" x="525" y="2615.5049">- file format may change?</text><rect fill="#F1F1F1" height="105.2813" rx="37.5" ry="37.5" style="stroke:#181818;stroke-width:1.5;" width="288" x="111" y="2424.2695"/><text fill="#000000" font-family="sans-serif" font-size="36" lengthAdjust="spacing" textLength="228" x="141" y="2491.6406">Programming</text><ellipse cx="255" cy="2768.0742" fill="none" rx="33" ry="33" style="stroke:#222222;stroke-width:3.0;"/><ellipse cx="255" cy="2768.0742" fill="#222222" rx="18" ry="18" style="stroke:#222222;stroke-width:3.0;"/><line style="stroke:#181818;stroke-width:3.0;" x1="255" x2="255" y1="773.9297" y2="869.8711"/><polygon fill="#181818" points="243,839.8711,255,869.8711,267,839.8711,255,851.8711" style="stroke:#181818;stroke-width:3.0;"/><line style="stroke:#181818;stroke-width:3.0;" x1="255" x2="255" y1="975.1523" y2="1080.1523"/><polygon fill="#181818" points="243,1050.1523,255,1080.1523,267,1050.1523,255,1062.1523" style="stroke:#181818;stroke-width:3.0;"/><line style="stroke:#181818;stroke-width:3.0;" x1="255" x2="255" y1="392.2383" y2="668.6484"/><polygon fill="#181818" points="243,638.6484,255,668.6484,267,638.6484,255,650.6484" style="stroke:#181818;stroke-width:3.0;"/><line style="stroke:#181818;stroke-width:3.0;" x1="255" x2="255" y1="1185.4336" y2="1433.7305"/><polygon fill="#181818" points="243,1403.7305,255,1433.7305,267,1403.7305,255,1415.7305" style="stroke:#181818;stroke-width:3.0;"/><line style="stroke:#181818;stroke-width:3.0;" x1="255" x2="255" y1="2051.168" y2="2424.2695"/><polygon fill="#181818" points="243,2394.2695,255,2424.2695,267,2394.2695,255,2406.2695" style="stroke:#181818;stroke-width:3.0;"/><line style="stroke:#181818;stroke-width:3.0;" x1="255" x2="255" y1="1539.0117" y2="1945.8867"/><polygon fill="#181818" points="243,1915.8867,255,1945.8867,267,1915.8867,255,1927.8867" style="stroke:#181818;stroke-width:3.0;"/><line style="stroke:#181818;stroke-width:3.0;" x1="255" x2="255" y1="2529.5508" y2="2735.0742"/><polygon fill="#181818" points="243,2705.0742,255,2735.0742,267,2705.0742,255,2717.0742" style="stroke:#181818;stroke-width:3.0;"/><text fill="#888888" font-family="sans-serif" font-size="30" lengthAdjust="spacing" textLength="288" x="991.5" y="2829.2168">2024.04.12 at 09:32</text><text fill="#888888" font-family="sans-serif" font-size="30" lengthAdjust="spacing" textLength="231" x="1020" y="2866.9512">aqwa_runs.puml</text><!--SRC=[hLLDRnCn4BtxLumYLKqaI0M8Itf08HKKYIWXhTGB5ySxkskozgp6taA4-E-CDqtQaWqjfRwiCcE_cVVc8y7e2k6D2YlhQytQGRInmlV46VA26fzDY3qol7hRVUUoj6RbCGHutNrXGXKnC6PxRcrM1Mz2f2kNv7GafLedZBzSZM7H-01V_RY9oMV9mwnEdw1KY9gZKY37KqHWMvIn_PdERFaDJRJNE097MLDfXjmAgjDU5-ZGHz0-WzrzCLVhO0FaaWZgi8QcpdJ4SEAqzH6zzWPF65aIQX-Xl4vn3sOmhgesP03hGGTZBVI70Zb88OICsC0rfapVcaAmomexa4KlqICnxyqPQoOZKezWIXbMFVYv2tSWY-sv9Ah2QCyCBs7EL4X9dFK5zEVhM99_0H-88siF6CrmqFLgUW5diujxdljvfpFwYEGmylhqrZJLqYbdDaIsooRnkkCxqwvEQHXYJjLBpjRxQqyBQOndONz5l5gYDsMNCxNW47yWVBUnX5IyJKMVBeYatQAU7g0rfn1lQlmiz3goEbpsjZDX-FdJHGVD3ZA9o0ArZFZf_sTw2oPZOiBr9eMEtjjcBqCmotDhhAuWD7Kj7NlWyaJsnIY5JjE_XXtuGxBaJEwG77-WT_esVjTKqTQoUg9UfcsGD0u2BvQ04IW7wIlz5u1sRzti3ASb_rBx0jyzL9qxJ1vLdaSpRxLN7T8Hxm0YGI7ajZnBadKNPQwT227H4sEu3z4juvFb-rVPjlCO8jLAvIH6LaVf7w3VMyiPJgV3B3jEB8xFpqVEzGRgA8Nmsc5_e1BIpQlV]--></g></svg>