<?xml version="1.0" encoding="us-ascii" standalone="no"?><svg xmlns="http://www.w3.org/2000/svg" xmlns:xlink="http://www.w3.org/1999/xlink" contentStyleType="text/css" height="4080px" preserveAspectRatio="none" style="width:2406px;height:4080px;background:#FFFFFF;" version="1.1" viewBox="0 0 2406 4080" width="2406px" zoomAndPan="magnify"><defs/><g><rect fill="#FF6347" height="135.6563" id="_title" rx="22.5" ry="22.5" style="stroke:#FF0000;stroke-width:6.0;" width="444" x="977.25" y="45"/><text fill="#000000" font-family="sans-serif" font-size="42" font-weight="bold" lengthAdjust="spacing" textLength="246" x="1070.25" y="103.5996">AQWA Runs</text><text fill="#000000" font-family="sans-serif" font-size="42" font-weight="bold" lengthAdjust="spacing" textLength="414" x="992.25" y="156.4277">Automation Options</text><path d="M414,228.6563 L414,356.7656 L1275,356.7656 L1275,258.6563 L1245,228.6563 L414,228.6563 " fill="#FEFFDD" style="stroke:#181818;stroke-width:1.5;"/><path d="M1245,228.6563 L1245,258.6563 L1275,258.6563 L1245,228.6563 " fill="#FEFFDD" style="stroke:#181818;stroke-width:1.5;"/><text fill="#000000" font-family="sans-serif" font-size="39" lengthAdjust="spacing" textLength="693" x="432" y="284.1416">Objective: modular file management and</text><text fill="#000000" font-family="sans-serif" font-size="39" lengthAdjust="spacing" textLength="798" x="432" y="333.1963">analysis for easy updates/maintenance/reruns</text><path d="M385.5,416.7656 L385.5,593.9297 L1303.5,593.9297 L1303.5,446.7656 L1273.5,416.7656 L385.5,416.7656 " fill="#FEFFDD" style="stroke:#181818;stroke-width:1.5;"/><path d="M1273.5,416.7656 L1273.5,446.7656 L1303.5,446.7656 L1273.5,416.7656 " fill="#FEFFDD" style="stroke:#181818;stroke-width:1.5;"/><text fill="#000000" font-family="sans-serif" font-size="39" lengthAdjust="spacing" textLength="855" x="403.5" y="472.251">All files in ascii (.dat) format as much as possible</text><text fill="#000000" font-family="sans-serif" font-size="39" lengthAdjust="spacing" textLength="393" x="403.5" y="521.3057">- Single source of truth</text><text fill="#000000" font-family="sans-serif" font-size="39" lengthAdjust="spacing" textLength="438" x="403.5" y="570.3604">- Helps in  version control</text><ellipse cx="325.5" cy="411.293" fill="#222222" rx="30" ry="30" style="stroke:#222222;stroke-width:3.0;"/><rect fill="none" height="1198.9219" style="stroke:#000000;stroke-width:4.5;" width="1836" x="33" y="653.9297"/><path d="M540,653.9297 L540,685.7578 L510,715.7578 L33,715.7578 " fill="none" style="stroke:#000000;stroke-width:4.5;"/><text fill="#000000" font-family="sans-serif" font-size="42" lengthAdjust="spacing" textLength="477" x="42" y="700.5293">Preprocess: Model Setup</text><path d="M648,745.7578 L648,969.5039 L588,981.5039 L648,993.5039 L648,1217.25 A0,0 0 0 0 648,1217.25 L1839,1217.25 A0,0 0 0 0 1839,1217.25 L1839,775.7578 L1809,745.7578 L648,745.7578 A0,0 0 0 0 648,745.7578 " fill="#FEFFDD" style="stroke:#181818;stroke-width:1.5;"/><path d="M1809,745.7578 L1809,775.7578 L1839,775.7578 L1809,745.7578 " fill="#FEFFDD" style="stroke:#181818;stroke-width:1.5;"/><text fill="#000000" font-family="sans-serif" font-size="39" lengthAdjust="spacing" textLength="93" x="666" y="801.2432">Pros:</text><text fill="#000000" font-family="sans-serif" font-size="39" lengthAdjust="spacing" textLength="381" x="666" y="850.2979">- License independent</text><text fill="#000000" font-family="sans-serif" font-size="39" lengthAdjust="spacing" textLength="861" x="666" y="899.3525">- Easy to wire : Single source of truth data source</text><text fill="#000000" font-family="sans-serif" font-size="39" lengthAdjust="spacing" textLength="966" x="666" y="948.4072">- Programming (Python, Fortran etc.) or MS DOS Batch</text><text fill="#000000" font-family="sans-serif" font-size="39" lengthAdjust="spacing" textLength="102" x="666" y="997.4619">Cons:</text><text fill="#000000" font-family="sans-serif" font-size="39" lengthAdjust="spacing" textLength="546" x="666" y="1046.5166">- ASCII format and picky to run:</text><text fill="#000000" font-family="sans-serif" font-size="39" lengthAdjust="spacing" textLength="1050" x="714" y="1095.5713">i.e. manual edits, additional spaces etc. can cause it not run</text><text fill="#000000" font-family="sans-serif" font-size="39" lengthAdjust="spacing" textLength="1116" x="666" y="1144.626">- Format archiac as opposed to advanced programming formatse</text><text fill="#000000" font-family="sans-serif" font-size="39" lengthAdjust="spacing" textLength="522" x="714" y="1193.6807">- eg yml format (eg: OrcaFlex)</text><rect fill="#F1F1F1" height="105.2813" rx="37.5" ry="37.5" style="stroke:#181818;stroke-width:1.5;" width="525" x="63" y="928.8633"/><text fill="#000000" font-family="sans-serif" font-size="36" lengthAdjust="spacing" textLength="465" x="93" y="996.2344">Generate Decks for .dat files</text><path d="M531,1247.25 L531,1520.0508 L471,1532.0508 L531,1544.0508 L531,1816.8516 A0,0 0 0 0 531,1816.8516 L1752,1816.8516 A0,0 0 0 0 1752,1816.8516 L1752,1277.25 L1722,1247.25 L531,1247.25 A0,0 0 0 0 531,1247.25 " fill="#FEFFDD" style="stroke:#181818;stroke-width:1.5;"/><path d="M1722,1247.25 L1722,1277.25 L1752,1277.25 L1722,1247.25 " fill="#FEFFDD" style="stroke:#181818;stroke-width:1.5;"/><text fill="#000000" font-family="sans-serif" font-size="39" lengthAdjust="spacing" textLength="609" x="561" y="1302.7354">Manual operations to extract &amp; plot</text><text fill="#000000" font-family="sans-serif" font-size="39" lengthAdjust="spacing" textLength="93" x="561" y="1351.79">Pros:</text><text fill="#000000" font-family="sans-serif" font-size="39" lengthAdjust="spacing" textLength="783" x="549" y="1400.8447">- Good for beginners and adding new features</text><text fill="#000000" font-family="sans-serif" font-size="39" lengthAdjust="spacing" textLength="1068" x="549" y="1449.8994">- Parameter Sets to automate across programs and geometry</text><text fill="#000000" font-family="sans-serif" font-size="39" lengthAdjust="spacing" textLength="102" x="561" y="1498.9541">Cons:</text><text fill="#000000" font-family="sans-serif" font-size="39" lengthAdjust="spacing" textLength="381" x="549" y="1548.0088">- License dependency</text><text fill="#000000" font-family="sans-serif" font-size="39" lengthAdjust="spacing" textLength="423" x="549" y="1597.0635">- Limited data definitions</text><text fill="#000000" font-family="sans-serif" font-size="39" lengthAdjust="spacing" textLength="1110" x="597" y="1646.1182">- eg: data given in .csv files can not be parametrized by filename</text><text fill="#000000" font-family="sans-serif" font-size="39" lengthAdjust="spacing" textLength="342" x="549" y="1695.1729">- Manual operations</text><text fill="#000000" font-family="sans-serif" font-size="39" lengthAdjust="spacing" textLength="459" x="549" y="1744.2275">- Slow to open and work in</text><text fill="#000000" font-family="sans-serif" font-size="39" lengthAdjust="spacing" textLength="897" x="549" y="1793.2822">- Difficult to wire : Single source of truth data source</text><rect fill="#F1F1F1" height="105.2813" rx="37.5" ry="37.5" style="stroke:#181818;stroke-width:1.5;" width="291" x="180" y="1479.4102"/><text fill="#000000" font-family="sans-serif" font-size="36" lengthAdjust="spacing" textLength="231" x="210" y="1546.7813">Workbench UI</text><rect fill="none" height="414.0469" style="stroke:#000000;stroke-width:4.5;" width="897" x="175.5" y="1882.8516"/><path d="M283.5,1882.8516 L283.5,1914.6797 L253.5,1944.6797 L175.5,1944.6797 " fill="none" style="stroke:#000000;stroke-width:4.5;"/><text fill="#000000" font-family="sans-serif" font-size="42" lengthAdjust="spacing" textLength="78" x="184.5" y="1929.4512">Run</text><path d="M475.5,2004.6797 L475.5,2230.8984 L1012.5,2230.8984 L1012.5,2034.6797 L982.5,2004.6797 L475.5,2004.6797 " fill="#FEFFDD" style="stroke:#181818;stroke-width:1.5;"/><path d="M982.5,2004.6797 L982.5,2034.6797 L1012.5,2034.6797 L982.5,2004.6797 " fill="#FEFFDD" style="stroke:#181818;stroke-width:1.5;"/><text fill="#000000" font-family="sans-serif" font-size="39" lengthAdjust="spacing" textLength="105" x="493.5" y="2060.165">Tools:</text><text fill="#000000" font-family="sans-serif" font-size="39" lengthAdjust="spacing" textLength="222" x="505.5" y="2109.2197">- Workbench</text><text fill="#000000" font-family="sans-serif" font-size="39" lengthAdjust="spacing" textLength="462" x="505.5" y="2158.2744">- AQWA.exe with .dat files</text><text fill="#000000" font-family="sans-serif" font-size="39" lengthAdjust="spacing" textLength="180" x="505.5" y="2207.3291">- MS DOS</text><rect fill="#F1F1F1" height="105.2813" rx="37.5" ry="37.5" style="stroke:#181818;stroke-width:1.5;" width="240" x="205.5" y="2065.1484"/><text fill="#000000" font-family="sans-serif" font-size="36" lengthAdjust="spacing" textLength="180" x="235.5" y="2132.5195">Run AQWA</text><rect fill="none" height="1518.2578" style="stroke:#000000;stroke-width:4.5;" width="2292" x="82.5" y="2326.8984"/><path d="M346.5,2326.8984 L346.5,2358.7266 L316.5,2388.7266 L82.5,2388.7266 " fill="none" style="stroke:#000000;stroke-width:4.5;"/><text fill="#000000" font-family="sans-serif" font-size="42" lengthAdjust="spacing" textLength="234" x="91.5" y="2373.498">Postprocess</text><path d="M1609.5,3025.3594 L1609.5,3202.5234 L2314.5,3202.5234 L2314.5,3055.3594 L2284.5,3025.3594 L1609.5,3025.3594 " fill="#FEFFDD" style="stroke:#181818;stroke-width:1.5;"/><path d="M2284.5,3025.3594 L2284.5,3055.3594 L2314.5,3055.3594 L2284.5,3025.3594 " fill="#FEFFDD" style="stroke:#181818;stroke-width:1.5;"/><text fill="#000000" font-family="sans-serif" font-size="39" lengthAdjust="spacing" textLength="105" x="1627.5" y="3080.8447">Tools:</text><text fill="#000000" font-family="sans-serif" font-size="39" lengthAdjust="spacing" textLength="180" x="1639.5" y="3129.8994">- MS DOS</text><text fill="#000000" font-family="sans-serif" font-size="39" lengthAdjust="spacing" textLength="630" x="1639.5" y="3178.9541">- Programming (Python) for .LIS files</text><path d="M528,2418.7266 L528,2519.8359 L468,2531.8359 L528,2543.8359 L528,2644.9453 A0,0 0 0 0 528,2644.9453 L1098,2644.9453 A0,0 0 0 0 1098,2644.9453 L1098,2448.7266 L1068,2418.7266 L528,2418.7266 A0,0 0 0 0 528,2418.7266 " fill="#FEFFDD" style="stroke:#181818;stroke-width:1.5;"/><path d="M1068,2418.7266 L1068,2448.7266 L1098,2448.7266 L1068,2418.7266 " fill="#FEFFDD" style="stroke:#181818;stroke-width:1.5;"/><text fill="#000000" font-family="sans-serif" font-size="39" lengthAdjust="spacing" textLength="105" x="546" y="2474.2119">Tools:</text><text fill="#000000" font-family="sans-serif" font-size="39" lengthAdjust="spacing" textLength="456" x="558" y="2523.2666">- AQWAReader (.csv files)</text><text fill="#000000" font-family="sans-serif" font-size="39" lengthAdjust="spacing" textLength="387" x="594" y="2572.3213">- Pros: Official support</text><text fill="#000000" font-family="sans-serif" font-size="39" lengthAdjust="spacing" textLength="459" x="594" y="2621.376">- Cons: Too many csv files</text><rect fill="#F1F1F1" height="105.2813" rx="37.5" ry="37.5" style="stroke:#181818;stroke-width:1.5;" width="285" x="183" y="2479.1953"/><text fill="#000000" font-family="sans-serif" font-size="36" lengthAdjust="spacing" textLength="225" x="213" y="2546.5664">AQWAReader</text><path d="M598.5,2674.9453 L598.5,2874.1641 L538.5,2886.1641 L598.5,2898.1641 L598.5,3097.3828 A0,0 0 0 0 598.5,3097.3828 L1579.5,3097.3828 A0,0 0 0 0 1579.5,3097.3828 L1579.5,2704.9453 L1549.5,2674.9453 L598.5,2674.9453 A0,0 0 0 0 598.5,2674.9453 " fill="#FEFFDD" style="stroke:#181818;stroke-width:1.5;"/><path d="M1549.5,2674.9453 L1549.5,2704.9453 L1579.5,2704.9453 L1549.5,2674.9453 " fill="#FEFFDD" style="stroke:#181818;stroke-width:1.5;"/><text fill="#000000" font-family="sans-serif" font-size="39" lengthAdjust="spacing" textLength="633" x="616.5" y="2730.4307">Reading/Programming from .LIS files</text><text fill="#000000" font-family="sans-serif" font-size="39" lengthAdjust="spacing" textLength="93" x="616.5" y="2779.4854">Pros:</text><text fill="#000000" font-family="sans-serif" font-size="39" lengthAdjust="spacing" textLength="870" x="652.5" y="2828.54">- Programming to get single shot at complete data</text><text fill="#000000" font-family="sans-serif" font-size="39" lengthAdjust="spacing" textLength="102" x="616.5" y="2877.5947">Cons:</text><text fill="#000000" font-family="sans-serif" font-size="39" lengthAdjust="spacing" textLength="639" x="652.5" y="2926.6494">- multiple tables for single set of data</text><text fill="#000000" font-family="sans-serif" font-size="39" lengthAdjust="spacing" textLength="396" x="700.5" y="2975.7041">- Headers are repeated</text><text fill="#000000" font-family="sans-serif" font-size="39" lengthAdjust="spacing" textLength="717" x="700.5" y="3024.7588">- White Space between sets of each data</text><text fill="#000000" font-family="sans-serif" font-size="39" lengthAdjust="spacing" textLength="438" x="652.5" y="3073.8135">- file format may change?</text><rect fill="#F1F1F1" height="105.2813" rx="37.5" ry="37.5" style="stroke:#181818;stroke-width:1.5;" width="426" x="112.5" y="2833.5234"/><text fill="#000000" font-family="sans-serif" font-size="36" lengthAdjust="spacing" textLength="366" x="142.5" y="2900.8945">AQWA output file (.LIS)</text><path d="M583.5,3215.4961 L583.5,3243.0234 L523.5,3255.0234 L583.5,3267.0234 L583.5,3294.5508 A0,0 0 0 0 583.5,3294.5508 L1255.5,3294.5508 A0,0 0 0 0 1255.5,3294.5508 L1255.5,3245.4961 L1225.5,3215.4961 L583.5,3215.4961 A0,0 0 0 0 583.5,3215.4961 " fill="#FEFFDD" style="stroke:#181818;stroke-width:1.5;"/><path d="M1225.5,3215.4961 L1225.5,3245.4961 L1255.5,3245.4961 L1225.5,3215.4961 " fill="#FEFFDD" style="stroke:#181818;stroke-width:1.5;"/><text fill="#000000" font-family="sans-serif" font-size="39" lengthAdjust="spacing" textLength="609" x="601.5" y="3270.9814">Manual operations to extract &amp; plot</text><rect fill="#F1F1F1" height="105.2813" rx="37.5" ry="37.5" style="stroke:#181818;stroke-width:1.5;" width="396" x="127.5" y="3202.3828"/><text fill="#000000" font-family="sans-serif" font-size="36" lengthAdjust="spacing" textLength="336" x="157.5" y="3269.7539">AQL - Excel Interface</text><path d="M541.5,3337.6641 L541.5,3561.4102 L481.5,3573.4102 L541.5,3585.4102 L541.5,3809.1563 A0,0 0 0 0 541.5,3809.1563 L1408.5,3809.1563 A0,0 0 0 0 1408.5,3809.1563 L1408.5,3367.6641 L1378.5,3337.6641 L541.5,3337.6641 A0,0 0 0 0 541.5,3337.6641 " fill="#FEFFDD" style="stroke:#181818;stroke-width:1.5;"/><path d="M1378.5,3337.6641 L1378.5,3367.6641 L1408.5,3367.6641 L1378.5,3337.6641 " fill="#FEFFDD" style="stroke:#181818;stroke-width:1.5;"/><text fill="#000000" font-family="sans-serif" font-size="39" lengthAdjust="spacing" textLength="609" x="559.5" y="3393.1494">Manual operations to extract &amp; plot</text><text fill="#000000" font-family="sans-serif" font-size="39" lengthAdjust="spacing" textLength="93" x="559.5" y="3442.2041">Pros:</text><text fill="#000000" font-family="sans-serif" font-size="39" lengthAdjust="spacing" textLength="666" x="595.5" y="3491.2588">- Good/killer graphics and 3D plots etc</text><text fill="#000000" font-family="sans-serif" font-size="39" lengthAdjust="spacing" textLength="102" x="559.5" y="3540.3135">Cons:</text><text fill="#000000" font-family="sans-serif" font-size="39" lengthAdjust="spacing" textLength="150" x="595.5" y="3589.3682">- Limited</text><text fill="#000000" font-family="sans-serif" font-size="39" lengthAdjust="spacing" textLength="396" x="643.5" y="3638.4229">- Headers are repeated</text><text fill="#000000" font-family="sans-serif" font-size="39" lengthAdjust="spacing" textLength="717" x="643.5" y="3687.4775">- White Space between sets of each data</text><text fill="#000000" font-family="sans-serif" font-size="39" lengthAdjust="spacing" textLength="438" x="595.5" y="3736.5322">- file format may change?</text><text fill="#000000" font-family="sans-serif" font-size="39" lengthAdjust="spacing" textLength="768" x="595.5" y="3785.5869">- Many manual operations to extract outputs</text><rect fill="#F1F1F1" height="105.2813" rx="37.5" ry="37.5" style="stroke:#181818;stroke-width:1.5;" width="312" x="169.5" y="3520.7695"/><text fill="#000000" font-family="sans-serif" font-size="36" lengthAdjust="spacing" textLength="252" x="199.5" y="3588.1406">Workbench - UI</text><ellipse cx="325.5" cy="3938.1563" fill="none" rx="33" ry="33" style="stroke:#222222;stroke-width:3.0;"/><ellipse cx="325.5" cy="3938.1563" fill="#222222" rx="18" ry="18" style="stroke:#222222;stroke-width:3.0;"/><line style="stroke:#181818;stroke-width:3.0;" x1="325.5" x2="325.5" y1="1034.1445" y2="1479.4102"/><polygon fill="#181818" points="313.5,1449.4102,325.5,1479.4102,337.5,1449.4102,325.5,1461.4102" style="stroke:#181818;stroke-width:3.0;"/><line style="stroke:#181818;stroke-width:3.0;" x1="325.5" x2="325.5" y1="441.293" y2="928.8633"/><polygon fill="#181818" points="313.5,898.8633,325.5,928.8633,337.5,898.8633,325.5,910.8633" style="stroke:#181818;stroke-width:3.0;"/><line style="stroke:#181818;stroke-width:3.0;" x1="325.5" x2="325.5" y1="1584.6914" y2="2065.1484"/><polygon fill="#181818" points="313.5,2035.1484,325.5,2065.1484,337.5,2035.1484,325.5,2047.1484" style="stroke:#181818;stroke-width:3.0;"/><line style="stroke:#181818;stroke-width:3.0;" x1="325.5" x2="325.5" y1="2584.4766" y2="2833.5234"/><polygon fill="#181818" points="313.5,2803.5234,325.5,2833.5234,337.5,2803.5234,325.5,2815.5234" style="stroke:#181818;stroke-width:3.0;"/><line style="stroke:#181818;stroke-width:3.0;" x1="325.5" x2="325.5" y1="2938.8047" y2="3202.3828"/><polygon fill="#181818" points="313.5,3172.3828,325.5,3202.3828,337.5,3172.3828,325.5,3184.3828" style="stroke:#181818;stroke-width:3.0;"/><line style="stroke:#181818;stroke-width:3.0;" x1="325.5" x2="325.5" y1="3307.6641" y2="3520.7695"/><polygon fill="#181818" points="313.5,3490.7695,325.5,3520.7695,337.5,3490.7695,325.5,3502.7695" style="stroke:#181818;stroke-width:3.0;"/><line style="stroke:#181818;stroke-width:3.0;" x1="325.5" x2="325.5" y1="2170.4297" y2="2479.1953"/><polygon fill="#181818" points="313.5,2449.1953,325.5,2479.1953,337.5,2449.1953,325.5,2461.1953" style="stroke:#181818;stroke-width:3.0;"/><line style="stroke:#181818;stroke-width:3.0;" x1="325.5" x2="325.5" y1="3626.0508" y2="3905.1563"/><polygon fill="#181818" points="313.5,3875.1563,325.5,3905.1563,337.5,3875.1563,325.5,3887.1563" style="stroke:#181818;stroke-width:3.0;"/><text fill="#888888" font-family="sans-serif" font-size="30" lengthAdjust="spacing" textLength="288" x="1055.25" y="3999.2988">2024.04.16 at 10:45</text><text fill="#888888" font-family="sans-serif" font-size="30" lengthAdjust="spacing" textLength="231" x="1083.75" y="4037.0332">aqwa_runs.puml</text><!--SRC=[pLPDR-Cs4BthLmm2R3S6rWxQHI_EeSWcpSP0WgHn5hdiXQR6CckA54WgYLlql_UDP3knBM-2Vg6w69Q6CszcthnXrCeoVSpYtBXA1LLICido9nzo3hU-Tlcf3uu3VVzZjytTpEYvunZfXsw3KszzeC3vpcUbvqLeGuZ9dIzLybdMVAIJN-vFwBPsaRwwaph9D-CTNLVo4xCi9XLIbX4UvnDJCCKiDN_bkPxyoZgP1nvIwVFQga1J0w-bSghWabqYvN9Qs-ErNKGJQGeWhEA2wYfNYUDHgOnBx9JJV1Gu051pY75Qukv5S69j4pAISQIYDeOE1t3Pan181k-ehFLCVYiVevbONX_kqzYu0dYZhuDcybDAeKwp5mONRAl6DprmY58QxLqAtdR0Gz5HLB4vk0bS1Q_Hho5T-PmjZJdLrG7zdgsT3pypEexiwOprlAs9G6_pELxRxSbSdflWut3ZJPykZMON6PXphW0GJTYo-5aAdpmzci0qt5C30XArVBbr7b4BqAl4EJgyMQIPTn_et8SKb2DEUj0Zf78rfhFhCNrI2TNVy70APcsZFXcVZaRhdg6i5VZUe0GNXfldvJ437WZDQcM9SvFY1r9vtbGVRsAbKFi62sc0qggMYYIfepZS2dw-31lqp2WjLF4LoCAvn5VvWx0IY5watGA5pnrWVUA25gLTvNB8nP2kWrRdbfzw6-QRx6aeSU_3VC8E5VioUXC3wAgjWQ-4IZApWfcVq0kTw3kghDywqCMPpzxd3VycN1W7LiQc1r9H9EluaQQiKXquRbD1T8OJX0lyRaAhLaIOb4QWkAfQwx1W3-kms4JKnOSLYrSSreiTWz8aTAMXQSvJuqmhMLqD6RPc1PJAoJ0FT7nOoeRGGrWnOQhQP8Bv3NudYyR0uSrMv9sARtqVM_yebO21Qx9-H5CHTSlip4odHjSs_VLHt2JG7pig15qNnNaBZV3SUM-t-h24kcPbrqVP80D-OkG0gCy2rcNRQi9hGm3OZTVZFMdT-9YMwlgFfDU1Qh_IzLgTlXoDEzBiI4OIkMM53Ntyzv4-EyEMMtEujskwGe_rSoqqCoAADKGjf3t6pH1AQ57L1QsTloK_ydMgwhRl08RQzDwMhEI2sXwzhFCq-79VVJl4QxTH6AU24yNbBCqmtE2azcLbeLJjCBqcGAtN4jDfS8gIceXMIETNRX41yodEzXJqekaJT0-JZTi0z1DtisxJ-ncaZCQojA13wP4X757q515OwLbtc7vRx-MUAHMQDbEku9zURzcbt0AUDAub8zowmXI1_vrjyyqLr_ylbzppeZkQ6sinGI1CXLjrkva-dZLUcZl36zcnsa3_x_wlTzPYTLtghc8xml7R-oKcNsNPrEDToDx9pVtmO85dS7KroFFtCcVlBow6PNdGozwjrkTXBnD7orD_0W00]--></g></svg>