<?xml version="1.0" encoding="UTF-8" standalone="no"?><svg xmlns="http://www.w3.org/2000/svg" xmlns:xlink="http://www.w3.org/1999/xlink" contentStyleType="text/css" height="893px" preserveAspectRatio="none" style="width:507px;height:893px;background:#FFFFFF;" version="1.1" viewBox="0 0 507 893" width="507px" zoomAndPan="magnify"><defs/><g><rect fill="#FF6347" height="27.6094" id="_title" rx="7.5" ry="7.5" style="stroke:#FF0000;stroke-width:2.0;" width="168" x="168" y="15"/><text fill="#000000" font-family="sans-serif" font-size="14" font-weight="bold" lengthAdjust="spacing" textLength="158" x="173" y="34.5332">Lifecycle Digital Model</text><path d="M129,48.6094 L129,57.7852 L109,61.7852 L129,65.7852 L129,74.9609 A0,0 0 0 0 129,74.9609 L411,74.9609 A0,0 0 0 0 411,74.9609 L411,58.6094 L401,48.6094 L129,48.6094 A0,0 0 0 0 129,48.6094 " fill="#FEFFDD" style="stroke:#181818;stroke-width:0.5;"/><path d="M401,48.6094 L401,58.6094 L411,58.6094 L401,48.6094 " fill="#FEFFDD" style="stroke:#181818;stroke-width:0.5;"/><text fill="#000000" font-family="sans-serif" font-size="13" lengthAdjust="spacing" textLength="261" x="135" y="67.1045">Objective: Digital model for lifecycle analysis.</text><ellipse cx="99" cy="61.7852" fill="#222222" rx="10" ry="10" style="stroke:#222222;stroke-width:1.0;"/><rect fill="none" height="150.7188" style="stroke:#000000;stroke-width:1.5;" width="415" x="13" y="84.9609"/><path d="M88,84.9609 L88,95.5703 L78,105.5703 L13,105.5703 " fill="none" style="stroke:#000000;stroke-width:1.5;"/><text fill="#000000" font-family="sans-serif" font-size="14" lengthAdjust="spacing" textLength="65" x="16" y="100.4941">Input Data</text><path d="M195,115.5703 L195,165.625 L175,169.625 L195,173.625 L195,223.6797 A0,0 0 0 0 195,223.6797 L418,223.6797 A0,0 0 0 0 418,223.6797 L418,125.5703 L408,115.5703 L195,115.5703 A0,0 0 0 0 195,115.5703 " fill="#FEFFDD" style="stroke:#181818;stroke-width:0.5;"/><path d="M408,115.5703 L408,125.5703 L418,125.5703 L408,115.5703 " fill="#FEFFDD" style="stroke:#181818;stroke-width:0.5;"/><text fill="#000000" font-family="sans-serif" font-size="13" lengthAdjust="spacing" textLength="122" x="201" y="134.0654">physical dimensions,</text><text fill="#000000" font-family="sans-serif" font-size="13" lengthAdjust="spacing" textLength="202" x="201" y="150.417">interface(s), structural system data</text><text fill="#000000" font-family="sans-serif" font-size="13" lengthAdjust="spacing" textLength="195" x="201" y="166.7686">fabrication or manufacturing steps</text><text fill="#000000" font-family="sans-serif" font-size="13" lengthAdjust="spacing" textLength="112" x="201" y="183.1201">comissioning steps</text><text fill="#000000" font-family="sans-serif" font-size="13" lengthAdjust="spacing" textLength="102" x="201" y="199.4717">Operational steps</text><text fill="#000000" font-family="sans-serif" font-size="13" lengthAdjust="spacing" textLength="126" x="201" y="215.8232">decomissioning steps</text><rect fill="#F1F1F1" height="35.0938" rx="12.5" ry="12.5" style="stroke:#181818;stroke-width:0.5;" width="152" x="23" y="152.0781"/><text fill="#000000" font-family="sans-serif" font-size="12" lengthAdjust="spacing" textLength="132" x="33" y="174.5352">Prepare yaml Data (yml)</text><rect fill="none" height="260.5938" style="stroke:#000000;stroke-width:1.5;" width="438" x="23" y="245.6797"/><path d="M135,245.6797 L135,256.2891 L125,266.2891 L23,266.2891 " fill="none" style="stroke:#000000;stroke-width:1.5;"/><text fill="#000000" font-family="sans-serif" font-size="14" lengthAdjust="spacing" textLength="102" x="26" y="261.2129">Analytical model</text><path d="M165,282.4844 L165,299.8359 L145,303.8359 L165,307.8359 L165,325.1875 A0,0 0 0 0 165,325.1875 L327,325.1875 A0,0 0 0 0 327,325.1875 L327,292.4844 L317,282.4844 L165,282.4844 A0,0 0 0 0 165,282.4844 " fill="#FEFFDD" style="stroke:#181818;stroke-width:0.5;"/><path d="M317,282.4844 L317,292.4844 L327,292.4844 L317,282.4844 " fill="#FEFFDD" style="stroke:#181818;stroke-width:0.5;"/><text fill="#000000" font-family="sans-serif" font-size="13" lengthAdjust="spacing" textLength="141" x="171" y="300.9795">For visual representation</text><text fill="#000000" font-family="sans-serif" font-size="13" lengthAdjust="spacing" textLength="127" x="171" y="317.3311">i.e. CAD, Blender etc.</text><rect fill="#F1F1F1" height="35.0938" rx="12.5" ry="12.5" style="stroke:#181818;stroke-width:0.5;" width="92" x="53" y="286.2891"/><text fill="#000000" font-family="sans-serif" font-size="12" lengthAdjust="spacing" textLength="72" x="63" y="308.7461">Visual model</text><path d="M173.5,341.3828 L173.5,358.7344 L153.5,362.7344 L173.5,366.7344 L173.5,384.0859 A0,0 0 0 0 173.5,384.0859 L337.5,384.0859 A0,0 0 0 0 337.5,384.0859 L337.5,351.3828 L327.5,341.3828 L173.5,341.3828 A0,0 0 0 0 173.5,341.3828 " fill="#FEFFDD" style="stroke:#181818;stroke-width:0.5;"/><path d="M327.5,341.3828 L327.5,351.3828 L337.5,351.3828 L327.5,341.3828 " fill="#FEFFDD" style="stroke:#181818;stroke-width:0.5;"/><text fill="#000000" font-family="sans-serif" font-size="13" lengthAdjust="spacing" textLength="143" x="179.5" y="359.8779">Analytical representation</text><text fill="#000000" font-family="sans-serif" font-size="13" lengthAdjust="spacing" textLength="104" x="179.5" y="376.2295">i.e. equations etc.</text><rect fill="#F1F1F1" height="35.0938" rx="12.5" ry="12.5" style="stroke:#181818;stroke-width:0.5;" width="109" x="44.5" y="345.1875"/><text fill="#000000" font-family="sans-serif" font-size="12" lengthAdjust="spacing" textLength="89" x="54.5" y="367.6445">Analytical model</text><path d="M174.5,408.457 L174.5,417.6328 L154.5,421.6328 L174.5,425.6328 L174.5,434.8086 A0,0 0 0 0 174.5,434.8086 L382.5,434.8086 A0,0 0 0 0 382.5,434.8086 L382.5,418.457 L372.5,408.457 L174.5,408.457 A0,0 0 0 0 174.5,408.457 " fill="#FEFFDD" style="stroke:#181818;stroke-width:0.5;"/><path d="M372.5,408.457 L372.5,418.457 L382.5,418.457 L372.5,408.457 " fill="#FEFFDD" style="stroke:#181818;stroke-width:0.5;"/><text fill="#000000" font-family="sans-serif" font-size="13" lengthAdjust="spacing" textLength="187" x="180.5" y="426.9521">Theoretical strength calculations</text><rect fill="#F1F1F1" height="35.0938" rx="12.5" ry="12.5" style="stroke:#181818;stroke-width:0.5;" width="111" x="43.5" y="404.0859"/><text fill="#000000" font-family="sans-serif" font-size="12" lengthAdjust="spacing" textLength="91" x="53.5" y="426.543">Strength models</text><path d="M185,463.5508 L185,472.7266 L165,476.7266 L185,480.7266 L185,489.9023 A0,0 0 0 0 185,489.9023 L451,489.9023 A0,0 0 0 0 451,489.9023 L451,473.5508 L441,463.5508 L185,463.5508 A0,0 0 0 0 185,463.5508 " fill="#FEFFDD" style="stroke:#181818;stroke-width:0.5;"/><path d="M441,463.5508 L441,473.5508 L451,473.5508 L441,463.5508 " fill="#FEFFDD" style="stroke:#181818;stroke-width:0.5;"/><text fill="#000000" font-family="sans-serif" font-size="13" lengthAdjust="spacing" textLength="245" x="191" y="482.0459">fitness for service (FFS) assessments etc.</text><rect fill="#F1F1F1" height="35.0938" rx="12.5" ry="12.5" style="stroke:#181818;stroke-width:0.5;" width="132" x="33" y="459.1797"/><text fill="#000000" font-family="sans-serif" font-size="12" lengthAdjust="spacing" textLength="112" x="43" y="481.6367">Integrity/FFS models</text><rect fill="none" height="101.6641" style="stroke:#000000;stroke-width:1.5;" width="485" x="11" y="516.2734"/><path d="M161,516.2734 L161,526.8828 L151,536.8828 L11,536.8828 " fill="none" style="stroke:#000000;stroke-width:1.5;"/><text fill="#000000" font-family="sans-serif" font-size="14" lengthAdjust="spacing" textLength="140" x="14" y="531.8066">Computational models</text><path d="M197,546.8828 L197,572.4102 L177,576.4102 L197,580.4102 L197,605.9375 A0,0 0 0 0 197,605.9375 L486,605.9375 A0,0 0 0 0 486,605.9375 L486,556.8828 L476,546.8828 L197,546.8828 A0,0 0 0 0 197,546.8828 " fill="#FEFFDD" style="stroke:#181818;stroke-width:0.5;"/><path d="M476,546.8828 L476,556.8828 L486,556.8828 L476,546.8828 " fill="#FEFFDD" style="stroke:#181818;stroke-width:0.5;"/><text fill="#000000" font-family="sans-serif" font-size="13" lengthAdjust="spacing" textLength="187" x="203" y="565.3779">Finite element, finite volume etc.</text><text fill="#000000" font-family="sans-serif" font-size="13" lengthAdjust="spacing" textLength="157" x="203" y="581.7295">i.e. models for open source</text><text fill="#000000" font-family="sans-serif" font-size="13" lengthAdjust="spacing" textLength="268" x="203" y="598.0811">or proprietary package (ANSYS, Orcaflex etc.)</text><rect fill="#F1F1F1" height="35.0938" rx="12.5" ry="12.5" style="stroke:#181818;stroke-width:0.5;" width="156" x="21" y="558.8633"/><text fill="#000000" font-family="sans-serif" font-size="12" lengthAdjust="spacing" textLength="136" x="31" y="581.3203">Finite or discrete models</text><rect fill="none" height="91.5078" style="stroke:#000000;stroke-width:1.5;" width="372" x="32.5" y="627.9375"/><path d="M94.5,627.9375 L94.5,638.5469 L84.5,648.5469 L32.5,648.5469 " fill="none" style="stroke:#000000;stroke-width:1.5;"/><text fill="#000000" font-family="sans-serif" font-size="14" lengthAdjust="spacing" textLength="52" x="35.5" y="643.4707">Analysis</text><path d="M175.5,664.7422 L175.5,682.0938 L155.5,686.0938 L175.5,690.0938 L175.5,707.4453 A0,0 0 0 0 175.5,707.4453 L394.5,707.4453 A0,0 0 0 0 394.5,707.4453 L394.5,674.7422 L384.5,664.7422 L175.5,664.7422 A0,0 0 0 0 175.5,664.7422 " fill="#FEFFDD" style="stroke:#181818;stroke-width:0.5;"/><path d="M384.5,664.7422 L384.5,674.7422 L394.5,674.7422 L384.5,664.7422 " fill="#FEFFDD" style="stroke:#181818;stroke-width:0.5;"/><text fill="#000000" font-family="sans-serif" font-size="13" lengthAdjust="spacing" textLength="115" x="181.5" y="683.2373">operational analysis</text><text fill="#000000" font-family="sans-serif" font-size="13" lengthAdjust="spacing" textLength="198" x="181.5" y="699.5889">i.e. strength, fatigue, dynamic etc.</text><rect fill="#F1F1F1" height="35.0938" rx="12.5" ry="12.5" style="stroke:#181818;stroke-width:0.5;" width="113" x="42.5" y="668.5469"/><text fill="#000000" font-family="sans-serif" font-size="12" lengthAdjust="spacing" textLength="93" x="52.5" y="691.0039">Perform analysis</text><rect fill="none" height="84.7031" style="stroke:#000000;stroke-width:1.5;" width="310" x="32.5" y="729.4453"/><path d="M127.5,729.4453 L127.5,740.0547 L117.5,750.0547 L32.5,750.0547 " fill="none" style="stroke:#000000;stroke-width:1.5;"/><text fill="#000000" font-family="sans-serif" font-size="14" lengthAdjust="spacing" textLength="85" x="35.5" y="744.9785">Visualizations</text><path d="M175.5,771.4258 L175.5,780.6016 L155.5,784.6016 L175.5,788.6016 L175.5,797.7773 A0,0 0 0 0 175.5,797.7773 L332.5,797.7773 A0,0 0 0 0 332.5,797.7773 L332.5,781.4258 L322.5,771.4258 L175.5,771.4258 A0,0 0 0 0 175.5,771.4258 " fill="#FEFFDD" style="stroke:#181818;stroke-width:0.5;"/><path d="M322.5,771.4258 L322.5,781.4258 L332.5,781.4258 L322.5,771.4258 " fill="#FEFFDD" style="stroke:#181818;stroke-width:0.5;"/><text fill="#000000" font-family="sans-serif" font-size="13" lengthAdjust="spacing" textLength="136" x="181.5" y="789.9209">animations, results etc.</text><rect fill="#F1F1F1" height="35.0938" rx="12.5" ry="12.5" style="stroke:#181818;stroke-width:0.5;" width="113" x="42.5" y="767.0547"/><text fill="#000000" font-family="sans-serif" font-size="12" lengthAdjust="spacing" textLength="93" x="52.5" y="789.5117">Generate visuals</text><ellipse cx="99" cy="845.1484" fill="none" rx="11" ry="11" style="stroke:#222222;stroke-width:1.0;"/><ellipse cx="99" cy="845.1484" fill="#222222" rx="6" ry="6" style="stroke:#111111;stroke-width:1.0;"/><line style="stroke:#181818;stroke-width:1.0;" x1="99" x2="99" y1="71.7852" y2="152.0781"/><polygon fill="#181818" points="95,142.0781,99,152.0781,103,142.0781,99,146.0781" style="stroke:#181818;stroke-width:1.0;"/><line style="stroke:#181818;stroke-width:1.0;" x1="99" x2="99" y1="321.3828" y2="345.1875"/><polygon fill="#181818" points="95,335.1875,99,345.1875,103,335.1875,99,339.1875" style="stroke:#181818;stroke-width:1.0;"/><line style="stroke:#181818;stroke-width:1.0;" x1="99" x2="99" y1="380.2813" y2="404.0859"/><polygon fill="#181818" points="95,394.0859,99,404.0859,103,394.0859,99,398.0859" style="stroke:#181818;stroke-width:1.0;"/><line style="stroke:#181818;stroke-width:1.0;" x1="99" x2="99" y1="439.1797" y2="459.1797"/><polygon fill="#181818" points="95,449.1797,99,459.1797,103,449.1797,99,453.1797" style="stroke:#181818;stroke-width:1.0;"/><line style="stroke:#181818;stroke-width:1.0;" x1="99" x2="99" y1="187.1719" y2="286.2891"/><polygon fill="#181818" points="95,276.2891,99,286.2891,103,276.2891,99,280.2891" style="stroke:#181818;stroke-width:1.0;"/><line style="stroke:#181818;stroke-width:1.0;" x1="99" x2="99" y1="494.2734" y2="558.8633"/><polygon fill="#181818" points="95,548.8633,99,558.8633,103,548.8633,99,552.8633" style="stroke:#181818;stroke-width:1.0;"/><line style="stroke:#181818;stroke-width:1.0;" x1="99" x2="99" y1="593.957" y2="668.5469"/><polygon fill="#181818" points="95,658.5469,99,668.5469,103,658.5469,99,662.5469" style="stroke:#181818;stroke-width:1.0;"/><line style="stroke:#181818;stroke-width:1.0;" x1="99" x2="99" y1="703.6406" y2="767.0547"/><polygon fill="#181818" points="95,757.0547,99,767.0547,103,757.0547,99,761.0547" style="stroke:#181818;stroke-width:1.0;"/><line style="stroke:#181818;stroke-width:1.0;" x1="99" x2="99" y1="802.1484" y2="834.1484"/><polygon fill="#181818" points="95,824.1484,99,834.1484,103,824.1484,99,828.1484" style="stroke:#181818;stroke-width:1.0;"/><text fill="#888888" font-family="sans-serif" font-size="10" lengthAdjust="spacing" textLength="96" x="204" y="865.5293">2023.01.20 at 18:07</text><text fill="#888888" font-family="sans-serif" font-size="10" lengthAdjust="spacing" textLength="153" x="175.5" y="878.1074">digital_model_architecure.puml</text><!--SRC=[bLHBRzim3BxhLmW1YYQ0aM43TkbEROgi1TPrM8e1EweoxMZHmoFbODwm_pvQJencJbDNfpZazo15aJR6LmgLaz542rS1Sy2leVRv8g07b6_V2pgMyx0sUkE1IBuxdh08Dg14o0TXfJSbTX9joaDmAWOXKb1-CWNeHlElQrEQgAoy2pbO8IWgZ498FZv4a6ZATKoVxRb__04wcYrSz3ZNucJ12hRdL5xPXWpD4n1ydhWwLhR85apmSdBhgphAQnNLHFuHlSZ55mJE0jaePrDOJXjdPn_wZ6VSxK-rPd7DtdBZm1DhKJP8CZu25ah3b6QPf8YrZZKoY1gAu6JEkWDGeHwHcPDzhjWfNpC5uumlcGCg6a1qS8PQ3y-dt5U0YRDLFvgHmmiqXpt-EsZrPNiZCJKbNLZRyBxVtmpL-y3e9Y-v_cq7vEj28F0n5J7iz1pcSd5vdSahopvvsY7g-GdxoTJ_ZaSRUm8SOmn-rYbAeroj8e8luxhpHADDFQmX87IkQC_17xgsdVfBmhSyhYMQsBnPBbUlLIzCJ3kaVQK4k3KQv9HvPb8HSO1VINon_k5GBOBZ1xoVtCxJmM0jZJTiYbLpGvhhXzSwtp60XTPZnfMaxssmjOEXu_vMEvbKSAZ0ImerQXZaShZ2KA41NdiDrwOtgkJUN7vUVLzbyXwrAYpyIaApuxqvyTvu0nwqumild82kNu-Zkn2UB8Wz-7ZT-zdYJZ6Wh26JUUELC_h4zHuleTiAvdStdmU5V0JV6eBT0XXVYFB6TNmPFqwgxScns_cY62eXYi1_eJZZlGpJISDdVdStp_DpgQ8ylxcvS6uo4sU5uHsZ74ndekNPeVu1]--></g></svg>