**ABCDEFGHIJKLMNOPQRSTUVWXYZabcdefghijklmnopqrstuvwxyz**************************
**PARASOLID !"#$%&'()*+,-./:;<=>?@[\]^_`{|}~0123456789**************************
**PART1;
MC=unknown;
MC_MODEL=unknown;
MC_ID=unknown;
OS=Windows;
OS_RELEASE=unknown;
FRU=Parasolid Version 26.0, build 224, 4/9/2014;
APPL=ANSYS DesignModeler;
SITE=Canonsburg PA;
USER=unknown;
FORMAT=text;
GUISE=transmit;
KEY=3_SYS 2_Geometry;
FILE=3_SYS 2_Geometry.x_t;
DATE=10/25/16 02:09:07;
**PART2;
SCH=SCH_2600224_25001;
USFLD_SIZE=0;
**PART3;
**END_OF_HEADER*****************************************************************
T51 : TRANSMIT FILE created by modeller version 260022417 SCH_2500000_250010 74
 4 1 4 0 0 2 3 4 5 12 2 634 6 7 0 0 0 0 1e3 1e-8 0 0 3 1 0 1 1 8 9 10 11 12 13 1
4 0 0 0 0 0 0 12 3 487 15 16 0 0 0 0 1e3 1e-8 0 2 4 1 0 1 1 17 18 19 0 20 21 0 0
 0 0 0 0 0 12 4 119 22 23 0 0 0 0 1e3 1e-8 0 3 5 1 0 1 1 24 25 26 27 28 29 30 0
 0 0 0 0 0 12 5 128 31 32 0 0 0 0 1e3 1e-8 0 4 0 1 0 1 1 33 34 35 36 37 38 39 0
 0 0 0 0 0 81 1 31 128 40 5 41 0 0 0 42 70 32 0 4 T5 0 0 3 20 1 43 43 13 33 6 0
 5 0 44 0 0 45 0 50 34 107 0 5 46 0 47 +0 0 0 0 0 -1 -1 0 0 32 35 105 0 5 48 0 4
9 +0 0 -3 0 0 -1 0 1 0 .5349 .5319 29 36 92 0 39 50 0 .3634510147749205 .3634510
14774915 0 19 37 4 0 5 45 0 51 V0 16 38 29 52 ?53 0 54 55 0 0 5 18 39 41 56 57 0
 58 36 ?5 81 2 56 42 59 39 0 0 60 61 62 63 17 57 0 64 65 65 39 66 67 0 68 -18 58
 37 60 66 39 0 50 ?5 81 2 60 38 59 58 0 0 52 56 69 70 17 66 0 71 68 68 58 57 67
 0 65 +29 50 86 0 58 0 36 -.3634510147749215 .363451014774914 0 15 71 53 0 66 44
 72 17 68 0 71 66 66 39 65 73 0 0 -16 67 9 74 ?66 73 0 75 0 0 5 17 65 0 64 57 57
 58 68 73 0 0 +15 64 60 0 65 76 0 16 73 15 77 ?65 78 67 79 0 0 5 81 2 77 16 59 7
3 0 0 0 80 81 82 16 78 17 80 ?83 54 73 84 0 0 5 137 79 85 0 73 55 75 0 -85 86 0
 ?38 55 84 0 38 87 79 0 +85 88 89 90 90 38 75 96 0 67 79 48 0 +85 34 91 92 92 60
 85 97 0 76 88 46 93 +UF46 .019396 ?134 86 0 0 0 0 0 0 +94 95 136 94 1 2 2 2 1 F
FF1 96 97 98 135 95 1 0 45 4 96 0 3 6.28318530717959 3 127 2 97 2 2 128 2 98 0 6
.28318530717959 14 76 57 61 ?99 44 100 33 85 +0 0 99 44 51 50 88 81 0 101 102 85
 103 +0 0 -.6 0 0 1 1 0 0 67 46 106 0 5 85 34 104 +35 0 0 1 .528916825574874 141
 93 55 105 106 85 141 105 75 106 93 85 141 106 79 93 105 85 141 104 85 104 104 4
6 14 101 71 107 ?0 99 108 33 88 -0 0 0 99 51 67 102 80 0 99 109 88 0 +87 0 0 1 .
528916825574874 141 103 55 103 103 88 14 99 61 110 ?101 76 111 33 102 -0 0 101 7
6 51 50 109 79 0 44 0 102 0 +0 0 0 0 0 -1 -1 0 0 32 87 83 0 5 84 55 112 +0 0 -3
 0 0 -1 0 1 0 .5349 .5319 32 84 82 0 78 0 87 0 -0 0 -.6 0 0 -1 0 1 0 .5349 .5319
 141 112 102 112 112 87 14 44 51 113 ?76 0 71 33 109 -0 0 76 0 51 81 2 113 125 5
9 44 0 0 41 114 115 116 13 51 5 0 0 0 0 0 0 37 44 80 2 59 117 118 9000 0 0 0 0 3
 6 0 0 0 FFTFTFTTTFFFTF3 1 81 2 41 124 59 5 119 31 107 113 120 0 81 2 114 126 59
 54 0 0 113 74 121 122 84 11 115 F1332.Cap1b82 1 116 1334 16 54 19 114 ?123 38 7
8 48 0 0 5 81 2 74 127 59 67 0 0 114 0 124 125 84 30 121 F1332.Cap1b..F1332.F129
4.E131382 1 122 1344 84 35 124 F1332.Cap1b..F1332.F1294.E1313.Wall82 1 125 1346
 17 123 0 126 123 123 0 127 54 0 0 +32 48 98 0 54 75 35 0 +0 0 0 0 0 -1 0 1 0 .5
349 .5319 15 126 64 0 123 99 0 17 127 0 72 127 127 0 123 54 0 0 -15 72 67 0 127
 44 0 81 1 119 3 128 5 0 41 0 0 129 81 2 107 72 59 101 0 0 110 41 130 131 84 11
 120 F2106.P40.B81 2 110 62 59 99 0 0 61 107 132 133 84 5 130 F204082 1 131 2043
 81 2 61 58 59 76 0 0 56 110 134 135 84 17 132 F1332.F1294.E131382 1 133 1335 84
 22 134 F1332.F1294.E1313.Wall82 1 135 1336 80 1 128 136 137 9000 0 0 0 0 3 6 0
 0 0 FFTFFFFFTFFFFF1 82 1 129 42 79 13 137 BodyAttrDef.479 18 118 AnsysParaAttrD
ef.315 111 63 0 83 99 126 17 83 0 111 83 83 0 138 78 0 0 +17 138 0 139 138 138 0
 83 78 0 0 -15 139 74 0 138 101 0 15 108 73 0 53 101 139 17 53 0 108 53 53 0 140
 38 0 0 +17 140 0 100 140 140 0 53 38 0 0 -15 100 59 0 140 76 64 40 20 91 0 1 20
 .0293512821638845 .3393800508844875 ??627502411072853e-31 -.515504 0 -.16889883
40613305 -.486705844000365 0 -.3187513031327495 -.403669343772353 0 -.4331524494
68119 -.27553640728249 0 -.49935864676997 -.1160062632858786 0 -.509325171901396
 .0573267320777912 0 -.46128588997328 .224635798526952 0 -.3605585378130375 .366
3542137048575 0 -.2190473714708625 .466046345927524 0 -.0533812335415587 .512700
064699466 0 .117603517184478 .501748321958346 0 .2751285348377405 .4349250685507
155 0 .402114632934942 .3196084542357705 0 .484475948674097 .168141223909782 0 .
512495602825174 -.002950957522675275 0 .482316880287501 -.174308203571803 0 .397
031022426586 -.325975165467542 0 .266631470573235 -.440246791921681 0 .106532343
2823392 -.504243953243814 0 627502411072853e-31 -.515504 0 41 1 92 H627502411072
853e-31 -.515504 0 40 40 89 0 1 40 .00703136055826605 .166267901789183 ??0 .5155
04 -.6 -.04222470851533265 .513751410287191 -.6 -.125722278048356 .4997526158832
77 -.6 -.205753682884653 .472136294256436 -.6 -.280125889698777 .431685568550464
 -.6 -.3468182134041835 .379538033565719 -.6 -.4040377553633845 .317145126971207
5 -.6 -.450263964461419 .2462239557988885 -.6 -.48428220238376 .1687049735195935
 -.6 -.505207304842348 .0866782072299173 -.6 -.512498721210124 .0023397217310619
6 -.6 -.505968850727027 -.0820610374179732 -.6 -.485785761362609 -.1642732161212
345 -.6 -.452470739641544 -.2420964986147205 -.6 -.406890273009747 -.31343370196
41005 -.6 -.3502413168148545 -.37634425118066 -.6 -.284028243295507 -.4290979502
03492 -.6 -.2100298747907335 -.47022742641508 -.6 -.1302555603706636 -.498576604
88485 -.6 -.0468903373868643 -.51334184660523 -.6 .0377290939504634 -.5141052167
36765 -.6 .1213080462451884 -.50085519953826 -.6 .2015453879789885 -.47396924135
5602 -.6 .276243696229954 -.434209311768101 -.6 .343374286166123 -.3826930900183
195 -.6 .401133076987835 -.3208539445485585 -.6 .447985657751523 -.2503931947890
325 -.6 .482701362156675 -.1732280626938195 -.6 .504377292093679 -.0914380539183
632 -.6 .512453849261429 -.00721150952576895 -.6 .506723399332563 .0772069768468
444 -.6 .487333285204296 .1595684314595005 -.6 .454783683138399 .237671305042007
 -.6 .4099199527233635 .3094138921307965 -.6 .3539183737375405 .3728476343944465
 -.6 .2882636878577715 .426230780980145 -.6 .214716837481401 .46808085230013 -.6
 .135271815493089 .497223327405996 -.6 .0688649956180061 .510829029952485 -.6 82
6408062035051e-32 .515504 -.6 41 1 90 H826408062035051e-32 .515504 -.6 81 2 80 1
8 59 78 0 0 77 52 141 142 81 2 52 30 59 38 0 0 80 60 143 144 84 24 141 F1332.F12
94.E1313..F204082 1 142 2046 84 29 143 F1332.F1294.E1313.Wall..F204082 1 144 204
5 84 35 81 F1332.Cap1b..F1332.F1294.E1313.Wall82 1 82 1350 84 10 69 F1332.Vtx782
 1 70 1361 84 10 62 F1332.Vtx682 1 63 1362 19 45 1 0 5 0 37 33 S0 141 49 46 49 4
9 35 141 47 75 47 47 34 74 20 43 3 0 0 74 119 31 0 0 0 0 0 0 0 0 0 0 0 0 0 0 0 0
 0 80 1 40 145 146 8017 0 0 0 0 0 0 0 0 0 TTTTTTTTTTTTTF3 84 12 42 S_Ellipse_aY7
9 13 146 SDL/TYSA_NAME81 1 22 119 40 4 147 0 0 0 148 70 23 0 4 T4 0 0 3 20 1 149
 149 13 24 6 0 4 0 150 0 0 151 0 67 25 115 0 4 152 0 153 +26 0 0 1 .528916825574
874 32 26 114 0 4 154 0 155 +0 0 -3 0 0 -1 0 1 0 .5349 .5319 29 27 107 0 156 157
 0 -.3763744233106225 .3779654130709995 -3 19 28 4 0 4 151 0 158 V0 16 29 36 159
 ?160 0 161 154 0 0 4 18 30 51 162 163 0 164 157 ?4 81 2 162 52 59 30 0 0 165 16
6 167 168 17 163 0 169 170 171 30 172 173 0 174 +18 164 49 165 175 30 176 177 ?4
 29 157 106 0 30 178 27 .376374423310623 -.3779654130709995 -3 29 178 105 0 179
 180 157 -.376374423310623 -.3779654130709995 -3 18 179 41 181 170 182 183 178 ?
4 29 180 104 0 176 184 178 .376374423310623 .3779654130709995 -3 18 176 47 185 1
86 164 156 180 ?4 29 184 103 0 182 187 180 -.376374423310623 -.3779654130709995
 -2.9746 18 182 43 188 189 156 179 184 ?4 29 187 102 0 190 177 184 .376374423310
623 -.3779654130709995 -2.9746 18 190 37 191 192 183 0 187 ?4 29 177 101 0 164 1
93 187 .376374423310623 .3779654130709995 -2.9746 29 193 100 0 183 0 177 -.37637
44233106225 .3779654130709995 -2.9746 18 183 39 194 195 179 190 193 ?4 81 2 194
 40 59 183 0 0 191 181 196 197 17 195 0 198 199 199 183 200 201 0 202 +15 198 68
 0 199 203 0 17 199 0 198 195 195 182 202 204 0 200 -17 200 0 205 206 207 182 19
5 201 0 0 -16 201 16 208 ?195 209 210 211 212 212 4 17 202 0 169 213 189 183 199
 204 0 207 +15 169 75 0 170 214 0 17 213 0 169 186 202 156 207 215 0 216 +17 189
 0 169 202 170 182 206 217 0 199 +16 204 24 218 ?202 215 217 219 220 220 4 17 20
7 0 205 200 221 183 213 215 0 0 -15 205 78 0 222 223 224 17 221 0 205 207 222 15
6 225 209 0 0 -16 215 26 226 ?213 227 204 228 0 0 4 81 2 226 27 59 215 0 0 218 2
29 230 231 16 227 28 229 ?175 220 215 232 0 0 4 30 228 94 0 215 211 232 0 --.376
374423310846 .377965413071221 -3 0 0 1 32 211 93 0 201 233 228 0 +0 0 -2.9746 0
 0 -1 0 1 0 .5349 .5319 30 232 95 0 227 228 234 0 +.3763744233108455 .3779654130
71221 -3 0 0 1 30 234 96 0 173 232 235 0 -.3763744233108455 -.377965413071221 -3
 0 0 1 16 173 32 236 ?163 161 220 234 0 0 4 30 235 97 0 217 234 237 0 +-.3763744
233108455 -.377965413071221 -3 0 0 1 16 217 22 238 ?189 204 239 235 0 0 4 38 237
 98 0 161 235 240 0 +241 242 243 244 244 16 161 34 245 ?246 29 173 237 0 0 4 31
 240 99 0 239 237 247 0 -0 0 -3 0 0 -1 -1 0 0 .5334 60 241 108 0 248 249 250 251
 +UF25 .019396 ?50 242 87 0 252 0 253 254 +0 0 -2.9746 0 0 -1 -1 0 0 40 40 243 0
 1 40 .00751872634595841 .1718787440456495 ??0 .515504 -2.9746 .0844494170306653
 .50845739686226 -2.9746 .1665359019679765 .487528968663289 -2.9746 .24403047899
68205 .453314709115924 -2.9746 .314815526626077 .406782245918524 -2.9746 .376975
450668791 .349235182817888 -2.9746 .4288468914280795 .282268091056469 -2.9746 .4
69057789196258 .2077157029300365 -2.9746 .496555808205914 .1275994220672734 -2.9
746 .510627485072062 .0440733690972465 -2.9746 .510909775224738 -.04062888648898
11 -2.9746 .497395452256454 -.1242467268318794 -2.9746 .47043320222092 -.2045445
036742645 -2.9746 .430722432474036 -.2793639013368905 -2.9746 .3793019877687095
 -.346677150036947 -2.9746 .317531340361232 -.4046409453930675 -2.9746 .24706258
17159975 -.451649970977539 -2.9746 .169801825603993 -.48638785284012 -2.9746 .08
78594737025334 -.50787246582551 -2.9746 .00356848480751191 -.515491503711795 -2.
9746 -.0808175837142219 -.509054216014014 -2.9746 -.162975366343542 -.4887448297
52964 -2.9746 -.2406476013369475 -.455140730667538 -2.9746 -.311715092375424 -.4
09190812753438 -2.9746 -.37425737072862 -.352180491599219 -2.9746 -.426603160658
0205 -.285687259949627 -2.9746 -.467369773145904 -.211530320531084 -2.9746 -.495
491872265334 -.1317174225109214 -2.9746 -.510240942496308 -.0483911540371989 -2.
9746 -.511237117348868 .0362241147594763 -2.9746 -.498454835932183 .119874416097
274 -2.9746 -.472223201398644 .2003279541249285 -2.9746 -.4332211047626365 .2754
271813773895 -2.9746 -.382466352124625 .343141707003924 -2.9746 -.32129739663043
25 .4016219374103285 -2.9746 -.2513460143265 .449252410496646 -2.9746 -.17449951
25720735 .484702724346083 -2.9746 -.0899449987235751 .50750297683948 -2.9746 -.0
45327599850515 .513483842181105 -2.9746 0 .515504 -2.9746 41 1 244 H0 .515504 -2
.9746 14 252 80 255 ?248 223 256 24 242 -257 203 248 223 158 50 253 88 0 258 242
 259 0 +0 0 -3.0254 0 0 -1 -1 0 0 141 254 237 254 254 242 14 258 57 260 ?257 150
 261 24 253 +0 0 257 150 158 51 259 89 0 214 253 249 0 -0 0 -3.0254 0 0 1 .5334
 1 0 0 14 214 72 262 ?223 263 264 24 259 -0 0 223 263 158 50 249 90 0 265 259 24
1 0 +0 0 -3 0 0 -1 -1 0 0 14 265 63 266 ?203 257 267 24 249 +263 263 203 257 158
 81 2 266 64 59 265 0 0 268 269 270 271 14 203 66 269 ?263 265 198 24 242 -252 2
57 263 265 158 14 257 60 268 ?265 258 272 24 242 -203 252 265 258 158 15 267 65
 0 273 265 0 14 263 69 274 ?214 203 275 24 249 +265 265 214 203 158 13 158 5 0 0
 0 0 0 0 28 150 14 150 53 166 ?258 0 276 24 152 +0 0 258 0 158 81 2 166 54 59 15
0 0 0 162 260 277 278 15 276 55 0 279 150 280 50 152 111 0 150 250 25 281 +0 0 -
.6 0 0 1 1 0 0 67 250 109 0 223 241 152 0 +247 0 0 1 .528916825574874 141 281 15
4 281 281 152 38 154 113 0 29 282 26 0 +241 152 283 284 284 32 282 112 0 285 247
 154 0 -0 0 -.6 0 0 -1 0 1 0 .5349 .5319 40 40 283 0 1 40 .00703136055826605 .16
6267901789183 ??0 .515504 -.6 -.04222470851533265 .513751410287191 -.6 -.1257222
78048356 .499752615883277 -.6 -.205753682884653 .472136294256436 -.6 -.280125889
698777 .431685568550464 -.6 -.3468182134041835 .379538033565719 -.6 -.4040377553
633845 .3171451269712075 -.6 -.450263964461419 .2462239557988885 -.6 -.484282202
38376 .1687049735195935 -.6 -.505207304842348 .0866782072299173 -.6 -.5124987212
10124 .00233972173106196 -.6 -.505968850727027 -.0820610374179732 -.6 -.48578576
1362609 -.1642732161212345 -.6 -.452470739641544 -.2420964986147205 -.6 -.406890
273009747 -.3134337019641005 -.6 -.3502413168148545 -.37634425118066 -.6 -.28402
8243295507 -.429097950203492 -.6 -.2100298747907335 -.47022742641508 -.6 -.13025
55603706636 -.49857660488485 -.6 -.0468903373868643 -.51334184660523 -.6 .037729
0939504634 -.514105216736765 -.6 .1213080462451884 -.50085519953826 -.6 .2015453
879789885 -.473969241355602 -.6 .276243696229954 -.434209311768101 -.6 .34337428
6166123 -.3826930900183195 -.6 .401133076987835 -.3208539445485585 -.6 .44798565
7751523 -.2503931947890325 -.6 .482701362156675 -.1732280626938195 -.6 .50437729
2093679 -.0914380539183632 -.6 .512453849261429 -.00721150952576895 -.6 .5067233
99332563 .0772069768468444 -.6 .487333285204296 .1595684314595005 -.6 .454783683
138399 .237671305042007 -.6 .4099199527233635 .3094138921307965 -.6 .35391837373
75405 .3728476343944465 -.6 .2882636878577715 .426230780980145 -.6 .214716837481
401 .46808085230013 -.6 .135271815493089 .497223327405996 -.6 .0688649956180061
 .510829029952485 -.6 826408062035051e-32 .515504 -.6 41 1 284 H826408062035051e
-32 .515504 -.6 16 285 7 286 ?287 288 0 282 0 0 4 32 247 110 0 209 240 282 289 +
0 0 -3 0 0 -1 0 1 0 .5349 .5319 16 209 18 290 ?225 239 201 247 291 291 4 141 289
 250 289 289 247 81 2 290 19 59 209 0 0 208 292 293 294 17 225 0 275 216 216 176
 221 209 0 0 +16 239 20 292 ?216 217 209 240 210 210 4 16 291 12 295 ?273 210 21
2 247 209 209 4 81 2 295 13 59 291 0 0 296 297 298 299 17 273 0 267 174 174 179
 300 291 0 0 +16 210 14 297 ?174 201 291 240 239 239 4 16 212 10 296 ?192 291 28
8 211 201 201 4 81 2 296 11 59 212 0 0 301 295 302 303 17 192 0 272 304 304 190
 305 212 0 171 +16 288 8 301 ?306 212 285 233 0 0 4 81 2 301 9 59 288 0 0 0 296
 307 308 17 306 0 261 306 306 0 309 288 0 0 +31 233 92 0 288 219 211 0 +0 0 -3.0
254 0 0 -1 -1 0 0 .5334 31 219 91 0 204 0 233 0 +0 0 -2.9746 0 0 -1 -1 0 0 .5334
 15 261 59 0 306 258 0 17 309 0 264 309 309 0 306 288 0 0 -15 264 74 0 309 214 1
69 84 30 307 F1437.Cap1t..F1437.F1431.E143282 1 308 1444 15 272 62 0 304 257 0 1
7 304 0 272 192 192 164 171 220 0 305 -17 305 0 205 222 172 164 192 212 0 0 -17
 171 0 169 163 175 190 304 220 0 172 +17 175 0 169 171 186 164 222 227 0 304 +16
 220 30 310 ?171 173 227 219 204 204 4 17 172 0 205 305 300 190 163 173 0 0 -17
 300 0 205 172 206 30 273 291 0 0 -17 206 0 205 300 200 179 189 217 0 273 -81 2
 310 31 59 220 0 0 229 236 311 312 81 2 229 29 59 227 0 0 226 310 313 314 81 2 2
36 33 59 173 0 0 310 245 315 316 84 30 311 F1437.Cap2t..F1437.F1431.E143282 1 31
2 1924 81 2 245 35 59 161 0 0 236 191 317 318 84 36 315 F1332.F1294.E1313..F1437
.F1431.E143282 1 316 1933 81 2 191 38 59 190 0 0 245 194 319 320 84 35 317 F1332
.F1294.E1313.Wall..F1437.Cap2t82 1 318 1926 84 10 319 F1437.Vtx782 1 320 1937 84
 36 313 F1332.F1294.E1313..F1437.F1431.E143282 1 314 1932 17 186 0 169 175 213 1
76 216 239 0 222 -17 222 0 205 221 305 176 175 227 0 225 -17 216 0 275 225 225 1
56 186 239 0 221 +15 275 71 0 225 263 0 18 156 45 321 213 176 182 27 ?4 81 2 321
 46 59 156 0 0 188 185 322 323 81 2 188 44 59 182 0 0 181 321 324 325 81 2 185 4
8 59 176 0 0 321 165 326 327 84 10 322 F1437.Vtx282 1 323 1454 81 2 165 50 59 16
4 0 0 185 162 328 329 84 10 326 F1437.Vtx382 1 327 1455 84 10 328 F1437.Vtx682 1
 329 1936 81 2 181 42 59 179 0 0 194 188 330 331 84 10 324 F1437.Vtx582 1 325 19
38 84 10 330 F1437.Vtx482 1 331 1453 84 30 302 F1332.F1294.E1313..F1437.Cap2t82
 1 303 1928 81 2 297 15 59 210 0 0 295 208 332 333 17 174 0 267 273 273 30 170 2
10 0 300 +17 170 0 169 189 163 179 174 210 0 206 -81 2 208 17 59 201 0 0 297 290
 334 335 84 30 332 F1437.F1431.E1432..F1332.Cap1t82 1 333 1930 84 30 334 F1332.F
1294.E1313..F1437.Cap2t82 1 335 1927 84 30 298 F1332.Cap1t..F1332.F1294.E131382
 1 299 1343 81 2 292 21 59 239 0 0 290 238 336 337 81 2 238 23 59 217 0 0 292 21
8 338 339 84 30 336 F1332.Cap1t..F1437.F1431.E143282 1 337 1929 81 2 218 25 59 2
04 0 0 238 226 340 341 84 36 338 F1332.F1294.E1313..F1437.F1431.E143282 1 339 19
34 84 30 340 F1437.Cap2t..F1437.F1431.E143282 1 341 1925 84 30 293 F1332.Cap1t..
F1332.F1294.E131382 1 294 1449 81 2 286 117 59 285 0 0 147 159 342 343 17 287 0
 280 287 287 0 344 285 0 0 +15 280 56 0 287 150 0 17 344 0 224 344 344 0 287 285
 0 0 -15 224 79 0 344 223 0 14 223 76 345 ?252 214 205 24 250 -0 0 252 214 158 8
1 2 345 77 59 223 0 0 262 255 346 347 81 2 262 73 59 214 0 0 274 345 348 349 81
 2 255 81 59 252 0 0 345 350 351 352 84 17 346 F1332.F1294.E131382 1 347 1775 81
 2 350 84 59 248 0 0 255 147 353 354 84 11 351 F1437.Cap2t82 1 352 1921 14 248 8
3 350 ?0 252 355 24 241 +0 0 0 252 158 81 2 147 116 59 4 356 22 350 286 357 0 84
 22 353 F1332.F1294.E1313.Wall82 1 354 1774 81 1 356 3 128 4 0 147 0 0 358 84 11
 357 F2040.P40.B82 1 358 41 15 355 85 0 246 248 359 17 246 0 355 246 246 0 360 1
61 0 0 +15 359 86 0 160 248 0 17 160 0 359 160 160 0 279 29 0 0 +17 279 0 276 27
9 279 0 160 29 0 0 -17 360 0 256 360 360 0 246 161 0 0 -15 256 82 0 360 252 0 81
 2 274 70 59 263 0 0 269 262 361 362 84 17 348 F1437.F1431.E143282 1 349 1440 81
 2 269 67 59 203 0 0 266 274 363 364 84 11 361 F1332.Cap1t82 1 362 1333 84 11 36
3 F1437.Cap2t82 1 364 1922 81 2 159 118 59 29 0 0 286 0 365 366 84 24 342 F1332.
F1294.E1313..F204082 1 343 2047 84 29 365 F1332.F1294.E1313.Wall..F204082 1 366
 2048 81 2 260 58 59 258 0 0 166 268 367 368 84 5 277 F204082 1 278 2044 81 2 26
8 61 59 257 0 0 260 266 369 370 84 11 367 F1437.Cap1t82 1 368 1438 84 11 369 F14
37.Cap2t82 1 370 1923 84 11 270 F1332.Cap1t82 1 271 1443 141 251 237 371 371 241
 141 371 154 251 251 241 84 36 230 F1332.F1294.E1313..F1437.F1431.E143282 1 231
 1931 84 10 196 F1437.Vtx882 1 197 1935 84 10 167 F1437.Vtx182 1 168 1452 19 151
 1 0 4 0 28 24 S0 141 155 25 155 155 26 141 153 241 153 153 25 74 20 149 3 0 0 1
59 356 22 0 0 0 0 0 0 0 0 0 0 0 0 0 0 0 0 0 84 10 148 Ellipse_aY81 1 15 487 40 3
 372 0 0 0 373 70 16 0 4 T3 0 0 3 20 1 374 374 13 17 442 0 3 0 375 0 0 376 0 67
 18 216 0 3 377 0 378 +379 0 0 -1 .528916825574874 32 19 217 0 3 379 0 380 +0 0
 3 0 0 1 1 0 0 .5349 .5319 19 20 444 0 3 376 0 381 V0 16 21 27 382 ?383 0 384 38
5 0 0 3 81 2 382 485 59 21 0 0 386 387 388 389 17 383 0 390 383 383 0 391 21 0 0
 +16 384 26 392 ?393 21 394 395 0 0 3 32 385 180 0 21 0 396 0 +0 0 0 0 0 1 1 0 0
 .5349 .5319 38 396 181 0 394 385 395 0 +397 398 399 400 400 16 394 8 387 ?401 3
84 402 396 0 0 3 32 395 213 0 384 396 403 0 +0 0 .6 0 0 1 1 0 0 .5349 .5319 60 3
97 210 0 404 398 405 406 +UF18 .019396 ?50 398 168 0 3 407 397 408 +0 0 0 0 0 1
 1 0 0 40 20 399 0 1 20 .0293512821638845 .3393800508844875 ??-.515504 627502411
072853e-31 0 -.486705844000365 -.1688988340613305 0 -.403669343772353 -.31875130
31327495 0 -.27553640728249 -.433152449468119 0 -.1160062632858786 -.49935864676
997 0 .0573267320777912 -.509325171901396 0 .224635798526952 -.46128588997328 0
 .3663542137048575 -.3605585378130375 0 .466046345927524 -.2190473714708625 0 .5
12700064699466 -.0533812335415587 0 .501748321958346 .117603517184478 0 .4349250
685507155 .2751285348377405 0 .3196084542357705 .402114632934942 0 .168141223909
782 .484475948674097 0 -.002950957522675275 .512495602825174 0 -.174308203571803
 .482316880287501 0 -.325975165467542 .397031022426586 0 -.440246791921681 .2666
31470573235 0 -.504243953243814 .1065323432823392 0 -.515504 627502411072853e-31
 0 41 1 400 H-.515504 627502411072853e-31 0 50 407 167 0 375 0 398 0 +0 0 0 0 0
 1 1 0 0 141 408 396 408 408 398 14 375 105 386 ?404 0 409 17 407 -0 0 404 0 381
 81 2 386 484 59 375 0 0 392 382 410 411 14 404 101 412 ?413 375 414 17 397 +0 0
 413 375 381 15 409 107 0 401 375 415 13 381 443 0 0 0 0 0 0 20 375 17 401 0 409
 401 401 0 416 394 0 0 +15 415 144 0 391 375 0 17 391 0 415 391 391 0 383 21 0 0
 -17 416 0 414 416 416 0 401 394 0 0 -15 414 103 0 416 404 417 15 417 104 0 418
 404 0 17 418 0 417 418 418 0 419 402 0 0 +17 419 0 420 419 419 0 418 402 0 0 -1
6 402 7 421 ?418 394 0 403 0 0 3 81 2 421 219 59 402 0 0 372 392 422 423 38 403
 214 0 402 395 379 0 +397 405 424 425 425 32 379 215 0 3 403 19 426 +0 0 3 0 0 1
 1 0 0 .5349 .5319 50 405 211 0 413 397 377 427 +0 0 .6 0 0 1 1 0 0 40 40 424 0
 1 40 .00751872634595841 .1718787440456495 ??.515504 0 .6 .50845739686226 .08444
94170306653 .6 .487528968663289 .1665359019679765 .6 .453314709115924 .244030478
9968205 .6 .406782245918524 .314815526626077 .6 .349235182817888 .37697545066879
1 .6 .282268091056469 .4288468914280795 .6 .2077157029300365 .469057789196258 .6
 .1275994220672734 .496555808205914 .6 .0440733690972465 .510627485072062 .6 -.0
406288864889811 .510909775224738 .6 -.1242467268318794 .497395452256454 .6 -.204
5445036742645 .47043320222092 .6 -.2793639013368905 .430722432474036 .6 -.346677
150036947 .3793019877687095 .6 -.4046409453930675 .317531340361232 .6 -.45164997
0977539 .2470625817159975 .6 -.48638785284012 .169801825603993 .6 -.507872465825
51 .0878594737025334 .6 -.515491503711795 .00356848480751191 .6 -.50905421601401
4 -.0808175837142219 .6 -.488744829752964 -.162975366343542 .6 -.455140730667538
 -.2406476013369475 .6 -.409190812753438 -.311715092375424 .6 -.352180491599219
 -.37425737072862 .6 -.285687259949627 -.4266031606580205 .6 -.211530320531084 -
.467369773145904 .6 -.1317174225109214 -.495491872265334 .6 -.0483911540371989 -
.510240942496308 .6 .0362241147594763 -.511237117348868 .6 .119874416097274 -.49
8454835932183 .6 .2003279541249285 -.472223201398644 .6 .2754271813773895 -.4332
211047626365 .6 .343141707003924 -.382466352124625 .6 .4016219374103285 -.321297
3966304325 .6 .449252410496646 -.2513460143265 .6 .484702724346083 -.17449951257
20735 .6 .50750297683948 -.0899449987235751 .6 .513483842181105 -.04532759985051
5 .6 .515504 0 .6 41 1 425 H.515504 0 .6 14 413 124 428 ?429 404 420 17 405 +0 0
 429 404 381 67 377 212 0 429 405 18 0 +19 0 0 -1 .528916825574874 141 427 403 4
27 427 405 14 429 128 430 ?0 413 390 17 377 -0 0 0 413 381 81 2 430 129 59 429 0
 0 428 372 431 432 15 390 130 0 383 429 433 15 433 131 0 434 429 0 17 434 0 433
 434 434 0 393 384 0 0 -17 393 0 435 393 393 0 434 384 0 0 +15 435 127 0 393 413
 0 81 2 428 125 59 413 0 0 412 430 436 437 81 2 372 218 59 3 438 15 430 421 439
 0 84 15 431 F1320.F49.E127282 1 432 1749 81 1 438 3 128 3 0 372 0 0 440 84 11 4
39 F2030.P27.B82 1 440 40 81 2 412 102 59 404 0 0 0 428 441 442 84 5 436 F203082
 1 437 2034 84 20 441 F1320.F49.E1272.Wall82 1 442 1750 15 420 126 0 419 413 435
 141 426 18 426 426 379 81 2 392 220 59 384 0 0 421 386 443 444 84 27 422 F1320.
F49.E1272.Wall..F203082 1 423 2037 84 22 443 F1320.F49.E1272..F203082 1 444 2038
 84 11 410 F1320.Cap1b82 1 411 1324 141 406 403 445 445 397 141 445 396 406 406
 397 81 2 387 486 59 394 0 0 382 0 446 447 84 33 446 F1320.Cap1b..F1320.F49.E127
2.Wall82 1 447 1330 84 28 388 F1320.Cap1b..F1320.F49.E127282 1 389 1328 19 376 1
 0 3 0 20 17 S0 141 380 377 380 380 19 141 378 397 378 378 18 74 20 374 3 0 0 38
7 438 15 0 0 0 0 0 0 0 0 0 0 0 0 0 0 0 0 0 84 12 373 S_Ellipse_aX81 1 6 634 40 2
 448 0 0 0 449 70 7 0 4 T2 0 0 3 20 1 450 450 13 8 622 0 2 0 451 0 0 452 0 67 9
 29 0 453 454 0 0 +455 0 0 -1 .528916825574874 38 10 563 0 456 457 0 0 +458 459
 460 461 461 29 11 240 0 14 462 0 .377965412883763 -.376374423497596 3 19 12 624
 0 2 452 0 463 V0 16 13 572 464 ?465 0 456 466 0 0 2 18 14 237 467 468 0 469 11
 ?2 81 2 467 403 59 14 0 0 470 471 472 473 17 468 0 474 475 476 14 477 478 0 479
 +18 469 229 471 480 14 481 462 ?2 81 2 471 404 59 469 0 0 467 482 483 484 17 48
0 0 474 476 475 469 485 486 0 487 +18 481 306 488 489 469 490 491 ?2 29 462 232
 0 469 491 11 -.377965412883763 .376374423497596 3 29 491 360 0 481 492 462 .377
965412883763 -.376374423497596 2.9746 29 492 361 0 490 493 491 -.377965412883763
 -.3763744234975965 2.9746 18 490 301 494 495 481 496 492 ?2 29 493 362 0 496 49
7 492 -.377965412883763 .376374423497596 2.9746 18 496 304 498 499 490 500 493 ?
2 29 497 363 0 500 501 493 .377965412883763 .3763744234975965 2.9746 18 500 303
 482 502 496 503 497 ?2 29 501 365 0 503 504 497 -.3779654128840675 -.3763744234
978995 3 18 503 305 470 477 500 505 501 ?2 29 504 367 0 505 0 501 .3779654128840
675 .3763744234978995 3 18 505 307 506 485 503 0 504 ?2 81 2 506 401 59 505 0 0
 498 470 507 508 17 485 0 509 502 487 505 480 486 0 510 -15 509 313 0 487 511 0
 17 502 0 509 512 485 500 510 513 0 514 -17 487 0 509 485 512 469 515 516 0 517
 -16 486 285 518 ?480 519 478 520 478 478 2 17 510 0 521 522 523 505 502 513 0 4
75 +15 521 262 0 517 453 0 17 522 0 521 524 510 14 475 525 0 0 -17 523 0 521 510
 515 500 499 526 0 0 -16 513 298 527 ?510 516 528 529 0 0 2 17 475 0 474 480 468
 505 522 525 0 0 +15 474 242 0 475 530 0 16 525 238 531 ?475 532 533 455 532 532
 2 81 2 531 239 59 525 0 0 534 535 536 537 16 532 2 534 ?476 456 525 455 525 525
 2 16 533 295 538 ?524 525 516 539 0 0 2 32 455 4 0 525 540 457 541 +0 0 3 0 0 1
 1 0 0 .5349 .5319 32 540 69 0 2 539 455 542 +0 0 3 0 0 1 1 0 0 .5349 .5319 38 4
57 224 0 543 455 10 0 +458 544 545 546 546 141 541 9 541 541 455 16 543 284 547
 ?548 549 550 457 0 0 2 60 458 63 0 551 552 454 553 +UF552 .019396 ?50 544 350 0
 451 459 554 555 +0 0 2.9746 0 0 1 1 0 0 40 40 545 0 1 40 .00751872634595841 .17
18787440456495 ??.515504 0 2.9746 .50845739686226 .0844494170306653 2.9746 .4875
28968663289 .1665359019679765 2.9746 .453314709115924 .2440304789968205 2.9746 .
406782245918524 .314815526626077 2.9746 .349235182817888 .376975450668791 2.9746
 .282268091056469 .4288468914280795 2.9746 .2077157029300365 .469057789196258 2.
9746 .1275994220672734 .496555808205914 2.9746 .0440733690972465 .51062748507206
2 2.9746 -.0406288864889811 .510909775224738 2.9746 -.1242467268318794 .49739545
2256454 2.9746 -.2045445036742645 .47043320222092 2.9746 -.2793639013368905 .430
722432474036 2.9746 -.346677150036947 .3793019877687095 2.9746 -.404640945393067
5 .317531340361232 2.9746 -.451649970977539 .2470625817159975 2.9746 -.486387852
84012 .169801825603993 2.9746 -.50787246582551 .0878594737025334 2.9746 -.515491
503711795 .00356848480751191 2.9746 -.509054216014014 -.0808175837142219 2.9746
 -.488744829752964 -.162975366343542 2.9746 -.455140730667538 -.2406476013369475
 2.9746 -.409190812753438 -.311715092375424 2.9746 -.352180491599219 -.374257370
72862 2.9746 -.285687259949627 -.4266031606580205 2.9746 -.211530320531084 -.467
369773145904 2.9746 -.1317174225109214 -.495491872265334 2.9746 -.04839115403719
89 -.510240942496308 2.9746 .0362241147594763 -.511237117348868 2.9746 .11987441
6097274 -.498454835932183 2.9746 .2003279541249285 -.472223201398644 2.9746 .275
4271813773895 -.4332211047626365 2.9746 .343141707003924 -.382466352124625 2.974
6 .4016219374103285 -.3212973966304325 2.9746 .449252410496646 -.2513460143265 2
.9746 .484702724346083 -.1744995125720735 2.9746 .50750297683948 -.0899449987235
751 2.9746 .513483842181105 -.045327599850515 2.9746 .515504 0 2.9746 41 1 546 H
.515504 0 2.9746 14 451 340 556 ?551 0 557 8 544 -558 559 551 0 463 50 459 601 0
 560 0 544 561 +0 0 .6 0 0 1 1 0 0 51 554 348 0 562 544 552 0 +0 0 2.9746 0 0 1
 .5334 1 0 0 141 555 457 555 555 544 14 562 308 563 ?558 559 564 8 554 +511 511
 558 559 463 67 552 64 0 2 554 458 565 +540 0 0 -1 .528916825574874 141 565 458
 565 565 552 81 2 563 309 59 562 0 0 566 567 568 569 14 558 317 570 ?511 562 571
 8 544 -559 451 511 562 463 14 559 320 572 ?562 560 573 8 544 -451 558 562 560 4
63 15 564 310 0 479 562 0 14 511 337 567 ?530 558 509 8 554 +562 562 530 558 463
 13 463 623 0 0 0 0 0 0 12 451 81 2 567 312 59 511 0 0 563 570 574 575 14 530 7
 576 ?453 511 474 8 454 +0 0 453 511 463 81 2 576 391 59 530 0 0 556 547 577 578
 14 453 26 579 ?0 530 580 8 9 -0 0 0 530 463 50 454 8 0 530 458 9 0 +0 0 3 0 0 1
 1 0 0 81 2 579 35 59 453 0 0 0 581 582 583 15 580 567 0 465 453 521 17 465 0 58
0 465 465 0 584 13 0 0 +17 584 0 585 584 584 0 465 13 0 0 -15 585 589 0 584 560
 0 14 560 586 586 ?559 551 587 8 459 -0 0 559 551 463 81 2 586 629 59 560 0 0 44
8 464 588 589 14 551 51 581 ?560 451 590 8 458 +0 0 560 451 463 15 587 588 0 591
 560 585 17 591 0 587 591 591 0 592 456 0 0 +17 592 0 590 592 592 0 591 456 0 0
 -16 456 573 593 ?591 13 532 10 0 0 2 81 2 593 633 59 456 0 0 464 0 594 595 81 2
 464 632 59 13 0 0 586 593 596 597 84 27 594 F1320.F49.E1272.Wall..F203082 1 595
 2036 84 22 596 F1320.F49.E1272..F203082 1 597 2035 15 590 562 0 592 551 598 15
 598 222 0 548 551 0 17 548 0 598 548 548 0 599 543 0 0 +17 599 0 557 599 599 0
 548 543 0 0 -15 557 342 0 599 451 0 81 2 581 226 59 551 0 0 579 534 600 601 81
 2 534 231 59 532 0 0 581 531 602 603 84 20 600 F1320.F49.E1272.Wall82 1 601 132
6 84 28 602 F1320.Cap1t..F1320.F49.E127282 1 603 1327 81 2 448 542 59 2 604 6 49
4 586 605 0 84 5 588 F203082 1 589 2033 81 1 604 73 128 2 0 448 0 0 606 81 2 494
 406 59 490 0 0 482 448 607 608 84 7 605 F1320.B81 2 482 405 59 500 0 0 471 494
 609 610 84 10 607 F1396.Vtx882 1 608 1915 84 10 609 F1396.Vtx782 1 610 1913 82
 1 606 27 84 15 582 F1320.F49.E127282 1 583 1325 81 2 556 341 59 451 0 0 572 576
 611 612 81 2 547 392 59 543 0 0 576 613 614 615 84 11 577 F1320.Cap1t82 1 578 1
323 81 2 613 393 59 549 0 0 547 616 617 618 84 33 614 F1320.F49.E1272.Wall..F139
6.Cap1t82 1 615 1906 16 549 283 613 ?489 526 543 619 526 526 2 81 2 616 394 59 5
26 0 0 613 620 621 622 84 28 617 F1320.F49.E1272..F1396.Cap1t82 1 618 1907 16 52
6 282 616 ?499 528 549 619 549 549 2 81 2 620 395 59 528 0 0 616 527 623 624 84
 28 621 F1320.F49.E1272..F1396.Cap1t82 1 622 1908 16 528 281 620 ?625 513 526 62
6 0 0 2 81 2 527 396 59 513 0 0 620 627 628 629 84 34 623 F1320.F49.E1272..F1396
.F1383.E139182 1 624 1909 81 2 627 397 59 516 0 0 527 538 630 631 84 34 628 F132
0.F49.E1272..F1396.F1383.E139182 1 629 1910 16 516 278 627 ?515 533 513 632 0 0
 2 81 2 538 398 59 533 0 0 627 488 633 634 84 34 630 F1320.F49.E1272..F1396.F138
3.E139182 1 631 1911 81 2 488 399 59 481 0 0 538 498 635 636 84 34 633 F1320.F49
.E1272..F1396.F1383.E139182 1 634 1912 81 2 498 400 59 496 0 0 488 506 637 638 8
4 10 635 F1396.Vtx582 1 636 1916 84 10 637 F1396.Vtx682 1 638 1914 17 515 0 521
 523 517 496 487 516 0 0 +30 632 352 0 516 529 539 0 +-.37796541288346 .37637442
34972915 3 0 0 -1 30 529 353 0 513 626 632 0 -.37796541288346 .376374423497291 3
 0 0 -1 30 539 351 0 533 632 540 0 +.37796541288346 -.376374423497291 3 0 0 -1 3
0 626 354 0 528 619 529 0 --.37796541288346 -.376374423497291 3 0 0 -1 32 619 35
5 0 549 520 626 0 +0 0 2.9746 0 0 1 1 0 0 .5349 .5319 31 520 358 0 486 639 619 0
 +0 0 3 0 0 1 1 0 0 .5334 31 639 359 0 550 466 520 0 +0 0 2.9746 0 0 1 1 0 0 .53
34 16 550 276 640 ?512 543 519 639 519 519 2 32 466 602 0 13 0 639 0 +0 0 .6 0 0
 1 1 0 0 .5349 .5319 81 2 640 277 59 550 0 0 535 518 641 642 17 512 0 509 487 50
2 496 514 550 0 515 +16 519 274 535 ?643 550 486 639 550 550 2 81 2 535 275 59 5
19 0 0 531 640 644 645 17 643 0 564 479 495 481 646 519 0 524 +17 479 0 564 477
 643 14 524 533 0 522 -17 495 0 564 643 477 490 625 528 0 646 -17 646 0 573 489
 489 490 643 519 0 647 -17 524 0 521 647 522 481 479 533 0 0 +17 647 0 521 625 5
24 490 489 549 0 0 -17 625 0 521 517 647 503 495 528 0 476 +17 489 0 573 646 646
 481 647 549 0 643 +15 573 322 0 646 559 0 17 517 0 521 515 625 469 476 532 0 0
 -17 476 0 474 468 480 503 517 532 0 0 +17 477 0 564 495 479 503 468 478 0 625 -
16 478 287 566 ?468 486 0 520 486 486 2 81 2 566 288 59 478 0 0 518 563 648 649
 81 2 518 286 59 486 0 0 640 566 650 651 84 30 648 F1396.Cap1b..F1396.F1383.E139
182 1 649 1405 84 30 650 F1396.Cap1b..F1396.F1383.E139182 1 651 1404 84 30 644 F
1396.Cap1t..F1396.F1383.E139182 1 645 1905 17 514 0 571 499 499 500 512 550 0 52
3 -15 571 319 0 514 558 0 17 499 0 571 514 514 496 523 526 0 512 +84 30 641 F139
6.Cap1t..F1396.F1383.E139182 1 642 1403 81 2 572 321 59 559 0 0 570 556 652 653
 84 11 611 F1396.Cap1t82 1 612 1397 81 2 570 318 59 558 0 0 567 572 654 655 84 1
1 652 F1396.Cap1t82 1 653 1902 84 11 654 F1396.Cap1t82 1 655 1903 84 17 574 F139
6.F1383.E139182 1 575 1399 84 17 568 F1396.F1383.E139182 1 569 1904 141 561 10 5
61 561 459 141 553 457 656 656 458 141 656 10 553 553 458 141 542 552 542 542 54
0 84 28 536 F1320.Cap1t..F1320.F49.E127282 1 537 1408 81 2 470 402 59 503 0 0 50
6 467 657 658 84 10 507 F1396.Vtx382 1 508 1414 84 10 657 F1396.Vtx482 1 658 141
2 84 10 483 F1396.Vtx182 1 484 1411 84 10 472 F1396.Vtx282 1 473 1413 19 452 31
 0 2 0 12 8 S0 40 40 460 0 1 40 .00751872634595841 .1718787440456495 ??.515504 0
 .6 .50845739686226 .0844494170306653 .6 .487528968663289 .1665359019679765 .6 .
453314709115924 .2440304789968205 .6 .406782245918524 .314815526626077 .6 .34923
5182817888 .376975450668791 .6 .282268091056469 .4288468914280795 .6 .2077157029
300365 .469057789196258 .6 .1275994220672734 .496555808205914 .6 .04407336909724
65 .510627485072062 .6 -.0406288864889811 .510909775224738 .6 -.1242467268318794
 .497395452256454 .6 -.2045445036742645 .47043320222092 .6 -.2793639013368905 .4
30722432474036 .6 -.346677150036947 .3793019877687095 .6 -.4046409453930675 .317
531340361232 .6 -.451649970977539 .2470625817159975 .6 -.48638785284012 .1698018
25603993 .6 -.50787246582551 .0878594737025334 .6 -.515491503711795 .00356848480
751191 .6 -.509054216014014 -.0808175837142219 .6 -.488744829752964 -.1629753663
43542 .6 -.455140730667538 -.2406476013369475 .6 -.409190812753438 -.31171509237
5424 .6 -.352180491599219 -.37425737072862 .6 -.285687259949627 -.42660316065802
05 .6 -.211530320531084 -.467369773145904 .6 -.1317174225109214 -.49549187226533
4 .6 -.0483911540371989 -.510240942496308 .6 .0362241147594763 -.511237117348868
 .6 .119874416097274 -.498454835932183 .6 .2003279541249285 -.472223201398644 .6
 .2754271813773895 -.4332211047626365 .6 .343141707003924 -.382466352124625 .6 .
4016219374103285 -.3212973966304325 .6 .449252410496646 -.2513460143265 .6 .4847
02724346083 -.1744995125720735 .6 .50750297683948 -.0899449987235751 .6 .5134838
42181105 -.045327599850515 .6 .515504 0 .6 41 1 461 H.515504 0 .6 74 20 450 3 0
 0 593 604 6 0 0 0 0 0 0 0 0 0 0 0 0 0 0 0 0 0 84 10 449 Ellipse_aX1 0 
