  0
SECTION
  2
HEADER
  9
$ACADVER
  1
AC1009
  9
$INSBASE
 10
0.0
 20
0.0
 30
0.0
  9
$EXTMIN
 10
0.0
 20
0.0
 30
0.0
  9
$EXTMAX
 10
100.0
 20
100.0
 30
0.0
  9
$UNITMODE
 70
0
  9
$AUNITS
 70
0
  9
$ANGBASE
 50
0.0
  9
$ANGDIR
 70
0
  0
ENDSEC
  0
SECTION
  2
TABLES
  0
TABLE
  2
LTYPE
 70
19
  0
LTYPE
  2
CONTINUOUS
 70
0
  3
Solid
 72
65
 73
0
 40
0.0
  0
LTYPE
  2
CENTER
 70
0
  3
Center ____ _ ____ _ ____ _ ____ _ ____ _ ____
 72
65
 73
4
 40
2.0
 49
1.25
 49
-0.25
 49
0.25
 49
-0.25
  0
LTYPE
  2
CENTERX2
 70
0
  3
Center (2x) ________  __  ________  __  ________
 72
65
 73
4
 40
3.5
 49
2.5
 49
-0.25
 49
0.5
 49
-0.25
  0
LTYPE
  2
CENTER2
 70
0
  3
Center (.5x) ____ _ ____ _ ____ _ ____ _ ____
 72
65
 73
4
 40
1.0
 49
0.625
 49
-0.125
 49
0.125
 49
-0.125
  0
LTYPE
  2
DASHED
 70
0
  3
Dashed __ __ __ __ __ __ __ __ __ __ __ __ __ _
 72
65
 73
2
 40
0.6
 49
0.5
 49
-0.1
  0
LTYPE
  2
DASHEDX2
 70
0
  3
Dashed (2x) ____  ____  ____  ____  ____  ____
 72
65
 73
2
 40
1.2
 49
1.0
 49
-0.2
  0
LTYPE
  2
DASHED2
 70
0
  3
Dashed (.5x) _ _ _ _ _ _ _ _ _ _ _ _ _ _
 72
65
 73
2
 40
0.3
 49
0.25
 49
-0.05
  0
LTYPE
  2
PHANTOM
 70
0
  3
Phantom ______  __  __  ______  __  __  ______
 72
65
 73
6
 40
2.5
 49
1.25
 49
-0.25
 49
0.25
 49
-0.25
 49
0.25
 49
-0.25
  0
LTYPE
  2
PHANTOMX2
 70
0
  3
Phantom (2x)____________    ____    ____    ____________
 72
65
 73
6
 40
4.25
 49
2.5
 49
-0.25
 49
0.5
 49
-0.25
 49
0.5
 49
-0.25
  0
LTYPE
  2
PHANTOM2
 70
0
  3
Phantom (.5x) ___ _ _ ___ _ _ ___ _ _ ___ _ _ ___
 72
65
 73
6
 40
1.25
 49
0.625
 49
-0.125
 49
0.125
 49
-0.125
 49
0.125
 49
-0.125
  0
LTYPE
  2
DASHDOT
 70
0
  3
Dash dot __ . __ . __ . __ . __ . __ . __ . __
 72
65
 73
4
 40
1.4
 49
1.0
 49
-0.2
 49
0.0
 49
-0.2
  0
LTYPE
  2
DASHDOTX2
 70
0
  3
Dash dot (2x) ____  .  ____  .  ____  .  ____
 72
65
 73
4
 40
2.4
 49
2.0
 49
-0.2
 49
0.0
 49
-0.2
  0
LTYPE
  2
DASHDOT2
 70
0
  3
Dash dot (.5x) _ . _ . _ . _ . _ . _ . _ . _
 72
65
 73
4
 40
0.7
 49
0.5
 49
-0.1
 49
0.0
 49
-0.1
  0
LTYPE
  2
DOT
 70
0
  3
Dot .  .  .  .  .  .  .  .  .  .  .  .  .  .  .  .
 72
65
 73
2
 40
0.2
 49
0.0
 49
-0.2
  0
LTYPE
  2
DOTX2
 70
0
  3
Dot (2x) .    .    .    .    .    .    .    . 
 72
65
 73
2
 40
0.4
 49
0.0
 49
-0.4
  0
LTYPE
  2
DOT2
 70
0
  3
Dot (.5) . . . . . . . . . . . . . . . . . . . 
 72
65
 73
2
 40
0.1
 49
0.0
 49
-0.1
  0
LTYPE
  2
DIVIDE
 70
0
  3
Divide __ . . __ . . __ . . __ . . __ . . __
 72
65
 73
6
 40
1.6
 49
1.0
 49
-0.2
 49
0.0
 49
-0.2
 49
0.0
 49
-0.2
  0
LTYPE
  2
DIVIDEX2
 70
0
  3
Divide (2x) ____  . .  ____  . .  ____  . .  ____
 72
65
 73
6
 40
2.6
 49
2.0
 49
-0.2
 49
0.0
 49
-0.2
 49
0.0
 49
-0.2
  0
LTYPE
  2
DIVIDE2
 70
0
  3
Divide(.5x) _ . _ . _ . _ . _ . _ . _ . _
 72
65
 73
6
 40
0.8
 49
0.5
 49
-0.1
 49
0.0
 49
-0.1
 49
0.0
 49
-0.1
  0
ENDTAB
  0
TABLE
  2
LAYER
 70
6
  0
LAYER
  2
DIMENSIONS
 70
0
 62
1
  6
CONTINUOUS
  0
LAYER
  2
TABLEBACKGROUND
 70
0
 62
1
  6
CONTINUOUS
  0
LAYER
  2
TABLECONTENT
 70
0
 62
1
  6
CONTINUOUS
  0
LAYER
  2
TABLEGRID
 70
0
 62
1
  6
CONTINUOUS
  0
LAYER
  2
VIEWPORTS
 70
0
 62
7
  6
CONTINUOUS
  0
LAYER
  2
DEM_20px_m
 70
0
 62
1
  6
CONTINUOUS
  0
ENDTAB
  0
TABLE
  2
STYLE
 70
12
  0
STYLE
  2
STANDARD
 70
0
 40
0.0
 41
1.0
 42
1.0
 50
0.0
 71
0
  3
arial.ttf
  4

  0
STYLE
  2
ARIAL
 70
0
 40
0.0
 41
1.0
 42
1.0
 50
0.0
 71
0
  3
arial.ttf
  4

  0
STYLE
  2
ARIAL_BOLD
 70
0
 40
0.0
 41
1.0
 42
1.0
 50
0.0
 71
0
  3
arialbd.ttf
  4

  0
STYLE
  2
ARIAL_ITALIC
 70
0
 40
0.0
 41
1.0
 42
1.0
 50
0.0
 71
0
  3
ariali.ttf
  4

  0
STYLE
  2
ARIAL_BOLD_ITALIC
 70
0
 40
0.0
 41
1.0
 42
1.0
 50
0.0
 71
0
  3
arialbi.ttf
  4

  0
STYLE
  2
ARIAL_BLACK
 70
0
 40
0.0
 41
1.0
 42
1.0
 50
0.0
 71
0
  3
ariblk.ttf
  4

  0
STYLE
  2
ISOCPEUR
 70
0
 40
0.0
 41
1.0
 42
1.0
 50
0.0
 71
0
  3
isocpeur.ttf
  4

  0
STYLE
  2
ISOCPEUR_ITALIC
 70
0
 40
0.0
 41
1.0
 42
1.0
 50
0.0
 71
0
  3
isocpeui.ttf
  4

  0
STYLE
  2
TIMES
 70
0
 40
0.0
 41
1.0
 42
1.0
 50
0.0
 71
0
  3
times.ttf
  4

  0
STYLE
  2
TIMES_BOLD
 70
0
 40
0.0
 41
1.0
 42
1.0
 50
0.0
 71
0
  3
timesbd.ttf
  4

  0
STYLE
  2
TIMES_ITALIC
 70
0
 40
0.0
 41
1.0
 42
1.0
 50
0.0
 71
0
  3
timesi.ttf
  4

  0
STYLE
  2
TIMES_BOLD_ITALIC
 70
0
 40
0.0
 41
1.0
 42
1.0
 50
0.0
 71
0
  3
timesbi.ttf
  4

  0
ENDTAB
  0
TABLE
  2
VIEW
 70
0
  0
ENDTAB
  0
TABLE
  2
APPID
 70
1
  0
APPID
  2
DXFWRITE
 70
0
  0
ENDTAB
  0
TABLE
  2
VPORT
 70
0
  0
ENDTAB
  0
TABLE
  2
UCS
 70
0
  0
ENDTAB
  0
ENDSEC
  0
SECTION
  2
BLOCKS
  0
ENDSEC
  0
SECTION
  2
ENTITIES
  0
VIEWPORT
  8
VIEWPORTS
 67
1
 10
0.0
 20
0.0
 30
0.0
 40
1.0
 41
1.0
 68
1
 69
1
1001
ACAD
1000
MVIEW
1002
{
1070
16
1010
0.0
1020
0.0
1030
0.0
1010
0.0
1020
0.0
1030
0.0
1040
0.0
1040
1.0
1040
0.0
1040
0.0
1040
50.0
1040
0.0
1040
0.0
1070
0
1070
100
1070
1
1070
3
1070
0
1070
0
1070
0
1070
0
1040
0.0
1040
0.0
1040
0.0
1040
0.1
1040
0.1
1040
0.1
1040
0.1
1070
0
1002
{
1002
}
1002
}
  0
POLYLINE
 62
7
  8
DEM_20px_m
 66
1
 10
0.0
 20
0.0
 30
0.0
 70
8
  0
VERTEX
  8
DEM_20px_m
 10
262300.1
 20
2106984.487
 30
-1072.0209
  0
VERTEX
  8
DEM_20px_m
 10
262292.47491724085
 20
2107004.571554688
 30
-1073.0638
  0
VERTEX
  8
DEM_20px_m
 10
262284.84983448166
 20
2107024.656109375
 30
-1073.9908
  0
VERTEX
  8
DEM_20px_m
 10
262277.22475172253
 20
2107044.740664062
 30
-1074.2746
  0
VERTEX
  8
DEM_20px_m
 10
262269.5996689634
 20
2107064.8252187497
 30
-1075.408
  0
VERTEX
  8
DEM_20px_m
 10
262261.9745862042
 20
2107084.9097734373
 30
-1075.795
  0
VERTEX
  8
DEM_20px_m
 10
262254.3495034451
 20
2107104.9943281244
 30
-1077.0662
  0
VERTEX
  8
DEM_20px_m
 10
262246.72442068596
 20
2107125.0788828116
 30
-1078.2423
  0
VERTEX
  8
DEM_20px_m
 10
262239.0993379268
 20
2107145.163437499
 30
-1078.7878
  0
VERTEX
  8
DEM_20px_m
 10
262231.47425516765
 20
2107165.247992187
 30
-1080.0286
  0
VERTEX
  8
DEM_20px_m
 10
262223.8491724085
 20
2107185.332546874
 30
-1080.5661
  0
VERTEX
  8
DEM_20px_m
 10
262216.22408964933
 20
2107205.417101561
 30
-1081.7435
  0
VERTEX
  8
DEM_20px_m
 10
262208.5990068902
 20
2107225.5016562487
 30
-1082.9826
  0
VERTEX
  8
DEM_20px_m
 10
262200.9739241311
 20
2107245.5862109363
 30
-1083.1397
  0
VERTEX
  8
DEM_20px_m
 10
262193.3488413719
 20
2107265.6707656235
 30
-1084.1548
  0
VERTEX
  8
DEM_20px_m
 10
262185.72375861276
 20
2107285.7553203106
 30
-1085.0749
  0
VERTEX
  8
DEM_20px_m
 10
262178.09867585363
 20
2107305.839874998
 30
-1085.279
  0
VERTEX
  8
DEM_20px_m
 10
262170.47359309444
 20
2107325.924429686
 30
-1086.7152
  0
VERTEX
  8
DEM_20px_m
 10
262162.8485103353
 20
2107346.008984373
 30
-1087.7199
  0
VERTEX
  8
DEM_20px_m
 10
262155.2234275762
 20
2107366.09353906
 30
-1089.1145
  0
VERTEX
  8
DEM_20px_m
 10
262147.598344817
 20
2107386.1780937477
 30
-1090.2787
  0
VERTEX
  8
DEM_20px_m
 10
262139.97326205787
 20
2107406.2626484353
 30
-1090.1406
  0
VERTEX
  8
DEM_20px_m
 10
262132.34817929871
 20
2107426.3472031225
 30
-1091.5579
  0
VERTEX
  8
DEM_20px_m
 10
262124.72309653956
 20
2107446.4317578096
 30
-1092.8401
  0
VERTEX
  8
DEM_20px_m
 10
262117.09801378043
 20
2107466.516312497
 30
-1093.107
  0
VERTEX
  8
DEM_20px_m
 10
262109.47293102127
 20
2107486.600867185
 30
-1094.1235
  0
VERTEX
  8
DEM_20px_m
 10
262101.8478482621
 20
2107506.685421872
 30
-1095.0104
  0
VERTEX
  8
DEM_20px_m
 10
262094.222765503
 20
2107526.769976559
 30
-1096.561
  0
VERTEX
  8
DEM_20px_m
 10
262086.59768274383
 20
2107546.8545312467
 30
-1098.1338
  0
VERTEX
  8
DEM_20px_m
 10
262078.97259998467
 20
2107566.9390859343
 30
-1099.375
  0
VERTEX
  8
DEM_20px_m
 10
262071.34751722554
 20
2107587.0236406215
 30
-1100.8309
  0
VERTEX
  8
DEM_20px_m
 10
262063.72243446638
 20
2107607.1081953086
 30
-1101.3589
  0
VERTEX
  8
DEM_20px_m
 10
262056.09735170723
 20
2107627.192749996
 30
-1102.5645
  0
VERTEX
  8
DEM_20px_m
 10
262048.4722689481
 20
2107647.277304684
 30
-1103.8889
  0
VERTEX
  8
DEM_20px_m
 10
262040.84718618894
 20
2107667.361859371
 30
-1104.304
  0
VERTEX
  8
DEM_20px_m
 10
262033.22210342978
 20
2107687.446414058
 30
-1105.5765
  0
VERTEX
  8
DEM_20px_m
 10
262025.59702067066
 20
2107707.5309687457
 30
-1107.0535
  0
VERTEX
  8
DEM_20px_m
 10
262017.9719379115
 20
2107727.6155234333
 30
-1108.07
  0
VERTEX
  8
DEM_20px_m
 10
262010.34685515234
 20
2107747.7000781205
 30
-1109.6044
  0
VERTEX
  8
DEM_20px_m
 10
262002.7217723932
 20
2107767.7846328076
 30
-1110.4908
  0
VERTEX
  8
DEM_20px_m
 10
261995.09668963405
 20
2107787.869187495
 30
-1111.6994
  0
VERTEX
  8
DEM_20px_m
 10
261987.4716068749
 20
2107807.953742183
 30
-1112.934
  0
VERTEX
  8
DEM_20px_m
 10
261979.84652411577
 20
2107828.03829687
 30
-1113.657
  0
VERTEX
  8
DEM_20px_m
 10
261972.2214413566
 20
2107848.122851557
 30
-1114.7824
  0
VERTEX
  8
DEM_20px_m
 10
261964.59635859745
 20
2107868.2074062447
 30
-1115.8168
  0
VERTEX
  8
DEM_20px_m
 10
261956.97127583832
 20
2107888.2919609323
 30
-1116.0765
  0
VERTEX
  8
DEM_20px_m
 10
261949.34619307917
 20
2107908.3765156195
 30
-1116.946
  0
VERTEX
  8
DEM_20px_m
 10
261941.72111032
 20
2107928.4610703066
 30
-1117.2771
  0
VERTEX
  8
DEM_20px_m
 10
261934.09602756088
 20
2107948.545624994
 30
-1118.2086
  0
VERTEX
  8
DEM_20px_m
 10
261926.47094480172
 20
2107968.630179682
 30
-1119.1519
  0
VERTEX
  8
DEM_20px_m
 10
261918.84586204257
 20
2107988.714734369
 30
-1119.3799
  0
VERTEX
  8
DEM_20px_m
 10
261911.22077928344
 20
2108008.799289056
 30
-1120.1514
  0
VERTEX
  8
DEM_20px_m
 10
261903.59569652428
 20
2108028.8838437437
 30
-1120.4565
  0
VERTEX
  8
DEM_20px_m
 10
261895.97061376512
 20
2108048.9683984313
 30
-1121.3959
  0
VERTEX
  8
DEM_20px_m
 10
261888.34553100597
 20
2108069.0529531185
 30
-1122.3431
  0
VERTEX
  8
DEM_20px_m
 10
261880.72044824684
 20
2108089.1375078056
 30
-1123.1428
  0
VERTEX
  8
DEM_20px_m
 10
261873.09536548768
 20
2108109.222062493
 30
-1124.1144
  0
VERTEX
  8
DEM_20px_m
 10
261865.47028272852
 20
2108129.306617181
 30
-1125.0936
  0
VERTEX
  8
DEM_20px_m
 10
261857.8451999694
 20
2108149.391171868
 30
-1126.0843
  0
VERTEX
  8
DEM_20px_m
 10
261850.22011721024
 20
2108169.475726555
 30
-1127.1863
  0
VERTEX
  8
DEM_20px_m
 10
261842.59503445108
 20
2108189.5602812427
 30
-1128.1652
  0
VERTEX
  8
DEM_20px_m
 10
261834.96995169195
 20
2108209.6448359303
 30
-1129.2369
  0
VERTEX
  8
DEM_20px_m
 10
261827.3448689328
 20
2108229.7293906175
 30
-1130.2941
  0
VERTEX
  8
DEM_20px_m
 10
261819.71978617363
 20
2108249.8139453046
 30
-1130.7025
  0
VERTEX
  8
DEM_20px_m
 10
261812.0947034145
 20
2108269.898499992
 30
-1131.6252
  0
VERTEX
  8
DEM_20px_m
 10
261804.46962065535
 20
2108289.98305468
 30
-1132.6332
  0
VERTEX
  8
DEM_20px_m
 10
261796.8445378962
 20
2108310.067609367
 30
-1133.3969
  0
VERTEX
  8
DEM_20px_m
 10
261789.21945513706
 20
2108330.152164054
 30
-1134.4542
  0
VERTEX
  8
DEM_20px_m
 10
261781.5943723779
 20
2108350.2367187417
 30
-1134.9714
  0
VERTEX
  8
DEM_20px_m
 10
261773.96928961875
 20
2108370.3212734293
 30
-1135.957
  0
VERTEX
  8
DEM_20px_m
 10
261766.34420685962
 20
2108390.4058281165
 30
-1136.9331
  0
VERTEX
  8
DEM_20px_m
 10
261758.71912410046
 20
2108410.4903828036
 30
-1137.1141
  0
VERTEX
  8
DEM_20px_m
 10
261751.0940413413
 20
2108430.574937491
 30
-1137.9235
  0
VERTEX
  8
DEM_20px_m
 10
261743.46895858218
 20
2108450.659492179
 30
-1137.767
  0
VERTEX
  8
DEM_20px_m
 10
261735.84387582302
 20
2108470.744046866
 30
-1138.7531
  0
VERTEX
  8
DEM_20px_m
 10
261728.21879306386
 20
2108490.828601553
 30
-1139.6663
  0
VERTEX
  8
DEM_20px_m
 10
261720.59371030473
 20
2108510.9131562407
 30
-1140.4255
  0
VERTEX
  8
DEM_20px_m
 10
261712.96862754558
 20
2108530.9977109283
 30
-1141.7445
  0
VERTEX
  8
DEM_20px_m
 10
261705.34354478642
 20
2108551.0822656155
 30
-1143.0788
  0
VERTEX
  8
DEM_20px_m
 10
261697.7184620273
 20
2108571.1668203026
 30
-1144.526
  0
VERTEX
  8
DEM_20px_m
 10
261690.09337926813
 20
2108591.25137499
 30
-1145.5274
  0
VERTEX
  8
DEM_20px_m
 10
261682.46829650897
 20
2108611.335929678
 30
-1146.1862
  0
VERTEX
  8
DEM_20px_m
 10
261674.84321374985
 20
2108631.420484365
 30
-1146.909
  0
VERTEX
  8
DEM_20px_m
 10
261667.2181309907
 20
2108651.505039052
 30
-1147.6348
  0
VERTEX
  8
DEM_20px_m
 10
261659.59304823153
 20
2108671.5895937397
 30
-1148.1597
  0
VERTEX
  8
DEM_20px_m
 10
261651.96796547237
 20
2108691.6741484273
 30
-1148.9057
  0
VERTEX
  8
DEM_20px_m
 10
261644.34288271324
 20
2108711.7587031145
 30
-1149.6517
  0
VERTEX
  8
DEM_20px_m
 10
261636.7177999541
 20
2108731.8432578016
 30
-1150.3358
  0
VERTEX
  8
DEM_20px_m
 10
261629.09271719493
 20
2108751.927812489
 30
-1151.3079
  0
VERTEX
  8
DEM_20px_m
 10
261621.4676344358
 20
2108772.012367177
 30
-1152.1022
  0
VERTEX
  8
DEM_20px_m
 10
261613.84255167664
 20
2108792.096921864
 30
-1152.836
  0
VERTEX
  8
DEM_20px_m
 10
261606.2174689175
 20
2108812.181476551
 30
-1153.3719
  0
VERTEX
  8
DEM_20px_m
 10
261598.59238615836
 20
2108832.2660312387
 30
-1153.4233
  0
VERTEX
  8
DEM_20px_m
 10
261590.9673033992
 20
2108852.3505859263
 30
-1154.2326
  0
VERTEX
  8
DEM_20px_m
 10
261583.34222064004
 20
2108872.4351406135
 30
-1154.8502
  0
VERTEX
  8
DEM_20px_m
 10
261575.7171378809
 20
2108892.5196953006
 30
-1155.2417
  0
VERTEX
  8
DEM_20px_m
 10
261568.09205512176
 20
2108912.604249988
 30
-1156.257
  0
VERTEX
  8
DEM_20px_m
 10
261560.4669723626
 20
2108932.688804676
 30
-1157.4622
  0
VERTEX
  8
DEM_20px_m
 10
261552.84188960347
 20
2108952.773359363
 30
-1158.4717
  0
VERTEX
  8
DEM_20px_m
 10
261545.2168068443
 20
2108972.85791405
 30
-1159.478
  0
VERTEX
  8
DEM_20px_m
 10
261537.59172408516
 20
2108992.9424687377
 30
-1160.7077
  0
VERTEX
  8
DEM_20px_m
 10
261529.96664132603
 20
2109013.0270234253
 30
-1161.7507
  0
VERTEX
  8
DEM_20px_m
 10
261522.34155856687
 20
2109033.1115781125
 30
-1162.6312
  0
VERTEX
  8
DEM_20px_m
 10
261514.7164758077
 20
2109053.1961327996
 30
-1163.6707
  0
VERTEX
  8
DEM_20px_m
 10
261507.09139304858
 20
2109073.280687487
 30
-1164.7169
  0
VERTEX
  8
DEM_20px_m
 10
261499.46631028943
 20
2109093.365242175
 30
-1165.7176
  0
VERTEX
  8
DEM_20px_m
 10
261491.84122753027
 20
2109113.449796862
 30
-1166.7964
  0
VERTEX
  8
DEM_20px_m
 10
261484.21614477114
 20
2109133.534351549
 30
-1167.4514
  0
VERTEX
  8
DEM_20px_m
 10
261476.59106201198
 20
2109153.6189062367
 30
-1168.504
  0
VERTEX
  8
DEM_20px_m
 10
261468.96597925283
 20
2109173.7034609243
 30
-1169.6223
  0
VERTEX
  8
DEM_20px_m
 10
261461.3408964937
 20
2109193.7880156115
 30
-1170.3884
  0
VERTEX
  8
DEM_20px_m
 10
261453.71581373454
 20
2109213.8725702986
 30
-1171.6829
  0
VERTEX
  8
DEM_20px_m
 10
261446.09073097538
 20
2109233.957124986
 30
-1172.9592
  0
VERTEX
  8
DEM_20px_m
 10
261438.46564821625
 20
2109254.041679674
 30
-1173.4136
  0
VERTEX
  8
DEM_20px_m
 10
261430.8405654571
 20
2109274.126234361
 30
-1174.5223
  0
VERTEX
  8
DEM_20px_m
 10
261423.21548269794
 20
2109294.210789048
 30
-1174.6561
  0
VERTEX
  8
DEM_20px_m
 10
261415.5903999388
 20
2109314.2953437357
 30
-1175.4515
  0
VERTEX
  8
DEM_20px_m
 10
261407.96531717965
 20
2109334.3798984233
 30
-1176.4224
  0
VERTEX
  8
DEM_20px_m
 10
261400.3402344205
 20
2109354.4644531105
 30
-1176.9459
  0
VERTEX
  8
DEM_20px_m
 10
261392.71515166137
 20
2109374.5490077976
 30
-1177.9442
  0
VERTEX
  8
DEM_20px_m
 10
261385.0900689022
 20
2109394.633562485
 30
-1179.0654
  0
VERTEX
  8
DEM_20px_m
 10
261377.46498614305
 20
2109414.718117173
 30
-1179.8948
  0
VERTEX
  8
DEM_20px_m
 10
261369.8399033839
 20
2109434.80267186
 30
-1180.6923
  0
VERTEX
  8
DEM_20px_m
 10
261362.21482062477
 20
2109454.887226547
 30
-1180.9644
  0
VERTEX
  8
DEM_20px_m
 10
261354.5897378656
 20
2109474.9717812347
 30
-1181.6086
  0
VERTEX
  8
DEM_20px_m
 10
261346.96465510645
 20
2109495.0563359223
 30
-1182.1814
  0
VERTEX
  8
DEM_20px_m
 10
261339.33957234732
 20
2109515.1408906095
 30
-1182.1953
  0
VERTEX
  8
DEM_20px_m
 10
261331.71448958816
 20
2109535.2254452966
 30
-1183.1817
  0
VERTEX
  8
DEM_20px_m
 10
261324.089406829
 20
2109555.309999984
 30
-1183.5729
  0
VERTEX
  8
DEM_20px_m
 10
261316.46432406988
 20
2109575.394554672
 30
-1184.4951
  0
VERTEX
  8
DEM_20px_m
 10
261308.83924131072
 20
2109595.479109359
 30
-1185.3175
  0
VERTEX
  8
DEM_20px_m
 10
261301.21415855156
 20
2109615.563664046
 30
-1185.7863
  0
VERTEX
  8
DEM_20px_m
 10
261293.58907579244
 20
2109635.6482187337
 30
-1186.4184
  0
VERTEX
  8
DEM_20px_m
 10
261285.96399303328
 20
2109655.7327734213
 30
-1186.9005
  0
VERTEX
  8
DEM_20px_m
 10
261278.33891027412
 20
2109675.8173281085
 30
-1186.8819
  0
VERTEX
  8
DEM_20px_m
 10
261270.713827515
 20
2109695.9018827956
 30
-1187.3521
  0
VERTEX
  8
DEM_20px_m
 10
261263.08874475583
 20
2109715.986437483
 30
-1187.1491
  0
VERTEX
  8
DEM_20px_m
 10
261255.46366199668
 20
2109736.070992171
 30
-1187.7294
  0
VERTEX
  8
DEM_20px_m
 10
261247.83857923755
 20
2109756.155546858
 30
-1188.2191
  0
VERTEX
  8
DEM_20px_m
 10
261240.2134964784
 20
2109776.240101545
 30
-1188.4181
  0
VERTEX
  8
DEM_20px_m
 10
261232.58841371923
 20
2109796.3246562327
 30
-1189.377
  0
VERTEX
  8
DEM_20px_m
 10
261224.9633309601
 20
2109816.4092109203
 30
-1190.0
  0
VERTEX
  8
DEM_20px_m
 10
261217.33824820095
 20
2109836.4937656075
 30
-1190.098
  0
VERTEX
  8
DEM_20px_m
 10
261209.7131654418
 20
2109856.5783202946
 30
-1190.7039
  0
VERTEX
  8
DEM_20px_m
 10
261202.08808268266
 20
2109876.662874982
 30
-1190.477
  0
VERTEX
  8
DEM_20px_m
 10
261194.4629999235
 20
2109896.74742967
 30
-1190.9176
  0
VERTEX
  8
DEM_20px_m
 10
261186.83791716435
 20
2109916.831984357
 30
-1191.4471
  0
VERTEX
  8
DEM_20px_m
 10
261179.21283440522
 20
2109936.916539044
 30
-1191.1965
  0
VERTEX
  8
DEM_20px_m
 10
261171.58775164606
 20
2109957.0010937317
 30
-1191.8704
  0
VERTEX
  8
DEM_20px_m
 10
261163.9626688869
 20
2109977.0856484193
 30
-1191.8997
  0
VERTEX
  8
DEM_20px_m
 10
261156.33758612777
 20
2109997.1702031065
 30
-1192.7122
  0
VERTEX
  8
DEM_20px_m
 10
261148.71250336862
 20
2110017.2547577936
 30
-1193.5532
  0
VERTEX
  8
DEM_20px_m
 10
261141.08742060946
 20
2110037.339312481
 30
-1193.6965
  0
VERTEX
  8
DEM_20px_m
 10
261133.4623378503
 20
2110057.423867169
 30
-1194.3438
  0
VERTEX
  8
DEM_20px_m
 10
261125.83725509117
 20
2110077.508421856
 30
-1194.8328
  0
VERTEX
  8
DEM_20px_m
 10
261118.21217233202
 20
2110097.592976543
 30
-1194.3776
  0
VERTEX
  8
DEM_20px_m
 10
261110.58708957286
 20
2110117.6775312307
 30
-1194.8108
  0
VERTEX
  8
DEM_20px_m
 10
261102.96200681373
 20
2110137.7620859183
 30
-1194.3353
  0
VERTEX
  8
DEM_20px_m
 10
261095.33692405457
 20
2110157.8466406055
 30
-1194.978
  0
VERTEX
  8
DEM_20px_m
 10
261087.71184129542
 20
2110177.9311952926
 30
-1195.6131
  0
VERTEX
  8
DEM_20px_m
 10
261080.0867585363
 20
2110198.01574998
 30
-1195.1184
  0
VERTEX
  8
DEM_20px_m
 10
261072.46167577713
 20
2110218.100304668
 30
-1195.6889
  0
VERTEX
  8
DEM_20px_m
 10
261064.83659301797
 20
2110238.184859355
 30
-1196.3203
  0
VERTEX
  8
DEM_20px_m
 10
261057.21151025884
 20
2110258.269414042
 30
-1195.9725
  0
VERTEX
  8
DEM_20px_m
 10
261049.5864274997
 20
2110278.3539687297
 30
-1196.3714
  0
VERTEX
  8
DEM_20px_m
 10
261041.96134474053
 20
2110298.4385234173
 30
-1196.2041
  0
VERTEX
  8
DEM_20px_m
 10
261034.3362619814
 20
2110318.5230781045
 30
-1196.6969
  0
VERTEX
  8
DEM_20px_m
 10
261026.71117922224
 20
2110338.6076327916
 30
-1197.1176
  0
VERTEX
  8
DEM_20px_m
 10
261019.08609646308
 20
2110358.692187479
 30
-1196.8892
  0
VERTEX
  8
DEM_20px_m
 10
261011.46101370396
 20
2110378.776742167
 30
-1197.4858
  0
VERTEX
  8
DEM_20px_m
 10
261003.8359309448
 20
2110398.861296854
 30
-1197.0271
  0
SEQEND
  0
ENDSEC
  0
EOF
