  0
SECTION
  2
HEADER
  9
$ACADVER
  1
AC1009
  9
$INSBASE
 10
0.0
 20
0.0
 30
0.0
  9
$EXTMIN
 10
0.0
 20
0.0
 30
0.0
  9
$EXTMAX
 10
100.0
 20
100.0
 30
0.0
  9
$UNITMODE
 70
0
  9
$AUNITS
 70
0
  9
$ANGBASE
 50
0.0
  9
$ANGDIR
 70
0
  0
ENDSEC
  0
SECTION
  2
TABLES
  0
TABLE
  2
LTYPE
 70
19
  0
LTYPE
  2
CONTINUOUS
 70
0
  3
Solid
 72
65
 73
0
 40
0.0
  0
LTYPE
  2
CENTER
 70
0
  3
Center ____ _ ____ _ ____ _ ____ _ ____ _ ____
 72
65
 73
4
 40
2.0
 49
1.25
 49
-0.25
 49
0.25
 49
-0.25
  0
LTYPE
  2
CENTERX2
 70
0
  3
Center (2x) ________  __  ________  __  ________
 72
65
 73
4
 40
3.5
 49
2.5
 49
-0.25
 49
0.5
 49
-0.25
  0
LTYPE
  2
CENTER2
 70
0
  3
Center (.5x) ____ _ ____ _ ____ _ ____ _ ____
 72
65
 73
4
 40
1.0
 49
0.625
 49
-0.125
 49
0.125
 49
-0.125
  0
LTYPE
  2
DASHED
 70
0
  3
Dashed __ __ __ __ __ __ __ __ __ __ __ __ __ _
 72
65
 73
2
 40
0.6
 49
0.5
 49
-0.1
  0
LTYPE
  2
DASHEDX2
 70
0
  3
Dashed (2x) ____  ____  ____  ____  ____  ____
 72
65
 73
2
 40
1.2
 49
1.0
 49
-0.2
  0
LTYPE
  2
DASHED2
 70
0
  3
Dashed (.5x) _ _ _ _ _ _ _ _ _ _ _ _ _ _
 72
65
 73
2
 40
0.3
 49
0.25
 49
-0.05
  0
LTYPE
  2
PHANTOM
 70
0
  3
Phantom ______  __  __  ______  __  __  ______
 72
65
 73
6
 40
2.5
 49
1.25
 49
-0.25
 49
0.25
 49
-0.25
 49
0.25
 49
-0.25
  0
LTYPE
  2
PHANTOMX2
 70
0
  3
Phantom (2x)____________    ____    ____    ____________
 72
65
 73
6
 40
4.25
 49
2.5
 49
-0.25
 49
0.5
 49
-0.25
 49
0.5
 49
-0.25
  0
LTYPE
  2
PHANTOM2
 70
0
  3
Phantom (.5x) ___ _ _ ___ _ _ ___ _ _ ___ _ _ ___
 72
65
 73
6
 40
1.25
 49
0.625
 49
-0.125
 49
0.125
 49
-0.125
 49
0.125
 49
-0.125
  0
LTYPE
  2
DASHDOT
 70
0
  3
Dash dot __ . __ . __ . __ . __ . __ . __ . __
 72
65
 73
4
 40
1.4
 49
1.0
 49
-0.2
 49
0.0
 49
-0.2
  0
LTYPE
  2
DASHDOTX2
 70
0
  3
Dash dot (2x) ____  .  ____  .  ____  .  ____
 72
65
 73
4
 40
2.4
 49
2.0
 49
-0.2
 49
0.0
 49
-0.2
  0
LTYPE
  2
DASHDOT2
 70
0
  3
Dash dot (.5x) _ . _ . _ . _ . _ . _ . _ . _
 72
65
 73
4
 40
0.7
 49
0.5
 49
-0.1
 49
0.0
 49
-0.1
  0
LTYPE
  2
DOT
 70
0
  3
Dot .  .  .  .  .  .  .  .  .  .  .  .  .  .  .  .
 72
65
 73
2
 40
0.2
 49
0.0
 49
-0.2
  0
LTYPE
  2
DOTX2
 70
0
  3
Dot (2x) .    .    .    .    .    .    .    . 
 72
65
 73
2
 40
0.4
 49
0.0
 49
-0.4
  0
LTYPE
  2
DOT2
 70
0
  3
Dot (.5) . . . . . . . . . . . . . . . . . . . 
 72
65
 73
2
 40
0.1
 49
0.0
 49
-0.1
  0
LTYPE
  2
DIVIDE
 70
0
  3
Divide __ . . __ . . __ . . __ . . __ . . __
 72
65
 73
6
 40
1.6
 49
1.0
 49
-0.2
 49
0.0
 49
-0.2
 49
0.0
 49
-0.2
  0
LTYPE
  2
DIVIDEX2
 70
0
  3
Divide (2x) ____  . .  ____  . .  ____  . .  ____
 72
65
 73
6
 40
2.6
 49
2.0
 49
-0.2
 49
0.0
 49
-0.2
 49
0.0
 49
-0.2
  0
LTYPE
  2
DIVIDE2
 70
0
  3
Divide(.5x) _ . _ . _ . _ . _ . _ . _ . _
 72
65
 73
6
 40
0.8
 49
0.5
 49
-0.1
 49
0.0
 49
-0.1
 49
0.0
 49
-0.1
  0
ENDTAB
  0
TABLE
  2
LAYER
 70
6
  0
LAYER
  2
DIMENSIONS
 70
0
 62
1
  6
CONTINUOUS
  0
LAYER
  2
TABLEBACKGROUND
 70
0
 62
1
  6
CONTINUOUS
  0
LAYER
  2
TABLECONTENT
 70
0
 62
1
  6
CONTINUOUS
  0
LAYER
  2
TABLEGRID
 70
0
 62
1
  6
CONTINUOUS
  0
LAYER
  2
VIEWPORTS
 70
0
 62
7
  6
CONTINUOUS
  0
LAYER
  2
DEM_20px_m
 70
0
 62
1
  6
CONTINUOUS
  0
ENDTAB
  0
TABLE
  2
STYLE
 70
12
  0
STYLE
  2
STANDARD
 70
0
 40
0.0
 41
1.0
 42
1.0
 50
0.0
 71
0
  3
arial.ttf
  4

  0
STYLE
  2
ARIAL
 70
0
 40
0.0
 41
1.0
 42
1.0
 50
0.0
 71
0
  3
arial.ttf
  4

  0
STYLE
  2
ARIAL_BOLD
 70
0
 40
0.0
 41
1.0
 42
1.0
 50
0.0
 71
0
  3
arialbd.ttf
  4

  0
STYLE
  2
ARIAL_ITALIC
 70
0
 40
0.0
 41
1.0
 42
1.0
 50
0.0
 71
0
  3
ariali.ttf
  4

  0
STYLE
  2
ARIAL_BOLD_ITALIC
 70
0
 40
0.0
 41
1.0
 42
1.0
 50
0.0
 71
0
  3
arialbi.ttf
  4

  0
STYLE
  2
ARIAL_BLACK
 70
0
 40
0.0
 41
1.0
 42
1.0
 50
0.0
 71
0
  3
ariblk.ttf
  4

  0
STYLE
  2
ISOCPEUR
 70
0
 40
0.0
 41
1.0
 42
1.0
 50
0.0
 71
0
  3
isocpeur.ttf
  4

  0
STYLE
  2
ISOCPEUR_ITALIC
 70
0
 40
0.0
 41
1.0
 42
1.0
 50
0.0
 71
0
  3
isocpeui.ttf
  4

  0
STYLE
  2
TIMES
 70
0
 40
0.0
 41
1.0
 42
1.0
 50
0.0
 71
0
  3
times.ttf
  4

  0
STYLE
  2
TIMES_BOLD
 70
0
 40
0.0
 41
1.0
 42
1.0
 50
0.0
 71
0
  3
timesbd.ttf
  4

  0
STYLE
  2
TIMES_ITALIC
 70
0
 40
0.0
 41
1.0
 42
1.0
 50
0.0
 71
0
  3
timesi.ttf
  4

  0
STYLE
  2
TIMES_BOLD_ITALIC
 70
0
 40
0.0
 41
1.0
 42
1.0
 50
0.0
 71
0
  3
timesbi.ttf
  4

  0
ENDTAB
  0
TABLE
  2
VIEW
 70
0
  0
ENDTAB
  0
TABLE
  2
APPID
 70
1
  0
APPID
  2
DXFWRITE
 70
0
  0
ENDTAB
  0
TABLE
  2
VPORT
 70
0
  0
ENDTAB
  0
TABLE
  2
UCS
 70
0
  0
ENDTAB
  0
ENDSEC
  0
SECTION
  2
BLOCKS
  0
ENDSEC
  0
SECTION
  2
ENTITIES
  0
VIEWPORT
  8
VIEWPORTS
 67
1
 10
0.0
 20
0.0
 30
0.0
 40
1.0
 41
1.0
 68
1
 69
1
1001
ACAD
1000
MVIEW
1002
{
1070
16
1010
0.0
1020
0.0
1030
0.0
1010
0.0
1020
0.0
1030
0.0
1040
0.0
1040
1.0
1040
0.0
1040
0.0
1040
50.0
1040
0.0
1040
0.0
1070
0
1070
100
1070
1
1070
3
1070
0
1070
0
1070
0
1070
0
1040
0.0
1040
0.0
1040
0.0
1040
0.1
1040
0.1
1040
0.1
1040
0.1
1070
0
1002
{
1002
}
1002
}
  0
POLYLINE
 62
7
  8
DEM_20px_m
 66
1
 10
0.0
 20
0.0
 30
0.0
 70
8
  0
VERTEX
  8
DEM_20px_m
 10
0.0
 20
-1001.0593
 30
0.0
  0
VERTEX
  8
DEM_20px_m
 10
21.75746898019642
 20
-1001.4172
 30
0.0
  0
VERTEX
  8
DEM_20px_m
 10
43.51493796039284
 20
-1002.5211
 30
0.0
  0
VERTEX
  8
DEM_20px_m
 10
65.27240694058926
 20
-1003.6328
 30
0.0
  0
VERTEX
  8
DEM_20px_m
 10
87.02987592078568
 20
-1003.8023
 30
0.0
  0
VERTEX
  8
DEM_20px_m
 10
108.7873449009821
 20
-1004.7391
 30
0.0
  0
VERTEX
  8
DEM_20px_m
 10
130.54481388117853
 20
-1005.2261
 30
0.0
  0
VERTEX
  8
DEM_20px_m
 10
152.30228286137495
 20
-1006.9539
 30
0.0
  0
VERTEX
  8
DEM_20px_m
 10
174.05975184157137
 20
-1008.1388
 30
0.0
  0
VERTEX
  8
DEM_20px_m
 10
195.8172208217678
 20
-1009.8572
 30
0.0
  0
VERTEX
  8
DEM_20px_m
 10
217.5746898019642
 20
-1010.4855
 30
0.0
  0
VERTEX
  8
DEM_20px_m
 10
239.33215878216063
 20
-1010.7923
 30
0.0
  0
VERTEX
  8
DEM_20px_m
 10
261.08962776235705
 20
-1011.414
 30
0.0
  0
VERTEX
  8
DEM_20px_m
 10
282.8470967425535
 20
-1011.9277
 30
0.0
  0
VERTEX
  8
DEM_20px_m
 10
304.6045657227499
 20
-1012.6142
 30
0.0
  0
VERTEX
  8
DEM_20px_m
 10
326.3620347029463
 20
-1012.9682
 30
0.0
  0
VERTEX
  8
DEM_20px_m
 10
348.11950368314274
 20
-1013.9232
 30
0.0
  0
VERTEX
  8
DEM_20px_m
 10
369.8769726633392
 20
-1014.8781
 30
0.0
  0
VERTEX
  8
DEM_20px_m
 10
391.6344416435356
 20
-1015.314
 30
0.0
  0
VERTEX
  8
DEM_20px_m
 10
413.391910623732
 20
-1015.9775
 30
0.0
  0
VERTEX
  8
DEM_20px_m
 10
435.1493796039284
 20
-1016.6004
 30
0.0
  0
VERTEX
  8
DEM_20px_m
 10
456.9068485841249
 20
-1017.258
 30
0.0
  0
VERTEX
  8
DEM_20px_m
 10
478.66431756432127
 20
-1017.9081
 30
0.0
  0
VERTEX
  8
DEM_20px_m
 10
500.42178654451766
 20
-1018.2917
 30
0.0
  0
VERTEX
  8
DEM_20px_m
 10
522.1792555247141
 20
-1018.973
 30
0.0
  0
VERTEX
  8
DEM_20px_m
 10
543.9367245049106
 20
-1019.6367
 30
0.0
  0
VERTEX
  8
DEM_20px_m
 10
565.694193485107
 20
-1020.0
 30
0.0
  0
VERTEX
  8
DEM_20px_m
 10
587.4516624653033
 20
-1020.7498
 30
0.0
  0
VERTEX
  8
DEM_20px_m
 10
609.2091314454998
 20
-1021.3787
 30
0.0
  0
VERTEX
  8
DEM_20px_m
 10
630.9666004256962
 20
-1022.0401
 30
0.0
  0
VERTEX
  8
DEM_20px_m
 10
652.7240694058926
 20
-1022.913
 30
0.0
  0
VERTEX
  8
DEM_20px_m
 10
674.481538386089
 20
-1023.5682
 30
0.0
  0
VERTEX
  8
DEM_20px_m
 10
696.2390073662855
 20
-1024.4378
 30
0.0
  0
VERTEX
  8
DEM_20px_m
 10
717.9964763464819
 20
-1025.2223
 30
0.0
  0
VERTEX
  8
DEM_20px_m
 10
739.7539453266784
 20
-1027.1429
 30
0.0
  0
VERTEX
  8
DEM_20px_m
 10
761.5114143068747
 20
-1028.7327
 30
0.0
  0
VERTEX
  8
DEM_20px_m
 10
783.2688832870712
 20
-1030.1435
 30
0.0
  0
VERTEX
  8
DEM_20px_m
 10
805.0263522672676
 20
-1031.0534
 30
0.0
  0
VERTEX
  8
DEM_20px_m
 10
826.783821247464
 20
-1031.9815
 30
0.0
  0
VERTEX
  8
DEM_20px_m
 10
848.5412902276604
 20
-1032.6242
 30
0.0
  0
VERTEX
  8
DEM_20px_m
 10
870.2987592078568
 20
-1033.414
 30
0.0
  0
VERTEX
  8
DEM_20px_m
 10
892.0562281880533
 20
-1034.1371
 30
0.0
  0
VERTEX
  8
DEM_20px_m
 10
913.8136971682497
 20
-1035.1919
 30
0.0
  0
VERTEX
  8
DEM_20px_m
 10
935.5711661484461
 20
-1035.9552
 30
0.0
  0
VERTEX
  8
DEM_20px_m
 10
957.3286351286425
 20
-1036.339
 30
0.0
  0
VERTEX
  8
DEM_20px_m
 10
979.086104108839
 20
-1037.249
 30
0.0
  0
VERTEX
  8
DEM_20px_m
 10
1000.8435730890353
 20
-1037.7455
 30
0.0
  0
VERTEX
  8
DEM_20px_m
 10
1022.6010420692318
 20
-1038.8599
 30
0.0
  0
VERTEX
  8
DEM_20px_m
 10
1044.3585110494282
 20
-1039.9801
 30
0.0
  0
VERTEX
  8
DEM_20px_m
 10
1066.1159800296246
 20
-1040.0936
 30
0.0
  0
VERTEX
  8
DEM_20px_m
 10
1087.8734490098211
 20
-1041.0782
 30
0.0
  0
VERTEX
  8
DEM_20px_m
 10
1109.6309179900175
 20
-1041.0344
 30
0.0
  0
VERTEX
  8
DEM_20px_m
 10
1131.388386970214
 20
-1042.5695
 30
0.0
  0
VERTEX
  8
DEM_20px_m
 10
1153.1458559504104
 20
-1042.8822
 30
0.0
  0
VERTEX
  8
DEM_20px_m
 10
1174.9033249306067
 20
-1044.0417
 30
0.0
  0
VERTEX
  8
DEM_20px_m
 10
1196.6607939108032
 20
-1045.3958
 30
0.0
  0
VERTEX
  8
DEM_20px_m
 10
1218.4182628909996
 20
-1046.3949
 30
0.0
  0
VERTEX
  8
DEM_20px_m
 10
1240.175731871196
 20
-1047.9238
 30
0.0
  0
VERTEX
  8
DEM_20px_m
 10
1261.9332008513925
 20
-1049.0011
 30
0.0
  0
VERTEX
  8
DEM_20px_m
 10
1283.6906698315888
 20
-1050.3995
 30
0.0
  0
VERTEX
  8
DEM_20px_m
 10
1305.4481388117852
 20
-1050.961
 30
0.0
  0
VERTEX
  8
DEM_20px_m
 10
1327.2056077919817
 20
-1051.9185
 30
0.0
  0
VERTEX
  8
DEM_20px_m
 10
1348.963076772178
 20
-1052.8855
 30
0.0
  0
VERTEX
  8
DEM_20px_m
 10
1370.7205457523746
 20
-1053.1616
 30
0.0
  0
VERTEX
  8
DEM_20px_m
 10
1392.478014732571
 20
-1054.0308
 30
0.0
  0
VERTEX
  8
DEM_20px_m
 10
1414.2354837127673
 20
-1054.3908
 30
0.0
  0
VERTEX
  8
DEM_20px_m
 10
1435.9929526929639
 20
-1055.3504
 30
0.0
  0
VERTEX
  8
DEM_20px_m
 10
1457.7504216731602
 20
-1055.8385
 30
0.0
  0
VERTEX
  8
DEM_20px_m
 10
1479.5078906533568
 20
-1056.9451
 30
0.0
  0
VERTEX
  8
DEM_20px_m
 10
1501.265359633553
 20
-1058.0688
 30
0.0
  0
VERTEX
  8
DEM_20px_m
 10
1523.0228286137494
 20
-1059.1816
 30
0.0
  0
VERTEX
  8
DEM_20px_m
 10
1544.780297593946
 20
-1060.129
 30
0.0
  0
VERTEX
  8
DEM_20px_m
 10
1566.5377665741423
 20
-1060.7906
 30
0.0
  0
VERTEX
  8
DEM_20px_m
 10
1588.2952355543387
 20
-1061.4888
 30
0.0
  0
VERTEX
  8
DEM_20px_m
 10
1610.0527045345352
 20
-1061.7955
 30
0.0
  0
VERTEX
  8
DEM_20px_m
 10
1631.8101735147316
 20
-1062.6952
 30
0.0
  0
VERTEX
  8
DEM_20px_m
 10
1653.567642494928
 20
-1063.6092
 30
0.0
  0
VERTEX
  8
DEM_20px_m
 10
1675.3251114751245
 20
-1064.4461
 30
0.0
  0
VERTEX
  8
DEM_20px_m
 10
1697.0825804553208
 20
-1065.4228
 30
0.0
  0
VERTEX
  8
DEM_20px_m
 10
1718.8400494355174
 20
-1066.0153
 30
0.0
  0
VERTEX
  8
DEM_20px_m
 10
1740.5975184157137
 20
-1066.8756
 30
0.0
  0
VERTEX
  8
DEM_20px_m
 10
1762.35498739591
 20
-1067.7359
 30
0.0
  0
VERTEX
  8
DEM_20px_m
 10
1784.1124563761066
 20
-1068.6484
 30
0.0
  0
VERTEX
  8
DEM_20px_m
 10
1805.869925356303
 20
-1069.5826
 30
0.0
  0
VERTEX
  8
DEM_20px_m
 10
1827.6273943364995
 20
-1070.4853
 30
0.0
  0
VERTEX
  8
DEM_20px_m
 10
1849.3848633166958
 20
-1071.3129
 30
0.0
  0
VERTEX
  8
DEM_20px_m
 10
1871.1423322968922
 20
-1072.1425
 30
0.0
  0
VERTEX
  8
DEM_20px_m
 10
1892.8998012770887
 20
-1072.9526
 30
0.0
  0
VERTEX
  8
DEM_20px_m
 10
1914.657270257285
 20
-1073.6776
 30
0.0
  0
VERTEX
  8
DEM_20px_m
 10
1936.4147392374814
 20
-1074.1477
 30
0.0
  0
VERTEX
  8
DEM_20px_m
 10
1958.172208217678
 20
-1074.7026
 30
0.0
  0
VERTEX
  8
DEM_20px_m
 10
1979.9296771978743
 20
-1075.0
 30
0.0
  0
VERTEX
  8
DEM_20px_m
 10
2001.6871461780706
 20
-1075.7302
 30
0.0
  0
VERTEX
  8
DEM_20px_m
 10
2023.4446151582672
 20
-1076.5381
 30
0.0
  0
VERTEX
  8
DEM_20px_m
 10
2045.2020841384635
 20
-1077.4048
 30
0.0
  0
VERTEX
  8
DEM_20px_m
 10
2066.95955311866
 20
-1078.2715
 30
0.0
  0
VERTEX
  8
DEM_20px_m
 10
2088.7170220988564
 20
-1078.4692
 30
0.0
  0
VERTEX
  8
DEM_20px_m
 10
2110.4744910790528
 20
-1079.1727
 30
0.0
  0
VERTEX
  8
DEM_20px_m
 10
2132.231960059249
 20
-1079.4599
 30
0.0
  0
VERTEX
  8
DEM_20px_m
 10
2153.989429039446
 20
-1080.3366
 30
0.0
  0
VERTEX
  8
DEM_20px_m
 10
2175.7468980196422
 20
-1081.0144
 30
0.0
  0
VERTEX
  8
DEM_20px_m
 10
2197.5043669998386
 20
-1081.973
 30
0.0
  0
VERTEX
  8
DEM_20px_m
 10
2219.261835980035
 20
-1082.9315
 30
0.0
  0
VERTEX
  8
DEM_20px_m
 10
2241.0193049602312
 20
-1083.7371
 30
0.0
  0
VERTEX
  8
DEM_20px_m
 10
2262.776773940428
 20
-1084.8494
 30
0.0
  0
VERTEX
  8
DEM_20px_m
 10
2284.5342429206244
 20
-1085.4091
 30
0.0
  0
VERTEX
  8
DEM_20px_m
 10
2306.2917119008207
 20
-1086.3514
 30
0.0
  0
VERTEX
  8
DEM_20px_m
 10
2328.049180881017
 20
-1087.2821
 30
0.0
  0
VERTEX
  8
DEM_20px_m
 10
2349.8066498612134
 20
-1087.8584
 30
0.0
  0
VERTEX
  8
DEM_20px_m
 10
2371.5641188414097
 20
-1088.7291
 30
0.0
  0
VERTEX
  8
DEM_20px_m
 10
2393.3215878216065
 20
-1088.6251
 30
0.0
  0
VERTEX
  8
DEM_20px_m
 10
2415.079056801803
 20
-1089.4175
 30
0.0
  0
VERTEX
  8
DEM_20px_m
 10
2436.836525781999
 20
-1089.9483
 30
0.0
  0
VERTEX
  8
DEM_20px_m
 10
2458.5939947621955
 20
-1090.6123
 30
0.0
  0
VERTEX
  8
DEM_20px_m
 10
2480.351463742392
 20
-1091.3801
 30
0.0
  0
VERTEX
  8
DEM_20px_m
 10
2502.1089327225886
 20
-1091.5607
 30
0.0
  0
VERTEX
  8
DEM_20px_m
 10
2523.866401702785
 20
-1092.5093
 30
0.0
  0
VERTEX
  8
DEM_20px_m
 10
2545.6238706829813
 20
-1092.6076
 30
0.0
  0
VERTEX
  8
DEM_20px_m
 10
2567.3813396631776
 20
-1093.2922
 30
0.0
  0
VERTEX
  8
DEM_20px_m
 10
2589.138808643374
 20
-1092.9495
 30
0.0
  0
VERTEX
  8
DEM_20px_m
 10
2610.8962776235703
 20
-1093.7808
 30
0.0
  0
VERTEX
  8
DEM_20px_m
 10
2632.653746603767
 20
-1094.8496
 30
0.0
  0
VERTEX
  8
DEM_20px_m
 10
2654.4112155839634
 20
-1094.6103
 30
0.0
  0
VERTEX
  8
DEM_20px_m
 10
2676.16868456416
 20
-1095.249
 30
0.0
  0
VERTEX
  8
DEM_20px_m
 10
2697.926153544356
 20
-1094.9814
 30
0.0
  0
VERTEX
  8
DEM_20px_m
 10
2719.6836225245524
 20
-1095.5961
 30
0.0
  0
VERTEX
  8
DEM_20px_m
 10
2741.4410915047492
 20
-1095.4071
 30
0.0
  0
VERTEX
  8
DEM_20px_m
 10
2763.1985604849456
 20
-1096.3136
 30
0.0
  0
VERTEX
  8
DEM_20px_m
 10
2784.956029465142
 20
-1097.1032
 30
0.0
  0
VERTEX
  8
DEM_20px_m
 10
2806.7134984453382
 20
-1097.3149
 30
0.0
  0
VERTEX
  8
DEM_20px_m
 10
2828.4709674255346
 20
-1098.2336
 30
0.0
  0
VERTEX
  8
DEM_20px_m
 10
2850.2284364057314
 20
-1098.1778
 30
0.0
  0
VERTEX
  8
DEM_20px_m
 10
2871.9859053859277
 20
-1099.0451
 30
0.0
  0
VERTEX
  8
DEM_20px_m
 10
2893.743374366124
 20
-1098.6259
 30
0.0
  0
VERTEX
  8
DEM_20px_m
 10
2915.5008433463204
 20
-1099.5769
 30
0.0
  0
VERTEX
  8
DEM_20px_m
 10
2937.2583123265167
 20
-1100.5553
 30
0.0
  0
VERTEX
  8
DEM_20px_m
 10
2959.0157813067135
 20
-1100.9827
 30
0.0
  0
VERTEX
  8
DEM_20px_m
 10
2980.77325028691
 20
-1101.8609
 30
0.0
  0
VERTEX
  8
DEM_20px_m
 10
3002.530719267106
 20
-1101.7945
 30
0.0
  0
VERTEX
  8
DEM_20px_m
 10
3024.2881882473025
 20
-1102.2835
 30
0.0
  0
VERTEX
  8
DEM_20px_m
 10
3046.045657227499
 20
-1103.2585
 30
0.0
  0
VERTEX
  8
DEM_20px_m
 10
3067.803126207695
 20
-1102.4681
 30
0.0
  0
VERTEX
  8
DEM_20px_m
 10
3089.560595187892
 20
-1103.0227
 30
0.0
  0
VERTEX
  8
DEM_20px_m
 10
3111.3180641680883
 20
-1102.2146
 30
0.0
  0
VERTEX
  8
DEM_20px_m
 10
3133.0755331482846
 20
-1103.098
 30
0.0
  0
VERTEX
  8
DEM_20px_m
 10
3154.833002128481
 20
-1102.9393
 30
0.0
  0
VERTEX
  8
DEM_20px_m
 10
3176.5904711086773
 20
-1103.6212
 30
0.0
  0
VERTEX
  8
DEM_20px_m
 10
3198.347940088874
 20
-1103.9636
 30
0.0
  0
VERTEX
  8
DEM_20px_m
 10
3220.1054090690704
 20
-1103.2686
 30
0.0
  0
VERTEX
  8
DEM_20px_m
 10
3241.862878049267
 20
-1103.5881
 30
0.0
  0
VERTEX
  8
DEM_20px_m
 10
3263.620347029463
 20
-1103.2412
 30
0.0
  0
VERTEX
  8
DEM_20px_m
 10
3285.3778160096595
 20
-1103.7528
 30
0.0
  0
VERTEX
  8
DEM_20px_m
 10
3307.135284989856
 20
-1103.4538
 30
0.0
  0
VERTEX
  8
DEM_20px_m
 10
3328.8927539700526
 20
-1103.9189
 30
0.0
  0
VERTEX
  8
DEM_20px_m
 10
3350.650222950249
 20
-1104.274
 30
0.0
  0
VERTEX
  8
DEM_20px_m
 10
3372.4076919304453
 20
-1103.7723
 30
0.0
  0
VERTEX
  8
DEM_20px_m
 10
3394.1651609106416
 20
-1104.3593
 30
0.0
  0
VERTEX
  8
DEM_20px_m
 10
3415.922629890838
 20
-1104.122
 30
0.0
  0
VERTEX
  8
DEM_20px_m
 10
3437.6800988710347
 20
-1104.8619
 30
0.0
  0
VERTEX
  8
DEM_20px_m
 10
3459.437567851231
 20
-1105.0597
 30
0.0
  0
VERTEX
  8
DEM_20px_m
 10
3481.1950368314274
 20
-1106.1767
 30
0.0
  0
VERTEX
  8
DEM_20px_m
 10
3502.9525058116237
 20
-1107.2922
 30
0.0
  0
VERTEX
  8
DEM_20px_m
 10
3524.70997479182
 20
-1107.7169
 30
0.0
  0
VERTEX
  8
DEM_20px_m
 10
3546.467443772017
 20
-1108.8022
 30
0.0
  0
VERTEX
  8
DEM_20px_m
 10
3568.224912752213
 20
-1109.1155
 30
0.0
  0
VERTEX
  8
DEM_20px_m
 10
3589.9823817324095
 20
-1110.2185
 30
0.0
  0
VERTEX
  8
DEM_20px_m
 10
3611.739850712606
 20
-1111.592
 30
0.0
  0
VERTEX
  8
DEM_20px_m
 10
3633.497319692802
 20
-1112.1889
 30
0.0
  0
VERTEX
  8
DEM_20px_m
 10
3655.254788672999
 20
-1113.6276
 30
0.0
  0
VERTEX
  8
DEM_20px_m
 10
3677.0122576531953
 20
-1114.8027
 30
0.0
  0
VERTEX
  8
DEM_20px_m
 10
3698.7697266333917
 20
-1116.7178
 30
0.0
  0
SEQEND
  0
ENDSEC
  0
EOF
