  0
SECTION
  2
HEADER
  9
$ACADVER
  1
AC1009
  9
$INSBASE
 10
0.0
 20
0.0
 30
0.0
  9
$EXTMIN
 10
0.0
 20
0.0
 30
0.0
  9
$EXTMAX
 10
100.0
 20
100.0
 30
0.0
  9
$UNITMODE
 70
0
  9
$AUNITS
 70
0
  9
$ANGBASE
 50
0.0
  9
$ANGDIR
 70
0
  0
ENDSEC
  0
SECTION
  2
TABLES
  0
TABLE
  2
LTYPE
 70
19
  0
LTYPE
  2
CONTINUOUS
 70
0
  3
Solid
 72
65
 73
0
 40
0.0
  0
LTYPE
  2
CENTER
 70
0
  3
Center ____ _ ____ _ ____ _ ____ _ ____ _ ____
 72
65
 73
4
 40
2.0
 49
1.25
 49
-0.25
 49
0.25
 49
-0.25
  0
LTYPE
  2
CENTERX2
 70
0
  3
Center (2x) ________  __  ________  __  ________
 72
65
 73
4
 40
3.5
 49
2.5
 49
-0.25
 49
0.5
 49
-0.25
  0
LTYPE
  2
CENTER2
 70
0
  3
Center (.5x) ____ _ ____ _ ____ _ ____ _ ____
 72
65
 73
4
 40
1.0
 49
0.625
 49
-0.125
 49
0.125
 49
-0.125
  0
LTYPE
  2
DASHED
 70
0
  3
Dashed __ __ __ __ __ __ __ __ __ __ __ __ __ _
 72
65
 73
2
 40
0.6
 49
0.5
 49
-0.1
  0
LTYPE
  2
DASHEDX2
 70
0
  3
Dashed (2x) ____  ____  ____  ____  ____  ____
 72
65
 73
2
 40
1.2
 49
1.0
 49
-0.2
  0
LTYPE
  2
DASHED2
 70
0
  3
Dashed (.5x) _ _ _ _ _ _ _ _ _ _ _ _ _ _
 72
65
 73
2
 40
0.3
 49
0.25
 49
-0.05
  0
LTYPE
  2
PHANTOM
 70
0
  3
Phantom ______  __  __  ______  __  __  ______
 72
65
 73
6
 40
2.5
 49
1.25
 49
-0.25
 49
0.25
 49
-0.25
 49
0.25
 49
-0.25
  0
LTYPE
  2
PHANTOMX2
 70
0
  3
Phantom (2x)____________    ____    ____    ____________
 72
65
 73
6
 40
4.25
 49
2.5
 49
-0.25
 49
0.5
 49
-0.25
 49
0.5
 49
-0.25
  0
LTYPE
  2
PHANTOM2
 70
0
  3
Phantom (.5x) ___ _ _ ___ _ _ ___ _ _ ___ _ _ ___
 72
65
 73
6
 40
1.25
 49
0.625
 49
-0.125
 49
0.125
 49
-0.125
 49
0.125
 49
-0.125
  0
LTYPE
  2
DASHDOT
 70
0
  3
Dash dot __ . __ . __ . __ . __ . __ . __ . __
 72
65
 73
4
 40
1.4
 49
1.0
 49
-0.2
 49
0.0
 49
-0.2
  0
LTYPE
  2
DASHDOTX2
 70
0
  3
Dash dot (2x) ____  .  ____  .  ____  .  ____
 72
65
 73
4
 40
2.4
 49
2.0
 49
-0.2
 49
0.0
 49
-0.2
  0
LTYPE
  2
DASHDOT2
 70
0
  3
Dash dot (.5x) _ . _ . _ . _ . _ . _ . _ . _
 72
65
 73
4
 40
0.7
 49
0.5
 49
-0.1
 49
0.0
 49
-0.1
  0
LTYPE
  2
DOT
 70
0
  3
Dot .  .  .  .  .  .  .  .  .  .  .  .  .  .  .  .
 72
65
 73
2
 40
0.2
 49
0.0
 49
-0.2
  0
LTYPE
  2
DOTX2
 70
0
  3
Dot (2x) .    .    .    .    .    .    .    . 
 72
65
 73
2
 40
0.4
 49
0.0
 49
-0.4
  0
LTYPE
  2
DOT2
 70
0
  3
Dot (.5) . . . . . . . . . . . . . . . . . . . 
 72
65
 73
2
 40
0.1
 49
0.0
 49
-0.1
  0
LTYPE
  2
DIVIDE
 70
0
  3
Divide __ . . __ . . __ . . __ . . __ . . __
 72
65
 73
6
 40
1.6
 49
1.0
 49
-0.2
 49
0.0
 49
-0.2
 49
0.0
 49
-0.2
  0
LTYPE
  2
DIVIDEX2
 70
0
  3
Divide (2x) ____  . .  ____  . .  ____  . .  ____
 72
65
 73
6
 40
2.6
 49
2.0
 49
-0.2
 49
0.0
 49
-0.2
 49
0.0
 49
-0.2
  0
LTYPE
  2
DIVIDE2
 70
0
  3
Divide(.5x) _ . _ . _ . _ . _ . _ . _ . _
 72
65
 73
6
 40
0.8
 49
0.5
 49
-0.1
 49
0.0
 49
-0.1
 49
0.0
 49
-0.1
  0
ENDTAB
  0
TABLE
  2
LAYER
 70
6
  0
LAYER
  2
DIMENSIONS
 70
0
 62
1
  6
CONTINUOUS
  0
LAYER
  2
TABLEBACKGROUND
 70
0
 62
1
  6
CONTINUOUS
  0
LAYER
  2
TABLECONTENT
 70
0
 62
1
  6
CONTINUOUS
  0
LAYER
  2
TABLEGRID
 70
0
 62
1
  6
CONTINUOUS
  0
LAYER
  2
VIEWPORTS
 70
0
 62
7
  6
CONTINUOUS
  0
LAYER
  2
DEM_20px_m
 70
0
 62
1
  6
CONTINUOUS
  0
ENDTAB
  0
TABLE
  2
STYLE
 70
12
  0
STYLE
  2
STANDARD
 70
0
 40
0.0
 41
1.0
 42
1.0
 50
0.0
 71
0
  3
arial.ttf
  4

  0
STYLE
  2
ARIAL
 70
0
 40
0.0
 41
1.0
 42
1.0
 50
0.0
 71
0
  3
arial.ttf
  4

  0
STYLE
  2
ARIAL_BOLD
 70
0
 40
0.0
 41
1.0
 42
1.0
 50
0.0
 71
0
  3
arialbd.ttf
  4

  0
STYLE
  2
ARIAL_ITALIC
 70
0
 40
0.0
 41
1.0
 42
1.0
 50
0.0
 71
0
  3
ariali.ttf
  4

  0
STYLE
  2
ARIAL_BOLD_ITALIC
 70
0
 40
0.0
 41
1.0
 42
1.0
 50
0.0
 71
0
  3
arialbi.ttf
  4

  0
STYLE
  2
ARIAL_BLACK
 70
0
 40
0.0
 41
1.0
 42
1.0
 50
0.0
 71
0
  3
ariblk.ttf
  4

  0
STYLE
  2
ISOCPEUR
 70
0
 40
0.0
 41
1.0
 42
1.0
 50
0.0
 71
0
  3
isocpeur.ttf
  4

  0
STYLE
  2
ISOCPEUR_ITALIC
 70
0
 40
0.0
 41
1.0
 42
1.0
 50
0.0
 71
0
  3
isocpeui.ttf
  4

  0
STYLE
  2
TIMES
 70
0
 40
0.0
 41
1.0
 42
1.0
 50
0.0
 71
0
  3
times.ttf
  4

  0
STYLE
  2
TIMES_BOLD
 70
0
 40
0.0
 41
1.0
 42
1.0
 50
0.0
 71
0
  3
timesbd.ttf
  4

  0
STYLE
  2
TIMES_ITALIC
 70
0
 40
0.0
 41
1.0
 42
1.0
 50
0.0
 71
0
  3
timesi.ttf
  4

  0
STYLE
  2
TIMES_BOLD_ITALIC
 70
0
 40
0.0
 41
1.0
 42
1.0
 50
0.0
 71
0
  3
timesbi.ttf
  4

  0
ENDTAB
  0
TABLE
  2
VIEW
 70
0
  0
ENDTAB
  0
TABLE
  2
APPID
 70
1
  0
APPID
  2
DXFWRITE
 70
0
  0
ENDTAB
  0
TABLE
  2
VPORT
 70
0
  0
ENDTAB
  0
TABLE
  2
UCS
 70
0
  0
ENDTAB
  0
ENDSEC
  0
SECTION
  2
BLOCKS
  0
ENDSEC
  0
SECTION
  2
ENTITIES
  0
VIEWPORT
  8
VIEWPORTS
 67
1
 10
0.0
 20
0.0
 30
0.0
 40
1.0
 41
1.0
 68
1
 69
1
1001
ACAD
1000
MVIEW
1002
{
1070
16
1010
0.0
1020
0.0
1030
0.0
1010
0.0
1020
0.0
1030
0.0
1040
0.0
1040
1.0
1040
0.0
1040
0.0
1040
50.0
1040
0.0
1040
0.0
1070
0
1070
100
1070
1
1070
3
1070
0
1070
0
1070
0
1070
0
1040
0.0
1040
0.0
1040
0.0
1040
0.1
1040
0.1
1040
0.1
1040
0.1
1070
0
1002
{
1002
}
1002
}
  0
POLYLINE
 62
7
  8
DEM_20px_m
 66
1
 10
0.0
 20
0.0
 30
0.0
 70
8
  0
VERTEX
  8
DEM_20px_m
 10
0.0
 20
29.543713
 30
0.0
  0
VERTEX
  8
DEM_20px_m
 10
20.284160072951966
 20
28.550204
 30
0.0
  0
VERTEX
  8
DEM_20px_m
 10
40.56832014590393
 20
27.556696
 30
0.0
  0
VERTEX
  8
DEM_20px_m
 10
60.8524802188559
 20
27.581453
 30
0.0
  0
VERTEX
  8
DEM_20px_m
 10
81.13664029180786
 20
25.427239
 30
0.0
  0
VERTEX
  8
DEM_20px_m
 10
101.42080036475983
 20
25.0
 30
0.0
  0
VERTEX
  8
DEM_20px_m
 10
121.7049604377118
 20
22.088519
 30
0.0
  0
VERTEX
  8
DEM_20px_m
 10
141.98912051066375
 20
20.0
 30
0.0
  0
VERTEX
  8
DEM_20px_m
 10
162.27328058361573
 20
18.584329
 30
0.0
  0
VERTEX
  8
DEM_20px_m
 10
182.5574406565677
 20
18.33949
 30
0.0
  0
VERTEX
  8
DEM_20px_m
 10
202.84160072951966
 20
21.182966
 30
0.0
  0
VERTEX
  8
DEM_20px_m
 10
223.12576080247163
 20
15.0
 30
0.0
  0
VERTEX
  8
DEM_20px_m
 10
243.4099208754236
 20
19.091094
 30
0.0
  0
VERTEX
  8
DEM_20px_m
 10
263.6940809483756
 20
24.158224
 30
0.0
  0
VERTEX
  8
DEM_20px_m
 10
283.9782410213275
 20
28.607072
 30
0.0
  0
VERTEX
  8
DEM_20px_m
 10
304.2624010942795
 20
33.247405
 30
0.0
  0
VERTEX
  8
DEM_20px_m
 10
324.54656116723146
 20
34.185048
 30
0.0
  0
VERTEX
  8
DEM_20px_m
 10
344.83072124018344
 20
28.549351
 30
0.0
  0
VERTEX
  8
DEM_20px_m
 10
365.1148813131354
 20
31.452971
 30
0.0
  0
VERTEX
  8
DEM_20px_m
 10
385.39904138608733
 20
32.76146
 30
0.0
  0
VERTEX
  8
DEM_20px_m
 10
405.6832014590393
 20
31.078595
 30
0.0
  0
VERTEX
  8
DEM_20px_m
 10
425.9673615319913
 20
30.0
 30
0.0
  0
VERTEX
  8
DEM_20px_m
 10
446.25152160494326
 20
30.739188
 30
0.0
  0
VERTEX
  8
DEM_20px_m
 10
466.53568167789524
 20
32.576865
 30
0.0
  0
VERTEX
  8
DEM_20px_m
 10
486.8198417508472
 20
31.288532
 30
0.0
  0
VERTEX
  8
DEM_20px_m
 10
507.10400182379914
 20
30.0
 30
0.0
  0
VERTEX
  8
DEM_20px_m
 10
527.3881618967512
 20
30.0
 30
0.0
  0
VERTEX
  8
DEM_20px_m
 10
547.672321969703
 20
30.169213
 30
0.0
  0
VERTEX
  8
DEM_20px_m
 10
567.956482042655
 20
30.414388
 30
0.0
  0
VERTEX
  8
DEM_20px_m
 10
588.240642115607
 20
29.078639
 30
0.0
  0
VERTEX
  8
DEM_20px_m
 10
608.524802188559
 20
28.893208
 30
0.0
  0
VERTEX
  8
DEM_20px_m
 10
628.8089622615109
 20
25.0
 30
0.0
  0
VERTEX
  8
DEM_20px_m
 10
649.0931223344629
 20
25.0
 30
0.0
  0
VERTEX
  8
DEM_20px_m
 10
669.3772824074149
 20
21.05381
 30
0.0
  0
VERTEX
  8
DEM_20px_m
 10
689.6614424803669
 20
19.801923
 30
0.0
  0
VERTEX
  8
DEM_20px_m
 10
709.9456025533188
 20
16.618032
 30
0.0
  0
VERTEX
  8
DEM_20px_m
 10
730.2297626262708
 20
15.0
 30
0.0
  0
VERTEX
  8
DEM_20px_m
 10
750.5139226992228
 20
14.226303
 30
0.0
  0
VERTEX
  8
DEM_20px_m
 10
770.7980827721747
 20
11.081999
 30
0.0
  0
VERTEX
  8
DEM_20px_m
 10
791.0822428451266
 20
10.065741
 30
0.0
  0
VERTEX
  8
DEM_20px_m
 10
811.3664029180786
 20
10.0
 30
0.0
  0
VERTEX
  8
DEM_20px_m
 10
831.6505629910306
 20
9.9221224
 30
0.0
  0
VERTEX
  8
DEM_20px_m
 10
851.9347230639826
 20
8.7735635
 30
0.0
  0
VERTEX
  8
DEM_20px_m
 10
872.2188831369346
 20
7.6250046
 30
0.0
  0
VERTEX
  8
DEM_20px_m
 10
892.5030432098865
 20
6.7113593
 30
0.0
  0
VERTEX
  8
DEM_20px_m
 10
912.7872032828385
 20
5.7428929
 30
0.0
  0
VERTEX
  8
DEM_20px_m
 10
933.0713633557905
 20
5.1037826
 30
0.0
  0
VERTEX
  8
DEM_20px_m
 10
953.3555234287425
 20
6.0784367
 30
0.0
  0
VERTEX
  8
DEM_20px_m
 10
973.6396835016944
 20
5.0
 30
0.0
  0
VERTEX
  8
DEM_20px_m
 10
993.9238435746463
 20
5.0
 30
0.0
  0
VERTEX
  8
DEM_20px_m
 10
1014.2080036475983
 20
5.0
 30
0.0
  0
VERTEX
  8
DEM_20px_m
 10
1034.4921637205503
 20
5.0
 30
0.0
  0
VERTEX
  8
DEM_20px_m
 10
1054.7763237935023
 20
5.0
 30
0.0
  0
VERTEX
  8
DEM_20px_m
 10
1075.0604838664542
 20
5.0
 30
0.0
  0
VERTEX
  8
DEM_20px_m
 10
1095.344643939406
 20
5.0
 30
0.0
  0
VERTEX
  8
DEM_20px_m
 10
1115.6288040123582
 20
5.0
 30
0.0
  0
VERTEX
  8
DEM_20px_m
 10
1135.91296408531
 20
5.0
 30
0.0
  0
VERTEX
  8
DEM_20px_m
 10
1156.197124158262
 20
5.0
 30
0.0
  0
VERTEX
  8
DEM_20px_m
 10
1176.481284231214
 20
5.0
 30
0.0
  0
VERTEX
  8
DEM_20px_m
 10
1196.765444304166
 20
5.0
 30
0.0
  0
VERTEX
  8
DEM_20px_m
 10
1217.049604377118
 20
4.9419467
 30
0.0
  0
VERTEX
  8
DEM_20px_m
 10
1237.33376445007
 20
4.4598818
 30
0.0
  0
VERTEX
  8
DEM_20px_m
 10
1257.6179245230219
 20
3.9778168
 30
0.0
  0
VERTEX
  8
DEM_20px_m
 10
1277.902084595974
 20
3.4957518
 30
0.0
  0
VERTEX
  8
DEM_20px_m
 10
1298.1862446689258
 20
3.0136869
 30
0.0
  0
VERTEX
  8
DEM_20px_m
 10
1318.4704047418777
 20
2.5930772
 30
0.0
  0
VERTEX
  8
DEM_20px_m
 10
1338.7545648148298
 20
2.1110122
 30
0.0
  0
VERTEX
  8
DEM_20px_m
 10
1359.0387248877817
 20
1.6289473
 30
0.0
  0
VERTEX
  8
DEM_20px_m
 10
1379.3228849607337
 20
1.1468823
 30
0.0
  0
VERTEX
  8
DEM_20px_m
 10
1399.6070450336856
 20
0.66481736
 30
0.0
  0
VERTEX
  8
DEM_20px_m
 10
1419.8912051066377
 20
0.1827524
 30
0.0
  0
VERTEX
  8
DEM_20px_m
 10
1440.1753651795896
 20
-0.23785728
 30
0.0
  0
VERTEX
  8
DEM_20px_m
 10
1460.4595252525417
 20
-0.71992224
 30
0.0
  0
VERTEX
  8
DEM_20px_m
 10
1480.7436853254935
 20
-1.2019872
 30
0.0
  0
VERTEX
  8
DEM_20px_m
 10
1501.0278453984456
 20
-1.6840522
 30
0.0
  0
VERTEX
  8
DEM_20px_m
 10
1521.3120054713975
 20
-2.1661171
 30
0.0
  0
VERTEX
  8
DEM_20px_m
 10
1541.5961655443493
 20
-2.6476833
 30
0.0
  0
VERTEX
  8
DEM_20px_m
 10
1561.8803256173014
 20
-2.9861497
 30
0.0
  0
VERTEX
  8
DEM_20px_m
 10
1582.1644856902533
 20
-3.423187
 30
0.0
  0
VERTEX
  8
DEM_20px_m
 10
1602.4486457632054
 20
-3.8583733
 30
0.0
  0
VERTEX
  8
DEM_20px_m
 10
1622.7328058361572
 20
-4.2925196
 30
0.0
  0
VERTEX
  8
DEM_20px_m
 10
1643.0169659091093
 20
-4.6981568
 30
0.0
  0
VERTEX
  8
DEM_20px_m
 10
1663.3011259820612
 20
-5.0
 30
0.0
  0
VERTEX
  8
DEM_20px_m
 10
1683.5852860550133
 20
-5.0
 30
0.0
  0
VERTEX
  8
DEM_20px_m
 10
1703.8694461279651
 20
-5.0
 30
0.0
  0
VERTEX
  8
DEM_20px_m
 10
1724.1536062009172
 20
-5.0
 30
0.0
  0
VERTEX
  8
DEM_20px_m
 10
1744.437766273869
 20
-5.0
 30
0.0
  0
VERTEX
  8
DEM_20px_m
 10
1764.721926346821
 20
-5.0
 30
0.0
  0
VERTEX
  8
DEM_20px_m
 10
1785.006086419773
 20
-5.0
 30
0.0
  0
VERTEX
  8
DEM_20px_m
 10
1805.290246492725
 20
-5.0
 30
0.0
  0
VERTEX
  8
DEM_20px_m
 10
1825.574406565677
 20
-5.0
 30
0.0
  0
VERTEX
  8
DEM_20px_m
 10
1845.8585666386289
 20
-5.0
 30
0.0
  0
VERTEX
  8
DEM_20px_m
 10
1866.142726711581
 20
-5.1967182
 30
0.0
  0
VERTEX
  8
DEM_20px_m
 10
1886.4268867845328
 20
-5.6606675
 30
0.0
  0
VERTEX
  8
DEM_20px_m
 10
1906.711046857485
 20
-5.950207
 30
0.0
  0
VERTEX
  8
DEM_20px_m
 10
1926.9952069304368
 20
-6.5282364
 30
0.0
  0
VERTEX
  8
DEM_20px_m
 10
1947.2793670033889
 20
-6.8177759
 30
0.0
  0
VERTEX
  8
DEM_20px_m
 10
1967.5635270763407
 20
-7.1073154
 30
0.0
  0
VERTEX
  8
DEM_20px_m
 10
1987.8476871492926
 20
-7.396855
 30
0.0
  0
VERTEX
  8
DEM_20px_m
 10
2008.1318472222447
 20
-7.6863945
 30
0.0
  0
VERTEX
  8
DEM_20px_m
 10
2028.4160072951966
 20
-7.9759341
 30
0.0
  0
VERTEX
  8
DEM_20px_m
 10
2048.7001673681484
 20
-8.5539634
 30
0.0
  0
VERTEX
  8
DEM_20px_m
 10
2068.9843274411005
 20
-8.8435029
 30
0.0
  0
VERTEX
  8
DEM_20px_m
 10
2089.2684875140526
 20
-9.1330425
 30
0.0
  0
VERTEX
  8
DEM_20px_m
 10
2109.5526475870047
 20
-9.422582
 30
0.0
  0
VERTEX
  8
DEM_20px_m
 10
2129.8368076599563
 20
-9.7121216
 30
0.0
  0
VERTEX
  8
DEM_20px_m
 10
2150.1209677329084
 20
-10.0
 30
0.0
  0
VERTEX
  8
DEM_20px_m
 10
2170.4051278058605
 20
-10.0
 30
0.0
  0
VERTEX
  8
DEM_20px_m
 10
2190.689287878812
 20
-10.0
 30
0.0
  0
VERTEX
  8
DEM_20px_m
 10
2210.9734479517642
 20
-10.0
 30
0.0
  0
VERTEX
  8
DEM_20px_m
 10
2231.2576080247163
 20
-10.0
 30
0.0
  0
VERTEX
  8
DEM_20px_m
 10
2251.5417680976684
 20
-10.0
 30
0.0
  0
VERTEX
  8
DEM_20px_m
 10
2271.82592817062
 20
-10.0
 30
0.0
  0
VERTEX
  8
DEM_20px_m
 10
2292.110088243572
 20
-10.0
 30
0.0
  0
VERTEX
  8
DEM_20px_m
 10
2312.394248316524
 20
-10.0
 30
0.0
  0
VERTEX
  8
DEM_20px_m
 10
2332.6784083894763
 20
-10.0
 30
0.0
  0
VERTEX
  8
DEM_20px_m
 10
2352.962568462428
 20
-10.0
 30
0.0
  0
VERTEX
  8
DEM_20px_m
 10
2373.24672853538
 20
-10.0
 30
0.0
  0
VERTEX
  8
DEM_20px_m
 10
2393.530888608332
 20
-10.0
 30
0.0
  0
VERTEX
  8
DEM_20px_m
 10
2413.8150486812838
 20
-10.0
 30
0.0
  0
VERTEX
  8
DEM_20px_m
 10
2434.099208754236
 20
-10.0
 30
0.0
  0
VERTEX
  8
DEM_20px_m
 10
2454.383368827188
 20
-10.0
 30
0.0
  0
VERTEX
  8
DEM_20px_m
 10
2474.66752890014
 20
-10.0
 30
0.0
  0
VERTEX
  8
DEM_20px_m
 10
2494.9516889730917
 20
-10.0
 30
0.0
  0
VERTEX
  8
DEM_20px_m
 10
2515.2358490460438
 20
-10.0
 30
0.0
  0
VERTEX
  8
DEM_20px_m
 10
2535.520009118996
 20
-10.0
 30
0.0
  0
VERTEX
  8
DEM_20px_m
 10
2555.804169191948
 20
-10.0
 30
0.0
  0
VERTEX
  8
DEM_20px_m
 10
2576.0883292648996
 20
-10.0
 30
0.0
  0
VERTEX
  8
DEM_20px_m
 10
2596.3724893378517
 20
-10.0
 30
0.0
  0
VERTEX
  8
DEM_20px_m
 10
2616.6566494108038
 20
-10.0
 30
0.0
  0
VERTEX
  8
DEM_20px_m
 10
2636.9408094837554
 20
-10.0
 30
0.0
  0
VERTEX
  8
DEM_20px_m
 10
2657.2249695567075
 20
-10.0
 30
0.0
  0
VERTEX
  8
DEM_20px_m
 10
2677.5091296296596
 20
-10.0
 30
0.0
  0
VERTEX
  8
DEM_20px_m
 10
2697.7932897026117
 20
-10.150141
 30
0.0
  0
VERTEX
  8
DEM_20px_m
 10
2718.0774497755633
 20
-10.315272
 30
0.0
  0
VERTEX
  8
DEM_20px_m
 10
2738.3616098485154
 20
-10.480404
 30
0.0
  0
VERTEX
  8
DEM_20px_m
 10
2758.6457699214675
 20
-10.645535
 30
0.0
  0
VERTEX
  8
DEM_20px_m
 10
2778.9299299944196
 20
-10.767086
 30
0.0
  0
VERTEX
  8
DEM_20px_m
 10
2799.214090067371
 20
-10.932665
 30
0.0
  0
VERTEX
  8
DEM_20px_m
 10
2819.4982501403233
 20
-11.097784
 30
0.0
  0
VERTEX
  8
DEM_20px_m
 10
2839.7824102132754
 20
-11.262575
 30
0.0
  0
VERTEX
  8
DEM_20px_m
 10
2860.066570286227
 20
-11.424379
 30
0.0
  0
VERTEX
  8
DEM_20px_m
 10
2880.350730359179
 20
-11.585714
 30
0.0
  0
VERTEX
  8
DEM_20px_m
 10
2900.634890432131
 20
-11.699775
 30
0.0
  0
VERTEX
  8
DEM_20px_m
 10
2920.9190505050833
 20
-11.85899
 30
0.0
  0
VERTEX
  8
DEM_20px_m
 10
2941.203210578035
 20
-12.014351
 30
0.0
  0
VERTEX
  8
DEM_20px_m
 10
2961.487370650987
 20
-12.138836
 30
0.0
  0
VERTEX
  8
DEM_20px_m
 10
2981.771530723939
 20
-12.263319
 30
0.0
  0
VERTEX
  8
DEM_20px_m
 10
3002.055690796891
 20
-12.387803
 30
0.0
  0
VERTEX
  8
DEM_20px_m
 10
3022.339850869843
 20
-12.475332
 30
0.0
  0
VERTEX
  8
DEM_20px_m
 10
3042.624010942795
 20
-12.603066
 30
0.0
  0
VERTEX
  8
DEM_20px_m
 10
3062.908171015747
 20
-12.735557
 30
0.0
  0
VERTEX
  8
DEM_20px_m
 10
3083.1923310886987
 20
-12.866465
 30
0.0
  0
VERTEX
  8
DEM_20px_m
 10
3103.4764911616508
 20
-12.995785
 30
0.0
  0
VERTEX
  8
DEM_20px_m
 10
3123.760651234603
 20
-13.125227
 30
0.0
  0
VERTEX
  8
DEM_20px_m
 10
3144.044811307555
 20
-13.232754
 30
0.0
  0
VERTEX
  8
DEM_20px_m
 10
3164.3289713805066
 20
-13.364253
 30
0.0
  0
VERTEX
  8
DEM_20px_m
 10
3184.6131314534587
 20
-13.495753
 30
0.0
  0
VERTEX
  8
DEM_20px_m
 10
3204.8972915264108
 20
-13.627186
 30
0.0
  0
VERTEX
  8
DEM_20px_m
 10
3225.181451599363
 20
-13.758144
 30
0.0
  0
VERTEX
  8
DEM_20px_m
 10
3245.4656116723145
 20
-13.889101
 30
0.0
  0
VERTEX
  8
DEM_20px_m
 10
3265.7497717452666
 20
-13.984362
 30
0.0
  0
VERTEX
  8
DEM_20px_m
 10
3286.0339318182187
 20
-14.130575
 30
0.0
  0
VERTEX
  8
DEM_20px_m
 10
3306.3180918911703
 20
-14.279332
 30
0.0
  0
VERTEX
  8
DEM_20px_m
 10
3326.6022519641224
 20
-14.428089
 30
0.0
  0
VERTEX
  8
DEM_20px_m
 10
3346.8864120370745
 20
-14.576845
 30
0.0
  0
VERTEX
  8
DEM_20px_m
 10
3367.1705721100266
 20
-14.725245
 30
0.0
  0
VERTEX
  8
DEM_20px_m
 10
3387.454732182978
 20
-14.845557
 30
0.0
  0
VERTEX
  8
DEM_20px_m
 10
3407.7388922559303
 20
-14.996968
 30
0.0
  0
VERTEX
  8
DEM_20px_m
 10
3428.0230523288824
 20
-15.148379
 30
0.0
  0
VERTEX
  8
DEM_20px_m
 10
3448.3072124018345
 20
-15.304925
 30
0.0
  0
VERTEX
  8
DEM_20px_m
 10
3468.591372474786
 20
-15.469688
 30
0.0
  0
VERTEX
  8
DEM_20px_m
 10
3488.875532547738
 20
-15.63445
 30
0.0
  0
VERTEX
  8
DEM_20px_m
 10
3509.1596926206903
 20
-15.787178
 30
0.0
  0
VERTEX
  8
DEM_20px_m
 10
3529.443852693642
 20
-15.958048
 30
0.0
  0
VERTEX
  8
DEM_20px_m
 10
3549.728012766594
 20
-16.115084
 30
0.0
  0
VERTEX
  8
DEM_20px_m
 10
3570.012172839546
 20
-16.259875
 30
0.0
  0
VERTEX
  8
DEM_20px_m
 10
3590.296332912498
 20
-16.408333
 30
0.0
  0
VERTEX
  8
DEM_20px_m
 10
3610.58049298545
 20
-16.55679
 30
0.0
  0
VERTEX
  8
DEM_20px_m
 10
3630.864653058402
 20
-16.683736
 30
0.0
  0
VERTEX
  8
DEM_20px_m
 10
3651.148813131354
 20
-16.826105
 30
0.0
  0
VERTEX
  8
DEM_20px_m
 10
3671.432973204306
 20
-16.968473
 30
0.0
  0
VERTEX
  8
DEM_20px_m
 10
3691.7171332772577
 20
-17.110842
 30
0.0
  0
VERTEX
  8
DEM_20px_m
 10
3712.00129335021
 20
-17.253211
 30
0.0
  0
VERTEX
  8
DEM_20px_m
 10
3732.285453423162
 20
-17.395579
 30
0.0
  0
VERTEX
  8
DEM_20px_m
 10
3752.5696134961136
 20
-17.511951
 30
0.0
  0
VERTEX
  8
DEM_20px_m
 10
3772.8537735690657
 20
-17.65432
 30
0.0
  0
VERTEX
  8
DEM_20px_m
 10
3793.1379336420177
 20
-17.796688
 30
0.0
  0
VERTEX
  8
DEM_20px_m
 10
3813.42209371497
 20
-17.939057
 30
0.0
  0
VERTEX
  8
DEM_20px_m
 10
3833.7062537879215
 20
-18.050518
 30
0.0
  0
VERTEX
  8
DEM_20px_m
 10
3853.9904138608736
 20
-18.161584
 30
0.0
  0
VERTEX
  8
DEM_20px_m
 10
3874.2745739338256
 20
-18.28113
 30
0.0
  0
VERTEX
  8
DEM_20px_m
 10
3894.5587340067777
 20
-18.391875
 30
0.0
  0
VERTEX
  8
DEM_20px_m
 10
3914.8428940797294
 20
-18.502619
 30
0.0
  0
VERTEX
  8
DEM_20px_m
 10
3935.1270541526815
 20
-18.610688
 30
0.0
  0
VERTEX
  8
DEM_20px_m
 10
3955.4112142256336
 20
-18.705915
 30
0.0
  0
VERTEX
  8
DEM_20px_m
 10
3975.695374298585
 20
-18.801142
 30
0.0
  0
VERTEX
  8
DEM_20px_m
 10
3995.9795343715373
 20
-18.828892
 30
0.0
  0
VERTEX
  8
DEM_20px_m
 10
4016.2636944444894
 20
-18.924119
 30
0.0
  0
VERTEX
  8
DEM_20px_m
 10
4036.5478545174415
 20
-19.019346
 30
0.0
  0
VERTEX
  8
DEM_20px_m
 10
4056.832014590393
 20
-19.114573
 30
0.0
  0
VERTEX
  8
DEM_20px_m
 10
4077.116174663345
 20
-19.209799
 30
0.0
  0
VERTEX
  8
DEM_20px_m
 10
4097.400334736297
 20
-19.305026
 30
0.0
  0
VERTEX
  8
DEM_20px_m
 10
4117.684494809249
 20
-19.323381
 30
0.0
  0
VERTEX
  8
DEM_20px_m
 10
4137.968654882201
 20
-19.412599
 30
0.0
  0
VERTEX
  8
DEM_20px_m
 10
4158.252814955153
 20
-19.474723
 30
0.0
  0
VERTEX
  8
DEM_20px_m
 10
4178.536975028105
 20
-19.507055
 30
0.0
  0
VERTEX
  8
DEM_20px_m
 10
4198.821135101057
 20
-19.55992
 30
0.0
  0
VERTEX
  8
DEM_20px_m
 10
4219.105295174009
 20
-19.618808
 30
0.0
  0
VERTEX
  8
DEM_20px_m
 10
4239.389455246961
 20
-19.576436
 30
0.0
  0
VERTEX
  8
DEM_20px_m
 10
4259.673615319913
 20
-19.687639
 30
0.0
  0
VERTEX
  8
DEM_20px_m
 10
4279.957775392865
 20
-19.957314
 30
0.0
  0
VERTEX
  8
DEM_20px_m
 10
4300.241935465817
 20
-20.0
 30
0.0
  0
VERTEX
  8
DEM_20px_m
 10
4320.5260955387685
 20
-20.0
 30
0.0
  0
VERTEX
  8
DEM_20px_m
 10
4340.810255611721
 20
-20.022624
 30
0.0
  0
VERTEX
  8
DEM_20px_m
 10
4361.094415684673
 20
-20.0
 30
0.0
  0
VERTEX
  8
DEM_20px_m
 10
4381.378575757624
 20
-20.00243
 30
0.0
  0
VERTEX
  8
DEM_20px_m
 10
4401.662735830577
 20
-20.047154
 30
0.0
  0
VERTEX
  8
DEM_20px_m
 10
4421.9468959035285
 20
-20.088085
 30
0.0
  0
VERTEX
  8
DEM_20px_m
 10
4442.231055976481
 20
-20.11732
 30
0.0
  0
VERTEX
  8
DEM_20px_m
 10
4462.515216049433
 20
-20.188194
 30
0.0
  0
VERTEX
  8
DEM_20px_m
 10
4482.799376122384
 20
-20.20223
 30
0.0
  0
VERTEX
  8
DEM_20px_m
 10
4503.083536195337
 20
-20.328148
 30
0.0
  0
VERTEX
  8
DEM_20px_m
 10
4523.3676962682885
 20
-20.458811
 30
0.0
  0
VERTEX
  8
DEM_20px_m
 10
4543.65185634124
 20
-20.589718
 30
0.0
  0
VERTEX
  8
DEM_20px_m
 10
4563.936016414193
 20
-20.720961
 30
0.0
  0
VERTEX
  8
DEM_20px_m
 10
4584.220176487144
 20
-20.86609
 30
0.0
  0
VERTEX
  8
DEM_20px_m
 10
4604.504336560096
 20
-20.948573
 30
0.0
  0
VERTEX
  8
DEM_20px_m
 10
4624.788496633048
 20
-21.08303
 30
0.0
  0
VERTEX
  8
DEM_20px_m
 10
4645.072656706
 20
-21.217486
 30
0.0
  0
VERTEX
  8
DEM_20px_m
 10
4665.356816778953
 20
-21.351943
 30
0.0
  0
VERTEX
  8
DEM_20px_m
 10
4685.640976851904
 20
-21.48225
 30
0.0
  0
VERTEX
  8
DEM_20px_m
 10
4705.925136924856
 20
-21.606873
 30
0.0
  0
VERTEX
  8
DEM_20px_m
 10
4726.209296997808
 20
-21.683263
 30
0.0
  0
VERTEX
  8
DEM_20px_m
 10
4746.49345707076
 20
-21.808718
 30
0.0
  0
VERTEX
  8
DEM_20px_m
 10
4766.777617143712
 20
-21.934174
 30
0.0
  0
VERTEX
  8
DEM_20px_m
 10
4787.061777216664
 20
-22.028472
 30
0.0
  0
VERTEX
  8
DEM_20px_m
 10
4807.345937289616
 20
-22.090675
 30
0.0
  0
VERTEX
  8
DEM_20px_m
 10
4827.6300973625675
 20
-22.149066
 30
0.0
  0
VERTEX
  8
DEM_20px_m
 10
4847.91425743552
 20
-22.160637
 30
0.0
  0
VERTEX
  8
DEM_20px_m
 10
4868.198417508472
 20
-22.219028
 30
0.0
  0
VERTEX
  8
DEM_20px_m
 10
4888.482577581424
 20
-22.277418
 30
0.0
  0
VERTEX
  8
DEM_20px_m
 10
4908.766737654376
 20
-22.335809
 30
0.0
  0
VERTEX
  8
DEM_20px_m
 10
4929.0508977273275
 20
-22.394199
 30
0.0
  0
VERTEX
  8
DEM_20px_m
 10
4949.33505780028
 20
-22.45259
 30
0.0
  0
VERTEX
  8
DEM_20px_m
 10
4969.619217873232
 20
-22.464161
 30
0.0
  0
VERTEX
  8
DEM_20px_m
 10
4989.903377946183
 20
-22.522551
 30
0.0
  0
VERTEX
  8
DEM_20px_m
 10
5010.187538019136
 20
-22.580942
 30
0.0
  0
VERTEX
  8
DEM_20px_m
 10
5030.4716980920875
 20
-22.639332
 30
0.0
  0
VERTEX
  8
DEM_20px_m
 10
5050.755858165039
 20
-22.697723
 30
0.0
  0
VERTEX
  8
DEM_20px_m
 10
5071.040018237992
 20
-22.756113
 30
0.0
  0
VERTEX
  8
DEM_20px_m
 10
5091.324178310943
 20
-22.772705
 30
0.0
  0
VERTEX
  8
DEM_20px_m
 10
5111.608338383896
 20
-22.843824
 30
0.0
  0
VERTEX
  8
DEM_20px_m
 10
5131.8924984568475
 20
-22.914942
 30
0.0
  0
VERTEX
  8
DEM_20px_m
 10
5152.176658529799
 20
-22.986061
 30
0.0
  0
VERTEX
  8
DEM_20px_m
 10
5172.515365914826
 20
-22.914942
 30
0.0
  0
VERTEX
  8
DEM_20px_m
 10
5192.854073299853
 20
-22.843824
 30
0.0
  0
VERTEX
  8
DEM_20px_m
 10
5213.19278068488
 20
-22.772705
 30
0.0
  0
VERTEX
  8
DEM_20px_m
 10
5233.531488069907
 20
-22.756113
 30
0.0
  0
VERTEX
  8
DEM_20px_m
 10
5253.870195454933
 20
-22.697723
 30
0.0
  0
VERTEX
  8
DEM_20px_m
 10
5274.2089028399605
 20
-22.639332
 30
0.0
  0
VERTEX
  8
DEM_20px_m
 10
5294.547610224988
 20
-22.580942
 30
0.0
  0
VERTEX
  8
DEM_20px_m
 10
5314.886317610014
 20
-22.522551
 30
0.0
  0
VERTEX
  8
DEM_20px_m
 10
5335.225024995041
 20
-22.464161
 30
0.0
  0
VERTEX
  8
DEM_20px_m
 10
5355.563732380068
 20
-22.45259
 30
0.0
  0
VERTEX
  8
DEM_20px_m
 10
5375.902439765095
 20
-22.394199
 30
0.0
  0
VERTEX
  8
DEM_20px_m
 10
5396.241147150122
 20
-22.335809
 30
0.0
  0
VERTEX
  8
DEM_20px_m
 10
5416.579854535148
 20
-22.277418
 30
0.0
  0
VERTEX
  8
DEM_20px_m
 10
5436.918561920175
 20
-22.219028
 30
0.0
  0
VERTEX
  8
DEM_20px_m
 10
5457.2572693052025
 20
-22.160637
 30
0.0
  0
VERTEX
  8
DEM_20px_m
 10
5477.595976690229
 20
-22.149066
 30
0.0
  0
VERTEX
  8
DEM_20px_m
 10
5497.934684075256
 20
-22.090675
 30
0.0
  0
VERTEX
  8
DEM_20px_m
 10
5518.273391460283
 20
-22.028472
 30
0.0
  0
VERTEX
  8
DEM_20px_m
 10
5538.612098845309
 20
-21.934174
 30
0.0
  0
VERTEX
  8
DEM_20px_m
 10
5558.950806230337
 20
-21.808718
 30
0.0
  0
VERTEX
  8
DEM_20px_m
 10
5579.289513615364
 20
-21.683263
 30
0.0
  0
VERTEX
  8
DEM_20px_m
 10
5599.62822100039
 20
-21.606873
 30
0.0
  0
VERTEX
  8
DEM_20px_m
 10
5619.966928385417
 20
-21.48225
 30
0.0
  0
VERTEX
  8
DEM_20px_m
 10
5640.3056357704445
 20
-21.351943
 30
0.0
  0
VERTEX
  8
DEM_20px_m
 10
5660.644343155471
 20
-21.217486
 30
0.0
  0
VERTEX
  8
DEM_20px_m
 10
5680.983050540498
 20
-21.08303
 30
0.0
  0
VERTEX
  8
DEM_20px_m
 10
5701.321757925525
 20
-20.948573
 30
0.0
  0
VERTEX
  8
DEM_20px_m
 10
5721.660465310551
 20
-20.86609
 30
0.0
  0
VERTEX
  8
DEM_20px_m
 10
5741.999172695579
 20
-20.720961
 30
0.0
  0
VERTEX
  8
DEM_20px_m
 10
5762.337880080606
 20
-20.589718
 30
0.0
  0
VERTEX
  8
DEM_20px_m
 10
5782.676587465632
 20
-20.458811
 30
0.0
  0
VERTEX
  8
DEM_20px_m
 10
5803.015294850659
 20
-20.328148
 30
0.0
  0
VERTEX
  8
DEM_20px_m
 10
5823.3540022356865
 20
-20.20223
 30
0.0
  0
VERTEX
  8
DEM_20px_m
 10
5843.692709620713
 20
-20.188194
 30
0.0
  0
VERTEX
  8
DEM_20px_m
 10
5864.03141700574
 20
-20.11732
 30
0.0
  0
VERTEX
  8
DEM_20px_m
 10
5884.370124390767
 20
-20.088085
 30
0.0
  0
VERTEX
  8
DEM_20px_m
 10
5904.708831775793
 20
-20.047154
 30
0.0
  0
VERTEX
  8
DEM_20px_m
 10
5925.047539160821
 20
-20.00243
 30
0.0
  0
VERTEX
  8
DEM_20px_m
 10
5945.386246545848
 20
-20.0
 30
0.0
  0
VERTEX
  8
DEM_20px_m
 10
5965.724953930874
 20
-20.022624
 30
0.0
  0
VERTEX
  8
DEM_20px_m
 10
5986.063661315901
 20
-20.0
 30
0.0
  0
VERTEX
  8
DEM_20px_m
 10
6006.402368700928
 20
-20.0
 30
0.0
  0
VERTEX
  8
DEM_20px_m
 10
6026.741076085955
 20
-19.957314
 30
0.0
  0
VERTEX
  8
DEM_20px_m
 10
6047.079783470982
 20
-19.687639
 30
0.0
  0
VERTEX
  8
DEM_20px_m
 10
6067.418490856008
 20
-19.576436
 30
0.0
  0
VERTEX
  8
DEM_20px_m
 10
6087.757198241035
 20
-19.618808
 30
0.0
  0
VERTEX
  8
DEM_20px_m
 10
6108.095905626063
 20
-19.55992
 30
0.0
  0
VERTEX
  8
DEM_20px_m
 10
6128.434613011089
 20
-19.507055
 30
0.0
  0
VERTEX
  8
DEM_20px_m
 10
6148.773320396116
 20
-19.474723
 30
0.0
  0
VERTEX
  8
DEM_20px_m
 10
6169.112027781143
 20
-19.412599
 30
0.0
  0
VERTEX
  8
DEM_20px_m
 10
6189.45073516617
 20
-19.323381
 30
0.0
  0
VERTEX
  8
DEM_20px_m
 10
6209.789442551197
 20
-19.305026
 30
0.0
  0
VERTEX
  8
DEM_20px_m
 10
6230.128149936223
 20
-19.209799
 30
0.0
  0
VERTEX
  8
DEM_20px_m
 10
6250.46685732125
 20
-19.114573
 30
0.0
  0
VERTEX
  8
DEM_20px_m
 10
6270.805564706277
 20
-19.019346
 30
0.0
  0
VERTEX
  8
DEM_20px_m
 10
6291.144272091304
 20
-18.924119
 30
0.0
  0
VERTEX
  8
DEM_20px_m
 10
6311.482979476331
 20
-18.828892
 30
0.0
  0
VERTEX
  8
DEM_20px_m
 10
6331.821686861358
 20
-18.801142
 30
0.0
  0
VERTEX
  8
DEM_20px_m
 10
6352.160394246384
 20
-18.705915
 30
0.0
  0
VERTEX
  8
DEM_20px_m
 10
6372.499101631412
 20
-18.610688
 30
0.0
  0
VERTEX
  8
DEM_20px_m
 10
6392.837809016439
 20
-18.502619
 30
0.0
  0
VERTEX
  8
DEM_20px_m
 10
6413.176516401465
 20
-18.391875
 30
0.0
  0
VERTEX
  8
DEM_20px_m
 10
6433.515223786492
 20
-18.28113
 30
0.0
  0
VERTEX
  8
DEM_20px_m
 10
6453.853931171519
 20
-18.161584
 30
0.0
  0
VERTEX
  8
DEM_20px_m
 10
6474.192638556546
 20
-18.050518
 30
0.0
  0
VERTEX
  8
DEM_20px_m
 10
6494.531345941573
 20
-17.939057
 30
0.0
  0
VERTEX
  8
DEM_20px_m
 10
6514.8700533266
 20
-17.796688
 30
0.0
  0
VERTEX
  8
DEM_20px_m
 10
6535.208760711626
 20
-17.65432
 30
0.0
  0
VERTEX
  8
DEM_20px_m
 10
6555.547468096654
 20
-17.511951
 30
0.0
  0
VERTEX
  8
DEM_20px_m
 10
6575.886175481681
 20
-17.395579
 30
0.0
  0
VERTEX
  8
DEM_20px_m
 10
6596.224882866707
 20
-17.253211
 30
0.0
  0
VERTEX
  8
DEM_20px_m
 10
6616.563590251734
 20
-17.110842
 30
0.0
  0
VERTEX
  8
DEM_20px_m
 10
6636.902297636761
 20
-16.968473
 30
0.0
  0
VERTEX
  8
DEM_20px_m
 10
6657.241005021788
 20
-16.826105
 30
0.0
  0
VERTEX
  8
DEM_20px_m
 10
6677.579712406815
 20
-16.683736
 30
0.0
  0
VERTEX
  8
DEM_20px_m
 10
6697.918419791842
 20
-16.55679
 30
0.0
  0
VERTEX
  8
DEM_20px_m
 10
6718.257127176868
 20
-16.408333
 30
0.0
  0
VERTEX
  8
DEM_20px_m
 10
6738.595834561896
 20
-16.259875
 30
0.0
  0
VERTEX
  8
DEM_20px_m
 10
6758.934541946923
 20
-16.115084
 30
0.0
  0
VERTEX
  8
DEM_20px_m
 10
6779.273249331949
 20
-15.958048
 30
0.0
  0
VERTEX
  8
DEM_20px_m
 10
6799.611956716976
 20
-15.787178
 30
0.0
  0
VERTEX
  8
DEM_20px_m
 10
6819.950664102003
 20
-15.63445
 30
0.0
  0
VERTEX
  8
DEM_20px_m
 10
6840.28937148703
 20
-15.469688
 30
0.0
  0
VERTEX
  8
DEM_20px_m
 10
6860.628078872057
 20
-15.304925
 30
0.0
  0
VERTEX
  8
DEM_20px_m
 10
6880.966786257084
 20
-15.148379
 30
0.0
  0
VERTEX
  8
DEM_20px_m
 10
6901.30549364211
 20
-14.996968
 30
0.0
  0
VERTEX
  8
DEM_20px_m
 10
6921.644201027138
 20
-14.873205
 30
0.0
  0
VERTEX
  8
DEM_20px_m
 10
6941.982908412165
 20
-14.725245
 30
0.0
  0
VERTEX
  8
DEM_20px_m
 10
6962.321615797191
 20
-14.576845
 30
0.0
  0
VERTEX
  8
DEM_20px_m
 10
6982.660323182218
 20
-14.428089
 30
0.0
  0
VERTEX
  8
DEM_20px_m
 10
7002.9990305672445
 20
-14.279332
 30
0.0
  0
VERTEX
  8
DEM_20px_m
 10
7023.337737952272
 20
-14.130575
 30
0.0
  0
VERTEX
  8
DEM_20px_m
 10
7043.676445337299
 20
-14.022426
 30
0.0
  0
VERTEX
  8
DEM_20px_m
 10
7064.015152722325
 20
-13.889101
 30
0.0
  0
VERTEX
  8
DEM_20px_m
 10
7084.353860107352
 20
-13.758144
 30
0.0
  0
VERTEX
  8
DEM_20px_m
 10
7104.692567492379
 20
-13.627186
 30
0.0
  0
VERTEX
  8
DEM_20px_m
 10
7125.031274877406
 20
-13.495753
 30
0.0
  0
VERTEX
  8
DEM_20px_m
 10
7145.369982262433
 20
-13.364253
 30
0.0
  0
VERTEX
  8
DEM_20px_m
 10
7165.708689647459
 20
-13.258143
 30
0.0
  0
VERTEX
  8
DEM_20px_m
 10
7186.0473970324865
 20
-13.125227
 30
0.0
  0
VERTEX
  8
DEM_20px_m
 10
7206.386104417514
 20
-12.995785
 30
0.0
  0
VERTEX
  8
DEM_20px_m
 10
7226.72481180254
 20
-12.866465
 30
0.0
  0
VERTEX
  8
DEM_20px_m
 10
7247.063519187567
 20
-12.735557
 30
0.0
  0
VERTEX
  8
DEM_20px_m
 10
7267.402226572594
 20
-12.603066
 30
0.0
  0
VERTEX
  8
DEM_20px_m
 10
7287.740933957621
 20
-12.512286
 30
0.0
  0
VERTEX
  8
DEM_20px_m
 10
7308.079641342648
 20
-12.387803
 30
0.0
  0
VERTEX
  8
DEM_20px_m
 10
7328.418348727675
 20
-12.263319
 30
0.0
  0
VERTEX
  8
DEM_20px_m
 10
7348.757056112701
 20
-12.138836
 30
0.0
  0
VERTEX
  8
DEM_20px_m
 10
7369.0957634977285
 20
-12.014351
 30
0.0
  0
VERTEX
  8
DEM_20px_m
 10
7389.434470882756
 20
-11.85899
 30
0.0
  0
VERTEX
  8
DEM_20px_m
 10
7409.773178267782
 20
-11.747049
 30
0.0
  0
VERTEX
  8
DEM_20px_m
 10
7430.111885652809
 20
-11.585714
 30
0.0
  0
VERTEX
  8
DEM_20px_m
 10
7450.450593037836
 20
-11.424379
 30
0.0
  0
VERTEX
  8
DEM_20px_m
 10
7470.789300422863
 20
-11.262575
 30
0.0
  0
VERTEX
  8
DEM_20px_m
 10
7491.12800780789
 20
-11.097784
 30
0.0
  0
VERTEX
  8
DEM_20px_m
 10
7511.466715192917
 20
-10.932665
 30
0.0
  0
VERTEX
  8
DEM_20px_m
 10
7531.805422577943
 20
-10.809397
 30
0.0
  0
VERTEX
  8
DEM_20px_m
 10
7552.1441299629705
 20
-10.645535
 30
0.0
  0
VERTEX
  8
DEM_20px_m
 10
7572.482837347998
 20
-10.480404
 30
0.0
  0
VERTEX
  8
DEM_20px_m
 10
7592.821544733024
 20
-10.315272
 30
0.0
  0
VERTEX
  8
DEM_20px_m
 10
7613.160252118051
 20
-10.150141
 30
0.0
  0
VERTEX
  8
DEM_20px_m
 10
7633.498959503078
 20
-10.0
 30
0.0
  0
VERTEX
  8
DEM_20px_m
 10
7653.837666888105
 20
-10.0
 30
0.0
  0
VERTEX
  8
DEM_20px_m
 10
7674.176374273132
 20
-10.0
 30
0.0
  0
VERTEX
  8
DEM_20px_m
 10
7694.515081658159
 20
-10.0
 30
0.0
  0
VERTEX
  8
DEM_20px_m
 10
7714.853789043185
 20
-10.0
 30
0.0
  0
VERTEX
  8
DEM_20px_m
 10
7735.1924964282125
 20
-10.0
 30
0.0
  0
VERTEX
  8
DEM_20px_m
 10
7755.53120381324
 20
-10.0
 30
0.0
  0
VERTEX
  8
DEM_20px_m
 10
7775.869911198266
 20
-10.0
 30
0.0
  0
VERTEX
  8
DEM_20px_m
 10
7796.208618583293
 20
-10.0
 30
0.0
  0
VERTEX
  8
DEM_20px_m
 10
7816.54732596832
 20
-10.0
 30
0.0
  0
VERTEX
  8
DEM_20px_m
 10
7836.886033353347
 20
-10.0
 30
0.0
  0
VERTEX
  8
DEM_20px_m
 10
7857.224740738374
 20
-10.0
 30
0.0
  0
VERTEX
  8
DEM_20px_m
 10
7877.563448123401
 20
-10.0
 30
0.0
  0
VERTEX
  8
DEM_20px_m
 10
7897.902155508427
 20
-10.0
 30
0.0
  0
VERTEX
  8
DEM_20px_m
 10
7918.240862893454
 20
-10.0
 30
0.0
  0
VERTEX
  8
DEM_20px_m
 10
7938.579570278482
 20
-10.0
 30
0.0
  0
VERTEX
  8
DEM_20px_m
 10
7958.918277663508
 20
-10.0
 30
0.0
  0
VERTEX
  8
DEM_20px_m
 10
7979.256985048534
 20
-10.0
 30
0.0
  0
VERTEX
  8
DEM_20px_m
 10
7999.595692433562
 20
-10.0
 30
0.0
  0
VERTEX
  8
DEM_20px_m
 10
8019.934399818589
 20
-10.0
 30
0.0
  0
VERTEX
  8
DEM_20px_m
 10
8040.273107203615
 20
-10.0
 30
0.0
  0
VERTEX
  8
DEM_20px_m
 10
8060.611814588643
 20
-10.0
 30
0.0
  0
VERTEX
  8
DEM_20px_m
 10
8080.950521973669
 20
-10.0
 30
0.0
  0
VERTEX
  8
DEM_20px_m
 10
8101.289229358696
 20
-10.0
 30
0.0
  0
VERTEX
  8
DEM_20px_m
 10
8121.627936743723
 20
-10.0
 30
0.0
  0
VERTEX
  8
DEM_20px_m
 10
8141.96664412875
 20
-10.0
 30
0.0
  0
VERTEX
  8
DEM_20px_m
 10
8162.305351513776
 20
-10.0
 30
0.0
  0
VERTEX
  8
DEM_20px_m
 10
8182.644058898803
 20
-9.7121216
 30
0.0
  0
VERTEX
  8
DEM_20px_m
 10
8202.98276628383
 20
-9.422582
 30
0.0
  0
VERTEX
  8
DEM_20px_m
 10
8223.321473668857
 20
-9.1330425
 30
0.0
  0
VERTEX
  8
DEM_20px_m
 10
8243.660181053885
 20
-8.8435029
 30
0.0
  0
VERTEX
  8
DEM_20px_m
 10
8263.998888438911
 20
-8.2654736
 30
0.0
  0
VERTEX
  8
DEM_20px_m
 10
8284.337595823938
 20
-7.9759341
 30
0.0
  0
VERTEX
  8
DEM_20px_m
 10
8304.676303208966
 20
-7.6863945
 30
0.0
  0
VERTEX
  8
DEM_20px_m
 10
8325.015010593992
 20
-7.396855
 30
0.0
  0
VERTEX
  8
DEM_20px_m
 10
8345.353717979018
 20
-7.1073154
 30
0.0
  0
VERTEX
  8
DEM_20px_m
 10
8365.692425364046
 20
-6.8177759
 30
0.0
  0
VERTEX
  8
DEM_20px_m
 10
8386.031132749073
 20
-6.2397466
 30
0.0
  0
VERTEX
  8
DEM_20px_m
 10
8406.369840134099
 20
-5.950207
 30
0.0
  0
VERTEX
  8
DEM_20px_m
 10
8426.708547519127
 20
-5.6606675
 30
0.0
  0
VERTEX
  8
DEM_20px_m
 10
8447.047254904153
 20
-5.1967182
 30
0.0
  0
VERTEX
  8
DEM_20px_m
 10
8467.38596228918
 20
-5.0
 30
0.0
  0
VERTEX
  8
DEM_20px_m
 10
8487.724669674208
 20
-5.0
 30
0.0
  0
VERTEX
  8
DEM_20px_m
 10
8508.063377059234
 20
-5.0
 30
0.0
  0
VERTEX
  8
DEM_20px_m
 10
8528.40208444426
 20
-5.0
 30
0.0
  0
VERTEX
  8
DEM_20px_m
 10
8548.740791829288
 20
-5.0
 30
0.0
  0
VERTEX
  8
DEM_20px_m
 10
8569.079499214315
 20
-5.0
 30
0.0
  0
VERTEX
  8
DEM_20px_m
 10
8589.418206599341
 20
-5.0
 30
0.0
  0
VERTEX
  8
DEM_20px_m
 10
8609.756913984369
 20
-5.0
 30
0.0
  0
VERTEX
  8
DEM_20px_m
 10
8630.095621369395
 20
-5.0
 30
0.0
  0
VERTEX
  8
DEM_20px_m
 10
8650.434328754422
 20
-5.0
 30
0.0
  0
VERTEX
  8
DEM_20px_m
 10
8670.77303613945
 20
-4.6981568
 30
0.0
  0
VERTEX
  8
DEM_20px_m
 10
8691.111743524476
 20
-4.2925196
 30
0.0
  0
VERTEX
  8
DEM_20px_m
 10
8711.450450909502
 20
-3.8583733
 30
0.0
  0
VERTEX
  8
DEM_20px_m
 10
8731.78915829453
 20
-3.6031566
 30
0.0
  0
VERTEX
  8
DEM_20px_m
 10
8752.127865679557
 20
-3.1254199
 30
0.0
  0
VERTEX
  8
DEM_20px_m
 10
8772.466573064583
 20
-2.6476833
 30
0.0
  0
VERTEX
  8
DEM_20px_m
 10
8792.805280449611
 20
-2.1661171
 30
0.0
  0
VERTEX
  8
DEM_20px_m
 10
8813.143987834637
 20
-1.6840522
 30
0.0
  0
VERTEX
  8
DEM_20px_m
 10
8833.482695219664
 20
-1.2019872
 30
0.0
  0
VERTEX
  8
DEM_20px_m
 10
8853.82140260469
 20
-0.78137752
 30
0.0
  0
VERTEX
  8
DEM_20px_m
 10
8874.160109989718
 20
-0.29931256
 30
0.0
  0
VERTEX
  8
DEM_20px_m
 10
8894.498817374744
 20
0.1827524
 30
0.0
  0
VERTEX
  8
DEM_20px_m
 10
8914.83752475977
 20
0.66481736
 30
0.0
  0
VERTEX
  8
DEM_20px_m
 10
8935.176232144799
 20
1.1468823
 30
0.0
  0
VERTEX
  8
DEM_20px_m
 10
8955.514939529825
 20
1.6289473
 30
0.0
  0
VERTEX
  8
DEM_20px_m
 10
8975.853646914851
 20
2.049557
 30
0.0
  0
VERTEX
  8
DEM_20px_m
 10
8996.19235429988
 20
2.5316219
 30
0.0
  0
VERTEX
  8
DEM_20px_m
 10
9016.531061684906
 20
3.0136869
 30
0.0
  0
VERTEX
  8
DEM_20px_m
 10
9036.869769069932
 20
3.4957518
 30
0.0
  0
VERTEX
  8
DEM_20px_m
 10
9057.208476454958
 20
3.9778168
 30
0.0
  0
VERTEX
  8
DEM_20px_m
 10
9077.547183839986
 20
4.4598818
 30
0.0
  0
VERTEX
  8
DEM_20px_m
 10
9097.885891225013
 20
4.8804914
 30
0.0
  0
VERTEX
  8
DEM_20px_m
 10
9118.224598610039
 20
5.0
 30
0.0
  0
VERTEX
  8
DEM_20px_m
 10
9138.563305995067
 20
5.0
 30
0.0
  0
VERTEX
  8
DEM_20px_m
 10
9158.902013380093
 20
5.0
 30
0.0
  0
VERTEX
  8
DEM_20px_m
 10
9179.24072076512
 20
5.0
 30
0.0
  0
VERTEX
  8
DEM_20px_m
 10
9199.579428150148
 20
5.0
 30
0.0
  0
VERTEX
  8
DEM_20px_m
 10
9219.918135535174
 20
5.0
 30
0.0
  0
VERTEX
  8
DEM_20px_m
 10
9240.2568429202
 20
5.0
 30
0.0
  0
VERTEX
  8
DEM_20px_m
 10
9260.595550305228
 20
5.0
 30
0.0
  0
VERTEX
  8
DEM_20px_m
 10
9280.934257690255
 20
5.0
 30
0.0
  0
VERTEX
  8
DEM_20px_m
 10
9301.27296507528
 20
5.0
 30
0.0
  0
VERTEX
  8
DEM_20px_m
 10
9321.611672460309
 20
5.0
 30
0.0
  0
VERTEX
  8
DEM_20px_m
 10
9341.950379845335
 20
5.0
 30
0.0
  0
VERTEX
  8
DEM_20px_m
 10
9362.289087230361
 20
5.0
 30
0.0
  0
VERTEX
  8
DEM_20px_m
 10
9382.62779461539
 20
5.1037826
 30
0.0
  0
VERTEX
  8
DEM_20px_m
 10
9402.966502000416
 20
5.7428929
 30
0.0
  0
VERTEX
  8
DEM_20px_m
 10
9423.305209385442
 20
6.7113593
 30
0.0
  0
VERTEX
  8
DEM_20px_m
 10
9443.64391677047
 20
7.6250046
 30
0.0
  0
VERTEX
  8
DEM_20px_m
 10
9463.982624155497
 20
8.5831179
 30
0.0
  0
VERTEX
  8
DEM_20px_m
 10
9484.321331540523
 20
10.0
 30
0.0
  0
VERTEX
  8
DEM_20px_m
 10
9504.66003892555
 20
10.0
 30
0.0
  0
VERTEX
  8
DEM_20px_m
 10
9524.998746310577
 20
10.065741
 30
0.0
  0
VERTEX
  8
DEM_20px_m
 10
9545.337453695603
 20
11.081999
 30
0.0
  0
VERTEX
  8
DEM_20px_m
 10
9565.676161080632
 20
14.226303
 30
0.0
  0
VERTEX
  8
DEM_20px_m
 10
9586.014868465658
 20
16.257805
 30
0.0
  0
VERTEX
  8
DEM_20px_m
 10
9606.353575850684
 20
16.628234
 30
0.0
  0
VERTEX
  8
DEM_20px_m
 10
9626.692283235712
 20
19.801923
 30
0.0
  0
VERTEX
  8
DEM_20px_m
 10
9647.030990620739
 20
21.05381
 30
0.0
  0
VERTEX
  8
DEM_20px_m
 10
9667.369698005765
 20
25.0
 30
0.0
  0
VERTEX
  8
DEM_20px_m
 10
9687.708405390793
 20
25.0
 30
0.0
  0
VERTEX
  8
DEM_20px_m
 10
9708.04711277582
 20
30.0
 30
0.0
  0
VERTEX
  8
DEM_20px_m
 10
9728.385820160845
 20
30.075692
 30
0.0
  0
VERTEX
  8
DEM_20px_m
 10
9748.724527545874
 20
30.414388
 30
0.0
  0
VERTEX
  8
DEM_20px_m
 10
9769.0632349309
 20
30.169213
 30
0.0
  0
VERTEX
  8
DEM_20px_m
 10
9789.401942315926
 20
30.0
 30
0.0
  0
VERTEX
  8
DEM_20px_m
 10
9809.740649700954
 20
30.0
 30
0.0
  0
VERTEX
  8
DEM_20px_m
 10
9830.07935708598
 20
30.0
 30
0.0
  0
VERTEX
  8
DEM_20px_m
 10
9850.418064471007
 20
30.0
 30
0.0
  0
VERTEX
  8
DEM_20px_m
 10
9870.756771856035
 20
30.739188
 30
0.0
  0
VERTEX
  8
DEM_20px_m
 10
9891.095479241061
 20
30.0
 30
0.0
  0
VERTEX
  8
DEM_20px_m
 10
9911.434186626087
 20
31.078595
 30
0.0
  0
VERTEX
  8
DEM_20px_m
 10
9931.772894011116
 20
32.76146
 30
0.0
  0
VERTEX
  8
DEM_20px_m
 10
9952.111601396142
 20
35.0
 30
0.0
  0
VERTEX
  8
DEM_20px_m
 10
9972.450308781168
 20
35.0
 30
0.0
  0
VERTEX
  8
DEM_20px_m
 10
9992.789016166196
 20
34.185048
 30
0.0
  0
VERTEX
  8
DEM_20px_m
 10
10013.127723551223
 20
33.247405
 30
0.0
  0
VERTEX
  8
DEM_20px_m
 10
10033.466430936249
 20
28.607072
 30
0.0
  0
VERTEX
  8
DEM_20px_m
 10
10053.805138321277
 20
24.158224
 30
0.0
  0
VERTEX
  8
DEM_20px_m
 10
10074.143845706303
 20
30.339555
 30
0.0
  0
VERTEX
  8
DEM_20px_m
 10
10094.48255309133
 20
24.277952
 30
0.0
  0
VERTEX
  8
DEM_20px_m
 10
10114.821260476358
 20
21.182966
 30
0.0
  0
VERTEX
  8
DEM_20px_m
 10
10135.159967861384
 20
18.33949
 30
0.0
  0
VERTEX
  8
DEM_20px_m
 10
10155.49867524641
 20
18.584329
 30
0.0
  0
VERTEX
  8
DEM_20px_m
 10
10175.837382631438
 20
20.0
 30
0.0
  0
VERTEX
  8
DEM_20px_m
 10
10196.176090016465
 20
24.885585
 30
0.0
  0
VERTEX
  8
DEM_20px_m
 10
10216.51479740149
 20
25.0
 30
0.0
  0
VERTEX
  8
DEM_20px_m
 10
10236.853504786519
 20
25.427239
 30
0.0
  0
VERTEX
  8
DEM_20px_m
 10
10257.192212171545
 20
27.581453
 30
0.0
  0
VERTEX
  8
DEM_20px_m
 10
10277.530919556571
 20
27.556696
 30
0.0
  0
VERTEX
  8
DEM_20px_m
 10
10297.8696269416
 20
28.550204
 30
0.0
  0
VERTEX
  8
DEM_20px_m
 10
10318.208334326626
 20
30.0
 30
0.0
  0
VERTEX
  8
DEM_20px_m
 10
10338.547041711652
 20
30.0
 30
0.0
  0
VERTEX
  8
DEM_20px_m
 10
10359.814453939824
 20
30.0
 30
0.0
  0
VERTEX
  8
DEM_20px_m
 10
10381.081866167997
 20
30.0
 30
0.0
  0
VERTEX
  8
DEM_20px_m
 10
10402.349278396168
 20
30.0
 30
0.0
  0
VERTEX
  8
DEM_20px_m
 10
10423.61669062434
 20
32.61806
 30
0.0
  0
VERTEX
  8
DEM_20px_m
 10
10444.884102852513
 20
35.0
 30
0.0
  0
VERTEX
  8
DEM_20px_m
 10
10466.151515080684
 20
37.472004
 30
0.0
  0
VERTEX
  8
DEM_20px_m
 10
10487.418927308856
 20
42.631284
 30
0.0
  0
VERTEX
  8
DEM_20px_m
 10
10508.68633953703
 20
43.252267
 30
0.0
  0
VERTEX
  8
DEM_20px_m
 10
10529.9537517652
 20
46.18648
 30
0.0
  0
VERTEX
  8
DEM_20px_m
 10
10551.221163993372
 20
48.712986
 30
0.0
  0
VERTEX
  8
DEM_20px_m
 10
10572.488576221544
 20
44.443123
 30
0.0
  0
VERTEX
  8
DEM_20px_m
 10
10593.755988449717
 20
44.809008
 30
0.0
  0
VERTEX
  8
DEM_20px_m
 10
10615.023400677888
 20
46.61525
 30
0.0
  0
VERTEX
  8
DEM_20px_m
 10
10636.29081290606
 20
44.345246
 30
0.0
  0
VERTEX
  8
DEM_20px_m
 10
10657.558225134233
 20
45.0
 30
0.0
  0
VERTEX
  8
DEM_20px_m
 10
10678.825637362404
 20
45.0
 30
0.0
  0
VERTEX
  8
DEM_20px_m
 10
10700.093049590576
 20
46.26646
 30
0.0
  0
VERTEX
  8
DEM_20px_m
 10
10721.36046181875
 20
46.52549
 30
0.0
  0
VERTEX
  8
DEM_20px_m
 10
10742.62787404692
 20
47.194636
 30
0.0
  0
VERTEX
  8
DEM_20px_m
 10
10763.895286275092
 20
50.0
 30
0.0
  0
VERTEX
  8
DEM_20px_m
 10
10785.162698503265
 20
50.0
 30
0.0
  0
VERTEX
  8
DEM_20px_m
 10
10806.430110731437
 20
51.041508
 30
0.0
  0
VERTEX
  8
DEM_20px_m
 10
10827.697522959608
 20
51.647459
 30
0.0
  0
VERTEX
  8
DEM_20px_m
 10
10848.964935187782
 20
52.392968
 30
0.0
  0
VERTEX
  8
DEM_20px_m
 10
10870.232347415953
 20
48.44292
 30
0.0
  0
VERTEX
  8
DEM_20px_m
 10
10891.499759644124
 20
45.390059
 30
0.0
  0
VERTEX
  8
DEM_20px_m
 10
10912.767171872298
 20
42.617748
 30
0.0
  0
VERTEX
  8
DEM_20px_m
 10
10934.03458410047
 20
45.592829
 30
0.0
  0
VERTEX
  8
DEM_20px_m
 10
10955.30199632864
 20
51.398948
 30
0.0
  0
VERTEX
  8
DEM_20px_m
 10
10976.569408556814
 20
55.0
 30
0.0
  0
VERTEX
  8
DEM_20px_m
 10
10997.836820784985
 20
55.0
 30
0.0
  0
VERTEX
  8
DEM_20px_m
 10
11019.104233013157
 20
55.0
 30
0.0
  0
VERTEX
  8
DEM_20px_m
 10
11040.371645241328
 20
51.957326
 30
0.0
  0
VERTEX
  8
DEM_20px_m
 10
11061.639057469501
 20
51.946028
 30
0.0
  0
VERTEX
  8
DEM_20px_m
 10
11082.906469697673
 20
52.393322
 30
0.0
  0
VERTEX
  8
DEM_20px_m
 10
11104.173881925844
 20
43.75459
 30
0.0
  0
VERTEX
  8
DEM_20px_m
 10
11125.441294154018
 20
41.036191
 30
0.0
  0
VERTEX
  8
DEM_20px_m
 10
11146.70870638219
 20
40.06071
 30
0.0
  0
VERTEX
  8
DEM_20px_m
 10
11167.97611861036
 20
35.485447
 30
0.0
  0
VERTEX
  8
DEM_20px_m
 10
11189.243530838534
 20
35.613574
 30
0.0
  0
VERTEX
  8
DEM_20px_m
 10
11210.510943066705
 20
35.0
 30
0.0
  0
VERTEX
  8
DEM_20px_m
 10
11231.778355294877
 20
36.550283
 30
0.0
  0
VERTEX
  8
DEM_20px_m
 10
11253.04576752305
 20
39.285068
 30
0.0
  0
VERTEX
  8
DEM_20px_m
 10
11274.313179751221
 20
40.0
 30
0.0
  0
VERTEX
  8
DEM_20px_m
 10
11295.580591979393
 20
40.0
 30
0.0
  0
VERTEX
  8
DEM_20px_m
 10
11316.848004207566
 20
39.37658
 30
0.0
  0
VERTEX
  8
DEM_20px_m
 10
11338.115416435738
 20
35.456689
 30
0.0
  0
VERTEX
  8
DEM_20px_m
 10
11359.38282866391
 20
35.341208
 30
0.0
  0
VERTEX
  8
DEM_20px_m
 10
11380.650240892082
 20
36.689262
 30
0.0
  0
VERTEX
  8
DEM_20px_m
 10
11401.917653120254
 20
35.0
 30
0.0
  0
VERTEX
  8
DEM_20px_m
 10
11423.185065348425
 20
32.975455
 30
0.0
  0
VERTEX
  8
DEM_20px_m
 10
11444.452477576597
 20
33.719835
 30
0.0
  0
VERTEX
  8
DEM_20px_m
 10
11465.71988980477
 20
33.631214
 30
0.0
  0
VERTEX
  8
DEM_20px_m
 10
11486.987302032941
 20
35.518763
 30
0.0
  0
VERTEX
  8
DEM_20px_m
 10
11508.254714261113
 20
39.060916
 30
0.0
  0
VERTEX
  8
DEM_20px_m
 10
11529.522126489286
 20
40.0
 30
0.0
  0
VERTEX
  8
DEM_20px_m
 10
11550.789538717458
 20
40.0
 30
0.0
  0
VERTEX
  8
DEM_20px_m
 10
11572.056950945629
 20
37.072701
 30
0.0
  0
VERTEX
  8
DEM_20px_m
 10
11593.324363173802
 20
39.462229
 30
0.0
  0
VERTEX
  8
DEM_20px_m
 10
11614.591775401974
 20
40.0
 30
0.0
  0
VERTEX
  8
DEM_20px_m
 10
11635.859187630145
 20
37.875917
 30
0.0
  0
VERTEX
  8
DEM_20px_m
 10
11657.126599858319
 20
39.406973
 30
0.0
  0
VERTEX
  8
DEM_20px_m
 10
11678.39401208649
 20
40.0
 30
0.0
  0
VERTEX
  8
DEM_20px_m
 10
11699.661424314661
 20
40.94505
 30
0.0
  0
VERTEX
  8
DEM_20px_m
 10
11720.928836542835
 20
43.115758
 30
0.0
  0
VERTEX
  8
DEM_20px_m
 10
11742.196248771006
 20
43.73217
 30
0.0
  0
VERTEX
  8
DEM_20px_m
 10
11763.463660999178
 20
45.0
 30
0.0
  0
VERTEX
  8
DEM_20px_m
 10
11784.73107322735
 20
45.0
 30
0.0
  0
VERTEX
  8
DEM_20px_m
 10
11805.998485455522
 20
45.0
 30
0.0
  0
VERTEX
  8
DEM_20px_m
 10
11827.265897683694
 20
40.513981
 30
0.0
  0
VERTEX
  8
DEM_20px_m
 10
11848.533309911865
 20
35.0
 30
0.0
  0
SEQEND
  0
ENDSEC
  0
EOF
