<?xml version="1.0" encoding="us-ascii" standalone="no"?><svg xmlns="http://www.w3.org/2000/svg" xmlns:xlink="http://www.w3.org/1999/xlink" contentStyleType="text/css" height="4131px" preserveAspectRatio="none" style="width:2406px;height:4131px;background:#FFFFFF;" version="1.1" viewBox="0 0 2406 4131" width="2406px" zoomAndPan="magnify"><defs/><g><rect fill="#FF6347" height="135.6563" id="_title" rx="22.5" ry="22.5" style="stroke:#FF0000;stroke-width:6.0;" width="288" x="1055.25" y="45"/><text fill="#000000" font-family="sans-serif" font-size="42" font-weight="bold" lengthAdjust="spacing" textLength="246" x="1070.25" y="103.5996">AQWA Runs</text><text fill="#000000" font-family="sans-serif" font-size="42" font-weight="bold" lengthAdjust="spacing" textLength="237" x="1080.75" y="156.4277">Automation</text><path d="M414,228.6563 L414,405.8203 L1275,405.8203 L1275,258.6563 L1245,228.6563 L414,228.6563 " fill="#FEFFDD" style="stroke:#181818;stroke-width:1.5;"/><path d="M1245,228.6563 L1245,258.6563 L1275,258.6563 L1245,228.6563 " fill="#FEFFDD" style="stroke:#181818;stroke-width:1.5;"/><text fill="#000000" font-family="sans-serif" font-size="39" font-weight="bold" lengthAdjust="spacing" textLength="294" x="432" y="284.1416">(IN PROGRESS)</text><text fill="#000000" font-family="sans-serif" font-size="39" lengthAdjust="spacing" textLength="693" x="432" y="333.1963">Objective: modular file management and</text><text fill="#000000" font-family="sans-serif" font-size="39" lengthAdjust="spacing" textLength="798" x="432" y="382.251">analysis for easy updates/maintenance/reruns</text><path d="M385.5,465.8203 L385.5,642.9844 L1303.5,642.9844 L1303.5,495.8203 L1273.5,465.8203 L385.5,465.8203 " fill="#FEFFDD" style="stroke:#181818;stroke-width:1.5;"/><path d="M1273.5,465.8203 L1273.5,495.8203 L1303.5,495.8203 L1273.5,465.8203 " fill="#FEFFDD" style="stroke:#181818;stroke-width:1.5;"/><text fill="#000000" font-family="sans-serif" font-size="39" lengthAdjust="spacing" textLength="855" x="403.5" y="521.3057">All files in ascii (.dat) format as much as possible</text><text fill="#000000" font-family="sans-serif" font-size="39" lengthAdjust="spacing" textLength="393" x="403.5" y="570.3604">- Single source of truth</text><text fill="#000000" font-family="sans-serif" font-size="39" lengthAdjust="spacing" textLength="438" x="403.5" y="619.415">- Helps in  version control</text><ellipse cx="325.5" cy="435.8203" fill="#222222" rx="30" ry="30" style="stroke:#222222;stroke-width:3.0;"/><rect fill="none" height="1198.9219" style="stroke:#000000;stroke-width:4.5;" width="1836" x="33" y="702.9844"/><path d="M540,702.9844 L540,734.8125 L510,764.8125 L33,764.8125 " fill="none" style="stroke:#000000;stroke-width:4.5;"/><text fill="#000000" font-family="sans-serif" font-size="42" lengthAdjust="spacing" textLength="477" x="42" y="749.584">Preprocess: Model Setup</text><path d="M648,794.8125 L648,1018.5586 L588,1030.5586 L648,1042.5586 L648,1266.3047 A0,0 0 0 0 648,1266.3047 L1839,1266.3047 A0,0 0 0 0 1839,1266.3047 L1839,824.8125 L1809,794.8125 L648,794.8125 A0,0 0 0 0 648,794.8125 " fill="#FEFFDD" style="stroke:#181818;stroke-width:1.5;"/><path d="M1809,794.8125 L1809,824.8125 L1839,824.8125 L1809,794.8125 " fill="#FEFFDD" style="stroke:#181818;stroke-width:1.5;"/><text fill="#000000" font-family="sans-serif" font-size="39" lengthAdjust="spacing" textLength="93" x="666" y="850.2979">Pros:</text><text fill="#000000" font-family="sans-serif" font-size="39" lengthAdjust="spacing" textLength="936" x="666" y="899.3525">- Easy to wire data: Single source of truth data source</text><text fill="#000000" font-family="sans-serif" font-size="39" lengthAdjust="spacing" textLength="966" x="666" y="948.4072">- Programming (Python, Fortran etc.) or MS DOS Batch</text><text fill="#000000" font-family="sans-serif" font-size="39" lengthAdjust="spacing" textLength="381" x="666" y="997.4619">- License independent</text><text fill="#000000" font-family="sans-serif" font-size="39" lengthAdjust="spacing" textLength="102" x="666" y="1046.5166">Cons:</text><text fill="#000000" font-family="sans-serif" font-size="39" lengthAdjust="spacing" textLength="546" x="666" y="1095.5713">- ASCII format and picky to run:</text><text fill="#000000" font-family="sans-serif" font-size="39" lengthAdjust="spacing" textLength="1050" x="714" y="1144.626">i.e. manual edits, additional spaces etc. can cause it not run</text><text fill="#000000" font-family="sans-serif" font-size="39" lengthAdjust="spacing" textLength="1116" x="666" y="1193.6807">- Format archiac as opposed to advanced programming formatse</text><text fill="#000000" font-family="sans-serif" font-size="39" lengthAdjust="spacing" textLength="522" x="714" y="1242.7354">- eg yml format (eg: OrcaFlex)</text><rect fill="#F1F1F1" height="105.2813" rx="37.5" ry="37.5" style="stroke:#181818;stroke-width:1.5;" width="525" x="63" y="977.918"/><text fill="#000000" font-family="sans-serif" font-size="36" lengthAdjust="spacing" textLength="465" x="93" y="1045.2891">Generate Decks for .dat files</text><path d="M531,1296.3047 L531,1569.1055 L471,1581.1055 L531,1593.1055 L531,1865.9063 A0,0 0 0 0 531,1865.9063 L1752,1865.9063 A0,0 0 0 0 1752,1865.9063 L1752,1326.3047 L1722,1296.3047 L531,1296.3047 A0,0 0 0 0 531,1296.3047 " fill="#FEFFDD" style="stroke:#181818;stroke-width:1.5;"/><path d="M1722,1296.3047 L1722,1326.3047 L1752,1326.3047 L1722,1296.3047 " fill="#FEFFDD" style="stroke:#181818;stroke-width:1.5;"/><text fill="#000000" font-family="sans-serif" font-size="39" lengthAdjust="spacing" textLength="609" x="561" y="1351.79">Manual operations to extract &amp; plot</text><text fill="#000000" font-family="sans-serif" font-size="39" lengthAdjust="spacing" textLength="93" x="561" y="1400.8447">Pros:</text><text fill="#000000" font-family="sans-serif" font-size="39" lengthAdjust="spacing" textLength="783" x="549" y="1449.8994">- Good for beginners and adding new features</text><text fill="#000000" font-family="sans-serif" font-size="39" lengthAdjust="spacing" textLength="1068" x="549" y="1498.9541">- Parameter Sets to automate across programs and geometry</text><text fill="#000000" font-family="sans-serif" font-size="39" lengthAdjust="spacing" textLength="102" x="561" y="1548.0088">Cons:</text><text fill="#000000" font-family="sans-serif" font-size="39" lengthAdjust="spacing" textLength="381" x="549" y="1597.0635">- License dependency</text><text fill="#000000" font-family="sans-serif" font-size="39" lengthAdjust="spacing" textLength="423" x="549" y="1646.1182">- Limited data definitions</text><text fill="#000000" font-family="sans-serif" font-size="39" lengthAdjust="spacing" textLength="1110" x="597" y="1695.1729">- eg: data given in .csv files can not be parametrized by filename</text><text fill="#000000" font-family="sans-serif" font-size="39" lengthAdjust="spacing" textLength="342" x="549" y="1744.2275">- Manual operations</text><text fill="#000000" font-family="sans-serif" font-size="39" lengthAdjust="spacing" textLength="459" x="549" y="1793.2822">- Slow to open and work in</text><text fill="#000000" font-family="sans-serif" font-size="39" lengthAdjust="spacing" textLength="897" x="549" y="1842.3369">- Difficult to wire : Single source of truth data source</text><rect fill="#F1F1F1" height="105.2813" rx="37.5" ry="37.5" style="stroke:#181818;stroke-width:1.5;" width="291" x="180" y="1528.4648"/><text fill="#000000" font-family="sans-serif" font-size="36" lengthAdjust="spacing" textLength="231" x="210" y="1595.8359">Workbench UI</text><rect fill="none" height="414.0469" style="stroke:#000000;stroke-width:4.5;" width="897" x="175.5" y="1931.9063"/><path d="M283.5,1931.9063 L283.5,1963.7344 L253.5,1993.7344 L175.5,1993.7344 " fill="none" style="stroke:#000000;stroke-width:4.5;"/><text fill="#000000" font-family="sans-serif" font-size="42" lengthAdjust="spacing" textLength="78" x="184.5" y="1978.5059">Run</text><path d="M475.5,2053.7344 L475.5,2279.9531 L1012.5,2279.9531 L1012.5,2083.7344 L982.5,2053.7344 L475.5,2053.7344 " fill="#FEFFDD" style="stroke:#181818;stroke-width:1.5;"/><path d="M982.5,2053.7344 L982.5,2083.7344 L1012.5,2083.7344 L982.5,2053.7344 " fill="#FEFFDD" style="stroke:#181818;stroke-width:1.5;"/><text fill="#000000" font-family="sans-serif" font-size="39" lengthAdjust="spacing" textLength="105" x="493.5" y="2109.2197">Tools:</text><text fill="#000000" font-family="sans-serif" font-size="39" lengthAdjust="spacing" textLength="222" x="505.5" y="2158.2744">- Workbench</text><text fill="#000000" font-family="sans-serif" font-size="39" lengthAdjust="spacing" textLength="462" x="505.5" y="2207.3291">- AQWA.exe with .dat files</text><text fill="#000000" font-family="sans-serif" font-size="39" lengthAdjust="spacing" textLength="180" x="505.5" y="2256.3838">- MS DOS</text><rect fill="#F1F1F1" height="105.2813" rx="37.5" ry="37.5" style="stroke:#181818;stroke-width:1.5;" width="240" x="205.5" y="2114.2031"/><text fill="#000000" font-family="sans-serif" font-size="36" lengthAdjust="spacing" textLength="180" x="235.5" y="2181.5742">Run AQWA</text><rect fill="none" height="1518.2578" style="stroke:#000000;stroke-width:4.5;" width="2292" x="82.5" y="2375.9531"/><path d="M346.5,2375.9531 L346.5,2407.7813 L316.5,2437.7813 L82.5,2437.7813 " fill="none" style="stroke:#000000;stroke-width:4.5;"/><text fill="#000000" font-family="sans-serif" font-size="42" lengthAdjust="spacing" textLength="234" x="91.5" y="2422.5527">Postprocess</text><path d="M1609.5,3074.4141 L1609.5,3251.5781 L2314.5,3251.5781 L2314.5,3104.4141 L2284.5,3074.4141 L1609.5,3074.4141 " fill="#FEFFDD" style="stroke:#181818;stroke-width:1.5;"/><path d="M2284.5,3074.4141 L2284.5,3104.4141 L2314.5,3104.4141 L2284.5,3074.4141 " fill="#FEFFDD" style="stroke:#181818;stroke-width:1.5;"/><text fill="#000000" font-family="sans-serif" font-size="39" lengthAdjust="spacing" textLength="105" x="1627.5" y="3129.8994">Tools:</text><text fill="#000000" font-family="sans-serif" font-size="39" lengthAdjust="spacing" textLength="180" x="1639.5" y="3178.9541">- MS DOS</text><text fill="#000000" font-family="sans-serif" font-size="39" lengthAdjust="spacing" textLength="630" x="1639.5" y="3228.0088">- Programming (Python) for .LIS files</text><path d="M528,2467.7813 L528,2568.8906 L468,2580.8906 L528,2592.8906 L528,2694 A0,0 0 0 0 528,2694 L1098,2694 A0,0 0 0 0 1098,2694 L1098,2497.7813 L1068,2467.7813 L528,2467.7813 A0,0 0 0 0 528,2467.7813 " fill="#FEFFDD" style="stroke:#181818;stroke-width:1.5;"/><path d="M1068,2467.7813 L1068,2497.7813 L1098,2497.7813 L1068,2467.7813 " fill="#FEFFDD" style="stroke:#181818;stroke-width:1.5;"/><text fill="#000000" font-family="sans-serif" font-size="39" lengthAdjust="spacing" textLength="105" x="546" y="2523.2666">Tools:</text><text fill="#000000" font-family="sans-serif" font-size="39" lengthAdjust="spacing" textLength="456" x="558" y="2572.3213">- AQWAReader (.csv files)</text><text fill="#000000" font-family="sans-serif" font-size="39" lengthAdjust="spacing" textLength="387" x="594" y="2621.376">- Pros: Official support</text><text fill="#000000" font-family="sans-serif" font-size="39" lengthAdjust="spacing" textLength="459" x="594" y="2670.4307">- Cons: Too many csv files</text><rect fill="#F1F1F1" height="105.2813" rx="37.5" ry="37.5" style="stroke:#181818;stroke-width:1.5;" width="285" x="183" y="2528.25"/><text fill="#000000" font-family="sans-serif" font-size="36" lengthAdjust="spacing" textLength="225" x="213" y="2595.6211">AQWAReader</text><path d="M598.5,2724 L598.5,2923.2188 L538.5,2935.2188 L598.5,2947.2188 L598.5,3146.4375 A0,0 0 0 0 598.5,3146.4375 L1579.5,3146.4375 A0,0 0 0 0 1579.5,3146.4375 L1579.5,2754 L1549.5,2724 L598.5,2724 A0,0 0 0 0 598.5,2724 " fill="#FEFFDD" style="stroke:#181818;stroke-width:1.5;"/><path d="M1549.5,2724 L1549.5,2754 L1579.5,2754 L1549.5,2724 " fill="#FEFFDD" style="stroke:#181818;stroke-width:1.5;"/><text fill="#000000" font-family="sans-serif" font-size="39" lengthAdjust="spacing" textLength="633" x="616.5" y="2779.4854">Reading/Programming from .LIS files</text><text fill="#000000" font-family="sans-serif" font-size="39" lengthAdjust="spacing" textLength="93" x="616.5" y="2828.54">Pros:</text><text fill="#000000" font-family="sans-serif" font-size="39" lengthAdjust="spacing" textLength="870" x="652.5" y="2877.5947">- Programming to get single shot at complete data</text><text fill="#000000" font-family="sans-serif" font-size="39" lengthAdjust="spacing" textLength="102" x="616.5" y="2926.6494">Cons:</text><text fill="#000000" font-family="sans-serif" font-size="39" lengthAdjust="spacing" textLength="639" x="652.5" y="2975.7041">- multiple tables for single set of data</text><text fill="#000000" font-family="sans-serif" font-size="39" lengthAdjust="spacing" textLength="396" x="700.5" y="3024.7588">- Headers are repeated</text><text fill="#000000" font-family="sans-serif" font-size="39" lengthAdjust="spacing" textLength="717" x="700.5" y="3073.8135">- White Space between sets of each data</text><text fill="#000000" font-family="sans-serif" font-size="39" lengthAdjust="spacing" textLength="438" x="652.5" y="3122.8682">- file format may change?</text><rect fill="#F1F1F1" height="105.2813" rx="37.5" ry="37.5" style="stroke:#181818;stroke-width:1.5;" width="426" x="112.5" y="2882.5781"/><text fill="#000000" font-family="sans-serif" font-size="36" lengthAdjust="spacing" textLength="366" x="142.5" y="2949.9492">AQWA output file (.LIS)</text><path d="M583.5,3264.5508 L583.5,3292.0781 L523.5,3304.0781 L583.5,3316.0781 L583.5,3343.6055 A0,0 0 0 0 583.5,3343.6055 L1255.5,3343.6055 A0,0 0 0 0 1255.5,3343.6055 L1255.5,3294.5508 L1225.5,3264.5508 L583.5,3264.5508 A0,0 0 0 0 583.5,3264.5508 " fill="#FEFFDD" style="stroke:#181818;stroke-width:1.5;"/><path d="M1225.5,3264.5508 L1225.5,3294.5508 L1255.5,3294.5508 L1225.5,3264.5508 " fill="#FEFFDD" style="stroke:#181818;stroke-width:1.5;"/><text fill="#000000" font-family="sans-serif" font-size="39" lengthAdjust="spacing" textLength="609" x="601.5" y="3320.0361">Manual operations to extract &amp; plot</text><rect fill="#F1F1F1" height="105.2813" rx="37.5" ry="37.5" style="stroke:#181818;stroke-width:1.5;" width="396" x="127.5" y="3251.4375"/><text fill="#000000" font-family="sans-serif" font-size="36" lengthAdjust="spacing" textLength="336" x="157.5" y="3318.8086">AQL - Excel Interface</text><path d="M541.5,3386.7188 L541.5,3610.4648 L481.5,3622.4648 L541.5,3634.4648 L541.5,3858.2109 A0,0 0 0 0 541.5,3858.2109 L1408.5,3858.2109 A0,0 0 0 0 1408.5,3858.2109 L1408.5,3416.7188 L1378.5,3386.7188 L541.5,3386.7188 A0,0 0 0 0 541.5,3386.7188 " fill="#FEFFDD" style="stroke:#181818;stroke-width:1.5;"/><path d="M1378.5,3386.7188 L1378.5,3416.7188 L1408.5,3416.7188 L1378.5,3386.7188 " fill="#FEFFDD" style="stroke:#181818;stroke-width:1.5;"/><text fill="#000000" font-family="sans-serif" font-size="39" lengthAdjust="spacing" textLength="609" x="559.5" y="3442.2041">Manual operations to extract &amp; plot</text><text fill="#000000" font-family="sans-serif" font-size="39" lengthAdjust="spacing" textLength="93" x="559.5" y="3491.2588">Pros:</text><text fill="#000000" font-family="sans-serif" font-size="39" lengthAdjust="spacing" textLength="666" x="595.5" y="3540.3135">- Good/killer graphics and 3D plots etc</text><text fill="#000000" font-family="sans-serif" font-size="39" lengthAdjust="spacing" textLength="102" x="559.5" y="3589.3682">Cons:</text><text fill="#000000" font-family="sans-serif" font-size="39" lengthAdjust="spacing" textLength="150" x="595.5" y="3638.4229">- Limited</text><text fill="#000000" font-family="sans-serif" font-size="39" lengthAdjust="spacing" textLength="396" x="643.5" y="3687.4775">- Headers are repeated</text><text fill="#000000" font-family="sans-serif" font-size="39" lengthAdjust="spacing" textLength="717" x="643.5" y="3736.5322">- White Space between sets of each data</text><text fill="#000000" font-family="sans-serif" font-size="39" lengthAdjust="spacing" textLength="438" x="595.5" y="3785.5869">- file format may change?</text><text fill="#000000" font-family="sans-serif" font-size="39" lengthAdjust="spacing" textLength="768" x="595.5" y="3834.6416">- Many manual operations to extract outputs</text><rect fill="#F1F1F1" height="105.2813" rx="37.5" ry="37.5" style="stroke:#181818;stroke-width:1.5;" width="312" x="169.5" y="3569.8242"/><text fill="#000000" font-family="sans-serif" font-size="36" lengthAdjust="spacing" textLength="252" x="199.5" y="3637.1953">Workbench - UI</text><ellipse cx="325.5" cy="3987.2109" fill="none" rx="33" ry="33" style="stroke:#222222;stroke-width:3.0;"/><ellipse cx="325.5" cy="3987.2109" fill="#222222" rx="18" ry="18" style="stroke:#222222;stroke-width:3.0;"/><line style="stroke:#181818;stroke-width:3.0;" x1="325.5" x2="325.5" y1="1083.1992" y2="1528.4648"/><polygon fill="#181818" points="313.5,1498.4648,325.5,1528.4648,337.5,1498.4648,325.5,1510.4648" style="stroke:#181818;stroke-width:3.0;"/><line style="stroke:#181818;stroke-width:3.0;" x1="325.5" x2="325.5" y1="465.8203" y2="977.918"/><polygon fill="#181818" points="313.5,947.918,325.5,977.918,337.5,947.918,325.5,959.918" style="stroke:#181818;stroke-width:3.0;"/><line style="stroke:#181818;stroke-width:3.0;" x1="325.5" x2="325.5" y1="1633.7461" y2="2114.2031"/><polygon fill="#181818" points="313.5,2084.2031,325.5,2114.2031,337.5,2084.2031,325.5,2096.2031" style="stroke:#181818;stroke-width:3.0;"/><line style="stroke:#181818;stroke-width:3.0;" x1="325.5" x2="325.5" y1="2633.5313" y2="2882.5781"/><polygon fill="#181818" points="313.5,2852.5781,325.5,2882.5781,337.5,2852.5781,325.5,2864.5781" style="stroke:#181818;stroke-width:3.0;"/><line style="stroke:#181818;stroke-width:3.0;" x1="325.5" x2="325.5" y1="2987.8594" y2="3251.4375"/><polygon fill="#181818" points="313.5,3221.4375,325.5,3251.4375,337.5,3221.4375,325.5,3233.4375" style="stroke:#181818;stroke-width:3.0;"/><line style="stroke:#181818;stroke-width:3.0;" x1="325.5" x2="325.5" y1="3356.7188" y2="3569.8242"/><polygon fill="#181818" points="313.5,3539.8242,325.5,3569.8242,337.5,3539.8242,325.5,3551.8242" style="stroke:#181818;stroke-width:3.0;"/><line style="stroke:#181818;stroke-width:3.0;" x1="325.5" x2="325.5" y1="2219.4844" y2="2528.25"/><polygon fill="#181818" points="313.5,2498.25,325.5,2528.25,337.5,2498.25,325.5,2510.25" style="stroke:#181818;stroke-width:3.0;"/><line style="stroke:#181818;stroke-width:3.0;" x1="325.5" x2="325.5" y1="3675.1055" y2="3954.2109"/><polygon fill="#181818" points="313.5,3924.2109,325.5,3954.2109,337.5,3924.2109,325.5,3936.2109" style="stroke:#181818;stroke-width:3.0;"/><text fill="#888888" font-family="sans-serif" font-size="30" lengthAdjust="spacing" textLength="288" x="1055.25" y="4048.3535">2024.04.30 at 11:14</text><text fill="#888888" font-family="sans-serif" font-size="30" lengthAdjust="spacing" textLength="231" x="1083.75" y="4086.0879">aqwa_runs.puml</text><!--SRC=[pLPDR-Cs4BthLmm2RDSEDWxQnLwSGv5DDec1f4dZB7BfXQR6CckA54WgYLlql_UHifNObZSf-e7gOfWQpRoPUVE6NWhDz37pSsKguKH9GGNDdwtBsTtQskGdrXbszFsdRfkxcP9pmzxJ3zq69rPRHuxphTT2pWlNX8WcTxOKmMPPUad7FzyVqsrjFFrYZkiGtobhiim7uKAM4HvZ0vDJnIoal_7Pt- -DVgARs-lpso_ZSNz_ltrpFVcLPL0FFAJIvhKMZgOASKfXHC4bcq32vDJQurWllF8q1JGMVa5rbOl0_h0KoWGsmaW-TEm0CNt4-3eYsedjMEiKqfCo9BnKYde3kEp744WFPrJMSXP_A-kzccXkFpwWiJ85y7fREybafnHS7MOl32vOLyatFR3pA1P9QuApkWCUse0oHvkz6yULin8T7DALpLdJc4DTxT7lMUjyUCxW0BAdKvRpfYOHUfFFKMkt8_Fut3ZhXsid1_GbbZLOUbIE2Ux4S4UMwUNoSCC7_1QWL8dlg7Up23DhFj2PTS49Gnpae4y0UpMcq-inVHO1zTtmSAaa6y-eNCuLoWGgh5cSMBE5_7XyCXgrVKDfAqn1oWLy6Av7Y8yQy21IhHQQE5V1Vo2Hvwa3EF6LGFqJMfA0BKKTyOHOo-Xm8_ZPCgoJCoLaf8kjG1ZEOtoHFqHc0j6BmZH0uNCBs05nGOjIhtBfSJ6aQoV5cUQd_fhvEeCIBUwjcq_OeAPVHszY0LqrDR1Lf1Eozn4pFw5RCj1tL6cxyK4NRywjpHC79rme0sRwr8DOKIHh-96cB4Bjs6-I9QeF1yWPE9v2YqPQc8H48B-gMkEmO0jhjrX7rCM75OTM39ABBODI1NGb4JddgJAf-Rwp8SF6h81QcJZG0-aVbj8HwH5PCM6gccIS-Wr-9ujaO72o4NchuXllnze-nah0mAIi7z5KHDqmErNJgPAr3kt0_kLXNIVG7rjA1BMFglCM6k6virPlz649jMLbrykuLmRynCW1K9z5hCksKOtNXW2mazUZ7MdTM1-M2lkFfDU1QhSMzXkjlXoDEzBiI2OcSii2U_lexoDzTePDrtAulsswGeyLT1rffg8erX0r5tOOfo6CeQEgBgXr_fRyoDQXgfk-0nXgqtzRiZ4NrFRmPPsdpfQxwjiXNjkDmZWL7CWlPsc6uGOdfIqh3QLgXkar0MgybfXEXQyeY4dKYjZvbLj4m7n6PpiAUf7w1Dt3PED60Ft4ZQtRz7u6AQDnN5hGeV3840uVzHGHMCXPTvY3fjxBFLCAD6qcJC4_ljwootXNU9Aucenmyt9J1FvtjiqtLzp1VxdadXVTuLnfZGa2OIhSjPlDzF4qUKbtXZUoOxM1_j_zRtVMOdLTwgvYCyB-s_l51rjbsTJYp6NlukszjxV0CxYw6kJv-pXdxoykXcMvry_UhTPdhvz5Hykl_WG0]--></g></svg>