<?xml version="1.0" encoding="us-ascii" standalone="no"?><svg xmlns="http://www.w3.org/2000/svg" xmlns:xlink="http://www.w3.org/1999/xlink" contentStyleType="text/css" height="3825px" preserveAspectRatio="none" style="width:1821px;height:3825px;background:#FFFFFF;" version="1.1" viewBox="0 0 1821 3825" width="1821px" zoomAndPan="magnify"><defs/><g><rect fill="#FF6347" height="135.6563" id="_title" rx="22.5" ry="22.5" style="stroke:#FF0000;stroke-width:6.0;" width="546" x="633" y="45"/><text fill="#000000" font-family="sans-serif" font-size="42" font-weight="bold" lengthAdjust="spacing" textLength="504" x="648" y="103.5996">Modular Model Building</text><text fill="#000000" font-family="sans-serif" font-size="42" font-weight="bold" lengthAdjust="spacing" textLength="126" x="849" y="156.4277">AQWA</text><path d="M366,228.6563 L366,356.7656 L1227,356.7656 L1227,258.6563 L1197,228.6563 L366,228.6563 " fill="#FEFFDD" style="stroke:#181818;stroke-width:1.5;"/><path d="M1197,228.6563 L1197,258.6563 L1227,258.6563 L1197,228.6563 " fill="#FEFFDD" style="stroke:#181818;stroke-width:1.5;"/><text fill="#000000" font-family="sans-serif" font-size="39" lengthAdjust="spacing" textLength="693" x="384" y="284.1416">Objective: modular file management and</text><text fill="#000000" font-family="sans-serif" font-size="39" lengthAdjust="spacing" textLength="798" x="384" y="333.1963">analysis for easy updates/maintenance/reruns</text><path d="M523.5,416.7656 L523.5,495.8203 L1069.5,495.8203 L1069.5,446.7656 L1039.5,416.7656 L523.5,416.7656 " fill="#FEFFDD" style="stroke:#181818;stroke-width:1.5;"/><path d="M1039.5,416.7656 L1039.5,446.7656 L1069.5,446.7656 L1039.5,416.7656 " fill="#FEFFDD" style="stroke:#181818;stroke-width:1.5;"/><text fill="#000000" font-family="sans-serif" font-size="39" lengthAdjust="spacing" textLength="483" x="541.5" y="472.251">All files in ascii (.dat) format</text><ellipse cx="306" cy="362.2383" fill="#222222" rx="30" ry="30" style="stroke:#222222;stroke-width:3.0;"/><rect fill="none" height="274.5234" style="stroke:#000000;stroke-width:4.5;" width="1713" x="75" y="555.8203"/><path d="M492,555.8203 L492,587.6484 L462,617.6484 L75,617.6484 " fill="none" style="stroke:#000000;stroke-width:4.5;"/><text fill="#000000" font-family="sans-serif" font-size="42" lengthAdjust="spacing" textLength="387" x="84" y="602.4199">Analysis Parameters</text><path d="M567,666.2344 L567,718.2891 L507,730.2891 L567,742.2891 L567,794.3438 A0,0 0 0 0 567,794.3438 L1758,794.3438 A0,0 0 0 0 1758,794.3438 L1758,696.2344 L1728,666.2344 L567,666.2344 A0,0 0 0 0 567,666.2344 " fill="#FEFFDD" style="stroke:#181818;stroke-width:1.5;"/><path d="M1728,666.2344 L1728,696.2344 L1758,696.2344 L1728,666.2344 " fill="#FEFFDD" style="stroke:#181818;stroke-width:1.5;"/><text fill="#000000" font-family="sans-serif" font-size="39" lengthAdjust="spacing" textLength="546" x="585" y="721.7197">Simulation time, time step, etc.</text><text fill="#000000" font-family="sans-serif" font-size="39" lengthAdjust="spacing" textLength="1128" x="585" y="770.7744">These parameters may be changed later if unconvergence occurs</text><rect fill="#F1F1F1" height="105.2813" rx="37.5" ry="37.5" style="stroke:#181818;stroke-width:1.5;" width="402" x="105" y="677.6484"/><text fill="#000000" font-family="sans-serif" font-size="36" lengthAdjust="spacing" textLength="342" x="135" y="745.0195">Analysis Parameters</text><rect fill="none" height="596.0859" style="stroke:#000000;stroke-width:4.5;" width="1495.5" x="39" y="860.3438"/><path d="M147,860.3438 L147,892.1719 L117,922.1719 L39,922.1719 " fill="none" style="stroke:#000000;stroke-width:4.5;"/><text fill="#000000" font-family="sans-serif" font-size="42" lengthAdjust="spacing" textLength="78" x="48" y="906.9434">field</text><path d="M516,986.2852 L516,1013.8125 L456,1025.8125 L516,1037.8125 L516,1065.3398 A0,0 0 0 0 516,1065.3398 L1191,1065.3398 A0,0 0 0 0 1191,1065.3398 L1191,1016.2852 L1161,986.2852 L516,986.2852 A0,0 0 0 0 516,986.2852 " fill="#FEFFDD" style="stroke:#181818;stroke-width:1.5;"/><path d="M1161,986.2852 L1161,1016.2852 L1191,1016.2852 L1161,986.2852 " fill="#FEFFDD" style="stroke:#181818;stroke-width:1.5;"/><text fill="#000000" font-family="sans-serif" font-size="39" lengthAdjust="spacing" textLength="612" x="534" y="1041.7705">North Direction per alignment sheet</text><rect fill="#F1F1F1" height="105.2813" rx="37.5" ry="37.5" style="stroke:#181818;stroke-width:1.5;" width="300" x="156" y="973.1719"/><text fill="#000000" font-family="sans-serif" font-size="36" lengthAdjust="spacing" textLength="240" x="186" y="1040.543">N-S Directions</text><path d="M603,1127.0391 L603,1179.0938 L543,1191.0938 L603,1203.0938 L603,1255.1484 A0,0 0 0 0 603,1255.1484 L1311,1255.1484 A0,0 0 0 0 1311,1255.1484 L1311,1157.0391 L1281,1127.0391 L603,1127.0391 A0,0 0 0 0 603,1127.0391 " fill="#FEFFDD" style="stroke:#181818;stroke-width:1.5;"/><path d="M1281,1127.0391 L1281,1157.0391 L1311,1157.0391 L1281,1127.0391 " fill="#FEFFDD" style="stroke:#181818;stroke-width:1.5;"/><text fill="#000000" font-family="sans-serif" font-size="39" lengthAdjust="spacing" textLength="201" x="621" y="1182.5244">water depth</text><text fill="#000000" font-family="sans-serif" font-size="39" lengthAdjust="spacing" textLength="645" x="621" y="1231.5791">seabed profile/bathymetry (3D profile)</text><rect fill="#F1F1F1" height="105.2813" rx="37.5" ry="37.5" style="stroke:#181818;stroke-width:1.5;" width="474" x="69" y="1138.4531"/><text fill="#000000" font-family="sans-serif" font-size="36" lengthAdjust="spacing" textLength="414" x="99" y="1205.8242">Seabed and Water Depth</text><path d="M499.5,1328.2617 L499.5,1355.7891 L439.5,1367.7891 L499.5,1379.7891 L499.5,1407.3164 A0,0 0 0 0 499.5,1407.3164 L1504.5,1407.3164 A0,0 0 0 0 1504.5,1407.3164 L1504.5,1358.2617 L1474.5,1328.2617 L499.5,1328.2617 A0,0 0 0 0 499.5,1328.2617 " fill="#FEFFDD" style="stroke:#181818;stroke-width:1.5;"/><path d="M1474.5,1328.2617 L1474.5,1358.2617 L1504.5,1358.2617 L1474.5,1328.2617 " fill="#FEFFDD" style="stroke:#181818;stroke-width:1.5;"/><text fill="#000000" font-family="sans-serif" font-size="39" lengthAdjust="spacing" textLength="942" x="517.5" y="1383.7471">Define project data in files i.e waves, current, wind etc.</text><rect fill="#F1F1F1" height="105.2813" rx="37.5" ry="37.5" style="stroke:#181818;stroke-width:1.5;" width="267" x="172.5" y="1315.1484"/><text fill="#000000" font-family="sans-serif" font-size="36" lengthAdjust="spacing" textLength="207" x="202.5" y="1382.5195">Environment</text><rect fill="none" height="688.4414" style="stroke:#000000;stroke-width:4.5;" width="1509" x="114" y="1486.4297"/><path d="M372,1486.4297 L372,1518.2578 L342,1548.2578 L114,1548.2578 " fill="none" style="stroke:#000000;stroke-width:4.5;"/><text fill="#000000" font-family="sans-serif" font-size="42" lengthAdjust="spacing" textLength="228" x="123" y="1533.0293">Vessel Data</text><path d="M981,1764.5391 L981,1941.7031 L1563,1941.7031 L1563,1794.5391 L1533,1764.5391 L981,1764.5391 " fill="#FEFFDD" style="stroke:#181818;stroke-width:1.5;"/><path d="M1533,1764.5391 L1533,1794.5391 L1563,1794.5391 L1533,1764.5391 " fill="#FEFFDD" style="stroke:#181818;stroke-width:1.5;"/><text fill="#000000" font-family="sans-serif" font-size="39" lengthAdjust="spacing" textLength="282" x="999" y="1820.0244">Add Host vessel</text><text fill="#000000" font-family="sans-serif" font-size="39" lengthAdjust="spacing" textLength="432" x="999" y="1869.0791">Add installation vessel(s)</text><text fill="#000000" font-family="sans-serif" font-size="39" lengthAdjust="spacing" textLength="519" x="999" y="1918.1338">Repeat process for all vessels</text><path d="M496.5,1612.3711 L496.5,1639.8984 L436.5,1651.8984 L496.5,1663.8984 L496.5,1691.4258 A0,0 0 0 0 496.5,1691.4258 L772.5,1691.4258 A0,0 0 0 0 772.5,1691.4258 L772.5,1642.3711 L742.5,1612.3711 L496.5,1612.3711 A0,0 0 0 0 496.5,1612.3711 " fill="#FEFFDD" style="stroke:#181818;stroke-width:1.5;"/><path d="M742.5,1612.3711 L742.5,1642.3711 L772.5,1642.3711 L742.5,1612.3711 " fill="#FEFFDD" style="stroke:#181818;stroke-width:1.5;"/><text fill="#000000" font-family="sans-serif" font-size="39" lengthAdjust="spacing" textLength="213" x="514.5" y="1667.8564">Vessel Data</text><rect fill="#F1F1F1" height="105.2813" rx="37.5" ry="37.5" style="stroke:#181818;stroke-width:1.5;" width="261" x="175.5" y="1599.2578"/><text fill="#000000" font-family="sans-serif" font-size="36" lengthAdjust="spacing" textLength="201" x="205.5" y="1666.6289">Vessel Data</text><path d="M525,1777.6523 L525,1829.707 L465,1841.707 L525,1853.707 L525,1905.7617 A0,0 0 0 0 525,1905.7617 L951,1905.7617 A0,0 0 0 0 951,1905.7617 L951,1807.6523 L921,1777.6523 L525,1777.6523 A0,0 0 0 0 525,1777.6523 " fill="#FEFFDD" style="stroke:#181818;stroke-width:1.5;"/><path d="M921,1777.6523 L921,1807.6523 L951,1807.6523 L921,1777.6523 " fill="#FEFFDD" style="stroke:#181818;stroke-width:1.5;"/><text fill="#000000" font-family="sans-serif" font-size="39" lengthAdjust="spacing" textLength="81" x="543" y="1833.1377">Draft</text><text fill="#000000" font-family="sans-serif" font-size="39" lengthAdjust="spacing" textLength="363" x="543" y="1882.1924">Type of solution, etc.</text><rect fill="#F1F1F1" height="105.2813" rx="37.5" ry="37.5" style="stroke:#181818;stroke-width:1.5;" width="318" x="147" y="1789.0664"/><text fill="#000000" font-family="sans-serif" font-size="36" lengthAdjust="spacing" textLength="258" x="177" y="1856.4375">Vessel Settings</text><path d="M528,2010.7617 L528,2062.8164 L468,2074.8164 L528,2086.8164 L528,2138.8711 A0,0 0 0 0 528,2138.8711 L942,2138.8711 A0,0 0 0 0 942,2138.8711 L942,2040.7617 L912,2010.7617 L528,2010.7617 A0,0 0 0 0 528,2010.7617 " fill="#FEFFDD" style="stroke:#181818;stroke-width:1.5;"/><path d="M912,2010.7617 L912,2040.7617 L942,2040.7617 L912,2010.7617 " fill="#FEFFDD" style="stroke:#181818;stroke-width:1.5;"/><text fill="#000000" font-family="sans-serif" font-size="39" lengthAdjust="spacing" textLength="309" x="546" y="2066.2471">Location of vessel</text><text fill="#000000" font-family="sans-serif" font-size="39" lengthAdjust="spacing" textLength="351" x="546" y="2115.3018">Orientation of vessel</text><rect fill="#F1F1F1" height="105.2813" rx="37.5" ry="37.5" style="stroke:#181818;stroke-width:1.5;" width="324" x="144" y="2022.1758"/><text fill="#000000" font-family="sans-serif" font-size="36" lengthAdjust="spacing" textLength="264" x="174" y="2089.5469">Vessel Location</text><rect fill="none" height="470.2734" style="stroke:#000000;stroke-width:4.5;" width="1071" x="33" y="2204.8711"/><path d="M540,2204.8711 L540,2236.6992 L510,2266.6992 L33,2266.6992 " fill="none" style="stroke:#000000;stroke-width:4.5;"/><text fill="#000000" font-family="sans-serif" font-size="42" lengthAdjust="spacing" textLength="477" x="42" y="2251.4707">Structure - Vessel Assets</text><path d="M609,2296.6992 L609,2373.2813 L549,2385.2813 L609,2397.2813 L609,2473.8633 A0,0 0 0 0 609,2473.8633 L1074,2473.8633 A0,0 0 0 0 1074,2473.8633 L1074,2326.6992 L1044,2296.6992 L609,2296.6992 A0,0 0 0 0 609,2296.6992 " fill="#FEFFDD" style="stroke:#181818;stroke-width:1.5;"/><path d="M1044,2296.6992 L1044,2326.6992 L1074,2326.6992 L1044,2296.6992 " fill="#FEFFDD" style="stroke:#181818;stroke-width:1.5;"/><text fill="#000000" font-family="sans-serif" font-size="39" lengthAdjust="spacing" textLength="246" x="627" y="2352.1846">examples are:</text><text fill="#000000" font-family="sans-serif" font-size="39" lengthAdjust="spacing" textLength="390" x="639" y="2401.2393">Add additional weights</text><text fill="#000000" font-family="sans-serif" font-size="39" lengthAdjust="spacing" textLength="252" x="639" y="2450.2939">structures etc.</text><rect fill="#F1F1F1" height="105.2813" rx="37.5" ry="37.5" style="stroke:#181818;stroke-width:1.5;" width="486" x="63" y="2332.6406"/><text fill="#000000" font-family="sans-serif" font-size="36" lengthAdjust="spacing" textLength="426" x="93" y="2400.0117">Basic Structure properties</text><path d="M510,2546.9766 L510,2574.5039 L450,2586.5039 L510,2598.5039 L510,2626.0313 A0,0 0 0 0 510,2626.0313 L732,2626.0313 A0,0 0 0 0 732,2626.0313 L732,2576.9766 L702,2546.9766 L510,2546.9766 A0,0 0 0 0 510,2546.9766 " fill="#FEFFDD" style="stroke:#181818;stroke-width:1.5;"/><path d="M702,2546.9766 L702,2576.9766 L732,2576.9766 L702,2546.9766 " fill="#FEFFDD" style="stroke:#181818;stroke-width:1.5;"/><text fill="#000000" font-family="sans-serif" font-size="39" lengthAdjust="spacing" textLength="159" x="528" y="2602.4619">Moorings</text><rect fill="#F1F1F1" height="105.2813" rx="37.5" ry="37.5" style="stroke:#181818;stroke-width:1.5;" width="288" x="162" y="2533.8633"/><text fill="#000000" font-family="sans-serif" font-size="36" lengthAdjust="spacing" textLength="228" x="192" y="2601.2344">Interface Data</text><rect fill="none" height="1010.625" style="stroke:#000000;stroke-width:4.5;" width="1179" x="61.5" y="2705.1445"/><path d="M430.5,2705.1445 L430.5,2736.9727 L400.5,2766.9727 L61.5,2766.9727 " fill="none" style="stroke:#000000;stroke-width:4.5;"/><text fill="#000000" font-family="sans-serif" font-size="42" lengthAdjust="spacing" textLength="339" x="70.5" y="2751.7441">Structure - Assets</text><path d="M133.5,2817.9727 L118.5,2961.1758 L133.5,3104.3789 M478.5,2817.9727 L493.5,2961.1758 L478.5,3104.3789 " fill="#F1F1F1" style="stroke:#181818;stroke-width:1.5;"/><text fill="#000000" font-family="sans-serif" font-size="36" lengthAdjust="spacing" textLength="279" x="148.5" y="2885.3438">Basic Structures:</text><text fill="#000000" font-family="sans-serif" font-size="36" lengthAdjust="spacing" textLength="255" x="184.5" y="2930.625">- jumpers/arms</text><text fill="#000000" font-family="sans-serif" font-size="36" lengthAdjust="spacing" textLength="279" x="184.5" y="2975.9063">- other structures</text><text fill="#000000" font-family="sans-serif" font-size="36" lengthAdjust="spacing" textLength="9" x="148.5" y="3021.1875">&#160;</text><text fill="#000000" font-family="sans-serif" font-size="36" lengthAdjust="spacing" textLength="9" x="148.5" y="3066.4688">&#160;</text><rect fill="none" height="419.3906" style="stroke:#000000;stroke-width:4.5;" width="1119" x="91.5" y="3134.3789"/><path d="M643.5,3134.3789 L643.5,3166.207 L613.5,3196.207 L91.5,3196.207 " fill="none" style="stroke:#000000;stroke-width:4.5;"/><text fill="#000000" font-family="sans-serif" font-size="42" lengthAdjust="spacing" textLength="522" x="100.5" y="3180.9785">Stucture Interface to Vessel</text><path d="M550.5,3260.3203 L550.5,3287.8477 L490.5,3299.8477 L550.5,3311.8477 L550.5,3339.375 A0,0 0 0 0 550.5,3339.375 L1180.5,3339.375 A0,0 0 0 0 1180.5,3339.375 L1180.5,3290.3203 L1150.5,3260.3203 L550.5,3260.3203 A0,0 0 0 0 550.5,3260.3203 " fill="#FEFFDD" style="stroke:#181818;stroke-width:1.5;"/><path d="M1150.5,3260.3203 L1150.5,3290.3203 L1180.5,3290.3203 L1150.5,3260.3203 " fill="#FEFFDD" style="stroke:#181818;stroke-width:1.5;"/><text fill="#000000" font-family="sans-serif" font-size="39" lengthAdjust="spacing" textLength="567" x="568.5" y="3315.8057">Rigging, Chutes, Tensioners etc.</text><rect fill="#F1F1F1" height="105.2813" rx="37.5" ry="37.5" style="stroke:#181818;stroke-width:1.5;" width="369" x="121.5" y="3247.207"/><text fill="#000000" font-family="sans-serif" font-size="36" lengthAdjust="spacing" textLength="309" x="151.5" y="3314.5781">Structure to Vessel</text><path d="M526.5,3425.6016 L526.5,3453.1289 L466.5,3465.1289 L526.5,3477.1289 L526.5,3504.6563 A0,0 0 0 0 526.5,3504.6563 L901.5,3504.6563 A0,0 0 0 0 901.5,3504.6563 L901.5,3455.6016 L871.5,3425.6016 L526.5,3425.6016 A0,0 0 0 0 526.5,3425.6016 " fill="#FEFFDD" style="stroke:#181818;stroke-width:1.5;"/><path d="M871.5,3425.6016 L871.5,3455.6016 L901.5,3455.6016 L871.5,3425.6016 " fill="#FEFFDD" style="stroke:#181818;stroke-width:1.5;"/><text fill="#000000" font-family="sans-serif" font-size="39" lengthAdjust="spacing" textLength="312" x="544.5" y="3481.0869">For modelling etc.</text><rect fill="#F1F1F1" height="105.2813" rx="37.5" ry="37.5" style="stroke:#181818;stroke-width:1.5;" width="321" x="145.5" y="3412.4883"/><text fill="#000000" font-family="sans-serif" font-size="36" lengthAdjust="spacing" textLength="261" x="175.5" y="3479.8594">Other interfaces</text><ellipse cx="306" cy="3646.7695" fill="none" rx="33" ry="33" style="stroke:#222222;stroke-width:3.0;"/><ellipse cx="306" cy="3646.7695" fill="#222222" rx="18" ry="18" style="stroke:#222222;stroke-width:3.0;"/><line style="stroke:#181818;stroke-width:3.0;" x1="306" x2="306" y1="392.2383" y2="677.6484"/><polygon fill="#181818" points="294,647.6484,306,677.6484,318,647.6484,306,659.6484" style="stroke:#181818;stroke-width:3.0;"/><line style="stroke:#181818;stroke-width:3.0;" x1="306" x2="306" y1="1078.4531" y2="1138.4531"/><polygon fill="#181818" points="294,1108.4531,306,1138.4531,318,1108.4531,306,1120.4531" style="stroke:#181818;stroke-width:3.0;"/><line style="stroke:#181818;stroke-width:3.0;" x1="306" x2="306" y1="1243.7344" y2="1315.1484"/><polygon fill="#181818" points="294,1285.1484,306,1315.1484,318,1285.1484,306,1297.1484" style="stroke:#181818;stroke-width:3.0;"/><line style="stroke:#181818;stroke-width:3.0;" x1="306" x2="306" y1="782.9297" y2="973.1719"/><polygon fill="#181818" points="294,943.1719,306,973.1719,318,943.1719,306,955.1719" style="stroke:#181818;stroke-width:3.0;"/><line style="stroke:#181818;stroke-width:3.0;" x1="306" x2="306" y1="1704.5391" y2="1789.0664"/><polygon fill="#181818" points="294,1759.0664,306,1789.0664,318,1759.0664,306,1771.0664" style="stroke:#181818;stroke-width:3.0;"/><line style="stroke:#181818;stroke-width:3.0;" x1="306" x2="306" y1="1894.3477" y2="2022.1758"/><polygon fill="#181818" points="294,1992.1758,306,2022.1758,318,1992.1758,306,2004.1758" style="stroke:#181818;stroke-width:3.0;"/><line style="stroke:#181818;stroke-width:3.0;" x1="306" x2="306" y1="1420.4297" y2="1599.2578"/><polygon fill="#181818" points="294,1569.2578,306,1599.2578,318,1569.2578,306,1581.2578" style="stroke:#181818;stroke-width:3.0;"/><line style="stroke:#181818;stroke-width:3.0;" x1="306" x2="306" y1="2437.9219" y2="2533.8633"/><polygon fill="#181818" points="294,2503.8633,306,2533.8633,318,2503.8633,306,2515.8633" style="stroke:#181818;stroke-width:3.0;"/><line style="stroke:#181818;stroke-width:3.0;" x1="306" x2="306" y1="2127.457" y2="2332.6406"/><polygon fill="#181818" points="294,2302.6406,306,2332.6406,318,2302.6406,306,2314.6406" style="stroke:#181818;stroke-width:3.0;"/><line style="stroke:#181818;stroke-width:3.0;" x1="306" x2="306" y1="3352.4883" y2="3412.4883"/><polygon fill="#181818" points="294,3382.4883,306,3412.4883,318,3382.4883,306,3394.4883" style="stroke:#181818;stroke-width:3.0;"/><line style="stroke:#181818;stroke-width:3.0;" x1="306" x2="306" y1="3104.3789" y2="3247.207"/><polygon fill="#181818" points="294,3217.207,306,3247.207,318,3217.207,306,3229.207" style="stroke:#181818;stroke-width:3.0;"/><line style="stroke:#181818;stroke-width:3.0;" x1="306" x2="306" y1="3517.7695" y2="3613.7695"/><polygon fill="#181818" points="294,3583.7695,306,3613.7695,318,3583.7695,306,3595.7695" style="stroke:#181818;stroke-width:3.0;"/><line style="stroke:#181818;stroke-width:3.0;" x1="306" x2="306" y1="2639.1445" y2="2817.9727"/><polygon fill="#181818" points="294,2787.9727,306,2817.9727,318,2787.9727,306,2799.9727" style="stroke:#181818;stroke-width:3.0;"/><text fill="#888888" font-family="sans-serif" font-size="30" lengthAdjust="spacing" textLength="288" x="762" y="3743.9121">2024.03.01 at 14:34</text><text fill="#888888" font-family="sans-serif" font-size="30" lengthAdjust="spacing" textLength="327" x="742.5" y="3781.6465">modular_analysis.puml</text><!--SRC=[bLRVRzem47xFNt52gaeb2jgclR0dMZPrqcYtWjQNlPZuahXDxCZdqA5f__lEBY7GGCdy48HzFxxxxlCb58iSuKD4JqgNmee2d78vNXahqTwRIijhOpLQUFVniCqYK_6JHY9uVzZWskJ6WaNPEXRnKsfVKdYJXIc4Cr4K3c5cP9KBwtynXwjAvLBf57vfcFnuc4GHEM5T504lRHo2LMdcmb-_xfQF63krmZ4Kcq29ugY5q2B50hK3eILixNaxNvCYI1W82bf3LKhXa4Q5KDgX5Zh6aKLRQGfEoDu-xr44apmFAGcK1a6nKj0VSiWBdu8BFH25kU7QbT7GczHuldk-qA6b7lo9jj771mm-RK-FGAhNN1NCI4ZaL863y0HoM0u0NJniEImo98HocubfNCCI8Sw4Jb421sE5g0Gg7HkzGfiYqmKcZYjBUz7s2_xRgZjHcClzIcylvp1LrhVJwEv5tXhhiiOHIaOeSfNgq7pA4DqRo4BcEOebL-U5yX0gd6Bfiiu8deEFz3wjCte9NLhZDJ9Q2fUjcLkxXlw7QRrzSGhWPxrIreIAEgEQOg8q-XJ-XW0hKdY5RgGwH8QzGXe0jyvot04yAqxSaiMfHlxaYS3tTihXj-qyT4kaX1j33bR1VczVQRxZ-KQeB-TzQZYvnnA5yuN4VlhuYylM6yD3bpHGjeEhCsKxFgSwiZ6TetCyhRghTMf5qjvTh4k-HGcGoIlFmk1K7tOnV3DneAupXjh1PtpLZkrOjOeryPRLALtCdQrYLrc4ovhN2J_Tg_5s9KZ5q1Xpb_a2EuNTASNVeYYzg8N5SUiqA4n86M2979xH1w6s7TKOg1FvN_bbOHF1q- -_93Opndh170bVa_aMcmsDnrYaXePBUAmAPfH6mXQqisrSnaEhAVfu7pU9cuATsNHq3qC3SNlUcPLxbQRCoW2kiyhveRH0JPpUluAwDECk5ADgXDsryuM7IU4_F7B_pN5w-94pPHGbXlTiTEO_7FgzDQ_XR3QKyXnuJftVt8oBedSHdVbHg_bDsh-8VA2Drpy0]--></g></svg>