<svg xmlns="http://www.w3.org/2000/svg" xmlns:xlink="http://www.w3.org/1999/xlink" contentStyleType="text/css" height="777px" preserveAspectRatio="none" style="width:640px;height:777px;background:#FFFFFF;" version="1.1" viewBox="0 0 640 777" width="640px" zoomAndPan="magnify"><defs/><g><rect fill="#FF6347" height="27.6094" id="_title" rx="7.5" ry="7.5" style="stroke:#FF0000;stroke-width:2.0;" width="164.8545" x="236.2852" y="15"/><text fill="#000000" font-family="sans-serif" font-size="14" font-weight="bold" lengthAdjust="spacing" textLength="154.8545" x="241.2852" y="34.5332">Generate Profile | QGIS</text><path d="M117.0303,48.6094 L117.0303,57.7852 L97.0303,61.7852 L117.0303,65.7852 L117.0303,74.9609 A0,0 0 0 0 117.0303,74.9609 L315.0728,74.9609 A0,0 0 0 0 315.0728,74.9609 L315.0728,58.6094 L305.0728,48.6094 L117.0303,48.6094 A0,0 0 0 0 117.0303,48.6094 " fill="#FEFFDD" style="stroke:#181818;stroke-width:0.5;"/><path d="M305.0728,48.6094 L305.0728,58.6094 L315.0728,58.6094 L305.0728,48.6094 " fill="#FEFFDD" style="stroke:#181818;stroke-width:0.5;"/><text fill="#000000" font-family="sans-serif" font-size="13" lengthAdjust="spacing" textLength="177.0425" x="123.0303" y="67.1045">Objective: Develop profile data</text><ellipse cx="87.0303" cy="61.7852" fill="#222222" rx="10" ry="10" style="stroke:#222222;stroke-width:1.0;"/><rect fill="none" height="91.5078" style="stroke:#000000;stroke-width:1.5;" width="608.0859" x="21.3389" y="84.9609"/><path d="M128.5869,84.9609 L128.5869,95.5703 L118.5869,105.5703 L21.3389,105.5703 " fill="none" style="stroke:#000000;stroke-width:1.5;"/><text fill="#000000" font-family="sans-serif" font-size="14" lengthAdjust="spacing" textLength="97.248" x="24.3389" y="100.4941">Data Transform</text><path d="M162.7217,121.7656 L162.7217,139.1172 L142.7217,143.1172 L162.7217,147.1172 L162.7217,164.4688 A0,0 0 0 0 162.7217,164.4688 L619.4248,164.4688 A0,0 0 0 0 619.4248,164.4688 L619.4248,131.7656 L609.4248,121.7656 L162.7217,121.7656 A0,0 0 0 0 162.7217,121.7656 " fill="#FEFFDD" style="stroke:#181818;stroke-width:0.5;"/><path d="M609.4248,121.7656 L609.4248,131.7656 L619.4248,131.7656 L609.4248,121.7656 " fill="#FEFFDD" style="stroke:#181818;stroke-width:0.5;"/><text fill="#000000" font-family="sans-serif" font-size="13" lengthAdjust="spacing" textLength="435.7031" x="168.7217" y="140.2607">z_value column gives profile in mm instead of m (i.e. 1000 factor difference)</text><text fill="#000000" font-family="sans-serif" font-size="13" lengthAdjust="spacing" textLength="282.896" x="168.7217" y="156.6123">Create new virtual column, z_m = z_value * 1000</text><rect fill="#F1F1F1" height="35.0938" rx="12.5" ry="12.5" style="stroke:#181818;stroke-width:0.5;" width="111.3828" x="31.3389" y="125.5703"/><text fill="#000000" font-family="sans-serif" font-size="12" lengthAdjust="spacing" textLength="91.3828" x="41.3389" y="148.0273">Add new Column</text><rect fill="none" height="101.6641" style="stroke:#000000;stroke-width:1.5;" width="338.1685" x="53.6973" y="186.4688"/><path d="M174.9795,186.4688 L174.9795,197.0781 L164.9795,207.0781 L53.6973,207.0781 " fill="none" style="stroke:#000000;stroke-width:1.5;"/><text fill="#000000" font-family="sans-serif" font-size="14" lengthAdjust="spacing" textLength="111.2822" x="56.6973" y="202.002">TIN Interpoloation</text><path d="M130.3633,217.0781 L130.3633,242.6055 L110.3633,246.6055 L130.3633,250.6055 L130.3633,276.1328 A0,0 0 0 0 130.3633,276.1328 L381.8657,276.1328 A0,0 0 0 0 381.8657,276.1328 L381.8657,227.0781 L371.8657,217.0781 L130.3633,217.0781 A0,0 0 0 0 130.3633,217.0781 " fill="#FEFFDD" style="stroke:#181818;stroke-width:0.5;"/><path d="M371.8657,217.0781 L371.8657,227.0781 L381.8657,227.0781 L371.8657,217.0781 " fill="#FEFFDD" style="stroke:#181818;stroke-width:0.5;"/><text fill="#000000" font-family="sans-serif" font-size="13" lengthAdjust="spacing" textLength="104.0381" x="136.3633" y="235.5732">- develop DEM_m</text><text fill="#000000" font-family="sans-serif" font-size="13" lengthAdjust="spacing" textLength="230.5024" x="136.3633" y="251.9248">- save as permanent layer for future use</text><text fill="#000000" font-family="sans-serif" font-size="13" lengthAdjust="spacing" textLength="3.6118" x="136.3633" y="268.2764">&#160;</text><rect fill="#F1F1F1" height="35.0938" rx="12.5" ry="12.5" style="stroke:#181818;stroke-width:0.5;" width="46.666" x="63.6973" y="229.0586"/><text fill="#000000" font-family="sans-serif" font-size="12" lengthAdjust="spacing" textLength="26.666" x="73.6973" y="251.5156">DEM</text><rect fill="none" height="194.8906" style="stroke:#000000;stroke-width:1.5;" width="265.3423" x="11" y="298.1328"/><path d="M91.8066,298.1328 L91.8066,308.7422 L81.8066,318.7422 L11,318.7422 " fill="none" style="stroke:#000000;stroke-width:1.5;"/><text fill="#000000" font-family="sans-serif" font-size="14" lengthAdjust="spacing" textLength="70.8066" x="14" y="313.666">Profile Tool</text><path d="M173.0605,340.1133 L173.0605,349.2891 L153.0605,353.2891 L173.0605,357.2891 L173.0605,366.4648 A0,0 0 0 0 173.0605,366.4648 L241.0078,366.4648 A0,0 0 0 0 241.0078,366.4648 L241.0078,350.1133 L231.0078,340.1133 L173.0605,340.1133 A0,0 0 0 0 173.0605,340.1133 " fill="#FEFFDD" style="stroke:#181818;stroke-width:0.5;"/><path d="M231.0078,340.1133 L231.0078,350.1133 L241.0078,350.1133 L231.0078,340.1133 " fill="#FEFFDD" style="stroke:#181818;stroke-width:0.5;"/><text fill="#000000" font-family="sans-serif" font-size="13" lengthAdjust="spacing" textLength="46.9473" x="179.0605" y="358.6084">DEM_m</text><rect fill="#F1F1F1" height="35.0938" rx="12.5" ry="12.5" style="stroke:#181818;stroke-width:0.5;" width="132.0605" x="21" y="335.7422"/><text fill="#000000" font-family="sans-serif" font-size="12" lengthAdjust="spacing" textLength="112.0605" x="31" y="358.1992">Select layer mapping</text><path d="M165.8506,395.207 L165.8506,404.3828 L145.8506,408.3828 L165.8506,412.3828 L165.8506,421.5586 A0,0 0 0 0 165.8506,421.5586 L266.3423,421.5586 A0,0 0 0 0 266.3423,421.5586 L266.3423,405.207 L256.3423,395.207 L165.8506,395.207 A0,0 0 0 0 165.8506,395.207 " fill="#FEFFDD" style="stroke:#181818;stroke-width:0.5;"/><path d="M256.3423,395.207 L256.3423,405.207 L266.3423,405.207 L256.3423,395.207 " fill="#FEFFDD" style="stroke:#181818;stroke-width:0.5;"/><text fill="#000000" font-family="sans-serif" font-size="13" lengthAdjust="spacing" textLength="79.4917" x="171.8506" y="413.7021">select the line</text><rect fill="#F1F1F1" height="35.0938" rx="12.5" ry="12.5" style="stroke:#181818;stroke-width:0.5;" width="117.6406" x="28.21" y="390.8359"/><text fill="#000000" font-family="sans-serif" font-size="12" lengthAdjust="spacing" textLength="97.6406" x="38.21" y="413.293">Map "Select Layer</text><path d="M157.375,450.3008 L157.375,459.4766 L137.375,463.4766 L157.375,467.4766 L157.375,476.6523 A0,0 0 0 0 157.375,476.6523 L257.8667,476.6523 A0,0 0 0 0 257.8667,476.6523 L257.8667,460.3008 L247.8667,450.3008 L157.375,450.3008 A0,0 0 0 0 157.375,450.3008 " fill="#FEFFDD" style="stroke:#181818;stroke-width:0.5;"/><path d="M247.8667,450.3008 L247.8667,460.3008 L257.8667,460.3008 L247.8667,450.3008 " fill="#FEFFDD" style="stroke:#181818;stroke-width:0.5;"/><text fill="#000000" font-family="sans-serif" font-size="13" lengthAdjust="spacing" textLength="79.4917" x="163.375" y="468.7959">select the line</text><rect fill="#F1F1F1" height="35.0938" rx="12.5" ry="12.5" style="stroke:#181818;stroke-width:0.5;" width="100.6895" x="36.6855" y="445.9297"/><text fill="#000000" font-family="sans-serif" font-size="12" lengthAdjust="spacing" textLength="80.6895" x="46.6855" y="468.3867">Export 3D DXF</text><rect fill="none" height="194.8906" style="stroke:#000000;stroke-width:1.5;" width="265.3423" x="11" y="503.0234"/><path d="M231.082,503.0234 L231.082,513.6328 L221.082,523.6328 L11,523.6328 " fill="none" style="stroke:#000000;stroke-width:1.5;"/><text fill="#000000" font-family="sans-serif" font-size="14" lengthAdjust="spacing" textLength="210.082" x="14" y="518.5566">Provide DXF to Project with Scale</text><path d="M173.0605,545.0039 L173.0605,554.1797 L153.0605,558.1797 L173.0605,562.1797 L173.0605,571.3555 A0,0 0 0 0 173.0605,571.3555 L241.0078,571.3555 A0,0 0 0 0 241.0078,571.3555 L241.0078,555.0039 L231.0078,545.0039 L173.0605,545.0039 A0,0 0 0 0 173.0605,545.0039 " fill="#FEFFDD" style="stroke:#181818;stroke-width:0.5;"/><path d="M231.0078,545.0039 L231.0078,555.0039 L241.0078,555.0039 L231.0078,545.0039 " fill="#FEFFDD" style="stroke:#181818;stroke-width:0.5;"/><text fill="#000000" font-family="sans-serif" font-size="13" lengthAdjust="spacing" textLength="46.9473" x="179.0605" y="563.499">DEM_m</text><rect fill="#F1F1F1" height="35.0938" rx="12.5" ry="12.5" style="stroke:#181818;stroke-width:0.5;" width="132.0605" x="21" y="540.6328"/><text fill="#000000" font-family="sans-serif" font-size="12" lengthAdjust="spacing" textLength="112.0605" x="31" y="563.0898">Select layer mapping</text><path d="M165.8506,600.0977 L165.8506,609.2734 L145.8506,613.2734 L165.8506,617.2734 L165.8506,626.4492 A0,0 0 0 0 165.8506,626.4492 L266.3423,626.4492 A0,0 0 0 0 266.3423,626.4492 L266.3423,610.0977 L256.3423,600.0977 L165.8506,600.0977 A0,0 0 0 0 165.8506,600.0977 " fill="#FEFFDD" style="stroke:#181818;stroke-width:0.5;"/><path d="M256.3423,600.0977 L256.3423,610.0977 L266.3423,610.0977 L256.3423,600.0977 " fill="#FEFFDD" style="stroke:#181818;stroke-width:0.5;"/><text fill="#000000" font-family="sans-serif" font-size="13" lengthAdjust="spacing" textLength="79.4917" x="171.8506" y="618.5928">select the line</text><rect fill="#F1F1F1" height="35.0938" rx="12.5" ry="12.5" style="stroke:#181818;stroke-width:0.5;" width="117.6406" x="28.21" y="595.7266"/><text fill="#000000" font-family="sans-serif" font-size="12" lengthAdjust="spacing" textLength="97.6406" x="38.21" y="618.1836">Map "Select Layer</text><path d="M157.375,655.1914 L157.375,664.3672 L137.375,668.3672 L157.375,672.3672 L157.375,681.543 A0,0 0 0 0 157.375,681.543 L257.8667,681.543 A0,0 0 0 0 257.8667,681.543 L257.8667,665.1914 L247.8667,655.1914 L157.375,655.1914 A0,0 0 0 0 157.375,655.1914 " fill="#FEFFDD" style="stroke:#181818;stroke-width:0.5;"/><path d="M247.8667,655.1914 L247.8667,665.1914 L257.8667,665.1914 L247.8667,655.1914 " fill="#FEFFDD" style="stroke:#181818;stroke-width:0.5;"/><text fill="#000000" font-family="sans-serif" font-size="13" lengthAdjust="spacing" textLength="79.4917" x="163.375" y="673.6865">select the line</text><rect fill="#F1F1F1" height="35.0938" rx="12.5" ry="12.5" style="stroke:#181818;stroke-width:0.5;" width="100.6895" x="36.6855" y="650.8203"/><text fill="#000000" font-family="sans-serif" font-size="12" lengthAdjust="spacing" textLength="80.6895" x="46.6855" y="673.2773">Export 3D DXF</text><ellipse cx="87.0303" cy="728.9141" fill="none" rx="11" ry="11" style="stroke:#222222;stroke-width:1.0;"/><ellipse cx="87.0303" cy="728.9141" fill="#222222" rx="6" ry="6" style="stroke:#222222;stroke-width:1.0;"/><line style="stroke:#181818;stroke-width:1.0;" x1="87.0303" x2="87.0303" y1="71.7852" y2="125.5703"/><polygon fill="#181818" points="83.0303,115.5703,87.0303,125.5703,91.0303,115.5703,87.0303,119.5703" style="stroke:#181818;stroke-width:1.0;"/><line style="stroke:#181818;stroke-width:1.0;" x1="87.0303" x2="87.0303" y1="160.6641" y2="229.0586"/><polygon fill="#181818" points="83.0303,219.0586,87.0303,229.0586,91.0303,219.0586,87.0303,223.0586" style="stroke:#181818;stroke-width:1.0;"/><line style="stroke:#181818;stroke-width:1.0;" x1="87.0303" x2="87.0303" y1="370.8359" y2="390.8359"/><polygon fill="#181818" points="83.0303,380.8359,87.0303,390.8359,91.0303,380.8359,87.0303,384.8359" style="stroke:#181818;stroke-width:1.0;"/><line style="stroke:#181818;stroke-width:1.0;" x1="87.0303" x2="87.0303" y1="425.9297" y2="445.9297"/><polygon fill="#181818" points="83.0303,435.9297,87.0303,445.9297,91.0303,435.9297,87.0303,439.9297" style="stroke:#181818;stroke-width:1.0;"/><line style="stroke:#181818;stroke-width:1.0;" x1="87.0303" x2="87.0303" y1="264.1523" y2="335.7422"/><polygon fill="#181818" points="83.0303,325.7422,87.0303,335.7422,91.0303,325.7422,87.0303,329.7422" style="stroke:#181818;stroke-width:1.0;"/><line style="stroke:#181818;stroke-width:1.0;" x1="87.0303" x2="87.0303" y1="575.7266" y2="595.7266"/><polygon fill="#181818" points="83.0303,585.7266,87.0303,595.7266,91.0303,585.7266,87.0303,589.7266" style="stroke:#181818;stroke-width:1.0;"/><line style="stroke:#181818;stroke-width:1.0;" x1="87.0303" x2="87.0303" y1="630.8203" y2="650.8203"/><polygon fill="#181818" points="83.0303,640.8203,87.0303,650.8203,91.0303,640.8203,87.0303,644.8203" style="stroke:#181818;stroke-width:1.0;"/><line style="stroke:#181818;stroke-width:1.0;" x1="87.0303" x2="87.0303" y1="481.0234" y2="540.6328"/><polygon fill="#181818" points="83.0303,530.6328,87.0303,540.6328,91.0303,530.6328,87.0303,534.6328" style="stroke:#181818;stroke-width:1.0;"/><line style="stroke:#181818;stroke-width:1.0;" x1="87.0303" x2="87.0303" y1="685.9141" y2="717.9141"/><polygon fill="#181818" points="83.0303,707.9141,87.0303,717.9141,91.0303,707.9141,87.0303,711.9141" style="stroke:#181818;stroke-width:1.0;"/><text fill="#888888" font-family="sans-serif" font-size="10" lengthAdjust="spacing" textLength="88.9697" x="274.2275" y="749.2949">2024.12.08 at 23:08</text><text fill="#888888" font-family="sans-serif" font-size="10" lengthAdjust="spacing" textLength="96.7285" x="270.3481" y="761.873">generate_profile.puml</text><!--SRC=[xLHBRnCn4BxxLumYLKqGH2c8In07o9Os4k6LFN13mtesCLdRgx5tItdyTyQRRL19A14ID-PWoPx7zytdiSF6k1ePBKGJAthkMHE_yutJCy-E6CuUgt0e9b-ROkCe17XuE63cAy_0fFVSM6nMl8L88Rct6BrIdHCkI50n4hnXNnev-0PlB-PBfK94Zag1cFFYPxDQnswRxFN7JrH4qz8KCcgfyZNKVG6D4RiuShfBLTigGaaWZNSmo2G4SaONIizs05_Lhl3qcPOikW8XsrZtPEVu3P4R-_AXnQeXABeqM0criADa75WhQuY46dm95ePcJ6CucqmcK68HHHTjofAON46ZlUepfgHHujKQZWrMFT1z0RRmT0T_hojvA_-d36dtVL-DVFuAvYuIrt8_cCvkAvATBuwMuG7e_ZeaIvWT20ZO4g28GspHaOjGuRLCdbm5b4ricA09fExkuPSMReOdzxvAv7VSbrJ9dFG85klQkDNHpNGjtC6ZGrXW3OCUvcM2ERfys2R5DK5b7Fq9wFnpxJd2emoozo_-0SX1LLkZAU51zEc5faS7LoQkOLbWHV-b_ckfLVhXVArKwUMOrObyMpGSN8kD5uknrgU04KulBwVM3aRg98stGql3aKgr-gmV]--></g></svg>